%
M48
M72
T01C0.02362
T02C0.02400
T03C0.03150
T04C0.04000
T05C0.04400
T06C0.12598
%
T01
X21800Y29300
X39300Y49300
X46800Y39300
X54300Y31800
X61800Y31800
X69300Y39300
X81800Y49300
X84300Y56800
X81800Y64300
X89300Y46800
X101800Y79300
X121800Y84300
X131800Y84300
X136800Y66800
X119300Y49300
X131800Y34300
X131800Y24300
X156800Y34300
X166800Y34300
X166800Y29300
X174300Y26800
X166800Y14300
X161800Y14300
X186800Y14300
X191800Y34300
X189300Y39300
X179300Y54300
X166800Y56800
X176800Y81800
X169300Y94300
X169300Y99300
X156800Y84300
X136800Y116800
X131800Y134300
X119300Y131800
X114300Y119300
X111800Y104300
X104300Y136800
X104300Y141800
X101800Y146800
X96800Y151800
X91800Y156800
X76800Y166800
X74300Y171800
X69300Y176800
X64300Y174300
X61800Y169300
X59300Y164300
X51800Y164300
X46800Y174300
X41800Y171800
X31800Y174300
X36800Y191800
X41800Y199300
X44300Y204300
X49300Y206800
X59300Y219300
X56800Y224300
X64300Y216800
X74300Y211800
X86800Y216800
X91800Y206800
X96800Y209300
X101800Y206800
X116800Y209300
X116800Y186800
X131800Y184300
X136800Y164300
X121800Y161800
X116800Y166800
X111800Y161800
X119300Y149300
X94300Y136800
X81800Y121800
X71800Y121800
X69300Y114300
X59300Y119300
X64300Y129300
X64300Y136800
X46800Y141800
X36800Y151800
X19300Y149300
X14300Y169300
X61800Y196800
X71800Y186800
X86800Y201800
X96800Y184300
X94300Y176800
X101800Y231800
X101800Y239300
X99300Y251800
X94300Y254300
X91800Y259300
X81800Y241800
X84300Y236800
X76800Y244300
X69300Y249300
X59300Y241800
X49300Y246800
X39300Y241800
X34300Y266800
X19300Y269300
X49300Y271800
X54300Y274300
X59300Y269300
X89300Y289300
X129300Y266800
X131800Y234300
X121800Y231800
X136800Y214300
X156800Y234300
X169300Y226800
X169300Y221800
X169300Y199300
X169300Y194300
X156800Y184300
X169300Y176800
X169300Y171800
X169300Y149300
X169300Y144300
X156800Y134300
X169300Y126800
X169300Y121800
X199300Y139300
X204300Y149300
X201800Y164300
X199300Y179300
X206800Y189300
X201800Y204300
X199300Y219300
X206800Y229300
X201800Y244300
X204300Y259300
X189300Y274300
X168060Y249300
X219300Y219300
X226800Y229300
X231800Y214300
X226800Y189300
X219300Y179300
X231800Y174300
X226800Y149300
X219300Y139300
X231800Y134300
X226800Y109300
X219300Y99300
X231800Y94300
X221800Y69300
X201800Y69300
X201800Y84300
X199300Y99300
X206800Y109300
X201800Y124300
X211800Y24300
X58264Y72407
X52229Y71371
X46800Y64300
X36800Y76800
X34300Y64300
X16800Y64300
X46800Y86800
X224300Y259300
X231800Y254300
T02
X18568Y160032
X18568Y140032
X54300Y106800
X74300Y106800
T03
X74300Y257863
X74300Y265737
X221800Y29300
X221800Y21426
T04
X16800Y84300
X16800Y94300
X16800Y104300
X14300Y186800
X14300Y196800
X14300Y206800
X14300Y216800
X24300Y216800
X24300Y206800
X24300Y196800
X24300Y186800
X156800Y194300
X156800Y204300
X156800Y214300
X156800Y224300
X156800Y244300
X156800Y254300
X156800Y264300
X156800Y274300
X156800Y174300
X156800Y164300
X156800Y154300
X156800Y144300
X156800Y124300
X156800Y114300
X156800Y104300
X156800Y94300
X156800Y74300
X156800Y64300
X156800Y54300
X156800Y44300
T05
X201800Y49300
X216800Y49300
X231800Y49300
T06
X14300Y14300
X99300Y14300
X139300Y289300
X14300Y289300
M30
