%
M48
M72
T01C0.02362
T02C0.02400
T03C0.03150
T04C0.04000
T05C0.04400
T06C0.12598
%
T01
X9300Y35344
X16800Y65344
X34300Y65344
X36800Y77844
X46800Y87844
X52229Y72416
X58264Y73451
X46800Y65344
X39300Y50344
X49300Y40344
X69300Y40344
X84300Y50344
X84300Y57844
X81800Y65344
X101800Y80344
X121800Y85344
X131800Y85344
X136800Y67844
X119300Y50344
X131800Y35344
X131800Y25344
X156800Y35344
X166800Y35344
X166800Y30344
X174300Y27844
X166800Y15344
X161800Y15344
X186800Y15344
X191800Y35344
X189300Y40344
X179300Y55344
X166800Y57844
X176800Y82844
X169300Y95344
X169300Y100344
X156800Y85344
X136800Y117844
X131800Y135344
X119300Y132844
X114300Y120344
X111800Y105344
X104300Y137844
X104300Y142844
X101800Y147844
X96800Y152844
X91800Y157844
X76800Y167844
X74300Y172844
X69300Y177844
X64300Y175344
X61800Y170344
X59300Y165344
X51800Y165344
X46800Y175344
X41800Y172844
X31800Y175344
X36800Y192844
X41800Y200344
X44300Y205344
X49300Y207844
X61800Y197844
X71800Y187844
X86800Y202844
X91800Y207844
X96800Y210344
X101800Y207844
X116800Y210344
X116800Y187844
X131800Y185344
X136800Y165344
X121800Y162844
X116800Y167844
X111800Y162844
X119300Y150344
X94300Y137844
X81800Y122844
X71800Y122844
X69300Y115344
X59300Y120344
X64300Y130344
X64300Y137844
X46800Y142844
X36800Y152844
X19300Y150344
X14300Y170344
X56800Y222844
X61800Y220344
X64300Y215344
X74300Y212844
X86800Y217844
X86800Y232844
X84300Y237844
X76800Y237844
X59300Y235344
X49300Y235344
X39300Y235344
X34300Y262844
X39300Y265344
X59300Y265344
X89300Y290344
X91800Y260344
X96800Y257844
X99300Y252844
X101800Y240344
X101800Y232844
X121800Y232844
X131800Y235344
X136800Y215344
X156800Y235344
X169300Y227844
X169300Y222844
X169300Y200344
X169300Y195344
X156800Y185344
X169300Y177844
X169300Y172844
X169300Y150344
X169300Y145344
X156800Y135344
X169300Y127844
X169300Y122844
X199300Y140344
X204300Y150344
X201800Y165344
X199300Y180344
X206800Y190344
X201800Y205344
X199300Y220344
X206800Y230344
X201800Y245344
X204300Y260344
X189300Y275344
X168060Y250344
X129300Y267844
X96800Y185344
X94300Y177844
X19300Y270344
X199300Y100344
X206800Y110344
X201800Y125344
X219300Y140344
X226800Y150344
X231800Y135344
X226800Y110344
X219300Y100344
X231800Y95344
X221800Y70344
X201800Y70344
X201800Y85344
X211800Y25344
X231800Y175344
X219300Y180344
X226800Y190344
X231800Y215344
X219300Y220344
X226800Y230344
X231800Y255344
X224300Y260344
T02
X18568Y161077
X18568Y141077
X54300Y107844
X74300Y107844
T03
X74300Y246407
X74300Y254281
X221800Y30344
X221800Y22470
T04
X16800Y85344
X16800Y95344
X16800Y105344
X14300Y187844
X14300Y197844
X14300Y207844
X24300Y207844
X24300Y197844
X24300Y187844
X24300Y217844
X14300Y217844
X156800Y215344
X156800Y205344
X156800Y195344
X156800Y175344
X156800Y165344
X156800Y155344
X156800Y145344
X156800Y125344
X156800Y115344
X156800Y105344
X156800Y95344
X156800Y75344
X156800Y65344
X156800Y55344
X156800Y45344
X156800Y225344
X156800Y245344
X156800Y255344
X156800Y265344
X156800Y275344
T05
X201800Y50344
X216800Y50344
X231800Y50344
T06
X14300Y15344
X99300Y15344
X139300Y290344
X14300Y290344
M30
