G75*
%MOIN*%
%OFA0B0*%
%FSLAX25Y25*%
%IPPOS*%
%LPD*%
%AMOC8*
5,1,8,0,0,1.08239X$1,22.5*
%
%ADD10C,0.00000*%
%ADD11R,0.04724X0.02362*%
%ADD12R,0.05000X0.02100*%
%ADD13R,0.02100X0.05000*%
%ADD14R,0.05118X0.06299*%
%ADD15R,0.06299X0.05118*%
%ADD16R,0.02362X0.04724*%
%ADD17R,0.03600X0.01600*%
D10*
X0001800Y0002844D02*
X0001800Y0302805D01*
X0245501Y0302805D01*
X0245501Y0002844D01*
X0001800Y0002844D01*
D11*
X0196658Y0016604D03*
X0196658Y0024085D03*
X0206942Y0024085D03*
X0206942Y0020344D03*
X0206942Y0016604D03*
X0211658Y0081604D03*
X0211658Y0085344D03*
X0211658Y0089085D03*
X0221942Y0089085D03*
X0221942Y0081604D03*
X0221942Y0121604D03*
X0221942Y0129085D03*
X0211658Y0129085D03*
X0211658Y0125344D03*
X0211658Y0121604D03*
X0211658Y0161604D03*
X0211658Y0165344D03*
X0211658Y0169085D03*
X0221942Y0169085D03*
X0221942Y0161604D03*
X0221942Y0201604D03*
X0221942Y0209085D03*
X0211658Y0209085D03*
X0211658Y0205344D03*
X0211658Y0201604D03*
X0211658Y0241604D03*
X0211658Y0245344D03*
X0211658Y0249085D03*
X0221942Y0249085D03*
X0221942Y0241604D03*
D12*
G36*
X0076535Y0068475D02*
X0080070Y0072010D01*
X0081555Y0070525D01*
X0078020Y0066990D01*
X0076535Y0068475D01*
G37*
G36*
X0074308Y0070702D02*
X0077843Y0074237D01*
X0079328Y0072752D01*
X0075793Y0069217D01*
X0074308Y0070702D01*
G37*
G36*
X0072081Y0072929D02*
X0075616Y0076464D01*
X0077101Y0074979D01*
X0073566Y0071444D01*
X0072081Y0072929D01*
G37*
G36*
X0069854Y0075156D02*
X0073389Y0078691D01*
X0074874Y0077206D01*
X0071339Y0073671D01*
X0069854Y0075156D01*
G37*
G36*
X0067627Y0077383D02*
X0071162Y0080918D01*
X0072647Y0079433D01*
X0069112Y0075898D01*
X0067627Y0077383D01*
G37*
G36*
X0065399Y0079610D02*
X0068934Y0083145D01*
X0070419Y0081660D01*
X0066884Y0078125D01*
X0065399Y0079610D01*
G37*
G36*
X0063172Y0081837D02*
X0066707Y0085372D01*
X0068192Y0083887D01*
X0064657Y0080352D01*
X0063172Y0081837D01*
G37*
G36*
X0060945Y0084064D02*
X0064480Y0087599D01*
X0065965Y0086114D01*
X0062430Y0082579D01*
X0060945Y0084064D01*
G37*
G36*
X0039272Y0057937D02*
X0042807Y0061472D01*
X0044292Y0059987D01*
X0040757Y0056452D01*
X0039272Y0057937D01*
G37*
G36*
X0037045Y0060164D02*
X0040580Y0063699D01*
X0042065Y0062214D01*
X0038530Y0058679D01*
X0037045Y0060164D01*
G37*
G36*
X0041499Y0055710D02*
X0045034Y0059245D01*
X0046519Y0057760D01*
X0042984Y0054225D01*
X0041499Y0055710D01*
G37*
G36*
X0043726Y0053483D02*
X0047261Y0057018D01*
X0048746Y0055533D01*
X0045211Y0051998D01*
X0043726Y0053483D01*
G37*
G36*
X0045953Y0051256D02*
X0049488Y0054791D01*
X0050973Y0053306D01*
X0047438Y0049771D01*
X0045953Y0051256D01*
G37*
G36*
X0048181Y0049029D02*
X0051716Y0052564D01*
X0053201Y0051079D01*
X0049666Y0047544D01*
X0048181Y0049029D01*
G37*
G36*
X0050408Y0046802D02*
X0053943Y0050337D01*
X0055428Y0048852D01*
X0051893Y0045317D01*
X0050408Y0046802D01*
G37*
G36*
X0052635Y0044574D02*
X0056170Y0048109D01*
X0057655Y0046624D01*
X0054120Y0043089D01*
X0052635Y0044574D01*
G37*
D13*
G36*
X0060945Y0046624D02*
X0062430Y0048109D01*
X0065965Y0044574D01*
X0064480Y0043089D01*
X0060945Y0046624D01*
G37*
G36*
X0063172Y0048852D02*
X0064657Y0050337D01*
X0068192Y0046802D01*
X0066707Y0045317D01*
X0063172Y0048852D01*
G37*
G36*
X0065399Y0051079D02*
X0066884Y0052564D01*
X0070419Y0049029D01*
X0068934Y0047544D01*
X0065399Y0051079D01*
G37*
G36*
X0067627Y0053306D02*
X0069112Y0054791D01*
X0072647Y0051256D01*
X0071162Y0049771D01*
X0067627Y0053306D01*
G37*
G36*
X0069854Y0055533D02*
X0071339Y0057018D01*
X0074874Y0053483D01*
X0073389Y0051998D01*
X0069854Y0055533D01*
G37*
G36*
X0072081Y0057760D02*
X0073566Y0059245D01*
X0077101Y0055710D01*
X0075616Y0054225D01*
X0072081Y0057760D01*
G37*
G36*
X0074308Y0059987D02*
X0075793Y0061472D01*
X0079328Y0057937D01*
X0077843Y0056452D01*
X0074308Y0059987D01*
G37*
G36*
X0076535Y0062214D02*
X0078020Y0063699D01*
X0081555Y0060164D01*
X0080070Y0058679D01*
X0076535Y0062214D01*
G37*
G36*
X0052635Y0086114D02*
X0054120Y0087599D01*
X0057655Y0084064D01*
X0056170Y0082579D01*
X0052635Y0086114D01*
G37*
G36*
X0050408Y0083887D02*
X0051893Y0085372D01*
X0055428Y0081837D01*
X0053943Y0080352D01*
X0050408Y0083887D01*
G37*
G36*
X0048181Y0081660D02*
X0049666Y0083145D01*
X0053201Y0079610D01*
X0051716Y0078125D01*
X0048181Y0081660D01*
G37*
G36*
X0045953Y0079433D02*
X0047438Y0080918D01*
X0050973Y0077383D01*
X0049488Y0075898D01*
X0045953Y0079433D01*
G37*
G36*
X0043726Y0077206D02*
X0045211Y0078691D01*
X0048746Y0075156D01*
X0047261Y0073671D01*
X0043726Y0077206D01*
G37*
G36*
X0041499Y0074979D02*
X0042984Y0076464D01*
X0046519Y0072929D01*
X0045034Y0071444D01*
X0041499Y0074979D01*
G37*
G36*
X0039272Y0072752D02*
X0040757Y0074237D01*
X0044292Y0070702D01*
X0042807Y0069217D01*
X0039272Y0072752D01*
G37*
G36*
X0037045Y0070525D02*
X0038530Y0072010D01*
X0042065Y0068475D01*
X0040580Y0066990D01*
X0037045Y0070525D01*
G37*
D14*
G36*
X0027501Y0071597D02*
X0031120Y0067978D01*
X0026667Y0063525D01*
X0023048Y0067144D01*
X0027501Y0071597D01*
G37*
G36*
X0030552Y0077144D02*
X0026933Y0073525D01*
X0022480Y0077978D01*
X0026099Y0081597D01*
X0030552Y0077144D01*
G37*
G36*
X0036120Y0082711D02*
X0032501Y0079092D01*
X0028048Y0083545D01*
X0031667Y0087164D01*
X0036120Y0082711D01*
G37*
G36*
X0021933Y0077164D02*
X0025552Y0073545D01*
X0021099Y0069092D01*
X0017480Y0072711D01*
X0021933Y0077164D01*
G37*
X0050363Y0097844D03*
X0058237Y0097844D03*
X0070363Y0097844D03*
X0078237Y0097844D03*
X0063237Y0030344D03*
X0055363Y0030344D03*
X0020737Y0177844D03*
X0012863Y0177844D03*
X0012863Y0227844D03*
X0020737Y0227844D03*
X0058060Y0190344D03*
X0065540Y0190344D03*
X0053237Y0275344D03*
X0045363Y0275344D03*
D15*
X0008568Y0165014D03*
X0008568Y0157140D03*
X0008568Y0145014D03*
X0008568Y0137140D03*
X0046800Y0136781D03*
X0046800Y0128907D03*
X0086800Y0084085D03*
X0086800Y0076604D03*
X0231800Y0029281D03*
X0231800Y0021407D03*
D16*
X0183040Y0035203D03*
X0175560Y0035203D03*
X0175560Y0045486D03*
X0179300Y0045486D03*
X0183040Y0045486D03*
D17*
X0060000Y0241594D03*
X0060000Y0244094D03*
X0060000Y0246594D03*
X0060000Y0249094D03*
X0060000Y0251594D03*
X0060000Y0254094D03*
X0060000Y0256594D03*
X0060000Y0259094D03*
X0038600Y0259094D03*
X0038600Y0256594D03*
X0038600Y0254094D03*
X0038600Y0251594D03*
X0038600Y0249094D03*
X0038600Y0246594D03*
X0038600Y0244094D03*
X0038600Y0241594D03*
M02*
