G75*
%MOIN*%
%OFA0B0*%
%FSLAX25Y25*%
%IPPOS*%
%LPD*%
%AMOC8*
5,1,8,0,0,1.08239X$1,22.5*
%
%ADD10C,0.00000*%
%ADD11C,0.00600*%
%ADD12C,0.02400*%
%ADD13R,0.05000X0.05000*%
%ADD14C,0.00400*%
%ADD15C,0.00500*%
%ADD16C,0.00200*%
%ADD17R,0.00787X0.00787*%
%ADD18C,0.00300*%
%ADD19R,0.02000X0.02000*%
%ADD20C,0.00800*%
%ADD21C,0.01000*%
D10*
X0001800Y0002844D02*
X0001800Y0302805D01*
X0245501Y0302805D01*
X0245501Y0002844D01*
X0001800Y0002844D01*
D11*
X0014300Y0080344D02*
X0019300Y0080344D01*
X0021800Y0082844D01*
X0021800Y0087844D01*
X0019300Y0090344D01*
X0021800Y0092844D01*
X0021800Y0097844D01*
X0019300Y0100344D01*
X0021800Y0102844D01*
X0021800Y0107844D01*
X0019300Y0110344D01*
X0014300Y0110344D01*
X0011800Y0107844D01*
X0011800Y0102844D01*
X0014300Y0100344D01*
X0011800Y0097844D01*
X0011800Y0092844D01*
X0014300Y0090344D01*
X0011800Y0087844D01*
X0011800Y0082844D01*
X0014300Y0080344D01*
X0050800Y0098844D02*
X0077800Y0098844D01*
X0078019Y0098847D01*
X0078238Y0098855D01*
X0078457Y0098868D01*
X0078675Y0098887D01*
X0078893Y0098911D01*
X0079110Y0098940D01*
X0079327Y0098974D01*
X0079542Y0099014D01*
X0079757Y0099059D01*
X0079970Y0099110D01*
X0080182Y0099165D01*
X0080393Y0099226D01*
X0080602Y0099291D01*
X0080809Y0099362D01*
X0081015Y0099438D01*
X0081219Y0099519D01*
X0081421Y0099604D01*
X0081620Y0099695D01*
X0081817Y0099790D01*
X0082012Y0099891D01*
X0082205Y0099996D01*
X0082395Y0100105D01*
X0082582Y0100219D01*
X0082766Y0100338D01*
X0082947Y0100461D01*
X0083125Y0100589D01*
X0083301Y0100721D01*
X0083472Y0100857D01*
X0083641Y0100997D01*
X0083806Y0101141D01*
X0083967Y0101289D01*
X0084125Y0101441D01*
X0084279Y0101597D01*
X0084429Y0101757D01*
X0084576Y0101920D01*
X0084718Y0102087D01*
X0084856Y0102257D01*
X0084990Y0102431D01*
X0085120Y0102607D01*
X0085245Y0102787D01*
X0085366Y0102970D01*
X0085482Y0103156D01*
X0085594Y0103344D01*
X0085701Y0103535D01*
X0085804Y0103729D01*
X0085902Y0103925D01*
X0085995Y0104123D01*
X0086083Y0104324D01*
X0086166Y0104527D01*
X0086245Y0104732D01*
X0086318Y0104938D01*
X0086386Y0105146D01*
X0086449Y0105356D01*
X0086507Y0105568D01*
X0086560Y0105780D01*
X0086608Y0105994D01*
X0086650Y0106209D01*
X0086687Y0106425D01*
X0086719Y0106642D01*
X0086746Y0106860D01*
X0086767Y0107078D01*
X0086783Y0107296D01*
X0086794Y0107515D01*
X0086799Y0107734D01*
X0086799Y0107954D01*
X0086794Y0108173D01*
X0086783Y0108392D01*
X0086767Y0108610D01*
X0086746Y0108828D01*
X0086719Y0109046D01*
X0086687Y0109263D01*
X0086650Y0109479D01*
X0086608Y0109694D01*
X0086560Y0109908D01*
X0086507Y0110120D01*
X0086449Y0110332D01*
X0086386Y0110542D01*
X0086318Y0110750D01*
X0086245Y0110956D01*
X0086166Y0111161D01*
X0086083Y0111364D01*
X0085995Y0111565D01*
X0085902Y0111763D01*
X0085804Y0111959D01*
X0085701Y0112153D01*
X0085594Y0112344D01*
X0085482Y0112532D01*
X0085366Y0112718D01*
X0085245Y0112901D01*
X0085120Y0113081D01*
X0084990Y0113257D01*
X0084856Y0113431D01*
X0084718Y0113601D01*
X0084576Y0113768D01*
X0084429Y0113931D01*
X0084279Y0114091D01*
X0084125Y0114247D01*
X0083967Y0114399D01*
X0083806Y0114547D01*
X0083641Y0114691D01*
X0083472Y0114831D01*
X0083301Y0114967D01*
X0083125Y0115099D01*
X0082947Y0115227D01*
X0082766Y0115350D01*
X0082582Y0115469D01*
X0082395Y0115583D01*
X0082205Y0115692D01*
X0082012Y0115797D01*
X0081817Y0115898D01*
X0081620Y0115993D01*
X0081421Y0116084D01*
X0081219Y0116169D01*
X0081015Y0116250D01*
X0080809Y0116326D01*
X0080602Y0116397D01*
X0080393Y0116462D01*
X0080182Y0116523D01*
X0079970Y0116578D01*
X0079757Y0116629D01*
X0079542Y0116674D01*
X0079327Y0116714D01*
X0079110Y0116748D01*
X0078893Y0116777D01*
X0078675Y0116801D01*
X0078457Y0116820D01*
X0078238Y0116833D01*
X0078019Y0116841D01*
X0077800Y0116844D01*
X0050800Y0116844D01*
X0050581Y0116841D01*
X0050362Y0116833D01*
X0050143Y0116820D01*
X0049925Y0116801D01*
X0049707Y0116777D01*
X0049490Y0116748D01*
X0049273Y0116714D01*
X0049058Y0116674D01*
X0048843Y0116629D01*
X0048630Y0116578D01*
X0048418Y0116523D01*
X0048207Y0116462D01*
X0047998Y0116397D01*
X0047791Y0116326D01*
X0047585Y0116250D01*
X0047381Y0116169D01*
X0047179Y0116084D01*
X0046980Y0115993D01*
X0046783Y0115898D01*
X0046588Y0115797D01*
X0046395Y0115692D01*
X0046205Y0115583D01*
X0046018Y0115469D01*
X0045834Y0115350D01*
X0045653Y0115227D01*
X0045475Y0115099D01*
X0045299Y0114967D01*
X0045128Y0114831D01*
X0044959Y0114691D01*
X0044794Y0114547D01*
X0044633Y0114399D01*
X0044475Y0114247D01*
X0044321Y0114091D01*
X0044171Y0113931D01*
X0044024Y0113768D01*
X0043882Y0113601D01*
X0043744Y0113431D01*
X0043610Y0113257D01*
X0043480Y0113081D01*
X0043355Y0112901D01*
X0043234Y0112718D01*
X0043118Y0112532D01*
X0043006Y0112344D01*
X0042899Y0112153D01*
X0042796Y0111959D01*
X0042698Y0111763D01*
X0042605Y0111565D01*
X0042517Y0111364D01*
X0042434Y0111161D01*
X0042355Y0110956D01*
X0042282Y0110750D01*
X0042214Y0110542D01*
X0042151Y0110332D01*
X0042093Y0110120D01*
X0042040Y0109908D01*
X0041992Y0109694D01*
X0041950Y0109479D01*
X0041913Y0109263D01*
X0041881Y0109046D01*
X0041854Y0108828D01*
X0041833Y0108610D01*
X0041817Y0108392D01*
X0041806Y0108173D01*
X0041801Y0107954D01*
X0041801Y0107734D01*
X0041806Y0107515D01*
X0041817Y0107296D01*
X0041833Y0107078D01*
X0041854Y0106860D01*
X0041881Y0106642D01*
X0041913Y0106425D01*
X0041950Y0106209D01*
X0041992Y0105994D01*
X0042040Y0105780D01*
X0042093Y0105568D01*
X0042151Y0105356D01*
X0042214Y0105146D01*
X0042282Y0104938D01*
X0042355Y0104732D01*
X0042434Y0104527D01*
X0042517Y0104324D01*
X0042605Y0104123D01*
X0042698Y0103925D01*
X0042796Y0103729D01*
X0042899Y0103535D01*
X0043006Y0103344D01*
X0043118Y0103156D01*
X0043234Y0102970D01*
X0043355Y0102787D01*
X0043480Y0102607D01*
X0043610Y0102431D01*
X0043744Y0102257D01*
X0043882Y0102087D01*
X0044024Y0101920D01*
X0044171Y0101757D01*
X0044321Y0101597D01*
X0044475Y0101441D01*
X0044633Y0101289D01*
X0044794Y0101141D01*
X0044959Y0100997D01*
X0045128Y0100857D01*
X0045299Y0100721D01*
X0045475Y0100589D01*
X0045653Y0100461D01*
X0045834Y0100338D01*
X0046018Y0100219D01*
X0046205Y0100105D01*
X0046395Y0099996D01*
X0046588Y0099891D01*
X0046783Y0099790D01*
X0046980Y0099695D01*
X0047179Y0099604D01*
X0047381Y0099519D01*
X0047585Y0099438D01*
X0047791Y0099362D01*
X0047998Y0099291D01*
X0048207Y0099226D01*
X0048418Y0099165D01*
X0048630Y0099110D01*
X0048843Y0099059D01*
X0049058Y0099014D01*
X0049273Y0098974D01*
X0049490Y0098940D01*
X0049707Y0098911D01*
X0049925Y0098887D01*
X0050143Y0098868D01*
X0050362Y0098855D01*
X0050581Y0098847D01*
X0050800Y0098844D01*
X0027568Y0137577D02*
X0027568Y0164577D01*
X0027565Y0164796D01*
X0027557Y0165015D01*
X0027544Y0165234D01*
X0027525Y0165452D01*
X0027501Y0165670D01*
X0027472Y0165887D01*
X0027438Y0166104D01*
X0027398Y0166319D01*
X0027353Y0166534D01*
X0027302Y0166747D01*
X0027247Y0166959D01*
X0027186Y0167170D01*
X0027121Y0167379D01*
X0027050Y0167586D01*
X0026974Y0167792D01*
X0026893Y0167996D01*
X0026808Y0168198D01*
X0026717Y0168397D01*
X0026622Y0168594D01*
X0026521Y0168789D01*
X0026416Y0168982D01*
X0026307Y0169172D01*
X0026193Y0169359D01*
X0026074Y0169543D01*
X0025951Y0169724D01*
X0025823Y0169902D01*
X0025691Y0170078D01*
X0025555Y0170249D01*
X0025415Y0170418D01*
X0025271Y0170583D01*
X0025123Y0170744D01*
X0024971Y0170902D01*
X0024815Y0171056D01*
X0024655Y0171206D01*
X0024492Y0171353D01*
X0024325Y0171495D01*
X0024155Y0171633D01*
X0023981Y0171767D01*
X0023805Y0171897D01*
X0023625Y0172022D01*
X0023442Y0172143D01*
X0023256Y0172259D01*
X0023068Y0172371D01*
X0022877Y0172478D01*
X0022683Y0172581D01*
X0022487Y0172679D01*
X0022289Y0172772D01*
X0022088Y0172860D01*
X0021885Y0172943D01*
X0021680Y0173022D01*
X0021474Y0173095D01*
X0021266Y0173163D01*
X0021056Y0173226D01*
X0020844Y0173284D01*
X0020632Y0173337D01*
X0020418Y0173385D01*
X0020203Y0173427D01*
X0019987Y0173464D01*
X0019770Y0173496D01*
X0019552Y0173523D01*
X0019334Y0173544D01*
X0019116Y0173560D01*
X0018897Y0173571D01*
X0018678Y0173576D01*
X0018458Y0173576D01*
X0018239Y0173571D01*
X0018020Y0173560D01*
X0017802Y0173544D01*
X0017584Y0173523D01*
X0017366Y0173496D01*
X0017149Y0173464D01*
X0016933Y0173427D01*
X0016718Y0173385D01*
X0016504Y0173337D01*
X0016292Y0173284D01*
X0016080Y0173226D01*
X0015870Y0173163D01*
X0015662Y0173095D01*
X0015456Y0173022D01*
X0015251Y0172943D01*
X0015048Y0172860D01*
X0014847Y0172772D01*
X0014649Y0172679D01*
X0014453Y0172581D01*
X0014259Y0172478D01*
X0014068Y0172371D01*
X0013880Y0172259D01*
X0013694Y0172143D01*
X0013511Y0172022D01*
X0013331Y0171897D01*
X0013155Y0171767D01*
X0012981Y0171633D01*
X0012811Y0171495D01*
X0012644Y0171353D01*
X0012481Y0171206D01*
X0012321Y0171056D01*
X0012165Y0170902D01*
X0012013Y0170744D01*
X0011865Y0170583D01*
X0011721Y0170418D01*
X0011581Y0170249D01*
X0011445Y0170078D01*
X0011313Y0169902D01*
X0011185Y0169724D01*
X0011062Y0169543D01*
X0010943Y0169359D01*
X0010829Y0169172D01*
X0010720Y0168982D01*
X0010615Y0168789D01*
X0010514Y0168594D01*
X0010419Y0168397D01*
X0010328Y0168198D01*
X0010243Y0167996D01*
X0010162Y0167792D01*
X0010086Y0167586D01*
X0010015Y0167379D01*
X0009950Y0167170D01*
X0009889Y0166959D01*
X0009834Y0166747D01*
X0009783Y0166534D01*
X0009738Y0166319D01*
X0009698Y0166104D01*
X0009664Y0165887D01*
X0009635Y0165670D01*
X0009611Y0165452D01*
X0009592Y0165234D01*
X0009579Y0165015D01*
X0009571Y0164796D01*
X0009568Y0164577D01*
X0009568Y0137577D01*
X0009571Y0137358D01*
X0009579Y0137139D01*
X0009592Y0136920D01*
X0009611Y0136702D01*
X0009635Y0136484D01*
X0009664Y0136267D01*
X0009698Y0136050D01*
X0009738Y0135835D01*
X0009783Y0135620D01*
X0009834Y0135407D01*
X0009889Y0135195D01*
X0009950Y0134984D01*
X0010015Y0134775D01*
X0010086Y0134568D01*
X0010162Y0134362D01*
X0010243Y0134158D01*
X0010328Y0133956D01*
X0010419Y0133757D01*
X0010514Y0133560D01*
X0010615Y0133365D01*
X0010720Y0133172D01*
X0010829Y0132982D01*
X0010943Y0132795D01*
X0011062Y0132611D01*
X0011185Y0132430D01*
X0011313Y0132252D01*
X0011445Y0132076D01*
X0011581Y0131905D01*
X0011721Y0131736D01*
X0011865Y0131571D01*
X0012013Y0131410D01*
X0012165Y0131252D01*
X0012321Y0131098D01*
X0012481Y0130948D01*
X0012644Y0130801D01*
X0012811Y0130659D01*
X0012981Y0130521D01*
X0013155Y0130387D01*
X0013331Y0130257D01*
X0013511Y0130132D01*
X0013694Y0130011D01*
X0013880Y0129895D01*
X0014068Y0129783D01*
X0014259Y0129676D01*
X0014453Y0129573D01*
X0014649Y0129475D01*
X0014847Y0129382D01*
X0015048Y0129294D01*
X0015251Y0129211D01*
X0015456Y0129132D01*
X0015662Y0129059D01*
X0015870Y0128991D01*
X0016080Y0128928D01*
X0016292Y0128870D01*
X0016504Y0128817D01*
X0016718Y0128769D01*
X0016933Y0128727D01*
X0017149Y0128690D01*
X0017366Y0128658D01*
X0017584Y0128631D01*
X0017802Y0128610D01*
X0018020Y0128594D01*
X0018239Y0128583D01*
X0018458Y0128578D01*
X0018678Y0128578D01*
X0018897Y0128583D01*
X0019116Y0128594D01*
X0019334Y0128610D01*
X0019552Y0128631D01*
X0019770Y0128658D01*
X0019987Y0128690D01*
X0020203Y0128727D01*
X0020418Y0128769D01*
X0020632Y0128817D01*
X0020844Y0128870D01*
X0021056Y0128928D01*
X0021266Y0128991D01*
X0021474Y0129059D01*
X0021680Y0129132D01*
X0021885Y0129211D01*
X0022088Y0129294D01*
X0022289Y0129382D01*
X0022487Y0129475D01*
X0022683Y0129573D01*
X0022877Y0129676D01*
X0023068Y0129783D01*
X0023256Y0129895D01*
X0023442Y0130011D01*
X0023625Y0130132D01*
X0023805Y0130257D01*
X0023981Y0130387D01*
X0024155Y0130521D01*
X0024325Y0130659D01*
X0024492Y0130801D01*
X0024655Y0130948D01*
X0024815Y0131098D01*
X0024971Y0131252D01*
X0025123Y0131410D01*
X0025271Y0131571D01*
X0025415Y0131736D01*
X0025555Y0131905D01*
X0025691Y0132076D01*
X0025823Y0132252D01*
X0025951Y0132430D01*
X0026074Y0132611D01*
X0026193Y0132795D01*
X0026307Y0132982D01*
X0026416Y0133172D01*
X0026521Y0133365D01*
X0026622Y0133560D01*
X0026717Y0133757D01*
X0026808Y0133956D01*
X0026893Y0134158D01*
X0026974Y0134362D01*
X0027050Y0134568D01*
X0027121Y0134775D01*
X0027186Y0134984D01*
X0027247Y0135195D01*
X0027302Y0135407D01*
X0027353Y0135620D01*
X0027398Y0135835D01*
X0027438Y0136050D01*
X0027472Y0136267D01*
X0027501Y0136484D01*
X0027525Y0136702D01*
X0027544Y0136920D01*
X0027557Y0137139D01*
X0027565Y0137358D01*
X0027568Y0137577D01*
X0026800Y0182844D02*
X0011800Y0182844D01*
X0009300Y0185344D01*
X0009300Y0190344D01*
X0011800Y0192844D01*
X0009300Y0195344D01*
X0009300Y0200344D01*
X0011800Y0202844D01*
X0009300Y0205344D01*
X0009300Y0210344D01*
X0011800Y0212844D01*
X0009300Y0215344D01*
X0009300Y0220344D01*
X0011800Y0222844D01*
X0026800Y0222844D01*
X0029300Y0220344D01*
X0029300Y0215344D01*
X0026800Y0212844D01*
X0029300Y0210344D01*
X0029300Y0205344D01*
X0026800Y0202844D01*
X0029300Y0200344D01*
X0029300Y0195344D01*
X0026800Y0192844D01*
X0029300Y0190344D01*
X0029300Y0185344D01*
X0026800Y0182844D01*
X0075662Y0273808D02*
X0079932Y0273808D01*
X0081000Y0274876D01*
X0081000Y0277011D01*
X0079932Y0278078D01*
X0075662Y0278078D02*
X0074595Y0277011D01*
X0074595Y0274876D01*
X0075662Y0273808D01*
X0074595Y0280253D02*
X0074595Y0284524D01*
X0074595Y0282389D02*
X0081000Y0282389D01*
X0081000Y0286699D02*
X0074595Y0286699D01*
X0074595Y0289902D01*
X0075662Y0290969D01*
X0077797Y0290969D01*
X0078865Y0289902D01*
X0078865Y0286699D01*
X0078865Y0288834D02*
X0081000Y0290969D01*
X0138993Y0246423D02*
X0138993Y0234266D01*
X0144603Y0234266D01*
X0144603Y0246423D01*
X0138993Y0246423D01*
X0151800Y0247844D02*
X0151800Y0242844D01*
X0154300Y0240344D01*
X0159300Y0240344D01*
X0161800Y0242844D01*
X0161800Y0247844D01*
X0159300Y0250344D01*
X0161800Y0252844D01*
X0161800Y0257844D01*
X0159300Y0260344D01*
X0161800Y0262844D01*
X0161800Y0267844D01*
X0159300Y0270344D01*
X0161800Y0272844D01*
X0161800Y0277844D01*
X0159300Y0280344D01*
X0154300Y0280344D01*
X0151800Y0277844D01*
X0151800Y0272844D01*
X0154300Y0270344D01*
X0151800Y0267844D01*
X0151800Y0262844D01*
X0154300Y0260344D01*
X0151800Y0257844D01*
X0151800Y0252844D01*
X0154300Y0250344D01*
X0151800Y0247844D01*
X0166200Y0259615D02*
X0166200Y0262944D01*
X0169211Y0262944D01*
X0174291Y0262944D02*
X0177400Y0262944D01*
X0177400Y0259615D01*
X0186700Y0250944D02*
X0186700Y0247835D01*
X0186700Y0250944D02*
X0190030Y0250944D01*
X0186700Y0242756D02*
X0186700Y0239744D01*
X0190030Y0239744D01*
X0190030Y0210944D02*
X0186700Y0210944D01*
X0186700Y0207835D01*
X0186700Y0202756D02*
X0186700Y0199744D01*
X0190030Y0199744D01*
X0177400Y0209615D02*
X0177400Y0212944D01*
X0174291Y0212944D01*
X0169211Y0212944D02*
X0166200Y0212944D01*
X0166200Y0209615D01*
X0161800Y0207844D02*
X0161800Y0202844D01*
X0159300Y0200344D01*
X0161800Y0197844D01*
X0161800Y0192844D01*
X0159300Y0190344D01*
X0154300Y0190344D01*
X0151800Y0192844D01*
X0151800Y0197844D01*
X0154300Y0200344D01*
X0151800Y0202844D01*
X0151800Y0207844D01*
X0154300Y0210344D01*
X0151800Y0212844D01*
X0151800Y0217844D01*
X0154300Y0220344D01*
X0151800Y0222844D01*
X0151800Y0227844D01*
X0154300Y0230344D01*
X0159300Y0230344D01*
X0161800Y0227844D01*
X0161800Y0222844D01*
X0159300Y0220344D01*
X0161800Y0217844D01*
X0161800Y0212844D01*
X0159300Y0210344D01*
X0161800Y0207844D01*
X0144603Y0196423D02*
X0144603Y0184266D01*
X0138993Y0184266D01*
X0138993Y0196423D01*
X0144603Y0196423D01*
X0154300Y0180344D02*
X0151800Y0177844D01*
X0151800Y0172844D01*
X0154300Y0170344D01*
X0151800Y0167844D01*
X0151800Y0162844D01*
X0154300Y0160344D01*
X0151800Y0157844D01*
X0151800Y0152844D01*
X0154300Y0150344D01*
X0151800Y0147844D01*
X0151800Y0142844D01*
X0154300Y0140344D01*
X0159300Y0140344D01*
X0161800Y0142844D01*
X0161800Y0147844D01*
X0159300Y0150344D01*
X0161800Y0152844D01*
X0161800Y0157844D01*
X0159300Y0160344D01*
X0161800Y0162844D01*
X0161800Y0167844D01*
X0159300Y0170344D01*
X0161800Y0172844D01*
X0161800Y0177844D01*
X0159300Y0180344D01*
X0154300Y0180344D01*
X0166200Y0162944D02*
X0169211Y0162944D01*
X0166200Y0162944D02*
X0166200Y0159615D01*
X0174291Y0162944D02*
X0177400Y0162944D01*
X0177400Y0159615D01*
X0186700Y0159744D02*
X0186700Y0162756D01*
X0186700Y0159744D02*
X0190030Y0159744D01*
X0186700Y0167835D02*
X0186700Y0170944D01*
X0190030Y0170944D01*
X0190030Y0130944D02*
X0186700Y0130944D01*
X0186700Y0127835D01*
X0186700Y0122756D02*
X0186700Y0119744D01*
X0190030Y0119744D01*
X0177400Y0112944D02*
X0177400Y0109615D01*
X0177400Y0112944D02*
X0174291Y0112944D01*
X0169211Y0112944D02*
X0166200Y0112944D01*
X0166200Y0109615D01*
X0161800Y0107844D02*
X0161800Y0102844D01*
X0159300Y0100344D01*
X0161800Y0097844D01*
X0161800Y0092844D01*
X0159300Y0090344D01*
X0154300Y0090344D01*
X0151800Y0092844D01*
X0151800Y0097844D01*
X0154300Y0100344D01*
X0151800Y0102844D01*
X0151800Y0107844D01*
X0154300Y0110344D01*
X0151800Y0112844D01*
X0151800Y0117844D01*
X0154300Y0120344D01*
X0151800Y0122844D01*
X0151800Y0127844D01*
X0154300Y0130344D01*
X0159300Y0130344D01*
X0161800Y0127844D01*
X0161800Y0122844D01*
X0159300Y0120344D01*
X0161800Y0117844D01*
X0161800Y0112844D01*
X0159300Y0110344D01*
X0161800Y0107844D01*
X0144603Y0096423D02*
X0144603Y0084266D01*
X0138993Y0084266D01*
X0138993Y0096423D01*
X0144603Y0096423D01*
X0154300Y0080344D02*
X0151800Y0077844D01*
X0151800Y0072844D01*
X0154300Y0070344D01*
X0151800Y0067844D01*
X0151800Y0062844D01*
X0154300Y0060344D01*
X0151800Y0057844D01*
X0151800Y0052844D01*
X0154300Y0050344D01*
X0151800Y0047844D01*
X0151800Y0042844D01*
X0154300Y0040344D01*
X0159300Y0040344D01*
X0161800Y0042844D01*
X0161800Y0047844D01*
X0159300Y0050344D01*
X0161800Y0052844D01*
X0161800Y0057844D01*
X0159300Y0060344D01*
X0161800Y0062844D01*
X0161800Y0067844D01*
X0159300Y0070344D01*
X0161800Y0072844D01*
X0161800Y0077844D01*
X0159300Y0080344D01*
X0154300Y0080344D01*
X0166200Y0071074D02*
X0166200Y0067744D01*
X0169309Y0067744D01*
X0174389Y0067744D02*
X0177400Y0067744D01*
X0177400Y0071074D01*
X0186700Y0079744D02*
X0186700Y0082756D01*
X0186700Y0079744D02*
X0190030Y0079744D01*
X0186700Y0087835D02*
X0186700Y0090944D01*
X0190030Y0090944D01*
X0194800Y0062344D02*
X0238800Y0062344D01*
X0238800Y0038344D01*
X0194800Y0038344D01*
X0194800Y0062344D01*
X0201800Y0056344D02*
X0201800Y0055844D01*
X0201800Y0056344D02*
X0219800Y0056344D01*
X0221800Y0056344D01*
X0223800Y0056344D01*
X0225800Y0056344D01*
X0227800Y0056344D01*
X0229800Y0056344D01*
X0231800Y0056344D01*
X0231800Y0055844D01*
X0229800Y0055844D02*
X0229800Y0056344D01*
X0227800Y0056344D02*
X0227800Y0054344D01*
X0225800Y0056344D02*
X0225800Y0044344D01*
X0227800Y0044344D01*
X0227800Y0046344D01*
X0227800Y0044344D02*
X0229800Y0044344D01*
X0229800Y0044844D01*
X0229800Y0044344D02*
X0231800Y0044344D01*
X0231800Y0044844D01*
X0225800Y0044344D02*
X0223800Y0044344D01*
X0221800Y0044344D01*
X0219800Y0044344D01*
X0201800Y0044344D01*
X0201800Y0044844D01*
X0219800Y0044344D02*
X0219800Y0045344D01*
X0221800Y0044344D02*
X0221800Y0047344D01*
X0223800Y0044344D02*
X0223800Y0056344D01*
X0221800Y0056344D02*
X0221800Y0053344D01*
X0219800Y0055344D02*
X0219800Y0056344D01*
X0144603Y0046423D02*
X0144603Y0034266D01*
X0138993Y0034266D01*
X0138993Y0046423D01*
X0144603Y0046423D01*
X0091000Y0036334D02*
X0088865Y0038469D01*
X0084595Y0038469D01*
X0084595Y0034199D02*
X0088865Y0034199D01*
X0091000Y0036334D01*
X0091000Y0032024D02*
X0088865Y0029889D01*
X0088865Y0030956D02*
X0088865Y0027753D01*
X0091000Y0027753D02*
X0084595Y0027753D01*
X0084595Y0030956D01*
X0085662Y0032024D01*
X0087797Y0032024D01*
X0088865Y0030956D01*
X0088865Y0025578D02*
X0089932Y0025578D01*
X0091000Y0024511D01*
X0091000Y0022376D01*
X0089932Y0021308D01*
X0087797Y0022376D02*
X0087797Y0024511D01*
X0088865Y0025578D01*
X0085662Y0025578D02*
X0084595Y0024511D01*
X0084595Y0022376D01*
X0085662Y0021308D01*
X0086730Y0021308D01*
X0087797Y0022376D01*
X0138993Y0134266D02*
X0144603Y0134266D01*
X0144603Y0146423D01*
X0138993Y0146423D01*
X0138993Y0134266D01*
X0196200Y0282744D02*
X0199309Y0282744D01*
X0196200Y0282744D02*
X0196200Y0286074D01*
X0204389Y0282744D02*
X0207400Y0282744D01*
X0207400Y0286074D01*
X0211200Y0286074D02*
X0211200Y0282744D01*
X0214309Y0282744D01*
X0219389Y0282744D02*
X0222400Y0282744D01*
X0222400Y0286074D01*
D12*
X0124300Y0282844D02*
X0099300Y0282844D01*
X0099300Y0297844D01*
X0124300Y0297844D01*
X0124300Y0282844D01*
D13*
X0096800Y0290344D03*
D14*
X0068333Y0257822D02*
X0069100Y0257054D01*
X0069100Y0255520D01*
X0068333Y0254752D01*
X0065263Y0257822D01*
X0068333Y0257822D01*
X0065263Y0257822D02*
X0064496Y0257054D01*
X0064496Y0255520D01*
X0065263Y0254752D01*
X0068333Y0254752D01*
X0066798Y0253218D02*
X0067565Y0252450D01*
X0067565Y0250148D01*
X0069100Y0250148D02*
X0064496Y0250148D01*
X0064496Y0252450D01*
X0065263Y0253218D01*
X0066798Y0253218D01*
X0064496Y0248614D02*
X0064496Y0245544D01*
X0064496Y0247079D02*
X0069100Y0247079D01*
X0036600Y0227970D02*
X0035833Y0228737D01*
X0035065Y0228737D01*
X0034298Y0227970D01*
X0034298Y0225668D01*
X0035833Y0225668D01*
X0036600Y0226435D01*
X0036600Y0227970D01*
X0034298Y0225668D02*
X0032763Y0227203D01*
X0031996Y0228737D01*
X0031996Y0224133D02*
X0032763Y0222599D01*
X0034298Y0221064D01*
X0034298Y0223366D01*
X0035065Y0224133D01*
X0035833Y0224133D01*
X0036600Y0223366D01*
X0036600Y0221831D01*
X0035833Y0221064D01*
X0034298Y0221064D01*
X0033531Y0219529D02*
X0032763Y0219529D01*
X0031996Y0218762D01*
X0031996Y0217227D01*
X0032763Y0216460D01*
X0032763Y0214926D02*
X0033531Y0214926D01*
X0034298Y0214158D01*
X0034298Y0212624D01*
X0033531Y0211856D01*
X0032763Y0211856D01*
X0031996Y0212624D01*
X0031996Y0214158D01*
X0032763Y0214926D01*
X0034298Y0214158D02*
X0035065Y0214926D01*
X0035833Y0214926D01*
X0036600Y0214158D01*
X0036600Y0212624D01*
X0035833Y0211856D01*
X0035065Y0211856D01*
X0034298Y0212624D01*
X0034298Y0210322D02*
X0035065Y0209554D01*
X0035065Y0207252D01*
X0035065Y0205718D02*
X0035833Y0205718D01*
X0036600Y0204950D01*
X0036600Y0203416D01*
X0035833Y0202648D01*
X0036600Y0201114D02*
X0036600Y0198044D01*
X0031996Y0198044D01*
X0031996Y0201114D01*
X0032763Y0202648D02*
X0031996Y0203416D01*
X0031996Y0204950D01*
X0032763Y0205718D01*
X0031996Y0207252D02*
X0031996Y0209554D01*
X0032763Y0210322D01*
X0034298Y0210322D01*
X0036600Y0207252D02*
X0031996Y0207252D01*
X0034298Y0204950D02*
X0034298Y0203416D01*
X0033531Y0202648D01*
X0032763Y0202648D01*
X0034298Y0204950D02*
X0035065Y0205718D01*
X0034298Y0199579D02*
X0034298Y0198044D01*
X0036600Y0216460D02*
X0033531Y0219529D01*
X0036600Y0219529D02*
X0036600Y0216460D01*
D15*
X0035550Y0189097D02*
X0035550Y0186094D01*
X0035550Y0187596D02*
X0031046Y0187596D01*
X0032547Y0186094D01*
X0006799Y0218094D02*
X0006049Y0218094D01*
X0005298Y0218845D01*
X0005298Y0220346D01*
X0006049Y0221097D01*
X0006799Y0221097D01*
X0007550Y0220346D01*
X0007550Y0218845D01*
X0006799Y0218094D01*
X0005298Y0218845D02*
X0004547Y0218094D01*
X0003797Y0218094D01*
X0003046Y0218845D01*
X0003046Y0220346D01*
X0003797Y0221097D01*
X0004547Y0221097D01*
X0005298Y0220346D01*
X0037863Y0145187D02*
X0031957Y0139281D01*
X0031957Y0131407D01*
X0037863Y0125502D01*
X0045737Y0125502D01*
X0051643Y0131407D01*
X0051643Y0139281D01*
X0045737Y0145187D01*
X0037863Y0145187D01*
X0032997Y0135344D02*
X0033000Y0135560D01*
X0033008Y0135776D01*
X0033021Y0135992D01*
X0033039Y0136207D01*
X0033063Y0136422D01*
X0033092Y0136636D01*
X0033127Y0136849D01*
X0033166Y0137061D01*
X0033211Y0137273D01*
X0033261Y0137483D01*
X0033316Y0137692D01*
X0033376Y0137899D01*
X0033441Y0138105D01*
X0033512Y0138310D01*
X0033587Y0138512D01*
X0033667Y0138713D01*
X0033752Y0138911D01*
X0033842Y0139108D01*
X0033937Y0139302D01*
X0034036Y0139494D01*
X0034141Y0139683D01*
X0034249Y0139870D01*
X0034363Y0140054D01*
X0034481Y0140235D01*
X0034603Y0140413D01*
X0034729Y0140588D01*
X0034860Y0140760D01*
X0034995Y0140929D01*
X0035134Y0141094D01*
X0035277Y0141256D01*
X0035424Y0141414D01*
X0035575Y0141569D01*
X0035730Y0141720D01*
X0035888Y0141867D01*
X0036050Y0142010D01*
X0036215Y0142149D01*
X0036384Y0142284D01*
X0036556Y0142415D01*
X0036731Y0142541D01*
X0036909Y0142663D01*
X0037090Y0142781D01*
X0037274Y0142895D01*
X0037461Y0143003D01*
X0037650Y0143108D01*
X0037842Y0143207D01*
X0038036Y0143302D01*
X0038233Y0143392D01*
X0038431Y0143477D01*
X0038632Y0143557D01*
X0038834Y0143632D01*
X0039039Y0143703D01*
X0039245Y0143768D01*
X0039452Y0143828D01*
X0039661Y0143883D01*
X0039871Y0143933D01*
X0040083Y0143978D01*
X0040295Y0144017D01*
X0040508Y0144052D01*
X0040722Y0144081D01*
X0040937Y0144105D01*
X0041152Y0144123D01*
X0041368Y0144136D01*
X0041584Y0144144D01*
X0041800Y0144147D01*
X0042016Y0144144D01*
X0042232Y0144136D01*
X0042448Y0144123D01*
X0042663Y0144105D01*
X0042878Y0144081D01*
X0043092Y0144052D01*
X0043305Y0144017D01*
X0043517Y0143978D01*
X0043729Y0143933D01*
X0043939Y0143883D01*
X0044148Y0143828D01*
X0044355Y0143768D01*
X0044561Y0143703D01*
X0044766Y0143632D01*
X0044968Y0143557D01*
X0045169Y0143477D01*
X0045367Y0143392D01*
X0045564Y0143302D01*
X0045758Y0143207D01*
X0045950Y0143108D01*
X0046139Y0143003D01*
X0046326Y0142895D01*
X0046510Y0142781D01*
X0046691Y0142663D01*
X0046869Y0142541D01*
X0047044Y0142415D01*
X0047216Y0142284D01*
X0047385Y0142149D01*
X0047550Y0142010D01*
X0047712Y0141867D01*
X0047870Y0141720D01*
X0048025Y0141569D01*
X0048176Y0141414D01*
X0048323Y0141256D01*
X0048466Y0141094D01*
X0048605Y0140929D01*
X0048740Y0140760D01*
X0048871Y0140588D01*
X0048997Y0140413D01*
X0049119Y0140235D01*
X0049237Y0140054D01*
X0049351Y0139870D01*
X0049459Y0139683D01*
X0049564Y0139494D01*
X0049663Y0139302D01*
X0049758Y0139108D01*
X0049848Y0138911D01*
X0049933Y0138713D01*
X0050013Y0138512D01*
X0050088Y0138310D01*
X0050159Y0138105D01*
X0050224Y0137899D01*
X0050284Y0137692D01*
X0050339Y0137483D01*
X0050389Y0137273D01*
X0050434Y0137061D01*
X0050473Y0136849D01*
X0050508Y0136636D01*
X0050537Y0136422D01*
X0050561Y0136207D01*
X0050579Y0135992D01*
X0050592Y0135776D01*
X0050600Y0135560D01*
X0050603Y0135344D01*
X0050600Y0135128D01*
X0050592Y0134912D01*
X0050579Y0134696D01*
X0050561Y0134481D01*
X0050537Y0134266D01*
X0050508Y0134052D01*
X0050473Y0133839D01*
X0050434Y0133627D01*
X0050389Y0133415D01*
X0050339Y0133205D01*
X0050284Y0132996D01*
X0050224Y0132789D01*
X0050159Y0132583D01*
X0050088Y0132378D01*
X0050013Y0132176D01*
X0049933Y0131975D01*
X0049848Y0131777D01*
X0049758Y0131580D01*
X0049663Y0131386D01*
X0049564Y0131194D01*
X0049459Y0131005D01*
X0049351Y0130818D01*
X0049237Y0130634D01*
X0049119Y0130453D01*
X0048997Y0130275D01*
X0048871Y0130100D01*
X0048740Y0129928D01*
X0048605Y0129759D01*
X0048466Y0129594D01*
X0048323Y0129432D01*
X0048176Y0129274D01*
X0048025Y0129119D01*
X0047870Y0128968D01*
X0047712Y0128821D01*
X0047550Y0128678D01*
X0047385Y0128539D01*
X0047216Y0128404D01*
X0047044Y0128273D01*
X0046869Y0128147D01*
X0046691Y0128025D01*
X0046510Y0127907D01*
X0046326Y0127793D01*
X0046139Y0127685D01*
X0045950Y0127580D01*
X0045758Y0127481D01*
X0045564Y0127386D01*
X0045367Y0127296D01*
X0045169Y0127211D01*
X0044968Y0127131D01*
X0044766Y0127056D01*
X0044561Y0126985D01*
X0044355Y0126920D01*
X0044148Y0126860D01*
X0043939Y0126805D01*
X0043729Y0126755D01*
X0043517Y0126710D01*
X0043305Y0126671D01*
X0043092Y0126636D01*
X0042878Y0126607D01*
X0042663Y0126583D01*
X0042448Y0126565D01*
X0042232Y0126552D01*
X0042016Y0126544D01*
X0041800Y0126541D01*
X0041584Y0126544D01*
X0041368Y0126552D01*
X0041152Y0126565D01*
X0040937Y0126583D01*
X0040722Y0126607D01*
X0040508Y0126636D01*
X0040295Y0126671D01*
X0040083Y0126710D01*
X0039871Y0126755D01*
X0039661Y0126805D01*
X0039452Y0126860D01*
X0039245Y0126920D01*
X0039039Y0126985D01*
X0038834Y0127056D01*
X0038632Y0127131D01*
X0038431Y0127211D01*
X0038233Y0127296D01*
X0038036Y0127386D01*
X0037842Y0127481D01*
X0037650Y0127580D01*
X0037461Y0127685D01*
X0037274Y0127793D01*
X0037090Y0127907D01*
X0036909Y0128025D01*
X0036731Y0128147D01*
X0036556Y0128273D01*
X0036384Y0128404D01*
X0036215Y0128539D01*
X0036050Y0128678D01*
X0035888Y0128821D01*
X0035730Y0128968D01*
X0035575Y0129119D01*
X0035424Y0129274D01*
X0035277Y0129432D01*
X0035134Y0129594D01*
X0034995Y0129759D01*
X0034860Y0129928D01*
X0034729Y0130100D01*
X0034603Y0130275D01*
X0034481Y0130453D01*
X0034363Y0130634D01*
X0034249Y0130818D01*
X0034141Y0131005D01*
X0034036Y0131194D01*
X0033937Y0131386D01*
X0033842Y0131580D01*
X0033752Y0131777D01*
X0033667Y0131975D01*
X0033587Y0132176D01*
X0033512Y0132378D01*
X0033441Y0132583D01*
X0033376Y0132789D01*
X0033316Y0132996D01*
X0033261Y0133205D01*
X0033211Y0133415D01*
X0033166Y0133627D01*
X0033127Y0133839D01*
X0033092Y0134052D01*
X0033063Y0134266D01*
X0033039Y0134481D01*
X0033021Y0134696D01*
X0033008Y0134912D01*
X0033000Y0135128D01*
X0032997Y0135344D01*
X0019050Y0113993D02*
X0019050Y0110991D01*
X0019050Y0112492D02*
X0014546Y0112492D01*
X0016047Y0110991D01*
X0010050Y0111073D02*
X0010050Y0112574D01*
X0009299Y0113325D01*
X0007798Y0113325D01*
X0007798Y0111823D01*
X0006297Y0110322D02*
X0009299Y0110322D01*
X0010050Y0111073D01*
X0009299Y0108721D02*
X0006297Y0108721D01*
X0005546Y0107970D01*
X0005546Y0106469D01*
X0006297Y0105718D01*
X0009299Y0105718D01*
X0010050Y0106469D01*
X0010050Y0107970D01*
X0009299Y0108721D01*
X0006297Y0110322D02*
X0005546Y0111073D01*
X0005546Y0112574D01*
X0006297Y0113325D01*
X0006297Y0104117D02*
X0007798Y0104117D01*
X0008549Y0103366D01*
X0008549Y0101114D01*
X0010050Y0101114D02*
X0005546Y0101114D01*
X0005546Y0103366D01*
X0006297Y0104117D01*
X0008549Y0102615D02*
X0010050Y0104117D01*
X0007798Y0099513D02*
X0006297Y0099513D01*
X0005546Y0098762D01*
X0005546Y0096510D01*
X0010050Y0096510D01*
X0008549Y0096510D02*
X0008549Y0098762D01*
X0007798Y0099513D01*
X0010801Y0094909D02*
X0010801Y0091906D01*
X0008549Y0090305D02*
X0005546Y0090305D01*
X0005546Y0087302D02*
X0008549Y0087302D01*
X0010050Y0088804D01*
X0008549Y0090305D01*
X0007798Y0085701D02*
X0006297Y0085701D01*
X0005546Y0084950D01*
X0005546Y0082698D01*
X0010050Y0082698D01*
X0008549Y0082698D02*
X0008549Y0084950D01*
X0007798Y0085701D01*
X0008549Y0084200D02*
X0010050Y0085701D01*
X0009299Y0081097D02*
X0010050Y0080346D01*
X0010050Y0078845D01*
X0009299Y0078094D01*
X0007798Y0078845D02*
X0007798Y0080346D01*
X0008549Y0081097D01*
X0009299Y0081097D01*
X0007798Y0078845D02*
X0007047Y0078094D01*
X0006297Y0078094D01*
X0005546Y0078845D01*
X0005546Y0080346D01*
X0006297Y0081097D01*
X0135738Y0060348D02*
X0135738Y0059597D01*
X0136489Y0058846D01*
X0137990Y0058846D01*
X0138741Y0058096D01*
X0138741Y0057345D01*
X0137990Y0056594D01*
X0136489Y0056594D01*
X0135738Y0057345D01*
X0135738Y0060348D02*
X0136489Y0061098D01*
X0137990Y0061098D01*
X0138741Y0060348D01*
X0140342Y0061098D02*
X0140342Y0058096D01*
X0141843Y0056594D01*
X0143345Y0058096D01*
X0143345Y0061098D01*
X0144946Y0061098D02*
X0144946Y0058846D01*
X0146447Y0059597D01*
X0147198Y0059597D01*
X0147949Y0058846D01*
X0147949Y0057345D01*
X0147198Y0056594D01*
X0145697Y0056594D01*
X0144946Y0057345D01*
X0144946Y0061098D02*
X0147949Y0061098D01*
X0156047Y0080491D02*
X0154546Y0081992D01*
X0159050Y0081992D01*
X0159050Y0080491D02*
X0159050Y0083493D01*
X0156798Y0084991D02*
X0156798Y0087993D01*
X0159050Y0087242D02*
X0154546Y0087242D01*
X0156798Y0084991D01*
X0147198Y0106594D02*
X0147198Y0111098D01*
X0144946Y0108846D01*
X0147949Y0108846D01*
X0143345Y0108096D02*
X0141843Y0106594D01*
X0140342Y0108096D01*
X0140342Y0111098D01*
X0138741Y0110348D02*
X0137990Y0111098D01*
X0136489Y0111098D01*
X0135738Y0110348D01*
X0135738Y0109597D01*
X0136489Y0108846D01*
X0137990Y0108846D01*
X0138741Y0108096D01*
X0138741Y0107345D01*
X0137990Y0106594D01*
X0136489Y0106594D01*
X0135738Y0107345D01*
X0143345Y0108096D02*
X0143345Y0111098D01*
X0156047Y0130491D02*
X0154546Y0131992D01*
X0159050Y0131992D01*
X0159050Y0130491D02*
X0159050Y0133493D01*
X0156798Y0134991D02*
X0154546Y0137242D01*
X0159050Y0137242D01*
X0156798Y0137993D02*
X0156798Y0134991D01*
X0147198Y0156594D02*
X0145697Y0156594D01*
X0144946Y0157345D01*
X0143345Y0158096D02*
X0143345Y0161098D01*
X0144946Y0160348D02*
X0145697Y0161098D01*
X0147198Y0161098D01*
X0147949Y0160348D01*
X0147949Y0159597D01*
X0147198Y0158846D01*
X0147949Y0158096D01*
X0147949Y0157345D01*
X0147198Y0156594D01*
X0147198Y0158846D02*
X0146447Y0158846D01*
X0143345Y0158096D02*
X0141843Y0156594D01*
X0140342Y0158096D01*
X0140342Y0161098D01*
X0138741Y0160348D02*
X0137990Y0161098D01*
X0136489Y0161098D01*
X0135738Y0160348D01*
X0135738Y0159597D01*
X0136489Y0158846D01*
X0137990Y0158846D01*
X0138741Y0158096D01*
X0138741Y0157345D01*
X0137990Y0156594D01*
X0136489Y0156594D01*
X0135738Y0157345D01*
X0156047Y0180491D02*
X0154546Y0181992D01*
X0159050Y0181992D01*
X0159050Y0180491D02*
X0159050Y0183493D01*
X0156798Y0184991D02*
X0156798Y0187993D01*
X0159050Y0187242D02*
X0154546Y0187242D01*
X0156798Y0184991D01*
X0147949Y0206594D02*
X0144946Y0206594D01*
X0147949Y0209597D01*
X0147949Y0210348D01*
X0147198Y0211098D01*
X0145697Y0211098D01*
X0144946Y0210348D01*
X0143345Y0211098D02*
X0143345Y0208096D01*
X0141843Y0206594D01*
X0140342Y0208096D01*
X0140342Y0211098D01*
X0138741Y0210348D02*
X0137990Y0211098D01*
X0136489Y0211098D01*
X0135738Y0210348D01*
X0135738Y0209597D01*
X0136489Y0208846D01*
X0137990Y0208846D01*
X0138741Y0208096D01*
X0138741Y0207345D01*
X0137990Y0206594D01*
X0136489Y0206594D01*
X0135738Y0207345D01*
X0156047Y0230491D02*
X0154546Y0231992D01*
X0159050Y0231992D01*
X0159050Y0230491D02*
X0159050Y0233493D01*
X0156798Y0234991D02*
X0156798Y0237993D01*
X0159050Y0237242D02*
X0154546Y0237242D01*
X0156798Y0234991D01*
X0147299Y0264283D02*
X0148050Y0265033D01*
X0148050Y0266535D01*
X0147299Y0267285D01*
X0146549Y0267285D01*
X0145798Y0266535D01*
X0145798Y0265033D01*
X0145047Y0264283D01*
X0144297Y0264283D01*
X0143546Y0265033D01*
X0143546Y0266535D01*
X0144297Y0267285D01*
X0143546Y0268887D02*
X0146549Y0268887D01*
X0148050Y0270388D01*
X0146549Y0271889D01*
X0143546Y0271889D01*
X0145047Y0273491D02*
X0143546Y0274992D01*
X0148050Y0274992D01*
X0148050Y0273491D02*
X0148050Y0276493D01*
X0154546Y0281992D02*
X0156047Y0280491D01*
X0154546Y0281992D02*
X0159050Y0281992D01*
X0159050Y0280491D02*
X0159050Y0283493D01*
X0206957Y0249281D02*
X0206957Y0241407D01*
X0212863Y0235502D01*
X0220737Y0235502D01*
X0226643Y0241407D01*
X0226643Y0249281D01*
X0220737Y0255187D01*
X0212863Y0255187D01*
X0206957Y0249281D01*
X0207997Y0245344D02*
X0208000Y0245560D01*
X0208008Y0245776D01*
X0208021Y0245992D01*
X0208039Y0246207D01*
X0208063Y0246422D01*
X0208092Y0246636D01*
X0208127Y0246849D01*
X0208166Y0247061D01*
X0208211Y0247273D01*
X0208261Y0247483D01*
X0208316Y0247692D01*
X0208376Y0247899D01*
X0208441Y0248105D01*
X0208512Y0248310D01*
X0208587Y0248512D01*
X0208667Y0248713D01*
X0208752Y0248911D01*
X0208842Y0249108D01*
X0208937Y0249302D01*
X0209036Y0249494D01*
X0209141Y0249683D01*
X0209249Y0249870D01*
X0209363Y0250054D01*
X0209481Y0250235D01*
X0209603Y0250413D01*
X0209729Y0250588D01*
X0209860Y0250760D01*
X0209995Y0250929D01*
X0210134Y0251094D01*
X0210277Y0251256D01*
X0210424Y0251414D01*
X0210575Y0251569D01*
X0210730Y0251720D01*
X0210888Y0251867D01*
X0211050Y0252010D01*
X0211215Y0252149D01*
X0211384Y0252284D01*
X0211556Y0252415D01*
X0211731Y0252541D01*
X0211909Y0252663D01*
X0212090Y0252781D01*
X0212274Y0252895D01*
X0212461Y0253003D01*
X0212650Y0253108D01*
X0212842Y0253207D01*
X0213036Y0253302D01*
X0213233Y0253392D01*
X0213431Y0253477D01*
X0213632Y0253557D01*
X0213834Y0253632D01*
X0214039Y0253703D01*
X0214245Y0253768D01*
X0214452Y0253828D01*
X0214661Y0253883D01*
X0214871Y0253933D01*
X0215083Y0253978D01*
X0215295Y0254017D01*
X0215508Y0254052D01*
X0215722Y0254081D01*
X0215937Y0254105D01*
X0216152Y0254123D01*
X0216368Y0254136D01*
X0216584Y0254144D01*
X0216800Y0254147D01*
X0217016Y0254144D01*
X0217232Y0254136D01*
X0217448Y0254123D01*
X0217663Y0254105D01*
X0217878Y0254081D01*
X0218092Y0254052D01*
X0218305Y0254017D01*
X0218517Y0253978D01*
X0218729Y0253933D01*
X0218939Y0253883D01*
X0219148Y0253828D01*
X0219355Y0253768D01*
X0219561Y0253703D01*
X0219766Y0253632D01*
X0219968Y0253557D01*
X0220169Y0253477D01*
X0220367Y0253392D01*
X0220564Y0253302D01*
X0220758Y0253207D01*
X0220950Y0253108D01*
X0221139Y0253003D01*
X0221326Y0252895D01*
X0221510Y0252781D01*
X0221691Y0252663D01*
X0221869Y0252541D01*
X0222044Y0252415D01*
X0222216Y0252284D01*
X0222385Y0252149D01*
X0222550Y0252010D01*
X0222712Y0251867D01*
X0222870Y0251720D01*
X0223025Y0251569D01*
X0223176Y0251414D01*
X0223323Y0251256D01*
X0223466Y0251094D01*
X0223605Y0250929D01*
X0223740Y0250760D01*
X0223871Y0250588D01*
X0223997Y0250413D01*
X0224119Y0250235D01*
X0224237Y0250054D01*
X0224351Y0249870D01*
X0224459Y0249683D01*
X0224564Y0249494D01*
X0224663Y0249302D01*
X0224758Y0249108D01*
X0224848Y0248911D01*
X0224933Y0248713D01*
X0225013Y0248512D01*
X0225088Y0248310D01*
X0225159Y0248105D01*
X0225224Y0247899D01*
X0225284Y0247692D01*
X0225339Y0247483D01*
X0225389Y0247273D01*
X0225434Y0247061D01*
X0225473Y0246849D01*
X0225508Y0246636D01*
X0225537Y0246422D01*
X0225561Y0246207D01*
X0225579Y0245992D01*
X0225592Y0245776D01*
X0225600Y0245560D01*
X0225603Y0245344D01*
X0225600Y0245128D01*
X0225592Y0244912D01*
X0225579Y0244696D01*
X0225561Y0244481D01*
X0225537Y0244266D01*
X0225508Y0244052D01*
X0225473Y0243839D01*
X0225434Y0243627D01*
X0225389Y0243415D01*
X0225339Y0243205D01*
X0225284Y0242996D01*
X0225224Y0242789D01*
X0225159Y0242583D01*
X0225088Y0242378D01*
X0225013Y0242176D01*
X0224933Y0241975D01*
X0224848Y0241777D01*
X0224758Y0241580D01*
X0224663Y0241386D01*
X0224564Y0241194D01*
X0224459Y0241005D01*
X0224351Y0240818D01*
X0224237Y0240634D01*
X0224119Y0240453D01*
X0223997Y0240275D01*
X0223871Y0240100D01*
X0223740Y0239928D01*
X0223605Y0239759D01*
X0223466Y0239594D01*
X0223323Y0239432D01*
X0223176Y0239274D01*
X0223025Y0239119D01*
X0222870Y0238968D01*
X0222712Y0238821D01*
X0222550Y0238678D01*
X0222385Y0238539D01*
X0222216Y0238404D01*
X0222044Y0238273D01*
X0221869Y0238147D01*
X0221691Y0238025D01*
X0221510Y0237907D01*
X0221326Y0237793D01*
X0221139Y0237685D01*
X0220950Y0237580D01*
X0220758Y0237481D01*
X0220564Y0237386D01*
X0220367Y0237296D01*
X0220169Y0237211D01*
X0219968Y0237131D01*
X0219766Y0237056D01*
X0219561Y0236985D01*
X0219355Y0236920D01*
X0219148Y0236860D01*
X0218939Y0236805D01*
X0218729Y0236755D01*
X0218517Y0236710D01*
X0218305Y0236671D01*
X0218092Y0236636D01*
X0217878Y0236607D01*
X0217663Y0236583D01*
X0217448Y0236565D01*
X0217232Y0236552D01*
X0217016Y0236544D01*
X0216800Y0236541D01*
X0216584Y0236544D01*
X0216368Y0236552D01*
X0216152Y0236565D01*
X0215937Y0236583D01*
X0215722Y0236607D01*
X0215508Y0236636D01*
X0215295Y0236671D01*
X0215083Y0236710D01*
X0214871Y0236755D01*
X0214661Y0236805D01*
X0214452Y0236860D01*
X0214245Y0236920D01*
X0214039Y0236985D01*
X0213834Y0237056D01*
X0213632Y0237131D01*
X0213431Y0237211D01*
X0213233Y0237296D01*
X0213036Y0237386D01*
X0212842Y0237481D01*
X0212650Y0237580D01*
X0212461Y0237685D01*
X0212274Y0237793D01*
X0212090Y0237907D01*
X0211909Y0238025D01*
X0211731Y0238147D01*
X0211556Y0238273D01*
X0211384Y0238404D01*
X0211215Y0238539D01*
X0211050Y0238678D01*
X0210888Y0238821D01*
X0210730Y0238968D01*
X0210575Y0239119D01*
X0210424Y0239274D01*
X0210277Y0239432D01*
X0210134Y0239594D01*
X0209995Y0239759D01*
X0209860Y0239928D01*
X0209729Y0240100D01*
X0209603Y0240275D01*
X0209481Y0240453D01*
X0209363Y0240634D01*
X0209249Y0240818D01*
X0209141Y0241005D01*
X0209036Y0241194D01*
X0208937Y0241386D01*
X0208842Y0241580D01*
X0208752Y0241777D01*
X0208667Y0241975D01*
X0208587Y0242176D01*
X0208512Y0242378D01*
X0208441Y0242583D01*
X0208376Y0242789D01*
X0208316Y0242996D01*
X0208261Y0243205D01*
X0208211Y0243415D01*
X0208166Y0243627D01*
X0208127Y0243839D01*
X0208092Y0244052D01*
X0208063Y0244266D01*
X0208039Y0244481D01*
X0208021Y0244696D01*
X0208008Y0244912D01*
X0208000Y0245128D01*
X0207997Y0245344D01*
X0212863Y0215187D02*
X0220737Y0215187D01*
X0226643Y0209281D01*
X0226643Y0201407D01*
X0220737Y0195502D01*
X0212863Y0195502D01*
X0206957Y0201407D01*
X0206957Y0209281D01*
X0212863Y0215187D01*
X0207997Y0205344D02*
X0208000Y0205560D01*
X0208008Y0205776D01*
X0208021Y0205992D01*
X0208039Y0206207D01*
X0208063Y0206422D01*
X0208092Y0206636D01*
X0208127Y0206849D01*
X0208166Y0207061D01*
X0208211Y0207273D01*
X0208261Y0207483D01*
X0208316Y0207692D01*
X0208376Y0207899D01*
X0208441Y0208105D01*
X0208512Y0208310D01*
X0208587Y0208512D01*
X0208667Y0208713D01*
X0208752Y0208911D01*
X0208842Y0209108D01*
X0208937Y0209302D01*
X0209036Y0209494D01*
X0209141Y0209683D01*
X0209249Y0209870D01*
X0209363Y0210054D01*
X0209481Y0210235D01*
X0209603Y0210413D01*
X0209729Y0210588D01*
X0209860Y0210760D01*
X0209995Y0210929D01*
X0210134Y0211094D01*
X0210277Y0211256D01*
X0210424Y0211414D01*
X0210575Y0211569D01*
X0210730Y0211720D01*
X0210888Y0211867D01*
X0211050Y0212010D01*
X0211215Y0212149D01*
X0211384Y0212284D01*
X0211556Y0212415D01*
X0211731Y0212541D01*
X0211909Y0212663D01*
X0212090Y0212781D01*
X0212274Y0212895D01*
X0212461Y0213003D01*
X0212650Y0213108D01*
X0212842Y0213207D01*
X0213036Y0213302D01*
X0213233Y0213392D01*
X0213431Y0213477D01*
X0213632Y0213557D01*
X0213834Y0213632D01*
X0214039Y0213703D01*
X0214245Y0213768D01*
X0214452Y0213828D01*
X0214661Y0213883D01*
X0214871Y0213933D01*
X0215083Y0213978D01*
X0215295Y0214017D01*
X0215508Y0214052D01*
X0215722Y0214081D01*
X0215937Y0214105D01*
X0216152Y0214123D01*
X0216368Y0214136D01*
X0216584Y0214144D01*
X0216800Y0214147D01*
X0217016Y0214144D01*
X0217232Y0214136D01*
X0217448Y0214123D01*
X0217663Y0214105D01*
X0217878Y0214081D01*
X0218092Y0214052D01*
X0218305Y0214017D01*
X0218517Y0213978D01*
X0218729Y0213933D01*
X0218939Y0213883D01*
X0219148Y0213828D01*
X0219355Y0213768D01*
X0219561Y0213703D01*
X0219766Y0213632D01*
X0219968Y0213557D01*
X0220169Y0213477D01*
X0220367Y0213392D01*
X0220564Y0213302D01*
X0220758Y0213207D01*
X0220950Y0213108D01*
X0221139Y0213003D01*
X0221326Y0212895D01*
X0221510Y0212781D01*
X0221691Y0212663D01*
X0221869Y0212541D01*
X0222044Y0212415D01*
X0222216Y0212284D01*
X0222385Y0212149D01*
X0222550Y0212010D01*
X0222712Y0211867D01*
X0222870Y0211720D01*
X0223025Y0211569D01*
X0223176Y0211414D01*
X0223323Y0211256D01*
X0223466Y0211094D01*
X0223605Y0210929D01*
X0223740Y0210760D01*
X0223871Y0210588D01*
X0223997Y0210413D01*
X0224119Y0210235D01*
X0224237Y0210054D01*
X0224351Y0209870D01*
X0224459Y0209683D01*
X0224564Y0209494D01*
X0224663Y0209302D01*
X0224758Y0209108D01*
X0224848Y0208911D01*
X0224933Y0208713D01*
X0225013Y0208512D01*
X0225088Y0208310D01*
X0225159Y0208105D01*
X0225224Y0207899D01*
X0225284Y0207692D01*
X0225339Y0207483D01*
X0225389Y0207273D01*
X0225434Y0207061D01*
X0225473Y0206849D01*
X0225508Y0206636D01*
X0225537Y0206422D01*
X0225561Y0206207D01*
X0225579Y0205992D01*
X0225592Y0205776D01*
X0225600Y0205560D01*
X0225603Y0205344D01*
X0225600Y0205128D01*
X0225592Y0204912D01*
X0225579Y0204696D01*
X0225561Y0204481D01*
X0225537Y0204266D01*
X0225508Y0204052D01*
X0225473Y0203839D01*
X0225434Y0203627D01*
X0225389Y0203415D01*
X0225339Y0203205D01*
X0225284Y0202996D01*
X0225224Y0202789D01*
X0225159Y0202583D01*
X0225088Y0202378D01*
X0225013Y0202176D01*
X0224933Y0201975D01*
X0224848Y0201777D01*
X0224758Y0201580D01*
X0224663Y0201386D01*
X0224564Y0201194D01*
X0224459Y0201005D01*
X0224351Y0200818D01*
X0224237Y0200634D01*
X0224119Y0200453D01*
X0223997Y0200275D01*
X0223871Y0200100D01*
X0223740Y0199928D01*
X0223605Y0199759D01*
X0223466Y0199594D01*
X0223323Y0199432D01*
X0223176Y0199274D01*
X0223025Y0199119D01*
X0222870Y0198968D01*
X0222712Y0198821D01*
X0222550Y0198678D01*
X0222385Y0198539D01*
X0222216Y0198404D01*
X0222044Y0198273D01*
X0221869Y0198147D01*
X0221691Y0198025D01*
X0221510Y0197907D01*
X0221326Y0197793D01*
X0221139Y0197685D01*
X0220950Y0197580D01*
X0220758Y0197481D01*
X0220564Y0197386D01*
X0220367Y0197296D01*
X0220169Y0197211D01*
X0219968Y0197131D01*
X0219766Y0197056D01*
X0219561Y0196985D01*
X0219355Y0196920D01*
X0219148Y0196860D01*
X0218939Y0196805D01*
X0218729Y0196755D01*
X0218517Y0196710D01*
X0218305Y0196671D01*
X0218092Y0196636D01*
X0217878Y0196607D01*
X0217663Y0196583D01*
X0217448Y0196565D01*
X0217232Y0196552D01*
X0217016Y0196544D01*
X0216800Y0196541D01*
X0216584Y0196544D01*
X0216368Y0196552D01*
X0216152Y0196565D01*
X0215937Y0196583D01*
X0215722Y0196607D01*
X0215508Y0196636D01*
X0215295Y0196671D01*
X0215083Y0196710D01*
X0214871Y0196755D01*
X0214661Y0196805D01*
X0214452Y0196860D01*
X0214245Y0196920D01*
X0214039Y0196985D01*
X0213834Y0197056D01*
X0213632Y0197131D01*
X0213431Y0197211D01*
X0213233Y0197296D01*
X0213036Y0197386D01*
X0212842Y0197481D01*
X0212650Y0197580D01*
X0212461Y0197685D01*
X0212274Y0197793D01*
X0212090Y0197907D01*
X0211909Y0198025D01*
X0211731Y0198147D01*
X0211556Y0198273D01*
X0211384Y0198404D01*
X0211215Y0198539D01*
X0211050Y0198678D01*
X0210888Y0198821D01*
X0210730Y0198968D01*
X0210575Y0199119D01*
X0210424Y0199274D01*
X0210277Y0199432D01*
X0210134Y0199594D01*
X0209995Y0199759D01*
X0209860Y0199928D01*
X0209729Y0200100D01*
X0209603Y0200275D01*
X0209481Y0200453D01*
X0209363Y0200634D01*
X0209249Y0200818D01*
X0209141Y0201005D01*
X0209036Y0201194D01*
X0208937Y0201386D01*
X0208842Y0201580D01*
X0208752Y0201777D01*
X0208667Y0201975D01*
X0208587Y0202176D01*
X0208512Y0202378D01*
X0208441Y0202583D01*
X0208376Y0202789D01*
X0208316Y0202996D01*
X0208261Y0203205D01*
X0208211Y0203415D01*
X0208166Y0203627D01*
X0208127Y0203839D01*
X0208092Y0204052D01*
X0208063Y0204266D01*
X0208039Y0204481D01*
X0208021Y0204696D01*
X0208008Y0204912D01*
X0208000Y0205128D01*
X0207997Y0205344D01*
X0212863Y0175187D02*
X0220737Y0175187D01*
X0226643Y0169281D01*
X0226643Y0161407D01*
X0220737Y0155502D01*
X0212863Y0155502D01*
X0206957Y0161407D01*
X0206957Y0169281D01*
X0212863Y0175187D01*
X0207997Y0165344D02*
X0208000Y0165560D01*
X0208008Y0165776D01*
X0208021Y0165992D01*
X0208039Y0166207D01*
X0208063Y0166422D01*
X0208092Y0166636D01*
X0208127Y0166849D01*
X0208166Y0167061D01*
X0208211Y0167273D01*
X0208261Y0167483D01*
X0208316Y0167692D01*
X0208376Y0167899D01*
X0208441Y0168105D01*
X0208512Y0168310D01*
X0208587Y0168512D01*
X0208667Y0168713D01*
X0208752Y0168911D01*
X0208842Y0169108D01*
X0208937Y0169302D01*
X0209036Y0169494D01*
X0209141Y0169683D01*
X0209249Y0169870D01*
X0209363Y0170054D01*
X0209481Y0170235D01*
X0209603Y0170413D01*
X0209729Y0170588D01*
X0209860Y0170760D01*
X0209995Y0170929D01*
X0210134Y0171094D01*
X0210277Y0171256D01*
X0210424Y0171414D01*
X0210575Y0171569D01*
X0210730Y0171720D01*
X0210888Y0171867D01*
X0211050Y0172010D01*
X0211215Y0172149D01*
X0211384Y0172284D01*
X0211556Y0172415D01*
X0211731Y0172541D01*
X0211909Y0172663D01*
X0212090Y0172781D01*
X0212274Y0172895D01*
X0212461Y0173003D01*
X0212650Y0173108D01*
X0212842Y0173207D01*
X0213036Y0173302D01*
X0213233Y0173392D01*
X0213431Y0173477D01*
X0213632Y0173557D01*
X0213834Y0173632D01*
X0214039Y0173703D01*
X0214245Y0173768D01*
X0214452Y0173828D01*
X0214661Y0173883D01*
X0214871Y0173933D01*
X0215083Y0173978D01*
X0215295Y0174017D01*
X0215508Y0174052D01*
X0215722Y0174081D01*
X0215937Y0174105D01*
X0216152Y0174123D01*
X0216368Y0174136D01*
X0216584Y0174144D01*
X0216800Y0174147D01*
X0217016Y0174144D01*
X0217232Y0174136D01*
X0217448Y0174123D01*
X0217663Y0174105D01*
X0217878Y0174081D01*
X0218092Y0174052D01*
X0218305Y0174017D01*
X0218517Y0173978D01*
X0218729Y0173933D01*
X0218939Y0173883D01*
X0219148Y0173828D01*
X0219355Y0173768D01*
X0219561Y0173703D01*
X0219766Y0173632D01*
X0219968Y0173557D01*
X0220169Y0173477D01*
X0220367Y0173392D01*
X0220564Y0173302D01*
X0220758Y0173207D01*
X0220950Y0173108D01*
X0221139Y0173003D01*
X0221326Y0172895D01*
X0221510Y0172781D01*
X0221691Y0172663D01*
X0221869Y0172541D01*
X0222044Y0172415D01*
X0222216Y0172284D01*
X0222385Y0172149D01*
X0222550Y0172010D01*
X0222712Y0171867D01*
X0222870Y0171720D01*
X0223025Y0171569D01*
X0223176Y0171414D01*
X0223323Y0171256D01*
X0223466Y0171094D01*
X0223605Y0170929D01*
X0223740Y0170760D01*
X0223871Y0170588D01*
X0223997Y0170413D01*
X0224119Y0170235D01*
X0224237Y0170054D01*
X0224351Y0169870D01*
X0224459Y0169683D01*
X0224564Y0169494D01*
X0224663Y0169302D01*
X0224758Y0169108D01*
X0224848Y0168911D01*
X0224933Y0168713D01*
X0225013Y0168512D01*
X0225088Y0168310D01*
X0225159Y0168105D01*
X0225224Y0167899D01*
X0225284Y0167692D01*
X0225339Y0167483D01*
X0225389Y0167273D01*
X0225434Y0167061D01*
X0225473Y0166849D01*
X0225508Y0166636D01*
X0225537Y0166422D01*
X0225561Y0166207D01*
X0225579Y0165992D01*
X0225592Y0165776D01*
X0225600Y0165560D01*
X0225603Y0165344D01*
X0225600Y0165128D01*
X0225592Y0164912D01*
X0225579Y0164696D01*
X0225561Y0164481D01*
X0225537Y0164266D01*
X0225508Y0164052D01*
X0225473Y0163839D01*
X0225434Y0163627D01*
X0225389Y0163415D01*
X0225339Y0163205D01*
X0225284Y0162996D01*
X0225224Y0162789D01*
X0225159Y0162583D01*
X0225088Y0162378D01*
X0225013Y0162176D01*
X0224933Y0161975D01*
X0224848Y0161777D01*
X0224758Y0161580D01*
X0224663Y0161386D01*
X0224564Y0161194D01*
X0224459Y0161005D01*
X0224351Y0160818D01*
X0224237Y0160634D01*
X0224119Y0160453D01*
X0223997Y0160275D01*
X0223871Y0160100D01*
X0223740Y0159928D01*
X0223605Y0159759D01*
X0223466Y0159594D01*
X0223323Y0159432D01*
X0223176Y0159274D01*
X0223025Y0159119D01*
X0222870Y0158968D01*
X0222712Y0158821D01*
X0222550Y0158678D01*
X0222385Y0158539D01*
X0222216Y0158404D01*
X0222044Y0158273D01*
X0221869Y0158147D01*
X0221691Y0158025D01*
X0221510Y0157907D01*
X0221326Y0157793D01*
X0221139Y0157685D01*
X0220950Y0157580D01*
X0220758Y0157481D01*
X0220564Y0157386D01*
X0220367Y0157296D01*
X0220169Y0157211D01*
X0219968Y0157131D01*
X0219766Y0157056D01*
X0219561Y0156985D01*
X0219355Y0156920D01*
X0219148Y0156860D01*
X0218939Y0156805D01*
X0218729Y0156755D01*
X0218517Y0156710D01*
X0218305Y0156671D01*
X0218092Y0156636D01*
X0217878Y0156607D01*
X0217663Y0156583D01*
X0217448Y0156565D01*
X0217232Y0156552D01*
X0217016Y0156544D01*
X0216800Y0156541D01*
X0216584Y0156544D01*
X0216368Y0156552D01*
X0216152Y0156565D01*
X0215937Y0156583D01*
X0215722Y0156607D01*
X0215508Y0156636D01*
X0215295Y0156671D01*
X0215083Y0156710D01*
X0214871Y0156755D01*
X0214661Y0156805D01*
X0214452Y0156860D01*
X0214245Y0156920D01*
X0214039Y0156985D01*
X0213834Y0157056D01*
X0213632Y0157131D01*
X0213431Y0157211D01*
X0213233Y0157296D01*
X0213036Y0157386D01*
X0212842Y0157481D01*
X0212650Y0157580D01*
X0212461Y0157685D01*
X0212274Y0157793D01*
X0212090Y0157907D01*
X0211909Y0158025D01*
X0211731Y0158147D01*
X0211556Y0158273D01*
X0211384Y0158404D01*
X0211215Y0158539D01*
X0211050Y0158678D01*
X0210888Y0158821D01*
X0210730Y0158968D01*
X0210575Y0159119D01*
X0210424Y0159274D01*
X0210277Y0159432D01*
X0210134Y0159594D01*
X0209995Y0159759D01*
X0209860Y0159928D01*
X0209729Y0160100D01*
X0209603Y0160275D01*
X0209481Y0160453D01*
X0209363Y0160634D01*
X0209249Y0160818D01*
X0209141Y0161005D01*
X0209036Y0161194D01*
X0208937Y0161386D01*
X0208842Y0161580D01*
X0208752Y0161777D01*
X0208667Y0161975D01*
X0208587Y0162176D01*
X0208512Y0162378D01*
X0208441Y0162583D01*
X0208376Y0162789D01*
X0208316Y0162996D01*
X0208261Y0163205D01*
X0208211Y0163415D01*
X0208166Y0163627D01*
X0208127Y0163839D01*
X0208092Y0164052D01*
X0208063Y0164266D01*
X0208039Y0164481D01*
X0208021Y0164696D01*
X0208008Y0164912D01*
X0208000Y0165128D01*
X0207997Y0165344D01*
X0212863Y0135187D02*
X0220737Y0135187D01*
X0226643Y0129281D01*
X0226643Y0121407D01*
X0220737Y0115502D01*
X0212863Y0115502D01*
X0206957Y0121407D01*
X0206957Y0129281D01*
X0212863Y0135187D01*
X0207997Y0125344D02*
X0208000Y0125560D01*
X0208008Y0125776D01*
X0208021Y0125992D01*
X0208039Y0126207D01*
X0208063Y0126422D01*
X0208092Y0126636D01*
X0208127Y0126849D01*
X0208166Y0127061D01*
X0208211Y0127273D01*
X0208261Y0127483D01*
X0208316Y0127692D01*
X0208376Y0127899D01*
X0208441Y0128105D01*
X0208512Y0128310D01*
X0208587Y0128512D01*
X0208667Y0128713D01*
X0208752Y0128911D01*
X0208842Y0129108D01*
X0208937Y0129302D01*
X0209036Y0129494D01*
X0209141Y0129683D01*
X0209249Y0129870D01*
X0209363Y0130054D01*
X0209481Y0130235D01*
X0209603Y0130413D01*
X0209729Y0130588D01*
X0209860Y0130760D01*
X0209995Y0130929D01*
X0210134Y0131094D01*
X0210277Y0131256D01*
X0210424Y0131414D01*
X0210575Y0131569D01*
X0210730Y0131720D01*
X0210888Y0131867D01*
X0211050Y0132010D01*
X0211215Y0132149D01*
X0211384Y0132284D01*
X0211556Y0132415D01*
X0211731Y0132541D01*
X0211909Y0132663D01*
X0212090Y0132781D01*
X0212274Y0132895D01*
X0212461Y0133003D01*
X0212650Y0133108D01*
X0212842Y0133207D01*
X0213036Y0133302D01*
X0213233Y0133392D01*
X0213431Y0133477D01*
X0213632Y0133557D01*
X0213834Y0133632D01*
X0214039Y0133703D01*
X0214245Y0133768D01*
X0214452Y0133828D01*
X0214661Y0133883D01*
X0214871Y0133933D01*
X0215083Y0133978D01*
X0215295Y0134017D01*
X0215508Y0134052D01*
X0215722Y0134081D01*
X0215937Y0134105D01*
X0216152Y0134123D01*
X0216368Y0134136D01*
X0216584Y0134144D01*
X0216800Y0134147D01*
X0217016Y0134144D01*
X0217232Y0134136D01*
X0217448Y0134123D01*
X0217663Y0134105D01*
X0217878Y0134081D01*
X0218092Y0134052D01*
X0218305Y0134017D01*
X0218517Y0133978D01*
X0218729Y0133933D01*
X0218939Y0133883D01*
X0219148Y0133828D01*
X0219355Y0133768D01*
X0219561Y0133703D01*
X0219766Y0133632D01*
X0219968Y0133557D01*
X0220169Y0133477D01*
X0220367Y0133392D01*
X0220564Y0133302D01*
X0220758Y0133207D01*
X0220950Y0133108D01*
X0221139Y0133003D01*
X0221326Y0132895D01*
X0221510Y0132781D01*
X0221691Y0132663D01*
X0221869Y0132541D01*
X0222044Y0132415D01*
X0222216Y0132284D01*
X0222385Y0132149D01*
X0222550Y0132010D01*
X0222712Y0131867D01*
X0222870Y0131720D01*
X0223025Y0131569D01*
X0223176Y0131414D01*
X0223323Y0131256D01*
X0223466Y0131094D01*
X0223605Y0130929D01*
X0223740Y0130760D01*
X0223871Y0130588D01*
X0223997Y0130413D01*
X0224119Y0130235D01*
X0224237Y0130054D01*
X0224351Y0129870D01*
X0224459Y0129683D01*
X0224564Y0129494D01*
X0224663Y0129302D01*
X0224758Y0129108D01*
X0224848Y0128911D01*
X0224933Y0128713D01*
X0225013Y0128512D01*
X0225088Y0128310D01*
X0225159Y0128105D01*
X0225224Y0127899D01*
X0225284Y0127692D01*
X0225339Y0127483D01*
X0225389Y0127273D01*
X0225434Y0127061D01*
X0225473Y0126849D01*
X0225508Y0126636D01*
X0225537Y0126422D01*
X0225561Y0126207D01*
X0225579Y0125992D01*
X0225592Y0125776D01*
X0225600Y0125560D01*
X0225603Y0125344D01*
X0225600Y0125128D01*
X0225592Y0124912D01*
X0225579Y0124696D01*
X0225561Y0124481D01*
X0225537Y0124266D01*
X0225508Y0124052D01*
X0225473Y0123839D01*
X0225434Y0123627D01*
X0225389Y0123415D01*
X0225339Y0123205D01*
X0225284Y0122996D01*
X0225224Y0122789D01*
X0225159Y0122583D01*
X0225088Y0122378D01*
X0225013Y0122176D01*
X0224933Y0121975D01*
X0224848Y0121777D01*
X0224758Y0121580D01*
X0224663Y0121386D01*
X0224564Y0121194D01*
X0224459Y0121005D01*
X0224351Y0120818D01*
X0224237Y0120634D01*
X0224119Y0120453D01*
X0223997Y0120275D01*
X0223871Y0120100D01*
X0223740Y0119928D01*
X0223605Y0119759D01*
X0223466Y0119594D01*
X0223323Y0119432D01*
X0223176Y0119274D01*
X0223025Y0119119D01*
X0222870Y0118968D01*
X0222712Y0118821D01*
X0222550Y0118678D01*
X0222385Y0118539D01*
X0222216Y0118404D01*
X0222044Y0118273D01*
X0221869Y0118147D01*
X0221691Y0118025D01*
X0221510Y0117907D01*
X0221326Y0117793D01*
X0221139Y0117685D01*
X0220950Y0117580D01*
X0220758Y0117481D01*
X0220564Y0117386D01*
X0220367Y0117296D01*
X0220169Y0117211D01*
X0219968Y0117131D01*
X0219766Y0117056D01*
X0219561Y0116985D01*
X0219355Y0116920D01*
X0219148Y0116860D01*
X0218939Y0116805D01*
X0218729Y0116755D01*
X0218517Y0116710D01*
X0218305Y0116671D01*
X0218092Y0116636D01*
X0217878Y0116607D01*
X0217663Y0116583D01*
X0217448Y0116565D01*
X0217232Y0116552D01*
X0217016Y0116544D01*
X0216800Y0116541D01*
X0216584Y0116544D01*
X0216368Y0116552D01*
X0216152Y0116565D01*
X0215937Y0116583D01*
X0215722Y0116607D01*
X0215508Y0116636D01*
X0215295Y0116671D01*
X0215083Y0116710D01*
X0214871Y0116755D01*
X0214661Y0116805D01*
X0214452Y0116860D01*
X0214245Y0116920D01*
X0214039Y0116985D01*
X0213834Y0117056D01*
X0213632Y0117131D01*
X0213431Y0117211D01*
X0213233Y0117296D01*
X0213036Y0117386D01*
X0212842Y0117481D01*
X0212650Y0117580D01*
X0212461Y0117685D01*
X0212274Y0117793D01*
X0212090Y0117907D01*
X0211909Y0118025D01*
X0211731Y0118147D01*
X0211556Y0118273D01*
X0211384Y0118404D01*
X0211215Y0118539D01*
X0211050Y0118678D01*
X0210888Y0118821D01*
X0210730Y0118968D01*
X0210575Y0119119D01*
X0210424Y0119274D01*
X0210277Y0119432D01*
X0210134Y0119594D01*
X0209995Y0119759D01*
X0209860Y0119928D01*
X0209729Y0120100D01*
X0209603Y0120275D01*
X0209481Y0120453D01*
X0209363Y0120634D01*
X0209249Y0120818D01*
X0209141Y0121005D01*
X0209036Y0121194D01*
X0208937Y0121386D01*
X0208842Y0121580D01*
X0208752Y0121777D01*
X0208667Y0121975D01*
X0208587Y0122176D01*
X0208512Y0122378D01*
X0208441Y0122583D01*
X0208376Y0122789D01*
X0208316Y0122996D01*
X0208261Y0123205D01*
X0208211Y0123415D01*
X0208166Y0123627D01*
X0208127Y0123839D01*
X0208092Y0124052D01*
X0208063Y0124266D01*
X0208039Y0124481D01*
X0208021Y0124696D01*
X0208008Y0124912D01*
X0208000Y0125128D01*
X0207997Y0125344D01*
X0212863Y0095187D02*
X0220737Y0095187D01*
X0226643Y0089281D01*
X0226643Y0081407D01*
X0220737Y0075502D01*
X0212863Y0075502D01*
X0206957Y0081407D01*
X0206957Y0089281D01*
X0212863Y0095187D01*
X0207997Y0085344D02*
X0208000Y0085560D01*
X0208008Y0085776D01*
X0208021Y0085992D01*
X0208039Y0086207D01*
X0208063Y0086422D01*
X0208092Y0086636D01*
X0208127Y0086849D01*
X0208166Y0087061D01*
X0208211Y0087273D01*
X0208261Y0087483D01*
X0208316Y0087692D01*
X0208376Y0087899D01*
X0208441Y0088105D01*
X0208512Y0088310D01*
X0208587Y0088512D01*
X0208667Y0088713D01*
X0208752Y0088911D01*
X0208842Y0089108D01*
X0208937Y0089302D01*
X0209036Y0089494D01*
X0209141Y0089683D01*
X0209249Y0089870D01*
X0209363Y0090054D01*
X0209481Y0090235D01*
X0209603Y0090413D01*
X0209729Y0090588D01*
X0209860Y0090760D01*
X0209995Y0090929D01*
X0210134Y0091094D01*
X0210277Y0091256D01*
X0210424Y0091414D01*
X0210575Y0091569D01*
X0210730Y0091720D01*
X0210888Y0091867D01*
X0211050Y0092010D01*
X0211215Y0092149D01*
X0211384Y0092284D01*
X0211556Y0092415D01*
X0211731Y0092541D01*
X0211909Y0092663D01*
X0212090Y0092781D01*
X0212274Y0092895D01*
X0212461Y0093003D01*
X0212650Y0093108D01*
X0212842Y0093207D01*
X0213036Y0093302D01*
X0213233Y0093392D01*
X0213431Y0093477D01*
X0213632Y0093557D01*
X0213834Y0093632D01*
X0214039Y0093703D01*
X0214245Y0093768D01*
X0214452Y0093828D01*
X0214661Y0093883D01*
X0214871Y0093933D01*
X0215083Y0093978D01*
X0215295Y0094017D01*
X0215508Y0094052D01*
X0215722Y0094081D01*
X0215937Y0094105D01*
X0216152Y0094123D01*
X0216368Y0094136D01*
X0216584Y0094144D01*
X0216800Y0094147D01*
X0217016Y0094144D01*
X0217232Y0094136D01*
X0217448Y0094123D01*
X0217663Y0094105D01*
X0217878Y0094081D01*
X0218092Y0094052D01*
X0218305Y0094017D01*
X0218517Y0093978D01*
X0218729Y0093933D01*
X0218939Y0093883D01*
X0219148Y0093828D01*
X0219355Y0093768D01*
X0219561Y0093703D01*
X0219766Y0093632D01*
X0219968Y0093557D01*
X0220169Y0093477D01*
X0220367Y0093392D01*
X0220564Y0093302D01*
X0220758Y0093207D01*
X0220950Y0093108D01*
X0221139Y0093003D01*
X0221326Y0092895D01*
X0221510Y0092781D01*
X0221691Y0092663D01*
X0221869Y0092541D01*
X0222044Y0092415D01*
X0222216Y0092284D01*
X0222385Y0092149D01*
X0222550Y0092010D01*
X0222712Y0091867D01*
X0222870Y0091720D01*
X0223025Y0091569D01*
X0223176Y0091414D01*
X0223323Y0091256D01*
X0223466Y0091094D01*
X0223605Y0090929D01*
X0223740Y0090760D01*
X0223871Y0090588D01*
X0223997Y0090413D01*
X0224119Y0090235D01*
X0224237Y0090054D01*
X0224351Y0089870D01*
X0224459Y0089683D01*
X0224564Y0089494D01*
X0224663Y0089302D01*
X0224758Y0089108D01*
X0224848Y0088911D01*
X0224933Y0088713D01*
X0225013Y0088512D01*
X0225088Y0088310D01*
X0225159Y0088105D01*
X0225224Y0087899D01*
X0225284Y0087692D01*
X0225339Y0087483D01*
X0225389Y0087273D01*
X0225434Y0087061D01*
X0225473Y0086849D01*
X0225508Y0086636D01*
X0225537Y0086422D01*
X0225561Y0086207D01*
X0225579Y0085992D01*
X0225592Y0085776D01*
X0225600Y0085560D01*
X0225603Y0085344D01*
X0225600Y0085128D01*
X0225592Y0084912D01*
X0225579Y0084696D01*
X0225561Y0084481D01*
X0225537Y0084266D01*
X0225508Y0084052D01*
X0225473Y0083839D01*
X0225434Y0083627D01*
X0225389Y0083415D01*
X0225339Y0083205D01*
X0225284Y0082996D01*
X0225224Y0082789D01*
X0225159Y0082583D01*
X0225088Y0082378D01*
X0225013Y0082176D01*
X0224933Y0081975D01*
X0224848Y0081777D01*
X0224758Y0081580D01*
X0224663Y0081386D01*
X0224564Y0081194D01*
X0224459Y0081005D01*
X0224351Y0080818D01*
X0224237Y0080634D01*
X0224119Y0080453D01*
X0223997Y0080275D01*
X0223871Y0080100D01*
X0223740Y0079928D01*
X0223605Y0079759D01*
X0223466Y0079594D01*
X0223323Y0079432D01*
X0223176Y0079274D01*
X0223025Y0079119D01*
X0222870Y0078968D01*
X0222712Y0078821D01*
X0222550Y0078678D01*
X0222385Y0078539D01*
X0222216Y0078404D01*
X0222044Y0078273D01*
X0221869Y0078147D01*
X0221691Y0078025D01*
X0221510Y0077907D01*
X0221326Y0077793D01*
X0221139Y0077685D01*
X0220950Y0077580D01*
X0220758Y0077481D01*
X0220564Y0077386D01*
X0220367Y0077296D01*
X0220169Y0077211D01*
X0219968Y0077131D01*
X0219766Y0077056D01*
X0219561Y0076985D01*
X0219355Y0076920D01*
X0219148Y0076860D01*
X0218939Y0076805D01*
X0218729Y0076755D01*
X0218517Y0076710D01*
X0218305Y0076671D01*
X0218092Y0076636D01*
X0217878Y0076607D01*
X0217663Y0076583D01*
X0217448Y0076565D01*
X0217232Y0076552D01*
X0217016Y0076544D01*
X0216800Y0076541D01*
X0216584Y0076544D01*
X0216368Y0076552D01*
X0216152Y0076565D01*
X0215937Y0076583D01*
X0215722Y0076607D01*
X0215508Y0076636D01*
X0215295Y0076671D01*
X0215083Y0076710D01*
X0214871Y0076755D01*
X0214661Y0076805D01*
X0214452Y0076860D01*
X0214245Y0076920D01*
X0214039Y0076985D01*
X0213834Y0077056D01*
X0213632Y0077131D01*
X0213431Y0077211D01*
X0213233Y0077296D01*
X0213036Y0077386D01*
X0212842Y0077481D01*
X0212650Y0077580D01*
X0212461Y0077685D01*
X0212274Y0077793D01*
X0212090Y0077907D01*
X0211909Y0078025D01*
X0211731Y0078147D01*
X0211556Y0078273D01*
X0211384Y0078404D01*
X0211215Y0078539D01*
X0211050Y0078678D01*
X0210888Y0078821D01*
X0210730Y0078968D01*
X0210575Y0079119D01*
X0210424Y0079274D01*
X0210277Y0079432D01*
X0210134Y0079594D01*
X0209995Y0079759D01*
X0209860Y0079928D01*
X0209729Y0080100D01*
X0209603Y0080275D01*
X0209481Y0080453D01*
X0209363Y0080634D01*
X0209249Y0080818D01*
X0209141Y0081005D01*
X0209036Y0081194D01*
X0208937Y0081386D01*
X0208842Y0081580D01*
X0208752Y0081777D01*
X0208667Y0081975D01*
X0208587Y0082176D01*
X0208512Y0082378D01*
X0208441Y0082583D01*
X0208376Y0082789D01*
X0208316Y0082996D01*
X0208261Y0083205D01*
X0208211Y0083415D01*
X0208166Y0083627D01*
X0208127Y0083839D01*
X0208092Y0084052D01*
X0208063Y0084266D01*
X0208039Y0084481D01*
X0208021Y0084696D01*
X0208008Y0084912D01*
X0208000Y0085128D01*
X0207997Y0085344D01*
X0198198Y0061098D02*
X0196697Y0061098D01*
X0195946Y0060348D01*
X0198198Y0061098D02*
X0198949Y0060348D01*
X0198949Y0059597D01*
X0195946Y0056594D01*
X0198949Y0056594D01*
X0212942Y0038219D02*
X0230658Y0038219D01*
X0230658Y0014596D01*
X0212942Y0014596D01*
X0212942Y0038219D01*
X0229842Y0035348D02*
X0229842Y0034597D01*
X0230593Y0033846D01*
X0232094Y0033846D01*
X0232845Y0033096D01*
X0232845Y0032345D01*
X0232094Y0031594D01*
X0230593Y0031594D01*
X0229842Y0032345D01*
X0229842Y0035348D02*
X0230593Y0036098D01*
X0232094Y0036098D01*
X0232845Y0035348D01*
X0234446Y0034597D02*
X0235947Y0036098D01*
X0235947Y0031594D01*
X0234446Y0031594D02*
X0237449Y0031594D01*
X0235949Y0056594D02*
X0232946Y0056594D01*
X0234447Y0056594D02*
X0234447Y0061098D01*
X0232946Y0059597D01*
X0159050Y0037242D02*
X0154546Y0037242D01*
X0156798Y0034991D01*
X0156798Y0037993D01*
D16*
X0077800Y0100844D02*
X0050800Y0100844D01*
X0050630Y0100846D01*
X0050459Y0100852D01*
X0050289Y0100863D01*
X0050119Y0100877D01*
X0049950Y0100896D01*
X0049781Y0100919D01*
X0049612Y0100945D01*
X0049445Y0100976D01*
X0049278Y0101011D01*
X0049112Y0101051D01*
X0048947Y0101094D01*
X0048783Y0101141D01*
X0048621Y0101192D01*
X0048459Y0101247D01*
X0048299Y0101306D01*
X0048141Y0101369D01*
X0047984Y0101435D01*
X0047829Y0101506D01*
X0047675Y0101580D01*
X0047524Y0101658D01*
X0047374Y0101740D01*
X0047226Y0101825D01*
X0047081Y0101914D01*
X0046938Y0102006D01*
X0046797Y0102102D01*
X0046658Y0102201D01*
X0046522Y0102304D01*
X0046388Y0102409D01*
X0046257Y0102518D01*
X0046129Y0102631D01*
X0046003Y0102746D01*
X0045880Y0102864D01*
X0045761Y0102985D01*
X0045644Y0103110D01*
X0045530Y0103237D01*
X0045419Y0103366D01*
X0045312Y0103499D01*
X0045208Y0103634D01*
X0045107Y0103771D01*
X0045009Y0103911D01*
X0044915Y0104053D01*
X0044825Y0104197D01*
X0044738Y0104344D01*
X0044654Y0104493D01*
X0044575Y0104643D01*
X0044499Y0104796D01*
X0044426Y0104950D01*
X0044358Y0105106D01*
X0044293Y0105264D01*
X0044232Y0105423D01*
X0044175Y0105584D01*
X0044122Y0105746D01*
X0044073Y0105909D01*
X0044028Y0106073D01*
X0043987Y0106239D01*
X0043949Y0106405D01*
X0043916Y0106573D01*
X0043888Y0106741D01*
X0043863Y0106909D01*
X0043842Y0107078D01*
X0043825Y0107248D01*
X0043813Y0107418D01*
X0043805Y0107588D01*
X0043801Y0107759D01*
X0043801Y0107929D01*
X0043805Y0108100D01*
X0043813Y0108270D01*
X0043825Y0108440D01*
X0043842Y0108610D01*
X0043863Y0108779D01*
X0043888Y0108947D01*
X0043916Y0109115D01*
X0043949Y0109283D01*
X0043987Y0109449D01*
X0044028Y0109615D01*
X0044073Y0109779D01*
X0044122Y0109942D01*
X0044175Y0110104D01*
X0044232Y0110265D01*
X0044293Y0110424D01*
X0044358Y0110582D01*
X0044426Y0110738D01*
X0044499Y0110892D01*
X0044575Y0111045D01*
X0044654Y0111195D01*
X0044738Y0111344D01*
X0044825Y0111491D01*
X0044915Y0111635D01*
X0045009Y0111777D01*
X0045107Y0111917D01*
X0045208Y0112054D01*
X0045312Y0112189D01*
X0045419Y0112322D01*
X0045530Y0112451D01*
X0045644Y0112578D01*
X0045761Y0112703D01*
X0045880Y0112824D01*
X0046003Y0112942D01*
X0046129Y0113057D01*
X0046257Y0113170D01*
X0046388Y0113279D01*
X0046522Y0113384D01*
X0046658Y0113487D01*
X0046797Y0113586D01*
X0046938Y0113682D01*
X0047081Y0113774D01*
X0047226Y0113863D01*
X0047374Y0113948D01*
X0047524Y0114030D01*
X0047675Y0114108D01*
X0047829Y0114182D01*
X0047984Y0114253D01*
X0048141Y0114319D01*
X0048299Y0114382D01*
X0048459Y0114441D01*
X0048621Y0114496D01*
X0048783Y0114547D01*
X0048947Y0114594D01*
X0049112Y0114637D01*
X0049278Y0114677D01*
X0049445Y0114712D01*
X0049612Y0114743D01*
X0049781Y0114769D01*
X0049950Y0114792D01*
X0050119Y0114811D01*
X0050289Y0114825D01*
X0050459Y0114836D01*
X0050630Y0114842D01*
X0050800Y0114844D01*
X0077800Y0114844D01*
X0077970Y0114842D01*
X0078141Y0114836D01*
X0078311Y0114825D01*
X0078481Y0114811D01*
X0078650Y0114792D01*
X0078819Y0114769D01*
X0078988Y0114743D01*
X0079155Y0114712D01*
X0079322Y0114677D01*
X0079488Y0114637D01*
X0079653Y0114594D01*
X0079817Y0114547D01*
X0079979Y0114496D01*
X0080141Y0114441D01*
X0080301Y0114382D01*
X0080459Y0114319D01*
X0080616Y0114253D01*
X0080771Y0114182D01*
X0080925Y0114108D01*
X0081076Y0114030D01*
X0081226Y0113948D01*
X0081374Y0113863D01*
X0081519Y0113774D01*
X0081662Y0113682D01*
X0081803Y0113586D01*
X0081942Y0113487D01*
X0082078Y0113384D01*
X0082212Y0113279D01*
X0082343Y0113170D01*
X0082471Y0113057D01*
X0082597Y0112942D01*
X0082720Y0112824D01*
X0082839Y0112703D01*
X0082956Y0112578D01*
X0083070Y0112451D01*
X0083181Y0112322D01*
X0083288Y0112189D01*
X0083392Y0112054D01*
X0083493Y0111917D01*
X0083591Y0111777D01*
X0083685Y0111635D01*
X0083775Y0111491D01*
X0083862Y0111344D01*
X0083946Y0111195D01*
X0084025Y0111045D01*
X0084101Y0110892D01*
X0084174Y0110738D01*
X0084242Y0110582D01*
X0084307Y0110424D01*
X0084368Y0110265D01*
X0084425Y0110104D01*
X0084478Y0109942D01*
X0084527Y0109779D01*
X0084572Y0109615D01*
X0084613Y0109449D01*
X0084651Y0109283D01*
X0084684Y0109115D01*
X0084712Y0108947D01*
X0084737Y0108779D01*
X0084758Y0108610D01*
X0084775Y0108440D01*
X0084787Y0108270D01*
X0084795Y0108100D01*
X0084799Y0107929D01*
X0084799Y0107759D01*
X0084795Y0107588D01*
X0084787Y0107418D01*
X0084775Y0107248D01*
X0084758Y0107078D01*
X0084737Y0106909D01*
X0084712Y0106741D01*
X0084684Y0106573D01*
X0084651Y0106405D01*
X0084613Y0106239D01*
X0084572Y0106073D01*
X0084527Y0105909D01*
X0084478Y0105746D01*
X0084425Y0105584D01*
X0084368Y0105423D01*
X0084307Y0105264D01*
X0084242Y0105106D01*
X0084174Y0104950D01*
X0084101Y0104796D01*
X0084025Y0104643D01*
X0083946Y0104493D01*
X0083862Y0104344D01*
X0083775Y0104197D01*
X0083685Y0104053D01*
X0083591Y0103911D01*
X0083493Y0103771D01*
X0083392Y0103634D01*
X0083288Y0103499D01*
X0083181Y0103366D01*
X0083070Y0103237D01*
X0082956Y0103110D01*
X0082839Y0102985D01*
X0082720Y0102864D01*
X0082597Y0102746D01*
X0082471Y0102631D01*
X0082343Y0102518D01*
X0082212Y0102409D01*
X0082078Y0102304D01*
X0081942Y0102201D01*
X0081803Y0102102D01*
X0081662Y0102006D01*
X0081519Y0101914D01*
X0081374Y0101825D01*
X0081226Y0101740D01*
X0081076Y0101658D01*
X0080925Y0101580D01*
X0080771Y0101506D01*
X0080616Y0101435D01*
X0080459Y0101369D01*
X0080301Y0101306D01*
X0080141Y0101247D01*
X0079979Y0101192D01*
X0079817Y0101141D01*
X0079653Y0101094D01*
X0079488Y0101051D01*
X0079322Y0101011D01*
X0079155Y0100976D01*
X0078988Y0100945D01*
X0078819Y0100919D01*
X0078650Y0100896D01*
X0078481Y0100877D01*
X0078311Y0100863D01*
X0078141Y0100852D01*
X0077970Y0100846D01*
X0077800Y0100844D01*
X0025568Y0137577D02*
X0025568Y0164577D01*
X0025566Y0164747D01*
X0025560Y0164918D01*
X0025549Y0165088D01*
X0025535Y0165258D01*
X0025516Y0165427D01*
X0025493Y0165596D01*
X0025467Y0165765D01*
X0025436Y0165932D01*
X0025401Y0166099D01*
X0025361Y0166265D01*
X0025318Y0166430D01*
X0025271Y0166594D01*
X0025220Y0166756D01*
X0025165Y0166918D01*
X0025106Y0167078D01*
X0025043Y0167236D01*
X0024977Y0167393D01*
X0024906Y0167548D01*
X0024832Y0167702D01*
X0024754Y0167853D01*
X0024672Y0168003D01*
X0024587Y0168151D01*
X0024498Y0168296D01*
X0024406Y0168439D01*
X0024310Y0168580D01*
X0024211Y0168719D01*
X0024108Y0168855D01*
X0024003Y0168989D01*
X0023894Y0169120D01*
X0023781Y0169248D01*
X0023666Y0169374D01*
X0023548Y0169497D01*
X0023427Y0169616D01*
X0023302Y0169733D01*
X0023175Y0169847D01*
X0023046Y0169958D01*
X0022913Y0170065D01*
X0022778Y0170169D01*
X0022641Y0170270D01*
X0022501Y0170368D01*
X0022359Y0170462D01*
X0022215Y0170552D01*
X0022068Y0170639D01*
X0021919Y0170723D01*
X0021769Y0170802D01*
X0021616Y0170878D01*
X0021462Y0170951D01*
X0021306Y0171019D01*
X0021148Y0171084D01*
X0020989Y0171145D01*
X0020828Y0171202D01*
X0020666Y0171255D01*
X0020503Y0171304D01*
X0020339Y0171349D01*
X0020173Y0171390D01*
X0020007Y0171428D01*
X0019839Y0171461D01*
X0019671Y0171489D01*
X0019503Y0171514D01*
X0019334Y0171535D01*
X0019164Y0171552D01*
X0018994Y0171564D01*
X0018824Y0171572D01*
X0018653Y0171576D01*
X0018483Y0171576D01*
X0018312Y0171572D01*
X0018142Y0171564D01*
X0017972Y0171552D01*
X0017802Y0171535D01*
X0017633Y0171514D01*
X0017465Y0171489D01*
X0017297Y0171461D01*
X0017129Y0171428D01*
X0016963Y0171390D01*
X0016797Y0171349D01*
X0016633Y0171304D01*
X0016470Y0171255D01*
X0016308Y0171202D01*
X0016147Y0171145D01*
X0015988Y0171084D01*
X0015830Y0171019D01*
X0015674Y0170951D01*
X0015520Y0170878D01*
X0015367Y0170802D01*
X0015217Y0170723D01*
X0015068Y0170639D01*
X0014921Y0170552D01*
X0014777Y0170462D01*
X0014635Y0170368D01*
X0014495Y0170270D01*
X0014358Y0170169D01*
X0014223Y0170065D01*
X0014090Y0169958D01*
X0013961Y0169847D01*
X0013834Y0169733D01*
X0013709Y0169616D01*
X0013588Y0169497D01*
X0013470Y0169374D01*
X0013355Y0169248D01*
X0013242Y0169120D01*
X0013133Y0168989D01*
X0013028Y0168855D01*
X0012925Y0168719D01*
X0012826Y0168580D01*
X0012730Y0168439D01*
X0012638Y0168296D01*
X0012549Y0168151D01*
X0012464Y0168003D01*
X0012382Y0167853D01*
X0012304Y0167702D01*
X0012230Y0167548D01*
X0012159Y0167393D01*
X0012093Y0167236D01*
X0012030Y0167078D01*
X0011971Y0166918D01*
X0011916Y0166756D01*
X0011865Y0166594D01*
X0011818Y0166430D01*
X0011775Y0166265D01*
X0011735Y0166099D01*
X0011700Y0165932D01*
X0011669Y0165765D01*
X0011643Y0165596D01*
X0011620Y0165427D01*
X0011601Y0165258D01*
X0011587Y0165088D01*
X0011576Y0164918D01*
X0011570Y0164747D01*
X0011568Y0164577D01*
X0011568Y0137577D01*
X0011570Y0137407D01*
X0011576Y0137236D01*
X0011587Y0137066D01*
X0011601Y0136896D01*
X0011620Y0136727D01*
X0011643Y0136558D01*
X0011669Y0136389D01*
X0011700Y0136222D01*
X0011735Y0136055D01*
X0011775Y0135889D01*
X0011818Y0135724D01*
X0011865Y0135560D01*
X0011916Y0135398D01*
X0011971Y0135236D01*
X0012030Y0135076D01*
X0012093Y0134918D01*
X0012159Y0134761D01*
X0012230Y0134606D01*
X0012304Y0134452D01*
X0012382Y0134301D01*
X0012464Y0134151D01*
X0012549Y0134003D01*
X0012638Y0133858D01*
X0012730Y0133715D01*
X0012826Y0133574D01*
X0012925Y0133435D01*
X0013028Y0133299D01*
X0013133Y0133165D01*
X0013242Y0133034D01*
X0013355Y0132906D01*
X0013470Y0132780D01*
X0013588Y0132657D01*
X0013709Y0132538D01*
X0013834Y0132421D01*
X0013961Y0132307D01*
X0014090Y0132196D01*
X0014223Y0132089D01*
X0014358Y0131985D01*
X0014495Y0131884D01*
X0014635Y0131786D01*
X0014777Y0131692D01*
X0014921Y0131602D01*
X0015068Y0131515D01*
X0015217Y0131431D01*
X0015367Y0131352D01*
X0015520Y0131276D01*
X0015674Y0131203D01*
X0015830Y0131135D01*
X0015988Y0131070D01*
X0016147Y0131009D01*
X0016308Y0130952D01*
X0016470Y0130899D01*
X0016633Y0130850D01*
X0016797Y0130805D01*
X0016963Y0130764D01*
X0017129Y0130726D01*
X0017297Y0130693D01*
X0017465Y0130665D01*
X0017633Y0130640D01*
X0017802Y0130619D01*
X0017972Y0130602D01*
X0018142Y0130590D01*
X0018312Y0130582D01*
X0018483Y0130578D01*
X0018653Y0130578D01*
X0018824Y0130582D01*
X0018994Y0130590D01*
X0019164Y0130602D01*
X0019334Y0130619D01*
X0019503Y0130640D01*
X0019671Y0130665D01*
X0019839Y0130693D01*
X0020007Y0130726D01*
X0020173Y0130764D01*
X0020339Y0130805D01*
X0020503Y0130850D01*
X0020666Y0130899D01*
X0020828Y0130952D01*
X0020989Y0131009D01*
X0021148Y0131070D01*
X0021306Y0131135D01*
X0021462Y0131203D01*
X0021616Y0131276D01*
X0021769Y0131352D01*
X0021919Y0131431D01*
X0022068Y0131515D01*
X0022215Y0131602D01*
X0022359Y0131692D01*
X0022501Y0131786D01*
X0022641Y0131884D01*
X0022778Y0131985D01*
X0022913Y0132089D01*
X0023046Y0132196D01*
X0023175Y0132307D01*
X0023302Y0132421D01*
X0023427Y0132538D01*
X0023548Y0132657D01*
X0023666Y0132780D01*
X0023781Y0132906D01*
X0023894Y0133034D01*
X0024003Y0133165D01*
X0024108Y0133299D01*
X0024211Y0133435D01*
X0024310Y0133574D01*
X0024406Y0133715D01*
X0024498Y0133858D01*
X0024587Y0134003D01*
X0024672Y0134151D01*
X0024754Y0134301D01*
X0024832Y0134452D01*
X0024906Y0134606D01*
X0024977Y0134761D01*
X0025043Y0134918D01*
X0025106Y0135076D01*
X0025165Y0135236D01*
X0025220Y0135398D01*
X0025271Y0135560D01*
X0025318Y0135724D01*
X0025361Y0135889D01*
X0025401Y0136055D01*
X0025436Y0136222D01*
X0025467Y0136389D01*
X0025493Y0136558D01*
X0025516Y0136727D01*
X0025535Y0136896D01*
X0025549Y0137066D01*
X0025560Y0137236D01*
X0025566Y0137407D01*
X0025568Y0137577D01*
D17*
X0026800Y0039951D03*
X0016800Y0039951D03*
X0014300Y0260738D03*
X0024300Y0260738D03*
X0104300Y0290738D03*
X0111800Y0290738D03*
X0119300Y0290738D03*
D18*
X0034150Y0262562D02*
X0030447Y0260093D01*
X0031064Y0258879D02*
X0032298Y0258879D01*
X0032916Y0258262D01*
X0032916Y0256410D01*
X0034150Y0256410D02*
X0030447Y0256410D01*
X0030447Y0258262D01*
X0031064Y0258879D01*
X0032916Y0257645D02*
X0034150Y0258879D01*
X0034150Y0260093D02*
X0030447Y0262562D01*
X0034767Y0255196D02*
X0034767Y0252727D01*
X0034150Y0250278D02*
X0030447Y0250278D01*
X0030447Y0249044D02*
X0030447Y0251513D01*
X0031064Y0247830D02*
X0032298Y0247830D01*
X0032916Y0247212D01*
X0032916Y0245361D01*
X0034150Y0245361D02*
X0030447Y0245361D01*
X0030447Y0247212D01*
X0031064Y0247830D01*
X0032916Y0246595D02*
X0034150Y0247830D01*
X0034150Y0244146D02*
X0031681Y0244146D01*
X0030447Y0242912D01*
X0031681Y0241678D01*
X0034150Y0241678D01*
X0033533Y0240463D02*
X0030447Y0240463D01*
X0032298Y0241678D02*
X0032298Y0244146D01*
X0033533Y0240463D02*
X0034150Y0239846D01*
X0034150Y0238612D01*
X0033533Y0237994D01*
X0030447Y0237994D01*
X0009150Y0238612D02*
X0008533Y0237994D01*
X0005447Y0237994D01*
X0005447Y0240463D02*
X0008533Y0240463D01*
X0009150Y0239846D01*
X0009150Y0238612D01*
X0009150Y0241678D02*
X0006681Y0241678D01*
X0005447Y0242912D01*
X0006681Y0244146D01*
X0009150Y0244146D01*
X0009150Y0245361D02*
X0005447Y0245361D01*
X0005447Y0247212D01*
X0006064Y0247830D01*
X0007298Y0247830D01*
X0007916Y0247212D01*
X0007916Y0245361D01*
X0007916Y0246595D02*
X0009150Y0247830D01*
X0009150Y0250278D02*
X0005447Y0250278D01*
X0005447Y0249044D02*
X0005447Y0251513D01*
X0009767Y0252727D02*
X0009767Y0255196D01*
X0009150Y0257645D02*
X0005447Y0257645D01*
X0005447Y0258879D02*
X0005447Y0256410D01*
X0005447Y0260093D02*
X0009150Y0262562D01*
X0009150Y0260093D02*
X0005447Y0262562D01*
X0007298Y0244146D02*
X0007298Y0241678D01*
X0006947Y0049280D02*
X0006947Y0046811D01*
X0006947Y0048046D02*
X0010650Y0048046D01*
X0010033Y0045597D02*
X0010650Y0044980D01*
X0010650Y0043745D01*
X0010033Y0043128D01*
X0007564Y0043128D01*
X0006947Y0043745D01*
X0006947Y0044980D01*
X0007564Y0045597D01*
X0008181Y0041914D02*
X0006947Y0040679D01*
X0008181Y0039445D01*
X0010650Y0039445D01*
X0008798Y0039445D02*
X0008798Y0041914D01*
X0008181Y0041914D02*
X0010650Y0041914D01*
X0026947Y0029280D02*
X0027564Y0029280D01*
X0028798Y0028046D01*
X0030650Y0028046D01*
X0028798Y0028046D02*
X0027564Y0026811D01*
X0026947Y0026811D01*
X0027564Y0025597D02*
X0026947Y0024980D01*
X0026947Y0023128D01*
X0030650Y0023128D01*
X0030650Y0024980D01*
X0030033Y0025597D01*
X0027564Y0025597D01*
X0028181Y0021914D02*
X0030650Y0021914D01*
X0028798Y0021914D02*
X0028798Y0019445D01*
X0028181Y0019445D02*
X0026947Y0020679D01*
X0028181Y0021914D01*
X0028181Y0019445D02*
X0030650Y0019445D01*
X0030650Y0018231D02*
X0030650Y0015762D01*
X0026947Y0015762D01*
X0026947Y0018231D01*
X0028798Y0016996D02*
X0028798Y0015762D01*
X0028798Y0014548D02*
X0029416Y0013930D01*
X0029416Y0012079D01*
X0030650Y0012079D02*
X0026947Y0012079D01*
X0026947Y0013930D01*
X0027564Y0014548D01*
X0028798Y0014548D01*
X0029416Y0013313D02*
X0030650Y0014548D01*
X0214448Y0010355D02*
X0214448Y0006715D01*
X0216268Y0006715D01*
X0216875Y0007322D01*
X0216875Y0007928D01*
X0216268Y0008535D01*
X0214448Y0008535D01*
X0216268Y0008535D02*
X0216875Y0009142D01*
X0216875Y0009748D01*
X0216268Y0010355D01*
X0214448Y0010355D01*
X0218073Y0009142D02*
X0219287Y0010355D01*
X0220500Y0009142D01*
X0220500Y0006715D01*
X0220500Y0008535D02*
X0218073Y0008535D01*
X0218073Y0009142D02*
X0218073Y0006715D01*
X0222912Y0006715D02*
X0222912Y0010355D01*
X0224125Y0010355D02*
X0221698Y0010355D01*
X0225323Y0010355D02*
X0227750Y0010355D01*
X0228949Y0010355D02*
X0228949Y0006715D01*
X0231375Y0006715D01*
X0232574Y0006715D02*
X0232574Y0010355D01*
X0234394Y0010355D01*
X0235000Y0009748D01*
X0235000Y0008535D01*
X0234394Y0007928D01*
X0232574Y0007928D01*
X0233787Y0007928D02*
X0235000Y0006715D01*
X0237412Y0006715D02*
X0237412Y0008535D01*
X0238626Y0009748D01*
X0238626Y0010355D01*
X0237412Y0008535D02*
X0236199Y0009748D01*
X0236199Y0010355D01*
X0231375Y0010355D02*
X0228949Y0010355D01*
X0228949Y0008535D02*
X0230162Y0008535D01*
X0226537Y0006715D02*
X0226537Y0010355D01*
D19*
X0074300Y0246407D03*
X0074300Y0254281D03*
D20*
X0062914Y0200956D02*
X0060686Y0200956D01*
X0036188Y0176458D01*
X0036188Y0174231D01*
X0060686Y0149733D01*
X0062914Y0149733D01*
X0087412Y0174231D01*
X0087412Y0176458D01*
X0062914Y0200956D01*
D21*
X0060687Y0153073D02*
X0060689Y0153140D01*
X0060695Y0153206D01*
X0060705Y0153272D01*
X0060719Y0153337D01*
X0060736Y0153401D01*
X0060758Y0153464D01*
X0060783Y0153526D01*
X0060812Y0153586D01*
X0060845Y0153644D01*
X0060880Y0153700D01*
X0060920Y0153754D01*
X0060962Y0153805D01*
X0061007Y0153854D01*
X0061055Y0153900D01*
X0061106Y0153943D01*
X0061159Y0153983D01*
X0061215Y0154020D01*
X0061273Y0154053D01*
X0061332Y0154083D01*
X0061393Y0154109D01*
X0061456Y0154132D01*
X0061520Y0154150D01*
X0061585Y0154165D01*
X0061651Y0154176D01*
X0061717Y0154183D01*
X0061783Y0154186D01*
X0061850Y0154185D01*
X0061916Y0154180D01*
X0061982Y0154171D01*
X0062048Y0154158D01*
X0062112Y0154141D01*
X0062175Y0154121D01*
X0062237Y0154096D01*
X0062298Y0154068D01*
X0062357Y0154037D01*
X0062413Y0154002D01*
X0062468Y0153964D01*
X0062520Y0153922D01*
X0062569Y0153877D01*
X0062616Y0153830D01*
X0062660Y0153780D01*
X0062700Y0153727D01*
X0062738Y0153672D01*
X0062772Y0153615D01*
X0062803Y0153556D01*
X0062830Y0153495D01*
X0062853Y0153433D01*
X0062873Y0153369D01*
X0062889Y0153304D01*
X0062901Y0153239D01*
X0062909Y0153173D01*
X0062913Y0153106D01*
X0062913Y0153040D01*
X0062909Y0152973D01*
X0062901Y0152907D01*
X0062889Y0152842D01*
X0062873Y0152777D01*
X0062853Y0152713D01*
X0062830Y0152651D01*
X0062803Y0152590D01*
X0062772Y0152531D01*
X0062738Y0152474D01*
X0062700Y0152419D01*
X0062660Y0152366D01*
X0062616Y0152316D01*
X0062569Y0152269D01*
X0062520Y0152224D01*
X0062468Y0152182D01*
X0062413Y0152144D01*
X0062356Y0152109D01*
X0062298Y0152078D01*
X0062237Y0152050D01*
X0062175Y0152025D01*
X0062112Y0152005D01*
X0062048Y0151988D01*
X0061982Y0151975D01*
X0061916Y0151966D01*
X0061850Y0151961D01*
X0061783Y0151960D01*
X0061717Y0151963D01*
X0061651Y0151970D01*
X0061585Y0151981D01*
X0061520Y0151996D01*
X0061456Y0152014D01*
X0061393Y0152037D01*
X0061332Y0152063D01*
X0061273Y0152093D01*
X0061215Y0152126D01*
X0061159Y0152163D01*
X0061106Y0152203D01*
X0061055Y0152246D01*
X0061007Y0152292D01*
X0060962Y0152341D01*
X0060920Y0152392D01*
X0060880Y0152446D01*
X0060845Y0152502D01*
X0060812Y0152560D01*
X0060783Y0152620D01*
X0060758Y0152682D01*
X0060736Y0152745D01*
X0060719Y0152809D01*
X0060705Y0152874D01*
X0060695Y0152940D01*
X0060689Y0153006D01*
X0060687Y0153073D01*
M02*
