G75*
%MOIN*%
%OFA0B0*%
%FSLAX25Y25*%
%IPPOS*%
%LPD*%
%AMOC8*
5,1,8,0,0,1.08239X$1,22.5*
%
%ADD10C,0.00000*%
%ADD11R,0.05118X0.06299*%
%ADD12R,0.05906X0.05906*%
%ADD13R,0.05512X0.03937*%
%ADD14R,0.03937X0.05512*%
%ADD15R,0.06299X0.05118*%
%ADD16R,0.01575X0.06732*%
%ADD17R,0.07874X0.05748*%
%ADD18R,0.05413X0.09843*%
%ADD19R,0.07165X0.12559*%
%ADD20R,0.06457X0.10758*%
%ADD21R,0.07165X0.12598*%
%ADD22R,0.04724X0.04724*%
%ADD23R,0.05906X0.01969*%
%ADD24R,0.01969X0.05906*%
%ADD25R,0.04724X0.02362*%
D10*
X0001800Y0002844D02*
X0001800Y0302805D01*
X0245501Y0302805D01*
X0245501Y0002844D01*
X0001800Y0002844D01*
D11*
X0035363Y0040344D03*
X0043237Y0040344D03*
X0078060Y0135344D03*
X0085540Y0135344D03*
X0135560Y0150344D03*
X0143040Y0150344D03*
X0143040Y0200344D03*
X0135560Y0200344D03*
X0135560Y0250344D03*
X0143040Y0250344D03*
X0175560Y0275344D03*
X0183040Y0275344D03*
X0185560Y0260344D03*
X0193040Y0260344D03*
X0210560Y0260344D03*
X0218040Y0260344D03*
X0228060Y0280344D03*
X0235540Y0280344D03*
X0220737Y0230344D03*
X0212863Y0230344D03*
X0213040Y0220344D03*
X0205560Y0220344D03*
X0193040Y0220344D03*
X0185560Y0220344D03*
X0185363Y0230344D03*
X0193237Y0230344D03*
X0193237Y0190344D03*
X0185363Y0190344D03*
X0185560Y0180344D03*
X0193040Y0180344D03*
X0205560Y0180344D03*
X0213040Y0180344D03*
X0212863Y0190344D03*
X0220737Y0190344D03*
X0220737Y0150344D03*
X0212863Y0150344D03*
X0213040Y0140344D03*
X0205560Y0140344D03*
X0193040Y0140344D03*
X0185560Y0140344D03*
X0185363Y0150344D03*
X0193237Y0150344D03*
X0193237Y0110344D03*
X0185363Y0110344D03*
X0185560Y0100344D03*
X0193040Y0100344D03*
X0205560Y0100344D03*
X0213040Y0100344D03*
X0212863Y0110344D03*
X0220737Y0110344D03*
X0215737Y0070344D03*
X0207863Y0070344D03*
X0193237Y0070344D03*
X0185363Y0070344D03*
X0183237Y0045344D03*
X0175363Y0045344D03*
X0175363Y0035344D03*
X0183237Y0035344D03*
X0198060Y0035344D03*
X0205540Y0035344D03*
X0205540Y0025344D03*
X0198060Y0025344D03*
X0198060Y0015344D03*
X0205540Y0015344D03*
X0143040Y0050344D03*
X0135560Y0050344D03*
X0135560Y0100344D03*
X0143040Y0100344D03*
X0073237Y0265344D03*
X0065363Y0265344D03*
D12*
X0050658Y0135344D03*
X0032942Y0135344D03*
X0207942Y0125344D03*
X0225658Y0125344D03*
X0225658Y0165344D03*
X0207942Y0165344D03*
X0207942Y0205344D03*
X0225658Y0205344D03*
X0225658Y0245344D03*
X0207942Y0245344D03*
X0207942Y0085344D03*
X0225658Y0085344D03*
D13*
X0193631Y0081604D03*
X0193631Y0089085D03*
X0184969Y0085344D03*
X0193631Y0121604D03*
X0193631Y0129085D03*
X0184969Y0125344D03*
X0193631Y0161604D03*
X0193631Y0169085D03*
X0184969Y0165344D03*
X0193631Y0201604D03*
X0193631Y0209085D03*
X0184969Y0205344D03*
X0193631Y0241604D03*
X0193631Y0249085D03*
X0184969Y0245344D03*
D14*
X0175540Y0256014D03*
X0168060Y0256014D03*
X0171800Y0264675D03*
X0198060Y0289675D03*
X0205540Y0289675D03*
X0213060Y0289675D03*
X0220540Y0289675D03*
X0216800Y0281014D03*
X0228060Y0272175D03*
X0235540Y0272175D03*
X0231800Y0263514D03*
X0201800Y0281014D03*
X0171800Y0214675D03*
X0168060Y0206014D03*
X0175540Y0206014D03*
X0171800Y0164675D03*
X0168060Y0156014D03*
X0175540Y0156014D03*
X0171800Y0114675D03*
X0168060Y0106014D03*
X0175540Y0106014D03*
X0175540Y0074675D03*
X0168060Y0074675D03*
X0171800Y0066014D03*
D15*
X0144300Y0066604D03*
X0144300Y0074085D03*
X0126800Y0091604D03*
X0126800Y0099085D03*
X0144300Y0116604D03*
X0144300Y0124085D03*
X0126800Y0141604D03*
X0126800Y0149085D03*
X0144300Y0166604D03*
X0144300Y0174085D03*
X0126800Y0191604D03*
X0126800Y0199085D03*
X0119300Y0219104D03*
X0119300Y0226585D03*
X0109300Y0221585D03*
X0109300Y0214104D03*
X0126800Y0241604D03*
X0126800Y0249085D03*
X0121800Y0269104D03*
X0121800Y0276585D03*
X0111800Y0276585D03*
X0111800Y0269104D03*
X0101800Y0269104D03*
X0101800Y0276585D03*
X0144300Y0224085D03*
X0144300Y0216604D03*
X0099300Y0126585D03*
X0099300Y0119104D03*
X0089300Y0094085D03*
X0089300Y0086604D03*
X0079300Y0086604D03*
X0079300Y0094085D03*
X0069300Y0094085D03*
X0069300Y0086604D03*
X0064300Y0056585D03*
X0064300Y0049104D03*
X0054300Y0049104D03*
X0054300Y0056585D03*
X0029300Y0071604D03*
X0029300Y0079085D03*
X0029300Y0089104D03*
X0029300Y0096585D03*
X0026800Y0059085D03*
X0026800Y0051604D03*
X0016800Y0051604D03*
X0016800Y0059085D03*
X0126800Y0049085D03*
X0126800Y0041604D03*
X0234300Y0069104D03*
X0234300Y0076585D03*
X0054300Y0251604D03*
X0054300Y0259085D03*
X0044300Y0259085D03*
X0044300Y0251604D03*
X0024300Y0249085D03*
X0024300Y0241604D03*
X0014300Y0241604D03*
X0014300Y0249085D03*
D16*
X0044182Y0275463D03*
X0046741Y0275463D03*
X0049300Y0275463D03*
X0051859Y0275463D03*
X0054418Y0275463D03*
X0054182Y0030226D03*
X0056741Y0030226D03*
X0059300Y0030226D03*
X0061859Y0030226D03*
X0064418Y0030226D03*
D17*
X0070717Y0030738D03*
X0047883Y0030738D03*
X0037883Y0274951D03*
X0060717Y0274951D03*
D18*
X0052991Y0296329D03*
X0045609Y0296329D03*
X0055609Y0009360D03*
X0062991Y0009360D03*
D19*
X0047568Y0020522D03*
X0061032Y0285167D03*
D20*
X0064930Y0294414D03*
X0033739Y0294414D03*
X0043670Y0011275D03*
X0074861Y0011275D03*
D21*
X0070963Y0020541D03*
X0037637Y0285148D03*
D22*
X0024300Y0264478D03*
X0024300Y0256211D03*
X0014300Y0256211D03*
X0014300Y0264478D03*
X0104300Y0286211D03*
X0111800Y0286211D03*
X0119300Y0286211D03*
X0119300Y0294478D03*
X0111800Y0294478D03*
X0104300Y0294478D03*
X0026800Y0044478D03*
X0026800Y0036211D03*
X0016800Y0036211D03*
X0016800Y0044478D03*
D23*
G36*
X0065419Y0150845D02*
X0069594Y0146670D01*
X0068203Y0145279D01*
X0064028Y0149454D01*
X0065419Y0150845D01*
G37*
G36*
X0067646Y0153073D02*
X0071821Y0148898D01*
X0070430Y0147507D01*
X0066255Y0151682D01*
X0067646Y0153073D01*
G37*
G36*
X0069873Y0155300D02*
X0074048Y0151125D01*
X0072657Y0149734D01*
X0068482Y0153909D01*
X0069873Y0155300D01*
G37*
G36*
X0072100Y0157527D02*
X0076275Y0153352D01*
X0074884Y0151961D01*
X0070709Y0156136D01*
X0072100Y0157527D01*
G37*
G36*
X0074327Y0159754D02*
X0078502Y0155579D01*
X0077111Y0154188D01*
X0072936Y0158363D01*
X0074327Y0159754D01*
G37*
G36*
X0076555Y0161981D02*
X0080730Y0157806D01*
X0079339Y0156415D01*
X0075164Y0160590D01*
X0076555Y0161981D01*
G37*
G36*
X0078782Y0164208D02*
X0082957Y0160033D01*
X0081566Y0158642D01*
X0077391Y0162817D01*
X0078782Y0164208D01*
G37*
G36*
X0081009Y0166435D02*
X0085184Y0162260D01*
X0083793Y0160869D01*
X0079618Y0165044D01*
X0081009Y0166435D01*
G37*
G36*
X0083236Y0168662D02*
X0087411Y0164487D01*
X0086020Y0163096D01*
X0081845Y0167271D01*
X0083236Y0168662D01*
G37*
G36*
X0085463Y0170889D02*
X0089638Y0166714D01*
X0088247Y0165323D01*
X0084072Y0169498D01*
X0085463Y0170889D01*
G37*
G36*
X0087690Y0173116D02*
X0091865Y0168941D01*
X0090474Y0167550D01*
X0086299Y0171725D01*
X0087690Y0173116D01*
G37*
G36*
X0055397Y0205410D02*
X0059572Y0201235D01*
X0058181Y0199844D01*
X0054006Y0204019D01*
X0055397Y0205410D01*
G37*
G36*
X0053170Y0203182D02*
X0057345Y0199007D01*
X0055954Y0197616D01*
X0051779Y0201791D01*
X0053170Y0203182D01*
G37*
G36*
X0050943Y0200955D02*
X0055118Y0196780D01*
X0053727Y0195389D01*
X0049552Y0199564D01*
X0050943Y0200955D01*
G37*
G36*
X0048716Y0198728D02*
X0052891Y0194553D01*
X0051500Y0193162D01*
X0047325Y0197337D01*
X0048716Y0198728D01*
G37*
G36*
X0046489Y0196501D02*
X0050664Y0192326D01*
X0049273Y0190935D01*
X0045098Y0195110D01*
X0046489Y0196501D01*
G37*
G36*
X0044261Y0194274D02*
X0048436Y0190099D01*
X0047045Y0188708D01*
X0042870Y0192883D01*
X0044261Y0194274D01*
G37*
G36*
X0042034Y0192047D02*
X0046209Y0187872D01*
X0044818Y0186481D01*
X0040643Y0190656D01*
X0042034Y0192047D01*
G37*
G36*
X0039807Y0189820D02*
X0043982Y0185645D01*
X0042591Y0184254D01*
X0038416Y0188429D01*
X0039807Y0189820D01*
G37*
G36*
X0037580Y0187593D02*
X0041755Y0183418D01*
X0040364Y0182027D01*
X0036189Y0186202D01*
X0037580Y0187593D01*
G37*
G36*
X0035353Y0185366D02*
X0039528Y0181191D01*
X0038137Y0179800D01*
X0033962Y0183975D01*
X0035353Y0185366D01*
G37*
G36*
X0033126Y0183138D02*
X0037301Y0178963D01*
X0035910Y0177572D01*
X0031735Y0181747D01*
X0033126Y0183138D01*
G37*
D24*
G36*
X0035910Y0173116D02*
X0037301Y0171725D01*
X0033126Y0167550D01*
X0031735Y0168941D01*
X0035910Y0173116D01*
G37*
G36*
X0038137Y0170889D02*
X0039528Y0169498D01*
X0035353Y0165323D01*
X0033962Y0166714D01*
X0038137Y0170889D01*
G37*
G36*
X0040364Y0168662D02*
X0041755Y0167271D01*
X0037580Y0163096D01*
X0036189Y0164487D01*
X0040364Y0168662D01*
G37*
G36*
X0042591Y0166435D02*
X0043982Y0165044D01*
X0039807Y0160869D01*
X0038416Y0162260D01*
X0042591Y0166435D01*
G37*
G36*
X0044818Y0164208D02*
X0046209Y0162817D01*
X0042034Y0158642D01*
X0040643Y0160033D01*
X0044818Y0164208D01*
G37*
G36*
X0047045Y0161981D02*
X0048436Y0160590D01*
X0044261Y0156415D01*
X0042870Y0157806D01*
X0047045Y0161981D01*
G37*
G36*
X0049273Y0159754D02*
X0050664Y0158363D01*
X0046489Y0154188D01*
X0045098Y0155579D01*
X0049273Y0159754D01*
G37*
G36*
X0051500Y0157527D02*
X0052891Y0156136D01*
X0048716Y0151961D01*
X0047325Y0153352D01*
X0051500Y0157527D01*
G37*
G36*
X0053727Y0155300D02*
X0055118Y0153909D01*
X0050943Y0149734D01*
X0049552Y0151125D01*
X0053727Y0155300D01*
G37*
G36*
X0055954Y0153073D02*
X0057345Y0151682D01*
X0053170Y0147507D01*
X0051779Y0148898D01*
X0055954Y0153073D01*
G37*
G36*
X0058181Y0150845D02*
X0059572Y0149454D01*
X0055397Y0145279D01*
X0054006Y0146670D01*
X0058181Y0150845D01*
G37*
G36*
X0088247Y0185366D02*
X0089638Y0183975D01*
X0085463Y0179800D01*
X0084072Y0181191D01*
X0088247Y0185366D01*
G37*
G36*
X0086020Y0187593D02*
X0087411Y0186202D01*
X0083236Y0182027D01*
X0081845Y0183418D01*
X0086020Y0187593D01*
G37*
G36*
X0083793Y0189820D02*
X0085184Y0188429D01*
X0081009Y0184254D01*
X0079618Y0185645D01*
X0083793Y0189820D01*
G37*
G36*
X0081566Y0192047D02*
X0082957Y0190656D01*
X0078782Y0186481D01*
X0077391Y0187872D01*
X0081566Y0192047D01*
G37*
G36*
X0079339Y0194274D02*
X0080730Y0192883D01*
X0076555Y0188708D01*
X0075164Y0190099D01*
X0079339Y0194274D01*
G37*
G36*
X0077111Y0196501D02*
X0078502Y0195110D01*
X0074327Y0190935D01*
X0072936Y0192326D01*
X0077111Y0196501D01*
G37*
G36*
X0074884Y0198728D02*
X0076275Y0197337D01*
X0072100Y0193162D01*
X0070709Y0194553D01*
X0074884Y0198728D01*
G37*
G36*
X0072657Y0200955D02*
X0074048Y0199564D01*
X0069873Y0195389D01*
X0068482Y0196780D01*
X0072657Y0200955D01*
G37*
G36*
X0070430Y0203182D02*
X0071821Y0201791D01*
X0067646Y0197616D01*
X0066255Y0199007D01*
X0070430Y0203182D01*
G37*
G36*
X0068203Y0205410D02*
X0069594Y0204019D01*
X0065419Y0199844D01*
X0064028Y0201235D01*
X0068203Y0205410D01*
G37*
G36*
X0090474Y0183138D02*
X0091865Y0181747D01*
X0087690Y0177572D01*
X0086299Y0178963D01*
X0090474Y0183138D01*
G37*
D25*
X0136658Y0186604D03*
X0136658Y0194085D03*
X0146942Y0194085D03*
X0146942Y0190344D03*
X0146942Y0186604D03*
X0146942Y0144085D03*
X0146942Y0140344D03*
X0146942Y0136604D03*
X0136658Y0136604D03*
X0136658Y0144085D03*
X0136658Y0094085D03*
X0136658Y0086604D03*
X0146942Y0086604D03*
X0146942Y0090344D03*
X0146942Y0094085D03*
X0146942Y0044085D03*
X0146942Y0040344D03*
X0146942Y0036604D03*
X0136658Y0036604D03*
X0136658Y0044085D03*
X0136658Y0236604D03*
X0136658Y0244085D03*
X0146942Y0244085D03*
X0146942Y0240344D03*
X0146942Y0236604D03*
M02*
