G75*
%MOIN*%
%OFA0B0*%
%FSLAX25Y25*%
%IPPOS*%
%LPD*%
%AMOC8*
5,1,8,0,0,1.08239X$1,22.5*
%
%ADD10C,0.00000*%
%ADD11R,0.04724X0.02362*%
%ADD12R,0.05000X0.02100*%
%ADD13R,0.02100X0.05000*%
%ADD14R,0.05118X0.06299*%
%ADD15C,0.04400*%
%ADD16C,0.06000*%
%ADD17R,0.06299X0.05118*%
%ADD18R,0.05150X0.05150*%
%ADD19C,0.05150*%
%ADD20C,0.06600*%
%ADD21R,0.02362X0.04724*%
%ADD22R,0.03600X0.01600*%
%ADD23C,0.05600*%
%ADD24OC8,0.06000*%
%ADD25C,0.01600*%
%ADD26C,0.04000*%
%ADD27C,0.03562*%
%ADD28C,0.03200*%
%ADD29C,0.02400*%
%ADD30C,0.16598*%
%ADD31C,0.04000*%
D10*
X0001800Y0002844D02*
X0001800Y0302805D01*
X0245501Y0302805D01*
X0245501Y0002844D01*
X0001800Y0002844D01*
D11*
X0196658Y0016604D03*
X0196658Y0024085D03*
X0206942Y0024085D03*
X0206942Y0020344D03*
X0206942Y0016604D03*
X0211658Y0081604D03*
X0211658Y0085344D03*
X0211658Y0089085D03*
X0221942Y0089085D03*
X0221942Y0081604D03*
X0221942Y0121604D03*
X0221942Y0129085D03*
X0211658Y0129085D03*
X0211658Y0125344D03*
X0211658Y0121604D03*
X0211658Y0161604D03*
X0211658Y0165344D03*
X0211658Y0169085D03*
X0221942Y0169085D03*
X0221942Y0161604D03*
X0221942Y0201604D03*
X0221942Y0209085D03*
X0211658Y0209085D03*
X0211658Y0205344D03*
X0211658Y0201604D03*
X0211658Y0241604D03*
X0211658Y0245344D03*
X0211658Y0249085D03*
X0221942Y0249085D03*
X0221942Y0241604D03*
D12*
G36*
X0076535Y0068475D02*
X0080070Y0072010D01*
X0081555Y0070525D01*
X0078020Y0066990D01*
X0076535Y0068475D01*
G37*
G36*
X0074308Y0070702D02*
X0077843Y0074237D01*
X0079328Y0072752D01*
X0075793Y0069217D01*
X0074308Y0070702D01*
G37*
G36*
X0072081Y0072929D02*
X0075616Y0076464D01*
X0077101Y0074979D01*
X0073566Y0071444D01*
X0072081Y0072929D01*
G37*
G36*
X0069854Y0075156D02*
X0073389Y0078691D01*
X0074874Y0077206D01*
X0071339Y0073671D01*
X0069854Y0075156D01*
G37*
G36*
X0067627Y0077383D02*
X0071162Y0080918D01*
X0072647Y0079433D01*
X0069112Y0075898D01*
X0067627Y0077383D01*
G37*
G36*
X0065399Y0079610D02*
X0068934Y0083145D01*
X0070419Y0081660D01*
X0066884Y0078125D01*
X0065399Y0079610D01*
G37*
G36*
X0063172Y0081837D02*
X0066707Y0085372D01*
X0068192Y0083887D01*
X0064657Y0080352D01*
X0063172Y0081837D01*
G37*
G36*
X0060945Y0084064D02*
X0064480Y0087599D01*
X0065965Y0086114D01*
X0062430Y0082579D01*
X0060945Y0084064D01*
G37*
G36*
X0039272Y0057937D02*
X0042807Y0061472D01*
X0044292Y0059987D01*
X0040757Y0056452D01*
X0039272Y0057937D01*
G37*
G36*
X0037045Y0060164D02*
X0040580Y0063699D01*
X0042065Y0062214D01*
X0038530Y0058679D01*
X0037045Y0060164D01*
G37*
G36*
X0041499Y0055710D02*
X0045034Y0059245D01*
X0046519Y0057760D01*
X0042984Y0054225D01*
X0041499Y0055710D01*
G37*
G36*
X0043726Y0053483D02*
X0047261Y0057018D01*
X0048746Y0055533D01*
X0045211Y0051998D01*
X0043726Y0053483D01*
G37*
G36*
X0045953Y0051256D02*
X0049488Y0054791D01*
X0050973Y0053306D01*
X0047438Y0049771D01*
X0045953Y0051256D01*
G37*
G36*
X0048181Y0049029D02*
X0051716Y0052564D01*
X0053201Y0051079D01*
X0049666Y0047544D01*
X0048181Y0049029D01*
G37*
G36*
X0050408Y0046802D02*
X0053943Y0050337D01*
X0055428Y0048852D01*
X0051893Y0045317D01*
X0050408Y0046802D01*
G37*
G36*
X0052635Y0044574D02*
X0056170Y0048109D01*
X0057655Y0046624D01*
X0054120Y0043089D01*
X0052635Y0044574D01*
G37*
D13*
G36*
X0060945Y0046624D02*
X0062430Y0048109D01*
X0065965Y0044574D01*
X0064480Y0043089D01*
X0060945Y0046624D01*
G37*
G36*
X0063172Y0048852D02*
X0064657Y0050337D01*
X0068192Y0046802D01*
X0066707Y0045317D01*
X0063172Y0048852D01*
G37*
G36*
X0065399Y0051079D02*
X0066884Y0052564D01*
X0070419Y0049029D01*
X0068934Y0047544D01*
X0065399Y0051079D01*
G37*
G36*
X0067627Y0053306D02*
X0069112Y0054791D01*
X0072647Y0051256D01*
X0071162Y0049771D01*
X0067627Y0053306D01*
G37*
G36*
X0069854Y0055533D02*
X0071339Y0057018D01*
X0074874Y0053483D01*
X0073389Y0051998D01*
X0069854Y0055533D01*
G37*
G36*
X0072081Y0057760D02*
X0073566Y0059245D01*
X0077101Y0055710D01*
X0075616Y0054225D01*
X0072081Y0057760D01*
G37*
G36*
X0074308Y0059987D02*
X0075793Y0061472D01*
X0079328Y0057937D01*
X0077843Y0056452D01*
X0074308Y0059987D01*
G37*
G36*
X0076535Y0062214D02*
X0078020Y0063699D01*
X0081555Y0060164D01*
X0080070Y0058679D01*
X0076535Y0062214D01*
G37*
G36*
X0052635Y0086114D02*
X0054120Y0087599D01*
X0057655Y0084064D01*
X0056170Y0082579D01*
X0052635Y0086114D01*
G37*
G36*
X0050408Y0083887D02*
X0051893Y0085372D01*
X0055428Y0081837D01*
X0053943Y0080352D01*
X0050408Y0083887D01*
G37*
G36*
X0048181Y0081660D02*
X0049666Y0083145D01*
X0053201Y0079610D01*
X0051716Y0078125D01*
X0048181Y0081660D01*
G37*
G36*
X0045953Y0079433D02*
X0047438Y0080918D01*
X0050973Y0077383D01*
X0049488Y0075898D01*
X0045953Y0079433D01*
G37*
G36*
X0043726Y0077206D02*
X0045211Y0078691D01*
X0048746Y0075156D01*
X0047261Y0073671D01*
X0043726Y0077206D01*
G37*
G36*
X0041499Y0074979D02*
X0042984Y0076464D01*
X0046519Y0072929D01*
X0045034Y0071444D01*
X0041499Y0074979D01*
G37*
G36*
X0039272Y0072752D02*
X0040757Y0074237D01*
X0044292Y0070702D01*
X0042807Y0069217D01*
X0039272Y0072752D01*
G37*
G36*
X0037045Y0070525D02*
X0038530Y0072010D01*
X0042065Y0068475D01*
X0040580Y0066990D01*
X0037045Y0070525D01*
G37*
D14*
G36*
X0027501Y0071597D02*
X0031120Y0067978D01*
X0026667Y0063525D01*
X0023048Y0067144D01*
X0027501Y0071597D01*
G37*
G36*
X0030552Y0077144D02*
X0026933Y0073525D01*
X0022480Y0077978D01*
X0026099Y0081597D01*
X0030552Y0077144D01*
G37*
G36*
X0036120Y0082711D02*
X0032501Y0079092D01*
X0028048Y0083545D01*
X0031667Y0087164D01*
X0036120Y0082711D01*
G37*
G36*
X0021933Y0077164D02*
X0025552Y0073545D01*
X0021099Y0069092D01*
X0017480Y0072711D01*
X0021933Y0077164D01*
G37*
X0050363Y0097844D03*
X0058237Y0097844D03*
X0070363Y0097844D03*
X0078237Y0097844D03*
X0063237Y0030344D03*
X0055363Y0030344D03*
X0020737Y0177844D03*
X0012863Y0177844D03*
X0012863Y0227844D03*
X0020737Y0227844D03*
X0058060Y0190344D03*
X0065540Y0190344D03*
X0053237Y0275344D03*
X0045363Y0275344D03*
D15*
X0020768Y0161077D02*
X0016368Y0161077D01*
X0016368Y0141077D02*
X0020768Y0141077D01*
X0054300Y0110044D02*
X0054300Y0105644D01*
X0074300Y0105644D02*
X0074300Y0110044D01*
D16*
X0019800Y0105344D02*
X0013800Y0105344D01*
X0013800Y0095344D02*
X0019800Y0095344D01*
X0019800Y0085344D02*
X0013800Y0085344D01*
X0153800Y0075344D02*
X0159800Y0075344D01*
X0159800Y0065344D02*
X0153800Y0065344D01*
X0153800Y0055344D02*
X0159800Y0055344D01*
X0159800Y0045344D02*
X0153800Y0045344D01*
X0153800Y0095344D02*
X0159800Y0095344D01*
X0159800Y0105344D02*
X0153800Y0105344D01*
X0153800Y0115344D02*
X0159800Y0115344D01*
X0159800Y0125344D02*
X0153800Y0125344D01*
X0153800Y0145344D02*
X0159800Y0145344D01*
X0159800Y0155344D02*
X0153800Y0155344D01*
X0153800Y0165344D02*
X0159800Y0165344D01*
X0159800Y0175344D02*
X0153800Y0175344D01*
X0153800Y0195344D02*
X0159800Y0195344D01*
X0159800Y0205344D02*
X0153800Y0205344D01*
X0153800Y0215344D02*
X0159800Y0215344D01*
X0159800Y0225344D02*
X0153800Y0225344D01*
X0153800Y0245344D02*
X0159800Y0245344D01*
X0159800Y0255344D02*
X0153800Y0255344D01*
X0153800Y0265344D02*
X0159800Y0265344D01*
X0159800Y0275344D02*
X0153800Y0275344D01*
D17*
X0046800Y0136781D03*
X0046800Y0128907D03*
X0008568Y0137140D03*
X0008568Y0145014D03*
X0008568Y0157140D03*
X0008568Y0165014D03*
X0086800Y0084085D03*
X0086800Y0076604D03*
X0231800Y0029281D03*
X0231800Y0021407D03*
D18*
X0221800Y0030344D03*
D19*
X0221800Y0022470D03*
D20*
X0216800Y0047044D02*
X0216800Y0053644D01*
X0201800Y0053644D02*
X0201800Y0047044D01*
X0231800Y0047044D02*
X0231800Y0053644D01*
D21*
X0183040Y0045486D03*
X0179300Y0045486D03*
X0175560Y0045486D03*
X0175560Y0035203D03*
X0183040Y0035203D03*
D22*
X0060000Y0241594D03*
X0060000Y0244094D03*
X0060000Y0246594D03*
X0060000Y0249094D03*
X0060000Y0251594D03*
X0060000Y0254094D03*
X0060000Y0256594D03*
X0060000Y0259094D03*
X0038600Y0259094D03*
X0038600Y0256594D03*
X0038600Y0254094D03*
X0038600Y0251594D03*
X0038600Y0249094D03*
X0038600Y0246594D03*
X0038600Y0244094D03*
X0038600Y0241594D03*
D23*
X0074300Y0246407D03*
X0074300Y0254281D03*
D24*
X0024300Y0217844D03*
X0024300Y0207844D03*
X0024300Y0197844D03*
X0024300Y0187844D03*
X0014300Y0187844D03*
X0014300Y0197844D03*
X0014300Y0207844D03*
X0014300Y0217844D03*
D25*
X0018375Y0213151D02*
X0020838Y0213151D01*
X0021732Y0214044D02*
X0019300Y0211613D01*
X0018068Y0212844D01*
X0020500Y0215276D01*
X0020500Y0220413D01*
X0018083Y0222830D01*
X0018135Y0222882D01*
X0018622Y0224058D01*
X0018622Y0231631D01*
X0018135Y0232807D01*
X0017235Y0233707D01*
X0016059Y0234194D01*
X0009667Y0234194D01*
X0008491Y0233707D01*
X0007591Y0232807D01*
X0007104Y0231631D01*
X0007104Y0227742D01*
X0005000Y0225638D01*
X0005000Y0299605D01*
X0242301Y0299605D01*
X0242301Y0006044D01*
X0005000Y0006044D01*
X0005000Y0139255D01*
X0011278Y0139255D01*
X0011790Y0138018D01*
X0013309Y0136499D01*
X0015294Y0135677D01*
X0021842Y0135677D01*
X0023827Y0136499D01*
X0025346Y0138018D01*
X0026168Y0140003D01*
X0026168Y0142151D01*
X0025346Y0144136D01*
X0023827Y0145655D01*
X0021842Y0146477D01*
X0018825Y0146477D01*
X0018022Y0147280D01*
X0016897Y0148405D01*
X0016018Y0148769D01*
X0015426Y0149014D01*
X0014584Y0149014D01*
X0014430Y0149385D01*
X0013530Y0150286D01*
X0012354Y0150773D01*
X0005000Y0150773D01*
X0005000Y0151381D01*
X0012354Y0151381D01*
X0013530Y0151868D01*
X0014430Y0152768D01*
X0014584Y0153140D01*
X0015426Y0153140D01*
X0016662Y0153651D01*
X0016897Y0153749D01*
X0018022Y0154874D01*
X0018825Y0155677D01*
X0021842Y0155677D01*
X0023827Y0156499D01*
X0025346Y0158018D01*
X0026168Y0160003D01*
X0026168Y0162151D01*
X0025346Y0164136D01*
X0023827Y0165655D01*
X0021842Y0166477D01*
X0015294Y0166477D01*
X0013309Y0165655D01*
X0011790Y0164136D01*
X0011278Y0162899D01*
X0005000Y0162899D01*
X0005000Y0206488D01*
X0005909Y0205579D01*
X0007034Y0204453D01*
X0008504Y0203844D01*
X0009532Y0203844D01*
X0010532Y0202844D01*
X0008100Y0200413D01*
X0008100Y0195276D01*
X0010532Y0192844D01*
X0008100Y0190413D01*
X0008100Y0185276D01*
X0011732Y0181644D01*
X0014843Y0181644D01*
X0014978Y0181510D01*
X0014978Y0174058D01*
X0015465Y0172882D01*
X0016365Y0171982D01*
X0017541Y0171495D01*
X0023933Y0171495D01*
X0025109Y0171982D01*
X0026009Y0172882D01*
X0026496Y0174058D01*
X0026496Y0181631D01*
X0026490Y0181644D01*
X0026868Y0181644D01*
X0030500Y0185276D01*
X0030500Y0190413D01*
X0028068Y0192844D01*
X0030500Y0195276D01*
X0030500Y0200413D01*
X0028068Y0202844D01*
X0030500Y0205276D01*
X0030500Y0210413D01*
X0026868Y0214044D01*
X0021732Y0214044D01*
X0019973Y0214749D02*
X0038048Y0214749D01*
X0036450Y0213151D02*
X0027762Y0213151D01*
X0029360Y0211552D02*
X0035471Y0211552D01*
X0035300Y0211140D02*
X0035300Y0202049D01*
X0035909Y0200579D01*
X0036819Y0199669D01*
X0036819Y0199354D01*
X0037577Y0197523D01*
X0038978Y0196122D01*
X0040809Y0195363D01*
X0042791Y0195363D01*
X0044622Y0196122D01*
X0046023Y0197523D01*
X0046781Y0199354D01*
X0046781Y0200981D01*
X0047122Y0201122D01*
X0048523Y0202523D01*
X0048664Y0202863D01*
X0050291Y0202863D01*
X0052122Y0203622D01*
X0052344Y0203844D01*
X0057596Y0203844D01*
X0059066Y0204453D01*
X0064976Y0210363D01*
X0065291Y0210363D01*
X0067122Y0211122D01*
X0068523Y0212523D01*
X0069281Y0214354D01*
X0069281Y0216335D01*
X0068523Y0218166D01*
X0067122Y0219567D01*
X0066781Y0219708D01*
X0066781Y0221335D01*
X0066023Y0223166D01*
X0064622Y0224567D01*
X0062791Y0225326D01*
X0061164Y0225326D01*
X0061023Y0225666D01*
X0059622Y0227067D01*
X0057791Y0227826D01*
X0055809Y0227826D01*
X0053978Y0227067D01*
X0052577Y0225666D01*
X0051819Y0223835D01*
X0051819Y0223520D01*
X0050143Y0221844D01*
X0046004Y0221844D01*
X0044534Y0221236D01*
X0043409Y0220110D01*
X0035909Y0212610D01*
X0035300Y0211140D01*
X0035300Y0209954D02*
X0030500Y0209954D01*
X0030500Y0208355D02*
X0035300Y0208355D01*
X0035300Y0206757D02*
X0030500Y0206757D01*
X0030382Y0205158D02*
X0035300Y0205158D01*
X0035300Y0203560D02*
X0028784Y0203560D01*
X0028951Y0201961D02*
X0035336Y0201961D01*
X0036125Y0200363D02*
X0030500Y0200363D01*
X0030500Y0198764D02*
X0037063Y0198764D01*
X0037934Y0197166D02*
X0030500Y0197166D01*
X0030500Y0195567D02*
X0040317Y0195567D01*
X0043283Y0195567D02*
X0053049Y0195567D01*
X0052788Y0195307D02*
X0052301Y0194131D01*
X0052301Y0189002D01*
X0052034Y0188736D01*
X0050909Y0187610D01*
X0050300Y0186140D01*
X0050300Y0178889D01*
X0049622Y0179567D01*
X0047791Y0180326D01*
X0045809Y0180326D01*
X0043978Y0179567D01*
X0042577Y0178166D01*
X0042436Y0177826D01*
X0040809Y0177826D01*
X0038978Y0177067D01*
X0037577Y0175666D01*
X0036819Y0173835D01*
X0036819Y0171854D01*
X0037577Y0170023D01*
X0037800Y0169800D01*
X0037800Y0165001D01*
X0035800Y0167001D01*
X0035800Y0172300D01*
X0036023Y0172523D01*
X0036781Y0174354D01*
X0036781Y0176335D01*
X0036023Y0178166D01*
X0034622Y0179567D01*
X0032791Y0180326D01*
X0030809Y0180326D01*
X0028978Y0179567D01*
X0027577Y0178166D01*
X0026819Y0176335D01*
X0026819Y0174354D01*
X0027577Y0172523D01*
X0027800Y0172300D01*
X0027800Y0164549D01*
X0028409Y0163079D01*
X0044291Y0147197D01*
X0043978Y0147067D01*
X0042577Y0145666D01*
X0041819Y0143835D01*
X0041819Y0142035D01*
X0040938Y0141153D01*
X0040450Y0139977D01*
X0040450Y0133586D01*
X0040938Y0132410D01*
X0041838Y0131510D01*
X0043014Y0131022D01*
X0050586Y0131022D01*
X0051762Y0131510D01*
X0052662Y0132410D01*
X0053150Y0133586D01*
X0053150Y0135838D01*
X0055300Y0133688D01*
X0055300Y0123389D01*
X0055077Y0123166D01*
X0054319Y0121335D01*
X0054319Y0119354D01*
X0055077Y0117523D01*
X0056478Y0116122D01*
X0058309Y0115363D01*
X0060291Y0115363D01*
X0062122Y0116122D01*
X0063523Y0117523D01*
X0064281Y0119354D01*
X0064281Y0121335D01*
X0063523Y0123166D01*
X0063300Y0123389D01*
X0063300Y0132867D01*
X0063309Y0132863D01*
X0063624Y0132863D01*
X0067800Y0128688D01*
X0067800Y0125889D01*
X0067577Y0125666D01*
X0066819Y0123835D01*
X0066819Y0121854D01*
X0067577Y0120023D01*
X0068978Y0118622D01*
X0070809Y0117863D01*
X0072791Y0117863D01*
X0074622Y0118622D01*
X0076023Y0120023D01*
X0076781Y0121854D01*
X0076781Y0123835D01*
X0076023Y0125666D01*
X0075800Y0125889D01*
X0075800Y0128188D01*
X0077800Y0126188D01*
X0077800Y0125889D01*
X0077577Y0125666D01*
X0076819Y0123835D01*
X0076819Y0121854D01*
X0077577Y0120023D01*
X0078978Y0118622D01*
X0080809Y0117863D01*
X0082791Y0117863D01*
X0084622Y0118622D01*
X0086023Y0120023D01*
X0086781Y0121854D01*
X0086781Y0123835D01*
X0086165Y0125323D01*
X0106819Y0104669D01*
X0106819Y0104354D01*
X0107577Y0102523D01*
X0108978Y0101122D01*
X0110809Y0100363D01*
X0112791Y0100363D01*
X0114622Y0101122D01*
X0116023Y0102523D01*
X0116152Y0102835D01*
X0117800Y0101188D01*
X0117800Y0088389D01*
X0117577Y0088166D01*
X0116819Y0086335D01*
X0116819Y0084354D01*
X0116823Y0084344D01*
X0104844Y0084344D01*
X0104622Y0084567D01*
X0102791Y0085326D01*
X0100809Y0085326D01*
X0098978Y0084567D01*
X0097577Y0083166D01*
X0096819Y0081335D01*
X0096819Y0079354D01*
X0097577Y0077523D01*
X0098978Y0076122D01*
X0100809Y0075363D01*
X0102791Y0075363D01*
X0104622Y0076122D01*
X0104844Y0076344D01*
X0127596Y0076344D01*
X0129066Y0076953D01*
X0130191Y0078079D01*
X0132476Y0080363D01*
X0132791Y0080363D01*
X0134622Y0081122D01*
X0136023Y0082523D01*
X0136781Y0084354D01*
X0136781Y0086335D01*
X0136023Y0088166D01*
X0135800Y0088389D01*
X0135800Y0132300D01*
X0136023Y0132523D01*
X0136781Y0134354D01*
X0136781Y0136335D01*
X0136023Y0138166D01*
X0135800Y0138389D01*
X0135800Y0182300D01*
X0136023Y0182523D01*
X0136781Y0184354D01*
X0136781Y0186335D01*
X0136023Y0188166D01*
X0135800Y0188389D01*
X0135800Y0232300D01*
X0136023Y0232523D01*
X0136781Y0234354D01*
X0136781Y0236335D01*
X0136023Y0238166D01*
X0134622Y0239567D01*
X0132791Y0240326D01*
X0130809Y0240326D01*
X0128978Y0239567D01*
X0127577Y0238166D01*
X0126819Y0236335D01*
X0126819Y0234354D01*
X0127577Y0232523D01*
X0127800Y0232300D01*
X0127800Y0188389D01*
X0127577Y0188166D01*
X0126819Y0186335D01*
X0126819Y0184354D01*
X0127577Y0182523D01*
X0127800Y0182300D01*
X0127800Y0138389D01*
X0127577Y0138166D01*
X0126819Y0136335D01*
X0126819Y0134354D01*
X0127577Y0132523D01*
X0127800Y0132300D01*
X0127800Y0088389D01*
X0127577Y0088166D01*
X0126819Y0086335D01*
X0126819Y0086020D01*
X0126781Y0085982D01*
X0126781Y0086335D01*
X0126023Y0088166D01*
X0125800Y0088389D01*
X0125800Y0103640D01*
X0125191Y0105110D01*
X0124066Y0106236D01*
X0124066Y0106236D01*
X0114938Y0115363D01*
X0115291Y0115363D01*
X0117122Y0116122D01*
X0118523Y0117523D01*
X0119281Y0119354D01*
X0119281Y0121335D01*
X0118523Y0123166D01*
X0117122Y0124567D01*
X0115291Y0125326D01*
X0114976Y0125326D01*
X0106809Y0133492D01*
X0107122Y0133622D01*
X0107344Y0133844D01*
X0112643Y0133844D01*
X0114319Y0132169D01*
X0114319Y0131854D01*
X0115077Y0130023D01*
X0116478Y0128622D01*
X0118309Y0127863D01*
X0120291Y0127863D01*
X0122122Y0128622D01*
X0123523Y0130023D01*
X0124281Y0131854D01*
X0124281Y0133835D01*
X0123523Y0135666D01*
X0122122Y0137067D01*
X0120291Y0137826D01*
X0119976Y0137826D01*
X0116566Y0141236D01*
X0116058Y0141446D01*
X0119976Y0145363D01*
X0120291Y0145363D01*
X0122122Y0146122D01*
X0123523Y0147523D01*
X0124281Y0149354D01*
X0124281Y0151335D01*
X0123523Y0153166D01*
X0122122Y0154567D01*
X0120291Y0155326D01*
X0119938Y0155326D01*
X0122476Y0157863D01*
X0122791Y0157863D01*
X0124622Y0158622D01*
X0126023Y0160023D01*
X0126781Y0161854D01*
X0126781Y0163835D01*
X0126023Y0165666D01*
X0124622Y0167067D01*
X0122791Y0167826D01*
X0121781Y0167826D01*
X0121781Y0168835D01*
X0121023Y0170666D01*
X0119622Y0172067D01*
X0117791Y0172826D01*
X0115809Y0172826D01*
X0113978Y0172067D01*
X0113756Y0171844D01*
X0108504Y0171844D01*
X0107034Y0171236D01*
X0105909Y0170110D01*
X0097643Y0161844D01*
X0094844Y0161844D01*
X0094622Y0162067D01*
X0092791Y0162826D01*
X0090809Y0162826D01*
X0088978Y0162067D01*
X0087577Y0160666D01*
X0086819Y0158835D01*
X0086819Y0158482D01*
X0076809Y0168492D01*
X0077122Y0168622D01*
X0077344Y0168844D01*
X0100096Y0168844D01*
X0101566Y0169453D01*
X0109066Y0176953D01*
X0110191Y0178079D01*
X0110800Y0179549D01*
X0110800Y0193640D01*
X0110191Y0195110D01*
X0105800Y0199501D01*
X0105800Y0204800D01*
X0106023Y0205023D01*
X0106781Y0206854D01*
X0106781Y0208835D01*
X0106023Y0210666D01*
X0104622Y0212067D01*
X0102791Y0212826D01*
X0101164Y0212826D01*
X0101023Y0213166D01*
X0099622Y0214567D01*
X0097791Y0215326D01*
X0097438Y0215326D01*
X0111566Y0229453D01*
X0112691Y0230579D01*
X0113300Y0232049D01*
X0113300Y0246188D01*
X0117800Y0250688D01*
X0117800Y0235889D01*
X0117577Y0235666D01*
X0116819Y0233835D01*
X0116819Y0231854D01*
X0117577Y0230023D01*
X0118978Y0228622D01*
X0120809Y0227863D01*
X0122791Y0227863D01*
X0124622Y0228622D01*
X0126023Y0230023D01*
X0126781Y0231854D01*
X0126781Y0233835D01*
X0126023Y0235666D01*
X0125800Y0235889D01*
X0125800Y0251188D01*
X0147929Y0273317D01*
X0148544Y0271832D01*
X0150032Y0270344D01*
X0148544Y0268856D01*
X0147600Y0266578D01*
X0147600Y0264111D01*
X0148544Y0261832D01*
X0150032Y0260344D01*
X0148544Y0258856D01*
X0147600Y0256578D01*
X0147600Y0254111D01*
X0148544Y0251832D01*
X0150032Y0250344D01*
X0148544Y0248856D01*
X0147600Y0246578D01*
X0147600Y0244111D01*
X0148544Y0241832D01*
X0150288Y0240088D01*
X0152567Y0239144D01*
X0161033Y0239144D01*
X0163312Y0240088D01*
X0165056Y0241832D01*
X0166000Y0244111D01*
X0166000Y0245806D01*
X0167069Y0245363D01*
X0169051Y0245363D01*
X0170881Y0246122D01*
X0172283Y0247523D01*
X0173041Y0249354D01*
X0173041Y0251335D01*
X0172283Y0253166D01*
X0172060Y0253389D01*
X0172060Y0277380D01*
X0171451Y0278850D01*
X0170326Y0279976D01*
X0164066Y0286236D01*
X0162596Y0286844D01*
X0151004Y0286844D01*
X0149534Y0286236D01*
X0148409Y0285110D01*
X0133652Y0270354D01*
X0133523Y0270666D01*
X0132122Y0272067D01*
X0130291Y0272826D01*
X0128309Y0272826D01*
X0126478Y0272067D01*
X0125077Y0270666D01*
X0124319Y0268835D01*
X0124319Y0268520D01*
X0105909Y0250110D01*
X0105300Y0248640D01*
X0105300Y0243889D01*
X0104622Y0244567D01*
X0102791Y0245326D01*
X0100809Y0245326D01*
X0098978Y0244567D01*
X0097577Y0243166D01*
X0096819Y0241335D01*
X0096819Y0241020D01*
X0095800Y0240001D01*
X0095800Y0243688D01*
X0099976Y0247863D01*
X0100291Y0247863D01*
X0102122Y0248622D01*
X0103523Y0250023D01*
X0104281Y0251854D01*
X0104281Y0253835D01*
X0103523Y0255666D01*
X0102122Y0257067D01*
X0101781Y0257208D01*
X0101781Y0258835D01*
X0101023Y0260666D01*
X0099622Y0262067D01*
X0097791Y0262826D01*
X0096164Y0262826D01*
X0096023Y0263166D01*
X0094622Y0264567D01*
X0092791Y0265326D01*
X0090809Y0265326D01*
X0088978Y0264567D01*
X0087577Y0263166D01*
X0086819Y0261335D01*
X0086819Y0261020D01*
X0080300Y0254501D01*
X0080300Y0255475D01*
X0079387Y0257680D01*
X0077699Y0259368D01*
X0075493Y0260281D01*
X0073107Y0260281D01*
X0070924Y0259377D01*
X0067816Y0262486D01*
X0066346Y0263094D01*
X0057563Y0263094D01*
X0056387Y0262607D01*
X0055487Y0261707D01*
X0055000Y0260531D01*
X0055000Y0258094D01*
X0052254Y0258094D01*
X0050784Y0257486D01*
X0048300Y0255001D01*
X0048300Y0261140D01*
X0047691Y0262610D01*
X0046566Y0263736D01*
X0045240Y0265062D01*
X0049093Y0268915D01*
X0049244Y0269279D01*
X0049735Y0269482D01*
X0050635Y0270382D01*
X0051122Y0271558D01*
X0051122Y0279131D01*
X0050635Y0280307D01*
X0049735Y0281207D01*
X0048559Y0281694D01*
X0042167Y0281694D01*
X0040991Y0281207D01*
X0040091Y0280307D01*
X0039604Y0279131D01*
X0039604Y0271871D01*
X0037881Y0270148D01*
X0036478Y0269567D01*
X0035077Y0268166D01*
X0034936Y0267826D01*
X0033309Y0267826D01*
X0031478Y0267067D01*
X0030077Y0265666D01*
X0029319Y0263835D01*
X0029319Y0261854D01*
X0030077Y0260023D01*
X0030300Y0259800D01*
X0030300Y0254549D01*
X0030909Y0253079D01*
X0032034Y0251953D01*
X0033284Y0250703D01*
X0033615Y0250567D01*
X0033600Y0250531D01*
X0033600Y0240158D01*
X0034087Y0238982D01*
X0034600Y0238469D01*
X0034600Y0237014D01*
X0034319Y0236335D01*
X0034319Y0234354D01*
X0035077Y0232523D01*
X0036478Y0231122D01*
X0038309Y0230363D01*
X0040291Y0230363D01*
X0042122Y0231122D01*
X0043523Y0232523D01*
X0044281Y0234354D01*
X0044281Y0236335D01*
X0043523Y0238166D01*
X0042910Y0238779D01*
X0043113Y0238982D01*
X0043600Y0240158D01*
X0043600Y0241344D01*
X0045096Y0241344D01*
X0045445Y0241489D01*
X0045300Y0241140D01*
X0045300Y0238389D01*
X0045077Y0238166D01*
X0044319Y0236335D01*
X0044319Y0234354D01*
X0045077Y0232523D01*
X0046478Y0231122D01*
X0048309Y0230363D01*
X0050291Y0230363D01*
X0052122Y0231122D01*
X0053523Y0232523D01*
X0054281Y0234354D01*
X0054281Y0236335D01*
X0053523Y0238166D01*
X0053300Y0238389D01*
X0053300Y0238688D01*
X0054707Y0240094D01*
X0055026Y0240094D01*
X0055487Y0238982D01*
X0055690Y0238779D01*
X0055077Y0238166D01*
X0054319Y0236335D01*
X0054319Y0234354D01*
X0055077Y0232523D01*
X0056478Y0231122D01*
X0058309Y0230363D01*
X0060291Y0230363D01*
X0062122Y0231122D01*
X0063523Y0232523D01*
X0064281Y0234354D01*
X0064281Y0236335D01*
X0064000Y0237014D01*
X0064000Y0238469D01*
X0064513Y0238982D01*
X0065000Y0240158D01*
X0065000Y0246488D01*
X0067346Y0244142D01*
X0067346Y0244142D01*
X0068471Y0243016D01*
X0069725Y0242497D01*
X0070901Y0241321D01*
X0072563Y0240632D01*
X0071819Y0238835D01*
X0071819Y0236854D01*
X0072577Y0235023D01*
X0073978Y0233622D01*
X0075809Y0232863D01*
X0077791Y0232863D01*
X0079622Y0233622D01*
X0080550Y0234550D01*
X0081478Y0233622D01*
X0081819Y0233481D01*
X0081819Y0231854D01*
X0082577Y0230023D01*
X0083978Y0228622D01*
X0084291Y0228492D01*
X0079534Y0223736D01*
X0078409Y0222610D01*
X0077800Y0221140D01*
X0077800Y0192001D01*
X0068624Y0182826D01*
X0068309Y0182826D01*
X0066478Y0182067D01*
X0065077Y0180666D01*
X0064936Y0180326D01*
X0063309Y0180326D01*
X0061478Y0179567D01*
X0060077Y0178166D01*
X0059319Y0176335D01*
X0059319Y0175982D01*
X0058300Y0177001D01*
X0058300Y0183688D01*
X0058607Y0183995D01*
X0061255Y0183995D01*
X0062432Y0184482D01*
X0063332Y0185382D01*
X0063819Y0186558D01*
X0063819Y0194131D01*
X0063332Y0195307D01*
X0062432Y0196207D01*
X0061255Y0196694D01*
X0054864Y0196694D01*
X0053688Y0196207D01*
X0052788Y0195307D01*
X0052301Y0193969D02*
X0029192Y0193969D01*
X0028542Y0192370D02*
X0052301Y0192370D01*
X0052301Y0190772D02*
X0030141Y0190772D01*
X0030500Y0189173D02*
X0052301Y0189173D01*
X0050894Y0187575D02*
X0030500Y0187575D01*
X0030500Y0185976D02*
X0050300Y0185976D01*
X0050300Y0184378D02*
X0029601Y0184378D01*
X0028003Y0182779D02*
X0050300Y0182779D01*
X0050300Y0181181D02*
X0026496Y0181181D01*
X0026496Y0179582D02*
X0029015Y0179582D01*
X0027502Y0177984D02*
X0026496Y0177984D01*
X0026496Y0176385D02*
X0026840Y0176385D01*
X0026819Y0174787D02*
X0026496Y0174787D01*
X0026136Y0173188D02*
X0027302Y0173188D01*
X0027800Y0171590D02*
X0024161Y0171590D01*
X0027800Y0169991D02*
X0005000Y0169991D01*
X0005000Y0168393D02*
X0027800Y0168393D01*
X0027800Y0166794D02*
X0005000Y0166794D01*
X0005000Y0165196D02*
X0012850Y0165196D01*
X0011567Y0163597D02*
X0005000Y0163597D01*
X0008568Y0157140D02*
X0014631Y0157140D01*
X0018568Y0161077D01*
X0018752Y0155605D02*
X0035883Y0155605D01*
X0034285Y0157203D02*
X0024531Y0157203D01*
X0025670Y0158802D02*
X0032686Y0158802D01*
X0031088Y0160400D02*
X0026168Y0160400D01*
X0026168Y0161999D02*
X0029489Y0161999D01*
X0028194Y0163597D02*
X0025569Y0163597D01*
X0024286Y0165196D02*
X0027800Y0165196D01*
X0031800Y0165344D02*
X0054300Y0142844D01*
X0054300Y0140344D01*
X0059300Y0135344D01*
X0059300Y0120344D01*
X0055360Y0117240D02*
X0005000Y0117240D01*
X0005000Y0115642D02*
X0057637Y0115642D01*
X0057359Y0114622D02*
X0055374Y0115444D01*
X0053226Y0115444D01*
X0051241Y0114622D01*
X0049722Y0113103D01*
X0048900Y0111119D01*
X0048900Y0104570D01*
X0049722Y0102586D01*
X0051241Y0101067D01*
X0052478Y0100554D01*
X0052478Y0094058D01*
X0052965Y0092882D01*
X0053865Y0091982D01*
X0054237Y0091828D01*
X0054237Y0090800D01*
X0053483Y0090800D01*
X0052307Y0090313D01*
X0051716Y0089721D01*
X0051327Y0090110D01*
X0051327Y0090110D01*
X0051201Y0090236D01*
X0051023Y0090666D01*
X0049622Y0092067D01*
X0047791Y0092826D01*
X0045809Y0092826D01*
X0043978Y0092067D01*
X0042577Y0090666D01*
X0041819Y0088835D01*
X0041819Y0086854D01*
X0042577Y0085023D01*
X0043978Y0083622D01*
X0045136Y0083142D01*
X0043240Y0081246D01*
X0042987Y0080633D01*
X0042384Y0081236D01*
X0041506Y0081599D01*
X0040914Y0081844D01*
X0039844Y0081844D01*
X0039622Y0082067D01*
X0039321Y0082192D01*
X0039321Y0083347D01*
X0038833Y0084523D01*
X0033479Y0089878D01*
X0032303Y0090365D01*
X0031030Y0090365D01*
X0029854Y0089878D01*
X0026000Y0086024D01*
X0026000Y0086578D01*
X0025056Y0088856D01*
X0023312Y0090601D01*
X0021033Y0091544D01*
X0012567Y0091544D01*
X0010288Y0090601D01*
X0008544Y0088856D01*
X0007600Y0086578D01*
X0007600Y0084111D01*
X0008544Y0081832D01*
X0010288Y0080088D01*
X0012567Y0079144D01*
X0021033Y0079144D01*
X0023312Y0080088D01*
X0025056Y0081832D01*
X0025175Y0082119D01*
X0025334Y0081733D01*
X0030689Y0076379D01*
X0031865Y0075892D01*
X0032217Y0075892D01*
X0032577Y0075023D01*
X0033978Y0073622D01*
X0035136Y0073142D01*
X0034332Y0072338D01*
X0033845Y0071162D01*
X0033845Y0070326D01*
X0033309Y0070326D01*
X0033302Y0070322D01*
X0029314Y0074310D01*
X0028138Y0074797D01*
X0026865Y0074797D01*
X0025689Y0074310D01*
X0020334Y0068956D01*
X0020305Y0068884D01*
X0019622Y0069567D01*
X0017791Y0070326D01*
X0015809Y0070326D01*
X0013978Y0069567D01*
X0012577Y0068166D01*
X0011819Y0066335D01*
X0011819Y0064354D01*
X0012577Y0062523D01*
X0013978Y0061122D01*
X0015809Y0060363D01*
X0016124Y0060363D01*
X0034534Y0041953D01*
X0036004Y0041344D01*
X0042323Y0041344D01*
X0043793Y0041953D01*
X0044918Y0043079D01*
X0047261Y0045422D01*
X0047853Y0044831D01*
X0050080Y0042604D01*
X0052307Y0040376D01*
X0053483Y0039889D01*
X0054756Y0039889D01*
X0055932Y0040376D01*
X0059300Y0043744D01*
X0062668Y0040376D01*
X0063380Y0040081D01*
X0062034Y0038736D01*
X0060909Y0037610D01*
X0060529Y0036694D01*
X0060041Y0036694D01*
X0058865Y0036207D01*
X0057965Y0035307D01*
X0057478Y0034131D01*
X0057478Y0026558D01*
X0057965Y0025382D01*
X0058865Y0024482D01*
X0060041Y0023995D01*
X0066433Y0023995D01*
X0067609Y0024482D01*
X0068509Y0025382D01*
X0068996Y0026558D01*
X0068996Y0034131D01*
X0068922Y0034310D01*
X0069976Y0035363D01*
X0070291Y0035363D01*
X0072122Y0036122D01*
X0073523Y0037523D01*
X0074281Y0039354D01*
X0074281Y0041335D01*
X0073523Y0043166D01*
X0072122Y0044567D01*
X0070964Y0045047D01*
X0073132Y0047216D01*
X0075360Y0049443D01*
X0075793Y0049876D01*
X0077590Y0048079D01*
X0078716Y0046953D01*
X0080186Y0046344D01*
X0081256Y0046344D01*
X0081478Y0046122D01*
X0083309Y0045363D01*
X0085291Y0045363D01*
X0087122Y0046122D01*
X0088523Y0047523D01*
X0089281Y0049354D01*
X0089281Y0051335D01*
X0088523Y0053166D01*
X0087594Y0054094D01*
X0088523Y0055023D01*
X0089281Y0056854D01*
X0089281Y0058835D01*
X0088523Y0060666D01*
X0087122Y0062067D01*
X0086022Y0062523D01*
X0086023Y0062523D01*
X0086781Y0064354D01*
X0086781Y0066335D01*
X0086023Y0068166D01*
X0084622Y0069567D01*
X0084755Y0069888D01*
X0084755Y0070845D01*
X0090586Y0070845D01*
X0091762Y0071332D01*
X0092662Y0072233D01*
X0093150Y0073409D01*
X0093150Y0079800D01*
X0092924Y0080344D01*
X0093150Y0080889D01*
X0093150Y0087280D01*
X0092662Y0088456D01*
X0091762Y0089357D01*
X0090586Y0089844D01*
X0083014Y0089844D01*
X0081838Y0089357D01*
X0080938Y0088456D01*
X0080784Y0088085D01*
X0075017Y0088085D01*
X0074363Y0087814D01*
X0074363Y0091828D01*
X0074735Y0091982D01*
X0075635Y0092882D01*
X0076122Y0094058D01*
X0076122Y0100554D01*
X0077359Y0101067D01*
X0078878Y0102586D01*
X0079700Y0104570D01*
X0079700Y0111119D01*
X0078878Y0113103D01*
X0077359Y0114622D01*
X0075374Y0115444D01*
X0073226Y0115444D01*
X0071241Y0114622D01*
X0069722Y0113103D01*
X0068900Y0111119D01*
X0068900Y0108101D01*
X0068097Y0107299D01*
X0066972Y0106173D01*
X0066875Y0105938D01*
X0066363Y0104703D01*
X0066363Y0103861D01*
X0065991Y0103707D01*
X0065091Y0102807D01*
X0064604Y0101631D01*
X0064604Y0094058D01*
X0065091Y0092882D01*
X0065991Y0091982D01*
X0066363Y0091828D01*
X0066363Y0090243D01*
X0066293Y0090313D01*
X0065117Y0090800D01*
X0063844Y0090800D01*
X0063531Y0090670D01*
X0062333Y0091868D01*
X0062609Y0091982D01*
X0063509Y0092882D01*
X0063996Y0094058D01*
X0063996Y0101631D01*
X0063509Y0102807D01*
X0062609Y0103707D01*
X0062237Y0103861D01*
X0062237Y0104703D01*
X0061992Y0105295D01*
X0061628Y0106173D01*
X0060503Y0107299D01*
X0059700Y0108101D01*
X0059700Y0111119D01*
X0058878Y0113103D01*
X0057359Y0114622D01*
X0057938Y0114043D02*
X0070662Y0114043D01*
X0069449Y0112445D02*
X0059151Y0112445D01*
X0059700Y0110846D02*
X0068900Y0110846D01*
X0068900Y0109248D02*
X0059700Y0109248D01*
X0060152Y0107649D02*
X0068448Y0107649D01*
X0068097Y0107299D02*
X0068097Y0107299D01*
X0066972Y0106173D02*
X0066972Y0106173D01*
X0066972Y0106173D01*
X0066921Y0106051D02*
X0061679Y0106051D01*
X0062237Y0104452D02*
X0066363Y0104452D01*
X0065138Y0102854D02*
X0063462Y0102854D01*
X0063996Y0101255D02*
X0064604Y0101255D01*
X0064604Y0099657D02*
X0063996Y0099657D01*
X0063996Y0098058D02*
X0064604Y0098058D01*
X0064604Y0096460D02*
X0063996Y0096460D01*
X0063996Y0094861D02*
X0064604Y0094861D01*
X0064934Y0093263D02*
X0063666Y0093263D01*
X0062537Y0091664D02*
X0066363Y0091664D01*
X0070363Y0087543D02*
X0065682Y0082862D01*
X0067909Y0080635D02*
X0078237Y0090963D01*
X0078237Y0097844D01*
X0076122Y0098058D02*
X0117800Y0098058D01*
X0117800Y0096460D02*
X0076122Y0096460D01*
X0076122Y0094861D02*
X0117800Y0094861D01*
X0117800Y0093263D02*
X0075792Y0093263D01*
X0074363Y0091664D02*
X0117800Y0091664D01*
X0117800Y0090066D02*
X0074363Y0090066D01*
X0074363Y0088467D02*
X0080948Y0088467D01*
X0075813Y0084085D02*
X0086800Y0084085D01*
X0086800Y0076604D02*
X0077241Y0076604D01*
X0074591Y0073954D01*
X0079045Y0069500D02*
X0080700Y0067844D01*
X0081800Y0065344D01*
X0079045Y0061189D02*
X0082390Y0057844D01*
X0084300Y0057844D01*
X0088925Y0059694D02*
X0149381Y0059694D01*
X0150032Y0060344D02*
X0148544Y0058856D01*
X0147600Y0056578D01*
X0147600Y0054344D01*
X0122344Y0054344D01*
X0122122Y0054567D01*
X0120291Y0055326D01*
X0118309Y0055326D01*
X0116478Y0054567D01*
X0115077Y0053166D01*
X0114319Y0051335D01*
X0114319Y0049354D01*
X0115077Y0047523D01*
X0116478Y0046122D01*
X0118309Y0045363D01*
X0120291Y0045363D01*
X0122122Y0046122D01*
X0122344Y0046344D01*
X0147600Y0046344D01*
X0147600Y0044111D01*
X0148544Y0041832D01*
X0150288Y0040088D01*
X0152567Y0039144D01*
X0161033Y0039144D01*
X0163312Y0040088D01*
X0165056Y0041832D01*
X0165671Y0043317D01*
X0165909Y0043079D01*
X0165909Y0043079D01*
X0167034Y0041953D01*
X0168504Y0041344D01*
X0171652Y0041344D01*
X0171666Y0041311D01*
X0172566Y0040411D01*
X0172727Y0040344D01*
X0172566Y0040278D01*
X0171666Y0039378D01*
X0171179Y0038201D01*
X0171179Y0037789D01*
X0171023Y0038166D01*
X0169622Y0039567D01*
X0167791Y0040326D01*
X0165809Y0040326D01*
X0163978Y0039567D01*
X0162577Y0038166D01*
X0161819Y0036335D01*
X0161819Y0034354D01*
X0162000Y0033916D01*
X0162000Y0031772D01*
X0161819Y0031335D01*
X0161819Y0029354D01*
X0162000Y0028916D01*
X0162000Y0020326D01*
X0160809Y0020326D01*
X0158978Y0019567D01*
X0157577Y0018166D01*
X0156819Y0016335D01*
X0156819Y0014354D01*
X0157577Y0012523D01*
X0158978Y0011122D01*
X0160809Y0010363D01*
X0162791Y0010363D01*
X0163228Y0010544D01*
X0165372Y0010544D01*
X0165809Y0010363D01*
X0167791Y0010363D01*
X0169622Y0011122D01*
X0171023Y0012523D01*
X0171781Y0014354D01*
X0171781Y0016335D01*
X0171600Y0016773D01*
X0171600Y0023571D01*
X0173309Y0022863D01*
X0175291Y0022863D01*
X0177122Y0023622D01*
X0178523Y0025023D01*
X0179281Y0026854D01*
X0179281Y0027614D01*
X0179553Y0028258D01*
X0179554Y0028274D01*
X0179560Y0028289D01*
X0179560Y0029069D01*
X0179566Y0029849D01*
X0179560Y0029864D01*
X0179560Y0030614D01*
X0180046Y0030128D01*
X0181223Y0029641D01*
X0184858Y0029641D01*
X0186034Y0030128D01*
X0186934Y0031028D01*
X0187421Y0032204D01*
X0187421Y0032900D01*
X0187577Y0032523D01*
X0188978Y0031122D01*
X0190381Y0030541D01*
X0192258Y0028664D01*
X0192258Y0027753D01*
X0191583Y0027078D01*
X0191096Y0025902D01*
X0191096Y0022267D01*
X0191583Y0021091D01*
X0192330Y0020344D01*
X0191730Y0019744D01*
X0189194Y0019744D01*
X0187791Y0020326D01*
X0185809Y0020326D01*
X0183978Y0019567D01*
X0182577Y0018166D01*
X0181819Y0016335D01*
X0181819Y0014354D01*
X0182577Y0012523D01*
X0183978Y0011122D01*
X0185809Y0010363D01*
X0187791Y0010363D01*
X0189194Y0010944D01*
X0196274Y0010944D01*
X0197891Y0011614D01*
X0198500Y0012223D01*
X0199657Y0012223D01*
X0200833Y0012710D01*
X0201733Y0013611D01*
X0201800Y0013772D01*
X0201867Y0013611D01*
X0202767Y0012710D01*
X0203943Y0012223D01*
X0206021Y0012223D01*
X0206067Y0012204D01*
X0213935Y0012204D01*
X0215552Y0012874D01*
X0219292Y0016614D01*
X0220530Y0017852D01*
X0221200Y0019469D01*
X0221200Y0023522D01*
X0222248Y0024570D01*
X0225011Y0024570D01*
X0225922Y0024947D01*
X0225938Y0024910D01*
X0226838Y0024010D01*
X0228014Y0023522D01*
X0235586Y0023522D01*
X0236762Y0024010D01*
X0237662Y0024910D01*
X0238150Y0026086D01*
X0238150Y0032477D01*
X0237662Y0033653D01*
X0236762Y0034553D01*
X0235586Y0035041D01*
X0228014Y0035041D01*
X0227299Y0034744D01*
X0227075Y0034744D01*
X0226187Y0035632D01*
X0225011Y0036119D01*
X0218589Y0036119D01*
X0217413Y0035632D01*
X0216512Y0034732D01*
X0216025Y0033556D01*
X0216025Y0030792D01*
X0214711Y0029478D01*
X0214622Y0029567D01*
X0212791Y0030326D01*
X0210809Y0030326D01*
X0208978Y0029567D01*
X0207896Y0028485D01*
X0206067Y0028485D01*
X0206021Y0028466D01*
X0203943Y0028466D01*
X0202767Y0027979D01*
X0201867Y0027078D01*
X0201800Y0026917D01*
X0201733Y0027078D01*
X0201058Y0027753D01*
X0201058Y0031361D01*
X0200388Y0032979D01*
X0196604Y0036763D01*
X0196023Y0038166D01*
X0194622Y0039567D01*
X0192791Y0040326D01*
X0190809Y0040326D01*
X0188978Y0039567D01*
X0187577Y0038166D01*
X0187421Y0037789D01*
X0187421Y0038201D01*
X0186934Y0039378D01*
X0186034Y0040278D01*
X0185873Y0040344D01*
X0186034Y0040411D01*
X0186934Y0041311D01*
X0187421Y0042487D01*
X0187421Y0044565D01*
X0187440Y0044611D01*
X0187440Y0052480D01*
X0186770Y0054097D01*
X0184104Y0056763D01*
X0183523Y0058166D01*
X0182122Y0059567D01*
X0180291Y0060326D01*
X0178309Y0060326D01*
X0176478Y0059567D01*
X0175077Y0058166D01*
X0174496Y0056763D01*
X0171830Y0054097D01*
X0171160Y0052480D01*
X0171160Y0049344D01*
X0170957Y0049344D01*
X0167691Y0052610D01*
X0167438Y0052863D01*
X0167791Y0052863D01*
X0169622Y0053622D01*
X0171023Y0055023D01*
X0171781Y0056854D01*
X0171781Y0058835D01*
X0171600Y0059272D01*
X0171600Y0060856D01*
X0179519Y0068775D01*
X0180869Y0070126D01*
X0181600Y0071890D01*
X0181600Y0081416D01*
X0181781Y0081854D01*
X0181781Y0083835D01*
X0181023Y0085666D01*
X0179622Y0087067D01*
X0177791Y0087826D01*
X0175809Y0087826D01*
X0173978Y0087067D01*
X0172577Y0085666D01*
X0171819Y0083835D01*
X0171819Y0081854D01*
X0172000Y0081416D01*
X0172000Y0074833D01*
X0165340Y0068172D01*
X0165056Y0068856D01*
X0163568Y0070344D01*
X0165056Y0071832D01*
X0166000Y0074111D01*
X0166000Y0076578D01*
X0165056Y0078856D01*
X0163312Y0080601D01*
X0161033Y0081544D01*
X0152567Y0081544D01*
X0150288Y0080601D01*
X0148544Y0078856D01*
X0147600Y0076578D01*
X0147600Y0074111D01*
X0148544Y0071832D01*
X0150032Y0070344D01*
X0148544Y0068856D01*
X0147600Y0066578D01*
X0147600Y0064111D01*
X0148544Y0061832D01*
X0150032Y0060344D01*
X0149084Y0061292D02*
X0087896Y0061292D01*
X0086175Y0062891D02*
X0148105Y0062891D01*
X0147600Y0064489D02*
X0086781Y0064489D01*
X0086781Y0066088D02*
X0147600Y0066088D01*
X0148059Y0067686D02*
X0086221Y0067686D01*
X0084904Y0069285D02*
X0148972Y0069285D01*
X0149493Y0070883D02*
X0090678Y0070883D01*
X0092766Y0072482D02*
X0148275Y0072482D01*
X0147613Y0074080D02*
X0093150Y0074080D01*
X0093150Y0075679D02*
X0100047Y0075679D01*
X0097823Y0077277D02*
X0093150Y0077277D01*
X0093150Y0078876D02*
X0097017Y0078876D01*
X0096819Y0080475D02*
X0092978Y0080475D01*
X0093150Y0082073D02*
X0097124Y0082073D01*
X0098083Y0083672D02*
X0093150Y0083672D01*
X0093150Y0085270D02*
X0100675Y0085270D01*
X0102925Y0085270D02*
X0116819Y0085270D01*
X0117040Y0086869D02*
X0093150Y0086869D01*
X0092652Y0088467D02*
X0117800Y0088467D01*
X0121800Y0085344D02*
X0121800Y0102844D01*
X0059300Y0165344D01*
X0059300Y0170344D02*
X0061800Y0170344D01*
X0094300Y0137844D01*
X0099300Y0135344D02*
X0114300Y0120344D01*
X0115515Y0125233D02*
X0127800Y0125233D01*
X0127800Y0126831D02*
X0113470Y0126831D01*
X0111871Y0128430D02*
X0116942Y0128430D01*
X0115075Y0130028D02*
X0110273Y0130028D01*
X0108674Y0131627D02*
X0114413Y0131627D01*
X0113262Y0133225D02*
X0107076Y0133225D01*
X0104300Y0137844D02*
X0114300Y0137844D01*
X0119300Y0132844D01*
X0121658Y0128430D02*
X0127800Y0128430D01*
X0127800Y0130028D02*
X0123525Y0130028D01*
X0124187Y0131627D02*
X0127800Y0131627D01*
X0127286Y0133225D02*
X0124281Y0133225D01*
X0123872Y0134824D02*
X0126819Y0134824D01*
X0126855Y0136422D02*
X0122766Y0136422D01*
X0119780Y0138021D02*
X0127517Y0138021D01*
X0127800Y0139619D02*
X0118182Y0139619D01*
X0116583Y0141218D02*
X0127800Y0141218D01*
X0127800Y0142816D02*
X0117429Y0142816D01*
X0119027Y0144415D02*
X0127800Y0144415D01*
X0127800Y0146013D02*
X0121860Y0146013D01*
X0123560Y0147612D02*
X0127800Y0147612D01*
X0127800Y0149211D02*
X0124222Y0149211D01*
X0124281Y0150809D02*
X0127800Y0150809D01*
X0127800Y0152408D02*
X0123837Y0152408D01*
X0122683Y0154006D02*
X0127800Y0154006D01*
X0127800Y0155605D02*
X0120217Y0155605D01*
X0121815Y0157203D02*
X0127800Y0157203D01*
X0127800Y0158802D02*
X0124801Y0158802D01*
X0126179Y0160400D02*
X0127800Y0160400D01*
X0127800Y0161999D02*
X0126781Y0161999D01*
X0126781Y0163597D02*
X0127800Y0163597D01*
X0127800Y0165196D02*
X0126218Y0165196D01*
X0124895Y0166794D02*
X0127800Y0166794D01*
X0127800Y0168393D02*
X0121781Y0168393D01*
X0121302Y0169991D02*
X0127800Y0169991D01*
X0127800Y0171590D02*
X0120099Y0171590D01*
X0116800Y0167844D02*
X0109300Y0167844D01*
X0099300Y0157844D01*
X0091800Y0157844D01*
X0087467Y0160400D02*
X0084901Y0160400D01*
X0083303Y0161999D02*
X0088910Y0161999D01*
X0086819Y0158802D02*
X0086500Y0158802D01*
X0081704Y0163597D02*
X0099396Y0163597D01*
X0100994Y0165196D02*
X0080106Y0165196D01*
X0078507Y0166794D02*
X0102593Y0166794D01*
X0104191Y0168393D02*
X0076909Y0168393D01*
X0074300Y0172844D02*
X0099300Y0172844D01*
X0106800Y0180344D01*
X0106800Y0192844D01*
X0101800Y0197844D01*
X0101800Y0207844D01*
X0106318Y0209954D02*
X0111819Y0209954D01*
X0111819Y0209354D02*
X0112577Y0207523D01*
X0112800Y0207300D01*
X0112800Y0190889D01*
X0112577Y0190666D01*
X0111819Y0188835D01*
X0111819Y0186854D01*
X0112577Y0185023D01*
X0113978Y0183622D01*
X0115809Y0182863D01*
X0117791Y0182863D01*
X0119622Y0183622D01*
X0121023Y0185023D01*
X0121781Y0186854D01*
X0121781Y0188835D01*
X0121023Y0190666D01*
X0120800Y0190889D01*
X0120800Y0207300D01*
X0121023Y0207523D01*
X0121781Y0209354D01*
X0121781Y0211335D01*
X0121023Y0213166D01*
X0119622Y0214567D01*
X0117791Y0215326D01*
X0115809Y0215326D01*
X0113978Y0214567D01*
X0112577Y0213166D01*
X0111819Y0211335D01*
X0111819Y0209354D01*
X0112232Y0208355D02*
X0106781Y0208355D01*
X0106741Y0206757D02*
X0112800Y0206757D01*
X0112800Y0205158D02*
X0106079Y0205158D01*
X0105800Y0203560D02*
X0112800Y0203560D01*
X0112800Y0201961D02*
X0105800Y0201961D01*
X0105800Y0200363D02*
X0112800Y0200363D01*
X0112800Y0198764D02*
X0106537Y0198764D01*
X0108135Y0197166D02*
X0112800Y0197166D01*
X0112800Y0195567D02*
X0109734Y0195567D01*
X0110664Y0193969D02*
X0112800Y0193969D01*
X0112800Y0192370D02*
X0110800Y0192370D01*
X0110800Y0190772D02*
X0112683Y0190772D01*
X0111959Y0189173D02*
X0110800Y0189173D01*
X0110800Y0187575D02*
X0111819Y0187575D01*
X0112182Y0185976D02*
X0110800Y0185976D01*
X0110800Y0184378D02*
X0113222Y0184378D01*
X0110800Y0182779D02*
X0127471Y0182779D01*
X0127800Y0181181D02*
X0110800Y0181181D01*
X0110800Y0179582D02*
X0127800Y0179582D01*
X0127800Y0177984D02*
X0110096Y0177984D01*
X0108498Y0176385D02*
X0127800Y0176385D01*
X0127800Y0174787D02*
X0106899Y0174787D01*
X0105301Y0173188D02*
X0127800Y0173188D01*
X0135800Y0173188D02*
X0147982Y0173188D01*
X0147600Y0174111D02*
X0148544Y0171832D01*
X0150032Y0170344D01*
X0148544Y0168856D01*
X0147600Y0166578D01*
X0147600Y0164111D01*
X0148544Y0161832D01*
X0150032Y0160344D01*
X0148544Y0158856D01*
X0147600Y0156578D01*
X0147600Y0154111D01*
X0148544Y0151832D01*
X0150032Y0150344D01*
X0148544Y0148856D01*
X0147600Y0146578D01*
X0147600Y0144111D01*
X0148544Y0141832D01*
X0150288Y0140088D01*
X0152567Y0139144D01*
X0161033Y0139144D01*
X0163312Y0140088D01*
X0165056Y0141832D01*
X0165174Y0142117D01*
X0166354Y0140936D01*
X0168266Y0140144D01*
X0170334Y0140144D01*
X0172246Y0140936D01*
X0173708Y0142399D01*
X0174500Y0144310D01*
X0174500Y0178879D01*
X0173708Y0180790D01*
X0172246Y0182253D01*
X0170334Y0183044D01*
X0168266Y0183044D01*
X0166354Y0182253D01*
X0164892Y0180790D01*
X0164373Y0179539D01*
X0163312Y0180601D01*
X0161033Y0181544D01*
X0152567Y0181544D01*
X0150288Y0180601D01*
X0148544Y0178856D01*
X0147600Y0176578D01*
X0147600Y0174111D01*
X0147600Y0174787D02*
X0135800Y0174787D01*
X0135800Y0176385D02*
X0147600Y0176385D01*
X0148182Y0177984D02*
X0135800Y0177984D01*
X0135800Y0179582D02*
X0149270Y0179582D01*
X0151689Y0181181D02*
X0135800Y0181181D01*
X0136129Y0182779D02*
X0167625Y0182779D01*
X0165282Y0181181D02*
X0161911Y0181181D01*
X0164330Y0179582D02*
X0164391Y0179582D01*
X0170975Y0182779D02*
X0194917Y0182779D01*
X0195077Y0183166D02*
X0194319Y0181335D01*
X0194319Y0179354D01*
X0194900Y0177951D01*
X0194900Y0174469D01*
X0195570Y0172852D01*
X0196808Y0171614D01*
X0198917Y0169505D01*
X0197577Y0168166D01*
X0196819Y0166335D01*
X0196819Y0164354D01*
X0197577Y0162523D01*
X0198978Y0161122D01*
X0200381Y0160541D01*
X0203048Y0157874D01*
X0204665Y0157204D01*
X0212533Y0157204D01*
X0212579Y0157223D01*
X0214657Y0157223D01*
X0215833Y0157710D01*
X0216733Y0158611D01*
X0216800Y0158772D01*
X0216867Y0158611D01*
X0217142Y0158336D01*
X0217142Y0154248D01*
X0217872Y0152484D01*
X0222396Y0147960D01*
X0222577Y0147523D01*
X0223978Y0146122D01*
X0225809Y0145363D01*
X0227791Y0145363D01*
X0229622Y0146122D01*
X0231023Y0147523D01*
X0231781Y0149354D01*
X0231781Y0151335D01*
X0231023Y0153166D01*
X0229622Y0154567D01*
X0229184Y0154748D01*
X0226742Y0157191D01*
X0226742Y0158336D01*
X0227017Y0158611D01*
X0227504Y0159787D01*
X0227504Y0163422D01*
X0227017Y0164598D01*
X0226270Y0165344D01*
X0227017Y0166091D01*
X0227504Y0167267D01*
X0227504Y0168424D01*
X0229843Y0170764D01*
X0230809Y0170363D01*
X0232791Y0170363D01*
X0234622Y0171122D01*
X0236023Y0172523D01*
X0236781Y0174354D01*
X0236781Y0176335D01*
X0236023Y0178166D01*
X0234622Y0179567D01*
X0232791Y0180326D01*
X0230809Y0180326D01*
X0229406Y0179744D01*
X0227326Y0179744D01*
X0225709Y0179075D01*
X0224471Y0177837D01*
X0220100Y0173466D01*
X0218943Y0173466D01*
X0217767Y0172979D01*
X0216867Y0172078D01*
X0216800Y0171917D01*
X0216733Y0172078D01*
X0215833Y0172979D01*
X0214657Y0173466D01*
X0212579Y0173466D01*
X0212533Y0173485D01*
X0207382Y0173485D01*
X0203700Y0177167D01*
X0203700Y0177951D01*
X0204281Y0179354D01*
X0204281Y0181335D01*
X0203523Y0183166D01*
X0202122Y0184567D01*
X0200291Y0185326D01*
X0198309Y0185326D01*
X0196478Y0184567D01*
X0195077Y0183166D01*
X0196289Y0184378D02*
X0136781Y0184378D01*
X0136781Y0185976D02*
X0224330Y0185976D01*
X0223978Y0186122D02*
X0225809Y0185363D01*
X0227791Y0185363D01*
X0229622Y0186122D01*
X0231023Y0187523D01*
X0231781Y0189354D01*
X0231781Y0191335D01*
X0231023Y0193166D01*
X0229622Y0194567D01*
X0229184Y0194748D01*
X0226742Y0197191D01*
X0226742Y0198336D01*
X0227017Y0198611D01*
X0227504Y0199787D01*
X0227504Y0203422D01*
X0227017Y0204598D01*
X0226270Y0205344D01*
X0227017Y0206091D01*
X0227504Y0207267D01*
X0227504Y0208424D01*
X0229843Y0210764D01*
X0230809Y0210363D01*
X0232791Y0210363D01*
X0234622Y0211122D01*
X0236023Y0212523D01*
X0236781Y0214354D01*
X0236781Y0216335D01*
X0236023Y0218166D01*
X0234622Y0219567D01*
X0232791Y0220326D01*
X0230809Y0220326D01*
X0229406Y0219744D01*
X0227326Y0219744D01*
X0225709Y0219075D01*
X0224471Y0217837D01*
X0220100Y0213466D01*
X0218943Y0213466D01*
X0217767Y0212979D01*
X0216867Y0212078D01*
X0216800Y0211917D01*
X0216733Y0212078D01*
X0215833Y0212979D01*
X0214657Y0213466D01*
X0212579Y0213466D01*
X0212533Y0213485D01*
X0207382Y0213485D01*
X0203700Y0217167D01*
X0203700Y0217951D01*
X0204281Y0219354D01*
X0204281Y0221335D01*
X0203523Y0223166D01*
X0202122Y0224567D01*
X0200291Y0225326D01*
X0198309Y0225326D01*
X0196478Y0224567D01*
X0195077Y0223166D01*
X0194319Y0221335D01*
X0194319Y0219354D01*
X0194900Y0217951D01*
X0194900Y0214469D01*
X0195570Y0212852D01*
X0196808Y0211614D01*
X0198917Y0209505D01*
X0197577Y0208166D01*
X0196819Y0206335D01*
X0196819Y0204354D01*
X0197577Y0202523D01*
X0198978Y0201122D01*
X0200381Y0200541D01*
X0203048Y0197874D01*
X0204665Y0197204D01*
X0212533Y0197204D01*
X0212579Y0197223D01*
X0214657Y0197223D01*
X0215833Y0197710D01*
X0216733Y0198611D01*
X0216800Y0198772D01*
X0216867Y0198611D01*
X0217142Y0198336D01*
X0217142Y0194248D01*
X0217872Y0192484D01*
X0222396Y0187960D01*
X0222577Y0187523D01*
X0223978Y0186122D01*
X0222556Y0187575D02*
X0136268Y0187575D01*
X0135800Y0189173D02*
X0152497Y0189173D01*
X0152567Y0189144D02*
X0161033Y0189144D01*
X0163312Y0190088D01*
X0165056Y0191832D01*
X0165174Y0192117D01*
X0166354Y0190936D01*
X0168266Y0190144D01*
X0170334Y0190144D01*
X0172246Y0190936D01*
X0173708Y0192399D01*
X0174500Y0194310D01*
X0174500Y0228879D01*
X0173708Y0230790D01*
X0172246Y0232253D01*
X0170334Y0233044D01*
X0168266Y0233044D01*
X0166354Y0232253D01*
X0164892Y0230790D01*
X0164373Y0229539D01*
X0163312Y0230601D01*
X0161033Y0231544D01*
X0152567Y0231544D01*
X0150288Y0230601D01*
X0148544Y0228856D01*
X0147600Y0226578D01*
X0147600Y0224111D01*
X0148544Y0221832D01*
X0150032Y0220344D01*
X0148544Y0218856D01*
X0147600Y0216578D01*
X0147600Y0214111D01*
X0148544Y0211832D01*
X0150032Y0210344D01*
X0148544Y0208856D01*
X0147600Y0206578D01*
X0147600Y0204111D01*
X0148544Y0201832D01*
X0150032Y0200344D01*
X0148544Y0198856D01*
X0147600Y0196578D01*
X0147600Y0194111D01*
X0148544Y0191832D01*
X0150288Y0190088D01*
X0152567Y0189144D01*
X0149605Y0190772D02*
X0135800Y0190772D01*
X0135800Y0192370D02*
X0148321Y0192370D01*
X0147659Y0193969D02*
X0135800Y0193969D01*
X0135800Y0195567D02*
X0147600Y0195567D01*
X0147844Y0197166D02*
X0135800Y0197166D01*
X0135800Y0198764D02*
X0148506Y0198764D01*
X0150013Y0200363D02*
X0135800Y0200363D01*
X0135800Y0201961D02*
X0148490Y0201961D01*
X0147828Y0203560D02*
X0135800Y0203560D01*
X0135800Y0205158D02*
X0147600Y0205158D01*
X0147674Y0206757D02*
X0135800Y0206757D01*
X0135800Y0208355D02*
X0148336Y0208355D01*
X0149641Y0209954D02*
X0135800Y0209954D01*
X0135800Y0211552D02*
X0148824Y0211552D01*
X0147998Y0213151D02*
X0135800Y0213151D01*
X0135800Y0214749D02*
X0147600Y0214749D01*
X0147600Y0216348D02*
X0135800Y0216348D01*
X0135800Y0217946D02*
X0148167Y0217946D01*
X0149232Y0219545D02*
X0135800Y0219545D01*
X0135800Y0221144D02*
X0149233Y0221144D01*
X0148167Y0222742D02*
X0135800Y0222742D01*
X0135800Y0224341D02*
X0147600Y0224341D01*
X0147600Y0225939D02*
X0135800Y0225939D01*
X0135800Y0227538D02*
X0147998Y0227538D01*
X0148823Y0229136D02*
X0135800Y0229136D01*
X0135800Y0230735D02*
X0150612Y0230735D01*
X0150051Y0240326D02*
X0125800Y0240326D01*
X0125800Y0241924D02*
X0148506Y0241924D01*
X0147844Y0243523D02*
X0125800Y0243523D01*
X0125800Y0245121D02*
X0147600Y0245121D01*
X0147659Y0246720D02*
X0125800Y0246720D01*
X0125800Y0248318D02*
X0148321Y0248318D01*
X0149604Y0249917D02*
X0125800Y0249917D01*
X0126128Y0251515D02*
X0148861Y0251515D01*
X0148013Y0253114D02*
X0127726Y0253114D01*
X0129325Y0254712D02*
X0147600Y0254712D01*
X0147600Y0256311D02*
X0130923Y0256311D01*
X0132522Y0257909D02*
X0148152Y0257909D01*
X0149195Y0259508D02*
X0134120Y0259508D01*
X0135719Y0261106D02*
X0149270Y0261106D01*
X0148183Y0262705D02*
X0137317Y0262705D01*
X0138916Y0264303D02*
X0147600Y0264303D01*
X0147600Y0265902D02*
X0140514Y0265902D01*
X0142113Y0267500D02*
X0147982Y0267500D01*
X0148786Y0269099D02*
X0143711Y0269099D01*
X0145310Y0270697D02*
X0149679Y0270697D01*
X0148352Y0272296D02*
X0146908Y0272296D01*
X0141989Y0278690D02*
X0051122Y0278690D01*
X0051122Y0277091D02*
X0140390Y0277091D01*
X0138792Y0275493D02*
X0051122Y0275493D01*
X0051122Y0273894D02*
X0137193Y0273894D01*
X0135595Y0272296D02*
X0131570Y0272296D01*
X0133491Y0270697D02*
X0133996Y0270697D01*
X0129300Y0267844D02*
X0109300Y0247844D01*
X0109300Y0232844D01*
X0086800Y0210344D01*
X0086800Y0202844D01*
X0091800Y0207844D02*
X0091800Y0190344D01*
X0096800Y0185344D01*
X0101800Y0182844D02*
X0096800Y0177844D01*
X0094300Y0177844D01*
X0101800Y0182844D02*
X0101800Y0190344D01*
X0096800Y0195344D01*
X0096800Y0210344D01*
X0099182Y0214749D02*
X0114418Y0214749D01*
X0112571Y0213151D02*
X0101029Y0213151D01*
X0098460Y0216348D02*
X0127800Y0216348D01*
X0127800Y0217946D02*
X0100059Y0217946D01*
X0101657Y0219545D02*
X0127800Y0219545D01*
X0127800Y0221144D02*
X0103256Y0221144D01*
X0104854Y0222742D02*
X0127800Y0222742D01*
X0127800Y0224341D02*
X0106453Y0224341D01*
X0108051Y0225939D02*
X0127800Y0225939D01*
X0127800Y0227538D02*
X0109650Y0227538D01*
X0111248Y0229136D02*
X0118464Y0229136D01*
X0117282Y0230735D02*
X0112756Y0230735D01*
X0113300Y0232333D02*
X0116819Y0232333D01*
X0116859Y0233932D02*
X0113300Y0233932D01*
X0113300Y0235530D02*
X0117521Y0235530D01*
X0117800Y0237129D02*
X0113300Y0237129D01*
X0113300Y0238727D02*
X0117800Y0238727D01*
X0117800Y0240326D02*
X0113300Y0240326D01*
X0113300Y0241924D02*
X0117800Y0241924D01*
X0117800Y0243523D02*
X0113300Y0243523D01*
X0113300Y0245121D02*
X0117800Y0245121D01*
X0117800Y0246720D02*
X0113832Y0246720D01*
X0115431Y0248318D02*
X0117800Y0248318D01*
X0117800Y0249917D02*
X0117029Y0249917D01*
X0121800Y0252844D02*
X0151800Y0282844D01*
X0161800Y0282844D01*
X0168060Y0276585D01*
X0168060Y0250344D01*
X0171479Y0246720D02*
X0196741Y0246720D01*
X0196600Y0246379D02*
X0196600Y0244310D01*
X0197392Y0242399D01*
X0198854Y0240936D01*
X0200766Y0240144D01*
X0201343Y0240144D01*
X0203274Y0238213D01*
X0204745Y0237604D01*
X0207739Y0237604D01*
X0208660Y0237223D01*
X0214657Y0237223D01*
X0215833Y0237710D01*
X0216733Y0238611D01*
X0216800Y0238772D01*
X0216867Y0238611D01*
X0217142Y0238336D01*
X0217142Y0234248D01*
X0217872Y0232484D01*
X0219223Y0231134D01*
X0222396Y0227960D01*
X0222577Y0227523D01*
X0223978Y0226122D01*
X0225809Y0225363D01*
X0227791Y0225363D01*
X0229622Y0226122D01*
X0231023Y0227523D01*
X0231781Y0229354D01*
X0231781Y0231335D01*
X0231023Y0233166D01*
X0229622Y0234567D01*
X0229184Y0234748D01*
X0226742Y0237191D01*
X0226742Y0238336D01*
X0227017Y0238611D01*
X0227504Y0239787D01*
X0227504Y0243422D01*
X0227017Y0244598D01*
X0226270Y0245344D01*
X0227017Y0246091D01*
X0227504Y0247267D01*
X0227504Y0248424D01*
X0229843Y0250764D01*
X0230809Y0250363D01*
X0232791Y0250363D01*
X0234622Y0251122D01*
X0236023Y0252523D01*
X0236781Y0254354D01*
X0236781Y0256335D01*
X0236023Y0258166D01*
X0234622Y0259567D01*
X0232791Y0260326D01*
X0230809Y0260326D01*
X0229406Y0259744D01*
X0227326Y0259744D01*
X0225709Y0259075D01*
X0224471Y0257837D01*
X0220100Y0253466D01*
X0218943Y0253466D01*
X0217767Y0252979D01*
X0216867Y0252078D01*
X0216800Y0251917D01*
X0216733Y0252078D01*
X0216058Y0252753D01*
X0216058Y0253861D01*
X0215388Y0255479D01*
X0209104Y0261763D01*
X0208523Y0263166D01*
X0207122Y0264567D01*
X0205291Y0265326D01*
X0203309Y0265326D01*
X0201478Y0264567D01*
X0200077Y0263166D01*
X0199319Y0261335D01*
X0199319Y0259354D01*
X0200077Y0257523D01*
X0201478Y0256122D01*
X0202881Y0255541D01*
X0206513Y0251909D01*
X0206096Y0250902D01*
X0206096Y0248402D01*
X0204746Y0249753D01*
X0202834Y0250544D01*
X0200766Y0250544D01*
X0198854Y0249753D01*
X0197392Y0248290D01*
X0196600Y0246379D01*
X0196600Y0245121D02*
X0166000Y0245121D01*
X0165756Y0243523D02*
X0196926Y0243523D01*
X0197866Y0241924D02*
X0165094Y0241924D01*
X0163549Y0240326D02*
X0200328Y0240326D01*
X0202760Y0238727D02*
X0135462Y0238727D01*
X0136452Y0237129D02*
X0217142Y0237129D01*
X0217142Y0235530D02*
X0136781Y0235530D01*
X0136606Y0233932D02*
X0217273Y0233932D01*
X0218023Y0232333D02*
X0172052Y0232333D01*
X0173731Y0230735D02*
X0219622Y0230735D01*
X0221220Y0229136D02*
X0174393Y0229136D01*
X0174500Y0227538D02*
X0222571Y0227538D01*
X0224419Y0225939D02*
X0174500Y0225939D01*
X0174500Y0224341D02*
X0196252Y0224341D01*
X0194902Y0222742D02*
X0174500Y0222742D01*
X0174500Y0221144D02*
X0194319Y0221144D01*
X0194319Y0219545D02*
X0174500Y0219545D01*
X0174500Y0217946D02*
X0194900Y0217946D01*
X0194900Y0216348D02*
X0174500Y0216348D01*
X0174500Y0214749D02*
X0194900Y0214749D01*
X0195446Y0213151D02*
X0174500Y0213151D01*
X0174500Y0211552D02*
X0196869Y0211552D01*
X0198468Y0209954D02*
X0174500Y0209954D01*
X0174500Y0208355D02*
X0197767Y0208355D01*
X0196994Y0206757D02*
X0174500Y0206757D01*
X0174500Y0205158D02*
X0196819Y0205158D01*
X0197148Y0203560D02*
X0174500Y0203560D01*
X0174500Y0201961D02*
X0198139Y0201961D01*
X0200559Y0200363D02*
X0174500Y0200363D01*
X0174500Y0198764D02*
X0202158Y0198764D01*
X0202311Y0184378D02*
X0242301Y0184378D01*
X0242301Y0185976D02*
X0229270Y0185976D01*
X0231044Y0187575D02*
X0242301Y0187575D01*
X0242301Y0189173D02*
X0231706Y0189173D01*
X0231781Y0190772D02*
X0242301Y0190772D01*
X0242301Y0192370D02*
X0231352Y0192370D01*
X0230220Y0193969D02*
X0242301Y0193969D01*
X0242301Y0195567D02*
X0228365Y0195567D01*
X0226767Y0197166D02*
X0242301Y0197166D01*
X0242301Y0198764D02*
X0227080Y0198764D01*
X0227504Y0200363D02*
X0242301Y0200363D01*
X0242301Y0201961D02*
X0227504Y0201961D01*
X0227447Y0203560D02*
X0242301Y0203560D01*
X0242301Y0205158D02*
X0226456Y0205158D01*
X0227293Y0206757D02*
X0242301Y0206757D01*
X0242301Y0208355D02*
X0227504Y0208355D01*
X0229034Y0209954D02*
X0242301Y0209954D01*
X0242301Y0211552D02*
X0235052Y0211552D01*
X0236283Y0213151D02*
X0242301Y0213151D01*
X0242301Y0214749D02*
X0236781Y0214749D01*
X0236776Y0216348D02*
X0242301Y0216348D01*
X0242301Y0217946D02*
X0236114Y0217946D01*
X0234644Y0219545D02*
X0242301Y0219545D01*
X0242301Y0221144D02*
X0204281Y0221144D01*
X0204281Y0219545D02*
X0226845Y0219545D01*
X0224581Y0217946D02*
X0203700Y0217946D01*
X0204519Y0216348D02*
X0222983Y0216348D01*
X0221384Y0214749D02*
X0206118Y0214749D01*
X0203698Y0222742D02*
X0242301Y0222742D01*
X0242301Y0224341D02*
X0202348Y0224341D01*
X0215417Y0213151D02*
X0218183Y0213151D01*
X0216800Y0206252D02*
X0216867Y0206091D01*
X0217613Y0205344D01*
X0216867Y0204598D01*
X0216800Y0204437D01*
X0216733Y0204598D01*
X0215987Y0205344D01*
X0216733Y0206091D01*
X0216800Y0206252D01*
X0216173Y0205158D02*
X0217427Y0205158D01*
X0216797Y0198764D02*
X0216803Y0198764D01*
X0217142Y0197166D02*
X0174500Y0197166D01*
X0174500Y0195567D02*
X0217142Y0195567D01*
X0217257Y0193969D02*
X0174359Y0193969D01*
X0173680Y0192370D02*
X0217986Y0192370D01*
X0219584Y0190772D02*
X0171849Y0190772D01*
X0166751Y0190772D02*
X0163995Y0190772D01*
X0161103Y0189173D02*
X0221183Y0189173D01*
X0226935Y0179582D02*
X0204281Y0179582D01*
X0204281Y0181181D02*
X0242301Y0181181D01*
X0242301Y0182779D02*
X0203683Y0182779D01*
X0203714Y0177984D02*
X0224618Y0177984D01*
X0223020Y0176385D02*
X0204482Y0176385D01*
X0206080Y0174787D02*
X0221421Y0174787D01*
X0218273Y0173188D02*
X0215327Y0173188D01*
X0216800Y0166252D02*
X0216867Y0166091D01*
X0217613Y0165344D01*
X0216867Y0164598D01*
X0216800Y0164437D01*
X0216733Y0164598D01*
X0215987Y0165344D01*
X0216733Y0166091D01*
X0216800Y0166252D01*
X0216136Y0165196D02*
X0217464Y0165196D01*
X0217142Y0157203D02*
X0174500Y0157203D01*
X0174500Y0155605D02*
X0217142Y0155605D01*
X0217242Y0154006D02*
X0174500Y0154006D01*
X0174500Y0152408D02*
X0217949Y0152408D01*
X0219547Y0150809D02*
X0174500Y0150809D01*
X0174500Y0149211D02*
X0221146Y0149211D01*
X0222540Y0147612D02*
X0174500Y0147612D01*
X0174500Y0146013D02*
X0224240Y0146013D01*
X0229360Y0146013D02*
X0242301Y0146013D01*
X0242301Y0144415D02*
X0202274Y0144415D01*
X0202122Y0144567D02*
X0200291Y0145326D01*
X0198309Y0145326D01*
X0196478Y0144567D01*
X0195077Y0143166D01*
X0194319Y0141335D01*
X0194319Y0139354D01*
X0194900Y0137951D01*
X0194900Y0134469D01*
X0195570Y0132852D01*
X0196808Y0131614D01*
X0198917Y0129505D01*
X0197577Y0128166D01*
X0196819Y0126335D01*
X0196819Y0124354D01*
X0197577Y0122523D01*
X0198978Y0121122D01*
X0200381Y0120541D01*
X0203048Y0117874D01*
X0204665Y0117204D01*
X0212533Y0117204D01*
X0212579Y0117223D01*
X0214657Y0117223D01*
X0215833Y0117710D01*
X0216733Y0118611D01*
X0216800Y0118772D01*
X0216867Y0118611D01*
X0217142Y0118336D01*
X0217142Y0114248D01*
X0217872Y0112484D01*
X0222396Y0107960D01*
X0222577Y0107523D01*
X0223978Y0106122D01*
X0225809Y0105363D01*
X0227791Y0105363D01*
X0229622Y0106122D01*
X0231023Y0107523D01*
X0231781Y0109354D01*
X0231781Y0111335D01*
X0231023Y0113166D01*
X0229622Y0114567D01*
X0229184Y0114748D01*
X0226742Y0117191D01*
X0226742Y0118336D01*
X0227017Y0118611D01*
X0227504Y0119787D01*
X0227504Y0123422D01*
X0227017Y0124598D01*
X0226270Y0125344D01*
X0227017Y0126091D01*
X0227504Y0127267D01*
X0227504Y0128424D01*
X0229843Y0130764D01*
X0230809Y0130363D01*
X0232791Y0130363D01*
X0234622Y0131122D01*
X0236023Y0132523D01*
X0236781Y0134354D01*
X0236781Y0136335D01*
X0236023Y0138166D01*
X0234622Y0139567D01*
X0232791Y0140326D01*
X0230809Y0140326D01*
X0229406Y0139744D01*
X0227326Y0139744D01*
X0225709Y0139075D01*
X0224471Y0137837D01*
X0220100Y0133466D01*
X0218943Y0133466D01*
X0217767Y0132979D01*
X0216867Y0132078D01*
X0216800Y0131917D01*
X0216733Y0132078D01*
X0215833Y0132979D01*
X0214657Y0133466D01*
X0212579Y0133466D01*
X0212533Y0133485D01*
X0207382Y0133485D01*
X0203700Y0137167D01*
X0203700Y0137951D01*
X0204281Y0139354D01*
X0204281Y0141335D01*
X0203523Y0143166D01*
X0202122Y0144567D01*
X0203668Y0142816D02*
X0242301Y0142816D01*
X0242301Y0141218D02*
X0204281Y0141218D01*
X0204281Y0139619D02*
X0227024Y0139619D01*
X0224655Y0138021D02*
X0203729Y0138021D01*
X0204445Y0136422D02*
X0223057Y0136422D01*
X0221458Y0134824D02*
X0206043Y0134824D01*
X0198394Y0130028D02*
X0174024Y0130028D01*
X0173708Y0130790D02*
X0174500Y0128879D01*
X0174500Y0094310D01*
X0173708Y0092399D01*
X0172246Y0090936D01*
X0170334Y0090144D01*
X0168266Y0090144D01*
X0166354Y0090936D01*
X0165174Y0092117D01*
X0165056Y0091832D01*
X0163312Y0090088D01*
X0161033Y0089144D01*
X0152567Y0089144D01*
X0150288Y0090088D01*
X0148544Y0091832D01*
X0147600Y0094111D01*
X0147600Y0096578D01*
X0148544Y0098856D01*
X0150032Y0100344D01*
X0148544Y0101832D01*
X0147600Y0104111D01*
X0147600Y0106578D01*
X0148544Y0108856D01*
X0150032Y0110344D01*
X0148544Y0111832D01*
X0147600Y0114111D01*
X0147600Y0116578D01*
X0148544Y0118856D01*
X0150032Y0120344D01*
X0148544Y0121832D01*
X0147600Y0124111D01*
X0147600Y0126578D01*
X0148544Y0128856D01*
X0150288Y0130601D01*
X0152567Y0131544D01*
X0161033Y0131544D01*
X0163312Y0130601D01*
X0164373Y0129539D01*
X0164892Y0130790D01*
X0166354Y0132253D01*
X0168266Y0133044D01*
X0170334Y0133044D01*
X0172246Y0132253D01*
X0173708Y0130790D01*
X0172872Y0131627D02*
X0196795Y0131627D01*
X0196808Y0131614D02*
X0196808Y0131614D01*
X0195415Y0133225D02*
X0136314Y0133225D01*
X0136781Y0134824D02*
X0194900Y0134824D01*
X0194900Y0136422D02*
X0136745Y0136422D01*
X0136083Y0138021D02*
X0194871Y0138021D01*
X0194319Y0139619D02*
X0162180Y0139619D01*
X0164442Y0141218D02*
X0166073Y0141218D01*
X0172527Y0141218D02*
X0194319Y0141218D01*
X0194932Y0142816D02*
X0173881Y0142816D01*
X0174500Y0144415D02*
X0196326Y0144415D01*
X0202120Y0158802D02*
X0174500Y0158802D01*
X0174500Y0160400D02*
X0200522Y0160400D01*
X0198102Y0161999D02*
X0174500Y0161999D01*
X0174500Y0163597D02*
X0197132Y0163597D01*
X0196819Y0165196D02*
X0174500Y0165196D01*
X0174500Y0166794D02*
X0197009Y0166794D01*
X0197804Y0168393D02*
X0174500Y0168393D01*
X0174500Y0169991D02*
X0198431Y0169991D01*
X0196832Y0171590D02*
X0174500Y0171590D01*
X0174500Y0173188D02*
X0195431Y0173188D01*
X0194900Y0174787D02*
X0174500Y0174787D01*
X0174500Y0176385D02*
X0194900Y0176385D01*
X0194886Y0177984D02*
X0174500Y0177984D01*
X0174209Y0179582D02*
X0194319Y0179582D01*
X0194319Y0181181D02*
X0173318Y0181181D01*
X0149679Y0169991D02*
X0135800Y0169991D01*
X0135800Y0168393D02*
X0148352Y0168393D01*
X0147690Y0166794D02*
X0135800Y0166794D01*
X0135800Y0165196D02*
X0147600Y0165196D01*
X0147813Y0163597D02*
X0135800Y0163597D01*
X0135800Y0161999D02*
X0148475Y0161999D01*
X0149976Y0160400D02*
X0135800Y0160400D01*
X0135800Y0158802D02*
X0148521Y0158802D01*
X0147859Y0157203D02*
X0135800Y0157203D01*
X0135800Y0155605D02*
X0147600Y0155605D01*
X0147644Y0154006D02*
X0135800Y0154006D01*
X0135800Y0152408D02*
X0148306Y0152408D01*
X0149567Y0150809D02*
X0135800Y0150809D01*
X0135800Y0149211D02*
X0148898Y0149211D01*
X0148028Y0147612D02*
X0135800Y0147612D01*
X0135800Y0146013D02*
X0147600Y0146013D01*
X0147600Y0144415D02*
X0135800Y0144415D01*
X0135800Y0142816D02*
X0148136Y0142816D01*
X0149158Y0141218D02*
X0135800Y0141218D01*
X0135800Y0139619D02*
X0151420Y0139619D01*
X0149716Y0130028D02*
X0135800Y0130028D01*
X0135800Y0128430D02*
X0148367Y0128430D01*
X0147705Y0126831D02*
X0135800Y0126831D01*
X0135800Y0125233D02*
X0147600Y0125233D01*
X0147798Y0123634D02*
X0135800Y0123634D01*
X0135800Y0122036D02*
X0148460Y0122036D01*
X0149939Y0120437D02*
X0135800Y0120437D01*
X0135800Y0118839D02*
X0148537Y0118839D01*
X0147874Y0117240D02*
X0135800Y0117240D01*
X0135800Y0115642D02*
X0147600Y0115642D01*
X0147628Y0114043D02*
X0135800Y0114043D01*
X0135800Y0112445D02*
X0148290Y0112445D01*
X0149530Y0110846D02*
X0135800Y0110846D01*
X0135800Y0109248D02*
X0148935Y0109248D01*
X0148044Y0107649D02*
X0135800Y0107649D01*
X0135800Y0106051D02*
X0147600Y0106051D01*
X0147600Y0104452D02*
X0135800Y0104452D01*
X0135800Y0102854D02*
X0148121Y0102854D01*
X0149121Y0101255D02*
X0135800Y0101255D01*
X0135800Y0099657D02*
X0149344Y0099657D01*
X0148213Y0098058D02*
X0135800Y0098058D01*
X0135800Y0096460D02*
X0147600Y0096460D01*
X0147600Y0094861D02*
X0135800Y0094861D01*
X0135800Y0093263D02*
X0147952Y0093263D01*
X0148712Y0091664D02*
X0135800Y0091664D01*
X0135800Y0090066D02*
X0150343Y0090066D01*
X0150162Y0080475D02*
X0133059Y0080475D01*
X0130988Y0078876D02*
X0148563Y0078876D01*
X0147890Y0077277D02*
X0129390Y0077277D01*
X0126800Y0080344D02*
X0101800Y0080344D01*
X0103553Y0075679D02*
X0147600Y0075679D01*
X0136781Y0085270D02*
X0172413Y0085270D01*
X0171819Y0083672D02*
X0136499Y0083672D01*
X0135573Y0082073D02*
X0171819Y0082073D01*
X0172000Y0080475D02*
X0163438Y0080475D01*
X0165037Y0078876D02*
X0172000Y0078876D01*
X0172000Y0077277D02*
X0165710Y0077277D01*
X0166000Y0075679D02*
X0172000Y0075679D01*
X0171248Y0074080D02*
X0165987Y0074080D01*
X0165325Y0072482D02*
X0169649Y0072482D01*
X0168051Y0070883D02*
X0164107Y0070883D01*
X0164628Y0069285D02*
X0166452Y0069285D01*
X0173635Y0062891D02*
X0242301Y0062891D01*
X0242301Y0064489D02*
X0175233Y0064489D01*
X0176832Y0066088D02*
X0219060Y0066088D01*
X0218978Y0066122D02*
X0220809Y0065363D01*
X0222791Y0065363D01*
X0224622Y0066122D01*
X0226023Y0067523D01*
X0226781Y0069354D01*
X0226781Y0071335D01*
X0226641Y0071674D01*
X0226714Y0074181D01*
X0226742Y0074248D01*
X0226742Y0075133D01*
X0226768Y0076017D01*
X0226742Y0076085D01*
X0226742Y0078336D01*
X0227017Y0078611D01*
X0227504Y0079787D01*
X0227504Y0083422D01*
X0227017Y0084598D01*
X0226270Y0085344D01*
X0227017Y0086091D01*
X0227504Y0087267D01*
X0227504Y0088424D01*
X0229843Y0090764D01*
X0230809Y0090363D01*
X0232791Y0090363D01*
X0234622Y0091122D01*
X0236023Y0092523D01*
X0236781Y0094354D01*
X0236781Y0096335D01*
X0236023Y0098166D01*
X0234622Y0099567D01*
X0232791Y0100326D01*
X0230809Y0100326D01*
X0229406Y0099744D01*
X0227326Y0099744D01*
X0225709Y0099075D01*
X0224471Y0097837D01*
X0220100Y0093466D01*
X0218943Y0093466D01*
X0217767Y0092979D01*
X0216867Y0092078D01*
X0216800Y0091917D01*
X0216733Y0092078D01*
X0215833Y0092979D01*
X0214657Y0093466D01*
X0212579Y0093466D01*
X0212533Y0093485D01*
X0209470Y0093485D01*
X0203700Y0097608D01*
X0203700Y0097951D01*
X0204281Y0099354D01*
X0204281Y0101335D01*
X0203523Y0103166D01*
X0202122Y0104567D01*
X0200291Y0105326D01*
X0198309Y0105326D01*
X0196478Y0104567D01*
X0195077Y0103166D01*
X0194319Y0101335D01*
X0194319Y0099354D01*
X0194900Y0097951D01*
X0194900Y0095848D01*
X0194816Y0095485D01*
X0194900Y0094981D01*
X0194900Y0094469D01*
X0195042Y0094126D01*
X0195103Y0093759D01*
X0195374Y0093325D01*
X0195570Y0092852D01*
X0195833Y0092589D01*
X0196030Y0092273D01*
X0196446Y0091976D01*
X0196808Y0091614D01*
X0197151Y0091472D01*
X0199509Y0089787D01*
X0198978Y0089567D01*
X0197577Y0088166D01*
X0196819Y0086335D01*
X0196819Y0084354D01*
X0197577Y0082523D01*
X0198978Y0081122D01*
X0200381Y0080541D01*
X0203048Y0077874D01*
X0204665Y0077204D01*
X0212533Y0077204D01*
X0212579Y0077223D01*
X0214657Y0077223D01*
X0215833Y0077710D01*
X0216733Y0078611D01*
X0216800Y0078772D01*
X0216867Y0078611D01*
X0217142Y0078336D01*
X0217142Y0075273D01*
X0217043Y0071875D01*
X0216819Y0071335D01*
X0216819Y0069354D01*
X0217577Y0067523D01*
X0218978Y0066122D01*
X0217509Y0067686D02*
X0178430Y0067686D01*
X0179519Y0068775D02*
X0179519Y0068775D01*
X0180029Y0069285D02*
X0216847Y0069285D01*
X0216819Y0070883D02*
X0181183Y0070883D01*
X0181600Y0072482D02*
X0217060Y0072482D01*
X0217107Y0074080D02*
X0181600Y0074080D01*
X0181600Y0075679D02*
X0217142Y0075679D01*
X0217142Y0077277D02*
X0214788Y0077277D01*
X0216800Y0084437D02*
X0216733Y0084598D01*
X0215987Y0085344D01*
X0216733Y0086091D01*
X0216800Y0086252D01*
X0216867Y0086091D01*
X0217613Y0085344D01*
X0216867Y0084598D01*
X0216800Y0084437D01*
X0216061Y0085270D02*
X0217539Y0085270D01*
X0218453Y0093263D02*
X0215147Y0093263D01*
X0221496Y0094861D02*
X0207544Y0094861D01*
X0205307Y0096460D02*
X0223094Y0096460D01*
X0224693Y0098058D02*
X0203744Y0098058D01*
X0204281Y0099657D02*
X0227114Y0099657D01*
X0229450Y0106051D02*
X0242301Y0106051D01*
X0242301Y0107649D02*
X0231075Y0107649D01*
X0231737Y0109248D02*
X0242301Y0109248D01*
X0242301Y0110846D02*
X0231781Y0110846D01*
X0231322Y0112445D02*
X0242301Y0112445D01*
X0242301Y0114043D02*
X0230146Y0114043D01*
X0228291Y0115642D02*
X0242301Y0115642D01*
X0242301Y0117240D02*
X0226742Y0117240D01*
X0227111Y0118839D02*
X0242301Y0118839D01*
X0242301Y0120437D02*
X0227504Y0120437D01*
X0227504Y0122036D02*
X0242301Y0122036D01*
X0242301Y0123634D02*
X0227416Y0123634D01*
X0226382Y0125233D02*
X0242301Y0125233D01*
X0242301Y0126831D02*
X0227323Y0126831D01*
X0227509Y0128430D02*
X0242301Y0128430D01*
X0242301Y0130028D02*
X0229108Y0130028D01*
X0235127Y0131627D02*
X0242301Y0131627D01*
X0242301Y0133225D02*
X0236314Y0133225D01*
X0236781Y0134824D02*
X0242301Y0134824D01*
X0242301Y0136422D02*
X0236745Y0136422D01*
X0236083Y0138021D02*
X0242301Y0138021D01*
X0242301Y0139619D02*
X0234496Y0139619D01*
X0231060Y0147612D02*
X0242301Y0147612D01*
X0242301Y0149211D02*
X0231722Y0149211D01*
X0231781Y0150809D02*
X0242301Y0150809D01*
X0242301Y0152408D02*
X0231337Y0152408D01*
X0230183Y0154006D02*
X0242301Y0154006D01*
X0242301Y0155605D02*
X0228328Y0155605D01*
X0226742Y0157203D02*
X0242301Y0157203D01*
X0242301Y0158802D02*
X0227096Y0158802D01*
X0227504Y0160400D02*
X0242301Y0160400D01*
X0242301Y0161999D02*
X0227504Y0161999D01*
X0227431Y0163597D02*
X0242301Y0163597D01*
X0242301Y0165196D02*
X0226419Y0165196D01*
X0227308Y0166794D02*
X0242301Y0166794D01*
X0242301Y0168393D02*
X0227504Y0168393D01*
X0229071Y0169991D02*
X0242301Y0169991D01*
X0242301Y0171590D02*
X0235090Y0171590D01*
X0236298Y0173188D02*
X0242301Y0173188D01*
X0242301Y0174787D02*
X0236781Y0174787D01*
X0236760Y0176385D02*
X0242301Y0176385D01*
X0242301Y0177984D02*
X0236098Y0177984D01*
X0234585Y0179582D02*
X0242301Y0179582D01*
X0242301Y0225939D02*
X0229181Y0225939D01*
X0231029Y0227538D02*
X0242301Y0227538D01*
X0242301Y0229136D02*
X0231691Y0229136D01*
X0231781Y0230735D02*
X0242301Y0230735D01*
X0242301Y0232333D02*
X0231368Y0232333D01*
X0230257Y0233932D02*
X0242301Y0233932D01*
X0242301Y0235530D02*
X0228403Y0235530D01*
X0226804Y0237129D02*
X0242301Y0237129D01*
X0242301Y0238727D02*
X0227065Y0238727D01*
X0227504Y0240326D02*
X0242301Y0240326D01*
X0242301Y0241924D02*
X0227504Y0241924D01*
X0227462Y0243523D02*
X0242301Y0243523D01*
X0242301Y0245121D02*
X0226494Y0245121D01*
X0227277Y0246720D02*
X0242301Y0246720D01*
X0242301Y0248318D02*
X0227504Y0248318D01*
X0228996Y0249917D02*
X0242301Y0249917D01*
X0242301Y0251515D02*
X0235015Y0251515D01*
X0236267Y0253114D02*
X0242301Y0253114D01*
X0242301Y0254712D02*
X0236781Y0254712D01*
X0236781Y0256311D02*
X0242301Y0256311D01*
X0242301Y0257909D02*
X0236129Y0257909D01*
X0234681Y0259508D02*
X0242301Y0259508D01*
X0242301Y0261106D02*
X0209761Y0261106D01*
X0208714Y0262705D02*
X0242301Y0262705D01*
X0242301Y0264303D02*
X0207385Y0264303D01*
X0211359Y0259508D02*
X0226755Y0259508D01*
X0224544Y0257909D02*
X0212958Y0257909D01*
X0214556Y0256311D02*
X0222945Y0256311D01*
X0221347Y0254712D02*
X0215706Y0254712D01*
X0216058Y0253114D02*
X0218093Y0253114D01*
X0216800Y0246252D02*
X0216867Y0246091D01*
X0217613Y0245344D01*
X0216867Y0244598D01*
X0216800Y0244437D01*
X0216733Y0244598D01*
X0215987Y0245344D01*
X0216733Y0246091D01*
X0216800Y0246252D01*
X0216210Y0245121D02*
X0217390Y0245121D01*
X0216818Y0238727D02*
X0216782Y0238727D01*
X0211658Y0241604D02*
X0205540Y0241604D01*
X0201800Y0245344D01*
X0199250Y0249917D02*
X0173041Y0249917D01*
X0172966Y0251515D02*
X0206350Y0251515D01*
X0206096Y0249917D02*
X0204350Y0249917D01*
X0205308Y0253114D02*
X0172304Y0253114D01*
X0172060Y0254712D02*
X0203710Y0254712D01*
X0201289Y0256311D02*
X0172060Y0256311D01*
X0172060Y0257909D02*
X0199917Y0257909D01*
X0199319Y0259508D02*
X0172060Y0259508D01*
X0172060Y0261106D02*
X0199319Y0261106D01*
X0199886Y0262705D02*
X0172060Y0262705D01*
X0172060Y0264303D02*
X0201215Y0264303D01*
X0197420Y0248318D02*
X0172612Y0248318D01*
X0166548Y0232333D02*
X0135833Y0232333D01*
X0131800Y0235344D02*
X0131800Y0185344D01*
X0131800Y0135344D01*
X0131800Y0085344D01*
X0126800Y0080344D01*
X0126560Y0086869D02*
X0127040Y0086869D01*
X0127800Y0088467D02*
X0125800Y0088467D01*
X0125800Y0090066D02*
X0127800Y0090066D01*
X0127800Y0091664D02*
X0125800Y0091664D01*
X0125800Y0093263D02*
X0127800Y0093263D01*
X0127800Y0094861D02*
X0125800Y0094861D01*
X0125800Y0096460D02*
X0127800Y0096460D01*
X0127800Y0098058D02*
X0125800Y0098058D01*
X0125800Y0099657D02*
X0127800Y0099657D01*
X0127800Y0101255D02*
X0125800Y0101255D01*
X0125800Y0102854D02*
X0127800Y0102854D01*
X0127800Y0104452D02*
X0125464Y0104452D01*
X0124251Y0106051D02*
X0127800Y0106051D01*
X0127800Y0107649D02*
X0122652Y0107649D01*
X0121054Y0109248D02*
X0127800Y0109248D01*
X0127800Y0110846D02*
X0119455Y0110846D01*
X0117857Y0112445D02*
X0127800Y0112445D01*
X0127800Y0114043D02*
X0116258Y0114043D01*
X0115963Y0115642D02*
X0127800Y0115642D01*
X0127800Y0117240D02*
X0118240Y0117240D01*
X0119068Y0118839D02*
X0127800Y0118839D01*
X0127800Y0120437D02*
X0119281Y0120437D01*
X0118991Y0122036D02*
X0127800Y0122036D01*
X0127800Y0123634D02*
X0118054Y0123634D01*
X0111800Y0105344D02*
X0051800Y0165344D01*
X0046800Y0162844D02*
X0081800Y0127844D01*
X0081800Y0122844D01*
X0077398Y0125233D02*
X0076202Y0125233D01*
X0075800Y0126831D02*
X0077156Y0126831D01*
X0076819Y0123634D02*
X0076781Y0123634D01*
X0076781Y0122036D02*
X0076819Y0122036D01*
X0077406Y0120437D02*
X0076194Y0120437D01*
X0074839Y0118839D02*
X0078761Y0118839D01*
X0077938Y0114043D02*
X0097444Y0114043D01*
X0095846Y0115642D02*
X0060963Y0115642D01*
X0063240Y0117240D02*
X0094247Y0117240D01*
X0092649Y0118839D02*
X0084839Y0118839D01*
X0086194Y0120437D02*
X0091050Y0120437D01*
X0089452Y0122036D02*
X0086781Y0122036D01*
X0086781Y0123634D02*
X0087853Y0123634D01*
X0086255Y0125233D02*
X0086202Y0125233D01*
X0079151Y0112445D02*
X0099043Y0112445D01*
X0100641Y0110846D02*
X0079700Y0110846D01*
X0079700Y0109248D02*
X0102240Y0109248D01*
X0103838Y0107649D02*
X0079700Y0107649D01*
X0079700Y0106051D02*
X0105437Y0106051D01*
X0106819Y0104452D02*
X0079651Y0104452D01*
X0078989Y0102854D02*
X0107440Y0102854D01*
X0108845Y0101255D02*
X0077547Y0101255D01*
X0076122Y0099657D02*
X0117800Y0099657D01*
X0117732Y0101255D02*
X0114755Y0101255D01*
X0135800Y0088467D02*
X0197878Y0088467D01*
X0197040Y0086869D02*
X0179820Y0086869D01*
X0181187Y0085270D02*
X0196819Y0085270D01*
X0197101Y0083672D02*
X0181781Y0083672D01*
X0181781Y0082073D02*
X0198027Y0082073D01*
X0200447Y0080475D02*
X0181600Y0080475D01*
X0181600Y0078876D02*
X0202046Y0078876D01*
X0204488Y0077277D02*
X0181600Y0077277D01*
X0173780Y0086869D02*
X0136560Y0086869D01*
X0148229Y0058095D02*
X0089281Y0058095D01*
X0089133Y0056497D02*
X0147600Y0056497D01*
X0147600Y0054898D02*
X0121322Y0054898D01*
X0117278Y0054898D02*
X0088398Y0054898D01*
X0088389Y0053300D02*
X0115211Y0053300D01*
X0114471Y0051701D02*
X0089129Y0051701D01*
X0089281Y0050103D02*
X0114319Y0050103D01*
X0114671Y0048504D02*
X0088929Y0048504D01*
X0087906Y0046906D02*
X0115694Y0046906D01*
X0119300Y0050344D02*
X0164300Y0050344D01*
X0169300Y0045344D01*
X0175363Y0045344D01*
X0175560Y0045541D01*
X0175560Y0046604D01*
X0171160Y0050103D02*
X0170199Y0050103D01*
X0171160Y0051701D02*
X0168600Y0051701D01*
X0168844Y0053300D02*
X0171500Y0053300D01*
X0170898Y0054898D02*
X0172631Y0054898D01*
X0171633Y0056497D02*
X0174230Y0056497D01*
X0175048Y0058095D02*
X0171781Y0058095D01*
X0171600Y0059694D02*
X0176784Y0059694D01*
X0172036Y0061292D02*
X0242301Y0061292D01*
X0242301Y0059694D02*
X0234181Y0059694D01*
X0233093Y0060144D02*
X0235482Y0059155D01*
X0237310Y0057326D01*
X0238300Y0054937D01*
X0238300Y0045752D01*
X0237310Y0043363D01*
X0235482Y0041534D01*
X0233093Y0040544D01*
X0230507Y0040544D01*
X0228118Y0041534D01*
X0226290Y0043363D01*
X0225300Y0045752D01*
X0225300Y0054937D01*
X0226290Y0057326D01*
X0228118Y0059155D01*
X0230507Y0060144D01*
X0233093Y0060144D01*
X0229419Y0059694D02*
X0219181Y0059694D01*
X0218093Y0060144D02*
X0220482Y0059155D01*
X0222310Y0057326D01*
X0223300Y0054937D01*
X0223300Y0045752D01*
X0222310Y0043363D01*
X0220482Y0041534D01*
X0218093Y0040544D01*
X0215507Y0040544D01*
X0213118Y0041534D01*
X0211290Y0043363D01*
X0210300Y0045752D01*
X0210300Y0054937D01*
X0211290Y0057326D01*
X0213118Y0059155D01*
X0215507Y0060144D01*
X0218093Y0060144D01*
X0214419Y0059694D02*
X0204181Y0059694D01*
X0203093Y0060144D02*
X0205482Y0059155D01*
X0207310Y0057326D01*
X0208300Y0054937D01*
X0208300Y0045752D01*
X0207310Y0043363D01*
X0205482Y0041534D01*
X0203093Y0040544D01*
X0200507Y0040544D01*
X0198118Y0041534D01*
X0196290Y0043363D01*
X0195300Y0045752D01*
X0195300Y0054937D01*
X0196290Y0057326D01*
X0198118Y0059155D01*
X0200507Y0060144D01*
X0203093Y0060144D01*
X0199419Y0059694D02*
X0181816Y0059694D01*
X0183552Y0058095D02*
X0197058Y0058095D01*
X0195946Y0056497D02*
X0184370Y0056497D01*
X0185969Y0054898D02*
X0195300Y0054898D01*
X0195300Y0053300D02*
X0187100Y0053300D01*
X0187440Y0051701D02*
X0195300Y0051701D01*
X0195300Y0050103D02*
X0187440Y0050103D01*
X0187440Y0048504D02*
X0195300Y0048504D01*
X0195300Y0046906D02*
X0187440Y0046906D01*
X0187440Y0045307D02*
X0195484Y0045307D01*
X0196146Y0043709D02*
X0187421Y0043709D01*
X0187265Y0042110D02*
X0197542Y0042110D01*
X0195276Y0038913D02*
X0242301Y0038913D01*
X0242301Y0037315D02*
X0196375Y0037315D01*
X0197651Y0035716D02*
X0217616Y0035716D01*
X0216258Y0034118D02*
X0199249Y0034118D01*
X0200579Y0032519D02*
X0216025Y0032519D01*
X0216025Y0030921D02*
X0201058Y0030921D01*
X0201058Y0029322D02*
X0208733Y0029322D01*
X0202512Y0027724D02*
X0201088Y0027724D01*
X0201800Y0021252D02*
X0201867Y0021091D01*
X0202613Y0020344D01*
X0201867Y0019598D01*
X0201800Y0019437D01*
X0201733Y0019598D01*
X0200987Y0020344D01*
X0201733Y0021091D01*
X0201800Y0021252D01*
X0201600Y0019731D02*
X0202000Y0019731D01*
X0202140Y0013337D02*
X0201460Y0013337D01*
X0198015Y0011739D02*
X0242301Y0011739D01*
X0242301Y0013337D02*
X0216015Y0013337D01*
X0217614Y0014936D02*
X0242301Y0014936D01*
X0242301Y0016534D02*
X0219212Y0016534D01*
X0220646Y0018133D02*
X0242301Y0018133D01*
X0242301Y0019731D02*
X0221200Y0019731D01*
X0221200Y0021330D02*
X0242301Y0021330D01*
X0242301Y0022928D02*
X0221200Y0022928D01*
X0222205Y0024527D02*
X0226321Y0024527D01*
X0225984Y0035716D02*
X0242301Y0035716D01*
X0242301Y0034118D02*
X0237198Y0034118D01*
X0238132Y0032519D02*
X0242301Y0032519D01*
X0242301Y0030921D02*
X0238150Y0030921D01*
X0238150Y0029322D02*
X0242301Y0029322D01*
X0242301Y0027724D02*
X0238150Y0027724D01*
X0238150Y0026125D02*
X0242301Y0026125D01*
X0242301Y0024527D02*
X0237279Y0024527D01*
X0242301Y0010140D02*
X0005000Y0010140D01*
X0005000Y0008542D02*
X0242301Y0008542D01*
X0242301Y0006943D02*
X0005000Y0006943D01*
X0005000Y0011739D02*
X0158362Y0011739D01*
X0157240Y0013337D02*
X0005000Y0013337D01*
X0005000Y0014936D02*
X0156819Y0014936D01*
X0156901Y0016534D02*
X0005000Y0016534D01*
X0005000Y0018133D02*
X0157563Y0018133D01*
X0159374Y0019731D02*
X0005000Y0019731D01*
X0005000Y0021330D02*
X0128771Y0021330D01*
X0128978Y0021122D02*
X0130809Y0020363D01*
X0132791Y0020363D01*
X0134622Y0021122D01*
X0136023Y0022523D01*
X0136781Y0024354D01*
X0136781Y0026335D01*
X0136023Y0028166D01*
X0135800Y0028389D01*
X0135800Y0032300D01*
X0136023Y0032523D01*
X0136781Y0034354D01*
X0136781Y0036335D01*
X0136023Y0038166D01*
X0134622Y0039567D01*
X0132791Y0040326D01*
X0130809Y0040326D01*
X0128978Y0039567D01*
X0127577Y0038166D01*
X0126819Y0036335D01*
X0126819Y0034354D01*
X0127577Y0032523D01*
X0127800Y0032300D01*
X0127800Y0028389D01*
X0127577Y0028166D01*
X0126819Y0026335D01*
X0126819Y0024354D01*
X0127577Y0022523D01*
X0128978Y0021122D01*
X0127409Y0022928D02*
X0005000Y0022928D01*
X0005000Y0024527D02*
X0058821Y0024527D01*
X0057657Y0026125D02*
X0005000Y0026125D01*
X0005000Y0027724D02*
X0057478Y0027724D01*
X0057478Y0029322D02*
X0005000Y0029322D01*
X0005000Y0030921D02*
X0057478Y0030921D01*
X0057478Y0032519D02*
X0005000Y0032519D01*
X0005000Y0034118D02*
X0057478Y0034118D01*
X0058375Y0035716D02*
X0005000Y0035716D01*
X0005000Y0037315D02*
X0060787Y0037315D01*
X0062212Y0038913D02*
X0005000Y0038913D01*
X0005000Y0040512D02*
X0052172Y0040512D01*
X0050573Y0042110D02*
X0043950Y0042110D01*
X0045548Y0043709D02*
X0048975Y0043709D01*
X0050080Y0042604D02*
X0050080Y0042604D01*
X0049300Y0040344D02*
X0055363Y0034281D01*
X0055363Y0030344D01*
X0054182Y0030226D02*
X0014418Y0030226D01*
X0009300Y0035344D01*
X0005000Y0042110D02*
X0034377Y0042110D01*
X0032779Y0043709D02*
X0005000Y0043709D01*
X0005000Y0045307D02*
X0031180Y0045307D01*
X0029582Y0046906D02*
X0005000Y0046906D01*
X0005000Y0048504D02*
X0027983Y0048504D01*
X0026385Y0050103D02*
X0005000Y0050103D01*
X0005000Y0051701D02*
X0024786Y0051701D01*
X0023188Y0053300D02*
X0005000Y0053300D01*
X0005000Y0054898D02*
X0021589Y0054898D01*
X0019991Y0056497D02*
X0005000Y0056497D01*
X0005000Y0058095D02*
X0018392Y0058095D01*
X0016794Y0059694D02*
X0005000Y0059694D01*
X0005000Y0061292D02*
X0013808Y0061292D01*
X0012425Y0062891D02*
X0005000Y0062891D01*
X0005000Y0064489D02*
X0011819Y0064489D01*
X0011819Y0066088D02*
X0005000Y0066088D01*
X0005000Y0067686D02*
X0012379Y0067686D01*
X0013696Y0069285D02*
X0005000Y0069285D01*
X0005000Y0070883D02*
X0022262Y0070883D01*
X0020664Y0069285D02*
X0019904Y0069285D01*
X0021516Y0073128D02*
X0025948Y0077561D01*
X0026516Y0077561D01*
X0028192Y0078876D02*
X0005000Y0078876D01*
X0005000Y0077277D02*
X0029790Y0077277D01*
X0032305Y0075679D02*
X0005000Y0075679D01*
X0005000Y0074080D02*
X0025459Y0074080D01*
X0023861Y0072482D02*
X0005000Y0072482D01*
X0005000Y0080475D02*
X0009902Y0080475D01*
X0008444Y0082073D02*
X0005000Y0082073D01*
X0005000Y0083672D02*
X0007782Y0083672D01*
X0007600Y0085270D02*
X0005000Y0085270D01*
X0005000Y0086869D02*
X0007720Y0086869D01*
X0008383Y0088467D02*
X0005000Y0088467D01*
X0005000Y0090066D02*
X0009753Y0090066D01*
X0005000Y0091664D02*
X0043575Y0091664D01*
X0042329Y0090066D02*
X0033026Y0090066D01*
X0034890Y0088467D02*
X0041819Y0088467D01*
X0041819Y0086869D02*
X0036488Y0086869D01*
X0038087Y0085270D02*
X0042475Y0085270D01*
X0043929Y0083672D02*
X0039186Y0083672D01*
X0039608Y0082073D02*
X0044067Y0082073D01*
X0041800Y0080617D02*
X0041800Y0095344D01*
X0044300Y0097844D01*
X0050363Y0097844D01*
X0052478Y0098058D02*
X0005000Y0098058D01*
X0005000Y0096460D02*
X0052478Y0096460D01*
X0052478Y0094861D02*
X0005000Y0094861D01*
X0005000Y0093263D02*
X0052808Y0093263D01*
X0054237Y0091664D02*
X0050025Y0091664D01*
X0051371Y0090066D02*
X0052060Y0090066D01*
X0047936Y0087844D02*
X0046800Y0087844D01*
X0047936Y0087844D02*
X0052918Y0082862D01*
X0050691Y0080635D02*
X0055375Y0075951D01*
X0058264Y0073451D01*
X0052229Y0072416D02*
X0052229Y0074643D01*
X0048463Y0078408D01*
X0046236Y0076181D02*
X0041800Y0080617D01*
X0040119Y0077844D02*
X0036800Y0077844D01*
X0034300Y0080344D01*
X0034300Y0082844D01*
X0034298Y0082876D01*
X0034293Y0082907D01*
X0034284Y0082938D01*
X0034272Y0082967D01*
X0034256Y0082995D01*
X0034238Y0083021D01*
X0034217Y0083045D01*
X0034193Y0083066D01*
X0034167Y0083084D01*
X0034139Y0083100D01*
X0034110Y0083112D01*
X0034079Y0083121D01*
X0034048Y0083126D01*
X0034016Y0083128D01*
X0032084Y0083128D01*
X0028443Y0088467D02*
X0025217Y0088467D01*
X0025880Y0086869D02*
X0026844Y0086869D01*
X0023847Y0090066D02*
X0030307Y0090066D01*
X0025194Y0082073D02*
X0025156Y0082073D01*
X0026593Y0080475D02*
X0023698Y0080475D01*
X0029544Y0074080D02*
X0033520Y0074080D01*
X0034476Y0072482D02*
X0031142Y0072482D01*
X0032741Y0070883D02*
X0033845Y0070883D01*
X0034300Y0065344D02*
X0029300Y0065344D01*
X0027084Y0067561D01*
X0034300Y0065344D02*
X0035400Y0065344D01*
X0039555Y0061189D01*
X0046800Y0065344D02*
X0054300Y0057844D01*
X0064573Y0057844D01*
X0070137Y0052281D01*
X0074421Y0048504D02*
X0077165Y0048504D01*
X0078831Y0046906D02*
X0072823Y0046906D01*
X0071224Y0045307D02*
X0147600Y0045307D01*
X0147767Y0043709D02*
X0072980Y0043709D01*
X0073960Y0042110D02*
X0148429Y0042110D01*
X0149865Y0040512D02*
X0074281Y0040512D01*
X0074099Y0038913D02*
X0128324Y0038913D01*
X0127225Y0037315D02*
X0073315Y0037315D01*
X0071143Y0035716D02*
X0126819Y0035716D01*
X0126917Y0034118D02*
X0068996Y0034118D01*
X0068996Y0032519D02*
X0127581Y0032519D01*
X0127800Y0030921D02*
X0068996Y0030921D01*
X0068996Y0029322D02*
X0127800Y0029322D01*
X0127394Y0027724D02*
X0068996Y0027724D01*
X0068817Y0026125D02*
X0126819Y0026125D01*
X0126819Y0024527D02*
X0067653Y0024527D01*
X0063237Y0030344D02*
X0064300Y0031407D01*
X0064300Y0035344D01*
X0069300Y0040344D01*
X0062533Y0040512D02*
X0056067Y0040512D01*
X0057666Y0042110D02*
X0060934Y0042110D01*
X0059336Y0043709D02*
X0059264Y0043709D01*
X0047376Y0045307D02*
X0047147Y0045307D01*
X0041527Y0045344D02*
X0036800Y0045344D01*
X0016800Y0065344D01*
X0039300Y0050344D02*
X0042073Y0050344D01*
X0046236Y0054508D01*
X0048463Y0052281D02*
X0041527Y0045344D01*
X0054846Y0063117D02*
X0065981Y0074253D01*
X0070137Y0078408D01*
X0075813Y0084085D01*
X0070363Y0087543D02*
X0070363Y0097844D01*
X0070363Y0103907D01*
X0074300Y0107844D01*
X0068761Y0118839D02*
X0064068Y0118839D01*
X0064281Y0120437D02*
X0067406Y0120437D01*
X0066819Y0122036D02*
X0063991Y0122036D01*
X0063300Y0123634D02*
X0066819Y0123634D01*
X0067398Y0125233D02*
X0063300Y0125233D01*
X0063300Y0126831D02*
X0067800Y0126831D01*
X0067800Y0128430D02*
X0063300Y0128430D01*
X0063300Y0130028D02*
X0066459Y0130028D01*
X0064861Y0131627D02*
X0063300Y0131627D01*
X0064300Y0137844D02*
X0071800Y0130344D01*
X0071800Y0122844D01*
X0064300Y0137844D02*
X0041800Y0160344D01*
X0041800Y0172844D01*
X0038296Y0176385D02*
X0036760Y0176385D01*
X0036781Y0174787D02*
X0037213Y0174787D01*
X0036819Y0173188D02*
X0036298Y0173188D01*
X0035800Y0171590D02*
X0036928Y0171590D01*
X0037609Y0169991D02*
X0035800Y0169991D01*
X0035800Y0168393D02*
X0037800Y0168393D01*
X0037800Y0166794D02*
X0036007Y0166794D01*
X0037606Y0165196D02*
X0037800Y0165196D01*
X0031800Y0165344D02*
X0031800Y0175344D01*
X0034585Y0179582D02*
X0044015Y0179582D01*
X0042502Y0177984D02*
X0036098Y0177984D01*
X0046800Y0175344D02*
X0046800Y0162844D01*
X0037482Y0154006D02*
X0017154Y0154006D01*
X0016897Y0153749D02*
X0016897Y0153749D01*
X0016897Y0153749D01*
X0018022Y0154874D02*
X0018022Y0154874D01*
X0014070Y0152408D02*
X0039080Y0152408D01*
X0040679Y0150809D02*
X0005000Y0150809D01*
X0008568Y0145014D02*
X0014631Y0145014D01*
X0018568Y0141077D01*
X0018022Y0147280D02*
X0018022Y0147280D01*
X0017689Y0147612D02*
X0043876Y0147612D01*
X0042925Y0146013D02*
X0022960Y0146013D01*
X0025066Y0144415D02*
X0042059Y0144415D01*
X0041819Y0142816D02*
X0025892Y0142816D01*
X0026168Y0141218D02*
X0041002Y0141218D01*
X0040450Y0139619D02*
X0026009Y0139619D01*
X0025347Y0138021D02*
X0040450Y0138021D01*
X0040450Y0136422D02*
X0023642Y0136422D01*
X0013493Y0136422D02*
X0005000Y0136422D01*
X0005000Y0134824D02*
X0040450Y0134824D01*
X0040600Y0133225D02*
X0005000Y0133225D01*
X0005000Y0131627D02*
X0041720Y0131627D01*
X0046800Y0136781D02*
X0046800Y0142844D01*
X0042277Y0149211D02*
X0014503Y0149211D01*
X0011789Y0138021D02*
X0005000Y0138021D01*
X0005000Y0130028D02*
X0055300Y0130028D01*
X0055300Y0128430D02*
X0005000Y0128430D01*
X0005000Y0126831D02*
X0055300Y0126831D01*
X0055300Y0125233D02*
X0005000Y0125233D01*
X0005000Y0123634D02*
X0055300Y0123634D01*
X0054609Y0122036D02*
X0005000Y0122036D01*
X0005000Y0120437D02*
X0054319Y0120437D01*
X0054532Y0118839D02*
X0005000Y0118839D01*
X0005000Y0114043D02*
X0050662Y0114043D01*
X0049449Y0112445D02*
X0005000Y0112445D01*
X0005000Y0110846D02*
X0010881Y0110846D01*
X0010288Y0110601D02*
X0008544Y0108856D01*
X0007600Y0106578D01*
X0007600Y0104111D01*
X0008544Y0101832D01*
X0010288Y0100088D01*
X0012567Y0099144D01*
X0021033Y0099144D01*
X0023312Y0100088D01*
X0025056Y0101832D01*
X0026000Y0104111D01*
X0026000Y0106578D01*
X0025056Y0108856D01*
X0023312Y0110601D01*
X0021033Y0111544D01*
X0012567Y0111544D01*
X0010288Y0110601D01*
X0008935Y0109248D02*
X0005000Y0109248D01*
X0005000Y0107649D02*
X0008044Y0107649D01*
X0007600Y0106051D02*
X0005000Y0106051D01*
X0005000Y0104452D02*
X0007600Y0104452D01*
X0008121Y0102854D02*
X0005000Y0102854D01*
X0005000Y0101255D02*
X0009121Y0101255D01*
X0011330Y0099657D02*
X0005000Y0099657D01*
X0022270Y0099657D02*
X0052478Y0099657D01*
X0051053Y0101255D02*
X0024479Y0101255D01*
X0025479Y0102854D02*
X0049611Y0102854D01*
X0048949Y0104452D02*
X0026000Y0104452D01*
X0026000Y0106051D02*
X0048900Y0106051D01*
X0048900Y0107649D02*
X0025556Y0107649D01*
X0024665Y0109248D02*
X0048900Y0109248D01*
X0048900Y0110846D02*
X0022719Y0110846D01*
X0051880Y0131627D02*
X0055300Y0131627D01*
X0055300Y0133225D02*
X0053000Y0133225D01*
X0053150Y0134824D02*
X0054164Y0134824D01*
X0054300Y0107844D02*
X0058237Y0103907D01*
X0058237Y0097844D01*
X0058237Y0090308D01*
X0063455Y0085089D01*
X0055145Y0085089D02*
X0065981Y0074253D01*
X0054846Y0063117D02*
X0044009Y0073954D01*
X0040119Y0077844D01*
X0060503Y0107299D02*
X0060503Y0107299D01*
X0099300Y0135344D02*
X0099300Y0140344D01*
X0064300Y0175344D01*
X0060002Y0177984D02*
X0058300Y0177984D01*
X0058300Y0179582D02*
X0061515Y0179582D01*
X0058300Y0181181D02*
X0065592Y0181181D01*
X0068197Y0182779D02*
X0058300Y0182779D01*
X0062180Y0184378D02*
X0070176Y0184378D01*
X0071775Y0185976D02*
X0063578Y0185976D01*
X0063819Y0187575D02*
X0073373Y0187575D01*
X0074972Y0189173D02*
X0063819Y0189173D01*
X0063819Y0190772D02*
X0076570Y0190772D01*
X0077800Y0192370D02*
X0063819Y0192370D01*
X0063819Y0193969D02*
X0077800Y0193969D01*
X0077800Y0195567D02*
X0063071Y0195567D01*
X0058060Y0190344D02*
X0058060Y0189104D01*
X0054300Y0185344D01*
X0054300Y0175344D01*
X0059300Y0170344D01*
X0059340Y0176385D02*
X0058916Y0176385D01*
X0050300Y0179582D02*
X0049585Y0179582D01*
X0045666Y0197166D02*
X0077800Y0197166D01*
X0077800Y0198764D02*
X0046537Y0198764D01*
X0046781Y0200363D02*
X0077800Y0200363D01*
X0077800Y0201961D02*
X0047961Y0201961D01*
X0051972Y0203560D02*
X0077800Y0203560D01*
X0077800Y0205158D02*
X0059771Y0205158D01*
X0061369Y0206757D02*
X0077800Y0206757D01*
X0077800Y0208355D02*
X0062968Y0208355D01*
X0064566Y0209954D02*
X0077800Y0209954D01*
X0077800Y0211552D02*
X0067552Y0211552D01*
X0068783Y0213151D02*
X0077800Y0213151D01*
X0077800Y0214749D02*
X0069281Y0214749D01*
X0069276Y0216348D02*
X0077800Y0216348D01*
X0077800Y0217946D02*
X0068614Y0217946D01*
X0067144Y0219545D02*
X0077800Y0219545D01*
X0077801Y0221144D02*
X0066781Y0221144D01*
X0066198Y0222742D02*
X0078541Y0222742D01*
X0080139Y0224341D02*
X0064848Y0224341D01*
X0060750Y0225939D02*
X0081738Y0225939D01*
X0083336Y0227538D02*
X0058486Y0227538D01*
X0057413Y0230735D02*
X0051187Y0230735D01*
X0053333Y0232333D02*
X0055267Y0232333D01*
X0054494Y0233932D02*
X0054106Y0233932D01*
X0054281Y0235530D02*
X0054319Y0235530D01*
X0054648Y0237129D02*
X0053952Y0237129D01*
X0053340Y0238727D02*
X0055638Y0238727D01*
X0053050Y0244094D02*
X0049300Y0240344D01*
X0049300Y0235344D01*
X0047413Y0230735D02*
X0041187Y0230735D01*
X0043333Y0232333D02*
X0045267Y0232333D01*
X0044494Y0233932D02*
X0044106Y0233932D01*
X0044281Y0235530D02*
X0044319Y0235530D01*
X0044648Y0237129D02*
X0043952Y0237129D01*
X0042962Y0238727D02*
X0045300Y0238727D01*
X0045300Y0240326D02*
X0043600Y0240326D01*
X0044300Y0245344D02*
X0039850Y0245344D01*
X0038600Y0246594D01*
X0038600Y0244094D01*
X0038600Y0241594D02*
X0038600Y0236044D01*
X0039300Y0235344D01*
X0037413Y0230735D02*
X0018622Y0230735D01*
X0018622Y0229136D02*
X0083464Y0229136D01*
X0082282Y0230735D02*
X0061187Y0230735D01*
X0063333Y0232333D02*
X0081819Y0232333D01*
X0081169Y0233932D02*
X0079931Y0233932D01*
X0084300Y0237844D02*
X0086800Y0240344D01*
X0086800Y0247844D01*
X0096800Y0257844D01*
X0098082Y0262705D02*
X0118503Y0262705D01*
X0116905Y0261106D02*
X0100583Y0261106D01*
X0101503Y0259508D02*
X0115306Y0259508D01*
X0113708Y0257909D02*
X0101781Y0257909D01*
X0102878Y0256311D02*
X0112109Y0256311D01*
X0110511Y0254712D02*
X0103918Y0254712D01*
X0104281Y0253114D02*
X0108912Y0253114D01*
X0107314Y0251515D02*
X0104141Y0251515D01*
X0103417Y0249917D02*
X0105829Y0249917D01*
X0105300Y0248318D02*
X0101389Y0248318D01*
X0098832Y0246720D02*
X0105300Y0246720D01*
X0105300Y0245121D02*
X0103284Y0245121D01*
X0100316Y0245121D02*
X0097234Y0245121D01*
X0097934Y0243523D02*
X0095800Y0243523D01*
X0095800Y0241924D02*
X0097063Y0241924D01*
X0096124Y0240326D02*
X0095800Y0240326D01*
X0091800Y0237844D02*
X0091800Y0245344D01*
X0099300Y0252844D01*
X0091800Y0260344D02*
X0081800Y0250344D01*
X0081800Y0242844D01*
X0076800Y0237844D01*
X0072367Y0235530D02*
X0064281Y0235530D01*
X0064106Y0233932D02*
X0073669Y0233932D01*
X0071819Y0237129D02*
X0064000Y0237129D01*
X0064258Y0238727D02*
X0071819Y0238727D01*
X0072436Y0240326D02*
X0065000Y0240326D01*
X0065000Y0241924D02*
X0070298Y0241924D01*
X0069300Y0242844D02*
X0069300Y0235344D01*
X0064300Y0230344D01*
X0029300Y0230344D01*
X0021800Y0237844D01*
X0018331Y0232333D02*
X0035267Y0232333D01*
X0034494Y0233932D02*
X0016692Y0233932D01*
X0018622Y0227538D02*
X0055114Y0227538D01*
X0052850Y0225939D02*
X0018622Y0225939D01*
X0018622Y0224341D02*
X0052028Y0224341D01*
X0051041Y0222742D02*
X0018171Y0222742D01*
X0019769Y0221144D02*
X0044442Y0221144D01*
X0042844Y0219545D02*
X0020500Y0219545D01*
X0020500Y0217946D02*
X0041245Y0217946D01*
X0039647Y0216348D02*
X0020500Y0216348D01*
X0014300Y0207844D02*
X0009300Y0207844D01*
X0006800Y0210344D01*
X0006800Y0221781D01*
X0012863Y0227844D01*
X0009034Y0233932D02*
X0005000Y0233932D01*
X0005000Y0235530D02*
X0034319Y0235530D01*
X0034600Y0237129D02*
X0005000Y0237129D01*
X0005000Y0238727D02*
X0034342Y0238727D01*
X0033600Y0240326D02*
X0005000Y0240326D01*
X0005000Y0241924D02*
X0033600Y0241924D01*
X0033600Y0243523D02*
X0005000Y0243523D01*
X0005000Y0245121D02*
X0033600Y0245121D01*
X0033600Y0246720D02*
X0005000Y0246720D01*
X0005000Y0248318D02*
X0033600Y0248318D01*
X0033600Y0249917D02*
X0005000Y0249917D01*
X0005000Y0251515D02*
X0032472Y0251515D01*
X0033050Y0251594D02*
X0031800Y0250344D01*
X0033050Y0251594D02*
X0038600Y0251594D01*
X0038600Y0249094D02*
X0043050Y0249094D01*
X0044300Y0250344D01*
X0044300Y0260344D01*
X0039300Y0265344D01*
X0036010Y0269099D02*
X0005000Y0269099D01*
X0005000Y0270697D02*
X0038430Y0270697D01*
X0039604Y0272296D02*
X0005000Y0272296D01*
X0005000Y0273894D02*
X0039604Y0273894D01*
X0039604Y0275493D02*
X0005000Y0275493D01*
X0005000Y0277091D02*
X0039604Y0277091D01*
X0039604Y0278690D02*
X0005000Y0278690D01*
X0005000Y0280288D02*
X0040084Y0280288D01*
X0049169Y0269099D02*
X0124428Y0269099D01*
X0125109Y0270697D02*
X0050765Y0270697D01*
X0051122Y0272296D02*
X0127030Y0272296D01*
X0123299Y0267500D02*
X0047678Y0267500D01*
X0046080Y0265902D02*
X0121700Y0265902D01*
X0120102Y0264303D02*
X0094885Y0264303D01*
X0088715Y0264303D02*
X0045998Y0264303D01*
X0047597Y0262705D02*
X0056623Y0262705D01*
X0055238Y0261106D02*
X0048300Y0261106D01*
X0048300Y0259508D02*
X0055000Y0259508D01*
X0053050Y0254094D02*
X0044300Y0245344D01*
X0038600Y0254094D02*
X0035550Y0254094D01*
X0034300Y0255344D01*
X0034300Y0262844D01*
X0030313Y0265902D02*
X0005000Y0265902D01*
X0005000Y0267500D02*
X0032524Y0267500D01*
X0029513Y0264303D02*
X0005000Y0264303D01*
X0005000Y0262705D02*
X0029319Y0262705D01*
X0029628Y0261106D02*
X0005000Y0261106D01*
X0005000Y0259508D02*
X0030300Y0259508D01*
X0030300Y0257909D02*
X0005000Y0257909D01*
X0005000Y0256311D02*
X0030300Y0256311D01*
X0030300Y0254712D02*
X0005000Y0254712D01*
X0005000Y0253114D02*
X0030894Y0253114D01*
X0048300Y0256311D02*
X0049609Y0256311D01*
X0048300Y0257909D02*
X0051807Y0257909D01*
X0053050Y0254094D02*
X0060000Y0254094D01*
X0060000Y0251594D02*
X0065550Y0251594D01*
X0070737Y0246407D01*
X0074300Y0246407D01*
X0069300Y0242844D02*
X0063050Y0249094D01*
X0060000Y0249094D01*
X0060000Y0244094D02*
X0053050Y0244094D01*
X0060000Y0241594D02*
X0060000Y0236044D01*
X0059300Y0235344D01*
X0065000Y0243523D02*
X0067965Y0243523D01*
X0066366Y0245121D02*
X0065000Y0245121D01*
X0070363Y0254281D02*
X0074300Y0254281D01*
X0070363Y0254281D02*
X0065550Y0259094D01*
X0060000Y0259094D01*
X0067286Y0262705D02*
X0087386Y0262705D01*
X0086819Y0261106D02*
X0069195Y0261106D01*
X0070794Y0259508D02*
X0071239Y0259508D01*
X0077361Y0259508D02*
X0085306Y0259508D01*
X0083708Y0257909D02*
X0079157Y0257909D01*
X0079954Y0256311D02*
X0082109Y0256311D01*
X0080511Y0254712D02*
X0080300Y0254712D01*
X0091800Y0237844D02*
X0086800Y0232844D01*
X0081800Y0220344D02*
X0081800Y0190344D01*
X0069300Y0177844D01*
X0056800Y0207844D02*
X0049300Y0207844D01*
X0044300Y0205344D02*
X0044300Y0210344D01*
X0046800Y0212844D01*
X0054300Y0212844D01*
X0061800Y0220344D01*
X0064300Y0215344D02*
X0056800Y0207844D01*
X0051800Y0217844D02*
X0046800Y0217844D01*
X0039300Y0210344D01*
X0039300Y0202844D01*
X0041800Y0200344D01*
X0051800Y0217844D02*
X0056800Y0222844D01*
X0081800Y0220344D02*
X0101800Y0240344D01*
X0101800Y0232844D02*
X0086800Y0217844D01*
X0105136Y0211552D02*
X0111909Y0211552D01*
X0116800Y0210344D02*
X0116800Y0187844D01*
X0121418Y0185976D02*
X0126819Y0185976D01*
X0126819Y0184378D02*
X0120378Y0184378D01*
X0121781Y0187575D02*
X0127332Y0187575D01*
X0127800Y0189173D02*
X0121641Y0189173D01*
X0120917Y0190772D02*
X0127800Y0190772D01*
X0127800Y0192370D02*
X0120800Y0192370D01*
X0120800Y0193969D02*
X0127800Y0193969D01*
X0127800Y0195567D02*
X0120800Y0195567D01*
X0120800Y0197166D02*
X0127800Y0197166D01*
X0127800Y0198764D02*
X0120800Y0198764D01*
X0120800Y0200363D02*
X0127800Y0200363D01*
X0127800Y0201961D02*
X0120800Y0201961D01*
X0120800Y0203560D02*
X0127800Y0203560D01*
X0127800Y0205158D02*
X0120800Y0205158D01*
X0120800Y0206757D02*
X0127800Y0206757D01*
X0127800Y0208355D02*
X0121368Y0208355D01*
X0121781Y0209954D02*
X0127800Y0209954D01*
X0127800Y0211552D02*
X0121691Y0211552D01*
X0121029Y0213151D02*
X0127800Y0213151D01*
X0127800Y0214749D02*
X0119182Y0214749D01*
X0125136Y0229136D02*
X0127800Y0229136D01*
X0127800Y0230735D02*
X0126318Y0230735D01*
X0126781Y0232333D02*
X0127767Y0232333D01*
X0126994Y0233932D02*
X0126741Y0233932D01*
X0126819Y0235530D02*
X0126079Y0235530D01*
X0125800Y0237129D02*
X0127148Y0237129D01*
X0128138Y0238727D02*
X0125800Y0238727D01*
X0121800Y0232844D02*
X0121800Y0252844D01*
X0143587Y0280288D02*
X0050642Y0280288D01*
X0005000Y0281887D02*
X0145186Y0281887D01*
X0146784Y0283485D02*
X0005000Y0283485D01*
X0005000Y0285084D02*
X0148383Y0285084D01*
X0150613Y0286682D02*
X0005000Y0286682D01*
X0005000Y0288281D02*
X0242301Y0288281D01*
X0242301Y0289880D02*
X0005000Y0289880D01*
X0005000Y0291478D02*
X0242301Y0291478D01*
X0242301Y0293077D02*
X0005000Y0293077D01*
X0005000Y0294675D02*
X0242301Y0294675D01*
X0242301Y0296274D02*
X0005000Y0296274D01*
X0005000Y0297872D02*
X0242301Y0297872D01*
X0242301Y0299471D02*
X0005000Y0299471D01*
X0005000Y0232333D02*
X0007395Y0232333D01*
X0007104Y0230735D02*
X0005000Y0230735D01*
X0005000Y0229136D02*
X0007104Y0229136D01*
X0006899Y0227538D02*
X0005000Y0227538D01*
X0005000Y0225939D02*
X0005301Y0225939D01*
X0005000Y0205158D02*
X0006329Y0205158D01*
X0005000Y0203560D02*
X0009816Y0203560D01*
X0009649Y0201961D02*
X0005000Y0201961D01*
X0005000Y0200363D02*
X0008100Y0200363D01*
X0008100Y0198764D02*
X0005000Y0198764D01*
X0005000Y0197166D02*
X0008100Y0197166D01*
X0008100Y0195567D02*
X0005000Y0195567D01*
X0005000Y0193969D02*
X0009408Y0193969D01*
X0010058Y0192370D02*
X0005000Y0192370D01*
X0005000Y0190772D02*
X0008459Y0190772D01*
X0008100Y0189173D02*
X0005000Y0189173D01*
X0005000Y0187575D02*
X0008100Y0187575D01*
X0008100Y0185976D02*
X0005000Y0185976D01*
X0005000Y0184378D02*
X0008999Y0184378D01*
X0010597Y0182779D02*
X0005000Y0182779D01*
X0005000Y0181181D02*
X0014978Y0181181D01*
X0014978Y0179582D02*
X0005000Y0179582D01*
X0005000Y0177984D02*
X0014978Y0177984D01*
X0014978Y0176385D02*
X0005000Y0176385D01*
X0005000Y0174787D02*
X0014978Y0174787D01*
X0015338Y0173188D02*
X0005000Y0173188D01*
X0005000Y0171590D02*
X0017313Y0171590D01*
X0020737Y0177844D02*
X0020550Y0178031D01*
X0020550Y0181594D01*
X0014300Y0187844D01*
X0094690Y0161999D02*
X0097797Y0161999D01*
X0096800Y0152844D02*
X0101800Y0152844D01*
X0111800Y0162844D01*
X0105790Y0169991D02*
X0102104Y0169991D01*
X0103702Y0171590D02*
X0107889Y0171590D01*
X0121800Y0162844D02*
X0106800Y0147844D01*
X0101800Y0147844D01*
X0104300Y0142844D02*
X0111800Y0142844D01*
X0119300Y0150344D01*
X0135800Y0131627D02*
X0165728Y0131627D01*
X0164576Y0130028D02*
X0163884Y0130028D01*
X0174500Y0128430D02*
X0197841Y0128430D01*
X0197024Y0126831D02*
X0174500Y0126831D01*
X0174500Y0125233D02*
X0196819Y0125233D01*
X0197117Y0123634D02*
X0174500Y0123634D01*
X0174500Y0122036D02*
X0198064Y0122036D01*
X0200485Y0120437D02*
X0174500Y0120437D01*
X0174500Y0118839D02*
X0202083Y0118839D01*
X0204578Y0117240D02*
X0174500Y0117240D01*
X0174500Y0115642D02*
X0217142Y0115642D01*
X0217142Y0117240D02*
X0214698Y0117240D01*
X0217227Y0114043D02*
X0174500Y0114043D01*
X0174500Y0112445D02*
X0217912Y0112445D01*
X0219510Y0110846D02*
X0174500Y0110846D01*
X0174500Y0109248D02*
X0221109Y0109248D01*
X0222525Y0107649D02*
X0174500Y0107649D01*
X0174500Y0106051D02*
X0224150Y0106051D01*
X0234406Y0099657D02*
X0242301Y0099657D01*
X0242301Y0101255D02*
X0204281Y0101255D01*
X0203652Y0102854D02*
X0242301Y0102854D01*
X0242301Y0104452D02*
X0202237Y0104452D01*
X0196363Y0104452D02*
X0174500Y0104452D01*
X0174500Y0102854D02*
X0194948Y0102854D01*
X0194319Y0101255D02*
X0174500Y0101255D01*
X0174500Y0099657D02*
X0194319Y0099657D01*
X0194856Y0098058D02*
X0174500Y0098058D01*
X0174500Y0096460D02*
X0194900Y0096460D01*
X0194900Y0094861D02*
X0174500Y0094861D01*
X0174066Y0093263D02*
X0195400Y0093263D01*
X0196758Y0091664D02*
X0172974Y0091664D01*
X0165626Y0091664D02*
X0164888Y0091664D01*
X0163257Y0090066D02*
X0199119Y0090066D01*
X0206541Y0058095D02*
X0212058Y0058095D01*
X0210946Y0056497D02*
X0207654Y0056497D01*
X0208300Y0054898D02*
X0210300Y0054898D01*
X0210300Y0053300D02*
X0208300Y0053300D01*
X0208300Y0051701D02*
X0210300Y0051701D01*
X0210300Y0050103D02*
X0208300Y0050103D01*
X0208300Y0048504D02*
X0210300Y0048504D01*
X0210300Y0046906D02*
X0208300Y0046906D01*
X0208116Y0045307D02*
X0210484Y0045307D01*
X0211146Y0043709D02*
X0207454Y0043709D01*
X0206058Y0042110D02*
X0212542Y0042110D01*
X0221058Y0042110D02*
X0227542Y0042110D01*
X0226146Y0043709D02*
X0222454Y0043709D01*
X0223116Y0045307D02*
X0225484Y0045307D01*
X0225300Y0046906D02*
X0223300Y0046906D01*
X0223300Y0048504D02*
X0225300Y0048504D01*
X0225300Y0050103D02*
X0223300Y0050103D01*
X0223300Y0051701D02*
X0225300Y0051701D01*
X0225300Y0053300D02*
X0223300Y0053300D01*
X0223300Y0054898D02*
X0225300Y0054898D01*
X0225946Y0056497D02*
X0222654Y0056497D01*
X0221541Y0058095D02*
X0227058Y0058095D01*
X0224540Y0066088D02*
X0242301Y0066088D01*
X0242301Y0067686D02*
X0226090Y0067686D01*
X0226753Y0069285D02*
X0242301Y0069285D01*
X0242301Y0070883D02*
X0226781Y0070883D01*
X0226664Y0072482D02*
X0242301Y0072482D01*
X0242301Y0074080D02*
X0226711Y0074080D01*
X0226758Y0075679D02*
X0242301Y0075679D01*
X0242301Y0077277D02*
X0226742Y0077277D01*
X0227127Y0078876D02*
X0242301Y0078876D01*
X0242301Y0080475D02*
X0227504Y0080475D01*
X0227504Y0082073D02*
X0242301Y0082073D01*
X0242301Y0083672D02*
X0227401Y0083672D01*
X0226345Y0085270D02*
X0242301Y0085270D01*
X0242301Y0086869D02*
X0227339Y0086869D01*
X0227547Y0088467D02*
X0242301Y0088467D01*
X0242301Y0090066D02*
X0229145Y0090066D01*
X0235164Y0091664D02*
X0242301Y0091664D01*
X0242301Y0093263D02*
X0236329Y0093263D01*
X0236781Y0094861D02*
X0242301Y0094861D01*
X0242301Y0096460D02*
X0236730Y0096460D01*
X0236067Y0098058D02*
X0242301Y0098058D01*
X0216800Y0124437D02*
X0216733Y0124598D01*
X0215987Y0125344D01*
X0216733Y0126091D01*
X0216800Y0126252D01*
X0216867Y0126091D01*
X0217613Y0125344D01*
X0216867Y0124598D01*
X0216800Y0124437D01*
X0216099Y0125233D02*
X0217501Y0125233D01*
X0218363Y0133225D02*
X0215237Y0133225D01*
X0236541Y0058095D02*
X0242301Y0058095D01*
X0242301Y0056497D02*
X0237654Y0056497D01*
X0238300Y0054898D02*
X0242301Y0054898D01*
X0242301Y0053300D02*
X0238300Y0053300D01*
X0238300Y0051701D02*
X0242301Y0051701D01*
X0242301Y0050103D02*
X0238300Y0050103D01*
X0238300Y0048504D02*
X0242301Y0048504D01*
X0242301Y0046906D02*
X0238300Y0046906D01*
X0238116Y0045307D02*
X0242301Y0045307D01*
X0242301Y0043709D02*
X0237454Y0043709D01*
X0236058Y0042110D02*
X0242301Y0042110D01*
X0242301Y0040512D02*
X0186134Y0040512D01*
X0187126Y0038913D02*
X0188324Y0038913D01*
X0187581Y0032519D02*
X0187421Y0032519D01*
X0186827Y0030921D02*
X0189464Y0030921D01*
X0191600Y0029322D02*
X0179562Y0029322D01*
X0179327Y0027724D02*
X0192228Y0027724D01*
X0191188Y0026125D02*
X0178979Y0026125D01*
X0178026Y0024527D02*
X0191096Y0024527D01*
X0191096Y0022928D02*
X0175447Y0022928D01*
X0173153Y0022928D02*
X0171600Y0022928D01*
X0171600Y0021330D02*
X0191484Y0021330D01*
X0184374Y0019731D02*
X0171600Y0019731D01*
X0171600Y0018133D02*
X0182563Y0018133D01*
X0181901Y0016534D02*
X0171699Y0016534D01*
X0171781Y0014936D02*
X0181819Y0014936D01*
X0182240Y0013337D02*
X0171360Y0013337D01*
X0170238Y0011739D02*
X0183362Y0011739D01*
X0174300Y0027844D02*
X0175560Y0029085D01*
X0175560Y0035203D01*
X0171474Y0038913D02*
X0170276Y0038913D01*
X0172466Y0040512D02*
X0163735Y0040512D01*
X0163324Y0038913D02*
X0135276Y0038913D01*
X0136375Y0037315D02*
X0162225Y0037315D01*
X0161819Y0035716D02*
X0136781Y0035716D01*
X0136683Y0034118D02*
X0161917Y0034118D01*
X0162000Y0032519D02*
X0136019Y0032519D01*
X0135800Y0030921D02*
X0161819Y0030921D01*
X0161832Y0029322D02*
X0135800Y0029322D01*
X0136206Y0027724D02*
X0162000Y0027724D01*
X0162000Y0026125D02*
X0136781Y0026125D01*
X0136781Y0024527D02*
X0162000Y0024527D01*
X0162000Y0022928D02*
X0136191Y0022928D01*
X0134829Y0021330D02*
X0162000Y0021330D01*
X0165171Y0042110D02*
X0166877Y0042110D01*
X0178393Y0040344D02*
X0178554Y0040411D01*
X0179300Y0041158D01*
X0180046Y0040411D01*
X0180207Y0040344D01*
X0180046Y0040278D01*
X0179300Y0039531D01*
X0178554Y0040278D01*
X0178393Y0040344D01*
X0178654Y0040512D02*
X0179946Y0040512D01*
X0131800Y0035344D02*
X0131800Y0025344D01*
X0084300Y0050344D02*
X0080981Y0050344D01*
X0074591Y0056735D01*
X0135800Y0171590D02*
X0148787Y0171590D01*
X0162988Y0230735D02*
X0164869Y0230735D01*
X0172060Y0265902D02*
X0242301Y0265902D01*
X0242301Y0267500D02*
X0172060Y0267500D01*
X0172060Y0269099D02*
X0242301Y0269099D01*
X0242301Y0270697D02*
X0172060Y0270697D01*
X0172060Y0272296D02*
X0242301Y0272296D01*
X0242301Y0273894D02*
X0172060Y0273894D01*
X0172060Y0275493D02*
X0242301Y0275493D01*
X0242301Y0277091D02*
X0172060Y0277091D01*
X0171517Y0278690D02*
X0242301Y0278690D01*
X0242301Y0280288D02*
X0170013Y0280288D01*
X0168414Y0281887D02*
X0242301Y0281887D01*
X0242301Y0283485D02*
X0166816Y0283485D01*
X0165217Y0285084D02*
X0242301Y0285084D01*
X0242301Y0286682D02*
X0162987Y0286682D01*
D26*
X0201800Y0245344D03*
D27*
X0204300Y0260344D03*
X0189300Y0275344D03*
X0168060Y0250344D03*
X0156800Y0235344D03*
X0169300Y0227844D03*
X0169300Y0222844D03*
X0169300Y0200344D03*
X0169300Y0195344D03*
X0156800Y0185344D03*
X0169300Y0177844D03*
X0169300Y0172844D03*
X0169300Y0150344D03*
X0169300Y0145344D03*
X0156800Y0135344D03*
X0169300Y0127844D03*
X0169300Y0122844D03*
X0169300Y0100344D03*
X0169300Y0095344D03*
X0176800Y0082844D03*
X0156800Y0085344D03*
X0136800Y0067844D03*
X0131800Y0085344D03*
X0121800Y0085344D03*
X0111800Y0105344D03*
X0114300Y0120344D03*
X0119300Y0132844D03*
X0131800Y0135344D03*
X0136800Y0117844D03*
X0119300Y0150344D03*
X0121800Y0162844D03*
X0116800Y0167844D03*
X0111800Y0162844D03*
X0101800Y0147844D03*
X0104300Y0142844D03*
X0104300Y0137844D03*
X0094300Y0137844D03*
X0096800Y0152844D03*
X0091800Y0157844D03*
X0076800Y0167844D03*
X0074300Y0172844D03*
X0069300Y0177844D03*
X0064300Y0175344D03*
X0061800Y0170344D03*
X0059300Y0165344D03*
X0051800Y0165344D03*
X0046800Y0175344D03*
X0041800Y0172844D03*
X0031800Y0175344D03*
X0036800Y0192844D03*
X0041800Y0200344D03*
X0044300Y0205344D03*
X0049300Y0207844D03*
X0061800Y0197844D03*
X0071800Y0187844D03*
X0086800Y0202844D03*
X0091800Y0207844D03*
X0096800Y0210344D03*
X0101800Y0207844D03*
X0116800Y0210344D03*
X0116800Y0187844D03*
X0131800Y0185344D03*
X0136800Y0165344D03*
X0136800Y0215344D03*
X0131800Y0235344D03*
X0121800Y0232844D03*
X0101800Y0232844D03*
X0101800Y0240344D03*
X0099300Y0252844D03*
X0096800Y0257844D03*
X0091800Y0260344D03*
X0084300Y0237844D03*
X0086800Y0232844D03*
X0076800Y0237844D03*
X0086800Y0217844D03*
X0074300Y0212844D03*
X0064300Y0215344D03*
X0061800Y0220344D03*
X0056800Y0222844D03*
X0059300Y0235344D03*
X0049300Y0235344D03*
X0039300Y0235344D03*
X0034300Y0262844D03*
X0039300Y0265344D03*
X0059300Y0265344D03*
X0089300Y0290344D03*
X0129300Y0267844D03*
X0096800Y0185344D03*
X0094300Y0177844D03*
X0064300Y0137844D03*
X0064300Y0130344D03*
X0071800Y0122844D03*
X0069300Y0115344D03*
X0059300Y0120344D03*
X0046800Y0142844D03*
X0036800Y0152844D03*
X0019300Y0150344D03*
X0014300Y0170344D03*
X0081800Y0122844D03*
X0101800Y0080344D03*
X0081800Y0065344D03*
X0084300Y0057844D03*
X0084300Y0050344D03*
X0069300Y0040344D03*
X0049300Y0040344D03*
X0039300Y0050344D03*
X0034300Y0065344D03*
X0036800Y0077844D03*
X0046800Y0087844D03*
X0052229Y0072416D03*
X0058264Y0073451D03*
X0046800Y0065344D03*
X0016800Y0065344D03*
X0009300Y0035344D03*
X0119300Y0050344D03*
X0131800Y0035344D03*
X0131800Y0025344D03*
X0156800Y0035344D03*
X0166800Y0035344D03*
X0166800Y0030344D03*
X0174300Y0027844D03*
X0166800Y0015344D03*
X0161800Y0015344D03*
X0186800Y0015344D03*
X0191800Y0035344D03*
X0189300Y0040344D03*
X0179300Y0055344D03*
X0166800Y0057844D03*
X0201800Y0070344D03*
X0201800Y0085344D03*
X0199300Y0100344D03*
X0206800Y0110344D03*
X0201800Y0125344D03*
X0199300Y0140344D03*
X0204300Y0150344D03*
X0201800Y0165344D03*
X0199300Y0180344D03*
X0206800Y0190344D03*
X0201800Y0205344D03*
X0199300Y0220344D03*
X0206800Y0230344D03*
X0219300Y0220344D03*
X0226800Y0230344D03*
X0231800Y0215344D03*
X0226800Y0190344D03*
X0219300Y0180344D03*
X0231800Y0175344D03*
X0226800Y0150344D03*
X0219300Y0140344D03*
X0231800Y0135344D03*
X0226800Y0110344D03*
X0219300Y0100344D03*
X0231800Y0095344D03*
X0221800Y0070344D03*
X0211800Y0025344D03*
X0231800Y0255344D03*
X0224300Y0260344D03*
X0019300Y0270344D03*
D28*
X0176800Y0082844D02*
X0176800Y0072844D01*
X0166800Y0062844D01*
X0166800Y0057844D01*
X0174300Y0040344D02*
X0179300Y0040344D01*
X0189300Y0040344D01*
X0201800Y0030344D02*
X0201800Y0020344D01*
X0201800Y0010344D01*
X0166800Y0015344D02*
X0161800Y0015344D01*
X0166800Y0015344D02*
X0166800Y0030344D01*
X0166800Y0035344D01*
X0201800Y0070344D02*
X0211800Y0070344D01*
X0216800Y0075344D01*
X0216800Y0085344D01*
X0216800Y0095344D01*
X0219300Y0100344D01*
X0211800Y0110344D02*
X0216800Y0115344D01*
X0216800Y0125344D01*
X0216800Y0137844D01*
X0219300Y0140344D01*
X0212863Y0150344D02*
X0204300Y0150344D01*
X0212863Y0150344D02*
X0216800Y0154281D01*
X0216800Y0165344D01*
X0216800Y0177844D01*
X0219300Y0180344D01*
X0211800Y0190344D02*
X0206800Y0190344D01*
X0211800Y0190344D02*
X0216800Y0195344D01*
X0216800Y0205344D01*
X0216800Y0217844D01*
X0219300Y0220344D01*
X0211800Y0230344D02*
X0206800Y0230344D01*
X0211800Y0230344D02*
X0216800Y0235344D01*
X0216800Y0245344D01*
X0216800Y0255344D01*
X0221800Y0260344D01*
X0224300Y0260344D01*
X0221942Y0241604D02*
X0221942Y0235203D01*
X0226800Y0230344D01*
X0221942Y0201604D02*
X0221942Y0195203D01*
X0226800Y0190344D01*
X0221942Y0161604D02*
X0221942Y0155203D01*
X0226800Y0150344D01*
X0221942Y0121604D02*
X0221942Y0115203D01*
X0226800Y0110344D01*
X0211800Y0110344D02*
X0206800Y0110344D01*
X0221942Y0081604D02*
X0221942Y0075203D01*
X0221800Y0070344D01*
D29*
X0211658Y0081604D02*
X0205540Y0081604D01*
X0201800Y0085344D01*
X0208060Y0089085D02*
X0199300Y0095344D01*
X0199300Y0100344D01*
X0208060Y0089085D02*
X0211658Y0089085D01*
X0211658Y0085344D02*
X0216800Y0085344D01*
X0221942Y0089085D02*
X0228202Y0095344D01*
X0231800Y0095344D01*
X0211658Y0121604D02*
X0205540Y0121604D01*
X0201800Y0125344D01*
X0205560Y0129085D02*
X0199300Y0135344D01*
X0199300Y0140344D01*
X0205560Y0129085D02*
X0211658Y0129085D01*
X0211658Y0125344D02*
X0216800Y0125344D01*
X0221942Y0129085D02*
X0228202Y0135344D01*
X0231800Y0135344D01*
X0211658Y0161604D02*
X0205540Y0161604D01*
X0201800Y0165344D01*
X0205560Y0169085D02*
X0199300Y0175344D01*
X0199300Y0180344D01*
X0205560Y0169085D02*
X0211658Y0169085D01*
X0211658Y0165344D02*
X0216800Y0165344D01*
X0221942Y0169085D02*
X0228202Y0175344D01*
X0231800Y0175344D01*
X0211658Y0201604D02*
X0205540Y0201604D01*
X0201800Y0205344D01*
X0205560Y0209085D02*
X0199300Y0215344D01*
X0199300Y0220344D01*
X0205560Y0209085D02*
X0211658Y0209085D01*
X0211658Y0205344D02*
X0216800Y0205344D01*
X0221942Y0209085D02*
X0228202Y0215344D01*
X0231800Y0215344D01*
X0216800Y0245344D02*
X0211658Y0245344D01*
X0211658Y0249085D02*
X0211658Y0252986D01*
X0204300Y0260344D01*
X0221942Y0249085D02*
X0228202Y0255344D01*
X0231800Y0255344D01*
X0179300Y0055344D02*
X0175560Y0051604D01*
X0175560Y0046604D01*
X0175560Y0045486D01*
X0179300Y0045486D02*
X0179300Y0040344D01*
X0183040Y0045486D02*
X0183040Y0051604D01*
X0179300Y0055344D01*
X0189300Y0040344D02*
X0196800Y0040344D01*
X0201800Y0035344D01*
X0201800Y0030344D01*
X0196658Y0030486D02*
X0196658Y0024085D01*
X0201800Y0020344D02*
X0206942Y0020344D01*
X0206942Y0016604D02*
X0213060Y0016604D01*
X0216800Y0020344D01*
X0216800Y0025344D01*
X0221800Y0030344D01*
X0230737Y0030344D01*
X0231800Y0029281D01*
X0230737Y0022470D02*
X0221800Y0022470D01*
X0230737Y0022470D02*
X0231800Y0021407D01*
X0211800Y0025344D02*
X0210540Y0024085D01*
X0206942Y0024085D01*
X0196658Y0030486D02*
X0191800Y0035344D01*
X0196658Y0016604D02*
X0195398Y0015344D01*
X0186800Y0015344D01*
X0054182Y0030226D02*
X0049300Y0035108D01*
X0049300Y0040344D01*
X0039300Y0265344D02*
X0045363Y0271407D01*
X0045363Y0275344D01*
X0053237Y0275344D02*
X0053237Y0271407D01*
X0059300Y0265344D01*
D30*
X0014300Y0290344D03*
X0139300Y0290344D03*
X0099300Y0015344D03*
X0014300Y0015344D03*
D31*
X0169300Y0095344D02*
X0169300Y0100344D01*
X0169300Y0127844D01*
X0169300Y0145344D02*
X0169300Y0177844D01*
X0169300Y0172844D01*
X0169300Y0195344D02*
X0169300Y0200344D01*
X0169300Y0222844D01*
X0169300Y0227844D01*
M02*
