G75*
%MOIN*%
%OFA0B0*%
%FSLAX25Y25*%
%IPPOS*%
%LPD*%
%AMOC8*
5,1,8,0,0,1.08239X$1,22.5*
%
%ADD10C,0.00000*%
%ADD11R,0.05118X0.06299*%
%ADD12R,0.05906X0.05906*%
%ADD13R,0.05512X0.03937*%
%ADD14R,0.03937X0.05512*%
%ADD15R,0.06299X0.05118*%
%ADD16C,0.04400*%
%ADD17C,0.06000*%
%ADD18R,0.04724X0.04724*%
%ADD19R,0.05150X0.05150*%
%ADD20C,0.05150*%
%ADD21C,0.06600*%
%ADD22C,0.05600*%
%ADD23R,0.05906X0.01969*%
%ADD24R,0.01969X0.05906*%
%ADD25R,0.04724X0.02362*%
%ADD26OC8,0.06000*%
%ADD27C,0.02400*%
%ADD28C,0.04000*%
%ADD29C,0.03200*%
%ADD30C,0.03562*%
%ADD31C,0.01600*%
%ADD32C,0.04000*%
%ADD33C,0.16598*%
%ADD34C,0.05000*%
D10*
X0001800Y0001800D02*
X0001800Y0301761D01*
X0245501Y0301761D01*
X0245501Y0001800D01*
X0001800Y0001800D01*
D11*
X0078060Y0134300D03*
X0085540Y0134300D03*
X0135560Y0149300D03*
X0143040Y0149300D03*
X0143040Y0199300D03*
X0135560Y0199300D03*
X0135560Y0249300D03*
X0143040Y0249300D03*
X0175560Y0274300D03*
X0183040Y0274300D03*
X0185560Y0259300D03*
X0193040Y0259300D03*
X0210560Y0259300D03*
X0218040Y0259300D03*
X0228060Y0279300D03*
X0235540Y0279300D03*
X0220737Y0229300D03*
X0212863Y0229300D03*
X0213040Y0219300D03*
X0205560Y0219300D03*
X0193040Y0219300D03*
X0185560Y0219300D03*
X0185363Y0229300D03*
X0193237Y0229300D03*
X0193237Y0189300D03*
X0185363Y0189300D03*
X0185560Y0179300D03*
X0193040Y0179300D03*
X0205560Y0179300D03*
X0213040Y0179300D03*
X0212863Y0189300D03*
X0220737Y0189300D03*
X0220737Y0149300D03*
X0212863Y0149300D03*
X0213040Y0139300D03*
X0205560Y0139300D03*
X0193040Y0139300D03*
X0185560Y0139300D03*
X0185363Y0149300D03*
X0193237Y0149300D03*
X0193237Y0109300D03*
X0185363Y0109300D03*
X0185560Y0099300D03*
X0193040Y0099300D03*
X0205560Y0099300D03*
X0213040Y0099300D03*
X0212863Y0109300D03*
X0220737Y0109300D03*
X0215737Y0069300D03*
X0207863Y0069300D03*
X0193237Y0069300D03*
X0185363Y0069300D03*
X0183237Y0044300D03*
X0175363Y0044300D03*
X0175363Y0034300D03*
X0183237Y0034300D03*
X0198060Y0034300D03*
X0205540Y0034300D03*
X0205540Y0024300D03*
X0198060Y0024300D03*
X0198060Y0014300D03*
X0205540Y0014300D03*
X0143040Y0049300D03*
X0135560Y0049300D03*
X0135560Y0099300D03*
X0143040Y0099300D03*
D12*
X0207942Y0084300D03*
X0225658Y0084300D03*
X0225658Y0124300D03*
X0207942Y0124300D03*
X0207942Y0164300D03*
X0225658Y0164300D03*
X0225658Y0204300D03*
X0207942Y0204300D03*
X0207942Y0244300D03*
X0225658Y0244300D03*
X0050658Y0134300D03*
X0032942Y0134300D03*
D13*
X0184969Y0124300D03*
X0193631Y0120560D03*
X0193631Y0128040D03*
X0193631Y0160560D03*
X0193631Y0168040D03*
X0184969Y0164300D03*
X0193631Y0200560D03*
X0193631Y0208040D03*
X0184969Y0204300D03*
X0193631Y0240560D03*
X0193631Y0248040D03*
X0184969Y0244300D03*
X0193631Y0088040D03*
X0193631Y0080560D03*
X0184969Y0084300D03*
D14*
X0175540Y0073631D03*
X0168060Y0073631D03*
X0171800Y0064969D03*
X0168060Y0104969D03*
X0175540Y0104969D03*
X0171800Y0113631D03*
X0168060Y0154969D03*
X0171800Y0163631D03*
X0175540Y0154969D03*
X0175540Y0204969D03*
X0168060Y0204969D03*
X0171800Y0213631D03*
X0168060Y0254969D03*
X0175540Y0254969D03*
X0171800Y0263631D03*
X0198060Y0288631D03*
X0205540Y0288631D03*
X0213060Y0288631D03*
X0220540Y0288631D03*
X0216800Y0279969D03*
X0228060Y0271131D03*
X0235540Y0271131D03*
X0231800Y0262469D03*
X0201800Y0279969D03*
D15*
X0144300Y0223040D03*
X0144300Y0215560D03*
X0126800Y0198040D03*
X0126800Y0190560D03*
X0144300Y0173040D03*
X0144300Y0165560D03*
X0126800Y0148040D03*
X0126800Y0140560D03*
X0144300Y0123040D03*
X0144300Y0115560D03*
X0126800Y0098040D03*
X0126800Y0090560D03*
X0144300Y0073040D03*
X0144300Y0065560D03*
X0126800Y0048040D03*
X0126800Y0040560D03*
X0089300Y0085560D03*
X0089300Y0093040D03*
X0079300Y0093040D03*
X0079300Y0085560D03*
X0069300Y0085560D03*
X0069300Y0093040D03*
X0064300Y0055540D03*
X0064300Y0048060D03*
X0054300Y0048060D03*
X0054300Y0055540D03*
X0029300Y0070560D03*
X0029300Y0078040D03*
X0029300Y0088060D03*
X0029300Y0095540D03*
X0026800Y0058040D03*
X0026800Y0050560D03*
X0016800Y0050560D03*
X0016800Y0058040D03*
X0099300Y0118060D03*
X0099300Y0125540D03*
X0109300Y0213060D03*
X0109300Y0220540D03*
X0119300Y0218060D03*
X0119300Y0225540D03*
X0126800Y0240560D03*
X0126800Y0248040D03*
X0121800Y0268060D03*
X0121800Y0275540D03*
X0111800Y0275540D03*
X0111800Y0268060D03*
X0101800Y0268060D03*
X0101800Y0275540D03*
X0054300Y0260540D03*
X0054300Y0253060D03*
X0044300Y0253060D03*
X0044300Y0260540D03*
X0024300Y0248040D03*
X0024300Y0240560D03*
X0014300Y0240560D03*
X0014300Y0248040D03*
X0234300Y0075540D03*
X0234300Y0068060D03*
D16*
X0074300Y0104600D02*
X0074300Y0109000D01*
X0054300Y0109000D02*
X0054300Y0104600D01*
X0020768Y0140032D02*
X0016368Y0140032D01*
X0016368Y0160032D02*
X0020768Y0160032D01*
D17*
X0019800Y0104300D02*
X0013800Y0104300D01*
X0013800Y0094300D02*
X0019800Y0094300D01*
X0019800Y0084300D02*
X0013800Y0084300D01*
X0153800Y0074300D02*
X0159800Y0074300D01*
X0159800Y0064300D02*
X0153800Y0064300D01*
X0153800Y0054300D02*
X0159800Y0054300D01*
X0159800Y0044300D02*
X0153800Y0044300D01*
X0153800Y0094300D02*
X0159800Y0094300D01*
X0159800Y0104300D02*
X0153800Y0104300D01*
X0153800Y0114300D02*
X0159800Y0114300D01*
X0159800Y0124300D02*
X0153800Y0124300D01*
X0153800Y0144300D02*
X0159800Y0144300D01*
X0159800Y0154300D02*
X0153800Y0154300D01*
X0153800Y0164300D02*
X0159800Y0164300D01*
X0159800Y0174300D02*
X0153800Y0174300D01*
X0153800Y0194300D02*
X0159800Y0194300D01*
X0159800Y0204300D02*
X0153800Y0204300D01*
X0153800Y0214300D02*
X0159800Y0214300D01*
X0159800Y0224300D02*
X0153800Y0224300D01*
X0153800Y0244300D02*
X0159800Y0244300D01*
X0159800Y0254300D02*
X0153800Y0254300D01*
X0153800Y0264300D02*
X0159800Y0264300D01*
X0159800Y0274300D02*
X0153800Y0274300D01*
D18*
X0119300Y0285166D03*
X0111800Y0285166D03*
X0104300Y0285166D03*
X0104300Y0293434D03*
X0111800Y0293434D03*
X0119300Y0293434D03*
X0024300Y0263434D03*
X0024300Y0255166D03*
X0014300Y0255166D03*
X0014300Y0263434D03*
X0016800Y0043434D03*
X0016800Y0035166D03*
X0026800Y0035166D03*
X0026800Y0043434D03*
D19*
X0221800Y0029300D03*
D20*
X0221800Y0021426D03*
D21*
X0216800Y0046000D02*
X0216800Y0052600D01*
X0230550Y0060550D02*
X0221800Y0069300D01*
X0230550Y0060550D02*
X0231800Y0059300D01*
X0231800Y0065560D01*
X0234300Y0068060D01*
X0231800Y0059300D02*
X0231800Y0049300D01*
X0231800Y0052600D02*
X0231800Y0046000D01*
X0201800Y0046000D02*
X0201800Y0052600D01*
D22*
X0074300Y0257863D03*
X0074300Y0265737D03*
D23*
G36*
X0055397Y0204365D02*
X0059572Y0200190D01*
X0058181Y0198799D01*
X0054006Y0202974D01*
X0055397Y0204365D01*
G37*
G36*
X0053170Y0202138D02*
X0057345Y0197963D01*
X0055954Y0196572D01*
X0051779Y0200747D01*
X0053170Y0202138D01*
G37*
G36*
X0050943Y0199911D02*
X0055118Y0195736D01*
X0053727Y0194345D01*
X0049552Y0198520D01*
X0050943Y0199911D01*
G37*
G36*
X0048716Y0197684D02*
X0052891Y0193509D01*
X0051500Y0192118D01*
X0047325Y0196293D01*
X0048716Y0197684D01*
G37*
G36*
X0046489Y0195457D02*
X0050664Y0191282D01*
X0049273Y0189891D01*
X0045098Y0194066D01*
X0046489Y0195457D01*
G37*
G36*
X0044261Y0193230D02*
X0048436Y0189055D01*
X0047045Y0187664D01*
X0042870Y0191839D01*
X0044261Y0193230D01*
G37*
G36*
X0042034Y0191002D02*
X0046209Y0186827D01*
X0044818Y0185436D01*
X0040643Y0189611D01*
X0042034Y0191002D01*
G37*
G36*
X0039807Y0188775D02*
X0043982Y0184600D01*
X0042591Y0183209D01*
X0038416Y0187384D01*
X0039807Y0188775D01*
G37*
G36*
X0037580Y0186548D02*
X0041755Y0182373D01*
X0040364Y0180982D01*
X0036189Y0185157D01*
X0037580Y0186548D01*
G37*
G36*
X0035353Y0184321D02*
X0039528Y0180146D01*
X0038137Y0178755D01*
X0033962Y0182930D01*
X0035353Y0184321D01*
G37*
G36*
X0033126Y0182094D02*
X0037301Y0177919D01*
X0035910Y0176528D01*
X0031735Y0180703D01*
X0033126Y0182094D01*
G37*
G36*
X0065419Y0149801D02*
X0069594Y0145626D01*
X0068203Y0144235D01*
X0064028Y0148410D01*
X0065419Y0149801D01*
G37*
G36*
X0067646Y0152028D02*
X0071821Y0147853D01*
X0070430Y0146462D01*
X0066255Y0150637D01*
X0067646Y0152028D01*
G37*
G36*
X0069873Y0154255D02*
X0074048Y0150080D01*
X0072657Y0148689D01*
X0068482Y0152864D01*
X0069873Y0154255D01*
G37*
G36*
X0072100Y0156482D02*
X0076275Y0152307D01*
X0074884Y0150916D01*
X0070709Y0155091D01*
X0072100Y0156482D01*
G37*
G36*
X0074327Y0158709D02*
X0078502Y0154534D01*
X0077111Y0153143D01*
X0072936Y0157318D01*
X0074327Y0158709D01*
G37*
G36*
X0076555Y0160936D02*
X0080730Y0156761D01*
X0079339Y0155370D01*
X0075164Y0159545D01*
X0076555Y0160936D01*
G37*
G36*
X0078782Y0163164D02*
X0082957Y0158989D01*
X0081566Y0157598D01*
X0077391Y0161773D01*
X0078782Y0163164D01*
G37*
G36*
X0081009Y0165391D02*
X0085184Y0161216D01*
X0083793Y0159825D01*
X0079618Y0164000D01*
X0081009Y0165391D01*
G37*
G36*
X0083236Y0167618D02*
X0087411Y0163443D01*
X0086020Y0162052D01*
X0081845Y0166227D01*
X0083236Y0167618D01*
G37*
G36*
X0085463Y0169845D02*
X0089638Y0165670D01*
X0088247Y0164279D01*
X0084072Y0168454D01*
X0085463Y0169845D01*
G37*
G36*
X0087690Y0172072D02*
X0091865Y0167897D01*
X0090474Y0166506D01*
X0086299Y0170681D01*
X0087690Y0172072D01*
G37*
D24*
G36*
X0090474Y0182094D02*
X0091865Y0180703D01*
X0087690Y0176528D01*
X0086299Y0177919D01*
X0090474Y0182094D01*
G37*
G36*
X0088247Y0184321D02*
X0089638Y0182930D01*
X0085463Y0178755D01*
X0084072Y0180146D01*
X0088247Y0184321D01*
G37*
G36*
X0086020Y0186548D02*
X0087411Y0185157D01*
X0083236Y0180982D01*
X0081845Y0182373D01*
X0086020Y0186548D01*
G37*
G36*
X0083793Y0188775D02*
X0085184Y0187384D01*
X0081009Y0183209D01*
X0079618Y0184600D01*
X0083793Y0188775D01*
G37*
G36*
X0081566Y0191002D02*
X0082957Y0189611D01*
X0078782Y0185436D01*
X0077391Y0186827D01*
X0081566Y0191002D01*
G37*
G36*
X0079339Y0193230D02*
X0080730Y0191839D01*
X0076555Y0187664D01*
X0075164Y0189055D01*
X0079339Y0193230D01*
G37*
G36*
X0077111Y0195457D02*
X0078502Y0194066D01*
X0074327Y0189891D01*
X0072936Y0191282D01*
X0077111Y0195457D01*
G37*
G36*
X0074884Y0197684D02*
X0076275Y0196293D01*
X0072100Y0192118D01*
X0070709Y0193509D01*
X0074884Y0197684D01*
G37*
G36*
X0072657Y0199911D02*
X0074048Y0198520D01*
X0069873Y0194345D01*
X0068482Y0195736D01*
X0072657Y0199911D01*
G37*
G36*
X0070430Y0202138D02*
X0071821Y0200747D01*
X0067646Y0196572D01*
X0066255Y0197963D01*
X0070430Y0202138D01*
G37*
G36*
X0068203Y0204365D02*
X0069594Y0202974D01*
X0065419Y0198799D01*
X0064028Y0200190D01*
X0068203Y0204365D01*
G37*
G36*
X0038137Y0169845D02*
X0039528Y0168454D01*
X0035353Y0164279D01*
X0033962Y0165670D01*
X0038137Y0169845D01*
G37*
G36*
X0040364Y0167618D02*
X0041755Y0166227D01*
X0037580Y0162052D01*
X0036189Y0163443D01*
X0040364Y0167618D01*
G37*
G36*
X0042591Y0165391D02*
X0043982Y0164000D01*
X0039807Y0159825D01*
X0038416Y0161216D01*
X0042591Y0165391D01*
G37*
G36*
X0044818Y0163164D02*
X0046209Y0161773D01*
X0042034Y0157598D01*
X0040643Y0158989D01*
X0044818Y0163164D01*
G37*
G36*
X0047045Y0160936D02*
X0048436Y0159545D01*
X0044261Y0155370D01*
X0042870Y0156761D01*
X0047045Y0160936D01*
G37*
G36*
X0049273Y0158709D02*
X0050664Y0157318D01*
X0046489Y0153143D01*
X0045098Y0154534D01*
X0049273Y0158709D01*
G37*
G36*
X0051500Y0156482D02*
X0052891Y0155091D01*
X0048716Y0150916D01*
X0047325Y0152307D01*
X0051500Y0156482D01*
G37*
G36*
X0053727Y0154255D02*
X0055118Y0152864D01*
X0050943Y0148689D01*
X0049552Y0150080D01*
X0053727Y0154255D01*
G37*
G36*
X0055954Y0152028D02*
X0057345Y0150637D01*
X0053170Y0146462D01*
X0051779Y0147853D01*
X0055954Y0152028D01*
G37*
G36*
X0058181Y0149801D02*
X0059572Y0148410D01*
X0055397Y0144235D01*
X0054006Y0145626D01*
X0058181Y0149801D01*
G37*
G36*
X0035910Y0172072D02*
X0037301Y0170681D01*
X0033126Y0166506D01*
X0031735Y0167897D01*
X0035910Y0172072D01*
G37*
D25*
X0136658Y0185560D03*
X0136658Y0193040D03*
X0146942Y0193040D03*
X0146942Y0189300D03*
X0146942Y0185560D03*
X0146942Y0143040D03*
X0146942Y0139300D03*
X0146942Y0135560D03*
X0136658Y0135560D03*
X0136658Y0143040D03*
X0136658Y0093040D03*
X0136658Y0085560D03*
X0146942Y0085560D03*
X0146942Y0089300D03*
X0146942Y0093040D03*
X0146942Y0043040D03*
X0146942Y0039300D03*
X0146942Y0035560D03*
X0136658Y0035560D03*
X0136658Y0043040D03*
X0136658Y0235560D03*
X0136658Y0243040D03*
X0146942Y0243040D03*
X0146942Y0239300D03*
X0146942Y0235560D03*
D26*
X0024300Y0216800D03*
X0024300Y0206800D03*
X0024300Y0196800D03*
X0024300Y0186800D03*
X0014300Y0186800D03*
X0014300Y0196800D03*
X0014300Y0206800D03*
X0014300Y0216800D03*
D27*
X0101800Y0275540D02*
X0101800Y0282666D01*
X0104300Y0285166D01*
X0111800Y0285166D02*
X0111800Y0275540D01*
X0119300Y0285166D02*
X0121800Y0282666D01*
X0121800Y0275540D01*
X0148202Y0244300D02*
X0146942Y0243040D01*
X0148202Y0244300D02*
X0156800Y0244300D01*
X0151800Y0239300D02*
X0156800Y0234300D01*
X0151800Y0239300D02*
X0146942Y0239300D01*
X0184969Y0244300D02*
X0185560Y0243709D01*
X0185560Y0229497D02*
X0185363Y0229300D01*
X0201800Y0244300D02*
X0207942Y0244300D01*
X0194300Y0259300D02*
X0193040Y0259300D01*
X0220540Y0288631D02*
X0221209Y0289300D01*
X0239300Y0289300D01*
X0241800Y0286800D01*
X0241800Y0016800D01*
X0231800Y0006800D01*
X0191800Y0006800D01*
X0186800Y0011800D01*
X0186800Y0014300D01*
X0196800Y0016800D02*
X0198060Y0018060D01*
X0198060Y0019300D01*
X0198060Y0024300D01*
X0198060Y0018060D02*
X0198060Y0014300D01*
X0205540Y0014300D02*
X0214674Y0014300D01*
X0221800Y0021426D01*
X0208926Y0034300D01*
X0205540Y0034300D01*
X0198060Y0034300D02*
X0191800Y0034300D01*
X0189300Y0039300D02*
X0184300Y0039300D01*
X0184300Y0034300D02*
X0183237Y0034300D01*
X0183237Y0044300D01*
X0184300Y0044300D01*
X0189300Y0039300D01*
X0184300Y0034300D01*
X0175363Y0044300D02*
X0175363Y0050363D01*
X0179300Y0054300D01*
X0184300Y0059300D01*
X0229300Y0059300D01*
X0230550Y0060550D01*
X0211800Y0024300D02*
X0205540Y0024300D01*
X0155540Y0043040D02*
X0146942Y0043040D01*
X0141800Y0041800D02*
X0141800Y0036800D01*
X0143040Y0035560D01*
X0146942Y0035560D01*
X0141800Y0041800D02*
X0141800Y0048060D01*
X0143040Y0049300D01*
X0140560Y0043040D02*
X0141800Y0041800D01*
X0140560Y0043040D02*
X0136658Y0043040D01*
X0135560Y0049300D02*
X0134300Y0049300D01*
X0155540Y0043040D02*
X0155608Y0043042D01*
X0155676Y0043047D01*
X0155744Y0043057D01*
X0155811Y0043069D01*
X0155877Y0043086D01*
X0155942Y0043106D01*
X0156006Y0043129D01*
X0156069Y0043156D01*
X0156130Y0043187D01*
X0156190Y0043220D01*
X0156247Y0043257D01*
X0156303Y0043297D01*
X0156356Y0043340D01*
X0156407Y0043385D01*
X0156455Y0043433D01*
X0156500Y0043484D01*
X0156543Y0043537D01*
X0156583Y0043593D01*
X0156620Y0043650D01*
X0156653Y0043710D01*
X0156684Y0043771D01*
X0156711Y0043834D01*
X0156734Y0043898D01*
X0156754Y0043963D01*
X0156771Y0044029D01*
X0156783Y0044096D01*
X0156793Y0044164D01*
X0156798Y0044232D01*
X0156800Y0044300D01*
X0146942Y0093040D02*
X0148202Y0094300D01*
X0156800Y0094300D01*
X0184969Y0124300D02*
X0185363Y0124300D01*
X0156800Y0144300D02*
X0148202Y0144300D01*
X0146942Y0143040D01*
X0146942Y0193040D02*
X0148202Y0194300D01*
X0156800Y0194300D01*
X0225658Y0190442D02*
X0226800Y0189300D01*
X0226800Y0244143D02*
X0225658Y0244300D01*
D28*
X0201800Y0244300D03*
D29*
X0198060Y0240560D01*
X0193631Y0240560D01*
X0193237Y0229300D02*
X0206800Y0229300D01*
X0212863Y0229300D01*
X0220737Y0229300D02*
X0226800Y0229300D01*
X0225658Y0228158D01*
X0225658Y0204300D01*
X0225658Y0190442D01*
X0226800Y0189300D02*
X0225658Y0188158D01*
X0225658Y0164300D01*
X0225658Y0150442D01*
X0225658Y0124300D01*
X0225658Y0110442D01*
X0225658Y0084300D01*
X0225658Y0073158D01*
X0221800Y0069300D01*
X0215737Y0069300D01*
X0207863Y0069300D02*
X0201800Y0069300D01*
X0193237Y0069300D01*
X0185560Y0069497D02*
X0185363Y0069300D01*
X0181032Y0064969D01*
X0171800Y0064969D01*
X0175540Y0073631D02*
X0176800Y0074891D01*
X0176800Y0081800D01*
X0176800Y0084300D01*
X0169300Y0091800D01*
X0169300Y0094300D01*
X0169300Y0099300D01*
X0169300Y0103729D01*
X0168060Y0104969D01*
X0156800Y0124300D02*
X0145560Y0124300D01*
X0144300Y0123040D01*
X0171800Y0163631D02*
X0171131Y0164300D01*
X0156800Y0164300D01*
X0156800Y0174300D02*
X0146800Y0174300D01*
X0145560Y0174300D01*
X0144300Y0173040D01*
X0172469Y0164300D02*
X0184969Y0164300D01*
X0193631Y0160560D02*
X0198060Y0160560D01*
X0201800Y0164300D01*
X0207942Y0164300D01*
X0205560Y0179300D02*
X0199300Y0179300D01*
X0193040Y0179300D01*
X0193237Y0189300D02*
X0206800Y0189300D01*
X0212863Y0189300D01*
X0220737Y0189300D02*
X0226800Y0189300D01*
X0219300Y0179300D02*
X0213040Y0179300D01*
X0198060Y0200560D02*
X0193631Y0200560D01*
X0198060Y0200560D02*
X0201800Y0204300D01*
X0207942Y0204300D01*
X0205560Y0219300D02*
X0199300Y0219300D01*
X0193040Y0219300D01*
X0186800Y0219300D02*
X0185560Y0219300D01*
X0180560Y0214300D01*
X0172469Y0214300D01*
X0184969Y0218709D02*
X0184969Y0204300D01*
X0184969Y0189694D01*
X0185363Y0189300D01*
X0213040Y0219300D02*
X0219300Y0219300D01*
X0226800Y0229300D02*
X0225658Y0230442D01*
X0225658Y0244300D01*
X0231800Y0254300D02*
X0231800Y0214300D01*
X0231800Y0174300D01*
X0231800Y0134300D01*
X0231800Y0094300D01*
X0234300Y0091800D01*
X0234300Y0075540D01*
X0219300Y0099300D02*
X0213040Y0099300D01*
X0205560Y0099300D02*
X0199300Y0099300D01*
X0193040Y0099300D01*
X0193237Y0109300D02*
X0206800Y0109300D01*
X0212863Y0109300D01*
X0220737Y0109300D02*
X0226643Y0109300D01*
X0226800Y0109300D02*
X0225658Y0110442D01*
X0226800Y0109300D02*
X0220737Y0109300D01*
X0207942Y0124300D02*
X0201800Y0124300D01*
X0198060Y0120560D01*
X0193631Y0120560D01*
X0193040Y0139300D02*
X0199300Y0139300D01*
X0205560Y0139300D01*
X0213040Y0139300D02*
X0219300Y0139300D01*
X0220737Y0149300D02*
X0220894Y0149457D01*
X0226643Y0149457D01*
X0226800Y0149300D01*
X0225658Y0150442D01*
X0212863Y0149300D02*
X0204300Y0149300D01*
X0193237Y0149300D01*
X0185560Y0084300D02*
X0184969Y0084300D01*
X0193631Y0080560D02*
X0198060Y0080560D01*
X0201800Y0084300D01*
X0207942Y0084300D01*
X0216800Y0049300D02*
X0216800Y0034300D01*
X0221800Y0029300D01*
X0175540Y0075540D02*
X0176800Y0076800D01*
X0175540Y0075540D02*
X0175540Y0073631D01*
X0166800Y0056800D02*
X0166800Y0034300D01*
X0166800Y0029300D01*
X0156800Y0074300D02*
X0145560Y0074300D01*
X0144300Y0073040D01*
X0144300Y0223040D02*
X0145560Y0224300D01*
X0156800Y0224300D01*
X0185560Y0259300D02*
X0181229Y0263631D01*
X0171800Y0263631D01*
X0193040Y0259300D02*
X0204300Y0259300D01*
X0210560Y0259300D01*
X0218040Y0259300D02*
X0224300Y0259300D01*
X0224300Y0267371D01*
X0226229Y0269300D01*
X0228060Y0271131D01*
X0226229Y0269300D02*
X0211800Y0269300D01*
X0231800Y0262469D02*
X0231800Y0254300D01*
X0235540Y0271131D02*
X0235540Y0279300D01*
D30*
X0224300Y0259300D03*
X0231800Y0254300D03*
X0226800Y0229300D03*
X0219300Y0219300D03*
X0231800Y0214300D03*
X0226800Y0189300D03*
X0219300Y0179300D03*
X0231800Y0174300D03*
X0226800Y0149300D03*
X0219300Y0139300D03*
X0231800Y0134300D03*
X0226800Y0109300D03*
X0219300Y0099300D03*
X0231800Y0094300D03*
X0221800Y0069300D03*
X0201800Y0069300D03*
X0201800Y0084300D03*
X0199300Y0099300D03*
X0206800Y0109300D03*
X0201800Y0124300D03*
X0199300Y0139300D03*
X0204300Y0149300D03*
X0201800Y0164300D03*
X0199300Y0179300D03*
X0206800Y0189300D03*
X0201800Y0204300D03*
X0199300Y0219300D03*
X0206800Y0229300D03*
X0204300Y0259300D03*
X0189300Y0274300D03*
X0168060Y0249300D03*
X0156800Y0234300D03*
X0169300Y0226800D03*
X0169300Y0221800D03*
X0169300Y0199300D03*
X0169300Y0194300D03*
X0156800Y0184300D03*
X0169300Y0176800D03*
X0169300Y0171800D03*
X0169300Y0149300D03*
X0169300Y0144300D03*
X0156800Y0134300D03*
X0169300Y0126800D03*
X0169300Y0121800D03*
X0169300Y0099300D03*
X0169300Y0094300D03*
X0176800Y0081800D03*
X0156800Y0084300D03*
X0136800Y0066800D03*
X0131800Y0084300D03*
X0121800Y0084300D03*
X0111800Y0104300D03*
X0114300Y0119300D03*
X0119300Y0131800D03*
X0131800Y0134300D03*
X0136800Y0116800D03*
X0119300Y0149300D03*
X0121800Y0161800D03*
X0116800Y0166800D03*
X0111800Y0161800D03*
X0101800Y0146800D03*
X0104300Y0141800D03*
X0104300Y0136800D03*
X0094300Y0136800D03*
X0096800Y0151800D03*
X0091800Y0156800D03*
X0076800Y0166800D03*
X0074300Y0171800D03*
X0069300Y0176800D03*
X0064300Y0174300D03*
X0061800Y0169300D03*
X0059300Y0164300D03*
X0051800Y0164300D03*
X0046800Y0174300D03*
X0041800Y0171800D03*
X0031800Y0174300D03*
X0036800Y0191800D03*
X0041800Y0199300D03*
X0044300Y0204300D03*
X0049300Y0206800D03*
X0059300Y0219300D03*
X0056800Y0224300D03*
X0064300Y0216800D03*
X0074300Y0211800D03*
X0086800Y0216800D03*
X0091800Y0206800D03*
X0096800Y0209300D03*
X0101800Y0206800D03*
X0116800Y0209300D03*
X0116800Y0186800D03*
X0131800Y0184300D03*
X0136800Y0164300D03*
X0136800Y0214300D03*
X0131800Y0234300D03*
X0121800Y0231800D03*
X0101800Y0231800D03*
X0101800Y0239300D03*
X0099300Y0251800D03*
X0094300Y0254300D03*
X0091800Y0259300D03*
X0081800Y0241800D03*
X0084300Y0236800D03*
X0076800Y0244300D03*
X0069300Y0249300D03*
X0059300Y0241800D03*
X0049300Y0246800D03*
X0039300Y0241800D03*
X0034300Y0266800D03*
X0019300Y0269300D03*
X0049300Y0271800D03*
X0054300Y0274300D03*
X0059300Y0269300D03*
X0089300Y0289300D03*
X0129300Y0266800D03*
X0086800Y0201800D03*
X0096800Y0184300D03*
X0094300Y0176800D03*
X0071800Y0186800D03*
X0061800Y0196800D03*
X0036800Y0151800D03*
X0046800Y0141800D03*
X0064300Y0136800D03*
X0064300Y0129300D03*
X0071800Y0121800D03*
X0069300Y0114300D03*
X0059300Y0119300D03*
X0081800Y0121800D03*
X0101800Y0079300D03*
X0081800Y0064300D03*
X0084300Y0056800D03*
X0081800Y0049300D03*
X0089300Y0046800D03*
X0069300Y0039300D03*
X0061800Y0031800D03*
X0054300Y0031800D03*
X0046800Y0039300D03*
X0039300Y0049300D03*
X0034300Y0064300D03*
X0036800Y0076800D03*
X0046800Y0086800D03*
X0052229Y0071371D03*
X0058264Y0072407D03*
X0046800Y0064300D03*
X0016800Y0064300D03*
X0021800Y0029300D03*
X0119300Y0049300D03*
X0131800Y0034300D03*
X0131800Y0024300D03*
X0156800Y0034300D03*
X0166800Y0034300D03*
X0166800Y0029300D03*
X0174300Y0026800D03*
X0166800Y0014300D03*
X0161800Y0014300D03*
X0186800Y0014300D03*
X0191800Y0034300D03*
X0189300Y0039300D03*
X0179300Y0054300D03*
X0166800Y0056800D03*
X0211800Y0024300D03*
X0019300Y0149300D03*
X0014300Y0169300D03*
D31*
X0013300Y0168947D02*
X0028705Y0168947D01*
X0028534Y0168534D02*
X0028534Y0167261D01*
X0029021Y0166084D01*
X0031073Y0164032D01*
X0024405Y0164032D01*
X0023827Y0164610D01*
X0021842Y0165432D01*
X0015294Y0165432D01*
X0013309Y0164610D01*
X0013300Y0164601D01*
X0013300Y0180143D01*
X0013757Y0180600D01*
X0014843Y0180600D01*
X0019534Y0175909D01*
X0021004Y0175300D01*
X0026823Y0175300D01*
X0026819Y0175291D01*
X0026819Y0173309D01*
X0027577Y0171478D01*
X0028978Y0170077D01*
X0029269Y0169957D01*
X0029021Y0169710D01*
X0028534Y0168534D01*
X0028534Y0167348D02*
X0013300Y0167348D01*
X0013300Y0165750D02*
X0029356Y0165750D01*
X0030954Y0164151D02*
X0024286Y0164151D01*
X0018568Y0160032D02*
X0034170Y0160032D01*
X0038972Y0164835D01*
X0037062Y0167062D02*
X0041800Y0171800D01*
X0036745Y0167062D01*
X0037062Y0167062D01*
X0034518Y0169289D02*
X0034518Y0171582D01*
X0031800Y0174300D01*
X0028510Y0170545D02*
X0013300Y0170545D01*
X0013300Y0172144D02*
X0027302Y0172144D01*
X0026819Y0173742D02*
X0013300Y0173742D01*
X0013300Y0175341D02*
X0020906Y0175341D01*
X0018504Y0176939D02*
X0013300Y0176939D01*
X0013300Y0178538D02*
X0016905Y0178538D01*
X0015307Y0180136D02*
X0013300Y0180136D01*
X0009300Y0181800D02*
X0014300Y0186800D01*
X0009300Y0186800D01*
X0006800Y0189300D01*
X0006800Y0201800D01*
X0011800Y0206800D01*
X0014300Y0206800D01*
X0010532Y0211800D02*
X0008100Y0209368D01*
X0008100Y0208757D01*
X0005000Y0205657D01*
X0005000Y0298561D01*
X0242301Y0298561D01*
X0242301Y0292522D01*
X0241792Y0293030D01*
X0240175Y0293700D01*
X0224721Y0293700D01*
X0224321Y0294099D01*
X0223145Y0294587D01*
X0217935Y0294587D01*
X0216800Y0294116D01*
X0215665Y0294587D01*
X0210455Y0294587D01*
X0209300Y0294108D01*
X0208145Y0294587D01*
X0207170Y0294587D01*
X0205191Y0296566D01*
X0204066Y0297691D01*
X0202596Y0298300D01*
X0163504Y0298300D01*
X0162034Y0297691D01*
X0135143Y0270800D01*
X0132344Y0270800D01*
X0132122Y0271023D01*
X0130291Y0271781D01*
X0128309Y0271781D01*
X0127987Y0271648D01*
X0127924Y0271800D01*
X0128150Y0272345D01*
X0128150Y0278736D01*
X0127662Y0279912D01*
X0126762Y0280812D01*
X0126200Y0281045D01*
X0126200Y0283541D01*
X0125530Y0285159D01*
X0124862Y0285826D01*
X0124862Y0288165D01*
X0124375Y0289341D01*
X0123475Y0290241D01*
X0122299Y0290728D01*
X0116301Y0290728D01*
X0115550Y0290417D01*
X0114799Y0290728D01*
X0108801Y0290728D01*
X0108050Y0290417D01*
X0107299Y0290728D01*
X0101301Y0290728D01*
X0100125Y0290241D01*
X0099225Y0289341D01*
X0098738Y0288165D01*
X0098738Y0285826D01*
X0098070Y0285159D01*
X0097400Y0283541D01*
X0097400Y0281045D01*
X0096838Y0280812D01*
X0095938Y0279912D01*
X0095450Y0278736D01*
X0095450Y0272345D01*
X0095676Y0271800D01*
X0095450Y0271255D01*
X0095450Y0267367D01*
X0092364Y0264281D01*
X0090809Y0264281D01*
X0088978Y0263523D01*
X0087577Y0262122D01*
X0086819Y0260291D01*
X0086819Y0259938D01*
X0080300Y0266457D01*
X0080300Y0266930D01*
X0079387Y0269136D01*
X0077699Y0270824D01*
X0075493Y0271737D01*
X0073107Y0271737D01*
X0070901Y0270824D01*
X0069213Y0269136D01*
X0068300Y0266930D01*
X0068300Y0264544D01*
X0069213Y0262338D01*
X0069752Y0261800D01*
X0069213Y0261262D01*
X0068300Y0259056D01*
X0068300Y0256670D01*
X0069213Y0254464D01*
X0070901Y0252776D01*
X0073107Y0251863D01*
X0073580Y0251863D01*
X0076162Y0249281D01*
X0075809Y0249281D01*
X0073978Y0248523D01*
X0072577Y0247122D01*
X0071819Y0245291D01*
X0071819Y0244976D01*
X0056124Y0229281D01*
X0055809Y0229281D01*
X0053978Y0228523D01*
X0052577Y0227122D01*
X0051819Y0225291D01*
X0051819Y0224938D01*
X0049066Y0227691D01*
X0047596Y0228300D01*
X0021004Y0228300D01*
X0019534Y0227691D01*
X0018409Y0226566D01*
X0014843Y0223000D01*
X0011732Y0223000D01*
X0008100Y0219368D01*
X0008100Y0214232D01*
X0010532Y0211800D01*
X0010225Y0212106D02*
X0005000Y0212106D01*
X0005000Y0210508D02*
X0009240Y0210508D01*
X0008100Y0208909D02*
X0005000Y0208909D01*
X0005000Y0207311D02*
X0006654Y0207311D01*
X0005056Y0205712D02*
X0005000Y0205712D01*
X0005000Y0213705D02*
X0008627Y0213705D01*
X0008100Y0215303D02*
X0005000Y0215303D01*
X0005000Y0216902D02*
X0008100Y0216902D01*
X0008100Y0218501D02*
X0005000Y0218501D01*
X0005000Y0220099D02*
X0008831Y0220099D01*
X0010429Y0221698D02*
X0005000Y0221698D01*
X0005000Y0223296D02*
X0015139Y0223296D01*
X0016738Y0224895D02*
X0005000Y0224895D01*
X0005000Y0226493D02*
X0018336Y0226493D01*
X0020501Y0228092D02*
X0005000Y0228092D01*
X0005000Y0229690D02*
X0056533Y0229690D01*
X0058132Y0231289D02*
X0041945Y0231289D01*
X0041566Y0230909D02*
X0042691Y0232034D01*
X0052691Y0242034D01*
X0052901Y0242542D01*
X0054319Y0241124D01*
X0054319Y0240809D01*
X0055077Y0238978D01*
X0056478Y0237577D01*
X0058309Y0236819D01*
X0060291Y0236819D01*
X0062122Y0237577D01*
X0063523Y0238978D01*
X0064281Y0240809D01*
X0064281Y0242791D01*
X0063523Y0244622D01*
X0062122Y0246023D01*
X0060291Y0246781D01*
X0059976Y0246781D01*
X0059055Y0247702D01*
X0059262Y0247788D01*
X0060162Y0248688D01*
X0060650Y0249864D01*
X0060650Y0256255D01*
X0060424Y0256800D01*
X0060650Y0257345D01*
X0060650Y0263736D01*
X0060162Y0264912D01*
X0059262Y0265812D01*
X0058300Y0266211D01*
X0058300Y0271256D01*
X0058523Y0271478D01*
X0059281Y0273309D01*
X0059281Y0275291D01*
X0058523Y0277122D01*
X0057122Y0278523D01*
X0055291Y0279281D01*
X0053309Y0279281D01*
X0051478Y0278523D01*
X0050077Y0277122D01*
X0049936Y0276781D01*
X0048309Y0276781D01*
X0046478Y0276023D01*
X0045077Y0274622D01*
X0044319Y0272791D01*
X0044319Y0272476D01*
X0040909Y0269066D01*
X0040300Y0267596D01*
X0040300Y0266211D01*
X0039338Y0265812D01*
X0039243Y0265717D01*
X0039281Y0265809D01*
X0039281Y0267791D01*
X0038523Y0269622D01*
X0037122Y0271023D01*
X0035291Y0271781D01*
X0033309Y0271781D01*
X0031478Y0271023D01*
X0030077Y0269622D01*
X0029319Y0267791D01*
X0029319Y0265809D01*
X0030077Y0263978D01*
X0030300Y0263756D01*
X0030300Y0252080D01*
X0030162Y0252412D01*
X0029862Y0252712D01*
X0029862Y0258165D01*
X0029375Y0259341D01*
X0028475Y0260241D01*
X0027299Y0260728D01*
X0021301Y0260728D01*
X0020125Y0260241D01*
X0019300Y0259416D01*
X0018475Y0260241D01*
X0017299Y0260728D01*
X0011301Y0260728D01*
X0010125Y0260241D01*
X0009225Y0259341D01*
X0008738Y0258165D01*
X0008738Y0252712D01*
X0008438Y0252412D01*
X0007950Y0251236D01*
X0007950Y0244845D01*
X0008176Y0244300D01*
X0007950Y0243755D01*
X0007950Y0237364D01*
X0008438Y0236188D01*
X0009338Y0235288D01*
X0010514Y0234801D01*
X0013142Y0234801D01*
X0017034Y0230909D01*
X0018504Y0230300D01*
X0040096Y0230300D01*
X0041566Y0230909D01*
X0043544Y0232887D02*
X0059730Y0232887D01*
X0061329Y0234486D02*
X0045142Y0234486D01*
X0046741Y0236084D02*
X0062927Y0236084D01*
X0062227Y0237683D02*
X0064526Y0237683D01*
X0063648Y0239281D02*
X0066124Y0239281D01*
X0067723Y0240880D02*
X0064281Y0240880D01*
X0064281Y0242478D02*
X0069321Y0242478D01*
X0070920Y0244077D02*
X0063748Y0244077D01*
X0062469Y0245675D02*
X0071978Y0245675D01*
X0072729Y0247274D02*
X0059483Y0247274D01*
X0060239Y0248872D02*
X0074822Y0248872D01*
X0074972Y0250471D02*
X0060650Y0250471D01*
X0060650Y0252069D02*
X0072609Y0252069D01*
X0070010Y0253668D02*
X0060650Y0253668D01*
X0060650Y0255266D02*
X0068881Y0255266D01*
X0068300Y0256865D02*
X0060451Y0256865D01*
X0060650Y0258463D02*
X0068300Y0258463D01*
X0068716Y0260062D02*
X0060650Y0260062D01*
X0060650Y0261660D02*
X0069612Y0261660D01*
X0068832Y0263259D02*
X0060650Y0263259D01*
X0060185Y0264857D02*
X0068300Y0264857D01*
X0068300Y0266456D02*
X0058300Y0266456D01*
X0058300Y0268054D02*
X0068766Y0268054D01*
X0069731Y0269653D02*
X0058300Y0269653D01*
X0058300Y0271251D02*
X0071934Y0271251D01*
X0076666Y0271251D02*
X0095450Y0271251D01*
X0095450Y0269653D02*
X0078869Y0269653D01*
X0079834Y0268054D02*
X0095450Y0268054D01*
X0094539Y0266456D02*
X0080301Y0266456D01*
X0081899Y0264857D02*
X0092941Y0264857D01*
X0088715Y0263259D02*
X0083498Y0263259D01*
X0085097Y0261660D02*
X0087386Y0261660D01*
X0086819Y0260062D02*
X0086695Y0260062D01*
X0091800Y0259300D02*
X0093040Y0259300D01*
X0101800Y0268060D01*
X0101800Y0261800D02*
X0094300Y0254300D01*
X0099300Y0251800D02*
X0106800Y0251800D01*
X0119300Y0264300D01*
X0119300Y0265560D01*
X0121800Y0268060D01*
X0124300Y0261800D02*
X0101800Y0239300D01*
X0096800Y0244300D02*
X0076800Y0264300D01*
X0075737Y0264300D01*
X0074300Y0265737D01*
X0074300Y0257863D02*
X0074300Y0256800D01*
X0091800Y0239300D01*
X0091800Y0206800D01*
X0093754Y0201800D02*
X0104300Y0201800D01*
X0109300Y0206800D01*
X0109300Y0213060D01*
X0110540Y0214300D01*
X0114300Y0214300D01*
X0119300Y0219300D01*
X0119300Y0218060D01*
X0119300Y0211800D02*
X0124300Y0211800D01*
X0136800Y0224300D01*
X0143040Y0224300D01*
X0144300Y0223040D01*
X0143879Y0228799D02*
X0140514Y0228799D01*
X0139338Y0228312D01*
X0139326Y0228300D01*
X0136004Y0228300D01*
X0134534Y0227691D01*
X0125650Y0218806D01*
X0125650Y0221255D01*
X0125424Y0221800D01*
X0125650Y0222345D01*
X0125650Y0226881D01*
X0125800Y0227245D01*
X0125800Y0228756D01*
X0126023Y0228978D01*
X0126781Y0230809D01*
X0126781Y0232791D01*
X0126023Y0234622D01*
X0124622Y0236023D01*
X0122791Y0236781D01*
X0120809Y0236781D01*
X0119322Y0236165D01*
X0121566Y0238409D01*
X0122691Y0239534D01*
X0123300Y0241004D01*
X0123300Y0242281D01*
X0130586Y0242281D01*
X0131096Y0242492D01*
X0131096Y0241223D01*
X0131583Y0240046D01*
X0132127Y0239503D01*
X0131591Y0239281D01*
X0130809Y0239281D01*
X0128978Y0238523D01*
X0127577Y0237122D01*
X0126819Y0235291D01*
X0126819Y0233309D01*
X0127577Y0231478D01*
X0128978Y0230077D01*
X0130809Y0229319D01*
X0132791Y0229319D01*
X0134622Y0230077D01*
X0135723Y0231179D01*
X0139657Y0231179D01*
X0140833Y0231666D01*
X0141171Y0232004D01*
X0142245Y0231560D01*
X0143023Y0231560D01*
X0143943Y0231179D01*
X0149940Y0231179D01*
X0151117Y0231666D01*
X0152017Y0232566D01*
X0152504Y0233742D01*
X0152504Y0237377D01*
X0152130Y0238281D01*
X0152567Y0238100D01*
X0161033Y0238100D01*
X0162860Y0238857D01*
X0162860Y0229743D01*
X0161033Y0230500D01*
X0152567Y0230500D01*
X0150288Y0229556D01*
X0149832Y0229100D01*
X0144605Y0229100D01*
X0143879Y0228799D01*
X0143678Y0231289D02*
X0139922Y0231289D01*
X0143040Y0235560D02*
X0141800Y0236800D01*
X0141800Y0241800D01*
X0141800Y0248060D01*
X0143040Y0249300D01*
X0140560Y0243040D02*
X0136658Y0243040D01*
X0140560Y0243040D02*
X0141800Y0241800D01*
X0143040Y0235560D02*
X0146942Y0235560D01*
X0150206Y0231289D02*
X0162860Y0231289D01*
X0162860Y0232887D02*
X0152150Y0232887D01*
X0152504Y0234486D02*
X0162860Y0234486D01*
X0162860Y0236084D02*
X0152504Y0236084D01*
X0152378Y0237683D02*
X0162860Y0237683D01*
X0156800Y0234300D02*
X0151800Y0229300D01*
X0129300Y0229300D01*
X0126800Y0231800D01*
X0126800Y0240560D01*
X0123060Y0240560D01*
X0109300Y0226800D01*
X0109300Y0220540D01*
X0105800Y0220099D02*
X0112950Y0220099D01*
X0112950Y0221255D02*
X0112950Y0218819D01*
X0105800Y0218819D01*
X0105800Y0222643D01*
X0117435Y0234278D01*
X0116819Y0232791D01*
X0116819Y0231299D01*
X0115514Y0231299D01*
X0114338Y0230812D01*
X0113438Y0229912D01*
X0112950Y0228736D01*
X0112950Y0222345D01*
X0113176Y0221800D01*
X0112950Y0221255D01*
X0113134Y0221698D02*
X0105800Y0221698D01*
X0106453Y0223296D02*
X0112950Y0223296D01*
X0112950Y0224895D02*
X0108051Y0224895D01*
X0109650Y0226493D02*
X0112950Y0226493D01*
X0112950Y0228092D02*
X0111248Y0228092D01*
X0112847Y0229690D02*
X0113346Y0229690D01*
X0114445Y0231289D02*
X0115488Y0231289D01*
X0116044Y0232887D02*
X0116859Y0232887D01*
X0121800Y0231800D02*
X0121800Y0228040D01*
X0119300Y0225540D01*
X0125650Y0224895D02*
X0131738Y0224895D01*
X0133336Y0226493D02*
X0125650Y0226493D01*
X0125800Y0228092D02*
X0135501Y0228092D01*
X0133687Y0229690D02*
X0150612Y0229690D01*
X0148373Y0217400D02*
X0147600Y0215533D01*
X0147600Y0213067D01*
X0148539Y0210800D01*
X0128957Y0210800D01*
X0137965Y0219809D01*
X0138438Y0218668D01*
X0139338Y0217768D01*
X0140514Y0217281D01*
X0148086Y0217281D01*
X0148373Y0217400D01*
X0148167Y0216902D02*
X0135059Y0216902D01*
X0136657Y0218501D02*
X0138605Y0218501D01*
X0133460Y0215303D02*
X0147600Y0215303D01*
X0147600Y0213705D02*
X0131862Y0213705D01*
X0130263Y0212106D02*
X0147998Y0212106D01*
X0154300Y0206800D02*
X0121800Y0206800D01*
X0111800Y0196800D01*
X0093208Y0196800D01*
X0082401Y0185992D01*
X0084628Y0183765D02*
X0092663Y0191800D01*
X0099300Y0191800D01*
X0104300Y0186800D01*
X0104300Y0161800D01*
X0109300Y0156800D01*
X0154300Y0156800D01*
X0156800Y0154300D01*
X0148539Y0160800D02*
X0126777Y0160800D01*
X0126781Y0160809D01*
X0126781Y0161124D01*
X0133457Y0167800D01*
X0139306Y0167800D01*
X0139338Y0167768D01*
X0140514Y0167281D01*
X0148086Y0167281D01*
X0148373Y0167400D01*
X0147600Y0165533D01*
X0147600Y0163067D01*
X0148539Y0160800D01*
X0148475Y0160954D02*
X0126781Y0160954D01*
X0128209Y0162553D02*
X0147813Y0162553D01*
X0147600Y0164151D02*
X0129808Y0164151D01*
X0131406Y0165750D02*
X0147690Y0165750D01*
X0148248Y0167348D02*
X0148352Y0167348D01*
X0144300Y0171800D02*
X0146800Y0174300D01*
X0144300Y0171800D02*
X0131800Y0171800D01*
X0121800Y0161800D01*
X0121781Y0167438D02*
X0121781Y0167791D01*
X0121023Y0169622D01*
X0120800Y0169844D01*
X0120800Y0183756D01*
X0121023Y0183978D01*
X0121781Y0185809D01*
X0121781Y0187791D01*
X0121023Y0189622D01*
X0119622Y0191023D01*
X0119309Y0191152D01*
X0120957Y0192800D01*
X0121806Y0192800D01*
X0121838Y0192768D01*
X0123014Y0192281D01*
X0130586Y0192281D01*
X0131096Y0192492D01*
X0131096Y0191223D01*
X0131583Y0190046D01*
X0132127Y0189503D01*
X0131591Y0189281D01*
X0130809Y0189281D01*
X0128978Y0188523D01*
X0127577Y0187122D01*
X0126819Y0185291D01*
X0126819Y0183309D01*
X0127577Y0181478D01*
X0128978Y0180077D01*
X0130809Y0179319D01*
X0132791Y0179319D01*
X0134622Y0180077D01*
X0135723Y0181179D01*
X0139657Y0181179D01*
X0140833Y0181666D01*
X0141171Y0182004D01*
X0142245Y0181560D01*
X0143023Y0181560D01*
X0143943Y0181179D01*
X0149940Y0181179D01*
X0151117Y0181666D01*
X0152017Y0182566D01*
X0152504Y0183742D01*
X0152504Y0187377D01*
X0152130Y0188281D01*
X0152567Y0188100D01*
X0161033Y0188100D01*
X0162860Y0188857D01*
X0162860Y0179743D01*
X0161033Y0180500D01*
X0152567Y0180500D01*
X0150288Y0179556D01*
X0149832Y0179100D01*
X0144605Y0179100D01*
X0143879Y0178799D01*
X0140514Y0178799D01*
X0139338Y0178312D01*
X0138438Y0177412D01*
X0137950Y0176236D01*
X0137950Y0175800D01*
X0131004Y0175800D01*
X0129534Y0175191D01*
X0128409Y0174066D01*
X0121781Y0167438D01*
X0121302Y0168947D02*
X0123290Y0168947D01*
X0124888Y0170545D02*
X0120800Y0170545D01*
X0120800Y0172144D02*
X0126487Y0172144D01*
X0128085Y0173742D02*
X0120800Y0173742D01*
X0120800Y0175341D02*
X0129896Y0175341D01*
X0129300Y0179300D02*
X0126800Y0181800D01*
X0126800Y0190560D01*
X0128584Y0188129D02*
X0121641Y0188129D01*
X0121781Y0186530D02*
X0127332Y0186530D01*
X0126819Y0184932D02*
X0121418Y0184932D01*
X0120800Y0183333D02*
X0126819Y0183333D01*
X0127471Y0181735D02*
X0120800Y0181735D01*
X0120800Y0180136D02*
X0128919Y0180136D01*
X0129300Y0179300D02*
X0151800Y0179300D01*
X0156800Y0184300D01*
X0151800Y0189300D01*
X0146942Y0189300D01*
X0146942Y0185560D02*
X0143040Y0185560D01*
X0141800Y0186800D01*
X0141800Y0189300D01*
X0141800Y0191800D01*
X0141800Y0198060D01*
X0143040Y0199300D01*
X0140560Y0193040D02*
X0136658Y0193040D01*
X0131902Y0189727D02*
X0120917Y0189727D01*
X0119483Y0191326D02*
X0131096Y0191326D01*
X0133060Y0185560D02*
X0131800Y0184300D01*
X0133060Y0185560D02*
X0136658Y0185560D01*
X0140902Y0181735D02*
X0141822Y0181735D01*
X0139883Y0178538D02*
X0120800Y0178538D01*
X0120800Y0176939D02*
X0138242Y0176939D01*
X0134681Y0180136D02*
X0151689Y0180136D01*
X0151185Y0181735D02*
X0162860Y0181735D01*
X0162860Y0183333D02*
X0152335Y0183333D01*
X0152504Y0184932D02*
X0162860Y0184932D01*
X0162860Y0186530D02*
X0152504Y0186530D01*
X0152497Y0188129D02*
X0152193Y0188129D01*
X0161103Y0188129D02*
X0162860Y0188129D01*
X0162860Y0180136D02*
X0161911Y0180136D01*
X0141800Y0191800D02*
X0140560Y0193040D01*
X0135560Y0199300D02*
X0128060Y0199300D01*
X0126800Y0198040D01*
X0125560Y0196800D01*
X0119300Y0196800D01*
X0111800Y0189300D01*
X0111800Y0161800D01*
X0116800Y0166800D02*
X0116800Y0186800D01*
X0116800Y0209300D02*
X0119300Y0211800D01*
X0125650Y0220099D02*
X0126942Y0220099D01*
X0125466Y0221698D02*
X0128541Y0221698D01*
X0130139Y0223296D02*
X0125650Y0223296D01*
X0126318Y0229690D02*
X0129913Y0229690D01*
X0127767Y0231289D02*
X0126781Y0231289D01*
X0126741Y0232887D02*
X0126994Y0232887D01*
X0126819Y0234486D02*
X0126079Y0234486D01*
X0127148Y0236084D02*
X0124473Y0236084D01*
X0122438Y0239281D02*
X0131591Y0239281D01*
X0131238Y0240880D02*
X0123248Y0240880D01*
X0120839Y0237683D02*
X0128138Y0237683D01*
X0131062Y0242478D02*
X0131096Y0242478D01*
X0125560Y0246800D02*
X0126800Y0248040D01*
X0128060Y0249300D01*
X0135560Y0249300D01*
X0125560Y0246800D02*
X0121800Y0246800D01*
X0119300Y0244300D01*
X0119300Y0241800D01*
X0101800Y0224300D01*
X0101800Y0206800D01*
X0096800Y0209300D02*
X0096800Y0244300D01*
X0101800Y0231800D02*
X0116800Y0246800D01*
X0116800Y0249300D01*
X0124300Y0256800D01*
X0154300Y0256800D01*
X0156800Y0254300D01*
X0139300Y0261800D02*
X0151800Y0274300D01*
X0156800Y0274300D01*
X0156157Y0280500D02*
X0165957Y0290300D01*
X0192891Y0290300D01*
X0192891Y0285238D01*
X0193379Y0284062D01*
X0194279Y0283162D01*
X0195455Y0282675D01*
X0196631Y0282675D01*
X0196631Y0281080D01*
X0196600Y0281004D01*
X0196600Y0278935D01*
X0196631Y0278859D01*
X0196631Y0276577D01*
X0197119Y0275401D01*
X0198019Y0274501D01*
X0199195Y0274013D01*
X0204405Y0274013D01*
X0205581Y0274501D01*
X0205850Y0274769D01*
X0212750Y0274769D01*
X0213019Y0274501D01*
X0214195Y0274013D01*
X0219405Y0274013D01*
X0220581Y0274501D01*
X0220850Y0274769D01*
X0222609Y0274769D01*
X0222788Y0274338D01*
X0223688Y0273438D01*
X0224864Y0272950D01*
X0230372Y0272950D01*
X0230372Y0268425D01*
X0229195Y0268425D01*
X0228019Y0267938D01*
X0227119Y0267038D01*
X0226631Y0265862D01*
X0226631Y0259077D01*
X0227000Y0258187D01*
X0227000Y0255728D01*
X0226819Y0255291D01*
X0226819Y0253309D01*
X0227000Y0252872D01*
X0227000Y0250453D01*
X0222069Y0250453D01*
X0220893Y0249966D01*
X0219993Y0249065D01*
X0219506Y0247889D01*
X0219506Y0240711D01*
X0219993Y0239535D01*
X0220858Y0238669D01*
X0220858Y0235650D01*
X0217541Y0235650D01*
X0216365Y0235162D01*
X0215465Y0234262D01*
X0214978Y0233086D01*
X0214978Y0225514D01*
X0215465Y0224338D01*
X0216365Y0223438D01*
X0217541Y0222950D01*
X0220858Y0222950D01*
X0220858Y0209931D01*
X0219993Y0209065D01*
X0219506Y0207889D01*
X0219506Y0200711D01*
X0219993Y0199535D01*
X0220858Y0198669D01*
X0220858Y0195650D01*
X0217541Y0195650D01*
X0216365Y0195162D01*
X0215465Y0194262D01*
X0214978Y0193086D01*
X0214978Y0185514D01*
X0215465Y0184338D01*
X0216365Y0183438D01*
X0217541Y0182950D01*
X0220858Y0182950D01*
X0220858Y0169931D01*
X0219993Y0169065D01*
X0219506Y0167889D01*
X0219506Y0160711D01*
X0219993Y0159535D01*
X0220858Y0158669D01*
X0220858Y0155650D01*
X0217541Y0155650D01*
X0216365Y0155162D01*
X0215465Y0154262D01*
X0214978Y0153086D01*
X0214978Y0145514D01*
X0215465Y0144338D01*
X0216365Y0143438D01*
X0217541Y0142950D01*
X0220858Y0142950D01*
X0220858Y0129931D01*
X0219993Y0129065D01*
X0219506Y0127889D01*
X0219506Y0120711D01*
X0219993Y0119535D01*
X0220858Y0118669D01*
X0220858Y0115650D01*
X0217541Y0115650D01*
X0216365Y0115162D01*
X0215465Y0114262D01*
X0214978Y0113086D01*
X0214978Y0105514D01*
X0215465Y0104338D01*
X0216365Y0103438D01*
X0217541Y0102950D01*
X0220858Y0102950D01*
X0220858Y0089931D01*
X0219993Y0089065D01*
X0219506Y0087889D01*
X0219506Y0080711D01*
X0219993Y0079535D01*
X0220858Y0078669D01*
X0220858Y0075800D01*
X0220507Y0075800D01*
X0219538Y0075399D01*
X0218933Y0075650D01*
X0212541Y0075650D01*
X0211365Y0075162D01*
X0210465Y0074262D01*
X0209978Y0073086D01*
X0209978Y0065514D01*
X0210465Y0064338D01*
X0211103Y0063700D01*
X0189997Y0063700D01*
X0190635Y0064338D01*
X0191122Y0065514D01*
X0191122Y0068030D01*
X0191260Y0068363D01*
X0191260Y0075391D01*
X0197023Y0075391D01*
X0197913Y0075760D01*
X0199015Y0075760D01*
X0200779Y0076491D01*
X0202129Y0077841D01*
X0203049Y0078761D01*
X0203176Y0078634D01*
X0204352Y0078147D01*
X0211531Y0078147D01*
X0212707Y0078634D01*
X0213607Y0079535D01*
X0214094Y0080711D01*
X0214094Y0087889D01*
X0213607Y0089065D01*
X0212707Y0089966D01*
X0211531Y0090453D01*
X0204352Y0090453D01*
X0203176Y0089966D01*
X0202492Y0089281D01*
X0200809Y0089281D01*
X0199587Y0088775D01*
X0199587Y0090645D01*
X0199099Y0091821D01*
X0198199Y0092721D01*
X0197023Y0093209D01*
X0196859Y0093209D01*
X0197412Y0093438D01*
X0198298Y0094324D01*
X0198309Y0094319D01*
X0200291Y0094319D01*
X0200302Y0094324D01*
X0201188Y0093438D01*
X0202364Y0092950D01*
X0208755Y0092950D01*
X0209932Y0093438D01*
X0210832Y0094338D01*
X0211319Y0095514D01*
X0211319Y0103086D01*
X0210832Y0104262D01*
X0209932Y0105162D01*
X0208755Y0105650D01*
X0202364Y0105650D01*
X0201188Y0105162D01*
X0200302Y0104276D01*
X0200291Y0104281D01*
X0198309Y0104281D01*
X0198298Y0104276D01*
X0197412Y0105162D01*
X0196236Y0105650D01*
X0191122Y0105650D01*
X0191122Y0113086D01*
X0190635Y0114262D01*
X0190563Y0114334D01*
X0190563Y0115391D01*
X0197023Y0115391D01*
X0197913Y0115760D01*
X0199015Y0115760D01*
X0200779Y0116491D01*
X0202129Y0117841D01*
X0203049Y0118761D01*
X0203176Y0118634D01*
X0204352Y0118147D01*
X0211531Y0118147D01*
X0212707Y0118634D01*
X0213607Y0119535D01*
X0214094Y0120711D01*
X0214094Y0127889D01*
X0213607Y0129065D01*
X0212707Y0129966D01*
X0211531Y0130453D01*
X0204352Y0130453D01*
X0203176Y0129966D01*
X0202492Y0129281D01*
X0200809Y0129281D01*
X0199587Y0128775D01*
X0199587Y0130645D01*
X0199099Y0131821D01*
X0198199Y0132721D01*
X0197023Y0133209D01*
X0196859Y0133209D01*
X0197412Y0133438D01*
X0198298Y0134324D01*
X0198309Y0134319D01*
X0200291Y0134319D01*
X0200302Y0134324D01*
X0201188Y0133438D01*
X0202364Y0132950D01*
X0208755Y0132950D01*
X0209932Y0133438D01*
X0210832Y0134338D01*
X0211319Y0135514D01*
X0211319Y0143086D01*
X0210832Y0144262D01*
X0209932Y0145162D01*
X0208755Y0145650D01*
X0202364Y0145650D01*
X0201188Y0145162D01*
X0200302Y0144276D01*
X0200291Y0144281D01*
X0198309Y0144281D01*
X0198298Y0144276D01*
X0197412Y0145162D01*
X0196236Y0145650D01*
X0191122Y0145650D01*
X0191122Y0153086D01*
X0190760Y0153961D01*
X0190760Y0155391D01*
X0197023Y0155391D01*
X0197913Y0155760D01*
X0199015Y0155760D01*
X0200779Y0156491D01*
X0203049Y0158761D01*
X0203176Y0158634D01*
X0204352Y0158147D01*
X0211531Y0158147D01*
X0212707Y0158634D01*
X0213607Y0159535D01*
X0214094Y0160711D01*
X0214094Y0167889D01*
X0213607Y0169065D01*
X0212707Y0169966D01*
X0211531Y0170453D01*
X0204352Y0170453D01*
X0203176Y0169966D01*
X0202492Y0169281D01*
X0200809Y0169281D01*
X0199587Y0168775D01*
X0199587Y0170645D01*
X0199099Y0171821D01*
X0198199Y0172721D01*
X0197023Y0173209D01*
X0196859Y0173209D01*
X0197412Y0173438D01*
X0198298Y0174324D01*
X0198309Y0174319D01*
X0200291Y0174319D01*
X0200302Y0174324D01*
X0201188Y0173438D01*
X0202364Y0172950D01*
X0208755Y0172950D01*
X0209932Y0173438D01*
X0210832Y0174338D01*
X0211319Y0175514D01*
X0211319Y0183086D01*
X0210832Y0184262D01*
X0209932Y0185162D01*
X0208755Y0185650D01*
X0202364Y0185650D01*
X0201188Y0185162D01*
X0200302Y0184276D01*
X0200291Y0184281D01*
X0198309Y0184281D01*
X0198298Y0184276D01*
X0197412Y0185162D01*
X0196236Y0185650D01*
X0191122Y0185650D01*
X0191122Y0193086D01*
X0190635Y0194262D01*
X0189769Y0195128D01*
X0189769Y0195586D01*
X0190238Y0195391D01*
X0197023Y0195391D01*
X0197913Y0195760D01*
X0199015Y0195760D01*
X0200779Y0196491D01*
X0202129Y0197841D01*
X0203049Y0198761D01*
X0203176Y0198634D01*
X0204352Y0198147D01*
X0211531Y0198147D01*
X0212707Y0198634D01*
X0213607Y0199535D01*
X0214094Y0200711D01*
X0214094Y0207889D01*
X0213607Y0209065D01*
X0212707Y0209966D01*
X0211531Y0210453D01*
X0204352Y0210453D01*
X0203176Y0209966D01*
X0202492Y0209281D01*
X0200809Y0209281D01*
X0199587Y0208775D01*
X0199587Y0210645D01*
X0199099Y0211821D01*
X0198199Y0212721D01*
X0197023Y0213209D01*
X0196859Y0213209D01*
X0197412Y0213438D01*
X0198298Y0214324D01*
X0198309Y0214319D01*
X0200291Y0214319D01*
X0200302Y0214324D01*
X0201188Y0213438D01*
X0202364Y0212950D01*
X0208755Y0212950D01*
X0209932Y0213438D01*
X0210832Y0214338D01*
X0211319Y0215514D01*
X0211319Y0223086D01*
X0210832Y0224262D01*
X0209932Y0225162D01*
X0208755Y0225650D01*
X0202364Y0225650D01*
X0201188Y0225162D01*
X0200302Y0224276D01*
X0200291Y0224281D01*
X0198309Y0224281D01*
X0198298Y0224276D01*
X0197412Y0225162D01*
X0196236Y0225650D01*
X0191122Y0225650D01*
X0191122Y0228030D01*
X0191260Y0228363D01*
X0191260Y0235391D01*
X0197023Y0235391D01*
X0197913Y0235760D01*
X0199015Y0235760D01*
X0200779Y0236491D01*
X0203049Y0238761D01*
X0203176Y0238634D01*
X0204352Y0238147D01*
X0211531Y0238147D01*
X0212707Y0238634D01*
X0213607Y0239535D01*
X0214094Y0240711D01*
X0214094Y0247889D01*
X0213607Y0249065D01*
X0212707Y0249966D01*
X0211531Y0250453D01*
X0204352Y0250453D01*
X0203176Y0249966D01*
X0202711Y0249500D01*
X0200766Y0249500D01*
X0199587Y0249012D01*
X0199587Y0250645D01*
X0199099Y0251821D01*
X0198199Y0252721D01*
X0197023Y0253209D01*
X0196859Y0253209D01*
X0197412Y0253438D01*
X0198312Y0254338D01*
X0198379Y0254500D01*
X0202872Y0254500D01*
X0203309Y0254319D01*
X0205291Y0254319D01*
X0205302Y0254324D01*
X0206188Y0253438D01*
X0207364Y0252950D01*
X0213755Y0252950D01*
X0214932Y0253438D01*
X0215832Y0254338D01*
X0216319Y0255514D01*
X0216319Y0263086D01*
X0215832Y0264262D01*
X0214932Y0265162D01*
X0213755Y0265650D01*
X0207364Y0265650D01*
X0206188Y0265162D01*
X0205302Y0264276D01*
X0205291Y0264281D01*
X0203309Y0264281D01*
X0202872Y0264100D01*
X0198379Y0264100D01*
X0198312Y0264262D01*
X0197412Y0265162D01*
X0196236Y0265650D01*
X0189845Y0265650D01*
X0189300Y0265424D01*
X0188755Y0265650D01*
X0185998Y0265650D01*
X0185298Y0266350D01*
X0183948Y0267700D01*
X0182184Y0268431D01*
X0179915Y0268431D01*
X0179932Y0268438D01*
X0180832Y0269338D01*
X0181319Y0270514D01*
X0181319Y0278086D01*
X0180832Y0279262D01*
X0179932Y0280162D01*
X0178755Y0280650D01*
X0172364Y0280650D01*
X0171188Y0280162D01*
X0171026Y0280000D01*
X0162240Y0280000D01*
X0161033Y0280500D01*
X0156157Y0280500D01*
X0156499Y0280842D02*
X0196600Y0280842D01*
X0196600Y0279244D02*
X0180839Y0279244D01*
X0181319Y0277645D02*
X0196631Y0277645D01*
X0196851Y0276047D02*
X0181319Y0276047D01*
X0181319Y0274448D02*
X0198145Y0274448D01*
X0205455Y0274448D02*
X0213145Y0274448D01*
X0220455Y0274448D02*
X0222742Y0274448D01*
X0228300Y0268054D02*
X0183092Y0268054D01*
X0185192Y0266456D02*
X0226878Y0266456D01*
X0226631Y0264857D02*
X0215237Y0264857D01*
X0216247Y0263259D02*
X0226631Y0263259D01*
X0226631Y0261660D02*
X0216319Y0261660D01*
X0216319Y0260062D02*
X0226631Y0260062D01*
X0226886Y0258463D02*
X0216319Y0258463D01*
X0216319Y0256865D02*
X0227000Y0256865D01*
X0226819Y0255266D02*
X0216216Y0255266D01*
X0215162Y0253668D02*
X0226819Y0253668D01*
X0227000Y0252069D02*
X0198851Y0252069D01*
X0199587Y0250471D02*
X0227000Y0250471D01*
X0219913Y0248872D02*
X0213687Y0248872D01*
X0214094Y0247274D02*
X0219506Y0247274D01*
X0219506Y0245675D02*
X0214094Y0245675D01*
X0214094Y0244077D02*
X0219506Y0244077D01*
X0219506Y0242478D02*
X0214094Y0242478D01*
X0214094Y0240880D02*
X0219506Y0240880D01*
X0220246Y0239281D02*
X0213354Y0239281D01*
X0215688Y0234486D02*
X0191260Y0234486D01*
X0191260Y0232887D02*
X0214978Y0232887D01*
X0214978Y0231289D02*
X0191260Y0231289D01*
X0191260Y0229690D02*
X0214978Y0229690D01*
X0214978Y0228092D02*
X0191147Y0228092D01*
X0191122Y0226493D02*
X0214978Y0226493D01*
X0215234Y0224895D02*
X0210199Y0224895D01*
X0211232Y0223296D02*
X0216707Y0223296D01*
X0220858Y0221698D02*
X0211319Y0221698D01*
X0211319Y0220099D02*
X0220858Y0220099D01*
X0220858Y0218501D02*
X0211319Y0218501D01*
X0211319Y0216902D02*
X0220858Y0216902D01*
X0220858Y0215303D02*
X0211232Y0215303D01*
X0210199Y0213705D02*
X0220858Y0213705D01*
X0220858Y0212106D02*
X0198814Y0212106D01*
X0199587Y0210508D02*
X0220858Y0210508D01*
X0219928Y0208909D02*
X0213672Y0208909D01*
X0214094Y0207311D02*
X0219506Y0207311D01*
X0219506Y0205712D02*
X0214094Y0205712D01*
X0214094Y0204114D02*
X0219506Y0204114D01*
X0219506Y0202515D02*
X0214094Y0202515D01*
X0214094Y0200917D02*
X0219506Y0200917D01*
X0220209Y0199318D02*
X0213391Y0199318D01*
X0215726Y0194523D02*
X0190374Y0194523D01*
X0191122Y0192924D02*
X0214978Y0192924D01*
X0214978Y0191326D02*
X0191122Y0191326D01*
X0191122Y0189727D02*
X0214978Y0189727D01*
X0214978Y0188129D02*
X0191122Y0188129D01*
X0191122Y0186530D02*
X0214978Y0186530D01*
X0215219Y0184932D02*
X0210162Y0184932D01*
X0211217Y0183333D02*
X0216617Y0183333D01*
X0220858Y0181735D02*
X0211319Y0181735D01*
X0211319Y0180136D02*
X0220858Y0180136D01*
X0220858Y0178538D02*
X0211319Y0178538D01*
X0211319Y0176939D02*
X0220858Y0176939D01*
X0220858Y0175341D02*
X0211247Y0175341D01*
X0210236Y0173742D02*
X0220858Y0173742D01*
X0220858Y0172144D02*
X0198777Y0172144D01*
X0199587Y0170545D02*
X0220858Y0170545D01*
X0219944Y0168947D02*
X0213656Y0168947D01*
X0214094Y0167348D02*
X0219506Y0167348D01*
X0219506Y0165750D02*
X0214094Y0165750D01*
X0214094Y0164151D02*
X0219506Y0164151D01*
X0219506Y0162553D02*
X0214094Y0162553D01*
X0214094Y0160954D02*
X0219506Y0160954D01*
X0220172Y0159356D02*
X0213428Y0159356D01*
X0215763Y0154560D02*
X0190760Y0154560D01*
X0191122Y0152962D02*
X0214978Y0152962D01*
X0214978Y0151363D02*
X0191122Y0151363D01*
X0191122Y0149765D02*
X0214978Y0149765D01*
X0214978Y0148166D02*
X0191122Y0148166D01*
X0191122Y0146568D02*
X0214978Y0146568D01*
X0215204Y0144969D02*
X0210125Y0144969D01*
X0211201Y0143370D02*
X0216527Y0143370D01*
X0220858Y0141772D02*
X0211319Y0141772D01*
X0211319Y0140173D02*
X0220858Y0140173D01*
X0220858Y0138575D02*
X0211319Y0138575D01*
X0211319Y0136976D02*
X0220858Y0136976D01*
X0220858Y0135378D02*
X0211263Y0135378D01*
X0210273Y0133779D02*
X0220858Y0133779D01*
X0220858Y0132181D02*
X0198740Y0132181D01*
X0199587Y0130582D02*
X0220858Y0130582D01*
X0219959Y0128984D02*
X0213641Y0128984D01*
X0214094Y0127385D02*
X0219506Y0127385D01*
X0219506Y0125787D02*
X0214094Y0125787D01*
X0214094Y0124188D02*
X0219506Y0124188D01*
X0219506Y0122590D02*
X0214094Y0122590D01*
X0214094Y0120991D02*
X0219506Y0120991D01*
X0220134Y0119393D02*
X0213466Y0119393D01*
X0215800Y0114597D02*
X0190563Y0114597D01*
X0191122Y0112999D02*
X0214978Y0112999D01*
X0214978Y0111400D02*
X0191122Y0111400D01*
X0191122Y0109802D02*
X0214978Y0109802D01*
X0214978Y0108203D02*
X0191122Y0108203D01*
X0191122Y0106605D02*
X0214978Y0106605D01*
X0215188Y0105006D02*
X0210088Y0105006D01*
X0211186Y0103408D02*
X0216437Y0103408D01*
X0220858Y0101809D02*
X0211319Y0101809D01*
X0211319Y0100211D02*
X0220858Y0100211D01*
X0220858Y0098612D02*
X0211319Y0098612D01*
X0211319Y0097014D02*
X0220858Y0097014D01*
X0220858Y0095415D02*
X0211278Y0095415D01*
X0210311Y0093817D02*
X0220858Y0093817D01*
X0220858Y0092218D02*
X0198703Y0092218D01*
X0199587Y0090620D02*
X0220858Y0090620D01*
X0219974Y0089021D02*
X0213626Y0089021D01*
X0214094Y0087423D02*
X0219506Y0087423D01*
X0219506Y0085824D02*
X0214094Y0085824D01*
X0214094Y0084226D02*
X0219506Y0084226D01*
X0219506Y0082627D02*
X0214094Y0082627D01*
X0214094Y0081029D02*
X0219506Y0081029D01*
X0220097Y0079430D02*
X0213503Y0079430D01*
X0210837Y0074634D02*
X0191260Y0074634D01*
X0191260Y0073036D02*
X0209978Y0073036D01*
X0209978Y0071437D02*
X0191260Y0071437D01*
X0191260Y0069839D02*
X0209978Y0069839D01*
X0209978Y0068240D02*
X0191209Y0068240D01*
X0191122Y0066642D02*
X0209978Y0066642D01*
X0210173Y0065043D02*
X0190927Y0065043D01*
X0195717Y0054900D02*
X0186123Y0054900D01*
X0184104Y0052881D01*
X0183523Y0051478D01*
X0182122Y0050077D01*
X0180719Y0049496D01*
X0180560Y0049337D01*
X0180635Y0049262D01*
X0181122Y0048086D01*
X0181122Y0040514D01*
X0180635Y0039338D01*
X0180597Y0039300D01*
X0180635Y0039262D01*
X0181122Y0038086D01*
X0181122Y0030514D01*
X0180635Y0029338D01*
X0179735Y0028438D01*
X0179398Y0028298D01*
X0179437Y0028042D01*
X0179363Y0027746D01*
X0179363Y0027441D01*
X0179281Y0027244D01*
X0179281Y0025809D01*
X0178523Y0023978D01*
X0177844Y0023300D01*
X0192301Y0023300D01*
X0192301Y0028086D01*
X0192788Y0029262D01*
X0192826Y0029300D01*
X0192802Y0029324D01*
X0192791Y0029319D01*
X0190809Y0029319D01*
X0188978Y0030077D01*
X0187577Y0031478D01*
X0186819Y0033309D01*
X0186819Y0035291D01*
X0187577Y0037122D01*
X0188978Y0038523D01*
X0190809Y0039281D01*
X0192791Y0039281D01*
X0192802Y0039276D01*
X0193688Y0040162D01*
X0194864Y0040650D01*
X0197958Y0040650D01*
X0196290Y0042318D01*
X0195300Y0044707D01*
X0195300Y0053893D01*
X0195717Y0054900D01*
X0195300Y0053854D02*
X0185076Y0053854D01*
X0183845Y0052255D02*
X0195300Y0052255D01*
X0195300Y0050657D02*
X0182701Y0050657D01*
X0180719Y0049058D02*
X0195300Y0049058D01*
X0195300Y0047460D02*
X0181122Y0047460D01*
X0181122Y0045861D02*
X0195300Y0045861D01*
X0195484Y0044263D02*
X0181122Y0044263D01*
X0181122Y0042664D02*
X0196146Y0042664D01*
X0197542Y0041066D02*
X0181122Y0041066D01*
X0180689Y0039467D02*
X0192993Y0039467D01*
X0188324Y0037869D02*
X0181122Y0037869D01*
X0181122Y0036270D02*
X0187225Y0036270D01*
X0186819Y0034672D02*
X0181122Y0034672D01*
X0181122Y0033073D02*
X0186917Y0033073D01*
X0187581Y0031475D02*
X0181122Y0031475D01*
X0180858Y0029876D02*
X0189464Y0029876D01*
X0192380Y0028278D02*
X0179401Y0028278D01*
X0179281Y0026679D02*
X0192301Y0026679D01*
X0192301Y0025081D02*
X0178979Y0025081D01*
X0178026Y0023482D02*
X0192301Y0023482D01*
X0196800Y0023040D02*
X0196800Y0021800D01*
X0196800Y0023040D02*
X0198060Y0024300D01*
X0198060Y0019300D02*
X0124300Y0019300D01*
X0096800Y0046800D01*
X0096800Y0101800D01*
X0081800Y0116800D01*
X0081800Y0121800D01*
X0084300Y0126800D02*
X0086800Y0129300D01*
X0089300Y0126800D01*
X0089300Y0116800D01*
X0101800Y0104300D01*
X0101800Y0079300D01*
X0101800Y0049300D01*
X0126800Y0024300D01*
X0131800Y0024300D01*
X0171800Y0024300D01*
X0174300Y0026800D01*
X0175363Y0028237D01*
X0175363Y0034300D01*
X0162000Y0032872D02*
X0162000Y0030728D01*
X0161819Y0030291D01*
X0161819Y0028309D01*
X0161823Y0028300D01*
X0134844Y0028300D01*
X0134622Y0028523D01*
X0132791Y0029281D01*
X0130809Y0029281D01*
X0128978Y0028523D01*
X0128756Y0028300D01*
X0128457Y0028300D01*
X0105800Y0050957D01*
X0105800Y0057143D01*
X0114319Y0048624D01*
X0114319Y0048309D01*
X0115077Y0046478D01*
X0116478Y0045077D01*
X0118309Y0044319D01*
X0120291Y0044319D01*
X0120613Y0044452D01*
X0120938Y0043668D01*
X0121838Y0042768D01*
X0123014Y0042281D01*
X0130586Y0042281D01*
X0131096Y0042492D01*
X0131096Y0041223D01*
X0131583Y0040046D01*
X0132127Y0039503D01*
X0131591Y0039281D01*
X0130809Y0039281D01*
X0128978Y0038523D01*
X0127577Y0037122D01*
X0126819Y0035291D01*
X0126819Y0033309D01*
X0127577Y0031478D01*
X0128978Y0030077D01*
X0130809Y0029319D01*
X0132791Y0029319D01*
X0134622Y0030077D01*
X0135723Y0031179D01*
X0139657Y0031179D01*
X0140833Y0031666D01*
X0140865Y0031698D01*
X0142165Y0031160D01*
X0147817Y0031160D01*
X0147863Y0031179D01*
X0149940Y0031179D01*
X0151117Y0031666D01*
X0152017Y0032566D01*
X0152504Y0033742D01*
X0152504Y0037377D01*
X0152130Y0038281D01*
X0152567Y0038100D01*
X0161033Y0038100D01*
X0162000Y0038500D01*
X0162000Y0035728D01*
X0161819Y0035291D01*
X0161819Y0033309D01*
X0162000Y0032872D01*
X0161917Y0033073D02*
X0152227Y0033073D01*
X0152504Y0034672D02*
X0161819Y0034672D01*
X0162000Y0036270D02*
X0152504Y0036270D01*
X0152300Y0037869D02*
X0162000Y0037869D01*
X0156800Y0034300D02*
X0151800Y0029300D01*
X0129300Y0029300D01*
X0126800Y0031800D01*
X0126800Y0040560D01*
X0128324Y0037869D02*
X0118888Y0037869D01*
X0117290Y0039467D02*
X0132041Y0039467D01*
X0131161Y0041066D02*
X0115691Y0041066D01*
X0114093Y0042664D02*
X0122089Y0042664D01*
X0120691Y0044263D02*
X0112494Y0044263D01*
X0110896Y0045861D02*
X0115694Y0045861D01*
X0114671Y0047460D02*
X0109297Y0047460D01*
X0107699Y0049058D02*
X0113885Y0049058D01*
X0112286Y0050657D02*
X0106100Y0050657D01*
X0105800Y0052255D02*
X0110688Y0052255D01*
X0109089Y0053854D02*
X0105800Y0053854D01*
X0105800Y0055452D02*
X0107491Y0055452D01*
X0105892Y0057051D02*
X0105800Y0057051D01*
X0106800Y0061800D02*
X0119300Y0049300D01*
X0126800Y0049300D02*
X0126800Y0048040D01*
X0128060Y0049300D01*
X0135560Y0049300D01*
X0126800Y0049300D02*
X0111800Y0064300D01*
X0111800Y0104300D01*
X0116800Y0106800D02*
X0109300Y0114300D01*
X0109300Y0146800D01*
X0091800Y0164300D01*
X0089300Y0164300D01*
X0086855Y0166745D01*
X0086855Y0167062D01*
X0089082Y0169289D02*
X0089311Y0169289D01*
X0089322Y0169300D01*
X0091800Y0169300D01*
X0114300Y0146800D01*
X0114300Y0126800D01*
X0134300Y0106800D01*
X0154300Y0106800D01*
X0156800Y0104300D01*
X0148539Y0110800D02*
X0135957Y0110800D01*
X0127717Y0119040D01*
X0128855Y0119040D01*
X0138284Y0119040D01*
X0138438Y0118668D01*
X0139338Y0117768D01*
X0140514Y0117281D01*
X0148086Y0117281D01*
X0148373Y0117400D01*
X0147600Y0115533D01*
X0147600Y0113067D01*
X0148539Y0110800D01*
X0148290Y0111400D02*
X0135357Y0111400D01*
X0133758Y0112999D02*
X0147628Y0112999D01*
X0147600Y0114597D02*
X0132160Y0114597D01*
X0130561Y0116196D02*
X0147874Y0116196D01*
X0144300Y0123040D02*
X0128060Y0123040D01*
X0119300Y0131800D01*
X0122766Y0135378D02*
X0126855Y0135378D01*
X0126819Y0135291D02*
X0126819Y0133309D01*
X0127577Y0131478D01*
X0128978Y0130077D01*
X0130809Y0129319D01*
X0132791Y0129319D01*
X0134622Y0130077D01*
X0135723Y0131179D01*
X0139657Y0131179D01*
X0140833Y0131666D01*
X0141172Y0132004D01*
X0142245Y0131560D01*
X0143023Y0131560D01*
X0143943Y0131179D01*
X0149940Y0131179D01*
X0151117Y0131666D01*
X0152017Y0132566D01*
X0152504Y0133742D01*
X0152504Y0137377D01*
X0152130Y0138281D01*
X0152567Y0138100D01*
X0161033Y0138100D01*
X0162860Y0138857D01*
X0162860Y0129743D01*
X0161033Y0130500D01*
X0152567Y0130500D01*
X0150288Y0129556D01*
X0149832Y0129100D01*
X0144605Y0129100D01*
X0143879Y0128799D01*
X0140514Y0128799D01*
X0139338Y0128312D01*
X0138438Y0127412D01*
X0138284Y0127040D01*
X0129717Y0127040D01*
X0124281Y0132476D01*
X0124281Y0132791D01*
X0123523Y0134622D01*
X0122122Y0136023D01*
X0120291Y0136781D01*
X0118309Y0136781D01*
X0118300Y0136777D01*
X0118300Y0144323D01*
X0118309Y0144319D01*
X0119091Y0144319D01*
X0119764Y0144040D01*
X0120784Y0144040D01*
X0120938Y0143668D01*
X0121838Y0142768D01*
X0123014Y0142281D01*
X0130586Y0142281D01*
X0131096Y0142492D01*
X0131096Y0141223D01*
X0131583Y0140046D01*
X0132127Y0139503D01*
X0131591Y0139281D01*
X0130809Y0139281D01*
X0128978Y0138523D01*
X0127577Y0137122D01*
X0126819Y0135291D01*
X0126819Y0133779D02*
X0123872Y0133779D01*
X0124576Y0132181D02*
X0127286Y0132181D01*
X0126800Y0131800D02*
X0129300Y0129300D01*
X0151800Y0129300D01*
X0156800Y0134300D01*
X0151800Y0139300D01*
X0146942Y0139300D01*
X0146942Y0135560D02*
X0143040Y0135560D01*
X0141800Y0136800D01*
X0141800Y0139300D01*
X0141800Y0141800D01*
X0141800Y0148060D01*
X0143040Y0149300D01*
X0140560Y0143040D02*
X0136658Y0143040D01*
X0140560Y0143040D02*
X0141800Y0141800D01*
X0136658Y0135560D02*
X0133060Y0135560D01*
X0131800Y0134300D01*
X0135540Y0135560D02*
X0136658Y0135560D01*
X0135127Y0130582D02*
X0162860Y0130582D01*
X0162860Y0132181D02*
X0151632Y0132181D01*
X0152504Y0133779D02*
X0162860Y0133779D01*
X0162860Y0135378D02*
X0152504Y0135378D01*
X0152504Y0136976D02*
X0162860Y0136976D01*
X0162860Y0138575D02*
X0162180Y0138575D01*
X0144325Y0128984D02*
X0127773Y0128984D01*
X0128473Y0130582D02*
X0126174Y0130582D01*
X0126800Y0131800D02*
X0126800Y0140560D01*
X0129104Y0138575D02*
X0118300Y0138575D01*
X0118300Y0140173D02*
X0131531Y0140173D01*
X0131096Y0141772D02*
X0118300Y0141772D01*
X0118300Y0143370D02*
X0121236Y0143370D01*
X0120560Y0148040D02*
X0126800Y0148040D01*
X0128060Y0149300D01*
X0135560Y0149300D01*
X0127517Y0136976D02*
X0118300Y0136976D01*
X0120560Y0148040D02*
X0119300Y0149300D01*
X0104300Y0141800D02*
X0101800Y0141800D01*
X0099300Y0144300D01*
X0073983Y0144300D01*
X0069038Y0149245D01*
X0066811Y0147018D02*
X0072029Y0141800D01*
X0096800Y0141800D01*
X0101800Y0136800D01*
X0104300Y0136800D01*
X0099300Y0131800D02*
X0099300Y0125540D01*
X0099300Y0131800D02*
X0094300Y0136800D01*
X0086800Y0133040D02*
X0086800Y0129300D01*
X0084300Y0126800D02*
X0069300Y0126800D01*
X0066800Y0124300D01*
X0042942Y0124300D01*
X0032942Y0134300D01*
X0031800Y0134300D02*
X0014300Y0134300D01*
X0009300Y0139300D01*
X0009300Y0181800D01*
X0005606Y0183333D02*
X0005000Y0183333D01*
X0005300Y0182596D02*
X0005300Y0138504D01*
X0005909Y0137034D01*
X0007034Y0135909D01*
X0012034Y0130909D01*
X0013504Y0130300D01*
X0026959Y0130300D01*
X0027276Y0129535D01*
X0028176Y0128634D01*
X0029352Y0128147D01*
X0033438Y0128147D01*
X0039551Y0122034D01*
X0040676Y0120909D01*
X0042146Y0120300D01*
X0054323Y0120300D01*
X0054319Y0120291D01*
X0054319Y0118309D01*
X0055077Y0116478D01*
X0056478Y0115077D01*
X0058309Y0114319D01*
X0058624Y0114319D01*
X0060300Y0112643D01*
X0060300Y0096004D01*
X0060909Y0094534D01*
X0062034Y0093409D01*
X0062950Y0092493D01*
X0062950Y0089845D01*
X0063176Y0089300D01*
X0062950Y0088755D01*
X0062950Y0085503D01*
X0058708Y0089746D01*
X0057246Y0091208D01*
X0055334Y0092000D01*
X0045766Y0092000D01*
X0043854Y0091208D01*
X0042392Y0089746D01*
X0041600Y0087834D01*
X0041600Y0087657D01*
X0040800Y0088457D01*
X0040800Y0092596D01*
X0040191Y0094066D01*
X0035650Y0098607D01*
X0035650Y0098736D01*
X0035162Y0099912D01*
X0034262Y0100812D01*
X0033086Y0101299D01*
X0029198Y0101299D01*
X0026000Y0104497D01*
X0026000Y0105533D01*
X0025056Y0107812D01*
X0023312Y0109556D01*
X0021033Y0110500D01*
X0012567Y0110500D01*
X0010288Y0109556D01*
X0008544Y0107812D01*
X0007600Y0105533D01*
X0007600Y0103067D01*
X0008544Y0100788D01*
X0010288Y0099044D01*
X0012567Y0098100D01*
X0021033Y0098100D01*
X0021069Y0098115D01*
X0022950Y0096233D01*
X0022950Y0092345D01*
X0023176Y0091800D01*
X0022950Y0091255D01*
X0022950Y0089706D01*
X0021033Y0090500D01*
X0012567Y0090500D01*
X0010288Y0089556D01*
X0008544Y0087812D01*
X0007600Y0085533D01*
X0007600Y0083067D01*
X0008544Y0080788D01*
X0010288Y0079044D01*
X0012567Y0078100D01*
X0013603Y0078100D01*
X0022275Y0069428D01*
X0022342Y0069294D01*
X0022834Y0068869D01*
X0022950Y0068753D01*
X0022950Y0067364D01*
X0023438Y0066188D01*
X0024338Y0065288D01*
X0025514Y0064801D01*
X0028142Y0064801D01*
X0029144Y0063799D01*
X0023014Y0063799D01*
X0021838Y0063312D01*
X0021800Y0063274D01*
X0021776Y0063298D01*
X0021781Y0063309D01*
X0021781Y0065291D01*
X0021023Y0067122D01*
X0019622Y0068523D01*
X0017791Y0069281D01*
X0015809Y0069281D01*
X0013978Y0068523D01*
X0012577Y0067122D01*
X0011819Y0065291D01*
X0011819Y0063309D01*
X0011824Y0063298D01*
X0010938Y0062412D01*
X0010450Y0061236D01*
X0010450Y0054845D01*
X0010676Y0054300D01*
X0010450Y0053755D01*
X0010450Y0047364D01*
X0010938Y0046188D01*
X0011238Y0045888D01*
X0011238Y0040435D01*
X0011725Y0039259D01*
X0012625Y0038359D01*
X0013801Y0037872D01*
X0019799Y0037872D01*
X0020975Y0038359D01*
X0021800Y0039184D01*
X0022625Y0038359D01*
X0023801Y0037872D01*
X0029799Y0037872D01*
X0030975Y0038359D01*
X0031875Y0039259D01*
X0032362Y0040435D01*
X0032362Y0045888D01*
X0032662Y0046188D01*
X0033150Y0047364D01*
X0033150Y0049794D01*
X0034319Y0048624D01*
X0034319Y0048309D01*
X0035077Y0046478D01*
X0036478Y0045077D01*
X0038309Y0044319D01*
X0040291Y0044319D01*
X0042122Y0045077D01*
X0043523Y0046478D01*
X0044281Y0048309D01*
X0044281Y0050291D01*
X0043523Y0052122D01*
X0042122Y0053523D01*
X0040291Y0054281D01*
X0039976Y0054281D01*
X0034938Y0059319D01*
X0035291Y0059319D01*
X0037122Y0060077D01*
X0038523Y0061478D01*
X0039281Y0063309D01*
X0039281Y0065291D01*
X0038523Y0067122D01*
X0037122Y0068523D01*
X0035650Y0069132D01*
X0035650Y0071885D01*
X0035809Y0071819D01*
X0037791Y0071819D01*
X0039622Y0072577D01*
X0041023Y0073978D01*
X0041781Y0075809D01*
X0041781Y0076162D01*
X0042800Y0075143D01*
X0042800Y0067344D01*
X0042577Y0067122D01*
X0041819Y0065291D01*
X0041819Y0063309D01*
X0042577Y0061478D01*
X0043978Y0060077D01*
X0045809Y0059319D01*
X0047791Y0059319D01*
X0048229Y0059500D01*
X0048229Y0059408D01*
X0047950Y0058736D01*
X0047950Y0052345D01*
X0048176Y0051800D01*
X0047950Y0051255D01*
X0047950Y0044864D01*
X0048438Y0043688D01*
X0049338Y0042788D01*
X0050300Y0042389D01*
X0050300Y0034844D01*
X0050077Y0034622D01*
X0049319Y0032791D01*
X0049319Y0030809D01*
X0050077Y0028978D01*
X0051478Y0027577D01*
X0053309Y0026819D01*
X0055291Y0026819D01*
X0057122Y0027577D01*
X0058050Y0028506D01*
X0058978Y0027577D01*
X0060809Y0026819D01*
X0062791Y0026819D01*
X0064622Y0027577D01*
X0066023Y0028978D01*
X0066781Y0030809D01*
X0066781Y0032791D01*
X0066023Y0034622D01*
X0065859Y0034785D01*
X0065859Y0035387D01*
X0066354Y0034892D01*
X0068266Y0034100D01*
X0092146Y0034100D01*
X0114892Y0011354D01*
X0116354Y0009892D01*
X0118266Y0009100D01*
X0183277Y0009100D01*
X0184308Y0008070D01*
X0187377Y0005000D01*
X0005000Y0005000D01*
X0005000Y0185443D01*
X0006143Y0184300D01*
X0005909Y0184066D01*
X0005300Y0182596D01*
X0005300Y0181735D02*
X0005000Y0181735D01*
X0005000Y0180136D02*
X0005300Y0180136D01*
X0005300Y0178538D02*
X0005000Y0178538D01*
X0005000Y0176939D02*
X0005300Y0176939D01*
X0005300Y0175341D02*
X0005000Y0175341D01*
X0005000Y0173742D02*
X0005300Y0173742D01*
X0005300Y0172144D02*
X0005000Y0172144D01*
X0005000Y0170545D02*
X0005300Y0170545D01*
X0005300Y0168947D02*
X0005000Y0168947D01*
X0005000Y0167348D02*
X0005300Y0167348D01*
X0005300Y0165750D02*
X0005000Y0165750D01*
X0005000Y0164151D02*
X0005300Y0164151D01*
X0005300Y0162553D02*
X0005000Y0162553D01*
X0005000Y0160954D02*
X0005300Y0160954D01*
X0005300Y0159356D02*
X0005000Y0159356D01*
X0005000Y0157757D02*
X0005300Y0157757D01*
X0005300Y0156159D02*
X0005000Y0156159D01*
X0005000Y0154560D02*
X0005300Y0154560D01*
X0005300Y0152962D02*
X0005000Y0152962D01*
X0005000Y0151363D02*
X0005300Y0151363D01*
X0005300Y0149765D02*
X0005000Y0149765D01*
X0005000Y0148166D02*
X0005300Y0148166D01*
X0005300Y0146568D02*
X0005000Y0146568D01*
X0005000Y0144969D02*
X0005300Y0144969D01*
X0005300Y0143370D02*
X0005000Y0143370D01*
X0005000Y0141772D02*
X0005300Y0141772D01*
X0005300Y0140173D02*
X0005000Y0140173D01*
X0005000Y0138575D02*
X0005300Y0138575D01*
X0005000Y0136976D02*
X0005967Y0136976D01*
X0005000Y0135378D02*
X0007565Y0135378D01*
X0009164Y0133779D02*
X0005000Y0133779D01*
X0005000Y0132181D02*
X0010762Y0132181D01*
X0012823Y0130582D02*
X0005000Y0130582D01*
X0005000Y0128984D02*
X0027827Y0128984D01*
X0034199Y0127385D02*
X0005000Y0127385D01*
X0005000Y0125787D02*
X0035798Y0125787D01*
X0037397Y0124188D02*
X0005000Y0124188D01*
X0005000Y0122590D02*
X0038995Y0122590D01*
X0040594Y0120991D02*
X0005000Y0120991D01*
X0005000Y0119393D02*
X0054319Y0119393D01*
X0054532Y0117794D02*
X0005000Y0117794D01*
X0005000Y0116196D02*
X0055360Y0116196D01*
X0055374Y0114400D02*
X0053226Y0114400D01*
X0051241Y0113578D01*
X0049722Y0112059D01*
X0048900Y0110074D01*
X0048900Y0103526D01*
X0049722Y0101541D01*
X0051241Y0100022D01*
X0053226Y0099200D01*
X0055374Y0099200D01*
X0057359Y0100022D01*
X0058878Y0101541D01*
X0059700Y0103526D01*
X0059700Y0110074D01*
X0058878Y0112059D01*
X0057359Y0113578D01*
X0055374Y0114400D01*
X0057637Y0114597D02*
X0005000Y0114597D01*
X0005000Y0112999D02*
X0050662Y0112999D01*
X0049449Y0111400D02*
X0005000Y0111400D01*
X0005000Y0109802D02*
X0010881Y0109802D01*
X0008935Y0108203D02*
X0005000Y0108203D01*
X0005000Y0106605D02*
X0008044Y0106605D01*
X0007600Y0105006D02*
X0005000Y0105006D01*
X0005000Y0103408D02*
X0007600Y0103408D01*
X0008121Y0101809D02*
X0005000Y0101809D01*
X0005000Y0100211D02*
X0009121Y0100211D01*
X0011330Y0098612D02*
X0005000Y0098612D01*
X0005000Y0097014D02*
X0022170Y0097014D01*
X0022950Y0095415D02*
X0005000Y0095415D01*
X0005000Y0093817D02*
X0022950Y0093817D01*
X0023003Y0092218D02*
X0005000Y0092218D01*
X0005000Y0090620D02*
X0022950Y0090620D01*
X0029300Y0088060D02*
X0029300Y0078040D01*
X0028060Y0079300D01*
X0030560Y0076800D01*
X0036800Y0076800D01*
X0041295Y0074634D02*
X0042800Y0074634D01*
X0042800Y0073036D02*
X0040080Y0073036D01*
X0042800Y0071437D02*
X0035650Y0071437D01*
X0035650Y0069839D02*
X0042800Y0069839D01*
X0042800Y0068240D02*
X0037404Y0068240D01*
X0038721Y0066642D02*
X0042379Y0066642D01*
X0041819Y0065043D02*
X0039281Y0065043D01*
X0039281Y0063445D02*
X0041819Y0063445D01*
X0042425Y0061846D02*
X0038675Y0061846D01*
X0037292Y0060248D02*
X0043808Y0060248D01*
X0047950Y0058649D02*
X0035607Y0058649D01*
X0037206Y0057051D02*
X0047950Y0057051D01*
X0047950Y0055452D02*
X0038804Y0055452D01*
X0041322Y0053854D02*
X0047950Y0053854D01*
X0047987Y0052255D02*
X0043389Y0052255D01*
X0044129Y0050657D02*
X0047950Y0050657D01*
X0047950Y0049058D02*
X0044281Y0049058D01*
X0043929Y0047460D02*
X0047950Y0047460D01*
X0047950Y0045861D02*
X0042906Y0045861D01*
X0039300Y0049300D02*
X0031800Y0056800D01*
X0028040Y0056800D01*
X0026800Y0058040D01*
X0022159Y0063445D02*
X0021781Y0063445D01*
X0021781Y0065043D02*
X0024928Y0065043D01*
X0023250Y0066642D02*
X0021221Y0066642D01*
X0019904Y0068240D02*
X0022950Y0068240D01*
X0021864Y0069839D02*
X0005000Y0069839D01*
X0005000Y0071437D02*
X0020266Y0071437D01*
X0018667Y0073036D02*
X0005000Y0073036D01*
X0005000Y0074634D02*
X0017068Y0074634D01*
X0015470Y0076233D02*
X0005000Y0076233D01*
X0005000Y0077832D02*
X0013871Y0077832D01*
X0016800Y0080560D02*
X0025560Y0071800D01*
X0029300Y0070560D01*
X0029300Y0069300D01*
X0034300Y0064300D01*
X0046800Y0064300D02*
X0046800Y0076800D01*
X0036800Y0086800D01*
X0036800Y0091800D01*
X0031800Y0096800D01*
X0030560Y0096800D01*
X0029300Y0095540D01*
X0020540Y0104300D01*
X0016800Y0104300D01*
X0022719Y0109802D02*
X0048900Y0109802D01*
X0048900Y0108203D02*
X0024665Y0108203D01*
X0025556Y0106605D02*
X0048900Y0106605D01*
X0048900Y0105006D02*
X0026000Y0105006D01*
X0027089Y0103408D02*
X0048949Y0103408D01*
X0049611Y0101809D02*
X0028688Y0101809D01*
X0030540Y0096800D02*
X0029300Y0095540D01*
X0035650Y0098612D02*
X0060300Y0098612D01*
X0060300Y0097014D02*
X0037243Y0097014D01*
X0038842Y0095415D02*
X0060544Y0095415D01*
X0061627Y0093817D02*
X0040294Y0093817D01*
X0040800Y0092218D02*
X0062950Y0092218D01*
X0062950Y0090620D02*
X0057834Y0090620D01*
X0059433Y0089021D02*
X0063060Y0089021D01*
X0062950Y0087423D02*
X0061031Y0087423D01*
X0062630Y0085824D02*
X0062950Y0085824D01*
X0069300Y0085560D02*
X0069300Y0079300D01*
X0081800Y0066800D01*
X0081800Y0064300D01*
X0086800Y0059300D02*
X0084300Y0056800D01*
X0086800Y0059300D02*
X0086800Y0069300D01*
X0079300Y0076800D01*
X0079300Y0085560D01*
X0079300Y0093040D02*
X0069300Y0093040D01*
X0068060Y0093040D01*
X0064300Y0096800D01*
X0064300Y0114300D01*
X0059300Y0119300D01*
X0064281Y0119976D02*
X0064281Y0120291D01*
X0064277Y0120300D01*
X0067030Y0120300D01*
X0067577Y0118978D01*
X0068978Y0117577D01*
X0070809Y0116819D01*
X0071124Y0116819D01*
X0073543Y0114400D01*
X0073226Y0114400D01*
X0071241Y0113578D01*
X0069722Y0112059D01*
X0068900Y0110074D01*
X0068900Y0103526D01*
X0069722Y0101541D01*
X0071241Y0100022D01*
X0073226Y0099200D01*
X0075374Y0099200D01*
X0077359Y0100022D01*
X0078878Y0101541D01*
X0079700Y0103526D01*
X0079700Y0108243D01*
X0082800Y0105143D01*
X0082800Y0098799D01*
X0075514Y0098799D01*
X0074338Y0098312D01*
X0074300Y0098274D01*
X0074262Y0098312D01*
X0073086Y0098799D01*
X0068300Y0098799D01*
X0068300Y0115096D01*
X0067691Y0116566D01*
X0064281Y0119976D01*
X0064864Y0119393D02*
X0067406Y0119393D01*
X0066463Y0117794D02*
X0068761Y0117794D01*
X0067844Y0116196D02*
X0071747Y0116196D01*
X0073346Y0114597D02*
X0068300Y0114597D01*
X0068300Y0112999D02*
X0070662Y0112999D01*
X0069449Y0111400D02*
X0068300Y0111400D01*
X0068300Y0109802D02*
X0068900Y0109802D01*
X0068900Y0108203D02*
X0068300Y0108203D01*
X0068300Y0106605D02*
X0068900Y0106605D01*
X0068900Y0105006D02*
X0068300Y0105006D01*
X0068300Y0103408D02*
X0068949Y0103408D01*
X0068300Y0101809D02*
X0069611Y0101809D01*
X0068300Y0100211D02*
X0071053Y0100211D01*
X0073538Y0098612D02*
X0075062Y0098612D01*
X0077547Y0100211D02*
X0082800Y0100211D01*
X0082800Y0101809D02*
X0078989Y0101809D01*
X0079651Y0103408D02*
X0082800Y0103408D01*
X0082800Y0105006D02*
X0079700Y0105006D01*
X0079700Y0106605D02*
X0081338Y0106605D01*
X0079740Y0108203D02*
X0079700Y0108203D01*
X0086800Y0106800D02*
X0071800Y0121800D01*
X0065143Y0128300D02*
X0054616Y0128300D01*
X0055424Y0128634D01*
X0056324Y0129535D01*
X0056811Y0130711D01*
X0056811Y0137889D01*
X0056324Y0139065D01*
X0055424Y0139966D01*
X0054248Y0140453D01*
X0053804Y0140453D01*
X0052924Y0141333D01*
X0051781Y0142476D01*
X0051781Y0142791D01*
X0051390Y0143735D01*
X0052533Y0143261D01*
X0053806Y0143261D01*
X0054983Y0143748D01*
X0060059Y0148824D01*
X0060467Y0149810D01*
X0068323Y0157666D01*
X0068540Y0157449D01*
X0067996Y0156904D01*
X0067996Y0156904D01*
X0065834Y0154742D01*
X0065833Y0154742D01*
X0063541Y0152450D01*
X0061314Y0150223D01*
X0060827Y0149046D01*
X0060827Y0147773D01*
X0061314Y0146597D01*
X0066390Y0141521D01*
X0066835Y0141337D01*
X0068638Y0139534D01*
X0069763Y0138409D01*
X0070026Y0138300D01*
X0069070Y0138300D01*
X0068523Y0139622D01*
X0067122Y0141023D01*
X0065291Y0141781D01*
X0063309Y0141781D01*
X0061478Y0141023D01*
X0060077Y0139622D01*
X0059319Y0137791D01*
X0059319Y0135809D01*
X0060077Y0133978D01*
X0061478Y0132577D01*
X0063309Y0131819D01*
X0063624Y0131819D01*
X0064534Y0130909D01*
X0066004Y0130300D01*
X0067297Y0130300D01*
X0067034Y0130191D01*
X0065909Y0129066D01*
X0065143Y0128300D01*
X0065827Y0128984D02*
X0055773Y0128984D01*
X0055363Y0127863D02*
X0046800Y0127863D01*
X0039300Y0137863D01*
X0036800Y0151800D01*
X0036800Y0153754D01*
X0043426Y0160381D01*
X0041199Y0162608D02*
X0041143Y0162608D01*
X0018568Y0140032D01*
X0018311Y0145432D02*
X0015294Y0145432D01*
X0013309Y0144610D01*
X0013300Y0144601D01*
X0013300Y0155463D01*
X0013309Y0155454D01*
X0015294Y0154632D01*
X0021842Y0154632D01*
X0023827Y0155454D01*
X0024405Y0156032D01*
X0028911Y0156032D01*
X0018311Y0145432D01*
X0019446Y0146568D02*
X0013300Y0146568D01*
X0013300Y0148166D02*
X0021045Y0148166D01*
X0022643Y0149765D02*
X0013300Y0149765D01*
X0013300Y0151363D02*
X0024242Y0151363D01*
X0025840Y0152962D02*
X0013300Y0152962D01*
X0013300Y0154560D02*
X0027439Y0154560D01*
X0032358Y0148166D02*
X0037800Y0148166D01*
X0037800Y0146568D02*
X0030760Y0146568D01*
X0029161Y0144969D02*
X0038229Y0144969D01*
X0038409Y0144534D02*
X0041819Y0141124D01*
X0041819Y0140809D01*
X0042577Y0138978D01*
X0043978Y0137577D01*
X0044506Y0137359D01*
X0044506Y0130711D01*
X0044993Y0129535D01*
X0045893Y0128634D01*
X0046700Y0128300D01*
X0044599Y0128300D01*
X0039094Y0133804D01*
X0039094Y0137889D01*
X0038607Y0139065D01*
X0037707Y0139966D01*
X0036531Y0140453D01*
X0029352Y0140453D01*
X0028176Y0139966D01*
X0027276Y0139065D01*
X0026959Y0138300D01*
X0025895Y0138300D01*
X0026168Y0138958D01*
X0026168Y0141106D01*
X0025913Y0141721D01*
X0037800Y0153608D01*
X0037800Y0146004D01*
X0038409Y0144534D01*
X0039573Y0143370D02*
X0027563Y0143370D01*
X0025964Y0141772D02*
X0041171Y0141772D01*
X0042082Y0140173D02*
X0037205Y0140173D01*
X0038810Y0138575D02*
X0042981Y0138575D01*
X0044506Y0136976D02*
X0039094Y0136976D01*
X0039094Y0135378D02*
X0044506Y0135378D01*
X0044506Y0133779D02*
X0039119Y0133779D01*
X0040718Y0132181D02*
X0044506Y0132181D01*
X0044559Y0130582D02*
X0042316Y0130582D01*
X0043915Y0128984D02*
X0045543Y0128984D01*
X0049300Y0131800D02*
X0050658Y0134300D01*
X0050658Y0137942D01*
X0046800Y0141800D01*
X0041800Y0146800D01*
X0041800Y0154300D01*
X0045653Y0158153D01*
X0047881Y0155926D02*
X0051800Y0159846D01*
X0051800Y0164300D01*
X0059300Y0164300D02*
X0059300Y0162892D01*
X0050108Y0153699D01*
X0052335Y0151472D02*
X0064300Y0163437D01*
X0064300Y0166800D01*
X0061800Y0169300D01*
X0066800Y0171800D02*
X0064300Y0174300D01*
X0066800Y0171800D02*
X0066800Y0161800D01*
X0054562Y0149562D01*
X0056789Y0147018D02*
X0059300Y0144507D01*
X0059300Y0131800D01*
X0055363Y0127863D01*
X0056758Y0130582D02*
X0065323Y0130582D01*
X0062435Y0132181D02*
X0056811Y0132181D01*
X0056811Y0133779D02*
X0060276Y0133779D01*
X0059498Y0135378D02*
X0056811Y0135378D01*
X0056811Y0136976D02*
X0059319Y0136976D01*
X0059644Y0138575D02*
X0056527Y0138575D01*
X0054922Y0140173D02*
X0060629Y0140173D01*
X0063287Y0141772D02*
X0052485Y0141772D01*
X0052269Y0143370D02*
X0051541Y0143370D01*
X0054070Y0143370D02*
X0064541Y0143370D01*
X0065313Y0141772D02*
X0066140Y0141772D01*
X0067971Y0140173D02*
X0067999Y0140173D01*
X0068956Y0138575D02*
X0069597Y0138575D01*
X0066800Y0134300D02*
X0064300Y0136800D01*
X0066800Y0134300D02*
X0078060Y0134300D01*
X0085540Y0134300D02*
X0086800Y0133040D01*
X0075937Y0146800D02*
X0101800Y0146800D01*
X0096800Y0151800D02*
X0094300Y0149300D01*
X0077892Y0149300D01*
X0073492Y0153699D01*
X0071265Y0151472D02*
X0075937Y0146800D01*
X0075719Y0155926D02*
X0069300Y0162346D01*
X0069300Y0176800D01*
X0072346Y0181254D02*
X0059846Y0181254D01*
X0066096Y0187504D01*
X0073492Y0194901D01*
X0071265Y0197128D02*
X0086800Y0212663D01*
X0086800Y0216800D01*
X0082113Y0218501D02*
X0071657Y0218501D01*
X0073256Y0220099D02*
X0083055Y0220099D01*
X0082577Y0219622D02*
X0081819Y0217791D01*
X0081819Y0215809D01*
X0082543Y0214062D01*
X0072787Y0204307D01*
X0072308Y0204787D01*
X0070016Y0207079D01*
X0069439Y0207317D01*
X0069077Y0207680D01*
X0064938Y0211819D01*
X0065291Y0211819D01*
X0067122Y0212577D01*
X0068523Y0213978D01*
X0069281Y0215809D01*
X0069281Y0216124D01*
X0084976Y0231819D01*
X0085291Y0231819D01*
X0087122Y0232577D01*
X0087800Y0233256D01*
X0087800Y0221777D01*
X0087791Y0221781D01*
X0085809Y0221781D01*
X0083978Y0221023D01*
X0082577Y0219622D01*
X0081819Y0216902D02*
X0070059Y0216902D01*
X0069072Y0215303D02*
X0082028Y0215303D01*
X0082185Y0213705D02*
X0068249Y0213705D01*
X0065985Y0212106D02*
X0080587Y0212106D01*
X0078988Y0210508D02*
X0066249Y0210508D01*
X0067847Y0208909D02*
X0077390Y0208909D01*
X0075791Y0207311D02*
X0069455Y0207311D01*
X0071382Y0205712D02*
X0074193Y0205712D01*
X0066811Y0204289D02*
X0066811Y0201582D01*
X0066811Y0201789D01*
X0066811Y0204289D02*
X0046800Y0224300D01*
X0021800Y0224300D01*
X0014300Y0216800D01*
X0018375Y0212106D02*
X0020838Y0212106D01*
X0021732Y0213000D02*
X0019300Y0210568D01*
X0018068Y0211800D01*
X0020500Y0214232D01*
X0020500Y0217343D01*
X0023457Y0220300D01*
X0045143Y0220300D01*
X0049643Y0215800D01*
X0043504Y0215800D01*
X0042034Y0215191D01*
X0029534Y0202691D01*
X0028409Y0201566D01*
X0028378Y0201490D01*
X0028068Y0201800D01*
X0030500Y0204232D01*
X0030500Y0209368D01*
X0026868Y0213000D01*
X0021732Y0213000D01*
X0019973Y0213705D02*
X0040548Y0213705D01*
X0038950Y0212106D02*
X0027762Y0212106D01*
X0029360Y0210508D02*
X0037351Y0210508D01*
X0035753Y0208909D02*
X0030500Y0208909D01*
X0030500Y0207311D02*
X0034154Y0207311D01*
X0032556Y0205712D02*
X0030500Y0205712D01*
X0030382Y0204114D02*
X0030957Y0204114D01*
X0029534Y0202691D02*
X0029534Y0202691D01*
X0029359Y0202515D02*
X0028784Y0202515D01*
X0031800Y0199300D02*
X0031800Y0194300D01*
X0024300Y0186800D01*
X0021800Y0179300D02*
X0014300Y0186800D01*
X0005511Y0184932D02*
X0005000Y0184932D01*
X0021800Y0179300D02*
X0026800Y0179300D01*
X0034300Y0186800D01*
X0035937Y0186800D01*
X0038972Y0183765D01*
X0043437Y0179300D01*
X0057892Y0179300D01*
X0059846Y0181254D01*
X0057580Y0184645D02*
X0056455Y0183520D01*
X0056235Y0183300D01*
X0047208Y0183300D01*
X0048923Y0185015D01*
X0051085Y0187177D01*
X0051085Y0187177D01*
X0053377Y0189469D01*
X0055604Y0191696D01*
X0055604Y0191696D01*
X0057766Y0193858D01*
X0057766Y0193858D01*
X0060059Y0196150D01*
X0061800Y0197892D01*
X0063606Y0196085D01*
X0065833Y0193858D01*
X0065834Y0193858D01*
X0066313Y0193379D01*
X0062705Y0189770D01*
X0057580Y0184645D01*
X0057580Y0184645D01*
X0057867Y0184932D02*
X0048840Y0184932D01*
X0048923Y0185015D02*
X0048923Y0185015D01*
X0050439Y0186530D02*
X0059465Y0186530D01*
X0061064Y0188129D02*
X0052037Y0188129D01*
X0053636Y0189727D02*
X0062662Y0189727D01*
X0064261Y0191326D02*
X0055234Y0191326D01*
X0056833Y0192924D02*
X0065859Y0192924D01*
X0065169Y0194523D02*
X0058431Y0194523D01*
X0060030Y0196121D02*
X0063570Y0196121D01*
X0061972Y0197720D02*
X0061628Y0197720D01*
X0056789Y0201582D02*
X0056789Y0209311D01*
X0054300Y0211800D01*
X0044300Y0211800D01*
X0031800Y0199300D01*
X0035800Y0197643D02*
X0035800Y0193504D01*
X0035191Y0192034D01*
X0033957Y0190800D01*
X0036733Y0190800D01*
X0037534Y0190468D01*
X0037930Y0191424D01*
X0040157Y0193651D01*
X0040157Y0193651D01*
X0040825Y0194319D01*
X0040809Y0194319D01*
X0038978Y0195077D01*
X0037577Y0196478D01*
X0036819Y0198309D01*
X0036819Y0198662D01*
X0035800Y0197643D01*
X0035877Y0197720D02*
X0037063Y0197720D01*
X0037934Y0196121D02*
X0035800Y0196121D01*
X0035800Y0194523D02*
X0040317Y0194523D01*
X0039430Y0192924D02*
X0035560Y0192924D01*
X0036800Y0191800D02*
X0036800Y0190392D01*
X0041199Y0185992D01*
X0037889Y0191326D02*
X0034483Y0191326D01*
X0041800Y0199300D02*
X0045708Y0199300D01*
X0050108Y0194901D01*
X0052335Y0197128D02*
X0045163Y0204300D01*
X0044300Y0204300D01*
X0049617Y0204300D02*
X0054562Y0199355D01*
X0054245Y0199355D01*
X0049617Y0204300D02*
X0049300Y0206800D01*
X0042306Y0215303D02*
X0020500Y0215303D01*
X0020500Y0216902D02*
X0048541Y0216902D01*
X0046943Y0218501D02*
X0021657Y0218501D01*
X0023256Y0220099D02*
X0045344Y0220099D01*
X0050264Y0226493D02*
X0052317Y0226493D01*
X0053547Y0228092D02*
X0048099Y0228092D01*
X0056800Y0224300D02*
X0076800Y0244300D01*
X0081800Y0241800D02*
X0059300Y0219300D01*
X0064300Y0216800D02*
X0084300Y0236800D01*
X0084445Y0231289D02*
X0087800Y0231289D01*
X0087800Y0232887D02*
X0087431Y0232887D01*
X0087800Y0229690D02*
X0082847Y0229690D01*
X0081248Y0228092D02*
X0087800Y0228092D01*
X0087800Y0226493D02*
X0079650Y0226493D01*
X0078051Y0224895D02*
X0087800Y0224895D01*
X0087800Y0223296D02*
X0076453Y0223296D01*
X0074854Y0221698D02*
X0085607Y0221698D01*
X0086800Y0201800D02*
X0086800Y0199300D01*
X0077947Y0190447D01*
X0075719Y0192674D02*
X0071800Y0188754D01*
X0071800Y0186800D01*
X0072450Y0187242D02*
X0074677Y0185015D01*
X0074677Y0185015D01*
X0076969Y0182723D01*
X0079196Y0180496D01*
X0079196Y0180496D01*
X0081358Y0178334D01*
X0081358Y0178333D01*
X0083650Y0176041D01*
X0085392Y0174300D01*
X0083585Y0172494D01*
X0083300Y0172208D01*
X0083300Y0175096D01*
X0082691Y0176566D01*
X0075737Y0183520D01*
X0074612Y0184645D01*
X0073141Y0185254D01*
X0069503Y0185254D01*
X0072169Y0187920D01*
X0072450Y0187242D01*
X0073161Y0186530D02*
X0070779Y0186530D01*
X0073920Y0184932D02*
X0074760Y0184932D01*
X0075924Y0183333D02*
X0076358Y0183333D01*
X0077522Y0181735D02*
X0077957Y0181735D01*
X0079121Y0180136D02*
X0079556Y0180136D01*
X0080719Y0178538D02*
X0081154Y0178538D01*
X0082318Y0176939D02*
X0082753Y0176939D01*
X0083198Y0175341D02*
X0084351Y0175341D01*
X0084834Y0173742D02*
X0083300Y0173742D01*
X0079300Y0174300D02*
X0079300Y0170163D01*
X0084628Y0164835D01*
X0082401Y0162608D02*
X0078208Y0166800D01*
X0076800Y0166800D01*
X0077034Y0166772D02*
X0076490Y0167316D01*
X0075800Y0167030D01*
X0075800Y0165957D01*
X0076424Y0165333D01*
X0076969Y0165877D01*
X0077647Y0166158D01*
X0077034Y0166772D01*
X0076841Y0165750D02*
X0076007Y0165750D01*
X0071800Y0164300D02*
X0077947Y0158153D01*
X0080174Y0160381D02*
X0083754Y0156800D01*
X0091800Y0156800D01*
X0079300Y0174300D02*
X0072346Y0181254D01*
X0074300Y0171800D02*
X0071800Y0169300D01*
X0071800Y0164300D01*
X0067250Y0156159D02*
X0066815Y0156159D01*
X0065652Y0154560D02*
X0065217Y0154560D01*
X0064053Y0152962D02*
X0063618Y0152962D01*
X0062455Y0151363D02*
X0062020Y0151363D01*
X0061125Y0149765D02*
X0060448Y0149765D01*
X0060827Y0148166D02*
X0059400Y0148166D01*
X0057802Y0146568D02*
X0061344Y0146568D01*
X0062942Y0144969D02*
X0056203Y0144969D01*
X0037800Y0149765D02*
X0033957Y0149765D01*
X0035555Y0151363D02*
X0037800Y0151363D01*
X0037800Y0152962D02*
X0037154Y0152962D01*
X0028678Y0140173D02*
X0026168Y0140173D01*
X0026009Y0138575D02*
X0027073Y0138575D01*
X0014175Y0144969D02*
X0013300Y0144969D01*
X0037029Y0176800D02*
X0044300Y0176800D01*
X0046800Y0174300D01*
X0047241Y0183333D02*
X0056268Y0183333D01*
X0056455Y0183520D02*
X0056455Y0183520D01*
X0037029Y0176800D02*
X0034518Y0179311D01*
X0016655Y0231289D02*
X0005000Y0231289D01*
X0005000Y0232887D02*
X0015056Y0232887D01*
X0013458Y0234486D02*
X0005000Y0234486D01*
X0005000Y0236084D02*
X0008542Y0236084D01*
X0007950Y0237683D02*
X0005000Y0237683D01*
X0005000Y0239281D02*
X0007950Y0239281D01*
X0007950Y0240880D02*
X0005000Y0240880D01*
X0005000Y0242478D02*
X0007950Y0242478D01*
X0008083Y0244077D02*
X0005000Y0244077D01*
X0005000Y0245675D02*
X0007950Y0245675D01*
X0007950Y0247274D02*
X0005000Y0247274D01*
X0005000Y0248872D02*
X0007950Y0248872D01*
X0007950Y0250471D02*
X0005000Y0250471D01*
X0005000Y0252069D02*
X0008296Y0252069D01*
X0008738Y0253668D02*
X0005000Y0253668D01*
X0005000Y0255266D02*
X0008738Y0255266D01*
X0008738Y0256865D02*
X0005000Y0256865D01*
X0005000Y0258463D02*
X0008861Y0258463D01*
X0009946Y0260062D02*
X0005000Y0260062D01*
X0005000Y0261660D02*
X0030300Y0261660D01*
X0030300Y0260062D02*
X0028654Y0260062D01*
X0029739Y0258463D02*
X0030300Y0258463D01*
X0030300Y0256865D02*
X0029862Y0256865D01*
X0029862Y0255266D02*
X0030300Y0255266D01*
X0030300Y0253668D02*
X0029862Y0253668D01*
X0034300Y0246800D02*
X0034300Y0266800D01*
X0030109Y0269653D02*
X0005000Y0269653D01*
X0005000Y0271251D02*
X0032030Y0271251D01*
X0029428Y0268054D02*
X0005000Y0268054D01*
X0005000Y0266456D02*
X0029319Y0266456D01*
X0029713Y0264857D02*
X0005000Y0264857D01*
X0005000Y0263259D02*
X0030300Y0263259D01*
X0024300Y0263434D02*
X0025166Y0268434D01*
X0024300Y0263434D02*
X0014300Y0263434D01*
X0018654Y0260062D02*
X0019946Y0260062D01*
X0024300Y0255166D02*
X0024300Y0248040D01*
X0024300Y0240560D02*
X0028060Y0240560D01*
X0034300Y0246800D01*
X0039300Y0241800D02*
X0044300Y0246800D01*
X0044300Y0253060D01*
X0044300Y0260540D02*
X0044300Y0266800D01*
X0049300Y0271800D01*
X0045006Y0274448D02*
X0005000Y0274448D01*
X0005000Y0272850D02*
X0044343Y0272850D01*
X0043095Y0271251D02*
X0036570Y0271251D01*
X0038491Y0269653D02*
X0041496Y0269653D01*
X0040490Y0268054D02*
X0039172Y0268054D01*
X0039281Y0266456D02*
X0040300Y0266456D01*
X0046537Y0276047D02*
X0005000Y0276047D01*
X0005000Y0277645D02*
X0050601Y0277645D01*
X0053220Y0279244D02*
X0005000Y0279244D01*
X0005000Y0280842D02*
X0096911Y0280842D01*
X0097400Y0282441D02*
X0005000Y0282441D01*
X0005000Y0284039D02*
X0097606Y0284039D01*
X0098549Y0285638D02*
X0005000Y0285638D01*
X0005000Y0287237D02*
X0098738Y0287237D01*
X0099015Y0288835D02*
X0005000Y0288835D01*
X0005000Y0290434D02*
X0100590Y0290434D01*
X0104300Y0293434D02*
X0093434Y0293434D01*
X0089300Y0289300D01*
X0095661Y0279244D02*
X0055380Y0279244D01*
X0057999Y0277645D02*
X0095450Y0277645D01*
X0095450Y0276047D02*
X0058968Y0276047D01*
X0059281Y0274448D02*
X0095450Y0274448D01*
X0095450Y0272850D02*
X0059091Y0272850D01*
X0054300Y0274300D02*
X0054300Y0260540D01*
X0054300Y0253060D02*
X0054300Y0246800D01*
X0059300Y0241800D01*
X0054952Y0239281D02*
X0049938Y0239281D01*
X0048340Y0237683D02*
X0056373Y0237683D01*
X0054319Y0240880D02*
X0051537Y0240880D01*
X0052875Y0242478D02*
X0052965Y0242478D01*
X0049300Y0244300D02*
X0049300Y0246800D01*
X0049300Y0244300D02*
X0039300Y0234300D01*
X0019300Y0234300D01*
X0014300Y0239300D01*
X0014300Y0240560D01*
X0014300Y0241800D01*
X0014300Y0248040D02*
X0014300Y0255166D01*
X0005000Y0292032D02*
X0156375Y0292032D01*
X0154777Y0290434D02*
X0123010Y0290434D01*
X0124585Y0288835D02*
X0153178Y0288835D01*
X0151580Y0287237D02*
X0124862Y0287237D01*
X0125051Y0285638D02*
X0149981Y0285638D01*
X0148383Y0284039D02*
X0125994Y0284039D01*
X0126200Y0282441D02*
X0146784Y0282441D01*
X0145186Y0280842D02*
X0126689Y0280842D01*
X0127939Y0279244D02*
X0143587Y0279244D01*
X0141989Y0277645D02*
X0128150Y0277645D01*
X0128150Y0276047D02*
X0140390Y0276047D01*
X0138792Y0274448D02*
X0128150Y0274448D01*
X0128150Y0272850D02*
X0137193Y0272850D01*
X0135595Y0271251D02*
X0131570Y0271251D01*
X0129300Y0266800D02*
X0136800Y0266800D01*
X0164300Y0294300D01*
X0201800Y0294300D01*
X0205540Y0290560D01*
X0205540Y0288631D01*
X0206528Y0295229D02*
X0242301Y0295229D01*
X0242301Y0293631D02*
X0240343Y0293631D01*
X0242301Y0296828D02*
X0204929Y0296828D01*
X0196631Y0282441D02*
X0158098Y0282441D01*
X0159696Y0284039D02*
X0193401Y0284039D01*
X0192891Y0285638D02*
X0161295Y0285638D01*
X0162893Y0287237D02*
X0192891Y0287237D01*
X0192891Y0288835D02*
X0164492Y0288835D01*
X0159572Y0295229D02*
X0005000Y0295229D01*
X0005000Y0293631D02*
X0157974Y0293631D01*
X0161171Y0296828D02*
X0005000Y0296828D01*
X0005000Y0298426D02*
X0242301Y0298426D01*
X0230372Y0272850D02*
X0181319Y0272850D01*
X0181319Y0271251D02*
X0230372Y0271251D01*
X0230372Y0269653D02*
X0180962Y0269653D01*
X0197717Y0264857D02*
X0205883Y0264857D01*
X0205958Y0253668D02*
X0197642Y0253668D01*
X0201971Y0237683D02*
X0220858Y0237683D01*
X0220858Y0236084D02*
X0199798Y0236084D01*
X0200920Y0224895D02*
X0197680Y0224895D01*
X0197679Y0213705D02*
X0200921Y0213705D01*
X0199912Y0208909D02*
X0199587Y0208909D01*
X0202008Y0197720D02*
X0220858Y0197720D01*
X0220858Y0196121D02*
X0199887Y0196121D01*
X0200957Y0184932D02*
X0197643Y0184932D01*
X0197716Y0173742D02*
X0200883Y0173742D01*
X0200002Y0168947D02*
X0199587Y0168947D01*
X0202045Y0157757D02*
X0220858Y0157757D01*
X0220858Y0156159D02*
X0199977Y0156159D01*
X0200995Y0144969D02*
X0197605Y0144969D01*
X0197754Y0133779D02*
X0200846Y0133779D01*
X0200092Y0128984D02*
X0199587Y0128984D01*
X0202083Y0117794D02*
X0220858Y0117794D01*
X0220858Y0116196D02*
X0200067Y0116196D01*
X0201032Y0105006D02*
X0197568Y0105006D01*
X0197791Y0093817D02*
X0200809Y0093817D01*
X0200182Y0089021D02*
X0199587Y0089021D01*
X0202120Y0077832D02*
X0220858Y0077832D01*
X0220858Y0076233D02*
X0200157Y0076233D01*
X0207883Y0054900D02*
X0210717Y0054900D01*
X0210300Y0053893D01*
X0210300Y0044707D01*
X0211290Y0042318D01*
X0212000Y0041608D01*
X0212000Y0033345D01*
X0212731Y0031581D01*
X0214081Y0030231D01*
X0216025Y0028287D01*
X0216025Y0027116D01*
X0216023Y0027122D01*
X0214622Y0028523D01*
X0212791Y0029281D01*
X0210809Y0029281D01*
X0210798Y0029276D01*
X0209912Y0030162D01*
X0208736Y0030650D01*
X0203819Y0030650D01*
X0203819Y0038086D01*
X0203332Y0039262D01*
X0203094Y0039500D01*
X0205482Y0040490D01*
X0207310Y0042318D01*
X0208300Y0044707D01*
X0208300Y0053893D01*
X0207883Y0054900D01*
X0208300Y0053854D02*
X0210300Y0053854D01*
X0210300Y0052255D02*
X0208300Y0052255D01*
X0208300Y0050657D02*
X0210300Y0050657D01*
X0210300Y0049058D02*
X0208300Y0049058D01*
X0208300Y0047460D02*
X0210300Y0047460D01*
X0210300Y0045861D02*
X0208300Y0045861D01*
X0208116Y0044263D02*
X0210484Y0044263D01*
X0211146Y0042664D02*
X0207454Y0042664D01*
X0206058Y0041066D02*
X0212000Y0041066D01*
X0212000Y0039467D02*
X0203127Y0039467D01*
X0203819Y0037869D02*
X0212000Y0037869D01*
X0212000Y0036270D02*
X0203819Y0036270D01*
X0203819Y0034672D02*
X0212000Y0034672D01*
X0212113Y0033073D02*
X0203819Y0033073D01*
X0203819Y0031475D02*
X0212837Y0031475D01*
X0214436Y0029876D02*
X0210198Y0029876D01*
X0214867Y0028278D02*
X0216025Y0028278D01*
X0216781Y0024644D02*
X0217413Y0024012D01*
X0218589Y0023525D01*
X0225011Y0023525D01*
X0226187Y0024012D01*
X0227088Y0024913D01*
X0227575Y0026089D01*
X0227575Y0032511D01*
X0227088Y0033687D01*
X0226187Y0034588D01*
X0225011Y0035075D01*
X0222813Y0035075D01*
X0221600Y0036288D01*
X0221600Y0041608D01*
X0222310Y0042318D01*
X0223300Y0044707D01*
X0223300Y0053893D01*
X0222883Y0054900D01*
X0225300Y0054900D01*
X0225300Y0044707D01*
X0226290Y0042318D01*
X0228118Y0040490D01*
X0230507Y0039500D01*
X0233093Y0039500D01*
X0235482Y0040490D01*
X0237310Y0042318D01*
X0237400Y0042534D01*
X0237400Y0018623D01*
X0229977Y0011200D01*
X0203819Y0011200D01*
X0203819Y0017950D01*
X0208736Y0017950D01*
X0209912Y0018438D01*
X0210798Y0019324D01*
X0210809Y0019319D01*
X0212791Y0019319D01*
X0214622Y0020077D01*
X0216023Y0021478D01*
X0216781Y0023309D01*
X0216781Y0024644D01*
X0216781Y0023482D02*
X0237400Y0023482D01*
X0237400Y0021884D02*
X0216191Y0021884D01*
X0214829Y0020285D02*
X0237400Y0020285D01*
X0237400Y0018687D02*
X0210161Y0018687D01*
X0203819Y0017088D02*
X0235866Y0017088D01*
X0234267Y0015490D02*
X0203819Y0015490D01*
X0203819Y0013891D02*
X0232669Y0013891D01*
X0231070Y0012293D02*
X0203819Y0012293D01*
X0186479Y0005899D02*
X0005000Y0005899D01*
X0005000Y0007497D02*
X0184880Y0007497D01*
X0183282Y0009096D02*
X0005000Y0009096D01*
X0005000Y0010694D02*
X0115552Y0010694D01*
X0113954Y0012293D02*
X0005000Y0012293D01*
X0005000Y0013891D02*
X0112355Y0013891D01*
X0110756Y0015490D02*
X0005000Y0015490D01*
X0005000Y0017088D02*
X0109158Y0017088D01*
X0107559Y0018687D02*
X0005000Y0018687D01*
X0005000Y0020285D02*
X0105961Y0020285D01*
X0104362Y0021884D02*
X0005000Y0021884D01*
X0005000Y0023482D02*
X0102764Y0023482D01*
X0101165Y0025081D02*
X0005000Y0025081D01*
X0005000Y0026679D02*
X0099567Y0026679D01*
X0097968Y0028278D02*
X0065322Y0028278D01*
X0066395Y0029876D02*
X0096370Y0029876D01*
X0094771Y0031475D02*
X0066781Y0031475D01*
X0066664Y0033073D02*
X0093173Y0033073D01*
X0093266Y0044500D02*
X0083228Y0044500D01*
X0084622Y0045077D01*
X0084844Y0045300D01*
X0085096Y0045300D01*
X0086566Y0045909D01*
X0087691Y0047034D01*
X0092800Y0052143D01*
X0092800Y0046004D01*
X0093409Y0044534D01*
X0093443Y0044500D01*
X0093266Y0044500D01*
X0092859Y0045861D02*
X0086451Y0045861D01*
X0088117Y0047460D02*
X0092800Y0047460D01*
X0092800Y0049058D02*
X0089715Y0049058D01*
X0091314Y0050657D02*
X0092800Y0050657D01*
X0091800Y0056800D02*
X0084300Y0049300D01*
X0081800Y0049300D01*
X0091800Y0056800D02*
X0091800Y0083060D01*
X0089300Y0085560D01*
X0089300Y0093040D02*
X0086800Y0095540D01*
X0086800Y0106800D01*
X0099300Y0116800D02*
X0106800Y0109300D01*
X0106800Y0061800D01*
X0116800Y0066800D02*
X0116800Y0106800D01*
X0121800Y0104300D02*
X0121800Y0111800D01*
X0114300Y0119300D01*
X0121800Y0104300D02*
X0126800Y0099300D01*
X0126800Y0098040D01*
X0126800Y0099300D02*
X0135560Y0099300D01*
X0136658Y0093040D02*
X0140560Y0093040D01*
X0141800Y0091800D01*
X0141800Y0098060D01*
X0143040Y0099300D01*
X0141800Y0091800D02*
X0141800Y0089300D01*
X0141800Y0086800D01*
X0143040Y0085560D01*
X0146942Y0085560D01*
X0146942Y0089300D02*
X0151800Y0089300D01*
X0156800Y0084300D01*
X0151800Y0079300D01*
X0129300Y0079300D01*
X0126800Y0081800D01*
X0126800Y0090560D01*
X0128978Y0088523D02*
X0127577Y0087122D01*
X0126819Y0085291D01*
X0126819Y0083309D01*
X0127577Y0081478D01*
X0128978Y0080077D01*
X0130809Y0079319D01*
X0132791Y0079319D01*
X0134622Y0080077D01*
X0135723Y0081179D01*
X0139657Y0081179D01*
X0140833Y0081666D01*
X0141171Y0082004D01*
X0142245Y0081560D01*
X0143023Y0081560D01*
X0143943Y0081179D01*
X0149940Y0081179D01*
X0151117Y0081666D01*
X0152017Y0082566D01*
X0152504Y0083742D01*
X0152504Y0087377D01*
X0152130Y0088281D01*
X0152567Y0088100D01*
X0161033Y0088100D01*
X0163312Y0089044D01*
X0164680Y0090412D01*
X0165231Y0089081D01*
X0166581Y0087731D01*
X0171819Y0082493D01*
X0171819Y0080809D01*
X0172000Y0080372D01*
X0172000Y0079199D01*
X0171800Y0079116D01*
X0170665Y0079587D01*
X0165455Y0079587D01*
X0164279Y0079099D01*
X0164024Y0078844D01*
X0163312Y0079556D01*
X0161033Y0080500D01*
X0152567Y0080500D01*
X0150288Y0079556D01*
X0149832Y0079100D01*
X0144605Y0079100D01*
X0143879Y0078799D01*
X0140514Y0078799D01*
X0139338Y0078312D01*
X0138438Y0077412D01*
X0137950Y0076236D01*
X0137950Y0075800D01*
X0128457Y0075800D01*
X0125800Y0078457D01*
X0125800Y0081256D01*
X0126023Y0081478D01*
X0126781Y0083309D01*
X0126781Y0085291D01*
X0126023Y0087122D01*
X0124622Y0088523D01*
X0122791Y0089281D01*
X0120809Y0089281D01*
X0120800Y0089277D01*
X0120800Y0094001D01*
X0120938Y0093668D01*
X0121838Y0092768D01*
X0123014Y0092281D01*
X0130586Y0092281D01*
X0131096Y0092492D01*
X0131096Y0091223D01*
X0131583Y0090046D01*
X0132127Y0089503D01*
X0131591Y0089281D01*
X0130809Y0089281D01*
X0128978Y0088523D01*
X0130182Y0089021D02*
X0123418Y0089021D01*
X0125722Y0087423D02*
X0127878Y0087423D01*
X0127040Y0085824D02*
X0126560Y0085824D01*
X0126781Y0084226D02*
X0126819Y0084226D01*
X0127101Y0082627D02*
X0126499Y0082627D01*
X0125800Y0081029D02*
X0128027Y0081029D01*
X0125800Y0079430D02*
X0130541Y0079430D01*
X0133059Y0079430D02*
X0150162Y0079430D01*
X0152042Y0082627D02*
X0171685Y0082627D01*
X0171819Y0081029D02*
X0135573Y0081029D01*
X0138857Y0077832D02*
X0126425Y0077832D01*
X0128024Y0076233D02*
X0137950Y0076233D01*
X0143060Y0071800D02*
X0126800Y0071800D01*
X0121800Y0076800D01*
X0121800Y0084300D01*
X0120800Y0090620D02*
X0131346Y0090620D01*
X0131096Y0092218D02*
X0120800Y0092218D01*
X0120800Y0093817D02*
X0120876Y0093817D01*
X0131800Y0084300D02*
X0133060Y0085560D01*
X0136658Y0085560D01*
X0145560Y0074300D02*
X0143060Y0071800D01*
X0140514Y0067281D02*
X0148086Y0067281D01*
X0148373Y0067400D01*
X0147600Y0065533D01*
X0147600Y0063067D01*
X0148539Y0060800D01*
X0128457Y0060800D01*
X0120800Y0068457D01*
X0120800Y0072143D01*
X0124534Y0068409D01*
X0126004Y0067800D01*
X0139306Y0067800D01*
X0139338Y0067768D01*
X0140514Y0067281D01*
X0147600Y0065043D02*
X0124213Y0065043D01*
X0125812Y0063445D02*
X0147600Y0063445D01*
X0148105Y0061846D02*
X0127410Y0061846D01*
X0126800Y0056800D02*
X0116800Y0066800D01*
X0121016Y0068240D02*
X0124941Y0068240D01*
X0123104Y0069839D02*
X0120800Y0069839D01*
X0120800Y0071437D02*
X0121506Y0071437D01*
X0122615Y0066642D02*
X0148059Y0066642D01*
X0154300Y0056800D02*
X0126800Y0056800D01*
X0127225Y0036270D02*
X0120487Y0036270D01*
X0122085Y0034672D02*
X0126819Y0034672D01*
X0126917Y0033073D02*
X0123684Y0033073D01*
X0125282Y0031475D02*
X0127581Y0031475D01*
X0126881Y0029876D02*
X0129464Y0029876D01*
X0134136Y0029876D02*
X0161819Y0029876D01*
X0162000Y0031475D02*
X0150655Y0031475D01*
X0156800Y0034300D02*
X0151800Y0039300D01*
X0146942Y0039300D01*
X0141405Y0031475D02*
X0140371Y0031475D01*
X0136658Y0035560D02*
X0133060Y0035560D01*
X0131800Y0034300D01*
X0154300Y0056800D02*
X0156800Y0054300D01*
X0163438Y0079430D02*
X0165077Y0079430D01*
X0171043Y0079430D02*
X0172000Y0079430D01*
X0170086Y0084226D02*
X0152504Y0084226D01*
X0152504Y0085824D02*
X0168488Y0085824D01*
X0166889Y0087423D02*
X0152485Y0087423D01*
X0163257Y0089021D02*
X0165291Y0089021D01*
X0139312Y0117794D02*
X0128963Y0117794D01*
X0129371Y0127385D02*
X0138427Y0127385D01*
X0140352Y0167348D02*
X0133005Y0167348D01*
X0156800Y0204300D02*
X0154300Y0206800D01*
X0136658Y0235560D02*
X0133060Y0235560D01*
X0131800Y0234300D01*
X0139300Y0261800D02*
X0124300Y0261800D01*
X0111800Y0264300D02*
X0109300Y0261800D01*
X0101800Y0261800D01*
X0111800Y0264300D02*
X0111800Y0268060D01*
X0108090Y0290434D02*
X0108010Y0290434D01*
X0104300Y0293434D02*
X0111800Y0293434D01*
X0119300Y0293434D01*
X0115590Y0290434D02*
X0115510Y0290434D01*
X0093754Y0201800D02*
X0080174Y0188219D01*
X0086855Y0181538D02*
X0089617Y0184300D01*
X0096800Y0184300D01*
X0091789Y0179311D02*
X0094300Y0176800D01*
X0091789Y0179311D02*
X0089082Y0179311D01*
X0099300Y0118060D02*
X0099300Y0116800D01*
X0060300Y0111400D02*
X0059151Y0111400D01*
X0059700Y0109802D02*
X0060300Y0109802D01*
X0060300Y0108203D02*
X0059700Y0108203D01*
X0059700Y0106605D02*
X0060300Y0106605D01*
X0060300Y0105006D02*
X0059700Y0105006D01*
X0059651Y0103408D02*
X0060300Y0103408D01*
X0060300Y0101809D02*
X0058989Y0101809D01*
X0060300Y0100211D02*
X0057547Y0100211D01*
X0051053Y0100211D02*
X0034864Y0100211D01*
X0040800Y0090620D02*
X0043266Y0090620D01*
X0042092Y0089021D02*
X0040800Y0089021D01*
X0052229Y0071371D02*
X0052229Y0057611D01*
X0054300Y0055540D01*
X0054300Y0048060D02*
X0054300Y0031800D01*
X0050778Y0028278D02*
X0005000Y0028278D01*
X0005000Y0029876D02*
X0049705Y0029876D01*
X0049319Y0031475D02*
X0005000Y0031475D01*
X0005000Y0033073D02*
X0049436Y0033073D01*
X0050127Y0034672D02*
X0005000Y0034672D01*
X0005000Y0036270D02*
X0050300Y0036270D01*
X0050300Y0037869D02*
X0005000Y0037869D01*
X0005000Y0039467D02*
X0011639Y0039467D01*
X0011238Y0041066D02*
X0005000Y0041066D01*
X0005000Y0042664D02*
X0011238Y0042664D01*
X0011238Y0044263D02*
X0005000Y0044263D01*
X0005000Y0045861D02*
X0011238Y0045861D01*
X0010450Y0047460D02*
X0005000Y0047460D01*
X0005000Y0049058D02*
X0010450Y0049058D01*
X0010450Y0050657D02*
X0005000Y0050657D01*
X0005000Y0052255D02*
X0010450Y0052255D01*
X0010491Y0053854D02*
X0005000Y0053854D01*
X0005000Y0055452D02*
X0010450Y0055452D01*
X0010450Y0057051D02*
X0005000Y0057051D01*
X0005000Y0058649D02*
X0010450Y0058649D01*
X0010450Y0060248D02*
X0005000Y0060248D01*
X0005000Y0061846D02*
X0010703Y0061846D01*
X0011819Y0063445D02*
X0005000Y0063445D01*
X0005000Y0065043D02*
X0011819Y0065043D01*
X0012379Y0066642D02*
X0005000Y0066642D01*
X0005000Y0068240D02*
X0013696Y0068240D01*
X0016800Y0064300D02*
X0016800Y0058040D01*
X0016800Y0050560D02*
X0016800Y0043434D01*
X0016800Y0035166D02*
X0026800Y0035166D01*
X0031961Y0039467D02*
X0050300Y0039467D01*
X0050300Y0041066D02*
X0032362Y0041066D01*
X0032362Y0042664D02*
X0049636Y0042664D01*
X0048200Y0044263D02*
X0032362Y0044263D01*
X0032362Y0045861D02*
X0035694Y0045861D01*
X0034671Y0047460D02*
X0033150Y0047460D01*
X0033150Y0049058D02*
X0033885Y0049058D01*
X0026800Y0050560D02*
X0026800Y0043434D01*
X0016800Y0035166D02*
X0016800Y0034300D01*
X0009902Y0079430D02*
X0005000Y0079430D01*
X0005000Y0081029D02*
X0008444Y0081029D01*
X0007782Y0082627D02*
X0005000Y0082627D01*
X0005000Y0084226D02*
X0007600Y0084226D01*
X0007720Y0085824D02*
X0005000Y0085824D01*
X0005000Y0087423D02*
X0008383Y0087423D01*
X0009753Y0089021D02*
X0005000Y0089021D01*
X0016800Y0084300D02*
X0016800Y0080560D01*
X0058264Y0072407D02*
X0064300Y0066371D01*
X0064300Y0055540D01*
X0064300Y0048060D02*
X0061859Y0045619D01*
X0061859Y0031859D01*
X0061800Y0031800D01*
X0058278Y0028278D02*
X0057822Y0028278D01*
X0065973Y0034672D02*
X0066885Y0034672D01*
X0059944Y0112999D02*
X0057938Y0112999D01*
X0223300Y0053854D02*
X0225300Y0053854D01*
X0225300Y0052255D02*
X0223300Y0052255D01*
X0223300Y0050657D02*
X0225300Y0050657D01*
X0225300Y0049058D02*
X0223300Y0049058D01*
X0223300Y0047460D02*
X0225300Y0047460D01*
X0225300Y0045861D02*
X0223300Y0045861D01*
X0223116Y0044263D02*
X0225484Y0044263D01*
X0226146Y0042664D02*
X0222454Y0042664D01*
X0221600Y0041066D02*
X0227542Y0041066D01*
X0221600Y0039467D02*
X0237400Y0039467D01*
X0237400Y0037869D02*
X0221600Y0037869D01*
X0221618Y0036270D02*
X0237400Y0036270D01*
X0237400Y0034672D02*
X0225984Y0034672D01*
X0227342Y0033073D02*
X0237400Y0033073D01*
X0237400Y0031475D02*
X0227575Y0031475D01*
X0227575Y0029876D02*
X0237400Y0029876D01*
X0237400Y0028278D02*
X0227575Y0028278D01*
X0227575Y0026679D02*
X0237400Y0026679D01*
X0237400Y0025081D02*
X0227157Y0025081D01*
X0236058Y0041066D02*
X0237400Y0041066D01*
D32*
X0186800Y0014300D02*
X0161800Y0014300D01*
X0119300Y0014300D01*
X0094300Y0039300D01*
X0069300Y0039300D01*
X0074300Y0044300D01*
X0074300Y0066800D01*
X0054300Y0086800D01*
X0046800Y0086800D01*
X0136800Y0066800D02*
X0138060Y0065560D01*
X0144300Y0065560D01*
X0156800Y0064300D02*
X0157469Y0064969D01*
X0171800Y0064969D01*
X0185363Y0109300D02*
X0185363Y0114300D01*
X0172469Y0114300D01*
X0171800Y0113631D01*
X0171798Y0113681D01*
X0171793Y0113731D01*
X0171783Y0113780D01*
X0171770Y0113828D01*
X0171754Y0113875D01*
X0171734Y0113921D01*
X0171710Y0113966D01*
X0171684Y0114008D01*
X0171654Y0114048D01*
X0171621Y0114086D01*
X0171586Y0114121D01*
X0171548Y0114154D01*
X0171508Y0114184D01*
X0171466Y0114210D01*
X0171421Y0114234D01*
X0171375Y0114254D01*
X0171328Y0114270D01*
X0171280Y0114283D01*
X0171231Y0114293D01*
X0171181Y0114298D01*
X0171131Y0114300D01*
X0156800Y0114300D01*
X0168060Y0123040D02*
X0168060Y0123060D01*
X0169300Y0124300D01*
X0169300Y0126800D01*
X0168060Y0123060D02*
X0168060Y0149300D01*
X0169300Y0149300D01*
X0169300Y0144300D01*
X0168060Y0149300D02*
X0168060Y0154969D01*
X0171800Y0163631D02*
X0172469Y0164300D01*
X0169300Y0171800D02*
X0168060Y0173040D01*
X0168060Y0204969D01*
X0168060Y0200540D01*
X0169300Y0199300D01*
X0171800Y0213631D02*
X0171131Y0214300D01*
X0156800Y0214300D01*
X0168060Y0223040D02*
X0169300Y0221800D01*
X0168060Y0223040D02*
X0168060Y0249300D01*
X0168060Y0254969D01*
X0171800Y0263631D02*
X0154969Y0263631D01*
X0156800Y0264300D01*
X0183040Y0274300D02*
X0191800Y0274300D01*
X0196800Y0269300D01*
X0211800Y0269300D01*
X0216800Y0279969D02*
X0201800Y0279969D01*
X0216800Y0279969D02*
X0227391Y0279969D01*
X0228060Y0279300D01*
X0185560Y0219300D02*
X0184969Y0218709D01*
X0172469Y0214300D02*
X0171800Y0213631D01*
X0144300Y0215560D02*
X0143040Y0214300D01*
X0136800Y0214300D01*
X0169300Y0176800D02*
X0169300Y0171800D01*
X0185363Y0166406D02*
X0185363Y0149300D01*
X0185560Y0149497D01*
X0185560Y0179300D01*
X0185363Y0166406D02*
X0184969Y0164300D01*
X0185363Y0139103D02*
X0185363Y0124300D01*
X0185363Y0114300D01*
X0169300Y0121800D02*
X0168060Y0123040D01*
X0185363Y0139103D02*
X0185365Y0139129D01*
X0185370Y0139154D01*
X0185378Y0139178D01*
X0185389Y0139202D01*
X0185404Y0139223D01*
X0185421Y0139242D01*
X0185440Y0139259D01*
X0185462Y0139274D01*
X0185485Y0139285D01*
X0185509Y0139293D01*
X0185534Y0139298D01*
X0185560Y0139300D01*
X0144300Y0115560D02*
X0138060Y0115560D01*
X0136800Y0116800D01*
X0136800Y0164300D02*
X0138060Y0165560D01*
X0144300Y0165560D01*
X0161800Y0014300D02*
X0166800Y0014300D01*
X0015166Y0268434D02*
X0014300Y0269300D01*
D33*
X0014300Y0289300D03*
X0139300Y0289300D03*
X0099300Y0014300D03*
X0014300Y0014300D03*
D34*
X0185560Y0069497D02*
X0185560Y0084300D01*
X0185560Y0099300D01*
X0185560Y0229497D02*
X0185560Y0243709D01*
X0185560Y0259300D01*
X0175560Y0274300D02*
X0156800Y0274300D01*
M02*
