G75*
%MOIN*%
%OFA0B0*%
%FSLAX25Y25*%
%IPPOS*%
%LPD*%
%AMOC8*
5,1,8,0,0,1.08239X$1,22.5*
%
%ADD10C,0.00000*%
%ADD11R,0.05118X0.06299*%
%ADD12R,0.05906X0.05906*%
%ADD13R,0.05512X0.03937*%
%ADD14R,0.03937X0.05512*%
%ADD15R,0.06299X0.05118*%
%ADD16R,0.01575X0.06732*%
%ADD17R,0.07874X0.05748*%
%ADD18R,0.05413X0.09843*%
%ADD19C,0.01600*%
%ADD20C,0.04400*%
%ADD21C,0.06000*%
%ADD22R,0.04724X0.04724*%
%ADD23R,0.05150X0.05150*%
%ADD24C,0.05150*%
%ADD25C,0.06600*%
%ADD26C,0.05600*%
%ADD27R,0.05906X0.01969*%
%ADD28R,0.01969X0.05906*%
%ADD29R,0.04724X0.02362*%
%ADD30OC8,0.06000*%
%ADD31C,0.02400*%
%ADD32C,0.04000*%
%ADD33C,0.03200*%
%ADD34C,0.03562*%
%ADD35C,0.04000*%
%ADD36C,0.16598*%
%ADD37C,0.05000*%
D10*
X0001800Y0002844D02*
X0001800Y0302805D01*
X0245501Y0302805D01*
X0245501Y0002844D01*
X0001800Y0002844D01*
D11*
X0035363Y0040344D03*
X0043237Y0040344D03*
X0078060Y0135344D03*
X0085540Y0135344D03*
X0135560Y0150344D03*
X0143040Y0150344D03*
X0143040Y0200344D03*
X0135560Y0200344D03*
X0135560Y0250344D03*
X0143040Y0250344D03*
X0175560Y0275344D03*
X0183040Y0275344D03*
X0185560Y0260344D03*
X0193040Y0260344D03*
X0210560Y0260344D03*
X0218040Y0260344D03*
X0228060Y0280344D03*
X0235540Y0280344D03*
X0220737Y0230344D03*
X0212863Y0230344D03*
X0213040Y0220344D03*
X0205560Y0220344D03*
X0193040Y0220344D03*
X0185560Y0220344D03*
X0185363Y0230344D03*
X0193237Y0230344D03*
X0193237Y0190344D03*
X0185363Y0190344D03*
X0185560Y0180344D03*
X0193040Y0180344D03*
X0205560Y0180344D03*
X0213040Y0180344D03*
X0212863Y0190344D03*
X0220737Y0190344D03*
X0220737Y0150344D03*
X0212863Y0150344D03*
X0213040Y0140344D03*
X0205560Y0140344D03*
X0193040Y0140344D03*
X0185560Y0140344D03*
X0185363Y0150344D03*
X0193237Y0150344D03*
X0193237Y0110344D03*
X0185363Y0110344D03*
X0185560Y0100344D03*
X0193040Y0100344D03*
X0205560Y0100344D03*
X0213040Y0100344D03*
X0212863Y0110344D03*
X0220737Y0110344D03*
X0215737Y0070344D03*
X0207863Y0070344D03*
X0193237Y0070344D03*
X0185363Y0070344D03*
X0183237Y0045344D03*
X0175363Y0045344D03*
X0175363Y0035344D03*
X0183237Y0035344D03*
X0198060Y0035344D03*
X0205540Y0035344D03*
X0205540Y0025344D03*
X0198060Y0025344D03*
X0198060Y0015344D03*
X0205540Y0015344D03*
X0143040Y0050344D03*
X0135560Y0050344D03*
X0135560Y0100344D03*
X0143040Y0100344D03*
X0073237Y0265344D03*
X0065363Y0265344D03*
D12*
X0050658Y0135344D03*
X0032942Y0135344D03*
X0207942Y0125344D03*
X0225658Y0125344D03*
X0225658Y0165344D03*
X0207942Y0165344D03*
X0207942Y0205344D03*
X0225658Y0205344D03*
X0225658Y0245344D03*
X0207942Y0245344D03*
X0207942Y0085344D03*
X0225658Y0085344D03*
D13*
X0193631Y0081604D03*
X0193631Y0089085D03*
X0184969Y0085344D03*
X0193631Y0121604D03*
X0193631Y0129085D03*
X0184969Y0125344D03*
X0193631Y0161604D03*
X0193631Y0169085D03*
X0184969Y0165344D03*
X0193631Y0201604D03*
X0193631Y0209085D03*
X0184969Y0205344D03*
X0193631Y0241604D03*
X0193631Y0249085D03*
X0184969Y0245344D03*
D14*
X0175540Y0256014D03*
X0168060Y0256014D03*
X0171800Y0264675D03*
X0198060Y0289675D03*
X0205540Y0289675D03*
X0213060Y0289675D03*
X0220540Y0289675D03*
X0216800Y0281014D03*
X0228060Y0272175D03*
X0235540Y0272175D03*
X0231800Y0263514D03*
X0201800Y0281014D03*
X0171800Y0214675D03*
X0168060Y0206014D03*
X0175540Y0206014D03*
X0171800Y0164675D03*
X0168060Y0156014D03*
X0175540Y0156014D03*
X0171800Y0114675D03*
X0168060Y0106014D03*
X0175540Y0106014D03*
X0175540Y0074675D03*
X0168060Y0074675D03*
X0171800Y0066014D03*
D15*
X0144300Y0066604D03*
X0144300Y0074085D03*
X0126800Y0091604D03*
X0126800Y0099085D03*
X0144300Y0116604D03*
X0144300Y0124085D03*
X0126800Y0141604D03*
X0126800Y0149085D03*
X0144300Y0166604D03*
X0144300Y0174085D03*
X0126800Y0191604D03*
X0126800Y0199085D03*
X0119300Y0219104D03*
X0119300Y0226585D03*
X0109300Y0221585D03*
X0109300Y0214104D03*
X0126800Y0241604D03*
X0126800Y0249085D03*
X0121800Y0269104D03*
X0121800Y0276585D03*
X0111800Y0276585D03*
X0111800Y0269104D03*
X0101800Y0269104D03*
X0101800Y0276585D03*
X0144300Y0224085D03*
X0144300Y0216604D03*
X0099300Y0126585D03*
X0099300Y0119104D03*
X0089300Y0094085D03*
X0089300Y0086604D03*
X0079300Y0086604D03*
X0079300Y0094085D03*
X0069300Y0094085D03*
X0069300Y0086604D03*
X0064300Y0056585D03*
X0064300Y0049104D03*
X0054300Y0049104D03*
X0054300Y0056585D03*
X0029300Y0071604D03*
X0029300Y0079085D03*
X0029300Y0089104D03*
X0029300Y0096585D03*
X0026800Y0059085D03*
X0026800Y0051604D03*
X0016800Y0051604D03*
X0016800Y0059085D03*
X0126800Y0049085D03*
X0126800Y0041604D03*
X0234300Y0069104D03*
X0234300Y0076585D03*
X0054300Y0251604D03*
X0054300Y0259085D03*
X0044300Y0259085D03*
X0044300Y0251604D03*
X0024300Y0249085D03*
X0024300Y0241604D03*
X0014300Y0241604D03*
X0014300Y0249085D03*
D16*
X0044182Y0275463D03*
X0046741Y0275463D03*
X0049300Y0275463D03*
X0051859Y0275463D03*
X0054418Y0275463D03*
X0054182Y0030226D03*
X0056741Y0030226D03*
X0059300Y0030226D03*
X0061859Y0030226D03*
X0064418Y0030226D03*
D17*
X0070717Y0030738D03*
X0047883Y0030738D03*
X0037883Y0274951D03*
X0060717Y0274951D03*
D18*
X0052991Y0296329D03*
X0045609Y0296329D03*
X0055609Y0009360D03*
X0062991Y0009360D03*
D19*
X0068148Y0014931D02*
X0068148Y0026033D01*
X0073818Y0026033D01*
X0073818Y0015915D01*
X0077400Y0015915D01*
X0077400Y0006663D01*
X0072361Y0006663D01*
X0072361Y0014931D01*
X0068148Y0014931D01*
X0068148Y0014936D02*
X0077400Y0014936D01*
X0077400Y0013337D02*
X0072361Y0013337D01*
X0072361Y0011739D02*
X0077400Y0011739D01*
X0077400Y0010140D02*
X0072361Y0010140D01*
X0072361Y0008542D02*
X0077400Y0008542D01*
X0077400Y0006943D02*
X0072361Y0006943D01*
X0081400Y0006943D02*
X0186479Y0006943D01*
X0187377Y0006044D02*
X0081400Y0006044D01*
X0081400Y0016711D01*
X0080791Y0018181D01*
X0079666Y0019306D01*
X0078196Y0019915D01*
X0077818Y0019915D01*
X0077818Y0026829D01*
X0077753Y0026984D01*
X0077854Y0027228D01*
X0077854Y0034249D01*
X0077483Y0035144D01*
X0092146Y0035144D01*
X0114892Y0012399D01*
X0116354Y0010936D01*
X0118266Y0010144D01*
X0183277Y0010144D01*
X0184308Y0009114D01*
X0187377Y0006044D01*
X0184880Y0008542D02*
X0081400Y0008542D01*
X0081400Y0010140D02*
X0183282Y0010140D01*
X0177844Y0024344D02*
X0178523Y0025023D01*
X0179281Y0026854D01*
X0179281Y0028288D01*
X0179363Y0028486D01*
X0179363Y0028791D01*
X0179437Y0029086D01*
X0179398Y0029343D01*
X0179735Y0029482D01*
X0180635Y0030382D01*
X0181122Y0031558D01*
X0181122Y0039131D01*
X0180635Y0040307D01*
X0180597Y0040344D01*
X0180635Y0040382D01*
X0181122Y0041558D01*
X0181122Y0049131D01*
X0180635Y0050307D01*
X0180560Y0050382D01*
X0180719Y0050541D01*
X0182122Y0051122D01*
X0183523Y0052523D01*
X0184104Y0053926D01*
X0186123Y0055944D01*
X0195717Y0055944D01*
X0195300Y0054937D01*
X0195300Y0045752D01*
X0196290Y0043363D01*
X0197958Y0041694D01*
X0194864Y0041694D01*
X0193688Y0041207D01*
X0192802Y0040321D01*
X0192791Y0040326D01*
X0190809Y0040326D01*
X0188978Y0039567D01*
X0187577Y0038166D01*
X0186819Y0036335D01*
X0186819Y0034354D01*
X0187577Y0032523D01*
X0188978Y0031122D01*
X0190809Y0030363D01*
X0192791Y0030363D01*
X0192802Y0030368D01*
X0192826Y0030344D01*
X0192788Y0030307D01*
X0192301Y0029131D01*
X0192301Y0024344D01*
X0177844Y0024344D01*
X0178026Y0024527D02*
X0192301Y0024527D01*
X0192301Y0026125D02*
X0178979Y0026125D01*
X0179281Y0027724D02*
X0192301Y0027724D01*
X0192380Y0029322D02*
X0179401Y0029322D01*
X0180858Y0030921D02*
X0189464Y0030921D01*
X0187581Y0032519D02*
X0181122Y0032519D01*
X0181122Y0034118D02*
X0186917Y0034118D01*
X0186819Y0035716D02*
X0181122Y0035716D01*
X0181122Y0037315D02*
X0187225Y0037315D01*
X0188324Y0038913D02*
X0181122Y0038913D01*
X0180689Y0040512D02*
X0192993Y0040512D01*
X0196146Y0043709D02*
X0181122Y0043709D01*
X0181122Y0045307D02*
X0195484Y0045307D01*
X0195300Y0046906D02*
X0181122Y0046906D01*
X0181122Y0048504D02*
X0195300Y0048504D01*
X0195300Y0050103D02*
X0180719Y0050103D01*
X0182701Y0051701D02*
X0195300Y0051701D01*
X0195300Y0053300D02*
X0183845Y0053300D01*
X0185076Y0054898D02*
X0195300Y0054898D01*
X0189997Y0064744D02*
X0190635Y0065382D01*
X0191122Y0066558D01*
X0191122Y0069075D01*
X0191260Y0069408D01*
X0191260Y0076436D01*
X0197023Y0076436D01*
X0197913Y0076804D01*
X0199015Y0076804D01*
X0200779Y0077535D01*
X0202129Y0078885D01*
X0203049Y0079806D01*
X0203176Y0079679D01*
X0204352Y0079192D01*
X0211531Y0079192D01*
X0212707Y0079679D01*
X0213607Y0080579D01*
X0214094Y0081755D01*
X0214094Y0088934D01*
X0213607Y0090110D01*
X0212707Y0091010D01*
X0211531Y0091497D01*
X0204352Y0091497D01*
X0203176Y0091010D01*
X0202492Y0090326D01*
X0200809Y0090326D01*
X0199587Y0089819D01*
X0199587Y0091690D01*
X0199099Y0092866D01*
X0198199Y0093766D01*
X0197023Y0094253D01*
X0196859Y0094253D01*
X0197412Y0094482D01*
X0198298Y0095368D01*
X0198309Y0095363D01*
X0200291Y0095363D01*
X0200302Y0095368D01*
X0201188Y0094482D01*
X0202364Y0093995D01*
X0208755Y0093995D01*
X0209932Y0094482D01*
X0210832Y0095382D01*
X0211319Y0096558D01*
X0211319Y0104131D01*
X0210832Y0105307D01*
X0209932Y0106207D01*
X0208755Y0106694D01*
X0202364Y0106694D01*
X0201188Y0106207D01*
X0200302Y0105321D01*
X0200291Y0105326D01*
X0198309Y0105326D01*
X0198298Y0105321D01*
X0197412Y0106207D01*
X0196236Y0106694D01*
X0191122Y0106694D01*
X0191122Y0114131D01*
X0190635Y0115307D01*
X0190563Y0115379D01*
X0190563Y0116436D01*
X0197023Y0116436D01*
X0197913Y0116804D01*
X0199015Y0116804D01*
X0200779Y0117535D01*
X0202129Y0118885D01*
X0203049Y0119806D01*
X0203176Y0119679D01*
X0204352Y0119192D01*
X0211531Y0119192D01*
X0212707Y0119679D01*
X0213607Y0120579D01*
X0214094Y0121755D01*
X0214094Y0128934D01*
X0213607Y0130110D01*
X0212707Y0131010D01*
X0211531Y0131497D01*
X0204352Y0131497D01*
X0203176Y0131010D01*
X0202492Y0130326D01*
X0200809Y0130326D01*
X0199587Y0129819D01*
X0199587Y0131690D01*
X0199099Y0132866D01*
X0198199Y0133766D01*
X0197023Y0134253D01*
X0196859Y0134253D01*
X0197412Y0134482D01*
X0198298Y0135368D01*
X0198309Y0135363D01*
X0200291Y0135363D01*
X0200302Y0135368D01*
X0201188Y0134482D01*
X0202364Y0133995D01*
X0208755Y0133995D01*
X0209932Y0134482D01*
X0210832Y0135382D01*
X0211319Y0136558D01*
X0211319Y0144131D01*
X0210832Y0145307D01*
X0209932Y0146207D01*
X0208755Y0146694D01*
X0202364Y0146694D01*
X0201188Y0146207D01*
X0200302Y0145321D01*
X0200291Y0145326D01*
X0198309Y0145326D01*
X0198298Y0145321D01*
X0197412Y0146207D01*
X0196236Y0146694D01*
X0191122Y0146694D01*
X0191122Y0154131D01*
X0190760Y0155005D01*
X0190760Y0156436D01*
X0197023Y0156436D01*
X0197913Y0156804D01*
X0199015Y0156804D01*
X0200779Y0157535D01*
X0202129Y0158885D01*
X0203049Y0159806D01*
X0203176Y0159679D01*
X0204352Y0159192D01*
X0211531Y0159192D01*
X0212707Y0159679D01*
X0213607Y0160579D01*
X0214094Y0161755D01*
X0214094Y0168934D01*
X0213607Y0170110D01*
X0212707Y0171010D01*
X0211531Y0171497D01*
X0204352Y0171497D01*
X0203176Y0171010D01*
X0202492Y0170326D01*
X0200809Y0170326D01*
X0199587Y0169819D01*
X0199587Y0171690D01*
X0199099Y0172866D01*
X0198199Y0173766D01*
X0197023Y0174253D01*
X0196859Y0174253D01*
X0197412Y0174482D01*
X0198298Y0175368D01*
X0198309Y0175363D01*
X0200291Y0175363D01*
X0200302Y0175368D01*
X0201188Y0174482D01*
X0202364Y0173995D01*
X0208755Y0173995D01*
X0209932Y0174482D01*
X0210832Y0175382D01*
X0211319Y0176558D01*
X0211319Y0184131D01*
X0210832Y0185307D01*
X0209932Y0186207D01*
X0208755Y0186694D01*
X0202364Y0186694D01*
X0201188Y0186207D01*
X0200302Y0185321D01*
X0200291Y0185326D01*
X0198309Y0185326D01*
X0198298Y0185321D01*
X0197412Y0186207D01*
X0196236Y0186694D01*
X0191122Y0186694D01*
X0191122Y0194131D01*
X0190635Y0195307D01*
X0189769Y0196172D01*
X0189769Y0196630D01*
X0190238Y0196436D01*
X0197023Y0196436D01*
X0197913Y0196804D01*
X0199015Y0196804D01*
X0200779Y0197535D01*
X0202129Y0198885D01*
X0203049Y0199806D01*
X0203176Y0199679D01*
X0204352Y0199192D01*
X0211531Y0199192D01*
X0212707Y0199679D01*
X0213607Y0200579D01*
X0214094Y0201755D01*
X0214094Y0208934D01*
X0213607Y0210110D01*
X0212707Y0211010D01*
X0211531Y0211497D01*
X0204352Y0211497D01*
X0203176Y0211010D01*
X0202492Y0210326D01*
X0200809Y0210326D01*
X0199587Y0209819D01*
X0199587Y0211690D01*
X0199099Y0212866D01*
X0198199Y0213766D01*
X0197023Y0214253D01*
X0196859Y0214253D01*
X0197412Y0214482D01*
X0198298Y0215368D01*
X0198309Y0215363D01*
X0200291Y0215363D01*
X0200302Y0215368D01*
X0201188Y0214482D01*
X0202364Y0213995D01*
X0208755Y0213995D01*
X0209932Y0214482D01*
X0210832Y0215382D01*
X0211319Y0216558D01*
X0211319Y0224131D01*
X0210832Y0225307D01*
X0209932Y0226207D01*
X0208755Y0226694D01*
X0202364Y0226694D01*
X0201188Y0226207D01*
X0200302Y0225321D01*
X0200291Y0225326D01*
X0198309Y0225326D01*
X0198298Y0225321D01*
X0197412Y0226207D01*
X0196236Y0226694D01*
X0191122Y0226694D01*
X0191122Y0229075D01*
X0191260Y0229408D01*
X0191260Y0236436D01*
X0197023Y0236436D01*
X0197913Y0236804D01*
X0199015Y0236804D01*
X0200779Y0237535D01*
X0203049Y0239806D01*
X0203176Y0239679D01*
X0204352Y0239192D01*
X0211531Y0239192D01*
X0212707Y0239679D01*
X0213607Y0240579D01*
X0214094Y0241755D01*
X0214094Y0248934D01*
X0213607Y0250110D01*
X0212707Y0251010D01*
X0211531Y0251497D01*
X0204352Y0251497D01*
X0203176Y0251010D01*
X0202711Y0250544D01*
X0200766Y0250544D01*
X0199587Y0250056D01*
X0199587Y0251690D01*
X0199099Y0252866D01*
X0198199Y0253766D01*
X0197023Y0254253D01*
X0196859Y0254253D01*
X0197412Y0254482D01*
X0198312Y0255382D01*
X0198379Y0255544D01*
X0202872Y0255544D01*
X0203309Y0255363D01*
X0205291Y0255363D01*
X0205302Y0255368D01*
X0206188Y0254482D01*
X0207364Y0253995D01*
X0213755Y0253995D01*
X0214932Y0254482D01*
X0215832Y0255382D01*
X0216319Y0256558D01*
X0216319Y0264131D01*
X0215832Y0265307D01*
X0214932Y0266207D01*
X0213755Y0266694D01*
X0207364Y0266694D01*
X0206188Y0266207D01*
X0205302Y0265321D01*
X0205291Y0265326D01*
X0203309Y0265326D01*
X0202872Y0265144D01*
X0198379Y0265144D01*
X0198312Y0265307D01*
X0197412Y0266207D01*
X0196236Y0266694D01*
X0189845Y0266694D01*
X0189300Y0266469D01*
X0188755Y0266694D01*
X0185998Y0266694D01*
X0185298Y0267394D01*
X0183948Y0268744D01*
X0182184Y0269475D01*
X0179915Y0269475D01*
X0179932Y0269482D01*
X0180832Y0270382D01*
X0181319Y0271558D01*
X0181319Y0279131D01*
X0180832Y0280307D01*
X0179932Y0281207D01*
X0178755Y0281694D01*
X0172364Y0281694D01*
X0171188Y0281207D01*
X0171026Y0281044D01*
X0162240Y0281044D01*
X0161033Y0281544D01*
X0156157Y0281544D01*
X0165957Y0291344D01*
X0192891Y0291344D01*
X0192891Y0286283D01*
X0193379Y0285107D01*
X0194279Y0284206D01*
X0195455Y0283719D01*
X0196631Y0283719D01*
X0196631Y0282124D01*
X0196600Y0282048D01*
X0196600Y0279979D01*
X0196631Y0279903D01*
X0196631Y0277621D01*
X0197119Y0276445D01*
X0198019Y0275545D01*
X0199195Y0275058D01*
X0204405Y0275058D01*
X0205581Y0275545D01*
X0205850Y0275814D01*
X0212750Y0275814D01*
X0213019Y0275545D01*
X0214195Y0275058D01*
X0219405Y0275058D01*
X0220581Y0275545D01*
X0220850Y0275814D01*
X0222609Y0275814D01*
X0222788Y0275382D01*
X0223688Y0274482D01*
X0224864Y0273995D01*
X0230372Y0273995D01*
X0230372Y0269470D01*
X0229195Y0269470D01*
X0228019Y0268983D01*
X0227119Y0268082D01*
X0226631Y0266906D01*
X0226631Y0260121D01*
X0227000Y0259232D01*
X0227000Y0256772D01*
X0226819Y0256335D01*
X0226819Y0254354D01*
X0227000Y0253916D01*
X0227000Y0251497D01*
X0222069Y0251497D01*
X0220893Y0251010D01*
X0219993Y0250110D01*
X0219506Y0248934D01*
X0219506Y0241755D01*
X0219993Y0240579D01*
X0220858Y0239713D01*
X0220858Y0236694D01*
X0217541Y0236694D01*
X0216365Y0236207D01*
X0215465Y0235307D01*
X0214978Y0234131D01*
X0214978Y0226558D01*
X0215465Y0225382D01*
X0216365Y0224482D01*
X0217541Y0223995D01*
X0220858Y0223995D01*
X0220858Y0210975D01*
X0219993Y0210110D01*
X0219506Y0208934D01*
X0219506Y0201755D01*
X0219993Y0200579D01*
X0220858Y0199713D01*
X0220858Y0196694D01*
X0217541Y0196694D01*
X0216365Y0196207D01*
X0215465Y0195307D01*
X0214978Y0194131D01*
X0214978Y0186558D01*
X0215465Y0185382D01*
X0216365Y0184482D01*
X0217541Y0183995D01*
X0220858Y0183995D01*
X0220858Y0170975D01*
X0219993Y0170110D01*
X0219506Y0168934D01*
X0219506Y0161755D01*
X0219993Y0160579D01*
X0220858Y0159713D01*
X0220858Y0156694D01*
X0217541Y0156694D01*
X0216365Y0156207D01*
X0215465Y0155307D01*
X0214978Y0154131D01*
X0214978Y0146558D01*
X0215465Y0145382D01*
X0216365Y0144482D01*
X0217541Y0143995D01*
X0220858Y0143995D01*
X0220858Y0130975D01*
X0219993Y0130110D01*
X0219506Y0128934D01*
X0219506Y0121755D01*
X0219993Y0120579D01*
X0220858Y0119713D01*
X0220858Y0116694D01*
X0217541Y0116694D01*
X0216365Y0116207D01*
X0215465Y0115307D01*
X0214978Y0114131D01*
X0214978Y0106558D01*
X0215465Y0105382D01*
X0216365Y0104482D01*
X0217541Y0103995D01*
X0220858Y0103995D01*
X0220858Y0090975D01*
X0219993Y0090110D01*
X0219506Y0088934D01*
X0219506Y0081755D01*
X0219993Y0080579D01*
X0220858Y0079713D01*
X0220858Y0076844D01*
X0220507Y0076844D01*
X0219538Y0076443D01*
X0218933Y0076694D01*
X0212541Y0076694D01*
X0211365Y0076207D01*
X0210465Y0075307D01*
X0209978Y0074131D01*
X0209978Y0066558D01*
X0210465Y0065382D01*
X0211103Y0064744D01*
X0189997Y0064744D01*
X0190927Y0066088D02*
X0210173Y0066088D01*
X0209978Y0067686D02*
X0191122Y0067686D01*
X0191209Y0069285D02*
X0209978Y0069285D01*
X0209978Y0070883D02*
X0191260Y0070883D01*
X0191260Y0072482D02*
X0209978Y0072482D01*
X0209978Y0074080D02*
X0191260Y0074080D01*
X0191260Y0075679D02*
X0210837Y0075679D01*
X0213503Y0080475D02*
X0220097Y0080475D01*
X0219506Y0082073D02*
X0214094Y0082073D01*
X0214094Y0083672D02*
X0219506Y0083672D01*
X0219506Y0085270D02*
X0214094Y0085270D01*
X0214094Y0086869D02*
X0219506Y0086869D01*
X0219506Y0088467D02*
X0214094Y0088467D01*
X0213626Y0090066D02*
X0219974Y0090066D01*
X0220858Y0091664D02*
X0199587Y0091664D01*
X0199587Y0090066D02*
X0200182Y0090066D01*
X0198703Y0093263D02*
X0220858Y0093263D01*
X0220858Y0094861D02*
X0210311Y0094861D01*
X0211278Y0096460D02*
X0220858Y0096460D01*
X0220858Y0098058D02*
X0211319Y0098058D01*
X0211319Y0099657D02*
X0220858Y0099657D01*
X0220858Y0101255D02*
X0211319Y0101255D01*
X0211319Y0102854D02*
X0220858Y0102854D01*
X0216437Y0104452D02*
X0211186Y0104452D01*
X0210088Y0106051D02*
X0215188Y0106051D01*
X0214978Y0107649D02*
X0191122Y0107649D01*
X0191122Y0109248D02*
X0214978Y0109248D01*
X0214978Y0110846D02*
X0191122Y0110846D01*
X0191122Y0112445D02*
X0214978Y0112445D01*
X0214978Y0114043D02*
X0191122Y0114043D01*
X0190563Y0115642D02*
X0215800Y0115642D01*
X0220858Y0117240D02*
X0200067Y0117240D01*
X0202083Y0118839D02*
X0220858Y0118839D01*
X0220134Y0120437D02*
X0213466Y0120437D01*
X0214094Y0122036D02*
X0219506Y0122036D01*
X0219506Y0123634D02*
X0214094Y0123634D01*
X0214094Y0125233D02*
X0219506Y0125233D01*
X0219506Y0126831D02*
X0214094Y0126831D01*
X0214094Y0128430D02*
X0219506Y0128430D01*
X0219959Y0130028D02*
X0213641Y0130028D01*
X0210273Y0134824D02*
X0220858Y0134824D01*
X0220858Y0136422D02*
X0211263Y0136422D01*
X0211319Y0138021D02*
X0220858Y0138021D01*
X0220858Y0139619D02*
X0211319Y0139619D01*
X0211319Y0141218D02*
X0220858Y0141218D01*
X0220858Y0142816D02*
X0211319Y0142816D01*
X0211201Y0144415D02*
X0216527Y0144415D01*
X0215204Y0146013D02*
X0210125Y0146013D01*
X0214978Y0147612D02*
X0191122Y0147612D01*
X0191122Y0149211D02*
X0214978Y0149211D01*
X0214978Y0150809D02*
X0191122Y0150809D01*
X0191122Y0152408D02*
X0214978Y0152408D01*
X0214978Y0154006D02*
X0191122Y0154006D01*
X0190760Y0155605D02*
X0215763Y0155605D01*
X0213428Y0160400D02*
X0220172Y0160400D01*
X0219506Y0161999D02*
X0214094Y0161999D01*
X0214094Y0163597D02*
X0219506Y0163597D01*
X0219506Y0165196D02*
X0214094Y0165196D01*
X0214094Y0166794D02*
X0219506Y0166794D01*
X0219506Y0168393D02*
X0214094Y0168393D01*
X0213656Y0169991D02*
X0219944Y0169991D01*
X0220858Y0171590D02*
X0199587Y0171590D01*
X0199587Y0169991D02*
X0200002Y0169991D01*
X0198777Y0173188D02*
X0220858Y0173188D01*
X0220858Y0174787D02*
X0210236Y0174787D01*
X0211247Y0176385D02*
X0220858Y0176385D01*
X0220858Y0177984D02*
X0211319Y0177984D01*
X0211319Y0179582D02*
X0220858Y0179582D01*
X0220858Y0181181D02*
X0211319Y0181181D01*
X0211319Y0182779D02*
X0220858Y0182779D01*
X0216617Y0184378D02*
X0211217Y0184378D01*
X0210162Y0185976D02*
X0215219Y0185976D01*
X0214978Y0187575D02*
X0191122Y0187575D01*
X0191122Y0189173D02*
X0214978Y0189173D01*
X0214978Y0190772D02*
X0191122Y0190772D01*
X0191122Y0192370D02*
X0214978Y0192370D01*
X0214978Y0193969D02*
X0191122Y0193969D01*
X0190374Y0195567D02*
X0215726Y0195567D01*
X0213391Y0200363D02*
X0220209Y0200363D01*
X0220858Y0198764D02*
X0202008Y0198764D01*
X0199887Y0197166D02*
X0220858Y0197166D01*
X0219506Y0201961D02*
X0214094Y0201961D01*
X0214094Y0203560D02*
X0219506Y0203560D01*
X0219506Y0205158D02*
X0214094Y0205158D01*
X0214094Y0206757D02*
X0219506Y0206757D01*
X0219506Y0208355D02*
X0214094Y0208355D01*
X0213672Y0209954D02*
X0219928Y0209954D01*
X0220858Y0211552D02*
X0199587Y0211552D01*
X0199587Y0209954D02*
X0199912Y0209954D01*
X0198814Y0213151D02*
X0220858Y0213151D01*
X0220858Y0214749D02*
X0210199Y0214749D01*
X0211232Y0216348D02*
X0220858Y0216348D01*
X0220858Y0217946D02*
X0211319Y0217946D01*
X0211319Y0219545D02*
X0220858Y0219545D01*
X0220858Y0221144D02*
X0211319Y0221144D01*
X0211319Y0222742D02*
X0220858Y0222742D01*
X0216707Y0224341D02*
X0211232Y0224341D01*
X0210199Y0225939D02*
X0215234Y0225939D01*
X0214978Y0227538D02*
X0191122Y0227538D01*
X0191147Y0229136D02*
X0214978Y0229136D01*
X0214978Y0230735D02*
X0191260Y0230735D01*
X0191260Y0232333D02*
X0214978Y0232333D01*
X0214978Y0233932D02*
X0191260Y0233932D01*
X0191260Y0235530D02*
X0215688Y0235530D01*
X0213354Y0240326D02*
X0220246Y0240326D01*
X0220858Y0238727D02*
X0201971Y0238727D01*
X0199798Y0237129D02*
X0220858Y0237129D01*
X0219506Y0241924D02*
X0214094Y0241924D01*
X0214094Y0243523D02*
X0219506Y0243523D01*
X0219506Y0245121D02*
X0214094Y0245121D01*
X0214094Y0246720D02*
X0219506Y0246720D01*
X0219506Y0248318D02*
X0214094Y0248318D01*
X0213687Y0249917D02*
X0219913Y0249917D01*
X0215162Y0254712D02*
X0226819Y0254712D01*
X0226819Y0256311D02*
X0216216Y0256311D01*
X0216319Y0257909D02*
X0227000Y0257909D01*
X0226886Y0259508D02*
X0216319Y0259508D01*
X0216319Y0261106D02*
X0226631Y0261106D01*
X0226631Y0262705D02*
X0216319Y0262705D01*
X0216247Y0264303D02*
X0226631Y0264303D01*
X0226631Y0265902D02*
X0215237Y0265902D01*
X0205883Y0265902D02*
X0197717Y0265902D01*
X0197642Y0254712D02*
X0205958Y0254712D01*
X0199587Y0251515D02*
X0227000Y0251515D01*
X0227000Y0253114D02*
X0198851Y0253114D01*
X0185192Y0267500D02*
X0226878Y0267500D01*
X0228300Y0269099D02*
X0183092Y0269099D01*
X0180962Y0270697D02*
X0230372Y0270697D01*
X0230372Y0272296D02*
X0181319Y0272296D01*
X0181319Y0273894D02*
X0230372Y0273894D01*
X0222742Y0275493D02*
X0220455Y0275493D01*
X0213145Y0275493D02*
X0205455Y0275493D01*
X0198145Y0275493D02*
X0181319Y0275493D01*
X0181319Y0277091D02*
X0196851Y0277091D01*
X0196631Y0278690D02*
X0181319Y0278690D01*
X0180839Y0280288D02*
X0196600Y0280288D01*
X0196600Y0281887D02*
X0156499Y0281887D01*
X0158098Y0283485D02*
X0196631Y0283485D01*
X0193401Y0285084D02*
X0159696Y0285084D01*
X0161295Y0286682D02*
X0192891Y0286682D01*
X0192891Y0288281D02*
X0162893Y0288281D01*
X0164492Y0289880D02*
X0192891Y0289880D01*
X0201800Y0295344D02*
X0164300Y0295344D01*
X0136800Y0267844D01*
X0129300Y0267844D01*
X0132344Y0271844D02*
X0132122Y0272067D01*
X0130291Y0272826D01*
X0128309Y0272826D01*
X0127987Y0272692D01*
X0127924Y0272844D01*
X0128150Y0273389D01*
X0128150Y0279780D01*
X0127662Y0280956D01*
X0126762Y0281857D01*
X0126200Y0282089D01*
X0126200Y0284586D01*
X0125530Y0286203D01*
X0124862Y0286871D01*
X0124862Y0289209D01*
X0124375Y0290385D01*
X0123475Y0291286D01*
X0122299Y0291773D01*
X0116301Y0291773D01*
X0115550Y0291462D01*
X0114799Y0291773D01*
X0108801Y0291773D01*
X0108050Y0291462D01*
X0107299Y0291773D01*
X0101301Y0291773D01*
X0100125Y0291286D01*
X0099225Y0290385D01*
X0098738Y0289209D01*
X0098738Y0286871D01*
X0098070Y0286203D01*
X0097400Y0284586D01*
X0097400Y0282089D01*
X0096838Y0281857D01*
X0095938Y0280956D01*
X0095450Y0279780D01*
X0095450Y0273389D01*
X0095676Y0272844D01*
X0095450Y0272300D01*
X0095450Y0268412D01*
X0092364Y0265326D01*
X0090809Y0265326D01*
X0088978Y0264567D01*
X0087577Y0263166D01*
X0086819Y0261335D01*
X0086819Y0259354D01*
X0087263Y0258281D01*
X0078785Y0258281D01*
X0077699Y0259368D01*
X0077516Y0259444D01*
X0077609Y0259482D01*
X0078509Y0260382D01*
X0078996Y0261558D01*
X0078996Y0269131D01*
X0078509Y0270307D01*
X0078300Y0270516D01*
X0078300Y0271140D01*
X0077691Y0272610D01*
X0072691Y0277610D01*
X0071566Y0278736D01*
X0070096Y0279344D01*
X0067887Y0279344D01*
X0067887Y0285774D01*
X0068265Y0285774D01*
X0069735Y0286383D01*
X0070860Y0287508D01*
X0071469Y0288978D01*
X0071469Y0299605D01*
X0242301Y0299605D01*
X0242301Y0293566D01*
X0241792Y0294075D01*
X0240175Y0294744D01*
X0224721Y0294744D01*
X0224321Y0295144D01*
X0223145Y0295631D01*
X0217935Y0295631D01*
X0216800Y0295161D01*
X0215665Y0295631D01*
X0210455Y0295631D01*
X0209300Y0295153D01*
X0208145Y0295631D01*
X0207170Y0295631D01*
X0205191Y0297610D01*
X0204066Y0298736D01*
X0202596Y0299344D01*
X0163504Y0299344D01*
X0162034Y0298736D01*
X0135143Y0271844D01*
X0132344Y0271844D01*
X0131570Y0272296D02*
X0135595Y0272296D01*
X0137193Y0273894D02*
X0128150Y0273894D01*
X0128150Y0275493D02*
X0138792Y0275493D01*
X0140390Y0277091D02*
X0128150Y0277091D01*
X0128150Y0278690D02*
X0141989Y0278690D01*
X0143587Y0280288D02*
X0127939Y0280288D01*
X0126689Y0281887D02*
X0145186Y0281887D01*
X0146784Y0283485D02*
X0126200Y0283485D01*
X0125994Y0285084D02*
X0148383Y0285084D01*
X0149981Y0286682D02*
X0125051Y0286682D01*
X0124862Y0288281D02*
X0151580Y0288281D01*
X0153178Y0289880D02*
X0124585Y0289880D01*
X0123010Y0291478D02*
X0154777Y0291478D01*
X0156375Y0293077D02*
X0071469Y0293077D01*
X0071469Y0294675D02*
X0157974Y0294675D01*
X0159572Y0296274D02*
X0071469Y0296274D01*
X0071469Y0297872D02*
X0161171Y0297872D01*
X0156800Y0275344D02*
X0151800Y0275344D01*
X0139300Y0262844D01*
X0124300Y0262844D01*
X0101800Y0240344D01*
X0096800Y0245344D02*
X0096800Y0210344D01*
X0091800Y0207844D02*
X0091800Y0240344D01*
X0085737Y0246407D01*
X0074300Y0246407D01*
X0070298Y0241924D02*
X0058377Y0241924D01*
X0058300Y0242001D02*
X0058300Y0245934D01*
X0059262Y0246332D01*
X0060162Y0247233D01*
X0060650Y0248409D01*
X0060650Y0254800D01*
X0060424Y0255344D01*
X0060650Y0255889D01*
X0060650Y0262280D01*
X0060162Y0263456D01*
X0059262Y0264357D01*
X0058086Y0264844D01*
X0054198Y0264844D01*
X0053300Y0265741D01*
X0053300Y0268904D01*
X0054459Y0269384D01*
X0054704Y0269628D01*
X0054968Y0269364D01*
X0056144Y0268877D01*
X0065291Y0268877D01*
X0066467Y0269364D01*
X0067367Y0270264D01*
X0067764Y0271223D01*
X0068323Y0270665D01*
X0067965Y0270307D01*
X0067478Y0269131D01*
X0067478Y0261558D01*
X0067965Y0260382D01*
X0068865Y0259482D01*
X0070041Y0258995D01*
X0070528Y0258995D01*
X0069213Y0257680D01*
X0068300Y0255475D01*
X0068300Y0253088D01*
X0069213Y0250883D01*
X0069752Y0250344D01*
X0069213Y0249806D01*
X0068300Y0247601D01*
X0068300Y0245214D01*
X0069213Y0243009D01*
X0070901Y0241321D01*
X0072563Y0240632D01*
X0071819Y0238835D01*
X0071819Y0238520D01*
X0062643Y0229344D01*
X0058504Y0229344D01*
X0057034Y0228736D01*
X0056124Y0227826D01*
X0055809Y0227826D01*
X0053978Y0227067D01*
X0052577Y0225666D01*
X0052448Y0225354D01*
X0049066Y0228736D01*
X0048558Y0228946D01*
X0049976Y0230363D01*
X0050291Y0230363D01*
X0052122Y0231122D01*
X0053523Y0232523D01*
X0054281Y0234354D01*
X0054281Y0234707D01*
X0054319Y0234669D01*
X0054319Y0234354D01*
X0055077Y0232523D01*
X0056478Y0231122D01*
X0058309Y0230363D01*
X0060291Y0230363D01*
X0062122Y0231122D01*
X0063523Y0232523D01*
X0064281Y0234354D01*
X0064281Y0236335D01*
X0063523Y0238166D01*
X0062122Y0239567D01*
X0060291Y0240326D01*
X0059976Y0240326D01*
X0072436Y0240326D01*
X0071819Y0238727D02*
X0062962Y0238727D01*
X0063952Y0237129D02*
X0070427Y0237129D01*
X0068829Y0235530D02*
X0064281Y0235530D01*
X0064106Y0233932D02*
X0067230Y0233932D01*
X0065632Y0232333D02*
X0063333Y0232333D01*
X0064033Y0230735D02*
X0061187Y0230735D01*
X0058001Y0229136D02*
X0048748Y0229136D01*
X0050264Y0227538D02*
X0055114Y0227538D01*
X0052850Y0225939D02*
X0051862Y0225939D01*
X0051187Y0230735D02*
X0057413Y0230735D01*
X0055267Y0232333D02*
X0053333Y0232333D01*
X0054106Y0233932D02*
X0054494Y0233932D01*
X0059300Y0235344D02*
X0054300Y0240344D01*
X0054300Y0251604D01*
X0059650Y0246720D02*
X0068300Y0246720D01*
X0068338Y0245121D02*
X0058300Y0245121D01*
X0058300Y0243523D02*
X0069001Y0243523D01*
X0068597Y0248318D02*
X0060612Y0248318D01*
X0060650Y0249917D02*
X0069324Y0249917D01*
X0068951Y0251515D02*
X0060650Y0251515D01*
X0060650Y0253114D02*
X0068300Y0253114D01*
X0068300Y0254712D02*
X0060650Y0254712D01*
X0060650Y0256311D02*
X0068646Y0256311D01*
X0069443Y0257909D02*
X0060650Y0257909D01*
X0060650Y0259508D02*
X0068840Y0259508D01*
X0067665Y0261106D02*
X0060650Y0261106D01*
X0060474Y0262705D02*
X0067478Y0262705D01*
X0067478Y0264303D02*
X0059315Y0264303D01*
X0059300Y0265344D02*
X0065363Y0265344D01*
X0067478Y0265902D02*
X0053300Y0265902D01*
X0053300Y0267500D02*
X0067478Y0267500D01*
X0067478Y0269099D02*
X0065827Y0269099D01*
X0067547Y0270697D02*
X0068290Y0270697D01*
X0069300Y0275344D02*
X0059300Y0275344D01*
X0059300Y0280344D01*
X0058217Y0280288D02*
X0063887Y0280288D01*
X0063887Y0279656D02*
X0063887Y0289774D01*
X0067469Y0289774D01*
X0067469Y0299026D01*
X0062430Y0299026D01*
X0062430Y0290758D01*
X0058217Y0290758D01*
X0058217Y0279656D01*
X0063887Y0279656D01*
X0063887Y0281887D02*
X0058217Y0281887D01*
X0058217Y0283485D02*
X0063887Y0283485D01*
X0063887Y0285084D02*
X0058217Y0285084D01*
X0059300Y0285344D02*
X0039300Y0285344D01*
X0040452Y0285084D02*
X0034782Y0285084D01*
X0034782Y0286682D02*
X0040452Y0286682D01*
X0040452Y0288281D02*
X0034782Y0288281D01*
X0034782Y0289774D02*
X0031200Y0289774D01*
X0031200Y0299026D01*
X0036239Y0299026D01*
X0036239Y0290758D01*
X0040452Y0290758D01*
X0040452Y0279656D01*
X0034782Y0279656D01*
X0034782Y0289774D01*
X0036239Y0291478D02*
X0031200Y0291478D01*
X0031200Y0289880D02*
X0040452Y0289880D01*
X0036239Y0293077D02*
X0031200Y0293077D01*
X0031200Y0294675D02*
X0036239Y0294675D01*
X0036239Y0296274D02*
X0031200Y0296274D01*
X0031200Y0297872D02*
X0036239Y0297872D01*
X0027200Y0288978D02*
X0027809Y0287508D01*
X0028934Y0286383D01*
X0030404Y0285774D01*
X0030782Y0285774D01*
X0030782Y0278860D01*
X0030847Y0278705D01*
X0030746Y0278461D01*
X0030746Y0271440D01*
X0031233Y0270264D01*
X0032133Y0269364D01*
X0033309Y0268877D01*
X0035788Y0268877D01*
X0035077Y0268166D01*
X0034936Y0267826D01*
X0033309Y0267826D01*
X0031478Y0267067D01*
X0030077Y0265666D01*
X0029319Y0263835D01*
X0029319Y0261854D01*
X0030077Y0260023D01*
X0030300Y0259800D01*
X0030300Y0253124D01*
X0030162Y0253456D01*
X0029862Y0253757D01*
X0029862Y0259209D01*
X0029375Y0260385D01*
X0028475Y0261286D01*
X0027299Y0261773D01*
X0021301Y0261773D01*
X0020125Y0261286D01*
X0019300Y0260461D01*
X0018475Y0261286D01*
X0017299Y0261773D01*
X0011301Y0261773D01*
X0010125Y0261286D01*
X0009225Y0260385D01*
X0008738Y0259209D01*
X0008738Y0253757D01*
X0008438Y0253456D01*
X0007950Y0252280D01*
X0007950Y0245889D01*
X0008176Y0245344D01*
X0007950Y0244800D01*
X0007950Y0238409D01*
X0008438Y0237233D01*
X0009338Y0236332D01*
X0010300Y0235934D01*
X0010300Y0234549D01*
X0010909Y0233079D01*
X0015909Y0228079D01*
X0017034Y0226953D01*
X0017542Y0226743D01*
X0014843Y0224044D01*
X0011732Y0224044D01*
X0008100Y0220413D01*
X0008100Y0215276D01*
X0010532Y0212844D01*
X0008100Y0210413D01*
X0008100Y0209801D01*
X0005000Y0206701D01*
X0005000Y0299605D01*
X0027200Y0299605D01*
X0027200Y0288978D01*
X0027488Y0288281D02*
X0005000Y0288281D01*
X0005000Y0289880D02*
X0027200Y0289880D01*
X0027200Y0291478D02*
X0005000Y0291478D01*
X0005000Y0293077D02*
X0027200Y0293077D01*
X0027200Y0294675D02*
X0005000Y0294675D01*
X0005000Y0296274D02*
X0027200Y0296274D01*
X0027200Y0297872D02*
X0005000Y0297872D01*
X0005000Y0299471D02*
X0027200Y0299471D01*
X0028634Y0286682D02*
X0005000Y0286682D01*
X0005000Y0285084D02*
X0030782Y0285084D01*
X0030782Y0283485D02*
X0005000Y0283485D01*
X0005000Y0281887D02*
X0030782Y0281887D01*
X0030782Y0280288D02*
X0005000Y0280288D01*
X0005000Y0278690D02*
X0030840Y0278690D01*
X0030746Y0277091D02*
X0005000Y0277091D01*
X0005000Y0275493D02*
X0030746Y0275493D01*
X0030746Y0273894D02*
X0005000Y0273894D01*
X0005000Y0272296D02*
X0030746Y0272296D01*
X0031053Y0270697D02*
X0005000Y0270697D01*
X0005000Y0269099D02*
X0032773Y0269099D01*
X0032524Y0267500D02*
X0005000Y0267500D01*
X0005000Y0265902D02*
X0030313Y0265902D01*
X0029513Y0264303D02*
X0005000Y0264303D01*
X0005000Y0262705D02*
X0029319Y0262705D01*
X0029628Y0261106D02*
X0028654Y0261106D01*
X0029739Y0259508D02*
X0030300Y0259508D01*
X0030300Y0257909D02*
X0029862Y0257909D01*
X0029862Y0256311D02*
X0030300Y0256311D01*
X0030300Y0254712D02*
X0029862Y0254712D01*
X0034300Y0250344D02*
X0034300Y0262844D01*
X0039300Y0265344D02*
X0044182Y0270226D01*
X0044182Y0275463D01*
X0046741Y0275463D02*
X0046741Y0261526D01*
X0044300Y0259085D01*
X0049300Y0264085D02*
X0054300Y0259085D01*
X0049300Y0264085D02*
X0049300Y0275463D01*
X0054418Y0275463D02*
X0054418Y0270226D01*
X0059300Y0265344D01*
X0055608Y0269099D02*
X0053772Y0269099D01*
X0040452Y0280288D02*
X0034782Y0280288D01*
X0034782Y0281887D02*
X0040452Y0281887D01*
X0040452Y0283485D02*
X0034782Y0283485D01*
X0039300Y0280344D02*
X0039300Y0275344D01*
X0025166Y0264478D02*
X0024300Y0264478D01*
X0014300Y0264478D01*
X0009946Y0261106D02*
X0005000Y0261106D01*
X0005000Y0259508D02*
X0008861Y0259508D01*
X0008738Y0257909D02*
X0005000Y0257909D01*
X0005000Y0256311D02*
X0008738Y0256311D01*
X0008738Y0254712D02*
X0005000Y0254712D01*
X0005000Y0253114D02*
X0008296Y0253114D01*
X0007950Y0251515D02*
X0005000Y0251515D01*
X0005000Y0249917D02*
X0007950Y0249917D01*
X0007950Y0248318D02*
X0005000Y0248318D01*
X0005000Y0246720D02*
X0007950Y0246720D01*
X0008083Y0245121D02*
X0005000Y0245121D01*
X0005000Y0243523D02*
X0007950Y0243523D01*
X0007950Y0241924D02*
X0005000Y0241924D01*
X0005000Y0240326D02*
X0007950Y0240326D01*
X0007950Y0238727D02*
X0005000Y0238727D01*
X0005000Y0237129D02*
X0008542Y0237129D01*
X0010300Y0235530D02*
X0005000Y0235530D01*
X0005000Y0233932D02*
X0010556Y0233932D01*
X0011655Y0232333D02*
X0005000Y0232333D01*
X0005000Y0230735D02*
X0013253Y0230735D01*
X0014852Y0229136D02*
X0005000Y0229136D01*
X0005000Y0227538D02*
X0016450Y0227538D01*
X0016738Y0225939D02*
X0005000Y0225939D01*
X0005000Y0224341D02*
X0015139Y0224341D01*
X0010429Y0222742D02*
X0005000Y0222742D01*
X0005000Y0221144D02*
X0008831Y0221144D01*
X0008100Y0219545D02*
X0005000Y0219545D01*
X0005000Y0217946D02*
X0008100Y0217946D01*
X0008100Y0216348D02*
X0005000Y0216348D01*
X0005000Y0214749D02*
X0008627Y0214749D01*
X0010225Y0213151D02*
X0005000Y0213151D01*
X0005000Y0211552D02*
X0009240Y0211552D01*
X0008100Y0209954D02*
X0005000Y0209954D01*
X0005000Y0208355D02*
X0006654Y0208355D01*
X0005056Y0206757D02*
X0005000Y0206757D01*
X0006800Y0202844D02*
X0011800Y0207844D01*
X0014300Y0207844D01*
X0018068Y0212844D02*
X0019300Y0211613D01*
X0021732Y0214044D01*
X0026868Y0214044D01*
X0030500Y0210413D01*
X0030500Y0205276D01*
X0028068Y0202844D01*
X0028378Y0202535D01*
X0028409Y0202610D01*
X0029534Y0203736D01*
X0042034Y0216236D01*
X0043504Y0216844D01*
X0049643Y0216844D01*
X0045143Y0221344D01*
X0023457Y0221344D01*
X0020500Y0218388D01*
X0020500Y0215276D01*
X0018068Y0212844D01*
X0018375Y0213151D02*
X0020838Y0213151D01*
X0019973Y0214749D02*
X0040548Y0214749D01*
X0038950Y0213151D02*
X0027762Y0213151D01*
X0029360Y0211552D02*
X0037351Y0211552D01*
X0035753Y0209954D02*
X0030500Y0209954D01*
X0030500Y0208355D02*
X0034154Y0208355D01*
X0032556Y0206757D02*
X0030500Y0206757D01*
X0030382Y0205158D02*
X0030957Y0205158D01*
X0029359Y0203560D02*
X0028784Y0203560D01*
X0031800Y0200344D02*
X0031800Y0195344D01*
X0024300Y0187844D01*
X0021800Y0180344D02*
X0014300Y0187844D01*
X0009300Y0182844D01*
X0009300Y0140344D01*
X0014300Y0135344D01*
X0031800Y0135344D01*
X0032942Y0135344D02*
X0042942Y0125344D01*
X0066800Y0125344D01*
X0069300Y0127844D01*
X0084300Y0127844D01*
X0086800Y0130344D01*
X0089300Y0127844D01*
X0089300Y0117844D01*
X0101800Y0105344D01*
X0101800Y0080344D01*
X0101800Y0050344D01*
X0126800Y0025344D01*
X0131800Y0025344D01*
X0171800Y0025344D01*
X0174300Y0027844D01*
X0175363Y0029281D01*
X0175363Y0035344D01*
X0181122Y0042110D02*
X0197542Y0042110D01*
X0203094Y0040545D02*
X0205482Y0041534D01*
X0207310Y0043363D01*
X0208300Y0045752D01*
X0208300Y0054937D01*
X0207883Y0055944D01*
X0210717Y0055944D01*
X0210300Y0054937D01*
X0210300Y0045752D01*
X0211290Y0043363D01*
X0212000Y0042652D01*
X0212000Y0034390D01*
X0212731Y0032626D01*
X0214081Y0031275D01*
X0216025Y0029331D01*
X0216025Y0028160D01*
X0216023Y0028166D01*
X0214622Y0029567D01*
X0212791Y0030326D01*
X0210809Y0030326D01*
X0210798Y0030321D01*
X0209912Y0031207D01*
X0208736Y0031694D01*
X0203819Y0031694D01*
X0203819Y0039131D01*
X0203332Y0040307D01*
X0203094Y0040545D01*
X0203127Y0040512D02*
X0212000Y0040512D01*
X0212000Y0042110D02*
X0206058Y0042110D01*
X0207454Y0043709D02*
X0211146Y0043709D01*
X0210484Y0045307D02*
X0208116Y0045307D01*
X0208300Y0046906D02*
X0210300Y0046906D01*
X0210300Y0048504D02*
X0208300Y0048504D01*
X0208300Y0050103D02*
X0210300Y0050103D01*
X0210300Y0051701D02*
X0208300Y0051701D01*
X0208300Y0053300D02*
X0210300Y0053300D01*
X0210300Y0054898D02*
X0208300Y0054898D01*
X0212000Y0038913D02*
X0203819Y0038913D01*
X0203819Y0037315D02*
X0212000Y0037315D01*
X0212000Y0035716D02*
X0203819Y0035716D01*
X0203819Y0034118D02*
X0212113Y0034118D01*
X0212837Y0032519D02*
X0203819Y0032519D01*
X0198060Y0025344D02*
X0196800Y0024085D01*
X0196800Y0022844D01*
X0198060Y0020344D02*
X0124300Y0020344D01*
X0096800Y0047844D01*
X0096800Y0102844D01*
X0081800Y0117844D01*
X0081800Y0122844D01*
X0086800Y0130344D02*
X0086800Y0134085D01*
X0085540Y0135344D01*
X0078060Y0135344D02*
X0066800Y0135344D01*
X0064300Y0137844D01*
X0060629Y0141218D02*
X0054922Y0141218D01*
X0055424Y0141010D02*
X0054248Y0141497D01*
X0053804Y0141497D01*
X0052924Y0142377D01*
X0051781Y0143520D01*
X0051781Y0143835D01*
X0051390Y0144779D01*
X0052533Y0144306D01*
X0053806Y0144306D01*
X0054983Y0144793D01*
X0060059Y0149869D01*
X0060467Y0150855D01*
X0068323Y0158711D01*
X0068540Y0158493D01*
X0067996Y0157948D01*
X0065834Y0155786D01*
X0065833Y0155786D01*
X0063541Y0153494D01*
X0061314Y0151267D01*
X0060827Y0150091D01*
X0060827Y0148818D01*
X0061314Y0147642D01*
X0066390Y0142566D01*
X0066835Y0142381D01*
X0068638Y0140579D01*
X0068638Y0140579D01*
X0069763Y0139453D01*
X0070026Y0139344D01*
X0069070Y0139344D01*
X0068523Y0140666D01*
X0067122Y0142067D01*
X0065291Y0142826D01*
X0063309Y0142826D01*
X0061478Y0142067D01*
X0060077Y0140666D01*
X0059319Y0138835D01*
X0059319Y0136854D01*
X0060077Y0135023D01*
X0061478Y0133622D01*
X0063309Y0132863D01*
X0063624Y0132863D01*
X0064534Y0131953D01*
X0066004Y0131344D01*
X0067297Y0131344D01*
X0067034Y0131236D01*
X0065909Y0130110D01*
X0065143Y0129344D01*
X0054616Y0129344D01*
X0055424Y0129679D01*
X0056324Y0130579D01*
X0056811Y0131755D01*
X0056811Y0138934D01*
X0056324Y0140110D01*
X0055424Y0141010D01*
X0056527Y0139619D02*
X0059644Y0139619D01*
X0059319Y0138021D02*
X0056811Y0138021D01*
X0056811Y0136422D02*
X0059498Y0136422D01*
X0060276Y0134824D02*
X0056811Y0134824D01*
X0056811Y0133225D02*
X0062435Y0133225D01*
X0065323Y0131627D02*
X0056758Y0131627D01*
X0055773Y0130028D02*
X0065827Y0130028D01*
X0071800Y0122844D02*
X0086800Y0107844D01*
X0086800Y0096585D01*
X0089300Y0094085D01*
X0089300Y0086604D02*
X0091800Y0084104D01*
X0091800Y0057844D01*
X0084300Y0050344D01*
X0084300Y0057844D02*
X0086800Y0060344D01*
X0086800Y0070344D01*
X0079300Y0077844D01*
X0079300Y0086604D01*
X0079300Y0094085D02*
X0069300Y0094085D01*
X0068060Y0094085D01*
X0064300Y0097844D01*
X0064300Y0115344D01*
X0059300Y0120344D01*
X0055360Y0117240D02*
X0005000Y0117240D01*
X0005000Y0115642D02*
X0057637Y0115642D01*
X0058309Y0115363D02*
X0058624Y0115363D01*
X0060300Y0113688D01*
X0060300Y0097049D01*
X0060909Y0095579D01*
X0062034Y0094453D01*
X0062950Y0093537D01*
X0062950Y0090889D01*
X0063176Y0090344D01*
X0062950Y0089800D01*
X0062950Y0086548D01*
X0058708Y0090790D01*
X0057246Y0092253D01*
X0055334Y0093044D01*
X0045766Y0093044D01*
X0043854Y0092253D01*
X0042392Y0090790D01*
X0041600Y0088879D01*
X0041600Y0088701D01*
X0040800Y0089501D01*
X0040800Y0093640D01*
X0040191Y0095110D01*
X0035650Y0099652D01*
X0035650Y0099780D01*
X0035162Y0100956D01*
X0034262Y0101857D01*
X0033086Y0102344D01*
X0029198Y0102344D01*
X0026000Y0105541D01*
X0026000Y0106578D01*
X0025056Y0108856D01*
X0023312Y0110601D01*
X0021033Y0111544D01*
X0012567Y0111544D01*
X0010288Y0110601D01*
X0008544Y0108856D01*
X0007600Y0106578D01*
X0007600Y0104111D01*
X0008544Y0101832D01*
X0010288Y0100088D01*
X0012567Y0099144D01*
X0021033Y0099144D01*
X0021069Y0099159D01*
X0022950Y0097277D01*
X0022950Y0093389D01*
X0023176Y0092844D01*
X0022950Y0092300D01*
X0022950Y0090750D01*
X0021033Y0091544D01*
X0012567Y0091544D01*
X0010288Y0090601D01*
X0008544Y0088856D01*
X0007600Y0086578D01*
X0007600Y0084111D01*
X0008544Y0081832D01*
X0010288Y0080088D01*
X0012567Y0079144D01*
X0013603Y0079144D01*
X0014534Y0078213D01*
X0014534Y0078213D01*
X0022275Y0070473D01*
X0022342Y0070339D01*
X0022834Y0069913D01*
X0022950Y0069797D01*
X0022950Y0068409D01*
X0023438Y0067233D01*
X0024338Y0066332D01*
X0025514Y0065845D01*
X0028142Y0065845D01*
X0029144Y0064844D01*
X0023014Y0064844D01*
X0021838Y0064357D01*
X0021800Y0064319D01*
X0021776Y0064342D01*
X0021781Y0064354D01*
X0021781Y0066335D01*
X0021023Y0068166D01*
X0019622Y0069567D01*
X0017791Y0070326D01*
X0015809Y0070326D01*
X0013978Y0069567D01*
X0012577Y0068166D01*
X0011819Y0066335D01*
X0011819Y0064354D01*
X0011824Y0064342D01*
X0010938Y0063456D01*
X0010450Y0062280D01*
X0010450Y0055889D01*
X0010676Y0055344D01*
X0010450Y0054800D01*
X0010450Y0048409D01*
X0010938Y0047233D01*
X0011238Y0046932D01*
X0011238Y0041480D01*
X0011725Y0040303D01*
X0012625Y0039403D01*
X0013801Y0038916D01*
X0019799Y0038916D01*
X0020975Y0039403D01*
X0021800Y0040228D01*
X0022625Y0039403D01*
X0023801Y0038916D01*
X0029604Y0038916D01*
X0029604Y0036558D01*
X0030091Y0035382D01*
X0030991Y0034482D01*
X0032167Y0033995D01*
X0032800Y0033995D01*
X0032800Y0032049D01*
X0033409Y0030579D01*
X0034534Y0029453D01*
X0037034Y0026953D01*
X0038504Y0026344D01*
X0040713Y0026344D01*
X0040713Y0019915D01*
X0040335Y0019915D01*
X0038865Y0019306D01*
X0037740Y0018181D01*
X0037131Y0016711D01*
X0037131Y0006044D01*
X0005000Y0006044D01*
X0005000Y0186488D01*
X0006143Y0185344D01*
X0005909Y0185110D01*
X0005300Y0183640D01*
X0005300Y0139549D01*
X0005909Y0138079D01*
X0007034Y0136953D01*
X0012034Y0131953D01*
X0013504Y0131344D01*
X0026959Y0131344D01*
X0027276Y0130579D01*
X0028176Y0129679D01*
X0029352Y0129192D01*
X0033438Y0129192D01*
X0039551Y0123079D01*
X0040676Y0121953D01*
X0042146Y0121344D01*
X0054323Y0121344D01*
X0054319Y0121335D01*
X0054319Y0119354D01*
X0055077Y0117523D01*
X0056478Y0116122D01*
X0058309Y0115363D01*
X0057359Y0114622D02*
X0055374Y0115444D01*
X0053226Y0115444D01*
X0051241Y0114622D01*
X0049722Y0113103D01*
X0048900Y0111119D01*
X0048900Y0104570D01*
X0049722Y0102586D01*
X0051241Y0101067D01*
X0053226Y0100244D01*
X0055374Y0100244D01*
X0057359Y0101067D01*
X0058878Y0102586D01*
X0059700Y0104570D01*
X0059700Y0111119D01*
X0058878Y0113103D01*
X0057359Y0114622D01*
X0057938Y0114043D02*
X0059944Y0114043D01*
X0060300Y0112445D02*
X0059151Y0112445D01*
X0059700Y0110846D02*
X0060300Y0110846D01*
X0060300Y0109248D02*
X0059700Y0109248D01*
X0059700Y0107649D02*
X0060300Y0107649D01*
X0060300Y0106051D02*
X0059700Y0106051D01*
X0059651Y0104452D02*
X0060300Y0104452D01*
X0060300Y0102854D02*
X0058989Y0102854D01*
X0060300Y0101255D02*
X0057547Y0101255D01*
X0060300Y0099657D02*
X0035650Y0099657D01*
X0034864Y0101255D02*
X0051053Y0101255D01*
X0049611Y0102854D02*
X0028688Y0102854D01*
X0027089Y0104452D02*
X0048949Y0104452D01*
X0048900Y0106051D02*
X0026000Y0106051D01*
X0025556Y0107649D02*
X0048900Y0107649D01*
X0048900Y0109248D02*
X0024665Y0109248D01*
X0022719Y0110846D02*
X0048900Y0110846D01*
X0049449Y0112445D02*
X0005000Y0112445D01*
X0005000Y0114043D02*
X0050662Y0114043D01*
X0054532Y0118839D02*
X0005000Y0118839D01*
X0005000Y0120437D02*
X0054319Y0120437D01*
X0055363Y0128907D02*
X0046800Y0128907D01*
X0039300Y0138907D01*
X0036800Y0152844D01*
X0036800Y0154799D01*
X0043426Y0161425D01*
X0041199Y0163652D02*
X0041143Y0163652D01*
X0018568Y0141077D01*
X0018311Y0146477D02*
X0015294Y0146477D01*
X0013309Y0145655D01*
X0013300Y0145646D01*
X0013300Y0156508D01*
X0013309Y0156499D01*
X0015294Y0155677D01*
X0021842Y0155677D01*
X0023827Y0156499D01*
X0024405Y0157077D01*
X0028911Y0157077D01*
X0018311Y0146477D01*
X0019446Y0147612D02*
X0013300Y0147612D01*
X0013300Y0149211D02*
X0021045Y0149211D01*
X0022643Y0150809D02*
X0013300Y0150809D01*
X0013300Y0152408D02*
X0024242Y0152408D01*
X0025840Y0154006D02*
X0013300Y0154006D01*
X0013300Y0155605D02*
X0027439Y0155605D01*
X0032358Y0149211D02*
X0037800Y0149211D01*
X0037800Y0150809D02*
X0033957Y0150809D01*
X0035555Y0152408D02*
X0037800Y0152408D01*
X0037800Y0154006D02*
X0037154Y0154006D01*
X0037800Y0154652D02*
X0037800Y0147049D01*
X0038409Y0145579D01*
X0041819Y0142169D01*
X0041819Y0141854D01*
X0042577Y0140023D01*
X0043978Y0138622D01*
X0044506Y0138403D01*
X0044506Y0131755D01*
X0044993Y0130579D01*
X0045893Y0129679D01*
X0046700Y0129344D01*
X0044599Y0129344D01*
X0039094Y0134849D01*
X0039094Y0138934D01*
X0038607Y0140110D01*
X0037707Y0141010D01*
X0036531Y0141497D01*
X0029352Y0141497D01*
X0028176Y0141010D01*
X0027276Y0140110D01*
X0026959Y0139344D01*
X0025895Y0139344D01*
X0026168Y0140003D01*
X0026168Y0142151D01*
X0025913Y0142765D01*
X0037800Y0154652D01*
X0041800Y0155344D02*
X0041800Y0147844D01*
X0046800Y0142844D01*
X0050658Y0138986D01*
X0050658Y0135344D01*
X0049300Y0132844D01*
X0045543Y0130028D02*
X0043915Y0130028D01*
X0044559Y0131627D02*
X0042316Y0131627D01*
X0040718Y0133225D02*
X0044506Y0133225D01*
X0044506Y0134824D02*
X0039119Y0134824D01*
X0039094Y0136422D02*
X0044506Y0136422D01*
X0044506Y0138021D02*
X0039094Y0138021D01*
X0038810Y0139619D02*
X0042981Y0139619D01*
X0042082Y0141218D02*
X0037205Y0141218D01*
X0039573Y0144415D02*
X0027563Y0144415D01*
X0029161Y0146013D02*
X0038229Y0146013D01*
X0037800Y0147612D02*
X0030760Y0147612D01*
X0028678Y0141218D02*
X0026168Y0141218D01*
X0026009Y0139619D02*
X0027073Y0139619D01*
X0025964Y0142816D02*
X0041171Y0142816D01*
X0051541Y0144415D02*
X0052269Y0144415D01*
X0052485Y0142816D02*
X0063287Y0142816D01*
X0065313Y0142816D02*
X0066140Y0142816D01*
X0064541Y0144415D02*
X0054070Y0144415D01*
X0056203Y0146013D02*
X0062942Y0146013D01*
X0061344Y0147612D02*
X0057802Y0147612D01*
X0056789Y0148062D02*
X0059300Y0145551D01*
X0059300Y0132844D01*
X0055363Y0128907D01*
X0064277Y0121344D02*
X0067030Y0121344D01*
X0067577Y0120023D01*
X0068978Y0118622D01*
X0070809Y0117863D01*
X0071124Y0117863D01*
X0073543Y0115444D01*
X0073226Y0115444D01*
X0071241Y0114622D01*
X0069722Y0113103D01*
X0068900Y0111119D01*
X0068900Y0104570D01*
X0069722Y0102586D01*
X0071241Y0101067D01*
X0073226Y0100244D01*
X0075374Y0100244D01*
X0077359Y0101067D01*
X0078878Y0102586D01*
X0079700Y0104570D01*
X0079700Y0109288D01*
X0082800Y0106188D01*
X0082800Y0099844D01*
X0075514Y0099844D01*
X0074338Y0099357D01*
X0074300Y0099319D01*
X0074262Y0099357D01*
X0073086Y0099844D01*
X0068300Y0099844D01*
X0068300Y0116140D01*
X0067691Y0117610D01*
X0064281Y0121020D01*
X0064281Y0121335D01*
X0064277Y0121344D01*
X0064864Y0120437D02*
X0067406Y0120437D01*
X0066463Y0118839D02*
X0068761Y0118839D01*
X0067844Y0117240D02*
X0071747Y0117240D01*
X0073346Y0115642D02*
X0068300Y0115642D01*
X0068300Y0114043D02*
X0070662Y0114043D01*
X0069449Y0112445D02*
X0068300Y0112445D01*
X0068300Y0110846D02*
X0068900Y0110846D01*
X0068900Y0109248D02*
X0068300Y0109248D01*
X0068300Y0107649D02*
X0068900Y0107649D01*
X0068900Y0106051D02*
X0068300Y0106051D01*
X0068300Y0104452D02*
X0068949Y0104452D01*
X0068300Y0102854D02*
X0069611Y0102854D01*
X0068300Y0101255D02*
X0071053Y0101255D01*
X0073538Y0099657D02*
X0075062Y0099657D01*
X0077547Y0101255D02*
X0082800Y0101255D01*
X0082800Y0102854D02*
X0078989Y0102854D01*
X0079651Y0104452D02*
X0082800Y0104452D01*
X0082800Y0106051D02*
X0079700Y0106051D01*
X0079700Y0107649D02*
X0081338Y0107649D01*
X0079740Y0109248D02*
X0079700Y0109248D01*
X0099300Y0117844D02*
X0106800Y0110344D01*
X0106800Y0062844D01*
X0119300Y0050344D01*
X0114671Y0048504D02*
X0109297Y0048504D01*
X0110896Y0046906D02*
X0115694Y0046906D01*
X0115077Y0047523D02*
X0116478Y0046122D01*
X0118309Y0045363D01*
X0120291Y0045363D01*
X0120613Y0045497D01*
X0120938Y0044713D01*
X0121838Y0043813D01*
X0123014Y0043326D01*
X0130586Y0043326D01*
X0131096Y0043537D01*
X0131096Y0042267D01*
X0131583Y0041091D01*
X0132127Y0040547D01*
X0131591Y0040326D01*
X0130809Y0040326D01*
X0128978Y0039567D01*
X0127577Y0038166D01*
X0126819Y0036335D01*
X0126819Y0034354D01*
X0127577Y0032523D01*
X0128978Y0031122D01*
X0130809Y0030363D01*
X0132791Y0030363D01*
X0134622Y0031122D01*
X0135723Y0032223D01*
X0139657Y0032223D01*
X0140833Y0032710D01*
X0140865Y0032743D01*
X0142165Y0032204D01*
X0147817Y0032204D01*
X0147863Y0032223D01*
X0149940Y0032223D01*
X0151117Y0032710D01*
X0152017Y0033611D01*
X0152504Y0034787D01*
X0152504Y0038422D01*
X0152130Y0039326D01*
X0152567Y0039144D01*
X0161033Y0039144D01*
X0162000Y0039545D01*
X0162000Y0036773D01*
X0161819Y0036335D01*
X0161819Y0034354D01*
X0162000Y0033916D01*
X0162000Y0031772D01*
X0161819Y0031335D01*
X0161819Y0029354D01*
X0161823Y0029344D01*
X0134844Y0029344D01*
X0134622Y0029567D01*
X0132791Y0030326D01*
X0130809Y0030326D01*
X0128978Y0029567D01*
X0128756Y0029344D01*
X0128457Y0029344D01*
X0105800Y0052001D01*
X0105800Y0058188D01*
X0114319Y0049669D01*
X0114319Y0049354D01*
X0115077Y0047523D01*
X0113885Y0050103D02*
X0107699Y0050103D01*
X0106100Y0051701D02*
X0112286Y0051701D01*
X0110688Y0053300D02*
X0105800Y0053300D01*
X0105800Y0054898D02*
X0109089Y0054898D01*
X0107491Y0056497D02*
X0105800Y0056497D01*
X0105800Y0058095D02*
X0105892Y0058095D01*
X0111800Y0065344D02*
X0126800Y0050344D01*
X0126800Y0049085D01*
X0128060Y0050344D01*
X0135560Y0050344D01*
X0131161Y0042110D02*
X0115691Y0042110D01*
X0117290Y0040512D02*
X0132041Y0040512D01*
X0133060Y0036604D02*
X0131800Y0035344D01*
X0133060Y0036604D02*
X0136658Y0036604D01*
X0134136Y0030921D02*
X0161819Y0030921D01*
X0162000Y0032519D02*
X0150655Y0032519D01*
X0152227Y0034118D02*
X0161917Y0034118D01*
X0161819Y0035716D02*
X0152504Y0035716D01*
X0152504Y0037315D02*
X0162000Y0037315D01*
X0162000Y0038913D02*
X0152300Y0038913D01*
X0151800Y0040344D02*
X0156800Y0035344D01*
X0151800Y0030344D01*
X0129300Y0030344D01*
X0126800Y0032844D01*
X0126800Y0041604D01*
X0128324Y0038913D02*
X0118888Y0038913D01*
X0120487Y0037315D02*
X0127225Y0037315D01*
X0126819Y0035716D02*
X0122085Y0035716D01*
X0123684Y0034118D02*
X0126917Y0034118D01*
X0127581Y0032519D02*
X0125282Y0032519D01*
X0126881Y0030921D02*
X0129464Y0030921D01*
X0140371Y0032519D02*
X0141405Y0032519D01*
X0146942Y0040344D02*
X0151800Y0040344D01*
X0156800Y0055344D02*
X0154300Y0057844D01*
X0126800Y0057844D01*
X0116800Y0067844D01*
X0116800Y0107844D01*
X0109300Y0115344D01*
X0109300Y0147844D01*
X0091800Y0165344D01*
X0089300Y0165344D01*
X0086855Y0167790D01*
X0086855Y0168106D01*
X0084628Y0165879D02*
X0079300Y0171207D01*
X0079300Y0175344D01*
X0072346Y0182299D01*
X0059846Y0182299D01*
X0066096Y0188549D01*
X0073492Y0195945D01*
X0071265Y0198172D02*
X0086800Y0213707D01*
X0086800Y0217844D01*
X0082113Y0219545D02*
X0079157Y0219545D01*
X0077559Y0217946D02*
X0081819Y0217946D01*
X0081819Y0218835D02*
X0081819Y0216854D01*
X0082543Y0215107D01*
X0072787Y0205351D01*
X0072308Y0205831D01*
X0070016Y0208123D01*
X0069439Y0208362D01*
X0066809Y0210992D01*
X0067122Y0211122D01*
X0067344Y0211344D01*
X0070096Y0211344D01*
X0071566Y0211953D01*
X0087476Y0227863D01*
X0087791Y0227863D01*
X0087800Y0227867D01*
X0087800Y0222822D01*
X0087791Y0222826D01*
X0085809Y0222826D01*
X0083978Y0222067D01*
X0082577Y0220666D01*
X0081819Y0218835D01*
X0082028Y0216348D02*
X0075960Y0216348D01*
X0074362Y0214749D02*
X0082185Y0214749D01*
X0080587Y0213151D02*
X0072763Y0213151D01*
X0070598Y0211552D02*
X0078988Y0211552D01*
X0077390Y0209954D02*
X0067847Y0209954D01*
X0069455Y0208355D02*
X0075791Y0208355D01*
X0074193Y0206757D02*
X0071382Y0206757D01*
X0066811Y0205334D02*
X0066811Y0202627D01*
X0066811Y0202834D01*
X0066811Y0205334D02*
X0046800Y0225344D01*
X0021800Y0225344D01*
X0014300Y0217844D01*
X0020500Y0217946D02*
X0048541Y0217946D01*
X0046943Y0219545D02*
X0021657Y0219545D01*
X0023256Y0221144D02*
X0045344Y0221144D01*
X0042306Y0216348D02*
X0020500Y0216348D01*
X0019300Y0230344D02*
X0044300Y0230344D01*
X0049300Y0235344D01*
X0044300Y0240344D02*
X0039300Y0235344D01*
X0044300Y0240344D02*
X0044300Y0251604D01*
X0034300Y0250344D02*
X0025560Y0241604D01*
X0024300Y0241604D01*
X0024300Y0249085D02*
X0024300Y0256211D01*
X0019946Y0261106D02*
X0018654Y0261106D01*
X0014300Y0256211D02*
X0014300Y0249085D01*
X0014300Y0241604D02*
X0014300Y0235344D01*
X0019300Y0230344D01*
X0006800Y0202844D02*
X0006800Y0190344D01*
X0009300Y0187844D01*
X0014300Y0187844D01*
X0014843Y0181644D02*
X0019534Y0176953D01*
X0021004Y0176344D01*
X0026823Y0176344D01*
X0026819Y0176335D01*
X0026819Y0174354D01*
X0027577Y0172523D01*
X0028978Y0171122D01*
X0029269Y0171002D01*
X0029021Y0170754D01*
X0028534Y0169578D01*
X0028534Y0168305D01*
X0029021Y0167129D01*
X0031073Y0165077D01*
X0024405Y0165077D01*
X0023827Y0165655D01*
X0021842Y0166477D01*
X0015294Y0166477D01*
X0013309Y0165655D01*
X0013300Y0165646D01*
X0013300Y0181188D01*
X0013757Y0181644D01*
X0014843Y0181644D01*
X0015307Y0181181D02*
X0013300Y0181181D01*
X0013300Y0179582D02*
X0016905Y0179582D01*
X0018504Y0177984D02*
X0013300Y0177984D01*
X0013300Y0176385D02*
X0020906Y0176385D01*
X0021800Y0180344D02*
X0026800Y0180344D01*
X0034300Y0187844D01*
X0035937Y0187844D01*
X0038972Y0184810D01*
X0043437Y0180344D01*
X0057892Y0180344D01*
X0059846Y0182299D01*
X0057580Y0185690D02*
X0056455Y0184565D01*
X0056455Y0184564D01*
X0056235Y0184344D01*
X0047208Y0184344D01*
X0048923Y0186059D01*
X0048923Y0186059D01*
X0051085Y0188221D01*
X0051085Y0188221D01*
X0053377Y0190514D01*
X0055604Y0192741D01*
X0057766Y0194903D01*
X0057766Y0194903D01*
X0060059Y0197195D01*
X0061800Y0198936D01*
X0063606Y0197130D01*
X0065833Y0194903D01*
X0065834Y0194903D01*
X0066313Y0194423D01*
X0062705Y0190815D01*
X0062705Y0190814D01*
X0057580Y0185690D01*
X0057580Y0185690D01*
X0057867Y0185976D02*
X0048840Y0185976D01*
X0047241Y0184378D02*
X0056268Y0184378D01*
X0059465Y0187575D02*
X0050439Y0187575D01*
X0052037Y0189173D02*
X0061064Y0189173D01*
X0062662Y0190772D02*
X0053636Y0190772D01*
X0055234Y0192370D02*
X0064261Y0192370D01*
X0065859Y0193969D02*
X0056833Y0193969D01*
X0055604Y0192741D02*
X0055604Y0192741D01*
X0058431Y0195567D02*
X0065169Y0195567D01*
X0063570Y0197166D02*
X0060030Y0197166D01*
X0061628Y0198764D02*
X0061972Y0198764D01*
X0056789Y0202627D02*
X0056789Y0210355D01*
X0054300Y0212844D01*
X0044300Y0212844D01*
X0031800Y0200344D01*
X0035800Y0198688D02*
X0035800Y0194549D01*
X0035191Y0193079D01*
X0033957Y0191844D01*
X0036733Y0191844D01*
X0037534Y0191513D01*
X0037930Y0192468D01*
X0040157Y0194696D01*
X0040825Y0195363D01*
X0040809Y0195363D01*
X0038978Y0196122D01*
X0037577Y0197523D01*
X0036819Y0199354D01*
X0036819Y0199707D01*
X0035800Y0198688D01*
X0035877Y0198764D02*
X0037063Y0198764D01*
X0037934Y0197166D02*
X0035800Y0197166D01*
X0035800Y0195567D02*
X0040317Y0195567D01*
X0040157Y0194696D02*
X0040157Y0194696D01*
X0039430Y0193969D02*
X0035560Y0193969D01*
X0036800Y0192844D02*
X0036800Y0191436D01*
X0041199Y0187037D01*
X0037889Y0192370D02*
X0034483Y0192370D01*
X0041800Y0200344D02*
X0045708Y0200344D01*
X0050108Y0195945D01*
X0052335Y0198172D02*
X0045163Y0205344D01*
X0044300Y0205344D01*
X0049617Y0205344D02*
X0054562Y0200399D01*
X0054245Y0200399D01*
X0049617Y0205344D02*
X0049300Y0207844D01*
X0056800Y0222844D02*
X0059300Y0225344D01*
X0064300Y0225344D01*
X0076800Y0237844D01*
X0084300Y0237844D02*
X0066800Y0220344D01*
X0061800Y0220344D01*
X0064300Y0215344D02*
X0069300Y0215344D01*
X0086800Y0232844D01*
X0087150Y0227538D02*
X0087800Y0227538D01*
X0087800Y0225939D02*
X0085551Y0225939D01*
X0083953Y0224341D02*
X0087800Y0224341D01*
X0085607Y0222742D02*
X0082354Y0222742D01*
X0083055Y0221144D02*
X0080756Y0221144D01*
X0086800Y0202844D02*
X0086800Y0200344D01*
X0077947Y0191491D01*
X0080174Y0189264D02*
X0093754Y0202844D01*
X0104300Y0202844D01*
X0109300Y0207844D01*
X0109300Y0214104D01*
X0110540Y0215344D01*
X0114300Y0215344D01*
X0119300Y0220344D01*
X0119300Y0219104D01*
X0119300Y0212844D02*
X0124300Y0212844D01*
X0136800Y0225344D01*
X0143040Y0225344D01*
X0144300Y0224085D01*
X0143879Y0229844D02*
X0140514Y0229844D01*
X0139338Y0229357D01*
X0139326Y0229344D01*
X0136004Y0229344D01*
X0134534Y0228736D01*
X0125650Y0219851D01*
X0125650Y0222300D01*
X0125424Y0222844D01*
X0125650Y0223389D01*
X0125650Y0227926D01*
X0125800Y0228289D01*
X0125800Y0229800D01*
X0126023Y0230023D01*
X0126781Y0231854D01*
X0126781Y0233835D01*
X0126023Y0235666D01*
X0124622Y0237067D01*
X0122791Y0237826D01*
X0120809Y0237826D01*
X0119322Y0237209D01*
X0121566Y0239453D01*
X0122691Y0240579D01*
X0123300Y0242049D01*
X0123300Y0243326D01*
X0130586Y0243326D01*
X0131096Y0243537D01*
X0131096Y0242267D01*
X0131583Y0241091D01*
X0132127Y0240547D01*
X0131591Y0240326D01*
X0130809Y0240326D01*
X0128978Y0239567D01*
X0127577Y0238166D01*
X0126819Y0236335D01*
X0126819Y0234354D01*
X0127577Y0232523D01*
X0128978Y0231122D01*
X0130809Y0230363D01*
X0132791Y0230363D01*
X0134622Y0231122D01*
X0135723Y0232223D01*
X0139657Y0232223D01*
X0140833Y0232710D01*
X0141172Y0233049D01*
X0142245Y0232604D01*
X0143023Y0232604D01*
X0143943Y0232223D01*
X0149940Y0232223D01*
X0151117Y0232710D01*
X0152017Y0233611D01*
X0152504Y0234787D01*
X0152504Y0238422D01*
X0152130Y0239326D01*
X0152567Y0239144D01*
X0161033Y0239144D01*
X0162860Y0239901D01*
X0162860Y0230788D01*
X0161033Y0231544D01*
X0152567Y0231544D01*
X0150288Y0230601D01*
X0149832Y0230144D01*
X0144605Y0230144D01*
X0143879Y0229844D01*
X0143678Y0232333D02*
X0139922Y0232333D01*
X0143040Y0236604D02*
X0141800Y0237844D01*
X0141800Y0242844D01*
X0141800Y0249104D01*
X0143040Y0250344D01*
X0140560Y0244085D02*
X0136658Y0244085D01*
X0140560Y0244085D02*
X0141800Y0242844D01*
X0143040Y0236604D02*
X0146942Y0236604D01*
X0150206Y0232333D02*
X0162860Y0232333D01*
X0162860Y0233932D02*
X0152150Y0233932D01*
X0152504Y0235530D02*
X0162860Y0235530D01*
X0162860Y0237129D02*
X0152504Y0237129D01*
X0152378Y0238727D02*
X0162860Y0238727D01*
X0156800Y0235344D02*
X0151800Y0230344D01*
X0129300Y0230344D01*
X0126800Y0232844D01*
X0126800Y0241604D01*
X0123060Y0241604D01*
X0109300Y0227844D01*
X0109300Y0221585D01*
X0105800Y0221144D02*
X0112950Y0221144D01*
X0112950Y0222300D02*
X0112950Y0219863D01*
X0105800Y0219863D01*
X0105800Y0223688D01*
X0117435Y0235323D01*
X0116819Y0233835D01*
X0116819Y0232344D01*
X0115514Y0232344D01*
X0114338Y0231857D01*
X0113438Y0230956D01*
X0112950Y0229780D01*
X0112950Y0223389D01*
X0113176Y0222844D01*
X0112950Y0222300D01*
X0113134Y0222742D02*
X0105800Y0222742D01*
X0106453Y0224341D02*
X0112950Y0224341D01*
X0112950Y0225939D02*
X0108051Y0225939D01*
X0109650Y0227538D02*
X0112950Y0227538D01*
X0112950Y0229136D02*
X0111248Y0229136D01*
X0112847Y0230735D02*
X0113346Y0230735D01*
X0114445Y0232333D02*
X0115488Y0232333D01*
X0116044Y0233932D02*
X0116859Y0233932D01*
X0121800Y0232844D02*
X0121800Y0229085D01*
X0119300Y0226585D01*
X0125650Y0225939D02*
X0131738Y0225939D01*
X0133336Y0227538D02*
X0125650Y0227538D01*
X0125800Y0229136D02*
X0135501Y0229136D01*
X0133687Y0230735D02*
X0150612Y0230735D01*
X0148373Y0218445D02*
X0147600Y0216578D01*
X0147600Y0214111D01*
X0148539Y0211844D01*
X0128957Y0211844D01*
X0137965Y0220853D01*
X0138438Y0219713D01*
X0139338Y0218813D01*
X0140514Y0218326D01*
X0148086Y0218326D01*
X0148373Y0218445D01*
X0148167Y0217946D02*
X0135059Y0217946D01*
X0133460Y0216348D02*
X0147600Y0216348D01*
X0147600Y0214749D02*
X0131862Y0214749D01*
X0130263Y0213151D02*
X0147998Y0213151D01*
X0154300Y0207844D02*
X0121800Y0207844D01*
X0111800Y0197844D01*
X0093208Y0197844D01*
X0082401Y0187037D01*
X0084628Y0184810D02*
X0092663Y0192844D01*
X0099300Y0192844D01*
X0104300Y0187844D01*
X0104300Y0162844D01*
X0109300Y0157844D01*
X0154300Y0157844D01*
X0156800Y0155344D01*
X0148539Y0161844D02*
X0126777Y0161844D01*
X0126781Y0161854D01*
X0126781Y0162169D01*
X0133457Y0168844D01*
X0139306Y0168844D01*
X0139338Y0168813D01*
X0140514Y0168326D01*
X0148086Y0168326D01*
X0148373Y0168445D01*
X0147600Y0166578D01*
X0147600Y0164111D01*
X0148539Y0161844D01*
X0148475Y0161999D02*
X0126781Y0161999D01*
X0128209Y0163597D02*
X0147813Y0163597D01*
X0147600Y0165196D02*
X0129808Y0165196D01*
X0131406Y0166794D02*
X0147690Y0166794D01*
X0148248Y0168393D02*
X0148352Y0168393D01*
X0144300Y0172844D02*
X0146800Y0175344D01*
X0144300Y0172844D02*
X0131800Y0172844D01*
X0121800Y0162844D01*
X0121781Y0168482D02*
X0121781Y0168835D01*
X0121023Y0170666D01*
X0120800Y0170889D01*
X0120800Y0184800D01*
X0121023Y0185023D01*
X0121781Y0186854D01*
X0121781Y0188835D01*
X0121023Y0190666D01*
X0119622Y0192067D01*
X0119309Y0192197D01*
X0120957Y0193844D01*
X0121806Y0193844D01*
X0121838Y0193813D01*
X0123014Y0193326D01*
X0130586Y0193326D01*
X0131096Y0193537D01*
X0131096Y0192267D01*
X0131583Y0191091D01*
X0132127Y0190547D01*
X0131591Y0190326D01*
X0130809Y0190326D01*
X0128978Y0189567D01*
X0127577Y0188166D01*
X0126819Y0186335D01*
X0126819Y0184354D01*
X0127577Y0182523D01*
X0128978Y0181122D01*
X0130809Y0180363D01*
X0132791Y0180363D01*
X0134622Y0181122D01*
X0135723Y0182223D01*
X0139657Y0182223D01*
X0140833Y0182710D01*
X0141172Y0183049D01*
X0142245Y0182604D01*
X0143023Y0182604D01*
X0143943Y0182223D01*
X0149940Y0182223D01*
X0151117Y0182710D01*
X0152017Y0183611D01*
X0152504Y0184787D01*
X0152504Y0188422D01*
X0152130Y0189326D01*
X0152567Y0189144D01*
X0161033Y0189144D01*
X0162860Y0189901D01*
X0162860Y0180788D01*
X0161033Y0181544D01*
X0152567Y0181544D01*
X0150288Y0180601D01*
X0149832Y0180144D01*
X0144605Y0180144D01*
X0143879Y0179844D01*
X0140514Y0179844D01*
X0139338Y0179357D01*
X0138438Y0178456D01*
X0137950Y0177280D01*
X0137950Y0176844D01*
X0131004Y0176844D01*
X0129534Y0176236D01*
X0128409Y0175110D01*
X0121781Y0168482D01*
X0121302Y0169991D02*
X0123290Y0169991D01*
X0124888Y0171590D02*
X0120800Y0171590D01*
X0120800Y0173188D02*
X0126487Y0173188D01*
X0128085Y0174787D02*
X0120800Y0174787D01*
X0120800Y0176385D02*
X0129896Y0176385D01*
X0129300Y0180344D02*
X0151800Y0180344D01*
X0156800Y0185344D01*
X0151800Y0190344D01*
X0146942Y0190344D01*
X0146942Y0186604D02*
X0143040Y0186604D01*
X0141800Y0187844D01*
X0141800Y0190344D01*
X0141800Y0192844D01*
X0141800Y0199104D01*
X0143040Y0200344D01*
X0140560Y0194085D02*
X0136658Y0194085D01*
X0131902Y0190772D02*
X0120917Y0190772D01*
X0121641Y0189173D02*
X0128584Y0189173D01*
X0127332Y0187575D02*
X0121781Y0187575D01*
X0121418Y0185976D02*
X0126819Y0185976D01*
X0126819Y0184378D02*
X0120800Y0184378D01*
X0120800Y0182779D02*
X0127471Y0182779D01*
X0126800Y0182844D02*
X0129300Y0180344D01*
X0128919Y0181181D02*
X0120800Y0181181D01*
X0120800Y0179582D02*
X0139883Y0179582D01*
X0138242Y0177984D02*
X0120800Y0177984D01*
X0126800Y0182844D02*
X0126800Y0191604D01*
X0131096Y0192370D02*
X0119483Y0192370D01*
X0116800Y0187844D02*
X0116800Y0167844D01*
X0111800Y0162844D02*
X0111800Y0190344D01*
X0119300Y0197844D01*
X0125560Y0197844D01*
X0126800Y0199085D01*
X0128060Y0200344D01*
X0135560Y0200344D01*
X0140560Y0194085D02*
X0141800Y0192844D01*
X0136658Y0186604D02*
X0133060Y0186604D01*
X0131800Y0185344D01*
X0134681Y0181181D02*
X0151689Y0181181D01*
X0151185Y0182779D02*
X0162860Y0182779D01*
X0162860Y0181181D02*
X0161911Y0181181D01*
X0162860Y0184378D02*
X0152335Y0184378D01*
X0152504Y0185976D02*
X0162860Y0185976D01*
X0162860Y0187575D02*
X0152504Y0187575D01*
X0152497Y0189173D02*
X0152193Y0189173D01*
X0161103Y0189173D02*
X0162860Y0189173D01*
X0156800Y0205344D02*
X0154300Y0207844D01*
X0138605Y0219545D02*
X0136657Y0219545D01*
X0130139Y0224341D02*
X0125650Y0224341D01*
X0125466Y0222742D02*
X0128541Y0222742D01*
X0126942Y0221144D02*
X0125650Y0221144D01*
X0126318Y0230735D02*
X0129913Y0230735D01*
X0127767Y0232333D02*
X0126781Y0232333D01*
X0126741Y0233932D02*
X0126994Y0233932D01*
X0126819Y0235530D02*
X0126079Y0235530D01*
X0127148Y0237129D02*
X0124473Y0237129D01*
X0122438Y0240326D02*
X0131591Y0240326D01*
X0131238Y0241924D02*
X0123248Y0241924D01*
X0120840Y0238727D02*
X0128138Y0238727D01*
X0131062Y0243523D02*
X0131096Y0243523D01*
X0125560Y0247844D02*
X0126800Y0249085D01*
X0128060Y0250344D01*
X0135560Y0250344D01*
X0125560Y0247844D02*
X0121800Y0247844D01*
X0119300Y0245344D01*
X0119300Y0242844D01*
X0101800Y0225344D01*
X0101800Y0207844D01*
X0116800Y0210344D02*
X0119300Y0212844D01*
X0131800Y0235344D02*
X0133060Y0236604D01*
X0136658Y0236604D01*
X0116800Y0250344D02*
X0124300Y0257844D01*
X0154300Y0257844D01*
X0156800Y0255344D01*
X0121800Y0265344D02*
X0109300Y0252844D01*
X0099300Y0252844D01*
X0096800Y0257844D02*
X0106800Y0257844D01*
X0111800Y0262844D01*
X0111800Y0269104D01*
X0121800Y0269104D02*
X0121800Y0265344D01*
X0116800Y0250344D02*
X0116800Y0247844D01*
X0101800Y0232844D01*
X0096800Y0245344D02*
X0087863Y0254281D01*
X0074300Y0254281D01*
X0077634Y0259508D02*
X0086819Y0259508D01*
X0086819Y0261106D02*
X0078809Y0261106D01*
X0078996Y0262705D02*
X0087386Y0262705D01*
X0088715Y0264303D02*
X0078996Y0264303D01*
X0078996Y0265902D02*
X0092941Y0265902D01*
X0094539Y0267500D02*
X0078996Y0267500D01*
X0078996Y0269099D02*
X0095450Y0269099D01*
X0095450Y0270697D02*
X0078300Y0270697D01*
X0077821Y0272296D02*
X0095450Y0272296D01*
X0095450Y0273894D02*
X0076407Y0273894D01*
X0074808Y0275493D02*
X0095450Y0275493D01*
X0095450Y0277091D02*
X0073210Y0277091D01*
X0071611Y0278690D02*
X0095450Y0278690D01*
X0095661Y0280288D02*
X0067887Y0280288D01*
X0067887Y0281887D02*
X0096911Y0281887D01*
X0097400Y0283485D02*
X0067887Y0283485D01*
X0067887Y0285084D02*
X0097606Y0285084D01*
X0098549Y0286682D02*
X0070035Y0286682D01*
X0071181Y0288281D02*
X0098738Y0288281D01*
X0099015Y0289880D02*
X0071469Y0289880D01*
X0071469Y0291478D02*
X0100590Y0291478D01*
X0104300Y0294478D02*
X0093434Y0294478D01*
X0089300Y0290344D01*
X0104300Y0294478D02*
X0111800Y0294478D01*
X0119300Y0294478D01*
X0115590Y0291478D02*
X0115510Y0291478D01*
X0108090Y0291478D02*
X0108010Y0291478D01*
X0101800Y0269104D02*
X0093040Y0260344D01*
X0091800Y0260344D01*
X0074300Y0265344D02*
X0074300Y0270344D01*
X0069300Y0275344D01*
X0063887Y0286682D02*
X0058217Y0286682D01*
X0058217Y0288281D02*
X0063887Y0288281D01*
X0062430Y0291478D02*
X0067469Y0291478D01*
X0067469Y0289880D02*
X0058217Y0289880D01*
X0062430Y0293077D02*
X0067469Y0293077D01*
X0067469Y0294675D02*
X0062430Y0294675D01*
X0062430Y0296274D02*
X0067469Y0296274D01*
X0067469Y0297872D02*
X0062430Y0297872D01*
X0071469Y0299471D02*
X0242301Y0299471D01*
X0242301Y0297872D02*
X0204929Y0297872D01*
X0206528Y0296274D02*
X0242301Y0296274D01*
X0242301Y0294675D02*
X0240343Y0294675D01*
X0205540Y0291604D02*
X0205540Y0289675D01*
X0205540Y0291604D02*
X0201800Y0295344D01*
X0200920Y0225939D02*
X0197680Y0225939D01*
X0197679Y0214749D02*
X0200921Y0214749D01*
X0200957Y0185976D02*
X0197643Y0185976D01*
X0197716Y0174787D02*
X0200883Y0174787D01*
X0202045Y0158802D02*
X0220858Y0158802D01*
X0220858Y0157203D02*
X0199977Y0157203D01*
X0200995Y0146013D02*
X0197605Y0146013D01*
X0197754Y0134824D02*
X0200846Y0134824D01*
X0198740Y0133225D02*
X0220858Y0133225D01*
X0220858Y0131627D02*
X0199587Y0131627D01*
X0199587Y0130028D02*
X0200092Y0130028D01*
X0201032Y0106051D02*
X0197568Y0106051D01*
X0197791Y0094861D02*
X0200809Y0094861D01*
X0202120Y0078876D02*
X0220858Y0078876D01*
X0220858Y0077277D02*
X0200157Y0077277D01*
X0222883Y0055944D02*
X0223300Y0054937D01*
X0223300Y0045752D01*
X0222310Y0043363D01*
X0221600Y0042652D01*
X0221600Y0037333D01*
X0222813Y0036119D01*
X0225011Y0036119D01*
X0226187Y0035632D01*
X0227088Y0034732D01*
X0227575Y0033556D01*
X0227575Y0027133D01*
X0227088Y0025957D01*
X0226187Y0025057D01*
X0225011Y0024570D01*
X0218589Y0024570D01*
X0217413Y0025057D01*
X0216781Y0025688D01*
X0216781Y0024354D01*
X0216023Y0022523D01*
X0214622Y0021122D01*
X0212791Y0020363D01*
X0210809Y0020363D01*
X0210798Y0020368D01*
X0209912Y0019482D01*
X0208736Y0018995D01*
X0203819Y0018995D01*
X0203819Y0012244D01*
X0229977Y0012244D01*
X0237400Y0019667D01*
X0237400Y0043579D01*
X0237310Y0043363D01*
X0235482Y0041534D01*
X0233093Y0040544D01*
X0230507Y0040544D01*
X0228118Y0041534D01*
X0226290Y0043363D01*
X0225300Y0045752D01*
X0225300Y0055944D01*
X0222883Y0055944D01*
X0223300Y0054898D02*
X0225300Y0054898D01*
X0225300Y0053300D02*
X0223300Y0053300D01*
X0223300Y0051701D02*
X0225300Y0051701D01*
X0225300Y0050103D02*
X0223300Y0050103D01*
X0223300Y0048504D02*
X0225300Y0048504D01*
X0225300Y0046906D02*
X0223300Y0046906D01*
X0223116Y0045307D02*
X0225484Y0045307D01*
X0226146Y0043709D02*
X0222454Y0043709D01*
X0221600Y0042110D02*
X0227542Y0042110D01*
X0221600Y0040512D02*
X0237400Y0040512D01*
X0237400Y0042110D02*
X0236058Y0042110D01*
X0237400Y0038913D02*
X0221600Y0038913D01*
X0221618Y0037315D02*
X0237400Y0037315D01*
X0237400Y0035716D02*
X0225984Y0035716D01*
X0227342Y0034118D02*
X0237400Y0034118D01*
X0237400Y0032519D02*
X0227575Y0032519D01*
X0227575Y0030921D02*
X0237400Y0030921D01*
X0237400Y0029322D02*
X0227575Y0029322D01*
X0227575Y0027724D02*
X0237400Y0027724D01*
X0237400Y0026125D02*
X0227157Y0026125D01*
X0235866Y0018133D02*
X0203819Y0018133D01*
X0203819Y0016534D02*
X0234267Y0016534D01*
X0232669Y0014936D02*
X0203819Y0014936D01*
X0203819Y0013337D02*
X0231070Y0013337D01*
X0237400Y0019731D02*
X0210161Y0019731D01*
X0214829Y0021330D02*
X0237400Y0021330D01*
X0237400Y0022928D02*
X0216191Y0022928D01*
X0216781Y0024527D02*
X0237400Y0024527D01*
X0216025Y0029322D02*
X0214867Y0029322D01*
X0214436Y0030921D02*
X0210198Y0030921D01*
X0172000Y0080244D02*
X0171800Y0080161D01*
X0170665Y0080631D01*
X0165455Y0080631D01*
X0164279Y0080144D01*
X0164024Y0079889D01*
X0163312Y0080601D01*
X0161033Y0081544D01*
X0152567Y0081544D01*
X0150288Y0080601D01*
X0149832Y0080144D01*
X0144605Y0080144D01*
X0143879Y0079844D01*
X0140514Y0079844D01*
X0139338Y0079357D01*
X0138438Y0078456D01*
X0137950Y0077280D01*
X0137950Y0076844D01*
X0128457Y0076844D01*
X0125800Y0079501D01*
X0125800Y0082300D01*
X0126023Y0082523D01*
X0126781Y0084354D01*
X0126781Y0086335D01*
X0126023Y0088166D01*
X0124622Y0089567D01*
X0122791Y0090326D01*
X0120809Y0090326D01*
X0120800Y0090322D01*
X0120800Y0095045D01*
X0120938Y0094713D01*
X0121838Y0093813D01*
X0123014Y0093326D01*
X0130586Y0093326D01*
X0131096Y0093537D01*
X0131096Y0092267D01*
X0131583Y0091091D01*
X0132127Y0090547D01*
X0131591Y0090326D01*
X0130809Y0090326D01*
X0128978Y0089567D01*
X0127577Y0088166D01*
X0126819Y0086335D01*
X0126819Y0084354D01*
X0127577Y0082523D01*
X0128978Y0081122D01*
X0130809Y0080363D01*
X0132791Y0080363D01*
X0134622Y0081122D01*
X0135723Y0082223D01*
X0139657Y0082223D01*
X0140833Y0082710D01*
X0141172Y0083049D01*
X0142245Y0082604D01*
X0143023Y0082604D01*
X0143943Y0082223D01*
X0149940Y0082223D01*
X0151117Y0082710D01*
X0152017Y0083611D01*
X0152504Y0084787D01*
X0152504Y0088422D01*
X0152130Y0089326D01*
X0152567Y0089144D01*
X0161033Y0089144D01*
X0163312Y0090088D01*
X0164680Y0091456D01*
X0165231Y0090126D01*
X0166581Y0088775D01*
X0171819Y0083537D01*
X0171819Y0081854D01*
X0172000Y0081416D01*
X0172000Y0080244D01*
X0172000Y0080475D02*
X0171043Y0080475D01*
X0171819Y0082073D02*
X0135573Y0082073D01*
X0133059Y0080475D02*
X0150162Y0080475D01*
X0151800Y0080344D02*
X0156800Y0085344D01*
X0151800Y0090344D01*
X0146942Y0090344D01*
X0146942Y0086604D02*
X0143040Y0086604D01*
X0141800Y0087844D01*
X0141800Y0090344D01*
X0141800Y0092844D01*
X0141800Y0099104D01*
X0143040Y0100344D01*
X0140560Y0094085D02*
X0136658Y0094085D01*
X0140560Y0094085D02*
X0141800Y0092844D01*
X0136658Y0086604D02*
X0133060Y0086604D01*
X0131800Y0085344D01*
X0130541Y0080475D02*
X0125800Y0080475D01*
X0125800Y0082073D02*
X0128027Y0082073D01*
X0126800Y0082844D02*
X0129300Y0080344D01*
X0151800Y0080344D01*
X0152042Y0083672D02*
X0171685Y0083672D01*
X0170086Y0085270D02*
X0152504Y0085270D01*
X0152504Y0086869D02*
X0168488Y0086869D01*
X0166889Y0088467D02*
X0152485Y0088467D01*
X0163257Y0090066D02*
X0165291Y0090066D01*
X0165077Y0080475D02*
X0163438Y0080475D01*
X0148373Y0068445D02*
X0147600Y0066578D01*
X0147600Y0064111D01*
X0148539Y0061844D01*
X0128457Y0061844D01*
X0120800Y0069501D01*
X0120800Y0073188D01*
X0124534Y0069453D01*
X0126004Y0068844D01*
X0139306Y0068844D01*
X0139338Y0068813D01*
X0140514Y0068326D01*
X0148086Y0068326D01*
X0148373Y0068445D01*
X0148059Y0067686D02*
X0122615Y0067686D01*
X0124213Y0066088D02*
X0147600Y0066088D01*
X0147600Y0064489D02*
X0125812Y0064489D01*
X0127410Y0062891D02*
X0148105Y0062891D01*
X0143060Y0072844D02*
X0126800Y0072844D01*
X0121800Y0077844D01*
X0121800Y0085344D01*
X0126781Y0085270D02*
X0126819Y0085270D01*
X0127040Y0086869D02*
X0126560Y0086869D01*
X0125722Y0088467D02*
X0127878Y0088467D01*
X0130182Y0090066D02*
X0123418Y0090066D01*
X0120800Y0091664D02*
X0131346Y0091664D01*
X0131096Y0093263D02*
X0120800Y0093263D01*
X0120800Y0094861D02*
X0120876Y0094861D01*
X0126800Y0091604D02*
X0126800Y0082844D01*
X0126499Y0083672D02*
X0127101Y0083672D01*
X0126425Y0078876D02*
X0138857Y0078876D01*
X0137950Y0077277D02*
X0128024Y0077277D01*
X0123104Y0070883D02*
X0120800Y0070883D01*
X0120800Y0072482D02*
X0121506Y0072482D01*
X0121016Y0069285D02*
X0124941Y0069285D01*
X0111800Y0065344D02*
X0111800Y0105344D01*
X0121800Y0105344D02*
X0121800Y0112844D01*
X0114300Y0120344D01*
X0114300Y0127844D02*
X0134300Y0107844D01*
X0154300Y0107844D01*
X0156800Y0105344D01*
X0148539Y0111844D02*
X0135957Y0111844D01*
X0127717Y0120085D01*
X0138284Y0120085D01*
X0138438Y0119713D01*
X0139338Y0118813D01*
X0140514Y0118326D01*
X0148086Y0118326D01*
X0148373Y0118445D01*
X0147600Y0116578D01*
X0147600Y0114111D01*
X0148539Y0111844D01*
X0148290Y0112445D02*
X0135357Y0112445D01*
X0133758Y0114043D02*
X0147628Y0114043D01*
X0147600Y0115642D02*
X0132160Y0115642D01*
X0130561Y0117240D02*
X0147874Y0117240D01*
X0144300Y0124085D02*
X0128060Y0124085D01*
X0119300Y0132844D01*
X0123872Y0134824D02*
X0126819Y0134824D01*
X0126819Y0134354D02*
X0126819Y0136335D01*
X0127577Y0138166D01*
X0128978Y0139567D01*
X0130809Y0140326D01*
X0131591Y0140326D01*
X0132127Y0140547D01*
X0131583Y0141091D01*
X0131096Y0142267D01*
X0131096Y0143537D01*
X0130586Y0143326D01*
X0123014Y0143326D01*
X0121838Y0143813D01*
X0120938Y0144713D01*
X0120784Y0145085D01*
X0119764Y0145085D01*
X0119091Y0145363D01*
X0118309Y0145363D01*
X0118300Y0145367D01*
X0118300Y0137822D01*
X0118309Y0137826D01*
X0120291Y0137826D01*
X0122122Y0137067D01*
X0123523Y0135666D01*
X0124281Y0133835D01*
X0124281Y0133520D01*
X0129717Y0128085D01*
X0138284Y0128085D01*
X0138438Y0128456D01*
X0139338Y0129357D01*
X0140514Y0129844D01*
X0143879Y0129844D01*
X0144605Y0130144D01*
X0149832Y0130144D01*
X0150288Y0130601D01*
X0152567Y0131544D01*
X0161033Y0131544D01*
X0162860Y0130788D01*
X0162860Y0139901D01*
X0161033Y0139144D01*
X0152567Y0139144D01*
X0152130Y0139326D01*
X0152504Y0138422D01*
X0152504Y0134787D01*
X0152017Y0133611D01*
X0151117Y0132710D01*
X0149940Y0132223D01*
X0143943Y0132223D01*
X0143023Y0132604D01*
X0142245Y0132604D01*
X0141171Y0133049D01*
X0140833Y0132710D01*
X0139657Y0132223D01*
X0135723Y0132223D01*
X0134622Y0131122D01*
X0132791Y0130363D01*
X0130809Y0130363D01*
X0128978Y0131122D01*
X0127577Y0132523D01*
X0126819Y0134354D01*
X0127286Y0133225D02*
X0124576Y0133225D01*
X0126800Y0132844D02*
X0129300Y0130344D01*
X0151800Y0130344D01*
X0156800Y0135344D01*
X0151800Y0140344D01*
X0146942Y0140344D01*
X0146942Y0136604D02*
X0143040Y0136604D01*
X0141800Y0137844D01*
X0141800Y0140344D01*
X0141800Y0142844D01*
X0141800Y0149104D01*
X0143040Y0150344D01*
X0140560Y0144085D02*
X0136658Y0144085D01*
X0140560Y0144085D02*
X0141800Y0142844D01*
X0136658Y0136604D02*
X0133060Y0136604D01*
X0131800Y0135344D01*
X0135540Y0136604D02*
X0136658Y0136604D01*
X0135127Y0131627D02*
X0162860Y0131627D01*
X0162860Y0133225D02*
X0151632Y0133225D01*
X0152504Y0134824D02*
X0162860Y0134824D01*
X0162860Y0136422D02*
X0152504Y0136422D01*
X0152504Y0138021D02*
X0162860Y0138021D01*
X0162860Y0139619D02*
X0162180Y0139619D01*
X0144325Y0130028D02*
X0127773Y0130028D01*
X0128473Y0131627D02*
X0126174Y0131627D01*
X0126800Y0132844D02*
X0126800Y0141604D01*
X0129104Y0139619D02*
X0118300Y0139619D01*
X0118300Y0138021D02*
X0127517Y0138021D01*
X0126855Y0136422D02*
X0122766Y0136422D01*
X0118300Y0141218D02*
X0131531Y0141218D01*
X0131096Y0142816D02*
X0118300Y0142816D01*
X0118300Y0144415D02*
X0121236Y0144415D01*
X0120560Y0149085D02*
X0126800Y0149085D01*
X0128060Y0150344D01*
X0135560Y0150344D01*
X0120560Y0149085D02*
X0119300Y0150344D01*
X0114300Y0147844D02*
X0091800Y0170344D01*
X0089322Y0170344D01*
X0089311Y0170333D01*
X0089082Y0170333D01*
X0084834Y0174787D02*
X0083300Y0174787D01*
X0083585Y0173538D02*
X0083300Y0173253D01*
X0083300Y0176140D01*
X0082691Y0177610D01*
X0075737Y0184565D01*
X0074612Y0185690D01*
X0073141Y0186299D01*
X0069503Y0186299D01*
X0072169Y0188965D01*
X0072450Y0188286D01*
X0074677Y0186059D01*
X0076969Y0183767D01*
X0079196Y0181540D01*
X0079196Y0181540D01*
X0081358Y0179378D01*
X0083650Y0177086D01*
X0085392Y0175344D01*
X0083585Y0173538D01*
X0083198Y0176385D02*
X0084351Y0176385D01*
X0082753Y0177984D02*
X0082318Y0177984D01*
X0081358Y0179378D02*
X0081358Y0179378D01*
X0081154Y0179582D02*
X0080719Y0179582D01*
X0079556Y0181181D02*
X0079121Y0181181D01*
X0077957Y0182779D02*
X0077522Y0182779D01*
X0076358Y0184378D02*
X0075924Y0184378D01*
X0074760Y0185976D02*
X0073920Y0185976D01*
X0074677Y0186059D02*
X0074677Y0186059D01*
X0073161Y0187575D02*
X0070779Y0187575D01*
X0071800Y0187844D02*
X0071800Y0189799D01*
X0075719Y0193718D01*
X0086855Y0182583D02*
X0089617Y0185344D01*
X0096800Y0185344D01*
X0091789Y0180355D02*
X0094300Y0177844D01*
X0091789Y0180355D02*
X0089082Y0180355D01*
X0078208Y0167844D02*
X0082401Y0163652D01*
X0080174Y0161425D02*
X0083754Y0157844D01*
X0091800Y0157844D01*
X0096800Y0152844D02*
X0094300Y0150344D01*
X0077892Y0150344D01*
X0073492Y0154744D01*
X0071265Y0152517D02*
X0075937Y0147844D01*
X0101800Y0147844D01*
X0099300Y0145344D02*
X0101800Y0142844D01*
X0104300Y0142844D01*
X0104300Y0137844D02*
X0101800Y0137844D01*
X0096800Y0142844D01*
X0072029Y0142844D01*
X0066811Y0148062D01*
X0069038Y0150290D02*
X0073983Y0145344D01*
X0099300Y0145344D01*
X0094300Y0137844D02*
X0099300Y0132844D01*
X0099300Y0126585D01*
X0099300Y0119104D02*
X0099300Y0117844D01*
X0114300Y0127844D02*
X0114300Y0147844D01*
X0129371Y0128430D02*
X0138427Y0128430D01*
X0139312Y0118839D02*
X0128963Y0118839D01*
X0121800Y0105344D02*
X0126800Y0100344D01*
X0126800Y0099085D01*
X0126800Y0100344D02*
X0135560Y0100344D01*
X0145560Y0075344D02*
X0143060Y0072844D01*
X0120691Y0045307D02*
X0112494Y0045307D01*
X0114093Y0043709D02*
X0122089Y0043709D01*
X0102764Y0024527D02*
X0077818Y0024527D01*
X0077818Y0026125D02*
X0101165Y0026125D01*
X0099567Y0027724D02*
X0077854Y0027724D01*
X0077854Y0029322D02*
X0097968Y0029322D01*
X0096370Y0030921D02*
X0077854Y0030921D01*
X0077854Y0032519D02*
X0094771Y0032519D01*
X0093173Y0034118D02*
X0077854Y0034118D01*
X0071800Y0030344D02*
X0071800Y0022844D01*
X0066800Y0017844D01*
X0049300Y0017844D01*
X0050383Y0018133D02*
X0044713Y0018133D01*
X0044713Y0019731D02*
X0050383Y0019731D01*
X0049300Y0020344D02*
X0049300Y0030344D01*
X0046800Y0030344D02*
X0039300Y0030344D01*
X0036800Y0032844D01*
X0036800Y0040344D01*
X0041122Y0040512D02*
X0050976Y0040512D01*
X0050909Y0040579D02*
X0052034Y0039453D01*
X0054877Y0036610D01*
X0054141Y0036305D01*
X0053896Y0036061D01*
X0053632Y0036325D01*
X0052456Y0036812D01*
X0043309Y0036812D01*
X0042133Y0036325D01*
X0041233Y0035425D01*
X0040836Y0034466D01*
X0040800Y0034501D01*
X0040800Y0035781D01*
X0041122Y0036558D01*
X0041122Y0044131D01*
X0040635Y0045307D01*
X0040494Y0045448D01*
X0042122Y0046122D01*
X0043523Y0047523D01*
X0044281Y0049354D01*
X0044281Y0051335D01*
X0043523Y0053166D01*
X0042122Y0054567D01*
X0040291Y0055326D01*
X0039976Y0055326D01*
X0034938Y0060363D01*
X0035291Y0060363D01*
X0037122Y0061122D01*
X0038523Y0062523D01*
X0039281Y0064354D01*
X0039281Y0066335D01*
X0038523Y0068166D01*
X0037122Y0069567D01*
X0035650Y0070177D01*
X0035650Y0072930D01*
X0035809Y0072863D01*
X0037791Y0072863D01*
X0039622Y0073622D01*
X0041023Y0075023D01*
X0041781Y0076854D01*
X0041781Y0077207D01*
X0042800Y0076188D01*
X0042800Y0068389D01*
X0042577Y0068166D01*
X0041819Y0066335D01*
X0041819Y0064354D01*
X0042577Y0062523D01*
X0043978Y0061122D01*
X0045809Y0060363D01*
X0047791Y0060363D01*
X0048229Y0060545D01*
X0048229Y0060453D01*
X0047950Y0059780D01*
X0047950Y0053389D01*
X0048176Y0052844D01*
X0047950Y0052300D01*
X0047950Y0045909D01*
X0048438Y0044733D01*
X0049338Y0043832D01*
X0050300Y0043434D01*
X0050300Y0042049D01*
X0050909Y0040579D01*
X0049300Y0040344D02*
X0043237Y0040344D01*
X0041122Y0038913D02*
X0052574Y0038913D01*
X0054173Y0037315D02*
X0041122Y0037315D01*
X0040800Y0035716D02*
X0041524Y0035716D01*
X0041122Y0042110D02*
X0050300Y0042110D01*
X0049636Y0043709D02*
X0041122Y0043709D01*
X0040634Y0045307D02*
X0048200Y0045307D01*
X0047950Y0046906D02*
X0042906Y0046906D01*
X0043929Y0048504D02*
X0047950Y0048504D01*
X0047950Y0050103D02*
X0044281Y0050103D01*
X0044129Y0051701D02*
X0047950Y0051701D01*
X0047987Y0053300D02*
X0043389Y0053300D01*
X0041322Y0054898D02*
X0047950Y0054898D01*
X0047950Y0056497D02*
X0038804Y0056497D01*
X0037206Y0058095D02*
X0047950Y0058095D01*
X0047950Y0059694D02*
X0035607Y0059694D01*
X0037292Y0061292D02*
X0043808Y0061292D01*
X0042425Y0062891D02*
X0038675Y0062891D01*
X0039281Y0064489D02*
X0041819Y0064489D01*
X0041819Y0066088D02*
X0039281Y0066088D01*
X0038721Y0067686D02*
X0042379Y0067686D01*
X0042800Y0069285D02*
X0037404Y0069285D01*
X0035650Y0070883D02*
X0042800Y0070883D01*
X0042800Y0072482D02*
X0035650Y0072482D01*
X0040080Y0074080D02*
X0042800Y0074080D01*
X0042800Y0075679D02*
X0041295Y0075679D01*
X0036800Y0077844D02*
X0030560Y0077844D01*
X0028060Y0080344D01*
X0029300Y0079085D01*
X0029300Y0089104D01*
X0022950Y0091664D02*
X0005000Y0091664D01*
X0005000Y0090066D02*
X0009753Y0090066D01*
X0008383Y0088467D02*
X0005000Y0088467D01*
X0005000Y0086869D02*
X0007720Y0086869D01*
X0007600Y0085270D02*
X0005000Y0085270D01*
X0005000Y0083672D02*
X0007782Y0083672D01*
X0008444Y0082073D02*
X0005000Y0082073D01*
X0005000Y0080475D02*
X0009902Y0080475D01*
X0013871Y0078876D02*
X0005000Y0078876D01*
X0005000Y0077277D02*
X0015470Y0077277D01*
X0017068Y0075679D02*
X0005000Y0075679D01*
X0005000Y0074080D02*
X0018667Y0074080D01*
X0020266Y0072482D02*
X0005000Y0072482D01*
X0005000Y0070883D02*
X0021864Y0070883D01*
X0022950Y0069285D02*
X0019904Y0069285D01*
X0021221Y0067686D02*
X0023250Y0067686D01*
X0021781Y0066088D02*
X0024928Y0066088D01*
X0022159Y0064489D02*
X0021781Y0064489D01*
X0016800Y0065344D02*
X0016800Y0059085D01*
X0010450Y0059694D02*
X0005000Y0059694D01*
X0005000Y0061292D02*
X0010450Y0061292D01*
X0010703Y0062891D02*
X0005000Y0062891D01*
X0005000Y0064489D02*
X0011819Y0064489D01*
X0011819Y0066088D02*
X0005000Y0066088D01*
X0005000Y0067686D02*
X0012379Y0067686D01*
X0013696Y0069285D02*
X0005000Y0069285D01*
X0005000Y0058095D02*
X0010450Y0058095D01*
X0010450Y0056497D02*
X0005000Y0056497D01*
X0005000Y0054898D02*
X0010491Y0054898D01*
X0010450Y0053300D02*
X0005000Y0053300D01*
X0005000Y0051701D02*
X0010450Y0051701D01*
X0010450Y0050103D02*
X0005000Y0050103D01*
X0005000Y0048504D02*
X0010450Y0048504D01*
X0011238Y0046906D02*
X0005000Y0046906D01*
X0005000Y0045307D02*
X0011238Y0045307D01*
X0011238Y0043709D02*
X0005000Y0043709D01*
X0005000Y0042110D02*
X0011238Y0042110D01*
X0011639Y0040512D02*
X0005000Y0040512D01*
X0005000Y0038913D02*
X0029604Y0038913D01*
X0029604Y0037315D02*
X0005000Y0037315D01*
X0005000Y0035716D02*
X0029953Y0035716D01*
X0031871Y0034118D02*
X0005000Y0034118D01*
X0005000Y0032519D02*
X0032800Y0032519D01*
X0033267Y0030921D02*
X0005000Y0030921D01*
X0005000Y0029322D02*
X0034665Y0029322D01*
X0036264Y0027724D02*
X0005000Y0027724D01*
X0005000Y0026125D02*
X0040713Y0026125D01*
X0040713Y0024527D02*
X0005000Y0024527D01*
X0005000Y0022928D02*
X0040713Y0022928D01*
X0040713Y0021330D02*
X0005000Y0021330D01*
X0005000Y0019731D02*
X0039890Y0019731D01*
X0037720Y0018133D02*
X0005000Y0018133D01*
X0005000Y0016534D02*
X0037131Y0016534D01*
X0037131Y0014936D02*
X0005000Y0014936D01*
X0005000Y0013337D02*
X0037131Y0013337D01*
X0037131Y0011739D02*
X0005000Y0011739D01*
X0005000Y0010140D02*
X0037131Y0010140D01*
X0037131Y0008542D02*
X0005000Y0008542D01*
X0005000Y0006943D02*
X0037131Y0006943D01*
X0041131Y0006943D02*
X0046170Y0006943D01*
X0046170Y0006663D02*
X0046170Y0014931D01*
X0050383Y0014931D01*
X0050383Y0026033D01*
X0044713Y0026033D01*
X0044713Y0015915D01*
X0041131Y0015915D01*
X0041131Y0006663D01*
X0046170Y0006663D01*
X0046170Y0008542D02*
X0041131Y0008542D01*
X0041131Y0010140D02*
X0046170Y0010140D01*
X0046170Y0011739D02*
X0041131Y0011739D01*
X0041131Y0013337D02*
X0046170Y0013337D01*
X0044713Y0016534D02*
X0050383Y0016534D01*
X0050383Y0014936D02*
X0041131Y0014936D01*
X0044713Y0021330D02*
X0050383Y0021330D01*
X0050383Y0022928D02*
X0044713Y0022928D01*
X0044713Y0024527D02*
X0050383Y0024527D01*
X0054182Y0030226D02*
X0054182Y0035463D01*
X0049300Y0040344D01*
X0054300Y0042844D02*
X0054300Y0049104D01*
X0054300Y0042844D02*
X0059300Y0037844D01*
X0059300Y0030226D01*
X0061859Y0030226D02*
X0061859Y0046663D01*
X0064300Y0049104D01*
X0064300Y0056585D02*
X0064300Y0067416D01*
X0058264Y0073451D01*
X0052229Y0072416D02*
X0052229Y0058656D01*
X0054300Y0056585D01*
X0046800Y0065344D02*
X0046800Y0077844D01*
X0036800Y0087844D01*
X0036800Y0092844D01*
X0031800Y0097844D01*
X0030560Y0097844D01*
X0029300Y0096585D01*
X0020540Y0105344D01*
X0016800Y0105344D01*
X0011330Y0099657D02*
X0005000Y0099657D01*
X0005000Y0101255D02*
X0009121Y0101255D01*
X0008121Y0102854D02*
X0005000Y0102854D01*
X0005000Y0104452D02*
X0007600Y0104452D01*
X0007600Y0106051D02*
X0005000Y0106051D01*
X0005000Y0107649D02*
X0008044Y0107649D01*
X0008935Y0109248D02*
X0005000Y0109248D01*
X0005000Y0110846D02*
X0010881Y0110846D01*
X0005000Y0122036D02*
X0040594Y0122036D01*
X0038995Y0123634D02*
X0005000Y0123634D01*
X0005000Y0125233D02*
X0037397Y0125233D01*
X0035798Y0126831D02*
X0005000Y0126831D01*
X0005000Y0128430D02*
X0034199Y0128430D01*
X0027827Y0130028D02*
X0005000Y0130028D01*
X0005000Y0131627D02*
X0012823Y0131627D01*
X0010762Y0133225D02*
X0005000Y0133225D01*
X0005000Y0134824D02*
X0009164Y0134824D01*
X0007565Y0136422D02*
X0005000Y0136422D01*
X0005000Y0138021D02*
X0005967Y0138021D01*
X0005300Y0139619D02*
X0005000Y0139619D01*
X0005000Y0141218D02*
X0005300Y0141218D01*
X0005300Y0142816D02*
X0005000Y0142816D01*
X0005000Y0144415D02*
X0005300Y0144415D01*
X0005300Y0146013D02*
X0005000Y0146013D01*
X0005000Y0147612D02*
X0005300Y0147612D01*
X0005300Y0149211D02*
X0005000Y0149211D01*
X0005000Y0150809D02*
X0005300Y0150809D01*
X0005300Y0152408D02*
X0005000Y0152408D01*
X0005000Y0154006D02*
X0005300Y0154006D01*
X0005300Y0155605D02*
X0005000Y0155605D01*
X0005000Y0157203D02*
X0005300Y0157203D01*
X0005300Y0158802D02*
X0005000Y0158802D01*
X0005000Y0160400D02*
X0005300Y0160400D01*
X0005300Y0161999D02*
X0005000Y0161999D01*
X0005000Y0163597D02*
X0005300Y0163597D01*
X0005300Y0165196D02*
X0005000Y0165196D01*
X0005000Y0166794D02*
X0005300Y0166794D01*
X0005300Y0168393D02*
X0005000Y0168393D01*
X0005000Y0169991D02*
X0005300Y0169991D01*
X0005300Y0171590D02*
X0005000Y0171590D01*
X0005000Y0173188D02*
X0005300Y0173188D01*
X0005300Y0174787D02*
X0005000Y0174787D01*
X0005000Y0176385D02*
X0005300Y0176385D01*
X0005300Y0177984D02*
X0005000Y0177984D01*
X0005000Y0179582D02*
X0005300Y0179582D01*
X0005300Y0181181D02*
X0005000Y0181181D01*
X0005000Y0182779D02*
X0005300Y0182779D01*
X0005000Y0184378D02*
X0005606Y0184378D01*
X0005511Y0185976D02*
X0005000Y0185976D01*
X0013300Y0174787D02*
X0026819Y0174787D01*
X0027302Y0173188D02*
X0013300Y0173188D01*
X0013300Y0171590D02*
X0028510Y0171590D01*
X0028705Y0169991D02*
X0013300Y0169991D01*
X0013300Y0168393D02*
X0028534Y0168393D01*
X0029356Y0166794D02*
X0013300Y0166794D01*
X0018568Y0161077D02*
X0034170Y0161077D01*
X0038972Y0165879D01*
X0037062Y0168106D02*
X0041800Y0172844D01*
X0036745Y0168106D01*
X0037062Y0168106D01*
X0034518Y0170333D02*
X0034518Y0172627D01*
X0031800Y0175344D01*
X0034518Y0180355D02*
X0037029Y0177844D01*
X0044300Y0177844D01*
X0046800Y0175344D01*
X0051800Y0165344D02*
X0051800Y0160890D01*
X0047881Y0156971D01*
X0050108Y0154744D02*
X0059300Y0163936D01*
X0059300Y0165344D01*
X0064300Y0167844D02*
X0061800Y0170344D01*
X0064300Y0167844D02*
X0064300Y0164482D01*
X0052335Y0152517D01*
X0054562Y0150606D02*
X0066800Y0162844D01*
X0066800Y0172844D01*
X0064300Y0175344D01*
X0069300Y0177844D02*
X0069300Y0163390D01*
X0075719Y0156971D01*
X0077947Y0159198D02*
X0071800Y0165344D01*
X0071800Y0170344D01*
X0074300Y0172844D01*
X0076490Y0168360D02*
X0077034Y0167816D01*
X0077034Y0167816D01*
X0077647Y0167203D01*
X0076969Y0166922D01*
X0076424Y0166377D01*
X0075800Y0167001D01*
X0075800Y0168074D01*
X0076490Y0168360D01*
X0076800Y0167844D02*
X0078208Y0167844D01*
X0076841Y0166794D02*
X0076007Y0166794D01*
X0067996Y0157948D02*
X0067996Y0157948D01*
X0067250Y0157203D02*
X0066815Y0157203D01*
X0065652Y0155605D02*
X0065217Y0155605D01*
X0064053Y0154006D02*
X0063618Y0154006D01*
X0062455Y0152408D02*
X0062020Y0152408D01*
X0061125Y0150809D02*
X0060448Y0150809D01*
X0060827Y0149211D02*
X0059400Y0149211D01*
X0067971Y0141218D02*
X0067999Y0141218D01*
X0068956Y0139619D02*
X0069597Y0139619D01*
X0045653Y0159198D02*
X0041800Y0155344D01*
X0030954Y0165196D02*
X0024286Y0165196D01*
X0014175Y0146013D02*
X0013300Y0146013D01*
X0005000Y0098058D02*
X0022170Y0098058D01*
X0022950Y0096460D02*
X0005000Y0096460D01*
X0005000Y0094861D02*
X0022950Y0094861D01*
X0023003Y0093263D02*
X0005000Y0093263D01*
X0016800Y0085344D02*
X0016800Y0081604D01*
X0025560Y0072844D01*
X0029300Y0071604D01*
X0029300Y0070344D01*
X0034300Y0065344D01*
X0031800Y0057844D02*
X0028040Y0057844D01*
X0026800Y0059085D01*
X0031800Y0057844D02*
X0039300Y0050344D01*
X0026800Y0051604D02*
X0026800Y0044478D01*
X0026800Y0036211D02*
X0025934Y0035344D01*
X0009300Y0035344D01*
X0016800Y0035344D02*
X0016800Y0036211D01*
X0026800Y0036211D01*
X0016800Y0044478D02*
X0016800Y0051604D01*
X0040800Y0090066D02*
X0042092Y0090066D01*
X0043266Y0091664D02*
X0040800Y0091664D01*
X0040800Y0093263D02*
X0062950Y0093263D01*
X0062950Y0091664D02*
X0057834Y0091664D01*
X0059433Y0090066D02*
X0063060Y0090066D01*
X0062950Y0088467D02*
X0061031Y0088467D01*
X0062630Y0086869D02*
X0062950Y0086869D01*
X0069300Y0086604D02*
X0069300Y0080344D01*
X0081800Y0067844D01*
X0081800Y0065344D01*
X0069300Y0040344D02*
X0064418Y0035463D01*
X0064418Y0030226D01*
X0068148Y0024527D02*
X0073818Y0024527D01*
X0073818Y0022928D02*
X0068148Y0022928D01*
X0068148Y0021330D02*
X0073818Y0021330D01*
X0073818Y0019731D02*
X0068148Y0019731D01*
X0068148Y0018133D02*
X0073818Y0018133D01*
X0073818Y0016534D02*
X0068148Y0016534D01*
X0077818Y0021330D02*
X0105961Y0021330D01*
X0104362Y0022928D02*
X0077818Y0022928D01*
X0078641Y0019731D02*
X0107559Y0019731D01*
X0109158Y0018133D02*
X0080812Y0018133D01*
X0081400Y0016534D02*
X0110756Y0016534D01*
X0112355Y0014936D02*
X0081400Y0014936D01*
X0081400Y0013337D02*
X0113954Y0013337D01*
X0115552Y0011739D02*
X0081400Y0011739D01*
X0061627Y0094861D02*
X0040294Y0094861D01*
X0038842Y0096460D02*
X0060544Y0096460D01*
X0060300Y0098058D02*
X0037243Y0098058D01*
X0030540Y0097844D02*
X0029300Y0096585D01*
X0133005Y0168393D02*
X0140352Y0168393D01*
X0140902Y0182779D02*
X0141822Y0182779D01*
X0059976Y0240326D02*
X0058300Y0242001D01*
D20*
X0020768Y0161077D02*
X0016368Y0161077D01*
X0016368Y0141077D02*
X0020768Y0141077D01*
X0054300Y0110044D02*
X0054300Y0105644D01*
X0074300Y0105644D02*
X0074300Y0110044D01*
D21*
X0019800Y0105344D02*
X0013800Y0105344D01*
X0013800Y0095344D02*
X0019800Y0095344D01*
X0019800Y0085344D02*
X0013800Y0085344D01*
X0153800Y0075344D02*
X0159800Y0075344D01*
X0159800Y0065344D02*
X0153800Y0065344D01*
X0153800Y0055344D02*
X0159800Y0055344D01*
X0159800Y0045344D02*
X0153800Y0045344D01*
X0153800Y0095344D02*
X0159800Y0095344D01*
X0159800Y0105344D02*
X0153800Y0105344D01*
X0153800Y0115344D02*
X0159800Y0115344D01*
X0159800Y0125344D02*
X0153800Y0125344D01*
X0153800Y0145344D02*
X0159800Y0145344D01*
X0159800Y0155344D02*
X0153800Y0155344D01*
X0153800Y0165344D02*
X0159800Y0165344D01*
X0159800Y0175344D02*
X0153800Y0175344D01*
X0153800Y0195344D02*
X0159800Y0195344D01*
X0159800Y0205344D02*
X0153800Y0205344D01*
X0153800Y0215344D02*
X0159800Y0215344D01*
X0159800Y0225344D02*
X0153800Y0225344D01*
X0153800Y0245344D02*
X0159800Y0245344D01*
X0159800Y0255344D02*
X0153800Y0255344D01*
X0153800Y0265344D02*
X0159800Y0265344D01*
X0159800Y0275344D02*
X0153800Y0275344D01*
D22*
X0119300Y0286211D03*
X0111800Y0286211D03*
X0104300Y0286211D03*
X0104300Y0294478D03*
X0111800Y0294478D03*
X0119300Y0294478D03*
X0024300Y0264478D03*
X0024300Y0256211D03*
X0014300Y0256211D03*
X0014300Y0264478D03*
X0016800Y0044478D03*
X0016800Y0036211D03*
X0026800Y0036211D03*
X0026800Y0044478D03*
D23*
X0221800Y0030344D03*
D24*
X0221800Y0022470D03*
D25*
X0216800Y0047044D02*
X0216800Y0053644D01*
X0230550Y0061594D02*
X0221800Y0070344D01*
X0230550Y0061594D02*
X0231800Y0060344D01*
X0231800Y0066604D01*
X0234300Y0069104D01*
X0231800Y0060344D02*
X0231800Y0050344D01*
X0231800Y0053644D02*
X0231800Y0047044D01*
X0201800Y0047044D02*
X0201800Y0053644D01*
D26*
X0074300Y0246407D03*
X0074300Y0254281D03*
D27*
G36*
X0055397Y0205410D02*
X0059572Y0201235D01*
X0058181Y0199844D01*
X0054006Y0204019D01*
X0055397Y0205410D01*
G37*
G36*
X0053170Y0203182D02*
X0057345Y0199007D01*
X0055954Y0197616D01*
X0051779Y0201791D01*
X0053170Y0203182D01*
G37*
G36*
X0050943Y0200955D02*
X0055118Y0196780D01*
X0053727Y0195389D01*
X0049552Y0199564D01*
X0050943Y0200955D01*
G37*
G36*
X0048716Y0198728D02*
X0052891Y0194553D01*
X0051500Y0193162D01*
X0047325Y0197337D01*
X0048716Y0198728D01*
G37*
G36*
X0046489Y0196501D02*
X0050664Y0192326D01*
X0049273Y0190935D01*
X0045098Y0195110D01*
X0046489Y0196501D01*
G37*
G36*
X0044261Y0194274D02*
X0048436Y0190099D01*
X0047045Y0188708D01*
X0042870Y0192883D01*
X0044261Y0194274D01*
G37*
G36*
X0042034Y0192047D02*
X0046209Y0187872D01*
X0044818Y0186481D01*
X0040643Y0190656D01*
X0042034Y0192047D01*
G37*
G36*
X0039807Y0189820D02*
X0043982Y0185645D01*
X0042591Y0184254D01*
X0038416Y0188429D01*
X0039807Y0189820D01*
G37*
G36*
X0037580Y0187593D02*
X0041755Y0183418D01*
X0040364Y0182027D01*
X0036189Y0186202D01*
X0037580Y0187593D01*
G37*
G36*
X0035353Y0185366D02*
X0039528Y0181191D01*
X0038137Y0179800D01*
X0033962Y0183975D01*
X0035353Y0185366D01*
G37*
G36*
X0033126Y0183138D02*
X0037301Y0178963D01*
X0035910Y0177572D01*
X0031735Y0181747D01*
X0033126Y0183138D01*
G37*
G36*
X0065419Y0150845D02*
X0069594Y0146670D01*
X0068203Y0145279D01*
X0064028Y0149454D01*
X0065419Y0150845D01*
G37*
G36*
X0067646Y0153073D02*
X0071821Y0148898D01*
X0070430Y0147507D01*
X0066255Y0151682D01*
X0067646Y0153073D01*
G37*
G36*
X0069873Y0155300D02*
X0074048Y0151125D01*
X0072657Y0149734D01*
X0068482Y0153909D01*
X0069873Y0155300D01*
G37*
G36*
X0072100Y0157527D02*
X0076275Y0153352D01*
X0074884Y0151961D01*
X0070709Y0156136D01*
X0072100Y0157527D01*
G37*
G36*
X0074327Y0159754D02*
X0078502Y0155579D01*
X0077111Y0154188D01*
X0072936Y0158363D01*
X0074327Y0159754D01*
G37*
G36*
X0076555Y0161981D02*
X0080730Y0157806D01*
X0079339Y0156415D01*
X0075164Y0160590D01*
X0076555Y0161981D01*
G37*
G36*
X0078782Y0164208D02*
X0082957Y0160033D01*
X0081566Y0158642D01*
X0077391Y0162817D01*
X0078782Y0164208D01*
G37*
G36*
X0081009Y0166435D02*
X0085184Y0162260D01*
X0083793Y0160869D01*
X0079618Y0165044D01*
X0081009Y0166435D01*
G37*
G36*
X0083236Y0168662D02*
X0087411Y0164487D01*
X0086020Y0163096D01*
X0081845Y0167271D01*
X0083236Y0168662D01*
G37*
G36*
X0085463Y0170889D02*
X0089638Y0166714D01*
X0088247Y0165323D01*
X0084072Y0169498D01*
X0085463Y0170889D01*
G37*
G36*
X0087690Y0173116D02*
X0091865Y0168941D01*
X0090474Y0167550D01*
X0086299Y0171725D01*
X0087690Y0173116D01*
G37*
D28*
G36*
X0090474Y0183138D02*
X0091865Y0181747D01*
X0087690Y0177572D01*
X0086299Y0178963D01*
X0090474Y0183138D01*
G37*
G36*
X0088247Y0185366D02*
X0089638Y0183975D01*
X0085463Y0179800D01*
X0084072Y0181191D01*
X0088247Y0185366D01*
G37*
G36*
X0086020Y0187593D02*
X0087411Y0186202D01*
X0083236Y0182027D01*
X0081845Y0183418D01*
X0086020Y0187593D01*
G37*
G36*
X0083793Y0189820D02*
X0085184Y0188429D01*
X0081009Y0184254D01*
X0079618Y0185645D01*
X0083793Y0189820D01*
G37*
G36*
X0081566Y0192047D02*
X0082957Y0190656D01*
X0078782Y0186481D01*
X0077391Y0187872D01*
X0081566Y0192047D01*
G37*
G36*
X0079339Y0194274D02*
X0080730Y0192883D01*
X0076555Y0188708D01*
X0075164Y0190099D01*
X0079339Y0194274D01*
G37*
G36*
X0077111Y0196501D02*
X0078502Y0195110D01*
X0074327Y0190935D01*
X0072936Y0192326D01*
X0077111Y0196501D01*
G37*
G36*
X0074884Y0198728D02*
X0076275Y0197337D01*
X0072100Y0193162D01*
X0070709Y0194553D01*
X0074884Y0198728D01*
G37*
G36*
X0072657Y0200955D02*
X0074048Y0199564D01*
X0069873Y0195389D01*
X0068482Y0196780D01*
X0072657Y0200955D01*
G37*
G36*
X0070430Y0203182D02*
X0071821Y0201791D01*
X0067646Y0197616D01*
X0066255Y0199007D01*
X0070430Y0203182D01*
G37*
G36*
X0068203Y0205410D02*
X0069594Y0204019D01*
X0065419Y0199844D01*
X0064028Y0201235D01*
X0068203Y0205410D01*
G37*
G36*
X0038137Y0170889D02*
X0039528Y0169498D01*
X0035353Y0165323D01*
X0033962Y0166714D01*
X0038137Y0170889D01*
G37*
G36*
X0040364Y0168662D02*
X0041755Y0167271D01*
X0037580Y0163096D01*
X0036189Y0164487D01*
X0040364Y0168662D01*
G37*
G36*
X0042591Y0166435D02*
X0043982Y0165044D01*
X0039807Y0160869D01*
X0038416Y0162260D01*
X0042591Y0166435D01*
G37*
G36*
X0044818Y0164208D02*
X0046209Y0162817D01*
X0042034Y0158642D01*
X0040643Y0160033D01*
X0044818Y0164208D01*
G37*
G36*
X0047045Y0161981D02*
X0048436Y0160590D01*
X0044261Y0156415D01*
X0042870Y0157806D01*
X0047045Y0161981D01*
G37*
G36*
X0049273Y0159754D02*
X0050664Y0158363D01*
X0046489Y0154188D01*
X0045098Y0155579D01*
X0049273Y0159754D01*
G37*
G36*
X0051500Y0157527D02*
X0052891Y0156136D01*
X0048716Y0151961D01*
X0047325Y0153352D01*
X0051500Y0157527D01*
G37*
G36*
X0053727Y0155300D02*
X0055118Y0153909D01*
X0050943Y0149734D01*
X0049552Y0151125D01*
X0053727Y0155300D01*
G37*
G36*
X0055954Y0153073D02*
X0057345Y0151682D01*
X0053170Y0147507D01*
X0051779Y0148898D01*
X0055954Y0153073D01*
G37*
G36*
X0058181Y0150845D02*
X0059572Y0149454D01*
X0055397Y0145279D01*
X0054006Y0146670D01*
X0058181Y0150845D01*
G37*
G36*
X0035910Y0173116D02*
X0037301Y0171725D01*
X0033126Y0167550D01*
X0031735Y0168941D01*
X0035910Y0173116D01*
G37*
D29*
X0136658Y0186604D03*
X0136658Y0194085D03*
X0146942Y0194085D03*
X0146942Y0190344D03*
X0146942Y0186604D03*
X0146942Y0144085D03*
X0146942Y0140344D03*
X0146942Y0136604D03*
X0136658Y0136604D03*
X0136658Y0144085D03*
X0136658Y0094085D03*
X0136658Y0086604D03*
X0146942Y0086604D03*
X0146942Y0090344D03*
X0146942Y0094085D03*
X0146942Y0044085D03*
X0146942Y0040344D03*
X0146942Y0036604D03*
X0136658Y0036604D03*
X0136658Y0044085D03*
X0136658Y0236604D03*
X0136658Y0244085D03*
X0146942Y0244085D03*
X0146942Y0240344D03*
X0146942Y0236604D03*
D30*
X0024300Y0217844D03*
X0024300Y0207844D03*
X0024300Y0197844D03*
X0024300Y0187844D03*
X0014300Y0187844D03*
X0014300Y0197844D03*
X0014300Y0207844D03*
X0014300Y0217844D03*
D31*
X0101800Y0276585D02*
X0101800Y0283711D01*
X0104300Y0286211D01*
X0111800Y0286211D02*
X0111800Y0276585D01*
X0119300Y0286211D02*
X0121800Y0283711D01*
X0121800Y0276585D01*
X0148202Y0245344D02*
X0146942Y0244085D01*
X0148202Y0245344D02*
X0156800Y0245344D01*
X0151800Y0240344D02*
X0156800Y0235344D01*
X0151800Y0240344D02*
X0146942Y0240344D01*
X0184969Y0245344D02*
X0185560Y0244754D01*
X0185560Y0230541D02*
X0185363Y0230344D01*
X0201800Y0245344D02*
X0207942Y0245344D01*
X0194300Y0260344D02*
X0193040Y0260344D01*
X0220540Y0289675D02*
X0221209Y0290344D01*
X0239300Y0290344D01*
X0241800Y0287844D01*
X0241800Y0017844D01*
X0231800Y0007844D01*
X0191800Y0007844D01*
X0186800Y0012844D01*
X0186800Y0015344D01*
X0196800Y0017844D02*
X0198060Y0019104D01*
X0198060Y0020344D01*
X0198060Y0025344D01*
X0198060Y0019104D02*
X0198060Y0015344D01*
X0205540Y0015344D02*
X0214674Y0015344D01*
X0221800Y0022470D01*
X0208926Y0035344D01*
X0205540Y0035344D01*
X0198060Y0035344D02*
X0191800Y0035344D01*
X0189300Y0040344D02*
X0184300Y0040344D01*
X0184300Y0045344D02*
X0189300Y0040344D01*
X0184300Y0035344D01*
X0183237Y0035344D01*
X0183237Y0045344D01*
X0184300Y0045344D01*
X0175363Y0045344D02*
X0175363Y0051407D01*
X0179300Y0055344D01*
X0184300Y0060344D01*
X0229300Y0060344D01*
X0230550Y0061594D01*
X0211800Y0025344D02*
X0205540Y0025344D01*
X0155540Y0044085D02*
X0146942Y0044085D01*
X0141800Y0042844D02*
X0141800Y0037844D01*
X0143040Y0036604D01*
X0146942Y0036604D01*
X0141800Y0042844D02*
X0140560Y0044085D01*
X0136658Y0044085D01*
X0135560Y0050344D02*
X0134300Y0050344D01*
X0141800Y0049104D02*
X0141800Y0042844D01*
X0141800Y0049104D02*
X0143040Y0050344D01*
X0155540Y0044084D02*
X0155608Y0044086D01*
X0155676Y0044091D01*
X0155744Y0044101D01*
X0155811Y0044113D01*
X0155877Y0044130D01*
X0155942Y0044150D01*
X0156006Y0044173D01*
X0156069Y0044200D01*
X0156130Y0044231D01*
X0156190Y0044264D01*
X0156247Y0044301D01*
X0156303Y0044341D01*
X0156356Y0044384D01*
X0156407Y0044429D01*
X0156455Y0044477D01*
X0156500Y0044528D01*
X0156543Y0044581D01*
X0156583Y0044637D01*
X0156620Y0044694D01*
X0156653Y0044754D01*
X0156684Y0044815D01*
X0156711Y0044878D01*
X0156734Y0044942D01*
X0156754Y0045007D01*
X0156771Y0045073D01*
X0156783Y0045140D01*
X0156793Y0045208D01*
X0156798Y0045276D01*
X0156800Y0045344D01*
X0146942Y0094085D02*
X0148202Y0095344D01*
X0156800Y0095344D01*
X0184969Y0125344D02*
X0185363Y0125344D01*
X0156800Y0145344D02*
X0148202Y0145344D01*
X0146942Y0144085D01*
X0146942Y0194085D02*
X0148202Y0195344D01*
X0156800Y0195344D01*
X0225658Y0191486D02*
X0226800Y0190344D01*
X0226800Y0245187D02*
X0225658Y0245344D01*
D32*
X0201800Y0245344D03*
D33*
X0198060Y0241604D01*
X0193631Y0241604D01*
X0193237Y0230344D02*
X0206800Y0230344D01*
X0212863Y0230344D01*
X0220737Y0230344D02*
X0226800Y0230344D01*
X0225658Y0229203D01*
X0225658Y0205344D01*
X0225658Y0191486D01*
X0226800Y0190344D02*
X0225658Y0189203D01*
X0225658Y0165344D01*
X0225658Y0151486D01*
X0225658Y0125344D01*
X0225658Y0111486D01*
X0225658Y0085344D01*
X0225658Y0074203D01*
X0221800Y0070344D01*
X0215737Y0070344D01*
X0207863Y0070344D02*
X0201800Y0070344D01*
X0193237Y0070344D01*
X0185560Y0070541D02*
X0185363Y0070344D01*
X0181032Y0066014D01*
X0171800Y0066014D01*
X0175540Y0074675D02*
X0176800Y0075935D01*
X0176800Y0082844D01*
X0176800Y0085344D01*
X0169300Y0092844D01*
X0169300Y0095344D01*
X0169300Y0100344D01*
X0169300Y0104774D01*
X0168060Y0106014D01*
X0156800Y0125344D02*
X0145560Y0125344D01*
X0144300Y0124085D01*
X0171800Y0164675D02*
X0171131Y0165344D01*
X0156800Y0165344D01*
X0156800Y0175344D02*
X0146800Y0175344D01*
X0145560Y0175344D01*
X0144300Y0174085D01*
X0172469Y0165344D02*
X0184969Y0165344D01*
X0193631Y0161604D02*
X0198060Y0161604D01*
X0201800Y0165344D01*
X0207942Y0165344D01*
X0205560Y0180344D02*
X0199300Y0180344D01*
X0193040Y0180344D01*
X0193237Y0190344D02*
X0206800Y0190344D01*
X0212863Y0190344D01*
X0220737Y0190344D02*
X0226800Y0190344D01*
X0219300Y0180344D02*
X0213040Y0180344D01*
X0198060Y0201604D02*
X0193631Y0201604D01*
X0198060Y0201604D02*
X0201800Y0205344D01*
X0207942Y0205344D01*
X0205560Y0220344D02*
X0199300Y0220344D01*
X0193040Y0220344D01*
X0186800Y0220344D02*
X0185560Y0220344D01*
X0180560Y0215344D01*
X0172469Y0215344D01*
X0184969Y0219754D02*
X0184969Y0205344D01*
X0184969Y0190738D01*
X0185363Y0190344D01*
X0213040Y0220344D02*
X0219300Y0220344D01*
X0226800Y0230344D02*
X0225658Y0231486D01*
X0225658Y0245344D01*
X0231800Y0255344D02*
X0231800Y0215344D01*
X0231800Y0175344D01*
X0231800Y0135344D01*
X0231800Y0095344D01*
X0234300Y0092844D01*
X0234300Y0076585D01*
X0219300Y0100344D02*
X0213040Y0100344D01*
X0205560Y0100344D02*
X0199300Y0100344D01*
X0193040Y0100344D01*
X0193237Y0110344D02*
X0206800Y0110344D01*
X0212863Y0110344D01*
X0220737Y0110344D02*
X0226643Y0110344D01*
X0226800Y0110344D02*
X0225658Y0111486D01*
X0226800Y0110344D02*
X0220737Y0110344D01*
X0207942Y0125344D02*
X0201800Y0125344D01*
X0198060Y0121604D01*
X0193631Y0121604D01*
X0193040Y0140344D02*
X0199300Y0140344D01*
X0205560Y0140344D01*
X0213040Y0140344D02*
X0219300Y0140344D01*
X0220737Y0150344D02*
X0220894Y0150502D01*
X0226643Y0150502D01*
X0226800Y0150344D01*
X0225658Y0151486D01*
X0212863Y0150344D02*
X0204300Y0150344D01*
X0193237Y0150344D01*
X0185560Y0085344D02*
X0184969Y0085344D01*
X0193631Y0081604D02*
X0198060Y0081604D01*
X0201800Y0085344D01*
X0207942Y0085344D01*
X0216800Y0050344D02*
X0216800Y0035344D01*
X0221800Y0030344D01*
X0175540Y0076585D02*
X0176800Y0077844D01*
X0175540Y0076585D02*
X0175540Y0074675D01*
X0166800Y0057844D02*
X0166800Y0035344D01*
X0166800Y0030344D01*
X0156800Y0075344D02*
X0145560Y0075344D01*
X0144300Y0074085D01*
X0144300Y0224085D02*
X0145560Y0225344D01*
X0156800Y0225344D01*
X0185560Y0260344D02*
X0181229Y0264675D01*
X0171800Y0264675D01*
X0193040Y0260344D02*
X0204300Y0260344D01*
X0210560Y0260344D01*
X0218040Y0260344D02*
X0224300Y0260344D01*
X0224300Y0268415D01*
X0226229Y0270344D01*
X0228060Y0272175D01*
X0226229Y0270344D02*
X0211800Y0270344D01*
X0231800Y0263514D02*
X0231800Y0255344D01*
X0235540Y0272175D02*
X0235540Y0280344D01*
D34*
X0224300Y0260344D03*
X0231800Y0255344D03*
X0226800Y0230344D03*
X0219300Y0220344D03*
X0231800Y0215344D03*
X0226800Y0190344D03*
X0219300Y0180344D03*
X0231800Y0175344D03*
X0226800Y0150344D03*
X0219300Y0140344D03*
X0231800Y0135344D03*
X0226800Y0110344D03*
X0219300Y0100344D03*
X0231800Y0095344D03*
X0221800Y0070344D03*
X0201800Y0070344D03*
X0201800Y0085344D03*
X0199300Y0100344D03*
X0206800Y0110344D03*
X0201800Y0125344D03*
X0199300Y0140344D03*
X0204300Y0150344D03*
X0201800Y0165344D03*
X0199300Y0180344D03*
X0206800Y0190344D03*
X0201800Y0205344D03*
X0199300Y0220344D03*
X0206800Y0230344D03*
X0204300Y0260344D03*
X0189300Y0275344D03*
X0168060Y0250344D03*
X0156800Y0235344D03*
X0169300Y0227844D03*
X0169300Y0222844D03*
X0169300Y0200344D03*
X0169300Y0195344D03*
X0156800Y0185344D03*
X0169300Y0177844D03*
X0169300Y0172844D03*
X0169300Y0150344D03*
X0169300Y0145344D03*
X0156800Y0135344D03*
X0169300Y0127844D03*
X0169300Y0122844D03*
X0169300Y0100344D03*
X0169300Y0095344D03*
X0176800Y0082844D03*
X0156800Y0085344D03*
X0136800Y0067844D03*
X0131800Y0085344D03*
X0121800Y0085344D03*
X0111800Y0105344D03*
X0114300Y0120344D03*
X0119300Y0132844D03*
X0131800Y0135344D03*
X0136800Y0117844D03*
X0119300Y0150344D03*
X0121800Y0162844D03*
X0116800Y0167844D03*
X0111800Y0162844D03*
X0101800Y0147844D03*
X0104300Y0142844D03*
X0104300Y0137844D03*
X0094300Y0137844D03*
X0096800Y0152844D03*
X0091800Y0157844D03*
X0076800Y0167844D03*
X0074300Y0172844D03*
X0069300Y0177844D03*
X0064300Y0175344D03*
X0061800Y0170344D03*
X0059300Y0165344D03*
X0051800Y0165344D03*
X0046800Y0175344D03*
X0041800Y0172844D03*
X0031800Y0175344D03*
X0036800Y0192844D03*
X0041800Y0200344D03*
X0044300Y0205344D03*
X0049300Y0207844D03*
X0061800Y0197844D03*
X0071800Y0187844D03*
X0086800Y0202844D03*
X0091800Y0207844D03*
X0096800Y0210344D03*
X0101800Y0207844D03*
X0116800Y0210344D03*
X0116800Y0187844D03*
X0131800Y0185344D03*
X0136800Y0165344D03*
X0136800Y0215344D03*
X0131800Y0235344D03*
X0121800Y0232844D03*
X0101800Y0232844D03*
X0101800Y0240344D03*
X0099300Y0252844D03*
X0096800Y0257844D03*
X0091800Y0260344D03*
X0084300Y0237844D03*
X0086800Y0232844D03*
X0076800Y0237844D03*
X0086800Y0217844D03*
X0074300Y0212844D03*
X0064300Y0215344D03*
X0061800Y0220344D03*
X0056800Y0222844D03*
X0059300Y0235344D03*
X0049300Y0235344D03*
X0039300Y0235344D03*
X0034300Y0262844D03*
X0039300Y0265344D03*
X0059300Y0265344D03*
X0089300Y0290344D03*
X0129300Y0267844D03*
X0096800Y0185344D03*
X0094300Y0177844D03*
X0064300Y0137844D03*
X0064300Y0130344D03*
X0071800Y0122844D03*
X0069300Y0115344D03*
X0059300Y0120344D03*
X0046800Y0142844D03*
X0036800Y0152844D03*
X0019300Y0150344D03*
X0014300Y0170344D03*
X0081800Y0122844D03*
X0101800Y0080344D03*
X0081800Y0065344D03*
X0084300Y0057844D03*
X0084300Y0050344D03*
X0069300Y0040344D03*
X0049300Y0040344D03*
X0039300Y0050344D03*
X0034300Y0065344D03*
X0036800Y0077844D03*
X0046800Y0087844D03*
X0052229Y0072416D03*
X0058264Y0073451D03*
X0046800Y0065344D03*
X0016800Y0065344D03*
X0009300Y0035344D03*
X0119300Y0050344D03*
X0131800Y0035344D03*
X0131800Y0025344D03*
X0156800Y0035344D03*
X0166800Y0035344D03*
X0166800Y0030344D03*
X0174300Y0027844D03*
X0166800Y0015344D03*
X0161800Y0015344D03*
X0186800Y0015344D03*
X0191800Y0035344D03*
X0189300Y0040344D03*
X0179300Y0055344D03*
X0166800Y0057844D03*
X0211800Y0025344D03*
X0019300Y0270344D03*
D35*
X0014300Y0265344D01*
X0015166Y0264478D01*
X0025166Y0264478D01*
X0136800Y0215344D02*
X0143040Y0215344D01*
X0144300Y0216604D01*
X0156800Y0215344D02*
X0171131Y0215344D01*
X0171800Y0214675D01*
X0172469Y0215344D01*
X0169300Y0222844D02*
X0168060Y0224085D01*
X0168060Y0250344D01*
X0168060Y0256014D01*
X0171800Y0264675D02*
X0154969Y0264675D01*
X0156800Y0265344D01*
X0183040Y0275344D02*
X0191800Y0275344D01*
X0196800Y0270344D01*
X0211800Y0270344D01*
X0216800Y0281014D02*
X0201800Y0281014D01*
X0216800Y0281014D02*
X0227391Y0281014D01*
X0228060Y0280344D01*
X0185560Y0220344D02*
X0184969Y0219754D01*
X0168060Y0201585D02*
X0169300Y0200344D01*
X0168060Y0201585D02*
X0168060Y0206014D01*
X0168060Y0174085D01*
X0169300Y0172844D01*
X0169300Y0177844D01*
X0172469Y0165344D02*
X0171800Y0164675D01*
X0168060Y0156014D02*
X0168060Y0150344D01*
X0169300Y0150344D01*
X0169300Y0145344D01*
X0168060Y0150344D02*
X0168060Y0124104D01*
X0169300Y0125344D01*
X0169300Y0127844D01*
X0168060Y0124104D02*
X0168060Y0124085D01*
X0169300Y0122844D01*
X0171131Y0115344D02*
X0156800Y0115344D01*
X0144300Y0116604D02*
X0138060Y0116604D01*
X0136800Y0117844D01*
X0171131Y0115344D02*
X0171181Y0115342D01*
X0171231Y0115337D01*
X0171280Y0115327D01*
X0171328Y0115314D01*
X0171375Y0115298D01*
X0171421Y0115278D01*
X0171466Y0115254D01*
X0171508Y0115228D01*
X0171548Y0115198D01*
X0171586Y0115165D01*
X0171621Y0115130D01*
X0171654Y0115092D01*
X0171684Y0115052D01*
X0171710Y0115010D01*
X0171734Y0114965D01*
X0171754Y0114919D01*
X0171770Y0114872D01*
X0171783Y0114824D01*
X0171793Y0114775D01*
X0171798Y0114725D01*
X0171800Y0114675D01*
X0172469Y0115344D01*
X0185363Y0115344D01*
X0185363Y0125344D01*
X0185363Y0140148D01*
X0185365Y0140174D01*
X0185370Y0140199D01*
X0185378Y0140223D01*
X0185389Y0140247D01*
X0185404Y0140268D01*
X0185421Y0140287D01*
X0185440Y0140304D01*
X0185462Y0140319D01*
X0185485Y0140330D01*
X0185509Y0140338D01*
X0185534Y0140343D01*
X0185560Y0140345D01*
X0185363Y0150344D02*
X0185363Y0167451D01*
X0184969Y0165344D01*
X0185560Y0150541D02*
X0185560Y0180344D01*
X0185560Y0150541D02*
X0185363Y0150344D01*
X0185363Y0115344D02*
X0185363Y0110344D01*
X0171800Y0066014D02*
X0157469Y0066014D01*
X0156800Y0065344D01*
X0144300Y0066604D02*
X0138060Y0066604D01*
X0136800Y0067844D01*
X0094300Y0040344D02*
X0119300Y0015344D01*
X0161800Y0015344D01*
X0166800Y0015344D01*
X0161800Y0015344D02*
X0186800Y0015344D01*
X0094300Y0040344D02*
X0069300Y0040344D01*
X0074300Y0045344D01*
X0074300Y0067844D01*
X0054300Y0087844D01*
X0046800Y0087844D01*
X0136800Y0165344D02*
X0138060Y0166604D01*
X0144300Y0166604D01*
D36*
X0139300Y0290344D03*
X0014300Y0290344D03*
X0014300Y0015344D03*
X0099300Y0015344D03*
D37*
X0185560Y0070541D02*
X0185560Y0085344D01*
X0185560Y0100344D01*
X0185560Y0230541D02*
X0185560Y0244754D01*
X0185560Y0260344D01*
X0175560Y0275344D02*
X0156800Y0275344D01*
M02*
