G75*
%MOIN*%
%OFA0B0*%
%FSLAX25Y25*%
%IPPOS*%
%LPD*%
%AMOC8*
5,1,8,0,0,1.08239X$1,22.5*
%
%ADD10C,0.00000*%
%ADD11C,0.00600*%
%ADD12C,0.02400*%
%ADD13R,0.05000X0.05000*%
%ADD14C,0.00400*%
%ADD15C,0.00500*%
%ADD16C,0.00200*%
%ADD17R,0.00787X0.00787*%
%ADD18C,0.00300*%
%ADD19R,0.02000X0.02000*%
%ADD20C,0.00800*%
%ADD21C,0.01000*%
D10*
X0001800Y0001800D02*
X0001800Y0301761D01*
X0245501Y0301761D01*
X0245501Y0001800D01*
X0001800Y0001800D01*
D11*
X0049600Y0010668D02*
X0050668Y0009600D01*
X0052803Y0009600D01*
X0053870Y0010668D01*
X0053870Y0011735D01*
X0052803Y0012803D01*
X0050668Y0012803D01*
X0049600Y0013870D01*
X0049600Y0014938D01*
X0050668Y0016005D01*
X0052803Y0016005D01*
X0053870Y0014938D01*
X0056045Y0016005D02*
X0056045Y0009600D01*
X0056045Y0011735D02*
X0059248Y0011735D01*
X0060316Y0012803D01*
X0060316Y0014938D01*
X0059248Y0016005D01*
X0056045Y0016005D01*
X0058181Y0011735D02*
X0060316Y0009600D01*
X0062491Y0011735D02*
X0064626Y0009600D01*
X0066761Y0011735D01*
X0066761Y0016005D01*
X0062491Y0016005D02*
X0062491Y0011735D01*
X0019300Y0079300D02*
X0014300Y0079300D01*
X0011800Y0081800D01*
X0011800Y0086800D01*
X0014300Y0089300D01*
X0011800Y0091800D01*
X0011800Y0096800D01*
X0014300Y0099300D01*
X0011800Y0101800D01*
X0011800Y0106800D01*
X0014300Y0109300D01*
X0019300Y0109300D01*
X0021800Y0106800D01*
X0021800Y0101800D01*
X0019300Y0099300D01*
X0021800Y0096800D01*
X0021800Y0091800D01*
X0019300Y0089300D01*
X0021800Y0086800D01*
X0021800Y0081800D01*
X0019300Y0079300D01*
X0050800Y0097800D02*
X0077800Y0097800D01*
X0078019Y0097803D01*
X0078238Y0097811D01*
X0078457Y0097824D01*
X0078675Y0097843D01*
X0078893Y0097867D01*
X0079110Y0097896D01*
X0079327Y0097930D01*
X0079542Y0097970D01*
X0079757Y0098015D01*
X0079970Y0098066D01*
X0080182Y0098121D01*
X0080393Y0098182D01*
X0080602Y0098247D01*
X0080809Y0098318D01*
X0081015Y0098394D01*
X0081219Y0098475D01*
X0081421Y0098560D01*
X0081620Y0098651D01*
X0081817Y0098746D01*
X0082012Y0098847D01*
X0082205Y0098952D01*
X0082395Y0099061D01*
X0082582Y0099175D01*
X0082766Y0099294D01*
X0082947Y0099417D01*
X0083125Y0099545D01*
X0083301Y0099677D01*
X0083472Y0099813D01*
X0083641Y0099953D01*
X0083806Y0100097D01*
X0083967Y0100245D01*
X0084125Y0100397D01*
X0084279Y0100553D01*
X0084429Y0100713D01*
X0084576Y0100876D01*
X0084718Y0101043D01*
X0084856Y0101213D01*
X0084990Y0101387D01*
X0085120Y0101563D01*
X0085245Y0101743D01*
X0085366Y0101926D01*
X0085482Y0102112D01*
X0085594Y0102300D01*
X0085701Y0102491D01*
X0085804Y0102685D01*
X0085902Y0102881D01*
X0085995Y0103079D01*
X0086083Y0103280D01*
X0086166Y0103483D01*
X0086245Y0103688D01*
X0086318Y0103894D01*
X0086386Y0104102D01*
X0086449Y0104312D01*
X0086507Y0104524D01*
X0086560Y0104736D01*
X0086608Y0104950D01*
X0086650Y0105165D01*
X0086687Y0105381D01*
X0086719Y0105598D01*
X0086746Y0105816D01*
X0086767Y0106034D01*
X0086783Y0106252D01*
X0086794Y0106471D01*
X0086799Y0106690D01*
X0086799Y0106910D01*
X0086794Y0107129D01*
X0086783Y0107348D01*
X0086767Y0107566D01*
X0086746Y0107784D01*
X0086719Y0108002D01*
X0086687Y0108219D01*
X0086650Y0108435D01*
X0086608Y0108650D01*
X0086560Y0108864D01*
X0086507Y0109076D01*
X0086449Y0109288D01*
X0086386Y0109498D01*
X0086318Y0109706D01*
X0086245Y0109912D01*
X0086166Y0110117D01*
X0086083Y0110320D01*
X0085995Y0110521D01*
X0085902Y0110719D01*
X0085804Y0110915D01*
X0085701Y0111109D01*
X0085594Y0111300D01*
X0085482Y0111488D01*
X0085366Y0111674D01*
X0085245Y0111857D01*
X0085120Y0112037D01*
X0084990Y0112213D01*
X0084856Y0112387D01*
X0084718Y0112557D01*
X0084576Y0112724D01*
X0084429Y0112887D01*
X0084279Y0113047D01*
X0084125Y0113203D01*
X0083967Y0113355D01*
X0083806Y0113503D01*
X0083641Y0113647D01*
X0083472Y0113787D01*
X0083301Y0113923D01*
X0083125Y0114055D01*
X0082947Y0114183D01*
X0082766Y0114306D01*
X0082582Y0114425D01*
X0082395Y0114539D01*
X0082205Y0114648D01*
X0082012Y0114753D01*
X0081817Y0114854D01*
X0081620Y0114949D01*
X0081421Y0115040D01*
X0081219Y0115125D01*
X0081015Y0115206D01*
X0080809Y0115282D01*
X0080602Y0115353D01*
X0080393Y0115418D01*
X0080182Y0115479D01*
X0079970Y0115534D01*
X0079757Y0115585D01*
X0079542Y0115630D01*
X0079327Y0115670D01*
X0079110Y0115704D01*
X0078893Y0115733D01*
X0078675Y0115757D01*
X0078457Y0115776D01*
X0078238Y0115789D01*
X0078019Y0115797D01*
X0077800Y0115800D01*
X0050800Y0115800D01*
X0050581Y0115797D01*
X0050362Y0115789D01*
X0050143Y0115776D01*
X0049925Y0115757D01*
X0049707Y0115733D01*
X0049490Y0115704D01*
X0049273Y0115670D01*
X0049058Y0115630D01*
X0048843Y0115585D01*
X0048630Y0115534D01*
X0048418Y0115479D01*
X0048207Y0115418D01*
X0047998Y0115353D01*
X0047791Y0115282D01*
X0047585Y0115206D01*
X0047381Y0115125D01*
X0047179Y0115040D01*
X0046980Y0114949D01*
X0046783Y0114854D01*
X0046588Y0114753D01*
X0046395Y0114648D01*
X0046205Y0114539D01*
X0046018Y0114425D01*
X0045834Y0114306D01*
X0045653Y0114183D01*
X0045475Y0114055D01*
X0045299Y0113923D01*
X0045128Y0113787D01*
X0044959Y0113647D01*
X0044794Y0113503D01*
X0044633Y0113355D01*
X0044475Y0113203D01*
X0044321Y0113047D01*
X0044171Y0112887D01*
X0044024Y0112724D01*
X0043882Y0112557D01*
X0043744Y0112387D01*
X0043610Y0112213D01*
X0043480Y0112037D01*
X0043355Y0111857D01*
X0043234Y0111674D01*
X0043118Y0111488D01*
X0043006Y0111300D01*
X0042899Y0111109D01*
X0042796Y0110915D01*
X0042698Y0110719D01*
X0042605Y0110521D01*
X0042517Y0110320D01*
X0042434Y0110117D01*
X0042355Y0109912D01*
X0042282Y0109706D01*
X0042214Y0109498D01*
X0042151Y0109288D01*
X0042093Y0109076D01*
X0042040Y0108864D01*
X0041992Y0108650D01*
X0041950Y0108435D01*
X0041913Y0108219D01*
X0041881Y0108002D01*
X0041854Y0107784D01*
X0041833Y0107566D01*
X0041817Y0107348D01*
X0041806Y0107129D01*
X0041801Y0106910D01*
X0041801Y0106690D01*
X0041806Y0106471D01*
X0041817Y0106252D01*
X0041833Y0106034D01*
X0041854Y0105816D01*
X0041881Y0105598D01*
X0041913Y0105381D01*
X0041950Y0105165D01*
X0041992Y0104950D01*
X0042040Y0104736D01*
X0042093Y0104524D01*
X0042151Y0104312D01*
X0042214Y0104102D01*
X0042282Y0103894D01*
X0042355Y0103688D01*
X0042434Y0103483D01*
X0042517Y0103280D01*
X0042605Y0103079D01*
X0042698Y0102881D01*
X0042796Y0102685D01*
X0042899Y0102491D01*
X0043006Y0102300D01*
X0043118Y0102112D01*
X0043234Y0101926D01*
X0043355Y0101743D01*
X0043480Y0101563D01*
X0043610Y0101387D01*
X0043744Y0101213D01*
X0043882Y0101043D01*
X0044024Y0100876D01*
X0044171Y0100713D01*
X0044321Y0100553D01*
X0044475Y0100397D01*
X0044633Y0100245D01*
X0044794Y0100097D01*
X0044959Y0099953D01*
X0045128Y0099813D01*
X0045299Y0099677D01*
X0045475Y0099545D01*
X0045653Y0099417D01*
X0045834Y0099294D01*
X0046018Y0099175D01*
X0046205Y0099061D01*
X0046395Y0098952D01*
X0046588Y0098847D01*
X0046783Y0098746D01*
X0046980Y0098651D01*
X0047179Y0098560D01*
X0047381Y0098475D01*
X0047585Y0098394D01*
X0047791Y0098318D01*
X0047998Y0098247D01*
X0048207Y0098182D01*
X0048418Y0098121D01*
X0048630Y0098066D01*
X0048843Y0098015D01*
X0049058Y0097970D01*
X0049273Y0097930D01*
X0049490Y0097896D01*
X0049707Y0097867D01*
X0049925Y0097843D01*
X0050143Y0097824D01*
X0050362Y0097811D01*
X0050581Y0097803D01*
X0050800Y0097800D01*
X0027568Y0136532D02*
X0027568Y0163532D01*
X0027565Y0163751D01*
X0027557Y0163970D01*
X0027544Y0164189D01*
X0027525Y0164407D01*
X0027501Y0164625D01*
X0027472Y0164842D01*
X0027438Y0165059D01*
X0027398Y0165274D01*
X0027353Y0165489D01*
X0027302Y0165702D01*
X0027247Y0165914D01*
X0027186Y0166125D01*
X0027121Y0166334D01*
X0027050Y0166541D01*
X0026974Y0166747D01*
X0026893Y0166951D01*
X0026808Y0167153D01*
X0026717Y0167352D01*
X0026622Y0167549D01*
X0026521Y0167744D01*
X0026416Y0167937D01*
X0026307Y0168127D01*
X0026193Y0168314D01*
X0026074Y0168498D01*
X0025951Y0168679D01*
X0025823Y0168857D01*
X0025691Y0169033D01*
X0025555Y0169204D01*
X0025415Y0169373D01*
X0025271Y0169538D01*
X0025123Y0169699D01*
X0024971Y0169857D01*
X0024815Y0170011D01*
X0024655Y0170161D01*
X0024492Y0170308D01*
X0024325Y0170450D01*
X0024155Y0170588D01*
X0023981Y0170722D01*
X0023805Y0170852D01*
X0023625Y0170977D01*
X0023442Y0171098D01*
X0023256Y0171214D01*
X0023068Y0171326D01*
X0022877Y0171433D01*
X0022683Y0171536D01*
X0022487Y0171634D01*
X0022289Y0171727D01*
X0022088Y0171815D01*
X0021885Y0171898D01*
X0021680Y0171977D01*
X0021474Y0172050D01*
X0021266Y0172118D01*
X0021056Y0172181D01*
X0020844Y0172239D01*
X0020632Y0172292D01*
X0020418Y0172340D01*
X0020203Y0172382D01*
X0019987Y0172419D01*
X0019770Y0172451D01*
X0019552Y0172478D01*
X0019334Y0172499D01*
X0019116Y0172515D01*
X0018897Y0172526D01*
X0018678Y0172531D01*
X0018458Y0172531D01*
X0018239Y0172526D01*
X0018020Y0172515D01*
X0017802Y0172499D01*
X0017584Y0172478D01*
X0017366Y0172451D01*
X0017149Y0172419D01*
X0016933Y0172382D01*
X0016718Y0172340D01*
X0016504Y0172292D01*
X0016292Y0172239D01*
X0016080Y0172181D01*
X0015870Y0172118D01*
X0015662Y0172050D01*
X0015456Y0171977D01*
X0015251Y0171898D01*
X0015048Y0171815D01*
X0014847Y0171727D01*
X0014649Y0171634D01*
X0014453Y0171536D01*
X0014259Y0171433D01*
X0014068Y0171326D01*
X0013880Y0171214D01*
X0013694Y0171098D01*
X0013511Y0170977D01*
X0013331Y0170852D01*
X0013155Y0170722D01*
X0012981Y0170588D01*
X0012811Y0170450D01*
X0012644Y0170308D01*
X0012481Y0170161D01*
X0012321Y0170011D01*
X0012165Y0169857D01*
X0012013Y0169699D01*
X0011865Y0169538D01*
X0011721Y0169373D01*
X0011581Y0169204D01*
X0011445Y0169033D01*
X0011313Y0168857D01*
X0011185Y0168679D01*
X0011062Y0168498D01*
X0010943Y0168314D01*
X0010829Y0168127D01*
X0010720Y0167937D01*
X0010615Y0167744D01*
X0010514Y0167549D01*
X0010419Y0167352D01*
X0010328Y0167153D01*
X0010243Y0166951D01*
X0010162Y0166747D01*
X0010086Y0166541D01*
X0010015Y0166334D01*
X0009950Y0166125D01*
X0009889Y0165914D01*
X0009834Y0165702D01*
X0009783Y0165489D01*
X0009738Y0165274D01*
X0009698Y0165059D01*
X0009664Y0164842D01*
X0009635Y0164625D01*
X0009611Y0164407D01*
X0009592Y0164189D01*
X0009579Y0163970D01*
X0009571Y0163751D01*
X0009568Y0163532D01*
X0009568Y0136532D01*
X0009571Y0136313D01*
X0009579Y0136094D01*
X0009592Y0135875D01*
X0009611Y0135657D01*
X0009635Y0135439D01*
X0009664Y0135222D01*
X0009698Y0135005D01*
X0009738Y0134790D01*
X0009783Y0134575D01*
X0009834Y0134362D01*
X0009889Y0134150D01*
X0009950Y0133939D01*
X0010015Y0133730D01*
X0010086Y0133523D01*
X0010162Y0133317D01*
X0010243Y0133113D01*
X0010328Y0132911D01*
X0010419Y0132712D01*
X0010514Y0132515D01*
X0010615Y0132320D01*
X0010720Y0132127D01*
X0010829Y0131937D01*
X0010943Y0131750D01*
X0011062Y0131566D01*
X0011185Y0131385D01*
X0011313Y0131207D01*
X0011445Y0131031D01*
X0011581Y0130860D01*
X0011721Y0130691D01*
X0011865Y0130526D01*
X0012013Y0130365D01*
X0012165Y0130207D01*
X0012321Y0130053D01*
X0012481Y0129903D01*
X0012644Y0129756D01*
X0012811Y0129614D01*
X0012981Y0129476D01*
X0013155Y0129342D01*
X0013331Y0129212D01*
X0013511Y0129087D01*
X0013694Y0128966D01*
X0013880Y0128850D01*
X0014068Y0128738D01*
X0014259Y0128631D01*
X0014453Y0128528D01*
X0014649Y0128430D01*
X0014847Y0128337D01*
X0015048Y0128249D01*
X0015251Y0128166D01*
X0015456Y0128087D01*
X0015662Y0128014D01*
X0015870Y0127946D01*
X0016080Y0127883D01*
X0016292Y0127825D01*
X0016504Y0127772D01*
X0016718Y0127724D01*
X0016933Y0127682D01*
X0017149Y0127645D01*
X0017366Y0127613D01*
X0017584Y0127586D01*
X0017802Y0127565D01*
X0018020Y0127549D01*
X0018239Y0127538D01*
X0018458Y0127533D01*
X0018678Y0127533D01*
X0018897Y0127538D01*
X0019116Y0127549D01*
X0019334Y0127565D01*
X0019552Y0127586D01*
X0019770Y0127613D01*
X0019987Y0127645D01*
X0020203Y0127682D01*
X0020418Y0127724D01*
X0020632Y0127772D01*
X0020844Y0127825D01*
X0021056Y0127883D01*
X0021266Y0127946D01*
X0021474Y0128014D01*
X0021680Y0128087D01*
X0021885Y0128166D01*
X0022088Y0128249D01*
X0022289Y0128337D01*
X0022487Y0128430D01*
X0022683Y0128528D01*
X0022877Y0128631D01*
X0023068Y0128738D01*
X0023256Y0128850D01*
X0023442Y0128966D01*
X0023625Y0129087D01*
X0023805Y0129212D01*
X0023981Y0129342D01*
X0024155Y0129476D01*
X0024325Y0129614D01*
X0024492Y0129756D01*
X0024655Y0129903D01*
X0024815Y0130053D01*
X0024971Y0130207D01*
X0025123Y0130365D01*
X0025271Y0130526D01*
X0025415Y0130691D01*
X0025555Y0130860D01*
X0025691Y0131031D01*
X0025823Y0131207D01*
X0025951Y0131385D01*
X0026074Y0131566D01*
X0026193Y0131750D01*
X0026307Y0131937D01*
X0026416Y0132127D01*
X0026521Y0132320D01*
X0026622Y0132515D01*
X0026717Y0132712D01*
X0026808Y0132911D01*
X0026893Y0133113D01*
X0026974Y0133317D01*
X0027050Y0133523D01*
X0027121Y0133730D01*
X0027186Y0133939D01*
X0027247Y0134150D01*
X0027302Y0134362D01*
X0027353Y0134575D01*
X0027398Y0134790D01*
X0027438Y0135005D01*
X0027472Y0135222D01*
X0027501Y0135439D01*
X0027525Y0135657D01*
X0027544Y0135875D01*
X0027557Y0136094D01*
X0027565Y0136313D01*
X0027568Y0136532D01*
X0026800Y0181800D02*
X0011800Y0181800D01*
X0009300Y0184300D01*
X0009300Y0189300D01*
X0011800Y0191800D01*
X0009300Y0194300D01*
X0009300Y0199300D01*
X0011800Y0201800D01*
X0009300Y0204300D01*
X0009300Y0209300D01*
X0011800Y0211800D01*
X0009300Y0214300D01*
X0009300Y0219300D01*
X0011800Y0221800D01*
X0026800Y0221800D01*
X0029300Y0219300D01*
X0029300Y0214300D01*
X0026800Y0211800D01*
X0029300Y0209300D01*
X0029300Y0204300D01*
X0026800Y0201800D01*
X0029300Y0199300D01*
X0029300Y0194300D01*
X0026800Y0191800D01*
X0029300Y0189300D01*
X0029300Y0184300D01*
X0026800Y0181800D01*
X0043168Y0284600D02*
X0045303Y0284600D01*
X0046370Y0285668D01*
X0043168Y0284600D02*
X0042100Y0285668D01*
X0042100Y0289938D01*
X0043168Y0291005D01*
X0045303Y0291005D01*
X0046370Y0289938D01*
X0048545Y0291005D02*
X0052816Y0291005D01*
X0050681Y0291005D02*
X0050681Y0284600D01*
X0054991Y0284600D02*
X0054991Y0291005D01*
X0058194Y0291005D01*
X0059261Y0289938D01*
X0059261Y0287803D01*
X0058194Y0286735D01*
X0054991Y0286735D01*
X0057126Y0286735D02*
X0059261Y0284600D01*
X0138993Y0245379D02*
X0138993Y0233221D01*
X0144603Y0233221D01*
X0144603Y0245379D01*
X0138993Y0245379D01*
X0151800Y0246800D02*
X0151800Y0241800D01*
X0154300Y0239300D01*
X0159300Y0239300D01*
X0161800Y0241800D01*
X0161800Y0246800D01*
X0159300Y0249300D01*
X0161800Y0251800D01*
X0161800Y0256800D01*
X0159300Y0259300D01*
X0161800Y0261800D01*
X0161800Y0266800D01*
X0159300Y0269300D01*
X0161800Y0271800D01*
X0161800Y0276800D01*
X0159300Y0279300D01*
X0154300Y0279300D01*
X0151800Y0276800D01*
X0151800Y0271800D01*
X0154300Y0269300D01*
X0151800Y0266800D01*
X0151800Y0261800D01*
X0154300Y0259300D01*
X0151800Y0256800D01*
X0151800Y0251800D01*
X0154300Y0249300D01*
X0151800Y0246800D01*
X0166200Y0258570D02*
X0166200Y0261900D01*
X0169211Y0261900D01*
X0174291Y0261900D02*
X0177400Y0261900D01*
X0177400Y0258570D01*
X0186700Y0249900D02*
X0186700Y0246791D01*
X0186700Y0249900D02*
X0190030Y0249900D01*
X0186700Y0241711D02*
X0186700Y0238700D01*
X0190030Y0238700D01*
X0190030Y0209900D02*
X0186700Y0209900D01*
X0186700Y0206791D01*
X0186700Y0201711D02*
X0186700Y0198700D01*
X0190030Y0198700D01*
X0177400Y0208570D02*
X0177400Y0211900D01*
X0174291Y0211900D01*
X0169211Y0211900D02*
X0166200Y0211900D01*
X0166200Y0208570D01*
X0161800Y0206800D02*
X0161800Y0201800D01*
X0159300Y0199300D01*
X0161800Y0196800D01*
X0161800Y0191800D01*
X0159300Y0189300D01*
X0154300Y0189300D01*
X0151800Y0191800D01*
X0151800Y0196800D01*
X0154300Y0199300D01*
X0151800Y0201800D01*
X0151800Y0206800D01*
X0154300Y0209300D01*
X0151800Y0211800D01*
X0151800Y0216800D01*
X0154300Y0219300D01*
X0151800Y0221800D01*
X0151800Y0226800D01*
X0154300Y0229300D01*
X0159300Y0229300D01*
X0161800Y0226800D01*
X0161800Y0221800D01*
X0159300Y0219300D01*
X0161800Y0216800D01*
X0161800Y0211800D01*
X0159300Y0209300D01*
X0161800Y0206800D01*
X0144603Y0195379D02*
X0144603Y0183221D01*
X0138993Y0183221D01*
X0138993Y0195379D01*
X0144603Y0195379D01*
X0154300Y0179300D02*
X0151800Y0176800D01*
X0151800Y0171800D01*
X0154300Y0169300D01*
X0151800Y0166800D01*
X0151800Y0161800D01*
X0154300Y0159300D01*
X0151800Y0156800D01*
X0151800Y0151800D01*
X0154300Y0149300D01*
X0151800Y0146800D01*
X0151800Y0141800D01*
X0154300Y0139300D01*
X0159300Y0139300D01*
X0161800Y0141800D01*
X0161800Y0146800D01*
X0159300Y0149300D01*
X0161800Y0151800D01*
X0161800Y0156800D01*
X0159300Y0159300D01*
X0161800Y0161800D01*
X0161800Y0166800D01*
X0159300Y0169300D01*
X0161800Y0171800D01*
X0161800Y0176800D01*
X0159300Y0179300D01*
X0154300Y0179300D01*
X0166200Y0161900D02*
X0169211Y0161900D01*
X0166200Y0161900D02*
X0166200Y0158570D01*
X0174291Y0161900D02*
X0177400Y0161900D01*
X0177400Y0158570D01*
X0186700Y0158700D02*
X0186700Y0161711D01*
X0186700Y0158700D02*
X0190030Y0158700D01*
X0186700Y0166791D02*
X0186700Y0169900D01*
X0190030Y0169900D01*
X0190030Y0129900D02*
X0186700Y0129900D01*
X0186700Y0126791D01*
X0186700Y0121711D02*
X0186700Y0118700D01*
X0190030Y0118700D01*
X0177400Y0111900D02*
X0177400Y0108570D01*
X0177400Y0111900D02*
X0174291Y0111900D01*
X0169211Y0111900D02*
X0166200Y0111900D01*
X0166200Y0108570D01*
X0161800Y0106800D02*
X0161800Y0101800D01*
X0159300Y0099300D01*
X0161800Y0096800D01*
X0161800Y0091800D01*
X0159300Y0089300D01*
X0154300Y0089300D01*
X0151800Y0091800D01*
X0151800Y0096800D01*
X0154300Y0099300D01*
X0151800Y0101800D01*
X0151800Y0106800D01*
X0154300Y0109300D01*
X0151800Y0111800D01*
X0151800Y0116800D01*
X0154300Y0119300D01*
X0151800Y0121800D01*
X0151800Y0126800D01*
X0154300Y0129300D01*
X0159300Y0129300D01*
X0161800Y0126800D01*
X0161800Y0121800D01*
X0159300Y0119300D01*
X0161800Y0116800D01*
X0161800Y0111800D01*
X0159300Y0109300D01*
X0161800Y0106800D01*
X0144603Y0095379D02*
X0144603Y0083221D01*
X0138993Y0083221D01*
X0138993Y0095379D01*
X0144603Y0095379D01*
X0154300Y0079300D02*
X0151800Y0076800D01*
X0151800Y0071800D01*
X0154300Y0069300D01*
X0151800Y0066800D01*
X0151800Y0061800D01*
X0154300Y0059300D01*
X0151800Y0056800D01*
X0151800Y0051800D01*
X0154300Y0049300D01*
X0151800Y0046800D01*
X0151800Y0041800D01*
X0154300Y0039300D01*
X0159300Y0039300D01*
X0161800Y0041800D01*
X0161800Y0046800D01*
X0159300Y0049300D01*
X0161800Y0051800D01*
X0161800Y0056800D01*
X0159300Y0059300D01*
X0161800Y0061800D01*
X0161800Y0066800D01*
X0159300Y0069300D01*
X0161800Y0071800D01*
X0161800Y0076800D01*
X0159300Y0079300D01*
X0154300Y0079300D01*
X0166200Y0070030D02*
X0166200Y0066700D01*
X0169309Y0066700D01*
X0174389Y0066700D02*
X0177400Y0066700D01*
X0177400Y0070030D01*
X0186700Y0078700D02*
X0186700Y0081711D01*
X0186700Y0078700D02*
X0190030Y0078700D01*
X0186700Y0086791D02*
X0186700Y0089900D01*
X0190030Y0089900D01*
X0194800Y0061300D02*
X0238800Y0061300D01*
X0238800Y0037300D01*
X0194800Y0037300D01*
X0194800Y0061300D01*
X0201800Y0055300D02*
X0201800Y0054800D01*
X0201800Y0055300D02*
X0219800Y0055300D01*
X0221800Y0055300D01*
X0223800Y0055300D01*
X0225800Y0055300D01*
X0227800Y0055300D01*
X0229800Y0055300D01*
X0231800Y0055300D01*
X0231800Y0054800D01*
X0229800Y0054800D02*
X0229800Y0055300D01*
X0227800Y0055300D02*
X0227800Y0053300D01*
X0225800Y0055300D02*
X0225800Y0043300D01*
X0227800Y0043300D01*
X0227800Y0045300D01*
X0227800Y0043300D02*
X0229800Y0043300D01*
X0229800Y0043800D01*
X0229800Y0043300D02*
X0231800Y0043300D01*
X0231800Y0043800D01*
X0225800Y0043300D02*
X0223800Y0043300D01*
X0221800Y0043300D01*
X0219800Y0043300D01*
X0201800Y0043300D01*
X0201800Y0043800D01*
X0219800Y0043300D02*
X0219800Y0044300D01*
X0221800Y0043300D02*
X0221800Y0046300D01*
X0223800Y0043300D02*
X0223800Y0055300D01*
X0221800Y0055300D02*
X0221800Y0052300D01*
X0219800Y0054300D02*
X0219800Y0055300D01*
X0144603Y0045379D02*
X0144603Y0033221D01*
X0138993Y0033221D01*
X0138993Y0045379D01*
X0144603Y0045379D01*
X0144603Y0133221D02*
X0138993Y0133221D01*
X0138993Y0145379D01*
X0144603Y0145379D01*
X0144603Y0133221D01*
X0196200Y0281700D02*
X0199309Y0281700D01*
X0196200Y0281700D02*
X0196200Y0285030D01*
X0204389Y0281700D02*
X0207400Y0281700D01*
X0207400Y0285030D01*
X0211200Y0285030D02*
X0211200Y0281700D01*
X0214309Y0281700D01*
X0219389Y0281700D02*
X0222400Y0281700D01*
X0222400Y0285030D01*
D12*
X0124300Y0281800D02*
X0099300Y0281800D01*
X0099300Y0296800D01*
X0124300Y0296800D01*
X0124300Y0281800D01*
D13*
X0096800Y0289300D03*
D14*
X0069100Y0266010D02*
X0069100Y0264475D01*
X0068333Y0263708D01*
X0065263Y0266777D01*
X0068333Y0266777D01*
X0069100Y0266010D01*
X0068333Y0263708D02*
X0065263Y0263708D01*
X0064496Y0264475D01*
X0064496Y0266010D01*
X0065263Y0266777D01*
X0065263Y0262173D02*
X0064496Y0261406D01*
X0064496Y0259104D01*
X0069100Y0259104D01*
X0067565Y0259104D02*
X0067565Y0261406D01*
X0066798Y0262173D01*
X0065263Y0262173D01*
X0064496Y0257569D02*
X0064496Y0254500D01*
X0064496Y0256035D02*
X0069100Y0256035D01*
X0036600Y0226926D02*
X0035833Y0227693D01*
X0035065Y0227693D01*
X0034298Y0226926D01*
X0034298Y0224624D01*
X0035833Y0224624D01*
X0036600Y0225391D01*
X0036600Y0226926D01*
X0034298Y0224624D02*
X0032763Y0226158D01*
X0031996Y0227693D01*
X0031996Y0223089D02*
X0032763Y0221554D01*
X0034298Y0220020D01*
X0034298Y0222322D01*
X0035065Y0223089D01*
X0035833Y0223089D01*
X0036600Y0222322D01*
X0036600Y0220787D01*
X0035833Y0220020D01*
X0034298Y0220020D01*
X0033531Y0218485D02*
X0032763Y0218485D01*
X0031996Y0217718D01*
X0031996Y0216183D01*
X0032763Y0215416D01*
X0032763Y0213881D02*
X0033531Y0213881D01*
X0034298Y0213114D01*
X0034298Y0211579D01*
X0033531Y0210812D01*
X0032763Y0210812D01*
X0031996Y0211579D01*
X0031996Y0213114D01*
X0032763Y0213881D01*
X0034298Y0213114D02*
X0035065Y0213881D01*
X0035833Y0213881D01*
X0036600Y0213114D01*
X0036600Y0211579D01*
X0035833Y0210812D01*
X0035065Y0210812D01*
X0034298Y0211579D01*
X0034298Y0209277D02*
X0035065Y0208510D01*
X0035065Y0206208D01*
X0035065Y0204673D02*
X0035833Y0204673D01*
X0036600Y0203906D01*
X0036600Y0202371D01*
X0035833Y0201604D01*
X0036600Y0200069D02*
X0036600Y0197000D01*
X0031996Y0197000D01*
X0031996Y0200069D01*
X0032763Y0201604D02*
X0031996Y0202371D01*
X0031996Y0203906D01*
X0032763Y0204673D01*
X0031996Y0206208D02*
X0031996Y0208510D01*
X0032763Y0209277D01*
X0034298Y0209277D01*
X0036600Y0206208D02*
X0031996Y0206208D01*
X0034298Y0203906D02*
X0034298Y0202371D01*
X0033531Y0201604D01*
X0032763Y0201604D01*
X0034298Y0203906D02*
X0035065Y0204673D01*
X0034298Y0198535D02*
X0034298Y0197000D01*
X0036600Y0215416D02*
X0033531Y0218485D01*
X0036600Y0218485D02*
X0036600Y0215416D01*
D15*
X0035550Y0188053D02*
X0035550Y0185050D01*
X0035550Y0186551D02*
X0031046Y0186551D01*
X0032547Y0185050D01*
X0006799Y0217050D02*
X0006049Y0217050D01*
X0005298Y0217801D01*
X0005298Y0219302D01*
X0006049Y0220053D01*
X0006799Y0220053D01*
X0007550Y0219302D01*
X0007550Y0217801D01*
X0006799Y0217050D01*
X0005298Y0217801D02*
X0004547Y0217050D01*
X0003797Y0217050D01*
X0003046Y0217801D01*
X0003046Y0219302D01*
X0003797Y0220053D01*
X0004547Y0220053D01*
X0005298Y0219302D01*
X0037863Y0144143D02*
X0031957Y0138237D01*
X0031957Y0130363D01*
X0037863Y0124457D01*
X0045737Y0124457D01*
X0051643Y0130363D01*
X0051643Y0138237D01*
X0045737Y0144143D01*
X0037863Y0144143D01*
X0032997Y0134300D02*
X0033000Y0134516D01*
X0033008Y0134732D01*
X0033021Y0134948D01*
X0033039Y0135163D01*
X0033063Y0135378D01*
X0033092Y0135592D01*
X0033127Y0135805D01*
X0033166Y0136017D01*
X0033211Y0136229D01*
X0033261Y0136439D01*
X0033316Y0136648D01*
X0033376Y0136855D01*
X0033441Y0137061D01*
X0033512Y0137266D01*
X0033587Y0137468D01*
X0033667Y0137669D01*
X0033752Y0137867D01*
X0033842Y0138064D01*
X0033937Y0138258D01*
X0034036Y0138450D01*
X0034141Y0138639D01*
X0034249Y0138826D01*
X0034363Y0139010D01*
X0034481Y0139191D01*
X0034603Y0139369D01*
X0034729Y0139544D01*
X0034860Y0139716D01*
X0034995Y0139885D01*
X0035134Y0140050D01*
X0035277Y0140212D01*
X0035424Y0140370D01*
X0035575Y0140525D01*
X0035730Y0140676D01*
X0035888Y0140823D01*
X0036050Y0140966D01*
X0036215Y0141105D01*
X0036384Y0141240D01*
X0036556Y0141371D01*
X0036731Y0141497D01*
X0036909Y0141619D01*
X0037090Y0141737D01*
X0037274Y0141851D01*
X0037461Y0141959D01*
X0037650Y0142064D01*
X0037842Y0142163D01*
X0038036Y0142258D01*
X0038233Y0142348D01*
X0038431Y0142433D01*
X0038632Y0142513D01*
X0038834Y0142588D01*
X0039039Y0142659D01*
X0039245Y0142724D01*
X0039452Y0142784D01*
X0039661Y0142839D01*
X0039871Y0142889D01*
X0040083Y0142934D01*
X0040295Y0142973D01*
X0040508Y0143008D01*
X0040722Y0143037D01*
X0040937Y0143061D01*
X0041152Y0143079D01*
X0041368Y0143092D01*
X0041584Y0143100D01*
X0041800Y0143103D01*
X0042016Y0143100D01*
X0042232Y0143092D01*
X0042448Y0143079D01*
X0042663Y0143061D01*
X0042878Y0143037D01*
X0043092Y0143008D01*
X0043305Y0142973D01*
X0043517Y0142934D01*
X0043729Y0142889D01*
X0043939Y0142839D01*
X0044148Y0142784D01*
X0044355Y0142724D01*
X0044561Y0142659D01*
X0044766Y0142588D01*
X0044968Y0142513D01*
X0045169Y0142433D01*
X0045367Y0142348D01*
X0045564Y0142258D01*
X0045758Y0142163D01*
X0045950Y0142064D01*
X0046139Y0141959D01*
X0046326Y0141851D01*
X0046510Y0141737D01*
X0046691Y0141619D01*
X0046869Y0141497D01*
X0047044Y0141371D01*
X0047216Y0141240D01*
X0047385Y0141105D01*
X0047550Y0140966D01*
X0047712Y0140823D01*
X0047870Y0140676D01*
X0048025Y0140525D01*
X0048176Y0140370D01*
X0048323Y0140212D01*
X0048466Y0140050D01*
X0048605Y0139885D01*
X0048740Y0139716D01*
X0048871Y0139544D01*
X0048997Y0139369D01*
X0049119Y0139191D01*
X0049237Y0139010D01*
X0049351Y0138826D01*
X0049459Y0138639D01*
X0049564Y0138450D01*
X0049663Y0138258D01*
X0049758Y0138064D01*
X0049848Y0137867D01*
X0049933Y0137669D01*
X0050013Y0137468D01*
X0050088Y0137266D01*
X0050159Y0137061D01*
X0050224Y0136855D01*
X0050284Y0136648D01*
X0050339Y0136439D01*
X0050389Y0136229D01*
X0050434Y0136017D01*
X0050473Y0135805D01*
X0050508Y0135592D01*
X0050537Y0135378D01*
X0050561Y0135163D01*
X0050579Y0134948D01*
X0050592Y0134732D01*
X0050600Y0134516D01*
X0050603Y0134300D01*
X0050600Y0134084D01*
X0050592Y0133868D01*
X0050579Y0133652D01*
X0050561Y0133437D01*
X0050537Y0133222D01*
X0050508Y0133008D01*
X0050473Y0132795D01*
X0050434Y0132583D01*
X0050389Y0132371D01*
X0050339Y0132161D01*
X0050284Y0131952D01*
X0050224Y0131745D01*
X0050159Y0131539D01*
X0050088Y0131334D01*
X0050013Y0131132D01*
X0049933Y0130931D01*
X0049848Y0130733D01*
X0049758Y0130536D01*
X0049663Y0130342D01*
X0049564Y0130150D01*
X0049459Y0129961D01*
X0049351Y0129774D01*
X0049237Y0129590D01*
X0049119Y0129409D01*
X0048997Y0129231D01*
X0048871Y0129056D01*
X0048740Y0128884D01*
X0048605Y0128715D01*
X0048466Y0128550D01*
X0048323Y0128388D01*
X0048176Y0128230D01*
X0048025Y0128075D01*
X0047870Y0127924D01*
X0047712Y0127777D01*
X0047550Y0127634D01*
X0047385Y0127495D01*
X0047216Y0127360D01*
X0047044Y0127229D01*
X0046869Y0127103D01*
X0046691Y0126981D01*
X0046510Y0126863D01*
X0046326Y0126749D01*
X0046139Y0126641D01*
X0045950Y0126536D01*
X0045758Y0126437D01*
X0045564Y0126342D01*
X0045367Y0126252D01*
X0045169Y0126167D01*
X0044968Y0126087D01*
X0044766Y0126012D01*
X0044561Y0125941D01*
X0044355Y0125876D01*
X0044148Y0125816D01*
X0043939Y0125761D01*
X0043729Y0125711D01*
X0043517Y0125666D01*
X0043305Y0125627D01*
X0043092Y0125592D01*
X0042878Y0125563D01*
X0042663Y0125539D01*
X0042448Y0125521D01*
X0042232Y0125508D01*
X0042016Y0125500D01*
X0041800Y0125497D01*
X0041584Y0125500D01*
X0041368Y0125508D01*
X0041152Y0125521D01*
X0040937Y0125539D01*
X0040722Y0125563D01*
X0040508Y0125592D01*
X0040295Y0125627D01*
X0040083Y0125666D01*
X0039871Y0125711D01*
X0039661Y0125761D01*
X0039452Y0125816D01*
X0039245Y0125876D01*
X0039039Y0125941D01*
X0038834Y0126012D01*
X0038632Y0126087D01*
X0038431Y0126167D01*
X0038233Y0126252D01*
X0038036Y0126342D01*
X0037842Y0126437D01*
X0037650Y0126536D01*
X0037461Y0126641D01*
X0037274Y0126749D01*
X0037090Y0126863D01*
X0036909Y0126981D01*
X0036731Y0127103D01*
X0036556Y0127229D01*
X0036384Y0127360D01*
X0036215Y0127495D01*
X0036050Y0127634D01*
X0035888Y0127777D01*
X0035730Y0127924D01*
X0035575Y0128075D01*
X0035424Y0128230D01*
X0035277Y0128388D01*
X0035134Y0128550D01*
X0034995Y0128715D01*
X0034860Y0128884D01*
X0034729Y0129056D01*
X0034603Y0129231D01*
X0034481Y0129409D01*
X0034363Y0129590D01*
X0034249Y0129774D01*
X0034141Y0129961D01*
X0034036Y0130150D01*
X0033937Y0130342D01*
X0033842Y0130536D01*
X0033752Y0130733D01*
X0033667Y0130931D01*
X0033587Y0131132D01*
X0033512Y0131334D01*
X0033441Y0131539D01*
X0033376Y0131745D01*
X0033316Y0131952D01*
X0033261Y0132161D01*
X0033211Y0132371D01*
X0033166Y0132583D01*
X0033127Y0132795D01*
X0033092Y0133008D01*
X0033063Y0133222D01*
X0033039Y0133437D01*
X0033021Y0133652D01*
X0033008Y0133868D01*
X0033000Y0134084D01*
X0032997Y0134300D01*
X0019050Y0112949D02*
X0019050Y0109946D01*
X0019050Y0111447D02*
X0014546Y0111447D01*
X0016047Y0109946D01*
X0010050Y0110028D02*
X0010050Y0111529D01*
X0009299Y0112280D01*
X0007798Y0112280D01*
X0007798Y0110779D01*
X0006297Y0112280D02*
X0005546Y0111529D01*
X0005546Y0110028D01*
X0006297Y0109277D01*
X0009299Y0109277D01*
X0010050Y0110028D01*
X0009299Y0107676D02*
X0006297Y0107676D01*
X0005546Y0106925D01*
X0005546Y0105424D01*
X0006297Y0104674D01*
X0009299Y0104674D01*
X0010050Y0105424D01*
X0010050Y0106925D01*
X0009299Y0107676D01*
X0010050Y0103072D02*
X0008549Y0101571D01*
X0008549Y0102322D02*
X0008549Y0100070D01*
X0010050Y0100070D02*
X0005546Y0100070D01*
X0005546Y0102322D01*
X0006297Y0103072D01*
X0007798Y0103072D01*
X0008549Y0102322D01*
X0007798Y0098468D02*
X0006297Y0098468D01*
X0005546Y0097718D01*
X0005546Y0095466D01*
X0010050Y0095466D01*
X0008549Y0095466D02*
X0008549Y0097718D01*
X0007798Y0098468D01*
X0010801Y0093864D02*
X0010801Y0090862D01*
X0008549Y0089260D02*
X0010050Y0087759D01*
X0008549Y0086258D01*
X0005546Y0086258D01*
X0006297Y0084656D02*
X0007798Y0084656D01*
X0008549Y0083906D01*
X0008549Y0081654D01*
X0010050Y0081654D02*
X0005546Y0081654D01*
X0005546Y0083906D01*
X0006297Y0084656D01*
X0008549Y0083155D02*
X0010050Y0084656D01*
X0009299Y0080053D02*
X0010050Y0079302D01*
X0010050Y0077801D01*
X0009299Y0077050D01*
X0007798Y0077801D02*
X0007798Y0079302D01*
X0008549Y0080053D01*
X0009299Y0080053D01*
X0007798Y0077801D02*
X0007047Y0077050D01*
X0006297Y0077050D01*
X0005546Y0077801D01*
X0005546Y0079302D01*
X0006297Y0080053D01*
X0005546Y0089260D02*
X0008549Y0089260D01*
X0135738Y0106301D02*
X0136489Y0105550D01*
X0137990Y0105550D01*
X0138741Y0106301D01*
X0138741Y0107051D01*
X0137990Y0107802D01*
X0136489Y0107802D01*
X0135738Y0108553D01*
X0135738Y0109303D01*
X0136489Y0110054D01*
X0137990Y0110054D01*
X0138741Y0109303D01*
X0140342Y0110054D02*
X0140342Y0107051D01*
X0141843Y0105550D01*
X0143345Y0107051D01*
X0143345Y0110054D01*
X0144946Y0107802D02*
X0147949Y0107802D01*
X0147198Y0105550D02*
X0147198Y0110054D01*
X0144946Y0107802D01*
X0154546Y0086198D02*
X0156798Y0083946D01*
X0156798Y0086949D01*
X0159050Y0086198D02*
X0154546Y0086198D01*
X0159050Y0082449D02*
X0159050Y0079446D01*
X0159050Y0080947D02*
X0154546Y0080947D01*
X0156047Y0079446D01*
X0147949Y0060054D02*
X0144946Y0060054D01*
X0144946Y0057802D01*
X0146447Y0058553D01*
X0147198Y0058553D01*
X0147949Y0057802D01*
X0147949Y0056301D01*
X0147198Y0055550D01*
X0145697Y0055550D01*
X0144946Y0056301D01*
X0143345Y0057051D02*
X0143345Y0060054D01*
X0143345Y0057051D02*
X0141843Y0055550D01*
X0140342Y0057051D01*
X0140342Y0060054D01*
X0138741Y0059303D02*
X0137990Y0060054D01*
X0136489Y0060054D01*
X0135738Y0059303D01*
X0135738Y0058553D01*
X0136489Y0057802D01*
X0137990Y0057802D01*
X0138741Y0057051D01*
X0138741Y0056301D01*
X0137990Y0055550D01*
X0136489Y0055550D01*
X0135738Y0056301D01*
X0154546Y0036198D02*
X0156798Y0033946D01*
X0156798Y0036949D01*
X0159050Y0036198D02*
X0154546Y0036198D01*
X0195946Y0055550D02*
X0198949Y0058553D01*
X0198949Y0059303D01*
X0198198Y0060054D01*
X0196697Y0060054D01*
X0195946Y0059303D01*
X0195946Y0055550D02*
X0198949Y0055550D01*
X0212942Y0037174D02*
X0230658Y0037174D01*
X0230658Y0013552D01*
X0212942Y0013552D01*
X0212942Y0037174D01*
X0229842Y0034303D02*
X0229842Y0033553D01*
X0230593Y0032802D01*
X0232094Y0032802D01*
X0232845Y0032051D01*
X0232845Y0031301D01*
X0232094Y0030550D01*
X0230593Y0030550D01*
X0229842Y0031301D01*
X0229842Y0034303D02*
X0230593Y0035054D01*
X0232094Y0035054D01*
X0232845Y0034303D01*
X0234446Y0033553D02*
X0235947Y0035054D01*
X0235947Y0030550D01*
X0234446Y0030550D02*
X0237449Y0030550D01*
X0235949Y0055550D02*
X0232946Y0055550D01*
X0234447Y0055550D02*
X0234447Y0060054D01*
X0232946Y0058553D01*
X0220737Y0074457D02*
X0226643Y0080363D01*
X0226643Y0088237D01*
X0220737Y0094143D01*
X0212863Y0094143D01*
X0206957Y0088237D01*
X0206957Y0080363D01*
X0212863Y0074457D01*
X0220737Y0074457D01*
X0207997Y0084300D02*
X0208000Y0084516D01*
X0208008Y0084732D01*
X0208021Y0084948D01*
X0208039Y0085163D01*
X0208063Y0085378D01*
X0208092Y0085592D01*
X0208127Y0085805D01*
X0208166Y0086017D01*
X0208211Y0086229D01*
X0208261Y0086439D01*
X0208316Y0086648D01*
X0208376Y0086855D01*
X0208441Y0087061D01*
X0208512Y0087266D01*
X0208587Y0087468D01*
X0208667Y0087669D01*
X0208752Y0087867D01*
X0208842Y0088064D01*
X0208937Y0088258D01*
X0209036Y0088450D01*
X0209141Y0088639D01*
X0209249Y0088826D01*
X0209363Y0089010D01*
X0209481Y0089191D01*
X0209603Y0089369D01*
X0209729Y0089544D01*
X0209860Y0089716D01*
X0209995Y0089885D01*
X0210134Y0090050D01*
X0210277Y0090212D01*
X0210424Y0090370D01*
X0210575Y0090525D01*
X0210730Y0090676D01*
X0210888Y0090823D01*
X0211050Y0090966D01*
X0211215Y0091105D01*
X0211384Y0091240D01*
X0211556Y0091371D01*
X0211731Y0091497D01*
X0211909Y0091619D01*
X0212090Y0091737D01*
X0212274Y0091851D01*
X0212461Y0091959D01*
X0212650Y0092064D01*
X0212842Y0092163D01*
X0213036Y0092258D01*
X0213233Y0092348D01*
X0213431Y0092433D01*
X0213632Y0092513D01*
X0213834Y0092588D01*
X0214039Y0092659D01*
X0214245Y0092724D01*
X0214452Y0092784D01*
X0214661Y0092839D01*
X0214871Y0092889D01*
X0215083Y0092934D01*
X0215295Y0092973D01*
X0215508Y0093008D01*
X0215722Y0093037D01*
X0215937Y0093061D01*
X0216152Y0093079D01*
X0216368Y0093092D01*
X0216584Y0093100D01*
X0216800Y0093103D01*
X0217016Y0093100D01*
X0217232Y0093092D01*
X0217448Y0093079D01*
X0217663Y0093061D01*
X0217878Y0093037D01*
X0218092Y0093008D01*
X0218305Y0092973D01*
X0218517Y0092934D01*
X0218729Y0092889D01*
X0218939Y0092839D01*
X0219148Y0092784D01*
X0219355Y0092724D01*
X0219561Y0092659D01*
X0219766Y0092588D01*
X0219968Y0092513D01*
X0220169Y0092433D01*
X0220367Y0092348D01*
X0220564Y0092258D01*
X0220758Y0092163D01*
X0220950Y0092064D01*
X0221139Y0091959D01*
X0221326Y0091851D01*
X0221510Y0091737D01*
X0221691Y0091619D01*
X0221869Y0091497D01*
X0222044Y0091371D01*
X0222216Y0091240D01*
X0222385Y0091105D01*
X0222550Y0090966D01*
X0222712Y0090823D01*
X0222870Y0090676D01*
X0223025Y0090525D01*
X0223176Y0090370D01*
X0223323Y0090212D01*
X0223466Y0090050D01*
X0223605Y0089885D01*
X0223740Y0089716D01*
X0223871Y0089544D01*
X0223997Y0089369D01*
X0224119Y0089191D01*
X0224237Y0089010D01*
X0224351Y0088826D01*
X0224459Y0088639D01*
X0224564Y0088450D01*
X0224663Y0088258D01*
X0224758Y0088064D01*
X0224848Y0087867D01*
X0224933Y0087669D01*
X0225013Y0087468D01*
X0225088Y0087266D01*
X0225159Y0087061D01*
X0225224Y0086855D01*
X0225284Y0086648D01*
X0225339Y0086439D01*
X0225389Y0086229D01*
X0225434Y0086017D01*
X0225473Y0085805D01*
X0225508Y0085592D01*
X0225537Y0085378D01*
X0225561Y0085163D01*
X0225579Y0084948D01*
X0225592Y0084732D01*
X0225600Y0084516D01*
X0225603Y0084300D01*
X0225600Y0084084D01*
X0225592Y0083868D01*
X0225579Y0083652D01*
X0225561Y0083437D01*
X0225537Y0083222D01*
X0225508Y0083008D01*
X0225473Y0082795D01*
X0225434Y0082583D01*
X0225389Y0082371D01*
X0225339Y0082161D01*
X0225284Y0081952D01*
X0225224Y0081745D01*
X0225159Y0081539D01*
X0225088Y0081334D01*
X0225013Y0081132D01*
X0224933Y0080931D01*
X0224848Y0080733D01*
X0224758Y0080536D01*
X0224663Y0080342D01*
X0224564Y0080150D01*
X0224459Y0079961D01*
X0224351Y0079774D01*
X0224237Y0079590D01*
X0224119Y0079409D01*
X0223997Y0079231D01*
X0223871Y0079056D01*
X0223740Y0078884D01*
X0223605Y0078715D01*
X0223466Y0078550D01*
X0223323Y0078388D01*
X0223176Y0078230D01*
X0223025Y0078075D01*
X0222870Y0077924D01*
X0222712Y0077777D01*
X0222550Y0077634D01*
X0222385Y0077495D01*
X0222216Y0077360D01*
X0222044Y0077229D01*
X0221869Y0077103D01*
X0221691Y0076981D01*
X0221510Y0076863D01*
X0221326Y0076749D01*
X0221139Y0076641D01*
X0220950Y0076536D01*
X0220758Y0076437D01*
X0220564Y0076342D01*
X0220367Y0076252D01*
X0220169Y0076167D01*
X0219968Y0076087D01*
X0219766Y0076012D01*
X0219561Y0075941D01*
X0219355Y0075876D01*
X0219148Y0075816D01*
X0218939Y0075761D01*
X0218729Y0075711D01*
X0218517Y0075666D01*
X0218305Y0075627D01*
X0218092Y0075592D01*
X0217878Y0075563D01*
X0217663Y0075539D01*
X0217448Y0075521D01*
X0217232Y0075508D01*
X0217016Y0075500D01*
X0216800Y0075497D01*
X0216584Y0075500D01*
X0216368Y0075508D01*
X0216152Y0075521D01*
X0215937Y0075539D01*
X0215722Y0075563D01*
X0215508Y0075592D01*
X0215295Y0075627D01*
X0215083Y0075666D01*
X0214871Y0075711D01*
X0214661Y0075761D01*
X0214452Y0075816D01*
X0214245Y0075876D01*
X0214039Y0075941D01*
X0213834Y0076012D01*
X0213632Y0076087D01*
X0213431Y0076167D01*
X0213233Y0076252D01*
X0213036Y0076342D01*
X0212842Y0076437D01*
X0212650Y0076536D01*
X0212461Y0076641D01*
X0212274Y0076749D01*
X0212090Y0076863D01*
X0211909Y0076981D01*
X0211731Y0077103D01*
X0211556Y0077229D01*
X0211384Y0077360D01*
X0211215Y0077495D01*
X0211050Y0077634D01*
X0210888Y0077777D01*
X0210730Y0077924D01*
X0210575Y0078075D01*
X0210424Y0078230D01*
X0210277Y0078388D01*
X0210134Y0078550D01*
X0209995Y0078715D01*
X0209860Y0078884D01*
X0209729Y0079056D01*
X0209603Y0079231D01*
X0209481Y0079409D01*
X0209363Y0079590D01*
X0209249Y0079774D01*
X0209141Y0079961D01*
X0209036Y0080150D01*
X0208937Y0080342D01*
X0208842Y0080536D01*
X0208752Y0080733D01*
X0208667Y0080931D01*
X0208587Y0081132D01*
X0208512Y0081334D01*
X0208441Y0081539D01*
X0208376Y0081745D01*
X0208316Y0081952D01*
X0208261Y0082161D01*
X0208211Y0082371D01*
X0208166Y0082583D01*
X0208127Y0082795D01*
X0208092Y0083008D01*
X0208063Y0083222D01*
X0208039Y0083437D01*
X0208021Y0083652D01*
X0208008Y0083868D01*
X0208000Y0084084D01*
X0207997Y0084300D01*
X0212863Y0114457D02*
X0206957Y0120363D01*
X0206957Y0128237D01*
X0212863Y0134143D01*
X0220737Y0134143D01*
X0226643Y0128237D01*
X0226643Y0120363D01*
X0220737Y0114457D01*
X0212863Y0114457D01*
X0207997Y0124300D02*
X0208000Y0124516D01*
X0208008Y0124732D01*
X0208021Y0124948D01*
X0208039Y0125163D01*
X0208063Y0125378D01*
X0208092Y0125592D01*
X0208127Y0125805D01*
X0208166Y0126017D01*
X0208211Y0126229D01*
X0208261Y0126439D01*
X0208316Y0126648D01*
X0208376Y0126855D01*
X0208441Y0127061D01*
X0208512Y0127266D01*
X0208587Y0127468D01*
X0208667Y0127669D01*
X0208752Y0127867D01*
X0208842Y0128064D01*
X0208937Y0128258D01*
X0209036Y0128450D01*
X0209141Y0128639D01*
X0209249Y0128826D01*
X0209363Y0129010D01*
X0209481Y0129191D01*
X0209603Y0129369D01*
X0209729Y0129544D01*
X0209860Y0129716D01*
X0209995Y0129885D01*
X0210134Y0130050D01*
X0210277Y0130212D01*
X0210424Y0130370D01*
X0210575Y0130525D01*
X0210730Y0130676D01*
X0210888Y0130823D01*
X0211050Y0130966D01*
X0211215Y0131105D01*
X0211384Y0131240D01*
X0211556Y0131371D01*
X0211731Y0131497D01*
X0211909Y0131619D01*
X0212090Y0131737D01*
X0212274Y0131851D01*
X0212461Y0131959D01*
X0212650Y0132064D01*
X0212842Y0132163D01*
X0213036Y0132258D01*
X0213233Y0132348D01*
X0213431Y0132433D01*
X0213632Y0132513D01*
X0213834Y0132588D01*
X0214039Y0132659D01*
X0214245Y0132724D01*
X0214452Y0132784D01*
X0214661Y0132839D01*
X0214871Y0132889D01*
X0215083Y0132934D01*
X0215295Y0132973D01*
X0215508Y0133008D01*
X0215722Y0133037D01*
X0215937Y0133061D01*
X0216152Y0133079D01*
X0216368Y0133092D01*
X0216584Y0133100D01*
X0216800Y0133103D01*
X0217016Y0133100D01*
X0217232Y0133092D01*
X0217448Y0133079D01*
X0217663Y0133061D01*
X0217878Y0133037D01*
X0218092Y0133008D01*
X0218305Y0132973D01*
X0218517Y0132934D01*
X0218729Y0132889D01*
X0218939Y0132839D01*
X0219148Y0132784D01*
X0219355Y0132724D01*
X0219561Y0132659D01*
X0219766Y0132588D01*
X0219968Y0132513D01*
X0220169Y0132433D01*
X0220367Y0132348D01*
X0220564Y0132258D01*
X0220758Y0132163D01*
X0220950Y0132064D01*
X0221139Y0131959D01*
X0221326Y0131851D01*
X0221510Y0131737D01*
X0221691Y0131619D01*
X0221869Y0131497D01*
X0222044Y0131371D01*
X0222216Y0131240D01*
X0222385Y0131105D01*
X0222550Y0130966D01*
X0222712Y0130823D01*
X0222870Y0130676D01*
X0223025Y0130525D01*
X0223176Y0130370D01*
X0223323Y0130212D01*
X0223466Y0130050D01*
X0223605Y0129885D01*
X0223740Y0129716D01*
X0223871Y0129544D01*
X0223997Y0129369D01*
X0224119Y0129191D01*
X0224237Y0129010D01*
X0224351Y0128826D01*
X0224459Y0128639D01*
X0224564Y0128450D01*
X0224663Y0128258D01*
X0224758Y0128064D01*
X0224848Y0127867D01*
X0224933Y0127669D01*
X0225013Y0127468D01*
X0225088Y0127266D01*
X0225159Y0127061D01*
X0225224Y0126855D01*
X0225284Y0126648D01*
X0225339Y0126439D01*
X0225389Y0126229D01*
X0225434Y0126017D01*
X0225473Y0125805D01*
X0225508Y0125592D01*
X0225537Y0125378D01*
X0225561Y0125163D01*
X0225579Y0124948D01*
X0225592Y0124732D01*
X0225600Y0124516D01*
X0225603Y0124300D01*
X0225600Y0124084D01*
X0225592Y0123868D01*
X0225579Y0123652D01*
X0225561Y0123437D01*
X0225537Y0123222D01*
X0225508Y0123008D01*
X0225473Y0122795D01*
X0225434Y0122583D01*
X0225389Y0122371D01*
X0225339Y0122161D01*
X0225284Y0121952D01*
X0225224Y0121745D01*
X0225159Y0121539D01*
X0225088Y0121334D01*
X0225013Y0121132D01*
X0224933Y0120931D01*
X0224848Y0120733D01*
X0224758Y0120536D01*
X0224663Y0120342D01*
X0224564Y0120150D01*
X0224459Y0119961D01*
X0224351Y0119774D01*
X0224237Y0119590D01*
X0224119Y0119409D01*
X0223997Y0119231D01*
X0223871Y0119056D01*
X0223740Y0118884D01*
X0223605Y0118715D01*
X0223466Y0118550D01*
X0223323Y0118388D01*
X0223176Y0118230D01*
X0223025Y0118075D01*
X0222870Y0117924D01*
X0222712Y0117777D01*
X0222550Y0117634D01*
X0222385Y0117495D01*
X0222216Y0117360D01*
X0222044Y0117229D01*
X0221869Y0117103D01*
X0221691Y0116981D01*
X0221510Y0116863D01*
X0221326Y0116749D01*
X0221139Y0116641D01*
X0220950Y0116536D01*
X0220758Y0116437D01*
X0220564Y0116342D01*
X0220367Y0116252D01*
X0220169Y0116167D01*
X0219968Y0116087D01*
X0219766Y0116012D01*
X0219561Y0115941D01*
X0219355Y0115876D01*
X0219148Y0115816D01*
X0218939Y0115761D01*
X0218729Y0115711D01*
X0218517Y0115666D01*
X0218305Y0115627D01*
X0218092Y0115592D01*
X0217878Y0115563D01*
X0217663Y0115539D01*
X0217448Y0115521D01*
X0217232Y0115508D01*
X0217016Y0115500D01*
X0216800Y0115497D01*
X0216584Y0115500D01*
X0216368Y0115508D01*
X0216152Y0115521D01*
X0215937Y0115539D01*
X0215722Y0115563D01*
X0215508Y0115592D01*
X0215295Y0115627D01*
X0215083Y0115666D01*
X0214871Y0115711D01*
X0214661Y0115761D01*
X0214452Y0115816D01*
X0214245Y0115876D01*
X0214039Y0115941D01*
X0213834Y0116012D01*
X0213632Y0116087D01*
X0213431Y0116167D01*
X0213233Y0116252D01*
X0213036Y0116342D01*
X0212842Y0116437D01*
X0212650Y0116536D01*
X0212461Y0116641D01*
X0212274Y0116749D01*
X0212090Y0116863D01*
X0211909Y0116981D01*
X0211731Y0117103D01*
X0211556Y0117229D01*
X0211384Y0117360D01*
X0211215Y0117495D01*
X0211050Y0117634D01*
X0210888Y0117777D01*
X0210730Y0117924D01*
X0210575Y0118075D01*
X0210424Y0118230D01*
X0210277Y0118388D01*
X0210134Y0118550D01*
X0209995Y0118715D01*
X0209860Y0118884D01*
X0209729Y0119056D01*
X0209603Y0119231D01*
X0209481Y0119409D01*
X0209363Y0119590D01*
X0209249Y0119774D01*
X0209141Y0119961D01*
X0209036Y0120150D01*
X0208937Y0120342D01*
X0208842Y0120536D01*
X0208752Y0120733D01*
X0208667Y0120931D01*
X0208587Y0121132D01*
X0208512Y0121334D01*
X0208441Y0121539D01*
X0208376Y0121745D01*
X0208316Y0121952D01*
X0208261Y0122161D01*
X0208211Y0122371D01*
X0208166Y0122583D01*
X0208127Y0122795D01*
X0208092Y0123008D01*
X0208063Y0123222D01*
X0208039Y0123437D01*
X0208021Y0123652D01*
X0208008Y0123868D01*
X0208000Y0124084D01*
X0207997Y0124300D01*
X0212863Y0154457D02*
X0206957Y0160363D01*
X0206957Y0168237D01*
X0212863Y0174143D01*
X0220737Y0174143D01*
X0226643Y0168237D01*
X0226643Y0160363D01*
X0220737Y0154457D01*
X0212863Y0154457D01*
X0207997Y0164300D02*
X0208000Y0164516D01*
X0208008Y0164732D01*
X0208021Y0164948D01*
X0208039Y0165163D01*
X0208063Y0165378D01*
X0208092Y0165592D01*
X0208127Y0165805D01*
X0208166Y0166017D01*
X0208211Y0166229D01*
X0208261Y0166439D01*
X0208316Y0166648D01*
X0208376Y0166855D01*
X0208441Y0167061D01*
X0208512Y0167266D01*
X0208587Y0167468D01*
X0208667Y0167669D01*
X0208752Y0167867D01*
X0208842Y0168064D01*
X0208937Y0168258D01*
X0209036Y0168450D01*
X0209141Y0168639D01*
X0209249Y0168826D01*
X0209363Y0169010D01*
X0209481Y0169191D01*
X0209603Y0169369D01*
X0209729Y0169544D01*
X0209860Y0169716D01*
X0209995Y0169885D01*
X0210134Y0170050D01*
X0210277Y0170212D01*
X0210424Y0170370D01*
X0210575Y0170525D01*
X0210730Y0170676D01*
X0210888Y0170823D01*
X0211050Y0170966D01*
X0211215Y0171105D01*
X0211384Y0171240D01*
X0211556Y0171371D01*
X0211731Y0171497D01*
X0211909Y0171619D01*
X0212090Y0171737D01*
X0212274Y0171851D01*
X0212461Y0171959D01*
X0212650Y0172064D01*
X0212842Y0172163D01*
X0213036Y0172258D01*
X0213233Y0172348D01*
X0213431Y0172433D01*
X0213632Y0172513D01*
X0213834Y0172588D01*
X0214039Y0172659D01*
X0214245Y0172724D01*
X0214452Y0172784D01*
X0214661Y0172839D01*
X0214871Y0172889D01*
X0215083Y0172934D01*
X0215295Y0172973D01*
X0215508Y0173008D01*
X0215722Y0173037D01*
X0215937Y0173061D01*
X0216152Y0173079D01*
X0216368Y0173092D01*
X0216584Y0173100D01*
X0216800Y0173103D01*
X0217016Y0173100D01*
X0217232Y0173092D01*
X0217448Y0173079D01*
X0217663Y0173061D01*
X0217878Y0173037D01*
X0218092Y0173008D01*
X0218305Y0172973D01*
X0218517Y0172934D01*
X0218729Y0172889D01*
X0218939Y0172839D01*
X0219148Y0172784D01*
X0219355Y0172724D01*
X0219561Y0172659D01*
X0219766Y0172588D01*
X0219968Y0172513D01*
X0220169Y0172433D01*
X0220367Y0172348D01*
X0220564Y0172258D01*
X0220758Y0172163D01*
X0220950Y0172064D01*
X0221139Y0171959D01*
X0221326Y0171851D01*
X0221510Y0171737D01*
X0221691Y0171619D01*
X0221869Y0171497D01*
X0222044Y0171371D01*
X0222216Y0171240D01*
X0222385Y0171105D01*
X0222550Y0170966D01*
X0222712Y0170823D01*
X0222870Y0170676D01*
X0223025Y0170525D01*
X0223176Y0170370D01*
X0223323Y0170212D01*
X0223466Y0170050D01*
X0223605Y0169885D01*
X0223740Y0169716D01*
X0223871Y0169544D01*
X0223997Y0169369D01*
X0224119Y0169191D01*
X0224237Y0169010D01*
X0224351Y0168826D01*
X0224459Y0168639D01*
X0224564Y0168450D01*
X0224663Y0168258D01*
X0224758Y0168064D01*
X0224848Y0167867D01*
X0224933Y0167669D01*
X0225013Y0167468D01*
X0225088Y0167266D01*
X0225159Y0167061D01*
X0225224Y0166855D01*
X0225284Y0166648D01*
X0225339Y0166439D01*
X0225389Y0166229D01*
X0225434Y0166017D01*
X0225473Y0165805D01*
X0225508Y0165592D01*
X0225537Y0165378D01*
X0225561Y0165163D01*
X0225579Y0164948D01*
X0225592Y0164732D01*
X0225600Y0164516D01*
X0225603Y0164300D01*
X0225600Y0164084D01*
X0225592Y0163868D01*
X0225579Y0163652D01*
X0225561Y0163437D01*
X0225537Y0163222D01*
X0225508Y0163008D01*
X0225473Y0162795D01*
X0225434Y0162583D01*
X0225389Y0162371D01*
X0225339Y0162161D01*
X0225284Y0161952D01*
X0225224Y0161745D01*
X0225159Y0161539D01*
X0225088Y0161334D01*
X0225013Y0161132D01*
X0224933Y0160931D01*
X0224848Y0160733D01*
X0224758Y0160536D01*
X0224663Y0160342D01*
X0224564Y0160150D01*
X0224459Y0159961D01*
X0224351Y0159774D01*
X0224237Y0159590D01*
X0224119Y0159409D01*
X0223997Y0159231D01*
X0223871Y0159056D01*
X0223740Y0158884D01*
X0223605Y0158715D01*
X0223466Y0158550D01*
X0223323Y0158388D01*
X0223176Y0158230D01*
X0223025Y0158075D01*
X0222870Y0157924D01*
X0222712Y0157777D01*
X0222550Y0157634D01*
X0222385Y0157495D01*
X0222216Y0157360D01*
X0222044Y0157229D01*
X0221869Y0157103D01*
X0221691Y0156981D01*
X0221510Y0156863D01*
X0221326Y0156749D01*
X0221139Y0156641D01*
X0220950Y0156536D01*
X0220758Y0156437D01*
X0220564Y0156342D01*
X0220367Y0156252D01*
X0220169Y0156167D01*
X0219968Y0156087D01*
X0219766Y0156012D01*
X0219561Y0155941D01*
X0219355Y0155876D01*
X0219148Y0155816D01*
X0218939Y0155761D01*
X0218729Y0155711D01*
X0218517Y0155666D01*
X0218305Y0155627D01*
X0218092Y0155592D01*
X0217878Y0155563D01*
X0217663Y0155539D01*
X0217448Y0155521D01*
X0217232Y0155508D01*
X0217016Y0155500D01*
X0216800Y0155497D01*
X0216584Y0155500D01*
X0216368Y0155508D01*
X0216152Y0155521D01*
X0215937Y0155539D01*
X0215722Y0155563D01*
X0215508Y0155592D01*
X0215295Y0155627D01*
X0215083Y0155666D01*
X0214871Y0155711D01*
X0214661Y0155761D01*
X0214452Y0155816D01*
X0214245Y0155876D01*
X0214039Y0155941D01*
X0213834Y0156012D01*
X0213632Y0156087D01*
X0213431Y0156167D01*
X0213233Y0156252D01*
X0213036Y0156342D01*
X0212842Y0156437D01*
X0212650Y0156536D01*
X0212461Y0156641D01*
X0212274Y0156749D01*
X0212090Y0156863D01*
X0211909Y0156981D01*
X0211731Y0157103D01*
X0211556Y0157229D01*
X0211384Y0157360D01*
X0211215Y0157495D01*
X0211050Y0157634D01*
X0210888Y0157777D01*
X0210730Y0157924D01*
X0210575Y0158075D01*
X0210424Y0158230D01*
X0210277Y0158388D01*
X0210134Y0158550D01*
X0209995Y0158715D01*
X0209860Y0158884D01*
X0209729Y0159056D01*
X0209603Y0159231D01*
X0209481Y0159409D01*
X0209363Y0159590D01*
X0209249Y0159774D01*
X0209141Y0159961D01*
X0209036Y0160150D01*
X0208937Y0160342D01*
X0208842Y0160536D01*
X0208752Y0160733D01*
X0208667Y0160931D01*
X0208587Y0161132D01*
X0208512Y0161334D01*
X0208441Y0161539D01*
X0208376Y0161745D01*
X0208316Y0161952D01*
X0208261Y0162161D01*
X0208211Y0162371D01*
X0208166Y0162583D01*
X0208127Y0162795D01*
X0208092Y0163008D01*
X0208063Y0163222D01*
X0208039Y0163437D01*
X0208021Y0163652D01*
X0208008Y0163868D01*
X0208000Y0164084D01*
X0207997Y0164300D01*
X0212863Y0194457D02*
X0206957Y0200363D01*
X0206957Y0208237D01*
X0212863Y0214143D01*
X0220737Y0214143D01*
X0226643Y0208237D01*
X0226643Y0200363D01*
X0220737Y0194457D01*
X0212863Y0194457D01*
X0207997Y0204300D02*
X0208000Y0204516D01*
X0208008Y0204732D01*
X0208021Y0204948D01*
X0208039Y0205163D01*
X0208063Y0205378D01*
X0208092Y0205592D01*
X0208127Y0205805D01*
X0208166Y0206017D01*
X0208211Y0206229D01*
X0208261Y0206439D01*
X0208316Y0206648D01*
X0208376Y0206855D01*
X0208441Y0207061D01*
X0208512Y0207266D01*
X0208587Y0207468D01*
X0208667Y0207669D01*
X0208752Y0207867D01*
X0208842Y0208064D01*
X0208937Y0208258D01*
X0209036Y0208450D01*
X0209141Y0208639D01*
X0209249Y0208826D01*
X0209363Y0209010D01*
X0209481Y0209191D01*
X0209603Y0209369D01*
X0209729Y0209544D01*
X0209860Y0209716D01*
X0209995Y0209885D01*
X0210134Y0210050D01*
X0210277Y0210212D01*
X0210424Y0210370D01*
X0210575Y0210525D01*
X0210730Y0210676D01*
X0210888Y0210823D01*
X0211050Y0210966D01*
X0211215Y0211105D01*
X0211384Y0211240D01*
X0211556Y0211371D01*
X0211731Y0211497D01*
X0211909Y0211619D01*
X0212090Y0211737D01*
X0212274Y0211851D01*
X0212461Y0211959D01*
X0212650Y0212064D01*
X0212842Y0212163D01*
X0213036Y0212258D01*
X0213233Y0212348D01*
X0213431Y0212433D01*
X0213632Y0212513D01*
X0213834Y0212588D01*
X0214039Y0212659D01*
X0214245Y0212724D01*
X0214452Y0212784D01*
X0214661Y0212839D01*
X0214871Y0212889D01*
X0215083Y0212934D01*
X0215295Y0212973D01*
X0215508Y0213008D01*
X0215722Y0213037D01*
X0215937Y0213061D01*
X0216152Y0213079D01*
X0216368Y0213092D01*
X0216584Y0213100D01*
X0216800Y0213103D01*
X0217016Y0213100D01*
X0217232Y0213092D01*
X0217448Y0213079D01*
X0217663Y0213061D01*
X0217878Y0213037D01*
X0218092Y0213008D01*
X0218305Y0212973D01*
X0218517Y0212934D01*
X0218729Y0212889D01*
X0218939Y0212839D01*
X0219148Y0212784D01*
X0219355Y0212724D01*
X0219561Y0212659D01*
X0219766Y0212588D01*
X0219968Y0212513D01*
X0220169Y0212433D01*
X0220367Y0212348D01*
X0220564Y0212258D01*
X0220758Y0212163D01*
X0220950Y0212064D01*
X0221139Y0211959D01*
X0221326Y0211851D01*
X0221510Y0211737D01*
X0221691Y0211619D01*
X0221869Y0211497D01*
X0222044Y0211371D01*
X0222216Y0211240D01*
X0222385Y0211105D01*
X0222550Y0210966D01*
X0222712Y0210823D01*
X0222870Y0210676D01*
X0223025Y0210525D01*
X0223176Y0210370D01*
X0223323Y0210212D01*
X0223466Y0210050D01*
X0223605Y0209885D01*
X0223740Y0209716D01*
X0223871Y0209544D01*
X0223997Y0209369D01*
X0224119Y0209191D01*
X0224237Y0209010D01*
X0224351Y0208826D01*
X0224459Y0208639D01*
X0224564Y0208450D01*
X0224663Y0208258D01*
X0224758Y0208064D01*
X0224848Y0207867D01*
X0224933Y0207669D01*
X0225013Y0207468D01*
X0225088Y0207266D01*
X0225159Y0207061D01*
X0225224Y0206855D01*
X0225284Y0206648D01*
X0225339Y0206439D01*
X0225389Y0206229D01*
X0225434Y0206017D01*
X0225473Y0205805D01*
X0225508Y0205592D01*
X0225537Y0205378D01*
X0225561Y0205163D01*
X0225579Y0204948D01*
X0225592Y0204732D01*
X0225600Y0204516D01*
X0225603Y0204300D01*
X0225600Y0204084D01*
X0225592Y0203868D01*
X0225579Y0203652D01*
X0225561Y0203437D01*
X0225537Y0203222D01*
X0225508Y0203008D01*
X0225473Y0202795D01*
X0225434Y0202583D01*
X0225389Y0202371D01*
X0225339Y0202161D01*
X0225284Y0201952D01*
X0225224Y0201745D01*
X0225159Y0201539D01*
X0225088Y0201334D01*
X0225013Y0201132D01*
X0224933Y0200931D01*
X0224848Y0200733D01*
X0224758Y0200536D01*
X0224663Y0200342D01*
X0224564Y0200150D01*
X0224459Y0199961D01*
X0224351Y0199774D01*
X0224237Y0199590D01*
X0224119Y0199409D01*
X0223997Y0199231D01*
X0223871Y0199056D01*
X0223740Y0198884D01*
X0223605Y0198715D01*
X0223466Y0198550D01*
X0223323Y0198388D01*
X0223176Y0198230D01*
X0223025Y0198075D01*
X0222870Y0197924D01*
X0222712Y0197777D01*
X0222550Y0197634D01*
X0222385Y0197495D01*
X0222216Y0197360D01*
X0222044Y0197229D01*
X0221869Y0197103D01*
X0221691Y0196981D01*
X0221510Y0196863D01*
X0221326Y0196749D01*
X0221139Y0196641D01*
X0220950Y0196536D01*
X0220758Y0196437D01*
X0220564Y0196342D01*
X0220367Y0196252D01*
X0220169Y0196167D01*
X0219968Y0196087D01*
X0219766Y0196012D01*
X0219561Y0195941D01*
X0219355Y0195876D01*
X0219148Y0195816D01*
X0218939Y0195761D01*
X0218729Y0195711D01*
X0218517Y0195666D01*
X0218305Y0195627D01*
X0218092Y0195592D01*
X0217878Y0195563D01*
X0217663Y0195539D01*
X0217448Y0195521D01*
X0217232Y0195508D01*
X0217016Y0195500D01*
X0216800Y0195497D01*
X0216584Y0195500D01*
X0216368Y0195508D01*
X0216152Y0195521D01*
X0215937Y0195539D01*
X0215722Y0195563D01*
X0215508Y0195592D01*
X0215295Y0195627D01*
X0215083Y0195666D01*
X0214871Y0195711D01*
X0214661Y0195761D01*
X0214452Y0195816D01*
X0214245Y0195876D01*
X0214039Y0195941D01*
X0213834Y0196012D01*
X0213632Y0196087D01*
X0213431Y0196167D01*
X0213233Y0196252D01*
X0213036Y0196342D01*
X0212842Y0196437D01*
X0212650Y0196536D01*
X0212461Y0196641D01*
X0212274Y0196749D01*
X0212090Y0196863D01*
X0211909Y0196981D01*
X0211731Y0197103D01*
X0211556Y0197229D01*
X0211384Y0197360D01*
X0211215Y0197495D01*
X0211050Y0197634D01*
X0210888Y0197777D01*
X0210730Y0197924D01*
X0210575Y0198075D01*
X0210424Y0198230D01*
X0210277Y0198388D01*
X0210134Y0198550D01*
X0209995Y0198715D01*
X0209860Y0198884D01*
X0209729Y0199056D01*
X0209603Y0199231D01*
X0209481Y0199409D01*
X0209363Y0199590D01*
X0209249Y0199774D01*
X0209141Y0199961D01*
X0209036Y0200150D01*
X0208937Y0200342D01*
X0208842Y0200536D01*
X0208752Y0200733D01*
X0208667Y0200931D01*
X0208587Y0201132D01*
X0208512Y0201334D01*
X0208441Y0201539D01*
X0208376Y0201745D01*
X0208316Y0201952D01*
X0208261Y0202161D01*
X0208211Y0202371D01*
X0208166Y0202583D01*
X0208127Y0202795D01*
X0208092Y0203008D01*
X0208063Y0203222D01*
X0208039Y0203437D01*
X0208021Y0203652D01*
X0208008Y0203868D01*
X0208000Y0204084D01*
X0207997Y0204300D01*
X0212863Y0234457D02*
X0206957Y0240363D01*
X0206957Y0248237D01*
X0212863Y0254143D01*
X0220737Y0254143D01*
X0226643Y0248237D01*
X0226643Y0240363D01*
X0220737Y0234457D01*
X0212863Y0234457D01*
X0207997Y0244300D02*
X0208000Y0244516D01*
X0208008Y0244732D01*
X0208021Y0244948D01*
X0208039Y0245163D01*
X0208063Y0245378D01*
X0208092Y0245592D01*
X0208127Y0245805D01*
X0208166Y0246017D01*
X0208211Y0246229D01*
X0208261Y0246439D01*
X0208316Y0246648D01*
X0208376Y0246855D01*
X0208441Y0247061D01*
X0208512Y0247266D01*
X0208587Y0247468D01*
X0208667Y0247669D01*
X0208752Y0247867D01*
X0208842Y0248064D01*
X0208937Y0248258D01*
X0209036Y0248450D01*
X0209141Y0248639D01*
X0209249Y0248826D01*
X0209363Y0249010D01*
X0209481Y0249191D01*
X0209603Y0249369D01*
X0209729Y0249544D01*
X0209860Y0249716D01*
X0209995Y0249885D01*
X0210134Y0250050D01*
X0210277Y0250212D01*
X0210424Y0250370D01*
X0210575Y0250525D01*
X0210730Y0250676D01*
X0210888Y0250823D01*
X0211050Y0250966D01*
X0211215Y0251105D01*
X0211384Y0251240D01*
X0211556Y0251371D01*
X0211731Y0251497D01*
X0211909Y0251619D01*
X0212090Y0251737D01*
X0212274Y0251851D01*
X0212461Y0251959D01*
X0212650Y0252064D01*
X0212842Y0252163D01*
X0213036Y0252258D01*
X0213233Y0252348D01*
X0213431Y0252433D01*
X0213632Y0252513D01*
X0213834Y0252588D01*
X0214039Y0252659D01*
X0214245Y0252724D01*
X0214452Y0252784D01*
X0214661Y0252839D01*
X0214871Y0252889D01*
X0215083Y0252934D01*
X0215295Y0252973D01*
X0215508Y0253008D01*
X0215722Y0253037D01*
X0215937Y0253061D01*
X0216152Y0253079D01*
X0216368Y0253092D01*
X0216584Y0253100D01*
X0216800Y0253103D01*
X0217016Y0253100D01*
X0217232Y0253092D01*
X0217448Y0253079D01*
X0217663Y0253061D01*
X0217878Y0253037D01*
X0218092Y0253008D01*
X0218305Y0252973D01*
X0218517Y0252934D01*
X0218729Y0252889D01*
X0218939Y0252839D01*
X0219148Y0252784D01*
X0219355Y0252724D01*
X0219561Y0252659D01*
X0219766Y0252588D01*
X0219968Y0252513D01*
X0220169Y0252433D01*
X0220367Y0252348D01*
X0220564Y0252258D01*
X0220758Y0252163D01*
X0220950Y0252064D01*
X0221139Y0251959D01*
X0221326Y0251851D01*
X0221510Y0251737D01*
X0221691Y0251619D01*
X0221869Y0251497D01*
X0222044Y0251371D01*
X0222216Y0251240D01*
X0222385Y0251105D01*
X0222550Y0250966D01*
X0222712Y0250823D01*
X0222870Y0250676D01*
X0223025Y0250525D01*
X0223176Y0250370D01*
X0223323Y0250212D01*
X0223466Y0250050D01*
X0223605Y0249885D01*
X0223740Y0249716D01*
X0223871Y0249544D01*
X0223997Y0249369D01*
X0224119Y0249191D01*
X0224237Y0249010D01*
X0224351Y0248826D01*
X0224459Y0248639D01*
X0224564Y0248450D01*
X0224663Y0248258D01*
X0224758Y0248064D01*
X0224848Y0247867D01*
X0224933Y0247669D01*
X0225013Y0247468D01*
X0225088Y0247266D01*
X0225159Y0247061D01*
X0225224Y0246855D01*
X0225284Y0246648D01*
X0225339Y0246439D01*
X0225389Y0246229D01*
X0225434Y0246017D01*
X0225473Y0245805D01*
X0225508Y0245592D01*
X0225537Y0245378D01*
X0225561Y0245163D01*
X0225579Y0244948D01*
X0225592Y0244732D01*
X0225600Y0244516D01*
X0225603Y0244300D01*
X0225600Y0244084D01*
X0225592Y0243868D01*
X0225579Y0243652D01*
X0225561Y0243437D01*
X0225537Y0243222D01*
X0225508Y0243008D01*
X0225473Y0242795D01*
X0225434Y0242583D01*
X0225389Y0242371D01*
X0225339Y0242161D01*
X0225284Y0241952D01*
X0225224Y0241745D01*
X0225159Y0241539D01*
X0225088Y0241334D01*
X0225013Y0241132D01*
X0224933Y0240931D01*
X0224848Y0240733D01*
X0224758Y0240536D01*
X0224663Y0240342D01*
X0224564Y0240150D01*
X0224459Y0239961D01*
X0224351Y0239774D01*
X0224237Y0239590D01*
X0224119Y0239409D01*
X0223997Y0239231D01*
X0223871Y0239056D01*
X0223740Y0238884D01*
X0223605Y0238715D01*
X0223466Y0238550D01*
X0223323Y0238388D01*
X0223176Y0238230D01*
X0223025Y0238075D01*
X0222870Y0237924D01*
X0222712Y0237777D01*
X0222550Y0237634D01*
X0222385Y0237495D01*
X0222216Y0237360D01*
X0222044Y0237229D01*
X0221869Y0237103D01*
X0221691Y0236981D01*
X0221510Y0236863D01*
X0221326Y0236749D01*
X0221139Y0236641D01*
X0220950Y0236536D01*
X0220758Y0236437D01*
X0220564Y0236342D01*
X0220367Y0236252D01*
X0220169Y0236167D01*
X0219968Y0236087D01*
X0219766Y0236012D01*
X0219561Y0235941D01*
X0219355Y0235876D01*
X0219148Y0235816D01*
X0218939Y0235761D01*
X0218729Y0235711D01*
X0218517Y0235666D01*
X0218305Y0235627D01*
X0218092Y0235592D01*
X0217878Y0235563D01*
X0217663Y0235539D01*
X0217448Y0235521D01*
X0217232Y0235508D01*
X0217016Y0235500D01*
X0216800Y0235497D01*
X0216584Y0235500D01*
X0216368Y0235508D01*
X0216152Y0235521D01*
X0215937Y0235539D01*
X0215722Y0235563D01*
X0215508Y0235592D01*
X0215295Y0235627D01*
X0215083Y0235666D01*
X0214871Y0235711D01*
X0214661Y0235761D01*
X0214452Y0235816D01*
X0214245Y0235876D01*
X0214039Y0235941D01*
X0213834Y0236012D01*
X0213632Y0236087D01*
X0213431Y0236167D01*
X0213233Y0236252D01*
X0213036Y0236342D01*
X0212842Y0236437D01*
X0212650Y0236536D01*
X0212461Y0236641D01*
X0212274Y0236749D01*
X0212090Y0236863D01*
X0211909Y0236981D01*
X0211731Y0237103D01*
X0211556Y0237229D01*
X0211384Y0237360D01*
X0211215Y0237495D01*
X0211050Y0237634D01*
X0210888Y0237777D01*
X0210730Y0237924D01*
X0210575Y0238075D01*
X0210424Y0238230D01*
X0210277Y0238388D01*
X0210134Y0238550D01*
X0209995Y0238715D01*
X0209860Y0238884D01*
X0209729Y0239056D01*
X0209603Y0239231D01*
X0209481Y0239409D01*
X0209363Y0239590D01*
X0209249Y0239774D01*
X0209141Y0239961D01*
X0209036Y0240150D01*
X0208937Y0240342D01*
X0208842Y0240536D01*
X0208752Y0240733D01*
X0208667Y0240931D01*
X0208587Y0241132D01*
X0208512Y0241334D01*
X0208441Y0241539D01*
X0208376Y0241745D01*
X0208316Y0241952D01*
X0208261Y0242161D01*
X0208211Y0242371D01*
X0208166Y0242583D01*
X0208127Y0242795D01*
X0208092Y0243008D01*
X0208063Y0243222D01*
X0208039Y0243437D01*
X0208021Y0243652D01*
X0208008Y0243868D01*
X0208000Y0244084D01*
X0207997Y0244300D01*
X0159050Y0236198D02*
X0154546Y0236198D01*
X0156798Y0233946D01*
X0156798Y0236949D01*
X0159050Y0232449D02*
X0159050Y0229446D01*
X0159050Y0230947D02*
X0154546Y0230947D01*
X0156047Y0229446D01*
X0147198Y0210054D02*
X0145697Y0210054D01*
X0144946Y0209303D01*
X0143345Y0210054D02*
X0143345Y0207051D01*
X0141843Y0205550D01*
X0140342Y0207051D01*
X0140342Y0210054D01*
X0138741Y0209303D02*
X0137990Y0210054D01*
X0136489Y0210054D01*
X0135738Y0209303D01*
X0135738Y0208553D01*
X0136489Y0207802D01*
X0137990Y0207802D01*
X0138741Y0207051D01*
X0138741Y0206301D01*
X0137990Y0205550D01*
X0136489Y0205550D01*
X0135738Y0206301D01*
X0144946Y0205550D02*
X0147949Y0208553D01*
X0147949Y0209303D01*
X0147198Y0210054D01*
X0147949Y0205550D02*
X0144946Y0205550D01*
X0154546Y0186198D02*
X0156798Y0183946D01*
X0156798Y0186949D01*
X0159050Y0186198D02*
X0154546Y0186198D01*
X0159050Y0182449D02*
X0159050Y0179446D01*
X0159050Y0180947D02*
X0154546Y0180947D01*
X0156047Y0179446D01*
X0147198Y0160054D02*
X0145697Y0160054D01*
X0144946Y0159303D01*
X0143345Y0160054D02*
X0143345Y0157051D01*
X0141843Y0155550D01*
X0140342Y0157051D01*
X0140342Y0160054D01*
X0138741Y0159303D02*
X0137990Y0160054D01*
X0136489Y0160054D01*
X0135738Y0159303D01*
X0135738Y0158553D01*
X0136489Y0157802D01*
X0137990Y0157802D01*
X0138741Y0157051D01*
X0138741Y0156301D01*
X0137990Y0155550D01*
X0136489Y0155550D01*
X0135738Y0156301D01*
X0144946Y0156301D02*
X0145697Y0155550D01*
X0147198Y0155550D01*
X0147949Y0156301D01*
X0147949Y0157051D01*
X0147198Y0157802D01*
X0146447Y0157802D01*
X0147198Y0157802D02*
X0147949Y0158553D01*
X0147949Y0159303D01*
X0147198Y0160054D01*
X0156798Y0136949D02*
X0156798Y0133946D01*
X0154546Y0136198D01*
X0159050Y0136198D01*
X0159050Y0132449D02*
X0159050Y0129446D01*
X0159050Y0130947D02*
X0154546Y0130947D01*
X0156047Y0129446D01*
X0147299Y0263238D02*
X0148050Y0263989D01*
X0148050Y0265490D01*
X0147299Y0266241D01*
X0146549Y0266241D01*
X0145798Y0265490D01*
X0145798Y0263989D01*
X0145047Y0263238D01*
X0144297Y0263238D01*
X0143546Y0263989D01*
X0143546Y0265490D01*
X0144297Y0266241D01*
X0143546Y0267842D02*
X0146549Y0267842D01*
X0148050Y0269343D01*
X0146549Y0270845D01*
X0143546Y0270845D01*
X0145047Y0272446D02*
X0143546Y0273947D01*
X0148050Y0273947D01*
X0148050Y0272446D02*
X0148050Y0275449D01*
X0154546Y0280947D02*
X0159050Y0280947D01*
X0159050Y0279446D02*
X0159050Y0282449D01*
X0156047Y0279446D02*
X0154546Y0280947D01*
D16*
X0025568Y0163532D02*
X0025568Y0136532D01*
X0025566Y0136362D01*
X0025560Y0136191D01*
X0025549Y0136021D01*
X0025535Y0135851D01*
X0025516Y0135682D01*
X0025493Y0135513D01*
X0025467Y0135344D01*
X0025436Y0135177D01*
X0025401Y0135010D01*
X0025361Y0134844D01*
X0025318Y0134679D01*
X0025271Y0134515D01*
X0025220Y0134353D01*
X0025165Y0134191D01*
X0025106Y0134031D01*
X0025043Y0133873D01*
X0024977Y0133716D01*
X0024906Y0133561D01*
X0024832Y0133407D01*
X0024754Y0133256D01*
X0024672Y0133106D01*
X0024587Y0132958D01*
X0024498Y0132813D01*
X0024406Y0132670D01*
X0024310Y0132529D01*
X0024211Y0132390D01*
X0024108Y0132254D01*
X0024003Y0132120D01*
X0023894Y0131989D01*
X0023781Y0131861D01*
X0023666Y0131735D01*
X0023548Y0131612D01*
X0023427Y0131493D01*
X0023302Y0131376D01*
X0023175Y0131262D01*
X0023046Y0131151D01*
X0022913Y0131044D01*
X0022778Y0130940D01*
X0022641Y0130839D01*
X0022501Y0130741D01*
X0022359Y0130647D01*
X0022215Y0130557D01*
X0022068Y0130470D01*
X0021919Y0130386D01*
X0021769Y0130307D01*
X0021616Y0130231D01*
X0021462Y0130158D01*
X0021306Y0130090D01*
X0021148Y0130025D01*
X0020989Y0129964D01*
X0020828Y0129907D01*
X0020666Y0129854D01*
X0020503Y0129805D01*
X0020339Y0129760D01*
X0020173Y0129719D01*
X0020007Y0129681D01*
X0019839Y0129648D01*
X0019671Y0129620D01*
X0019503Y0129595D01*
X0019334Y0129574D01*
X0019164Y0129557D01*
X0018994Y0129545D01*
X0018824Y0129537D01*
X0018653Y0129533D01*
X0018483Y0129533D01*
X0018312Y0129537D01*
X0018142Y0129545D01*
X0017972Y0129557D01*
X0017802Y0129574D01*
X0017633Y0129595D01*
X0017465Y0129620D01*
X0017297Y0129648D01*
X0017129Y0129681D01*
X0016963Y0129719D01*
X0016797Y0129760D01*
X0016633Y0129805D01*
X0016470Y0129854D01*
X0016308Y0129907D01*
X0016147Y0129964D01*
X0015988Y0130025D01*
X0015830Y0130090D01*
X0015674Y0130158D01*
X0015520Y0130231D01*
X0015367Y0130307D01*
X0015217Y0130386D01*
X0015068Y0130470D01*
X0014921Y0130557D01*
X0014777Y0130647D01*
X0014635Y0130741D01*
X0014495Y0130839D01*
X0014358Y0130940D01*
X0014223Y0131044D01*
X0014090Y0131151D01*
X0013961Y0131262D01*
X0013834Y0131376D01*
X0013709Y0131493D01*
X0013588Y0131612D01*
X0013470Y0131735D01*
X0013355Y0131861D01*
X0013242Y0131989D01*
X0013133Y0132120D01*
X0013028Y0132254D01*
X0012925Y0132390D01*
X0012826Y0132529D01*
X0012730Y0132670D01*
X0012638Y0132813D01*
X0012549Y0132958D01*
X0012464Y0133106D01*
X0012382Y0133256D01*
X0012304Y0133407D01*
X0012230Y0133561D01*
X0012159Y0133716D01*
X0012093Y0133873D01*
X0012030Y0134031D01*
X0011971Y0134191D01*
X0011916Y0134353D01*
X0011865Y0134515D01*
X0011818Y0134679D01*
X0011775Y0134844D01*
X0011735Y0135010D01*
X0011700Y0135177D01*
X0011669Y0135344D01*
X0011643Y0135513D01*
X0011620Y0135682D01*
X0011601Y0135851D01*
X0011587Y0136021D01*
X0011576Y0136191D01*
X0011570Y0136362D01*
X0011568Y0136532D01*
X0011568Y0163532D01*
X0011570Y0163702D01*
X0011576Y0163873D01*
X0011587Y0164043D01*
X0011601Y0164213D01*
X0011620Y0164382D01*
X0011643Y0164551D01*
X0011669Y0164720D01*
X0011700Y0164887D01*
X0011735Y0165054D01*
X0011775Y0165220D01*
X0011818Y0165385D01*
X0011865Y0165549D01*
X0011916Y0165711D01*
X0011971Y0165873D01*
X0012030Y0166033D01*
X0012093Y0166191D01*
X0012159Y0166348D01*
X0012230Y0166503D01*
X0012304Y0166657D01*
X0012382Y0166808D01*
X0012464Y0166958D01*
X0012549Y0167106D01*
X0012638Y0167251D01*
X0012730Y0167394D01*
X0012826Y0167535D01*
X0012925Y0167674D01*
X0013028Y0167810D01*
X0013133Y0167944D01*
X0013242Y0168075D01*
X0013355Y0168203D01*
X0013470Y0168329D01*
X0013588Y0168452D01*
X0013709Y0168571D01*
X0013834Y0168688D01*
X0013961Y0168802D01*
X0014090Y0168913D01*
X0014223Y0169020D01*
X0014358Y0169124D01*
X0014495Y0169225D01*
X0014635Y0169323D01*
X0014777Y0169417D01*
X0014921Y0169507D01*
X0015068Y0169594D01*
X0015217Y0169678D01*
X0015367Y0169757D01*
X0015520Y0169833D01*
X0015674Y0169906D01*
X0015830Y0169974D01*
X0015988Y0170039D01*
X0016147Y0170100D01*
X0016308Y0170157D01*
X0016470Y0170210D01*
X0016633Y0170259D01*
X0016797Y0170304D01*
X0016963Y0170345D01*
X0017129Y0170383D01*
X0017297Y0170416D01*
X0017465Y0170444D01*
X0017633Y0170469D01*
X0017802Y0170490D01*
X0017972Y0170507D01*
X0018142Y0170519D01*
X0018312Y0170527D01*
X0018483Y0170531D01*
X0018653Y0170531D01*
X0018824Y0170527D01*
X0018994Y0170519D01*
X0019164Y0170507D01*
X0019334Y0170490D01*
X0019503Y0170469D01*
X0019671Y0170444D01*
X0019839Y0170416D01*
X0020007Y0170383D01*
X0020173Y0170345D01*
X0020339Y0170304D01*
X0020503Y0170259D01*
X0020666Y0170210D01*
X0020828Y0170157D01*
X0020989Y0170100D01*
X0021148Y0170039D01*
X0021306Y0169974D01*
X0021462Y0169906D01*
X0021616Y0169833D01*
X0021769Y0169757D01*
X0021919Y0169678D01*
X0022068Y0169594D01*
X0022215Y0169507D01*
X0022359Y0169417D01*
X0022501Y0169323D01*
X0022641Y0169225D01*
X0022778Y0169124D01*
X0022913Y0169020D01*
X0023046Y0168913D01*
X0023175Y0168802D01*
X0023302Y0168688D01*
X0023427Y0168571D01*
X0023548Y0168452D01*
X0023666Y0168329D01*
X0023781Y0168203D01*
X0023894Y0168075D01*
X0024003Y0167944D01*
X0024108Y0167810D01*
X0024211Y0167674D01*
X0024310Y0167535D01*
X0024406Y0167394D01*
X0024498Y0167251D01*
X0024587Y0167106D01*
X0024672Y0166958D01*
X0024754Y0166808D01*
X0024832Y0166657D01*
X0024906Y0166503D01*
X0024977Y0166348D01*
X0025043Y0166191D01*
X0025106Y0166033D01*
X0025165Y0165873D01*
X0025220Y0165711D01*
X0025271Y0165549D01*
X0025318Y0165385D01*
X0025361Y0165220D01*
X0025401Y0165054D01*
X0025436Y0164887D01*
X0025467Y0164720D01*
X0025493Y0164551D01*
X0025516Y0164382D01*
X0025535Y0164213D01*
X0025549Y0164043D01*
X0025560Y0163873D01*
X0025566Y0163702D01*
X0025568Y0163532D01*
X0050800Y0113800D02*
X0077800Y0113800D01*
X0077970Y0113798D01*
X0078141Y0113792D01*
X0078311Y0113781D01*
X0078481Y0113767D01*
X0078650Y0113748D01*
X0078819Y0113725D01*
X0078988Y0113699D01*
X0079155Y0113668D01*
X0079322Y0113633D01*
X0079488Y0113593D01*
X0079653Y0113550D01*
X0079817Y0113503D01*
X0079979Y0113452D01*
X0080141Y0113397D01*
X0080301Y0113338D01*
X0080459Y0113275D01*
X0080616Y0113209D01*
X0080771Y0113138D01*
X0080925Y0113064D01*
X0081076Y0112986D01*
X0081226Y0112904D01*
X0081374Y0112819D01*
X0081519Y0112730D01*
X0081662Y0112638D01*
X0081803Y0112542D01*
X0081942Y0112443D01*
X0082078Y0112340D01*
X0082212Y0112235D01*
X0082343Y0112126D01*
X0082471Y0112013D01*
X0082597Y0111898D01*
X0082720Y0111780D01*
X0082839Y0111659D01*
X0082956Y0111534D01*
X0083070Y0111407D01*
X0083181Y0111278D01*
X0083288Y0111145D01*
X0083392Y0111010D01*
X0083493Y0110873D01*
X0083591Y0110733D01*
X0083685Y0110591D01*
X0083775Y0110447D01*
X0083862Y0110300D01*
X0083946Y0110151D01*
X0084025Y0110001D01*
X0084101Y0109848D01*
X0084174Y0109694D01*
X0084242Y0109538D01*
X0084307Y0109380D01*
X0084368Y0109221D01*
X0084425Y0109060D01*
X0084478Y0108898D01*
X0084527Y0108735D01*
X0084572Y0108571D01*
X0084613Y0108405D01*
X0084651Y0108239D01*
X0084684Y0108071D01*
X0084712Y0107903D01*
X0084737Y0107735D01*
X0084758Y0107566D01*
X0084775Y0107396D01*
X0084787Y0107226D01*
X0084795Y0107056D01*
X0084799Y0106885D01*
X0084799Y0106715D01*
X0084795Y0106544D01*
X0084787Y0106374D01*
X0084775Y0106204D01*
X0084758Y0106034D01*
X0084737Y0105865D01*
X0084712Y0105697D01*
X0084684Y0105529D01*
X0084651Y0105361D01*
X0084613Y0105195D01*
X0084572Y0105029D01*
X0084527Y0104865D01*
X0084478Y0104702D01*
X0084425Y0104540D01*
X0084368Y0104379D01*
X0084307Y0104220D01*
X0084242Y0104062D01*
X0084174Y0103906D01*
X0084101Y0103752D01*
X0084025Y0103599D01*
X0083946Y0103449D01*
X0083862Y0103300D01*
X0083775Y0103153D01*
X0083685Y0103009D01*
X0083591Y0102867D01*
X0083493Y0102727D01*
X0083392Y0102590D01*
X0083288Y0102455D01*
X0083181Y0102322D01*
X0083070Y0102193D01*
X0082956Y0102066D01*
X0082839Y0101941D01*
X0082720Y0101820D01*
X0082597Y0101702D01*
X0082471Y0101587D01*
X0082343Y0101474D01*
X0082212Y0101365D01*
X0082078Y0101260D01*
X0081942Y0101157D01*
X0081803Y0101058D01*
X0081662Y0100962D01*
X0081519Y0100870D01*
X0081374Y0100781D01*
X0081226Y0100696D01*
X0081076Y0100614D01*
X0080925Y0100536D01*
X0080771Y0100462D01*
X0080616Y0100391D01*
X0080459Y0100325D01*
X0080301Y0100262D01*
X0080141Y0100203D01*
X0079979Y0100148D01*
X0079817Y0100097D01*
X0079653Y0100050D01*
X0079488Y0100007D01*
X0079322Y0099967D01*
X0079155Y0099932D01*
X0078988Y0099901D01*
X0078819Y0099875D01*
X0078650Y0099852D01*
X0078481Y0099833D01*
X0078311Y0099819D01*
X0078141Y0099808D01*
X0077970Y0099802D01*
X0077800Y0099800D01*
X0050800Y0099800D01*
X0050630Y0099802D01*
X0050459Y0099808D01*
X0050289Y0099819D01*
X0050119Y0099833D01*
X0049950Y0099852D01*
X0049781Y0099875D01*
X0049612Y0099901D01*
X0049445Y0099932D01*
X0049278Y0099967D01*
X0049112Y0100007D01*
X0048947Y0100050D01*
X0048783Y0100097D01*
X0048621Y0100148D01*
X0048459Y0100203D01*
X0048299Y0100262D01*
X0048141Y0100325D01*
X0047984Y0100391D01*
X0047829Y0100462D01*
X0047675Y0100536D01*
X0047524Y0100614D01*
X0047374Y0100696D01*
X0047226Y0100781D01*
X0047081Y0100870D01*
X0046938Y0100962D01*
X0046797Y0101058D01*
X0046658Y0101157D01*
X0046522Y0101260D01*
X0046388Y0101365D01*
X0046257Y0101474D01*
X0046129Y0101587D01*
X0046003Y0101702D01*
X0045880Y0101820D01*
X0045761Y0101941D01*
X0045644Y0102066D01*
X0045530Y0102193D01*
X0045419Y0102322D01*
X0045312Y0102455D01*
X0045208Y0102590D01*
X0045107Y0102727D01*
X0045009Y0102867D01*
X0044915Y0103009D01*
X0044825Y0103153D01*
X0044738Y0103300D01*
X0044654Y0103449D01*
X0044575Y0103599D01*
X0044499Y0103752D01*
X0044426Y0103906D01*
X0044358Y0104062D01*
X0044293Y0104220D01*
X0044232Y0104379D01*
X0044175Y0104540D01*
X0044122Y0104702D01*
X0044073Y0104865D01*
X0044028Y0105029D01*
X0043987Y0105195D01*
X0043949Y0105361D01*
X0043916Y0105529D01*
X0043888Y0105697D01*
X0043863Y0105865D01*
X0043842Y0106034D01*
X0043825Y0106204D01*
X0043813Y0106374D01*
X0043805Y0106544D01*
X0043801Y0106715D01*
X0043801Y0106885D01*
X0043805Y0107056D01*
X0043813Y0107226D01*
X0043825Y0107396D01*
X0043842Y0107566D01*
X0043863Y0107735D01*
X0043888Y0107903D01*
X0043916Y0108071D01*
X0043949Y0108239D01*
X0043987Y0108405D01*
X0044028Y0108571D01*
X0044073Y0108735D01*
X0044122Y0108898D01*
X0044175Y0109060D01*
X0044232Y0109221D01*
X0044293Y0109380D01*
X0044358Y0109538D01*
X0044426Y0109694D01*
X0044499Y0109848D01*
X0044575Y0110001D01*
X0044654Y0110151D01*
X0044738Y0110300D01*
X0044825Y0110447D01*
X0044915Y0110591D01*
X0045009Y0110733D01*
X0045107Y0110873D01*
X0045208Y0111010D01*
X0045312Y0111145D01*
X0045419Y0111278D01*
X0045530Y0111407D01*
X0045644Y0111534D01*
X0045761Y0111659D01*
X0045880Y0111780D01*
X0046003Y0111898D01*
X0046129Y0112013D01*
X0046257Y0112126D01*
X0046388Y0112235D01*
X0046522Y0112340D01*
X0046658Y0112443D01*
X0046797Y0112542D01*
X0046938Y0112638D01*
X0047081Y0112730D01*
X0047226Y0112819D01*
X0047374Y0112904D01*
X0047524Y0112986D01*
X0047675Y0113064D01*
X0047829Y0113138D01*
X0047984Y0113209D01*
X0048141Y0113275D01*
X0048299Y0113338D01*
X0048459Y0113397D01*
X0048621Y0113452D01*
X0048783Y0113503D01*
X0048947Y0113550D01*
X0049112Y0113593D01*
X0049278Y0113633D01*
X0049445Y0113668D01*
X0049612Y0113699D01*
X0049781Y0113725D01*
X0049950Y0113748D01*
X0050119Y0113767D01*
X0050289Y0113781D01*
X0050459Y0113792D01*
X0050630Y0113798D01*
X0050800Y0113800D01*
D17*
X0026800Y0038906D03*
X0016800Y0038906D03*
X0014300Y0259694D03*
X0024300Y0259694D03*
X0104300Y0289694D03*
X0111800Y0289694D03*
X0119300Y0289694D03*
D18*
X0034150Y0261518D02*
X0030447Y0259049D01*
X0031064Y0257834D02*
X0032298Y0257834D01*
X0032916Y0257217D01*
X0032916Y0255366D01*
X0034150Y0255366D02*
X0030447Y0255366D01*
X0030447Y0257217D01*
X0031064Y0257834D01*
X0032916Y0256600D02*
X0034150Y0257834D01*
X0034150Y0259049D02*
X0030447Y0261518D01*
X0034767Y0254151D02*
X0034767Y0251683D01*
X0034150Y0249234D02*
X0030447Y0249234D01*
X0030447Y0250468D02*
X0030447Y0247999D01*
X0031064Y0246785D02*
X0032298Y0246785D01*
X0032916Y0246168D01*
X0032916Y0244316D01*
X0034150Y0244316D02*
X0030447Y0244316D01*
X0030447Y0246168D01*
X0031064Y0246785D01*
X0032916Y0245551D02*
X0034150Y0246785D01*
X0034150Y0243102D02*
X0031681Y0243102D01*
X0030447Y0241868D01*
X0031681Y0240633D01*
X0034150Y0240633D01*
X0033533Y0239419D02*
X0030447Y0239419D01*
X0032298Y0240633D02*
X0032298Y0243102D01*
X0033533Y0239419D02*
X0034150Y0238802D01*
X0034150Y0237567D01*
X0033533Y0236950D01*
X0030447Y0236950D01*
X0009150Y0237567D02*
X0009150Y0238802D01*
X0008533Y0239419D01*
X0005447Y0239419D01*
X0006681Y0240633D02*
X0005447Y0241868D01*
X0006681Y0243102D01*
X0009150Y0243102D01*
X0009150Y0244316D02*
X0005447Y0244316D01*
X0005447Y0246168D01*
X0006064Y0246785D01*
X0007298Y0246785D01*
X0007916Y0246168D01*
X0007916Y0244316D01*
X0007916Y0245551D02*
X0009150Y0246785D01*
X0009150Y0249234D02*
X0005447Y0249234D01*
X0005447Y0250468D02*
X0005447Y0247999D01*
X0007298Y0243102D02*
X0007298Y0240633D01*
X0006681Y0240633D02*
X0009150Y0240633D01*
X0009150Y0237567D02*
X0008533Y0236950D01*
X0005447Y0236950D01*
X0009767Y0251683D02*
X0009767Y0254151D01*
X0009150Y0256600D02*
X0005447Y0256600D01*
X0005447Y0255366D02*
X0005447Y0257834D01*
X0005447Y0259049D02*
X0009150Y0261518D01*
X0009150Y0259049D02*
X0005447Y0261518D01*
X0006947Y0043236D02*
X0006947Y0040767D01*
X0006947Y0042001D02*
X0010650Y0042001D01*
X0010033Y0039552D02*
X0010650Y0038935D01*
X0010650Y0037701D01*
X0010033Y0037084D01*
X0007564Y0037084D01*
X0006947Y0037701D01*
X0006947Y0038935D01*
X0007564Y0039552D01*
X0008181Y0035869D02*
X0006947Y0034635D01*
X0008181Y0033401D01*
X0010650Y0033401D01*
X0008798Y0033401D02*
X0008798Y0035869D01*
X0008181Y0035869D02*
X0010650Y0035869D01*
X0034447Y0037084D02*
X0034447Y0038935D01*
X0035064Y0039552D01*
X0037533Y0039552D01*
X0038150Y0038935D01*
X0038150Y0037084D01*
X0034447Y0037084D01*
X0035681Y0035869D02*
X0034447Y0034635D01*
X0035681Y0033401D01*
X0038150Y0033401D01*
X0038150Y0032186D02*
X0038150Y0029717D01*
X0034447Y0029717D01*
X0034447Y0032186D01*
X0036298Y0033401D02*
X0036298Y0035869D01*
X0035681Y0035869D02*
X0038150Y0035869D01*
X0036298Y0030952D02*
X0036298Y0029717D01*
X0036298Y0028503D02*
X0036916Y0027886D01*
X0036916Y0026034D01*
X0038150Y0026034D02*
X0034447Y0026034D01*
X0034447Y0027886D01*
X0035064Y0028503D01*
X0036298Y0028503D01*
X0036916Y0027269D02*
X0038150Y0028503D01*
X0035064Y0040767D02*
X0034447Y0040767D01*
X0035064Y0040767D02*
X0036298Y0042001D01*
X0038150Y0042001D01*
X0036298Y0042001D02*
X0035064Y0043236D01*
X0034447Y0043236D01*
X0214448Y0009311D02*
X0214448Y0005670D01*
X0216268Y0005670D01*
X0216875Y0006277D01*
X0216875Y0006884D01*
X0216268Y0007491D01*
X0214448Y0007491D01*
X0214448Y0009311D02*
X0216268Y0009311D01*
X0216875Y0008704D01*
X0216875Y0008097D01*
X0216268Y0007491D01*
X0218073Y0007491D02*
X0220500Y0007491D01*
X0220500Y0008097D02*
X0220500Y0005670D01*
X0222912Y0005670D02*
X0222912Y0009311D01*
X0224125Y0009311D02*
X0221698Y0009311D01*
X0220500Y0008097D02*
X0219287Y0009311D01*
X0218073Y0008097D01*
X0218073Y0005670D01*
X0225323Y0009311D02*
X0227750Y0009311D01*
X0228949Y0009311D02*
X0228949Y0005670D01*
X0231375Y0005670D01*
X0232574Y0005670D02*
X0232574Y0009311D01*
X0234394Y0009311D01*
X0235000Y0008704D01*
X0235000Y0007491D01*
X0234394Y0006884D01*
X0232574Y0006884D01*
X0233787Y0006884D02*
X0235000Y0005670D01*
X0237412Y0005670D02*
X0237412Y0007491D01*
X0238626Y0008704D01*
X0238626Y0009311D01*
X0237412Y0007491D02*
X0236199Y0008704D01*
X0236199Y0009311D01*
X0231375Y0009311D02*
X0228949Y0009311D01*
X0228949Y0007491D02*
X0230162Y0007491D01*
X0226537Y0005670D02*
X0226537Y0009311D01*
D19*
X0074300Y0257863D03*
X0074300Y0265737D03*
D20*
X0062914Y0199912D02*
X0060686Y0199912D01*
X0036188Y0175414D01*
X0036188Y0173186D01*
X0060686Y0148688D01*
X0062914Y0148688D01*
X0087412Y0173186D01*
X0087412Y0175414D01*
X0062914Y0199912D01*
D21*
X0060687Y0152029D02*
X0060689Y0152096D01*
X0060695Y0152162D01*
X0060705Y0152228D01*
X0060719Y0152293D01*
X0060736Y0152357D01*
X0060758Y0152420D01*
X0060783Y0152482D01*
X0060812Y0152542D01*
X0060845Y0152600D01*
X0060880Y0152656D01*
X0060920Y0152710D01*
X0060962Y0152761D01*
X0061007Y0152810D01*
X0061055Y0152856D01*
X0061106Y0152899D01*
X0061159Y0152939D01*
X0061215Y0152976D01*
X0061273Y0153009D01*
X0061332Y0153039D01*
X0061393Y0153065D01*
X0061456Y0153088D01*
X0061520Y0153106D01*
X0061585Y0153121D01*
X0061651Y0153132D01*
X0061717Y0153139D01*
X0061783Y0153142D01*
X0061850Y0153141D01*
X0061916Y0153136D01*
X0061982Y0153127D01*
X0062048Y0153114D01*
X0062112Y0153097D01*
X0062175Y0153077D01*
X0062237Y0153052D01*
X0062298Y0153024D01*
X0062357Y0152993D01*
X0062413Y0152958D01*
X0062468Y0152920D01*
X0062520Y0152878D01*
X0062569Y0152833D01*
X0062616Y0152786D01*
X0062660Y0152736D01*
X0062700Y0152683D01*
X0062738Y0152628D01*
X0062772Y0152571D01*
X0062803Y0152512D01*
X0062830Y0152451D01*
X0062853Y0152389D01*
X0062873Y0152325D01*
X0062889Y0152260D01*
X0062901Y0152195D01*
X0062909Y0152129D01*
X0062913Y0152062D01*
X0062913Y0151996D01*
X0062909Y0151929D01*
X0062901Y0151863D01*
X0062889Y0151798D01*
X0062873Y0151733D01*
X0062853Y0151669D01*
X0062830Y0151607D01*
X0062803Y0151546D01*
X0062772Y0151487D01*
X0062738Y0151430D01*
X0062700Y0151375D01*
X0062660Y0151322D01*
X0062616Y0151272D01*
X0062569Y0151225D01*
X0062520Y0151180D01*
X0062468Y0151138D01*
X0062413Y0151100D01*
X0062356Y0151065D01*
X0062298Y0151034D01*
X0062237Y0151006D01*
X0062175Y0150981D01*
X0062112Y0150961D01*
X0062048Y0150944D01*
X0061982Y0150931D01*
X0061916Y0150922D01*
X0061850Y0150917D01*
X0061783Y0150916D01*
X0061717Y0150919D01*
X0061651Y0150926D01*
X0061585Y0150937D01*
X0061520Y0150952D01*
X0061456Y0150970D01*
X0061393Y0150993D01*
X0061332Y0151019D01*
X0061273Y0151049D01*
X0061215Y0151082D01*
X0061159Y0151119D01*
X0061106Y0151159D01*
X0061055Y0151202D01*
X0061007Y0151248D01*
X0060962Y0151297D01*
X0060920Y0151348D01*
X0060880Y0151402D01*
X0060845Y0151458D01*
X0060812Y0151516D01*
X0060783Y0151576D01*
X0060758Y0151638D01*
X0060736Y0151701D01*
X0060719Y0151765D01*
X0060705Y0151830D01*
X0060695Y0151896D01*
X0060689Y0151962D01*
X0060687Y0152029D01*
M02*
