G75*
%MOIN*%
%OFA0B0*%
%FSLAX25Y25*%
%IPPOS*%
%LPD*%
%AMOC8*
5,1,8,0,0,1.08239X$1,22.5*
%
%ADD10C,0.00000*%
%ADD11C,0.00400*%
%ADD12C,0.00600*%
%ADD13C,0.00800*%
%ADD14C,0.01200*%
%ADD15C,0.00100*%
%ADD16C,0.00500*%
D10*
X0001800Y0001800D02*
X0001800Y0301761D01*
X0245501Y0301761D01*
X0245501Y0001800D01*
X0001800Y0001800D01*
X0065600Y0019280D02*
X0065600Y0021640D01*
X0045500Y0281960D02*
X0045500Y0284320D01*
D11*
X0123011Y0256604D02*
X0123011Y0252000D01*
X0126080Y0252000D02*
X0126080Y0256604D01*
X0124546Y0255069D01*
X0123011Y0256604D01*
X0127615Y0256604D02*
X0127615Y0252000D01*
X0129150Y0253535D01*
X0130684Y0252000D01*
X0130684Y0256604D01*
X0132219Y0255837D02*
X0132219Y0254302D01*
X0132986Y0253535D01*
X0135288Y0253535D01*
X0135288Y0252000D02*
X0135288Y0256604D01*
X0132986Y0256604D01*
X0132219Y0255837D01*
X0132219Y0262000D02*
X0134521Y0262000D01*
X0135288Y0262767D01*
X0135288Y0264302D01*
X0134521Y0265069D01*
X0132219Y0265069D01*
X0136823Y0265069D02*
X0139125Y0265069D01*
X0139892Y0264302D01*
X0139892Y0262767D01*
X0139125Y0262000D01*
X0136823Y0262000D01*
X0141427Y0263535D02*
X0141427Y0266604D01*
X0141427Y0263535D02*
X0142961Y0262000D01*
X0144496Y0263535D01*
X0144496Y0266604D01*
X0146031Y0266604D02*
X0149100Y0264302D01*
X0146031Y0262000D01*
X0146031Y0256604D02*
X0149100Y0254302D01*
X0146031Y0252000D01*
X0144496Y0253535D02*
X0142961Y0252000D01*
X0141427Y0253535D01*
X0141427Y0256604D01*
X0144496Y0256604D02*
X0144496Y0253535D01*
X0139892Y0251233D02*
X0136823Y0251233D01*
X0138358Y0246604D02*
X0136823Y0245069D01*
X0136823Y0242000D01*
X0136823Y0244302D02*
X0139892Y0244302D01*
X0139892Y0245069D02*
X0138358Y0246604D01*
X0139892Y0245069D02*
X0139892Y0242000D01*
X0141427Y0243535D02*
X0141427Y0246604D01*
X0141427Y0243535D02*
X0142961Y0242000D01*
X0144496Y0243535D01*
X0144496Y0246604D01*
X0146031Y0246604D02*
X0149100Y0244302D01*
X0146031Y0242000D01*
X0146031Y0226604D02*
X0149100Y0224302D01*
X0146031Y0222000D01*
X0144496Y0223535D02*
X0142961Y0222000D01*
X0141427Y0223535D01*
X0141427Y0226604D01*
X0139892Y0224302D02*
X0139125Y0225069D01*
X0137590Y0225069D01*
X0136823Y0224302D01*
X0136823Y0223535D01*
X0139892Y0223535D01*
X0139892Y0224302D02*
X0139892Y0222767D01*
X0139125Y0222000D01*
X0137590Y0222000D01*
X0135288Y0222767D02*
X0135288Y0224302D01*
X0134521Y0225069D01*
X0132986Y0225069D01*
X0132219Y0224302D01*
X0132219Y0223535D01*
X0135288Y0223535D01*
X0135288Y0222767D02*
X0134521Y0222000D01*
X0132986Y0222000D01*
X0132219Y0215069D02*
X0134521Y0215069D01*
X0135288Y0214302D01*
X0135288Y0212767D01*
X0134521Y0212000D01*
X0132219Y0212000D01*
X0132986Y0206604D02*
X0132219Y0205837D01*
X0132219Y0204302D01*
X0132986Y0203535D01*
X0135288Y0203535D01*
X0135288Y0202000D02*
X0135288Y0206604D01*
X0132986Y0206604D01*
X0130684Y0206604D02*
X0130684Y0202000D01*
X0129150Y0203535D01*
X0127615Y0202000D01*
X0127615Y0206604D01*
X0126080Y0206604D02*
X0124546Y0205069D01*
X0123011Y0206604D01*
X0123011Y0202000D01*
X0126080Y0202000D02*
X0126080Y0206604D01*
X0136823Y0201233D02*
X0139892Y0201233D01*
X0141427Y0203535D02*
X0141427Y0206604D01*
X0141427Y0203535D02*
X0142961Y0202000D01*
X0144496Y0203535D01*
X0144496Y0206604D01*
X0146031Y0206604D02*
X0149100Y0204302D01*
X0146031Y0202000D01*
X0146031Y0196604D02*
X0149100Y0194302D01*
X0146031Y0192000D01*
X0144496Y0193535D02*
X0142961Y0192000D01*
X0141427Y0193535D01*
X0141427Y0196604D01*
X0139892Y0195069D02*
X0138358Y0196604D01*
X0136823Y0195069D01*
X0136823Y0192000D01*
X0136823Y0194302D02*
X0139892Y0194302D01*
X0139892Y0195069D02*
X0139892Y0192000D01*
X0144496Y0193535D02*
X0144496Y0196604D01*
X0142961Y0212000D02*
X0141427Y0213535D01*
X0141427Y0216604D01*
X0139125Y0215069D02*
X0139892Y0214302D01*
X0139892Y0212767D01*
X0139125Y0212000D01*
X0136823Y0212000D01*
X0136823Y0215069D02*
X0139125Y0215069D01*
X0142961Y0212000D02*
X0144496Y0213535D01*
X0144496Y0216604D01*
X0146031Y0216604D02*
X0149100Y0214302D01*
X0146031Y0212000D01*
X0144496Y0223535D02*
X0144496Y0226604D01*
X0142961Y0272000D02*
X0141427Y0273535D01*
X0141427Y0276604D01*
X0139892Y0274302D02*
X0139125Y0275069D01*
X0137590Y0275069D01*
X0136823Y0274302D01*
X0136823Y0273535D01*
X0139892Y0273535D01*
X0139892Y0274302D02*
X0139892Y0272767D01*
X0139125Y0272000D01*
X0137590Y0272000D01*
X0135288Y0272767D02*
X0135288Y0274302D01*
X0134521Y0275069D01*
X0132986Y0275069D01*
X0132219Y0274302D01*
X0132219Y0273535D01*
X0135288Y0273535D01*
X0135288Y0272767D02*
X0134521Y0272000D01*
X0132986Y0272000D01*
X0142961Y0272000D02*
X0144496Y0273535D01*
X0144496Y0276604D01*
X0146031Y0276604D02*
X0149100Y0274302D01*
X0146031Y0272000D01*
X0146031Y0176604D02*
X0149100Y0174302D01*
X0146031Y0172000D01*
X0144496Y0173535D02*
X0142961Y0172000D01*
X0141427Y0173535D01*
X0141427Y0176604D01*
X0139892Y0174302D02*
X0139125Y0175069D01*
X0137590Y0175069D01*
X0136823Y0174302D01*
X0136823Y0173535D01*
X0139892Y0173535D01*
X0139892Y0174302D02*
X0139892Y0172767D01*
X0139125Y0172000D01*
X0137590Y0172000D01*
X0135288Y0172767D02*
X0135288Y0174302D01*
X0134521Y0175069D01*
X0132986Y0175069D01*
X0132219Y0174302D01*
X0132219Y0173535D01*
X0135288Y0173535D01*
X0135288Y0172767D02*
X0134521Y0172000D01*
X0132986Y0172000D01*
X0132219Y0165069D02*
X0134521Y0165069D01*
X0135288Y0164302D01*
X0135288Y0162767D01*
X0134521Y0162000D01*
X0132219Y0162000D01*
X0136823Y0162000D02*
X0139125Y0162000D01*
X0139892Y0162767D01*
X0139892Y0164302D01*
X0139125Y0165069D01*
X0136823Y0165069D01*
X0141427Y0163535D02*
X0141427Y0166604D01*
X0141427Y0163535D02*
X0142961Y0162000D01*
X0144496Y0163535D01*
X0144496Y0166604D01*
X0146031Y0166604D02*
X0149100Y0164302D01*
X0146031Y0162000D01*
X0146031Y0156604D02*
X0149100Y0154302D01*
X0146031Y0152000D01*
X0144496Y0153535D02*
X0142961Y0152000D01*
X0141427Y0153535D01*
X0141427Y0156604D01*
X0144496Y0156604D02*
X0144496Y0153535D01*
X0139892Y0151233D02*
X0136823Y0151233D01*
X0135288Y0152000D02*
X0135288Y0156604D01*
X0132986Y0156604D01*
X0132219Y0155837D01*
X0132219Y0154302D01*
X0132986Y0153535D01*
X0135288Y0153535D01*
X0130684Y0152000D02*
X0129150Y0153535D01*
X0127615Y0152000D01*
X0127615Y0156604D01*
X0126080Y0156604D02*
X0126080Y0152000D01*
X0123011Y0152000D02*
X0123011Y0156604D01*
X0124546Y0155069D01*
X0126080Y0156604D01*
X0130684Y0156604D02*
X0130684Y0152000D01*
X0136823Y0145069D02*
X0136823Y0142000D01*
X0136823Y0144302D02*
X0139892Y0144302D01*
X0139892Y0145069D02*
X0138358Y0146604D01*
X0136823Y0145069D01*
X0139892Y0145069D02*
X0139892Y0142000D01*
X0141427Y0143535D02*
X0141427Y0146604D01*
X0141427Y0143535D02*
X0142961Y0142000D01*
X0144496Y0143535D01*
X0144496Y0146604D01*
X0146031Y0146604D02*
X0149100Y0144302D01*
X0146031Y0142000D01*
X0146031Y0126604D02*
X0149100Y0124302D01*
X0146031Y0122000D01*
X0144496Y0123535D02*
X0142961Y0122000D01*
X0141427Y0123535D01*
X0141427Y0126604D01*
X0139892Y0124302D02*
X0139125Y0125069D01*
X0137590Y0125069D01*
X0136823Y0124302D01*
X0136823Y0123535D01*
X0139892Y0123535D01*
X0139892Y0124302D02*
X0139892Y0122767D01*
X0139125Y0122000D01*
X0137590Y0122000D01*
X0135288Y0122767D02*
X0135288Y0124302D01*
X0134521Y0125069D01*
X0132986Y0125069D01*
X0132219Y0124302D01*
X0132219Y0123535D01*
X0135288Y0123535D01*
X0135288Y0122767D02*
X0134521Y0122000D01*
X0132986Y0122000D01*
X0132219Y0115069D02*
X0134521Y0115069D01*
X0135288Y0114302D01*
X0135288Y0112767D01*
X0134521Y0112000D01*
X0132219Y0112000D01*
X0132986Y0106604D02*
X0132219Y0105837D01*
X0132219Y0104302D01*
X0132986Y0103535D01*
X0135288Y0103535D01*
X0135288Y0102000D02*
X0135288Y0106604D01*
X0132986Y0106604D01*
X0130684Y0106604D02*
X0130684Y0102000D01*
X0129150Y0103535D01*
X0127615Y0102000D01*
X0127615Y0106604D01*
X0126080Y0106604D02*
X0124546Y0105069D01*
X0123011Y0106604D01*
X0123011Y0102000D01*
X0126080Y0102000D02*
X0126080Y0106604D01*
X0136823Y0101233D02*
X0139892Y0101233D01*
X0141427Y0103535D02*
X0141427Y0106604D01*
X0141427Y0103535D02*
X0142961Y0102000D01*
X0144496Y0103535D01*
X0144496Y0106604D01*
X0146031Y0106604D02*
X0149100Y0104302D01*
X0146031Y0102000D01*
X0146031Y0096604D02*
X0149100Y0094302D01*
X0146031Y0092000D01*
X0144496Y0093535D02*
X0142961Y0092000D01*
X0141427Y0093535D01*
X0141427Y0096604D01*
X0139892Y0095069D02*
X0138358Y0096604D01*
X0136823Y0095069D01*
X0136823Y0092000D01*
X0136823Y0094302D02*
X0139892Y0094302D01*
X0139892Y0095069D02*
X0139892Y0092000D01*
X0144496Y0093535D02*
X0144496Y0096604D01*
X0142961Y0112000D02*
X0141427Y0113535D01*
X0141427Y0116604D01*
X0139125Y0115069D02*
X0139892Y0114302D01*
X0139892Y0112767D01*
X0139125Y0112000D01*
X0136823Y0112000D01*
X0136823Y0115069D02*
X0139125Y0115069D01*
X0142961Y0112000D02*
X0144496Y0113535D01*
X0144496Y0116604D01*
X0146031Y0116604D02*
X0149100Y0114302D01*
X0146031Y0112000D01*
X0144496Y0123535D02*
X0144496Y0126604D01*
X0144496Y0173535D02*
X0144496Y0176604D01*
X0144496Y0076604D02*
X0144496Y0073535D01*
X0142961Y0072000D01*
X0141427Y0073535D01*
X0141427Y0076604D01*
X0139892Y0074302D02*
X0139125Y0075069D01*
X0137590Y0075069D01*
X0136823Y0074302D01*
X0136823Y0073535D01*
X0139892Y0073535D01*
X0139892Y0074302D02*
X0139892Y0072767D01*
X0139125Y0072000D01*
X0137590Y0072000D01*
X0135288Y0072767D02*
X0135288Y0074302D01*
X0134521Y0075069D01*
X0132986Y0075069D01*
X0132219Y0074302D01*
X0132219Y0073535D01*
X0135288Y0073535D01*
X0135288Y0072767D02*
X0134521Y0072000D01*
X0132986Y0072000D01*
X0132219Y0065069D02*
X0134521Y0065069D01*
X0135288Y0064302D01*
X0135288Y0062767D01*
X0134521Y0062000D01*
X0132219Y0062000D01*
X0136823Y0062000D02*
X0139125Y0062000D01*
X0139892Y0062767D01*
X0139892Y0064302D01*
X0139125Y0065069D01*
X0136823Y0065069D01*
X0141427Y0063535D02*
X0141427Y0066604D01*
X0141427Y0063535D02*
X0142961Y0062000D01*
X0144496Y0063535D01*
X0144496Y0066604D01*
X0146031Y0066604D02*
X0149100Y0064302D01*
X0146031Y0062000D01*
X0146031Y0056604D02*
X0149100Y0054302D01*
X0146031Y0052000D01*
X0144496Y0053535D02*
X0142961Y0052000D01*
X0141427Y0053535D01*
X0141427Y0056604D01*
X0144496Y0056604D02*
X0144496Y0053535D01*
X0139892Y0051233D02*
X0136823Y0051233D01*
X0135288Y0052000D02*
X0135288Y0056604D01*
X0132986Y0056604D01*
X0132219Y0055837D01*
X0132219Y0054302D01*
X0132986Y0053535D01*
X0135288Y0053535D01*
X0130684Y0052000D02*
X0129150Y0053535D01*
X0127615Y0052000D01*
X0127615Y0056604D01*
X0126080Y0056604D02*
X0126080Y0052000D01*
X0123011Y0052000D02*
X0123011Y0056604D01*
X0124546Y0055069D01*
X0126080Y0056604D01*
X0130684Y0056604D02*
X0130684Y0052000D01*
X0136823Y0045069D02*
X0136823Y0042000D01*
X0136823Y0044302D02*
X0139892Y0044302D01*
X0139892Y0045069D02*
X0138358Y0046604D01*
X0136823Y0045069D01*
X0139892Y0045069D02*
X0139892Y0042000D01*
X0141427Y0043535D02*
X0141427Y0046604D01*
X0141427Y0043535D02*
X0142961Y0042000D01*
X0144496Y0043535D01*
X0144496Y0046604D01*
X0146031Y0046604D02*
X0149100Y0044302D01*
X0146031Y0042000D01*
X0146031Y0072000D02*
X0149100Y0074302D01*
X0146031Y0076604D01*
D12*
X0173221Y0042103D02*
X0173221Y0036493D01*
X0185379Y0036493D01*
X0185379Y0042103D01*
X0173221Y0042103D01*
X0198993Y0025379D02*
X0198993Y0013221D01*
X0204603Y0013221D01*
X0204603Y0025379D01*
X0198993Y0025379D01*
X0213997Y0078221D02*
X0219607Y0078221D01*
X0219607Y0090379D01*
X0213997Y0090379D01*
X0213997Y0078221D01*
X0213997Y0118221D02*
X0219607Y0118221D01*
X0219607Y0130379D01*
X0213997Y0130379D01*
X0213997Y0118221D01*
X0213997Y0158221D02*
X0219607Y0158221D01*
X0219607Y0170379D01*
X0213997Y0170379D01*
X0213997Y0158221D01*
X0213997Y0198221D02*
X0219607Y0198221D01*
X0219607Y0210379D01*
X0213997Y0210379D01*
X0213997Y0198221D01*
X0213997Y0238221D02*
X0219607Y0238221D01*
X0219607Y0250379D01*
X0213997Y0250379D01*
X0213997Y0238221D01*
X0060288Y0082827D02*
X0078815Y0064300D01*
X0059300Y0044785D01*
X0039785Y0064300D01*
X0058312Y0082827D01*
X0060288Y0082827D01*
X0057886Y0079573D02*
X0057888Y0079648D01*
X0057894Y0079722D01*
X0057904Y0079796D01*
X0057917Y0079869D01*
X0057935Y0079942D01*
X0057956Y0080013D01*
X0057981Y0080084D01*
X0058010Y0080153D01*
X0058043Y0080220D01*
X0058079Y0080285D01*
X0058118Y0080349D01*
X0058160Y0080410D01*
X0058206Y0080469D01*
X0058255Y0080526D01*
X0058307Y0080579D01*
X0058361Y0080630D01*
X0058418Y0080679D01*
X0058478Y0080723D01*
X0058540Y0080765D01*
X0058604Y0080804D01*
X0058670Y0080839D01*
X0058737Y0080870D01*
X0058807Y0080898D01*
X0058877Y0080922D01*
X0058949Y0080943D01*
X0059022Y0080959D01*
X0059095Y0080972D01*
X0059170Y0080981D01*
X0059244Y0080986D01*
X0059319Y0080987D01*
X0059393Y0080984D01*
X0059468Y0080977D01*
X0059541Y0080966D01*
X0059615Y0080952D01*
X0059687Y0080933D01*
X0059758Y0080911D01*
X0059828Y0080885D01*
X0059897Y0080855D01*
X0059963Y0080822D01*
X0060028Y0080785D01*
X0060091Y0080745D01*
X0060152Y0080701D01*
X0060210Y0080655D01*
X0060266Y0080605D01*
X0060319Y0080553D01*
X0060370Y0080498D01*
X0060417Y0080440D01*
X0060461Y0080380D01*
X0060502Y0080317D01*
X0060540Y0080253D01*
X0060574Y0080187D01*
X0060605Y0080118D01*
X0060632Y0080049D01*
X0060655Y0079978D01*
X0060674Y0079906D01*
X0060690Y0079833D01*
X0060702Y0079759D01*
X0060710Y0079685D01*
X0060714Y0079610D01*
X0060714Y0079536D01*
X0060710Y0079461D01*
X0060702Y0079387D01*
X0060690Y0079313D01*
X0060674Y0079240D01*
X0060655Y0079168D01*
X0060632Y0079097D01*
X0060605Y0079028D01*
X0060574Y0078959D01*
X0060540Y0078893D01*
X0060502Y0078829D01*
X0060461Y0078766D01*
X0060417Y0078706D01*
X0060370Y0078648D01*
X0060319Y0078593D01*
X0060266Y0078541D01*
X0060210Y0078491D01*
X0060152Y0078445D01*
X0060091Y0078401D01*
X0060028Y0078361D01*
X0059963Y0078324D01*
X0059897Y0078291D01*
X0059828Y0078261D01*
X0059758Y0078235D01*
X0059687Y0078213D01*
X0059615Y0078194D01*
X0059541Y0078180D01*
X0059468Y0078169D01*
X0059393Y0078162D01*
X0059319Y0078159D01*
X0059244Y0078160D01*
X0059170Y0078165D01*
X0059095Y0078174D01*
X0059022Y0078187D01*
X0058949Y0078203D01*
X0058877Y0078224D01*
X0058807Y0078248D01*
X0058737Y0078276D01*
X0058670Y0078307D01*
X0058604Y0078342D01*
X0058540Y0078381D01*
X0058478Y0078423D01*
X0058418Y0078467D01*
X0058361Y0078516D01*
X0058307Y0078567D01*
X0058255Y0078620D01*
X0058206Y0078677D01*
X0058160Y0078736D01*
X0058118Y0078797D01*
X0058079Y0078861D01*
X0058043Y0078926D01*
X0058010Y0078993D01*
X0057981Y0079062D01*
X0057956Y0079133D01*
X0057935Y0079204D01*
X0057917Y0079277D01*
X0057904Y0079350D01*
X0057894Y0079424D01*
X0057888Y0079498D01*
X0057886Y0079573D01*
D13*
X0057140Y0244460D02*
X0041460Y0244460D01*
X0041460Y0264140D01*
X0057140Y0264140D01*
X0057140Y0244460D01*
X0051300Y0264140D02*
X0051298Y0264052D01*
X0051292Y0263963D01*
X0051282Y0263875D01*
X0051269Y0263788D01*
X0051251Y0263701D01*
X0051230Y0263615D01*
X0051205Y0263530D01*
X0051176Y0263447D01*
X0051143Y0263364D01*
X0051107Y0263284D01*
X0051068Y0263205D01*
X0051025Y0263127D01*
X0050978Y0263052D01*
X0050928Y0262979D01*
X0050875Y0262908D01*
X0050819Y0262839D01*
X0050760Y0262773D01*
X0050698Y0262710D01*
X0050634Y0262650D01*
X0050567Y0262592D01*
X0050497Y0262538D01*
X0050425Y0262486D01*
X0050351Y0262438D01*
X0050274Y0262393D01*
X0050196Y0262352D01*
X0050116Y0262314D01*
X0050035Y0262280D01*
X0049952Y0262249D01*
X0049867Y0262222D01*
X0049782Y0262199D01*
X0049696Y0262180D01*
X0049608Y0262164D01*
X0049521Y0262152D01*
X0049433Y0262144D01*
X0049344Y0262140D01*
X0049256Y0262140D01*
X0049167Y0262144D01*
X0049079Y0262152D01*
X0048992Y0262164D01*
X0048904Y0262180D01*
X0048818Y0262199D01*
X0048733Y0262222D01*
X0048648Y0262249D01*
X0048565Y0262280D01*
X0048484Y0262314D01*
X0048404Y0262352D01*
X0048326Y0262393D01*
X0048249Y0262438D01*
X0048175Y0262486D01*
X0048103Y0262538D01*
X0048033Y0262592D01*
X0047966Y0262650D01*
X0047902Y0262710D01*
X0047840Y0262773D01*
X0047781Y0262839D01*
X0047725Y0262908D01*
X0047672Y0262979D01*
X0047622Y0263052D01*
X0047575Y0263127D01*
X0047532Y0263205D01*
X0047493Y0263284D01*
X0047457Y0263364D01*
X0047424Y0263447D01*
X0047395Y0263530D01*
X0047370Y0263615D01*
X0047349Y0263701D01*
X0047331Y0263788D01*
X0047318Y0263875D01*
X0047308Y0263963D01*
X0047302Y0264052D01*
X0047300Y0264140D01*
D14*
X0039989Y0279989D02*
X0036052Y0279989D01*
X0036080Y0280060D02*
X0036080Y0283926D01*
X0036052Y0283926D01*
X0036052Y0295737D02*
X0036052Y0299674D01*
X0063611Y0279989D02*
X0067548Y0279989D01*
X0067548Y0283926D01*
X0067548Y0295737D02*
X0067548Y0299674D01*
X0071111Y0023611D02*
X0075048Y0023611D01*
X0075020Y0023540D02*
X0075020Y0019674D01*
X0075048Y0019674D01*
X0075048Y0007863D02*
X0075048Y0003926D01*
X0047489Y0023611D02*
X0043552Y0023611D01*
X0043552Y0019674D01*
X0043552Y0007863D02*
X0043552Y0003926D01*
D15*
X0082850Y0007100D02*
X0082850Y0007601D01*
X0083100Y0007851D01*
X0084351Y0007851D01*
X0084101Y0008323D02*
X0084351Y0008573D01*
X0084351Y0009074D01*
X0084101Y0009324D01*
X0083851Y0009324D01*
X0083601Y0009074D01*
X0083350Y0009324D01*
X0083100Y0009324D01*
X0082850Y0009074D01*
X0082850Y0008573D01*
X0083100Y0008323D01*
X0083601Y0008824D02*
X0083601Y0009074D01*
X0082850Y0007100D02*
X0083100Y0006850D01*
X0084351Y0006850D01*
X0028251Y0293903D02*
X0027000Y0293903D01*
X0026750Y0294154D01*
X0026750Y0294654D01*
X0027000Y0294904D01*
X0028251Y0294904D01*
X0027751Y0295377D02*
X0028251Y0295877D01*
X0026750Y0295877D01*
X0026750Y0295377D02*
X0026750Y0296378D01*
D16*
X0036446Y0300265D02*
X0036446Y0280580D01*
X0074654Y0023020D02*
X0074654Y0003335D01*
M02*
