G75*
%MOIN*%
%OFA0B0*%
%FSLAX25Y25*%
%IPPOS*%
%LPD*%
%AMOC8*
5,1,8,0,0,1.08239X$1,22.5*
%
%ADD10C,0.00000*%
%ADD11R,0.05518X0.06699*%
%ADD12R,0.06306X0.06306*%
%ADD13R,0.05912X0.04337*%
%ADD14R,0.04337X0.05912*%
%ADD15R,0.06699X0.05518*%
%ADD16C,0.04800*%
%ADD17C,0.06400*%
%ADD18R,0.05124X0.05124*%
%ADD19R,0.05550X0.05550*%
%ADD20C,0.05550*%
%ADD21C,0.07000*%
%ADD22C,0.06000*%
%ADD23R,0.06306X0.02369*%
%ADD24R,0.02369X0.06306*%
%ADD25R,0.05124X0.02762*%
%ADD26OC8,0.06400*%
%ADD27C,0.16998*%
D10*
X0001800Y0001800D02*
X0001800Y0301761D01*
X0245501Y0301761D01*
X0245501Y0001800D01*
X0001800Y0001800D01*
D11*
X0078060Y0134300D03*
X0085540Y0134300D03*
X0135560Y0149300D03*
X0143040Y0149300D03*
X0143040Y0199300D03*
X0135560Y0199300D03*
X0135560Y0249300D03*
X0143040Y0249300D03*
X0175560Y0274300D03*
X0183040Y0274300D03*
X0185560Y0259300D03*
X0193040Y0259300D03*
X0210560Y0259300D03*
X0218040Y0259300D03*
X0228060Y0279300D03*
X0235540Y0279300D03*
X0220737Y0229300D03*
X0212863Y0229300D03*
X0213040Y0219300D03*
X0205560Y0219300D03*
X0193040Y0219300D03*
X0185560Y0219300D03*
X0185363Y0229300D03*
X0193237Y0229300D03*
X0193237Y0189300D03*
X0185363Y0189300D03*
X0185560Y0179300D03*
X0193040Y0179300D03*
X0205560Y0179300D03*
X0213040Y0179300D03*
X0212863Y0189300D03*
X0220737Y0189300D03*
X0220737Y0149300D03*
X0212863Y0149300D03*
X0213040Y0139300D03*
X0205560Y0139300D03*
X0193040Y0139300D03*
X0185560Y0139300D03*
X0185363Y0149300D03*
X0193237Y0149300D03*
X0193237Y0109300D03*
X0185363Y0109300D03*
X0185560Y0099300D03*
X0193040Y0099300D03*
X0205560Y0099300D03*
X0213040Y0099300D03*
X0212863Y0109300D03*
X0220737Y0109300D03*
X0215737Y0069300D03*
X0207863Y0069300D03*
X0193237Y0069300D03*
X0185363Y0069300D03*
X0183237Y0044300D03*
X0175363Y0044300D03*
X0175363Y0034300D03*
X0183237Y0034300D03*
X0198060Y0034300D03*
X0205540Y0034300D03*
X0205540Y0024300D03*
X0198060Y0024300D03*
X0198060Y0014300D03*
X0205540Y0014300D03*
X0143040Y0049300D03*
X0135560Y0049300D03*
X0135560Y0099300D03*
X0143040Y0099300D03*
D12*
X0207942Y0084300D03*
X0225658Y0084300D03*
X0225658Y0124300D03*
X0207942Y0124300D03*
X0207942Y0164300D03*
X0225658Y0164300D03*
X0225658Y0204300D03*
X0207942Y0204300D03*
X0207942Y0244300D03*
X0225658Y0244300D03*
X0050658Y0134300D03*
X0032942Y0134300D03*
D13*
X0184969Y0124300D03*
X0193631Y0120560D03*
X0193631Y0128040D03*
X0193631Y0160560D03*
X0193631Y0168040D03*
X0184969Y0164300D03*
X0193631Y0200560D03*
X0193631Y0208040D03*
X0184969Y0204300D03*
X0193631Y0240560D03*
X0193631Y0248040D03*
X0184969Y0244300D03*
X0193631Y0088040D03*
X0193631Y0080560D03*
X0184969Y0084300D03*
D14*
X0175540Y0073631D03*
X0168060Y0073631D03*
X0171800Y0064969D03*
X0168060Y0104969D03*
X0175540Y0104969D03*
X0171800Y0113631D03*
X0168060Y0154969D03*
X0171800Y0163631D03*
X0175540Y0154969D03*
X0175540Y0204969D03*
X0168060Y0204969D03*
X0171800Y0213631D03*
X0168060Y0254969D03*
X0175540Y0254969D03*
X0171800Y0263631D03*
X0198060Y0288631D03*
X0205540Y0288631D03*
X0213060Y0288631D03*
X0220540Y0288631D03*
X0216800Y0279969D03*
X0228060Y0271131D03*
X0235540Y0271131D03*
X0231800Y0262469D03*
X0201800Y0279969D03*
D15*
X0144300Y0223040D03*
X0144300Y0215560D03*
X0126800Y0198040D03*
X0126800Y0190560D03*
X0144300Y0173040D03*
X0144300Y0165560D03*
X0126800Y0148040D03*
X0126800Y0140560D03*
X0144300Y0123040D03*
X0144300Y0115560D03*
X0126800Y0098040D03*
X0126800Y0090560D03*
X0144300Y0073040D03*
X0144300Y0065560D03*
X0126800Y0048040D03*
X0126800Y0040560D03*
X0089300Y0085560D03*
X0089300Y0093040D03*
X0079300Y0093040D03*
X0079300Y0085560D03*
X0069300Y0085560D03*
X0069300Y0093040D03*
X0064300Y0055540D03*
X0064300Y0048060D03*
X0054300Y0048060D03*
X0054300Y0055540D03*
X0029300Y0070560D03*
X0029300Y0078040D03*
X0029300Y0088060D03*
X0029300Y0095540D03*
X0026800Y0058040D03*
X0026800Y0050560D03*
X0016800Y0050560D03*
X0016800Y0058040D03*
X0099300Y0118060D03*
X0099300Y0125540D03*
X0109300Y0213060D03*
X0109300Y0220540D03*
X0119300Y0218060D03*
X0119300Y0225540D03*
X0126800Y0240560D03*
X0126800Y0248040D03*
X0121800Y0268060D03*
X0121800Y0275540D03*
X0111800Y0275540D03*
X0111800Y0268060D03*
X0101800Y0268060D03*
X0101800Y0275540D03*
X0054300Y0260540D03*
X0054300Y0253060D03*
X0044300Y0253060D03*
X0044300Y0260540D03*
X0024300Y0248040D03*
X0024300Y0240560D03*
X0014300Y0240560D03*
X0014300Y0248040D03*
X0234300Y0075540D03*
X0234300Y0068060D03*
D16*
X0074300Y0104600D02*
X0074300Y0109000D01*
X0054300Y0109000D02*
X0054300Y0104600D01*
X0020768Y0140032D02*
X0016368Y0140032D01*
X0016368Y0160032D02*
X0020768Y0160032D01*
D17*
X0019800Y0104300D02*
X0013800Y0104300D01*
X0013800Y0094300D02*
X0019800Y0094300D01*
X0019800Y0084300D02*
X0013800Y0084300D01*
X0153800Y0074300D02*
X0159800Y0074300D01*
X0159800Y0064300D02*
X0153800Y0064300D01*
X0153800Y0054300D02*
X0159800Y0054300D01*
X0159800Y0044300D02*
X0153800Y0044300D01*
X0153800Y0094300D02*
X0159800Y0094300D01*
X0159800Y0104300D02*
X0153800Y0104300D01*
X0153800Y0114300D02*
X0159800Y0114300D01*
X0159800Y0124300D02*
X0153800Y0124300D01*
X0153800Y0144300D02*
X0159800Y0144300D01*
X0159800Y0154300D02*
X0153800Y0154300D01*
X0153800Y0164300D02*
X0159800Y0164300D01*
X0159800Y0174300D02*
X0153800Y0174300D01*
X0153800Y0194300D02*
X0159800Y0194300D01*
X0159800Y0204300D02*
X0153800Y0204300D01*
X0153800Y0214300D02*
X0159800Y0214300D01*
X0159800Y0224300D02*
X0153800Y0224300D01*
X0153800Y0244300D02*
X0159800Y0244300D01*
X0159800Y0254300D02*
X0153800Y0254300D01*
X0153800Y0264300D02*
X0159800Y0264300D01*
X0159800Y0274300D02*
X0153800Y0274300D01*
D18*
X0119300Y0285166D03*
X0111800Y0285166D03*
X0104300Y0285166D03*
X0104300Y0293434D03*
X0111800Y0293434D03*
X0119300Y0293434D03*
X0024300Y0263434D03*
X0024300Y0255166D03*
X0014300Y0255166D03*
X0014300Y0263434D03*
X0016800Y0043434D03*
X0016800Y0035166D03*
X0026800Y0035166D03*
X0026800Y0043434D03*
D19*
X0221800Y0029300D03*
D20*
X0221800Y0021426D03*
D21*
X0216800Y0046000D02*
X0216800Y0052600D01*
X0201800Y0052600D02*
X0201800Y0046000D01*
X0231800Y0046000D02*
X0231800Y0052600D01*
D22*
X0074300Y0257863D03*
X0074300Y0265737D03*
D23*
G36*
X0055397Y0204648D02*
X0059855Y0200190D01*
X0058181Y0198516D01*
X0053723Y0202974D01*
X0055397Y0204648D01*
G37*
G36*
X0053170Y0202421D02*
X0057628Y0197963D01*
X0055954Y0196289D01*
X0051496Y0200747D01*
X0053170Y0202421D01*
G37*
G36*
X0050943Y0200194D02*
X0055401Y0195736D01*
X0053727Y0194062D01*
X0049269Y0198520D01*
X0050943Y0200194D01*
G37*
G36*
X0048716Y0197967D02*
X0053174Y0193509D01*
X0051500Y0191835D01*
X0047042Y0196293D01*
X0048716Y0197967D01*
G37*
G36*
X0046489Y0195740D02*
X0050947Y0191282D01*
X0049273Y0189608D01*
X0044815Y0194066D01*
X0046489Y0195740D01*
G37*
G36*
X0044261Y0193513D02*
X0048719Y0189055D01*
X0047045Y0187381D01*
X0042587Y0191839D01*
X0044261Y0193513D01*
G37*
G36*
X0042034Y0191285D02*
X0046492Y0186827D01*
X0044818Y0185153D01*
X0040360Y0189611D01*
X0042034Y0191285D01*
G37*
G36*
X0039807Y0189058D02*
X0044265Y0184600D01*
X0042591Y0182926D01*
X0038133Y0187384D01*
X0039807Y0189058D01*
G37*
G36*
X0037580Y0186831D02*
X0042038Y0182373D01*
X0040364Y0180699D01*
X0035906Y0185157D01*
X0037580Y0186831D01*
G37*
G36*
X0035353Y0184604D02*
X0039811Y0180146D01*
X0038137Y0178472D01*
X0033679Y0182930D01*
X0035353Y0184604D01*
G37*
G36*
X0033126Y0182377D02*
X0037584Y0177919D01*
X0035910Y0176245D01*
X0031452Y0180703D01*
X0033126Y0182377D01*
G37*
G36*
X0065419Y0150084D02*
X0069877Y0145626D01*
X0068203Y0143952D01*
X0063745Y0148410D01*
X0065419Y0150084D01*
G37*
G36*
X0067646Y0152311D02*
X0072104Y0147853D01*
X0070430Y0146179D01*
X0065972Y0150637D01*
X0067646Y0152311D01*
G37*
G36*
X0069873Y0154538D02*
X0074331Y0150080D01*
X0072657Y0148406D01*
X0068199Y0152864D01*
X0069873Y0154538D01*
G37*
G36*
X0072100Y0156765D02*
X0076558Y0152307D01*
X0074884Y0150633D01*
X0070426Y0155091D01*
X0072100Y0156765D01*
G37*
G36*
X0074327Y0158992D02*
X0078785Y0154534D01*
X0077111Y0152860D01*
X0072653Y0157318D01*
X0074327Y0158992D01*
G37*
G36*
X0076555Y0161219D02*
X0081013Y0156761D01*
X0079339Y0155087D01*
X0074881Y0159545D01*
X0076555Y0161219D01*
G37*
G36*
X0078782Y0163447D02*
X0083240Y0158989D01*
X0081566Y0157315D01*
X0077108Y0161773D01*
X0078782Y0163447D01*
G37*
G36*
X0081009Y0165674D02*
X0085467Y0161216D01*
X0083793Y0159542D01*
X0079335Y0164000D01*
X0081009Y0165674D01*
G37*
G36*
X0083236Y0167901D02*
X0087694Y0163443D01*
X0086020Y0161769D01*
X0081562Y0166227D01*
X0083236Y0167901D01*
G37*
G36*
X0085463Y0170128D02*
X0089921Y0165670D01*
X0088247Y0163996D01*
X0083789Y0168454D01*
X0085463Y0170128D01*
G37*
G36*
X0087690Y0172355D02*
X0092148Y0167897D01*
X0090474Y0166223D01*
X0086016Y0170681D01*
X0087690Y0172355D01*
G37*
D24*
G36*
X0090474Y0182377D02*
X0092148Y0180703D01*
X0087690Y0176245D01*
X0086016Y0177919D01*
X0090474Y0182377D01*
G37*
G36*
X0088247Y0184604D02*
X0089921Y0182930D01*
X0085463Y0178472D01*
X0083789Y0180146D01*
X0088247Y0184604D01*
G37*
G36*
X0086020Y0186831D02*
X0087694Y0185157D01*
X0083236Y0180699D01*
X0081562Y0182373D01*
X0086020Y0186831D01*
G37*
G36*
X0083793Y0189058D02*
X0085467Y0187384D01*
X0081009Y0182926D01*
X0079335Y0184600D01*
X0083793Y0189058D01*
G37*
G36*
X0081566Y0191285D02*
X0083240Y0189611D01*
X0078782Y0185153D01*
X0077108Y0186827D01*
X0081566Y0191285D01*
G37*
G36*
X0079339Y0193513D02*
X0081013Y0191839D01*
X0076555Y0187381D01*
X0074881Y0189055D01*
X0079339Y0193513D01*
G37*
G36*
X0077111Y0195740D02*
X0078785Y0194066D01*
X0074327Y0189608D01*
X0072653Y0191282D01*
X0077111Y0195740D01*
G37*
G36*
X0074884Y0197967D02*
X0076558Y0196293D01*
X0072100Y0191835D01*
X0070426Y0193509D01*
X0074884Y0197967D01*
G37*
G36*
X0072657Y0200194D02*
X0074331Y0198520D01*
X0069873Y0194062D01*
X0068199Y0195736D01*
X0072657Y0200194D01*
G37*
G36*
X0070430Y0202421D02*
X0072104Y0200747D01*
X0067646Y0196289D01*
X0065972Y0197963D01*
X0070430Y0202421D01*
G37*
G36*
X0068203Y0204648D02*
X0069877Y0202974D01*
X0065419Y0198516D01*
X0063745Y0200190D01*
X0068203Y0204648D01*
G37*
G36*
X0038137Y0170128D02*
X0039811Y0168454D01*
X0035353Y0163996D01*
X0033679Y0165670D01*
X0038137Y0170128D01*
G37*
G36*
X0035910Y0172355D02*
X0037584Y0170681D01*
X0033126Y0166223D01*
X0031452Y0167897D01*
X0035910Y0172355D01*
G37*
G36*
X0040364Y0167901D02*
X0042038Y0166227D01*
X0037580Y0161769D01*
X0035906Y0163443D01*
X0040364Y0167901D01*
G37*
G36*
X0042591Y0165674D02*
X0044265Y0164000D01*
X0039807Y0159542D01*
X0038133Y0161216D01*
X0042591Y0165674D01*
G37*
G36*
X0044818Y0163447D02*
X0046492Y0161773D01*
X0042034Y0157315D01*
X0040360Y0158989D01*
X0044818Y0163447D01*
G37*
G36*
X0047045Y0161219D02*
X0048719Y0159545D01*
X0044261Y0155087D01*
X0042587Y0156761D01*
X0047045Y0161219D01*
G37*
G36*
X0049273Y0158992D02*
X0050947Y0157318D01*
X0046489Y0152860D01*
X0044815Y0154534D01*
X0049273Y0158992D01*
G37*
G36*
X0051500Y0156765D02*
X0053174Y0155091D01*
X0048716Y0150633D01*
X0047042Y0152307D01*
X0051500Y0156765D01*
G37*
G36*
X0053727Y0154538D02*
X0055401Y0152864D01*
X0050943Y0148406D01*
X0049269Y0150080D01*
X0053727Y0154538D01*
G37*
G36*
X0055954Y0152311D02*
X0057628Y0150637D01*
X0053170Y0146179D01*
X0051496Y0147853D01*
X0055954Y0152311D01*
G37*
G36*
X0058181Y0150084D02*
X0059855Y0148410D01*
X0055397Y0143952D01*
X0053723Y0145626D01*
X0058181Y0150084D01*
G37*
D25*
X0136658Y0143040D03*
X0136658Y0135560D03*
X0146942Y0135560D03*
X0146942Y0139300D03*
X0146942Y0143040D03*
X0146942Y0185560D03*
X0146942Y0189300D03*
X0146942Y0193040D03*
X0136658Y0193040D03*
X0136658Y0185560D03*
X0136658Y0235560D03*
X0136658Y0243040D03*
X0146942Y0243040D03*
X0146942Y0239300D03*
X0146942Y0235560D03*
X0146942Y0093040D03*
X0146942Y0089300D03*
X0146942Y0085560D03*
X0136658Y0085560D03*
X0136658Y0093040D03*
X0136658Y0043040D03*
X0136658Y0035560D03*
X0146942Y0035560D03*
X0146942Y0039300D03*
X0146942Y0043040D03*
D26*
X0024300Y0186800D03*
X0024300Y0196800D03*
X0024300Y0206800D03*
X0024300Y0216800D03*
X0014300Y0216800D03*
X0014300Y0206800D03*
X0014300Y0196800D03*
X0014300Y0186800D03*
D27*
X0014300Y0289300D03*
X0139300Y0289300D03*
X0099300Y0014300D03*
X0014300Y0014300D03*
M02*
