G75*
%MOIN*%
%OFA0B0*%
%FSLAX25Y25*%
%IPPOS*%
%LPD*%
%AMOC8*
5,1,8,0,0,1.08239X$1,22.5*
%
%ADD10C,0.00000*%
%ADD11R,0.04724X0.02362*%
%ADD12R,0.05000X0.02100*%
%ADD13R,0.02100X0.05000*%
%ADD14R,0.05118X0.06299*%
%ADD15R,0.06299X0.05118*%
%ADD16R,0.02362X0.04724*%
%ADD17R,0.03600X0.01600*%
%ADD18R,0.07087X0.05906*%
%ADD19R,0.01575X0.05512*%
D10*
X0001800Y0001800D02*
X0001800Y0301761D01*
X0245501Y0301761D01*
X0245501Y0001800D01*
X0001800Y0001800D01*
D11*
X0196658Y0015560D03*
X0196658Y0023040D03*
X0206942Y0023040D03*
X0206942Y0019300D03*
X0206942Y0015560D03*
X0211658Y0080560D03*
X0211658Y0084300D03*
X0211658Y0088040D03*
X0221942Y0088040D03*
X0221942Y0080560D03*
X0221942Y0120560D03*
X0221942Y0128040D03*
X0211658Y0128040D03*
X0211658Y0124300D03*
X0211658Y0120560D03*
X0211658Y0160560D03*
X0211658Y0164300D03*
X0211658Y0168040D03*
X0221942Y0168040D03*
X0221942Y0160560D03*
X0221942Y0200560D03*
X0221942Y0208040D03*
X0211658Y0208040D03*
X0211658Y0204300D03*
X0211658Y0200560D03*
X0211658Y0240560D03*
X0211658Y0244300D03*
X0211658Y0248040D03*
X0221942Y0248040D03*
X0221942Y0240560D03*
D12*
G36*
X0076535Y0067430D02*
X0080070Y0070965D01*
X0081555Y0069480D01*
X0078020Y0065945D01*
X0076535Y0067430D01*
G37*
G36*
X0074308Y0069657D02*
X0077843Y0073192D01*
X0079328Y0071707D01*
X0075793Y0068172D01*
X0074308Y0069657D01*
G37*
G36*
X0072081Y0071884D02*
X0075616Y0075419D01*
X0077101Y0073934D01*
X0073566Y0070399D01*
X0072081Y0071884D01*
G37*
G36*
X0069854Y0074112D02*
X0073389Y0077647D01*
X0074874Y0076162D01*
X0071339Y0072627D01*
X0069854Y0074112D01*
G37*
G36*
X0067627Y0076339D02*
X0071162Y0079874D01*
X0072647Y0078389D01*
X0069112Y0074854D01*
X0067627Y0076339D01*
G37*
G36*
X0065399Y0078566D02*
X0068934Y0082101D01*
X0070419Y0080616D01*
X0066884Y0077081D01*
X0065399Y0078566D01*
G37*
G36*
X0063172Y0080793D02*
X0066707Y0084328D01*
X0068192Y0082843D01*
X0064657Y0079308D01*
X0063172Y0080793D01*
G37*
G36*
X0060945Y0083020D02*
X0064480Y0086555D01*
X0065965Y0085070D01*
X0062430Y0081535D01*
X0060945Y0083020D01*
G37*
G36*
X0039272Y0056893D02*
X0042807Y0060428D01*
X0044292Y0058943D01*
X0040757Y0055408D01*
X0039272Y0056893D01*
G37*
G36*
X0037045Y0059120D02*
X0040580Y0062655D01*
X0042065Y0061170D01*
X0038530Y0057635D01*
X0037045Y0059120D01*
G37*
G36*
X0041499Y0054666D02*
X0045034Y0058201D01*
X0046519Y0056716D01*
X0042984Y0053181D01*
X0041499Y0054666D01*
G37*
G36*
X0043726Y0052438D02*
X0047261Y0055973D01*
X0048746Y0054488D01*
X0045211Y0050953D01*
X0043726Y0052438D01*
G37*
G36*
X0045953Y0050211D02*
X0049488Y0053746D01*
X0050973Y0052261D01*
X0047438Y0048726D01*
X0045953Y0050211D01*
G37*
G36*
X0048181Y0047984D02*
X0051716Y0051519D01*
X0053201Y0050034D01*
X0049666Y0046499D01*
X0048181Y0047984D01*
G37*
G36*
X0050408Y0045757D02*
X0053943Y0049292D01*
X0055428Y0047807D01*
X0051893Y0044272D01*
X0050408Y0045757D01*
G37*
G36*
X0052635Y0043530D02*
X0056170Y0047065D01*
X0057655Y0045580D01*
X0054120Y0042045D01*
X0052635Y0043530D01*
G37*
D13*
G36*
X0060945Y0045580D02*
X0062430Y0047065D01*
X0065965Y0043530D01*
X0064480Y0042045D01*
X0060945Y0045580D01*
G37*
G36*
X0063172Y0047807D02*
X0064657Y0049292D01*
X0068192Y0045757D01*
X0066707Y0044272D01*
X0063172Y0047807D01*
G37*
G36*
X0065399Y0050034D02*
X0066884Y0051519D01*
X0070419Y0047984D01*
X0068934Y0046499D01*
X0065399Y0050034D01*
G37*
G36*
X0067627Y0052261D02*
X0069112Y0053746D01*
X0072647Y0050211D01*
X0071162Y0048726D01*
X0067627Y0052261D01*
G37*
G36*
X0069854Y0054488D02*
X0071339Y0055973D01*
X0074874Y0052438D01*
X0073389Y0050953D01*
X0069854Y0054488D01*
G37*
G36*
X0072081Y0056716D02*
X0073566Y0058201D01*
X0077101Y0054666D01*
X0075616Y0053181D01*
X0072081Y0056716D01*
G37*
G36*
X0074308Y0058943D02*
X0075793Y0060428D01*
X0079328Y0056893D01*
X0077843Y0055408D01*
X0074308Y0058943D01*
G37*
G36*
X0076535Y0061170D02*
X0078020Y0062655D01*
X0081555Y0059120D01*
X0080070Y0057635D01*
X0076535Y0061170D01*
G37*
G36*
X0052635Y0085070D02*
X0054120Y0086555D01*
X0057655Y0083020D01*
X0056170Y0081535D01*
X0052635Y0085070D01*
G37*
G36*
X0050408Y0082843D02*
X0051893Y0084328D01*
X0055428Y0080793D01*
X0053943Y0079308D01*
X0050408Y0082843D01*
G37*
G36*
X0048181Y0080616D02*
X0049666Y0082101D01*
X0053201Y0078566D01*
X0051716Y0077081D01*
X0048181Y0080616D01*
G37*
G36*
X0045953Y0078389D02*
X0047438Y0079874D01*
X0050973Y0076339D01*
X0049488Y0074854D01*
X0045953Y0078389D01*
G37*
G36*
X0043726Y0076162D02*
X0045211Y0077647D01*
X0048746Y0074112D01*
X0047261Y0072627D01*
X0043726Y0076162D01*
G37*
G36*
X0041499Y0073934D02*
X0042984Y0075419D01*
X0046519Y0071884D01*
X0045034Y0070399D01*
X0041499Y0073934D01*
G37*
G36*
X0039272Y0071707D02*
X0040757Y0073192D01*
X0044292Y0069657D01*
X0042807Y0068172D01*
X0039272Y0071707D01*
G37*
G36*
X0037045Y0069480D02*
X0038530Y0070965D01*
X0042065Y0067430D01*
X0040580Y0065945D01*
X0037045Y0069480D01*
G37*
D14*
G36*
X0027501Y0070552D02*
X0031120Y0066933D01*
X0026667Y0062480D01*
X0023048Y0066099D01*
X0027501Y0070552D01*
G37*
G36*
X0030552Y0076099D02*
X0026933Y0072480D01*
X0022480Y0076933D01*
X0026099Y0080552D01*
X0030552Y0076099D01*
G37*
G36*
X0036120Y0081667D02*
X0032501Y0078048D01*
X0028048Y0082501D01*
X0031667Y0086120D01*
X0036120Y0081667D01*
G37*
G36*
X0021933Y0076120D02*
X0025552Y0072501D01*
X0021099Y0068048D01*
X0017480Y0071667D01*
X0021933Y0076120D01*
G37*
X0050363Y0096800D03*
X0058237Y0096800D03*
X0070363Y0096800D03*
X0078237Y0096800D03*
X0078237Y0031800D03*
X0070363Y0031800D03*
X0020737Y0176800D03*
X0012863Y0176800D03*
X0012863Y0226800D03*
X0020737Y0226800D03*
X0022863Y0249300D03*
X0030737Y0249300D03*
X0058060Y0189300D03*
X0065540Y0189300D03*
D15*
X0046800Y0135737D03*
X0046800Y0127863D03*
X0008568Y0136095D03*
X0008568Y0143969D03*
X0008568Y0156095D03*
X0008568Y0163969D03*
X0086800Y0083040D03*
X0086800Y0075560D03*
X0231800Y0028237D03*
X0231800Y0020363D03*
D16*
X0183040Y0034158D03*
X0175560Y0034158D03*
X0175560Y0044442D03*
X0179300Y0044442D03*
X0183040Y0044442D03*
D17*
X0060000Y0245550D03*
X0060000Y0248050D03*
X0060000Y0250550D03*
X0060000Y0253050D03*
X0060000Y0255550D03*
X0060000Y0258050D03*
X0060000Y0260550D03*
X0060000Y0263050D03*
X0038600Y0263050D03*
X0038600Y0260550D03*
X0038600Y0258050D03*
X0038600Y0255550D03*
X0038600Y0253050D03*
X0038600Y0250550D03*
X0038600Y0248050D03*
X0038600Y0245550D03*
D18*
X0037296Y0281800D03*
X0037296Y0291800D03*
X0066304Y0291800D03*
X0066304Y0281800D03*
X0073804Y0021800D03*
X0073804Y0011800D03*
X0044796Y0011800D03*
X0044796Y0021800D03*
D19*
X0054182Y0022430D03*
X0056741Y0022430D03*
X0059300Y0022430D03*
X0061859Y0022430D03*
X0064418Y0022430D03*
X0056918Y0281170D03*
X0054359Y0281170D03*
X0051800Y0281170D03*
X0049241Y0281170D03*
X0046682Y0281170D03*
M02*
