G75*
%MOIN*%
%OFA0B0*%
%FSLAX25Y25*%
%IPPOS*%
%LPD*%
%AMOC8*
5,1,8,0,0,1.08239X$1,22.5*
%
%ADD10C,0.00000*%
%ADD11R,0.05118X0.06299*%
%ADD12R,0.05906X0.05906*%
%ADD13R,0.05512X0.03937*%
%ADD14R,0.03937X0.05512*%
%ADD15R,0.06299X0.05118*%
%ADD16R,0.04724X0.04724*%
%ADD17R,0.05906X0.01969*%
%ADD18R,0.01969X0.05906*%
%ADD19R,0.04724X0.02362*%
D10*
X0001800Y0001800D02*
X0001800Y0301761D01*
X0245501Y0301761D01*
X0245501Y0001800D01*
X0001800Y0001800D01*
D11*
X0078060Y0134300D03*
X0085540Y0134300D03*
X0135560Y0149300D03*
X0143040Y0149300D03*
X0143040Y0199300D03*
X0135560Y0199300D03*
X0135560Y0249300D03*
X0143040Y0249300D03*
X0175560Y0274300D03*
X0183040Y0274300D03*
X0185560Y0259300D03*
X0193040Y0259300D03*
X0210560Y0259300D03*
X0218040Y0259300D03*
X0228060Y0279300D03*
X0235540Y0279300D03*
X0220737Y0229300D03*
X0212863Y0229300D03*
X0213040Y0219300D03*
X0205560Y0219300D03*
X0193040Y0219300D03*
X0185560Y0219300D03*
X0185363Y0229300D03*
X0193237Y0229300D03*
X0193237Y0189300D03*
X0185363Y0189300D03*
X0185560Y0179300D03*
X0193040Y0179300D03*
X0205560Y0179300D03*
X0213040Y0179300D03*
X0212863Y0189300D03*
X0220737Y0189300D03*
X0220737Y0149300D03*
X0212863Y0149300D03*
X0213040Y0139300D03*
X0205560Y0139300D03*
X0193040Y0139300D03*
X0185560Y0139300D03*
X0185363Y0149300D03*
X0193237Y0149300D03*
X0193237Y0109300D03*
X0185363Y0109300D03*
X0185560Y0099300D03*
X0193040Y0099300D03*
X0205560Y0099300D03*
X0213040Y0099300D03*
X0212863Y0109300D03*
X0220737Y0109300D03*
X0215737Y0069300D03*
X0207863Y0069300D03*
X0193237Y0069300D03*
X0185363Y0069300D03*
X0183237Y0044300D03*
X0175363Y0044300D03*
X0175363Y0034300D03*
X0183237Y0034300D03*
X0198060Y0034300D03*
X0205540Y0034300D03*
X0205540Y0024300D03*
X0198060Y0024300D03*
X0198060Y0014300D03*
X0205540Y0014300D03*
X0143040Y0049300D03*
X0135560Y0049300D03*
X0135560Y0099300D03*
X0143040Y0099300D03*
D12*
X0207942Y0084300D03*
X0225658Y0084300D03*
X0225658Y0124300D03*
X0207942Y0124300D03*
X0207942Y0164300D03*
X0225658Y0164300D03*
X0225658Y0204300D03*
X0207942Y0204300D03*
X0207942Y0244300D03*
X0225658Y0244300D03*
X0050658Y0134300D03*
X0032942Y0134300D03*
D13*
X0184969Y0124300D03*
X0193631Y0120560D03*
X0193631Y0128040D03*
X0193631Y0160560D03*
X0193631Y0168040D03*
X0184969Y0164300D03*
X0193631Y0200560D03*
X0193631Y0208040D03*
X0184969Y0204300D03*
X0193631Y0240560D03*
X0193631Y0248040D03*
X0184969Y0244300D03*
X0193631Y0088040D03*
X0193631Y0080560D03*
X0184969Y0084300D03*
D14*
X0175540Y0073631D03*
X0168060Y0073631D03*
X0171800Y0064969D03*
X0168060Y0104969D03*
X0175540Y0104969D03*
X0171800Y0113631D03*
X0168060Y0154969D03*
X0171800Y0163631D03*
X0175540Y0154969D03*
X0175540Y0204969D03*
X0168060Y0204969D03*
X0171800Y0213631D03*
X0168060Y0254969D03*
X0175540Y0254969D03*
X0171800Y0263631D03*
X0198060Y0288631D03*
X0205540Y0288631D03*
X0213060Y0288631D03*
X0220540Y0288631D03*
X0216800Y0279969D03*
X0228060Y0271131D03*
X0235540Y0271131D03*
X0231800Y0262469D03*
X0201800Y0279969D03*
D15*
X0144300Y0223040D03*
X0144300Y0215560D03*
X0126800Y0198040D03*
X0126800Y0190560D03*
X0144300Y0173040D03*
X0144300Y0165560D03*
X0126800Y0148040D03*
X0126800Y0140560D03*
X0144300Y0123040D03*
X0144300Y0115560D03*
X0126800Y0098040D03*
X0126800Y0090560D03*
X0144300Y0073040D03*
X0144300Y0065560D03*
X0126800Y0048040D03*
X0126800Y0040560D03*
X0089300Y0085560D03*
X0089300Y0093040D03*
X0079300Y0093040D03*
X0079300Y0085560D03*
X0069300Y0085560D03*
X0069300Y0093040D03*
X0064300Y0055540D03*
X0064300Y0048060D03*
X0054300Y0048060D03*
X0054300Y0055540D03*
X0029300Y0070560D03*
X0029300Y0078040D03*
X0029300Y0088060D03*
X0029300Y0095540D03*
X0026800Y0058040D03*
X0026800Y0050560D03*
X0016800Y0050560D03*
X0016800Y0058040D03*
X0099300Y0118060D03*
X0099300Y0125540D03*
X0109300Y0213060D03*
X0109300Y0220540D03*
X0119300Y0218060D03*
X0119300Y0225540D03*
X0126800Y0240560D03*
X0126800Y0248040D03*
X0121800Y0268060D03*
X0121800Y0275540D03*
X0111800Y0275540D03*
X0111800Y0268060D03*
X0101800Y0268060D03*
X0101800Y0275540D03*
X0054300Y0260540D03*
X0054300Y0253060D03*
X0044300Y0253060D03*
X0044300Y0260540D03*
X0024300Y0248040D03*
X0024300Y0240560D03*
X0014300Y0240560D03*
X0014300Y0248040D03*
X0234300Y0075540D03*
X0234300Y0068060D03*
D16*
X0119300Y0285166D03*
X0111800Y0285166D03*
X0104300Y0285166D03*
X0104300Y0293434D03*
X0111800Y0293434D03*
X0119300Y0293434D03*
X0024300Y0263434D03*
X0024300Y0255166D03*
X0014300Y0255166D03*
X0014300Y0263434D03*
X0016800Y0043434D03*
X0016800Y0035166D03*
X0026800Y0035166D03*
X0026800Y0043434D03*
D17*
G36*
X0065419Y0149801D02*
X0069594Y0145626D01*
X0068203Y0144235D01*
X0064028Y0148410D01*
X0065419Y0149801D01*
G37*
G36*
X0067646Y0152028D02*
X0071821Y0147853D01*
X0070430Y0146462D01*
X0066255Y0150637D01*
X0067646Y0152028D01*
G37*
G36*
X0069873Y0154255D02*
X0074048Y0150080D01*
X0072657Y0148689D01*
X0068482Y0152864D01*
X0069873Y0154255D01*
G37*
G36*
X0072100Y0156482D02*
X0076275Y0152307D01*
X0074884Y0150916D01*
X0070709Y0155091D01*
X0072100Y0156482D01*
G37*
G36*
X0074327Y0158709D02*
X0078502Y0154534D01*
X0077111Y0153143D01*
X0072936Y0157318D01*
X0074327Y0158709D01*
G37*
G36*
X0076555Y0160936D02*
X0080730Y0156761D01*
X0079339Y0155370D01*
X0075164Y0159545D01*
X0076555Y0160936D01*
G37*
G36*
X0078782Y0163164D02*
X0082957Y0158989D01*
X0081566Y0157598D01*
X0077391Y0161773D01*
X0078782Y0163164D01*
G37*
G36*
X0081009Y0165391D02*
X0085184Y0161216D01*
X0083793Y0159825D01*
X0079618Y0164000D01*
X0081009Y0165391D01*
G37*
G36*
X0083236Y0167618D02*
X0087411Y0163443D01*
X0086020Y0162052D01*
X0081845Y0166227D01*
X0083236Y0167618D01*
G37*
G36*
X0085463Y0169845D02*
X0089638Y0165670D01*
X0088247Y0164279D01*
X0084072Y0168454D01*
X0085463Y0169845D01*
G37*
G36*
X0087690Y0172072D02*
X0091865Y0167897D01*
X0090474Y0166506D01*
X0086299Y0170681D01*
X0087690Y0172072D01*
G37*
G36*
X0055397Y0204365D02*
X0059572Y0200190D01*
X0058181Y0198799D01*
X0054006Y0202974D01*
X0055397Y0204365D01*
G37*
G36*
X0053170Y0202138D02*
X0057345Y0197963D01*
X0055954Y0196572D01*
X0051779Y0200747D01*
X0053170Y0202138D01*
G37*
G36*
X0050943Y0199911D02*
X0055118Y0195736D01*
X0053727Y0194345D01*
X0049552Y0198520D01*
X0050943Y0199911D01*
G37*
G36*
X0048716Y0197684D02*
X0052891Y0193509D01*
X0051500Y0192118D01*
X0047325Y0196293D01*
X0048716Y0197684D01*
G37*
G36*
X0046489Y0195457D02*
X0050664Y0191282D01*
X0049273Y0189891D01*
X0045098Y0194066D01*
X0046489Y0195457D01*
G37*
G36*
X0044261Y0193230D02*
X0048436Y0189055D01*
X0047045Y0187664D01*
X0042870Y0191839D01*
X0044261Y0193230D01*
G37*
G36*
X0042034Y0191002D02*
X0046209Y0186827D01*
X0044818Y0185436D01*
X0040643Y0189611D01*
X0042034Y0191002D01*
G37*
G36*
X0039807Y0188775D02*
X0043982Y0184600D01*
X0042591Y0183209D01*
X0038416Y0187384D01*
X0039807Y0188775D01*
G37*
G36*
X0037580Y0186548D02*
X0041755Y0182373D01*
X0040364Y0180982D01*
X0036189Y0185157D01*
X0037580Y0186548D01*
G37*
G36*
X0035353Y0184321D02*
X0039528Y0180146D01*
X0038137Y0178755D01*
X0033962Y0182930D01*
X0035353Y0184321D01*
G37*
G36*
X0033126Y0182094D02*
X0037301Y0177919D01*
X0035910Y0176528D01*
X0031735Y0180703D01*
X0033126Y0182094D01*
G37*
D18*
G36*
X0035910Y0172072D02*
X0037301Y0170681D01*
X0033126Y0166506D01*
X0031735Y0167897D01*
X0035910Y0172072D01*
G37*
G36*
X0038137Y0169845D02*
X0039528Y0168454D01*
X0035353Y0164279D01*
X0033962Y0165670D01*
X0038137Y0169845D01*
G37*
G36*
X0040364Y0167618D02*
X0041755Y0166227D01*
X0037580Y0162052D01*
X0036189Y0163443D01*
X0040364Y0167618D01*
G37*
G36*
X0042591Y0165391D02*
X0043982Y0164000D01*
X0039807Y0159825D01*
X0038416Y0161216D01*
X0042591Y0165391D01*
G37*
G36*
X0044818Y0163164D02*
X0046209Y0161773D01*
X0042034Y0157598D01*
X0040643Y0158989D01*
X0044818Y0163164D01*
G37*
G36*
X0047045Y0160936D02*
X0048436Y0159545D01*
X0044261Y0155370D01*
X0042870Y0156761D01*
X0047045Y0160936D01*
G37*
G36*
X0049273Y0158709D02*
X0050664Y0157318D01*
X0046489Y0153143D01*
X0045098Y0154534D01*
X0049273Y0158709D01*
G37*
G36*
X0051500Y0156482D02*
X0052891Y0155091D01*
X0048716Y0150916D01*
X0047325Y0152307D01*
X0051500Y0156482D01*
G37*
G36*
X0053727Y0154255D02*
X0055118Y0152864D01*
X0050943Y0148689D01*
X0049552Y0150080D01*
X0053727Y0154255D01*
G37*
G36*
X0055954Y0152028D02*
X0057345Y0150637D01*
X0053170Y0146462D01*
X0051779Y0147853D01*
X0055954Y0152028D01*
G37*
G36*
X0058181Y0149801D02*
X0059572Y0148410D01*
X0055397Y0144235D01*
X0054006Y0145626D01*
X0058181Y0149801D01*
G37*
G36*
X0088247Y0184321D02*
X0089638Y0182930D01*
X0085463Y0178755D01*
X0084072Y0180146D01*
X0088247Y0184321D01*
G37*
G36*
X0086020Y0186548D02*
X0087411Y0185157D01*
X0083236Y0180982D01*
X0081845Y0182373D01*
X0086020Y0186548D01*
G37*
G36*
X0083793Y0188775D02*
X0085184Y0187384D01*
X0081009Y0183209D01*
X0079618Y0184600D01*
X0083793Y0188775D01*
G37*
G36*
X0081566Y0191002D02*
X0082957Y0189611D01*
X0078782Y0185436D01*
X0077391Y0186827D01*
X0081566Y0191002D01*
G37*
G36*
X0079339Y0193230D02*
X0080730Y0191839D01*
X0076555Y0187664D01*
X0075164Y0189055D01*
X0079339Y0193230D01*
G37*
G36*
X0077111Y0195457D02*
X0078502Y0194066D01*
X0074327Y0189891D01*
X0072936Y0191282D01*
X0077111Y0195457D01*
G37*
G36*
X0074884Y0197684D02*
X0076275Y0196293D01*
X0072100Y0192118D01*
X0070709Y0193509D01*
X0074884Y0197684D01*
G37*
G36*
X0072657Y0199911D02*
X0074048Y0198520D01*
X0069873Y0194345D01*
X0068482Y0195736D01*
X0072657Y0199911D01*
G37*
G36*
X0070430Y0202138D02*
X0071821Y0200747D01*
X0067646Y0196572D01*
X0066255Y0197963D01*
X0070430Y0202138D01*
G37*
G36*
X0068203Y0204365D02*
X0069594Y0202974D01*
X0065419Y0198799D01*
X0064028Y0200190D01*
X0068203Y0204365D01*
G37*
G36*
X0090474Y0182094D02*
X0091865Y0180703D01*
X0087690Y0176528D01*
X0086299Y0177919D01*
X0090474Y0182094D01*
G37*
D19*
X0136658Y0185560D03*
X0136658Y0193040D03*
X0146942Y0193040D03*
X0146942Y0189300D03*
X0146942Y0185560D03*
X0146942Y0143040D03*
X0146942Y0139300D03*
X0146942Y0135560D03*
X0136658Y0135560D03*
X0136658Y0143040D03*
X0136658Y0093040D03*
X0136658Y0085560D03*
X0146942Y0085560D03*
X0146942Y0089300D03*
X0146942Y0093040D03*
X0146942Y0043040D03*
X0146942Y0039300D03*
X0146942Y0035560D03*
X0136658Y0035560D03*
X0136658Y0043040D03*
X0136658Y0235560D03*
X0136658Y0243040D03*
X0146942Y0243040D03*
X0146942Y0239300D03*
X0146942Y0235560D03*
M02*
