G75*
%MOIN*%
%OFA0B0*%
%FSLAX25Y25*%
%IPPOS*%
%LPD*%
%AMOC8*
5,1,8,0,0,1.08239X$1,22.5*
%
%ADD10C,0.00000*%
%ADD11R,0.07500X0.12500*%
%ADD12R,0.07500X0.10000*%
%ADD13R,0.05000X0.05000*%
%ADD14R,0.05518X0.06699*%
%ADD15R,0.06306X0.06306*%
%ADD16R,0.05912X0.04337*%
%ADD17R,0.04337X0.05912*%
%ADD18R,0.06699X0.05518*%
%ADD19R,0.01975X0.07132*%
%ADD20R,0.08274X0.06148*%
%ADD21R,0.05813X0.10243*%
%ADD22C,0.00500*%
%ADD23C,0.04800*%
%ADD24C,0.06400*%
%ADD25R,0.05124X0.05124*%
%ADD26R,0.05550X0.05550*%
%ADD27C,0.05550*%
%ADD28C,0.07000*%
%ADD29C,0.06000*%
%ADD30R,0.06306X0.02369*%
%ADD31R,0.02369X0.06306*%
%ADD32R,0.05124X0.02762*%
%ADD33OC8,0.06400*%
%ADD34C,0.16998*%
D10*
X0001800Y0002844D02*
X0001800Y0302805D01*
X0245501Y0302805D01*
X0245501Y0002844D01*
X0001800Y0002844D01*
D11*
X0048050Y0021594D03*
X0070550Y0021594D03*
X0060550Y0284094D03*
X0065550Y0294094D03*
X0038050Y0284094D03*
X0033050Y0294094D03*
D12*
X0043050Y0010344D03*
X0075550Y0010344D03*
D13*
X0076800Y0015344D03*
X0041800Y0015344D03*
D14*
X0043237Y0040344D03*
X0035363Y0040344D03*
X0078060Y0135344D03*
X0085540Y0135344D03*
X0135560Y0150344D03*
X0143040Y0150344D03*
X0143040Y0200344D03*
X0135560Y0200344D03*
X0135560Y0250344D03*
X0143040Y0250344D03*
X0175560Y0275344D03*
X0183040Y0275344D03*
X0185560Y0260344D03*
X0193040Y0260344D03*
X0210560Y0260344D03*
X0218040Y0260344D03*
X0228060Y0280344D03*
X0235540Y0280344D03*
X0220737Y0230344D03*
X0212863Y0230344D03*
X0213040Y0220344D03*
X0205560Y0220344D03*
X0193040Y0220344D03*
X0185560Y0220344D03*
X0185363Y0230344D03*
X0193237Y0230344D03*
X0193237Y0190344D03*
X0185363Y0190344D03*
X0185560Y0180344D03*
X0193040Y0180344D03*
X0205560Y0180344D03*
X0213040Y0180344D03*
X0212863Y0190344D03*
X0220737Y0190344D03*
X0220737Y0150344D03*
X0212863Y0150344D03*
X0213040Y0140344D03*
X0205560Y0140344D03*
X0193040Y0140344D03*
X0185560Y0140344D03*
X0185363Y0150344D03*
X0193237Y0150344D03*
X0193237Y0110344D03*
X0185363Y0110344D03*
X0185560Y0100344D03*
X0193040Y0100344D03*
X0205560Y0100344D03*
X0213040Y0100344D03*
X0212863Y0110344D03*
X0220737Y0110344D03*
X0215737Y0070344D03*
X0207863Y0070344D03*
X0193237Y0070344D03*
X0185363Y0070344D03*
X0183237Y0045344D03*
X0175363Y0045344D03*
X0175363Y0035344D03*
X0183237Y0035344D03*
X0198060Y0035344D03*
X0205540Y0035344D03*
X0205540Y0025344D03*
X0198060Y0025344D03*
X0198060Y0015344D03*
X0205540Y0015344D03*
X0143040Y0050344D03*
X0135560Y0050344D03*
X0135560Y0100344D03*
X0143040Y0100344D03*
X0073237Y0265344D03*
X0065363Y0265344D03*
D15*
X0050658Y0135344D03*
X0032942Y0135344D03*
X0207942Y0125344D03*
X0225658Y0125344D03*
X0225658Y0165344D03*
X0207942Y0165344D03*
X0207942Y0205344D03*
X0225658Y0205344D03*
X0225658Y0245344D03*
X0207942Y0245344D03*
X0207942Y0085344D03*
X0225658Y0085344D03*
D16*
X0193631Y0081604D03*
X0193631Y0089085D03*
X0184969Y0085344D03*
X0193631Y0121604D03*
X0193631Y0129085D03*
X0184969Y0125344D03*
X0193631Y0161604D03*
X0193631Y0169085D03*
X0184969Y0165344D03*
X0193631Y0201604D03*
X0193631Y0209085D03*
X0184969Y0205344D03*
X0193631Y0241604D03*
X0193631Y0249085D03*
X0184969Y0245344D03*
D17*
X0175540Y0256014D03*
X0168060Y0256014D03*
X0171800Y0264675D03*
X0198060Y0289675D03*
X0205540Y0289675D03*
X0213060Y0289675D03*
X0220540Y0289675D03*
X0216800Y0281014D03*
X0228060Y0272175D03*
X0235540Y0272175D03*
X0231800Y0263514D03*
X0201800Y0281014D03*
X0171800Y0214675D03*
X0168060Y0206014D03*
X0175540Y0206014D03*
X0171800Y0164675D03*
X0168060Y0156014D03*
X0175540Y0156014D03*
X0171800Y0114675D03*
X0168060Y0106014D03*
X0175540Y0106014D03*
X0175540Y0074675D03*
X0168060Y0074675D03*
X0171800Y0066014D03*
D18*
X0144300Y0066604D03*
X0144300Y0074085D03*
X0126800Y0091604D03*
X0126800Y0099085D03*
X0144300Y0116604D03*
X0144300Y0124085D03*
X0126800Y0141604D03*
X0126800Y0149085D03*
X0144300Y0166604D03*
X0144300Y0174085D03*
X0126800Y0191604D03*
X0126800Y0199085D03*
X0119300Y0219104D03*
X0119300Y0226585D03*
X0109300Y0221585D03*
X0109300Y0214104D03*
X0126800Y0241604D03*
X0126800Y0249085D03*
X0121800Y0269104D03*
X0121800Y0276585D03*
X0111800Y0276585D03*
X0111800Y0269104D03*
X0101800Y0269104D03*
X0101800Y0276585D03*
X0144300Y0224085D03*
X0144300Y0216604D03*
X0099300Y0126585D03*
X0099300Y0119104D03*
X0089300Y0094085D03*
X0089300Y0086604D03*
X0079300Y0086604D03*
X0079300Y0094085D03*
X0069300Y0094085D03*
X0069300Y0086604D03*
X0064300Y0056585D03*
X0064300Y0049104D03*
X0054300Y0049104D03*
X0054300Y0056585D03*
X0029300Y0071604D03*
X0029300Y0079085D03*
X0029300Y0089104D03*
X0029300Y0096585D03*
X0026800Y0059085D03*
X0026800Y0051604D03*
X0016800Y0051604D03*
X0016800Y0059085D03*
X0126800Y0049085D03*
X0126800Y0041604D03*
X0234300Y0069104D03*
X0234300Y0076585D03*
X0054300Y0251604D03*
X0054300Y0259085D03*
X0044300Y0259085D03*
X0044300Y0251604D03*
X0024300Y0249085D03*
X0024300Y0241604D03*
X0014300Y0241604D03*
X0014300Y0249085D03*
D19*
X0044182Y0275463D03*
X0046741Y0275463D03*
X0049300Y0275463D03*
X0051859Y0275463D03*
X0054418Y0275463D03*
X0054182Y0030226D03*
X0056741Y0030226D03*
X0059300Y0030226D03*
X0061859Y0030226D03*
X0064418Y0030226D03*
D20*
X0070717Y0030738D03*
X0047883Y0030738D03*
X0037883Y0274951D03*
X0060717Y0274951D03*
D21*
X0052991Y0296329D03*
X0045609Y0296329D03*
X0055609Y0009360D03*
X0062991Y0009360D03*
D22*
X0067105Y0014045D02*
X0067105Y0027116D01*
X0074743Y0027116D01*
X0074743Y0016919D01*
X0078365Y0016919D01*
X0078365Y0005659D01*
X0071396Y0005659D01*
X0071396Y0014045D01*
X0067105Y0014045D01*
X0051426Y0014045D02*
X0051426Y0027116D01*
X0043788Y0027116D01*
X0043788Y0016919D01*
X0040166Y0016919D01*
X0040166Y0005659D01*
X0047135Y0005659D01*
X0047135Y0014045D01*
X0051426Y0014045D01*
X0057174Y0278573D02*
X0057174Y0291644D01*
X0061465Y0291644D01*
X0061465Y0300030D01*
X0068434Y0300030D01*
X0068434Y0288770D01*
X0064812Y0288770D01*
X0064812Y0278573D01*
X0057174Y0278573D01*
X0041495Y0278573D02*
X0041495Y0291644D01*
X0037204Y0291644D01*
X0037204Y0300030D01*
X0030235Y0300030D01*
X0030235Y0288770D01*
X0033857Y0288770D01*
X0033857Y0278573D01*
X0041495Y0278573D01*
D23*
X0020768Y0161077D02*
X0016368Y0161077D01*
X0016368Y0141077D02*
X0020768Y0141077D01*
X0054300Y0110044D02*
X0054300Y0105644D01*
X0074300Y0105644D02*
X0074300Y0110044D01*
D24*
X0019800Y0105344D02*
X0013800Y0105344D01*
X0013800Y0095344D02*
X0019800Y0095344D01*
X0019800Y0085344D02*
X0013800Y0085344D01*
X0153800Y0075344D02*
X0159800Y0075344D01*
X0159800Y0065344D02*
X0153800Y0065344D01*
X0153800Y0055344D02*
X0159800Y0055344D01*
X0159800Y0045344D02*
X0153800Y0045344D01*
X0153800Y0095344D02*
X0159800Y0095344D01*
X0159800Y0105344D02*
X0153800Y0105344D01*
X0153800Y0115344D02*
X0159800Y0115344D01*
X0159800Y0125344D02*
X0153800Y0125344D01*
X0153800Y0145344D02*
X0159800Y0145344D01*
X0159800Y0155344D02*
X0153800Y0155344D01*
X0153800Y0165344D02*
X0159800Y0165344D01*
X0159800Y0175344D02*
X0153800Y0175344D01*
X0153800Y0195344D02*
X0159800Y0195344D01*
X0159800Y0205344D02*
X0153800Y0205344D01*
X0153800Y0215344D02*
X0159800Y0215344D01*
X0159800Y0225344D02*
X0153800Y0225344D01*
X0153800Y0245344D02*
X0159800Y0245344D01*
X0159800Y0255344D02*
X0153800Y0255344D01*
X0153800Y0265344D02*
X0159800Y0265344D01*
X0159800Y0275344D02*
X0153800Y0275344D01*
D25*
X0119300Y0286211D03*
X0111800Y0286211D03*
X0104300Y0286211D03*
X0104300Y0294478D03*
X0111800Y0294478D03*
X0119300Y0294478D03*
X0024300Y0264478D03*
X0024300Y0256211D03*
X0014300Y0256211D03*
X0014300Y0264478D03*
X0016800Y0044478D03*
X0016800Y0036211D03*
X0026800Y0036211D03*
X0026800Y0044478D03*
D26*
X0221800Y0030344D03*
D27*
X0221800Y0022470D03*
D28*
X0216800Y0047044D02*
X0216800Y0053644D01*
X0201800Y0053644D02*
X0201800Y0047044D01*
X0231800Y0047044D02*
X0231800Y0053644D01*
D29*
X0074300Y0246407D03*
X0074300Y0254281D03*
D30*
G36*
X0055397Y0205693D02*
X0059855Y0201235D01*
X0058181Y0199561D01*
X0053723Y0204019D01*
X0055397Y0205693D01*
G37*
G36*
X0053170Y0203465D02*
X0057628Y0199007D01*
X0055954Y0197333D01*
X0051496Y0201791D01*
X0053170Y0203465D01*
G37*
G36*
X0050943Y0201238D02*
X0055401Y0196780D01*
X0053727Y0195106D01*
X0049269Y0199564D01*
X0050943Y0201238D01*
G37*
G36*
X0048716Y0199011D02*
X0053174Y0194553D01*
X0051500Y0192879D01*
X0047042Y0197337D01*
X0048716Y0199011D01*
G37*
G36*
X0046489Y0196784D02*
X0050947Y0192326D01*
X0049273Y0190652D01*
X0044815Y0195110D01*
X0046489Y0196784D01*
G37*
G36*
X0044261Y0194557D02*
X0048719Y0190099D01*
X0047045Y0188425D01*
X0042587Y0192883D01*
X0044261Y0194557D01*
G37*
G36*
X0042034Y0192330D02*
X0046492Y0187872D01*
X0044818Y0186198D01*
X0040360Y0190656D01*
X0042034Y0192330D01*
G37*
G36*
X0039807Y0190103D02*
X0044265Y0185645D01*
X0042591Y0183971D01*
X0038133Y0188429D01*
X0039807Y0190103D01*
G37*
G36*
X0037580Y0187876D02*
X0042038Y0183418D01*
X0040364Y0181744D01*
X0035906Y0186202D01*
X0037580Y0187876D01*
G37*
G36*
X0035353Y0185649D02*
X0039811Y0181191D01*
X0038137Y0179517D01*
X0033679Y0183975D01*
X0035353Y0185649D01*
G37*
G36*
X0033126Y0183421D02*
X0037584Y0178963D01*
X0035910Y0177289D01*
X0031452Y0181747D01*
X0033126Y0183421D01*
G37*
G36*
X0065419Y0151128D02*
X0069877Y0146670D01*
X0068203Y0144996D01*
X0063745Y0149454D01*
X0065419Y0151128D01*
G37*
G36*
X0067646Y0153356D02*
X0072104Y0148898D01*
X0070430Y0147224D01*
X0065972Y0151682D01*
X0067646Y0153356D01*
G37*
G36*
X0069873Y0155583D02*
X0074331Y0151125D01*
X0072657Y0149451D01*
X0068199Y0153909D01*
X0069873Y0155583D01*
G37*
G36*
X0072100Y0157810D02*
X0076558Y0153352D01*
X0074884Y0151678D01*
X0070426Y0156136D01*
X0072100Y0157810D01*
G37*
G36*
X0074327Y0160037D02*
X0078785Y0155579D01*
X0077111Y0153905D01*
X0072653Y0158363D01*
X0074327Y0160037D01*
G37*
G36*
X0076555Y0162264D02*
X0081013Y0157806D01*
X0079339Y0156132D01*
X0074881Y0160590D01*
X0076555Y0162264D01*
G37*
G36*
X0078782Y0164491D02*
X0083240Y0160033D01*
X0081566Y0158359D01*
X0077108Y0162817D01*
X0078782Y0164491D01*
G37*
G36*
X0081009Y0166718D02*
X0085467Y0162260D01*
X0083793Y0160586D01*
X0079335Y0165044D01*
X0081009Y0166718D01*
G37*
G36*
X0083236Y0168945D02*
X0087694Y0164487D01*
X0086020Y0162813D01*
X0081562Y0167271D01*
X0083236Y0168945D01*
G37*
G36*
X0085463Y0171172D02*
X0089921Y0166714D01*
X0088247Y0165040D01*
X0083789Y0169498D01*
X0085463Y0171172D01*
G37*
G36*
X0087690Y0173399D02*
X0092148Y0168941D01*
X0090474Y0167267D01*
X0086016Y0171725D01*
X0087690Y0173399D01*
G37*
D31*
G36*
X0090474Y0183421D02*
X0092148Y0181747D01*
X0087690Y0177289D01*
X0086016Y0178963D01*
X0090474Y0183421D01*
G37*
G36*
X0088247Y0185649D02*
X0089921Y0183975D01*
X0085463Y0179517D01*
X0083789Y0181191D01*
X0088247Y0185649D01*
G37*
G36*
X0086020Y0187876D02*
X0087694Y0186202D01*
X0083236Y0181744D01*
X0081562Y0183418D01*
X0086020Y0187876D01*
G37*
G36*
X0083793Y0190103D02*
X0085467Y0188429D01*
X0081009Y0183971D01*
X0079335Y0185645D01*
X0083793Y0190103D01*
G37*
G36*
X0081566Y0192330D02*
X0083240Y0190656D01*
X0078782Y0186198D01*
X0077108Y0187872D01*
X0081566Y0192330D01*
G37*
G36*
X0079339Y0194557D02*
X0081013Y0192883D01*
X0076555Y0188425D01*
X0074881Y0190099D01*
X0079339Y0194557D01*
G37*
G36*
X0077111Y0196784D02*
X0078785Y0195110D01*
X0074327Y0190652D01*
X0072653Y0192326D01*
X0077111Y0196784D01*
G37*
G36*
X0074884Y0199011D02*
X0076558Y0197337D01*
X0072100Y0192879D01*
X0070426Y0194553D01*
X0074884Y0199011D01*
G37*
G36*
X0072657Y0201238D02*
X0074331Y0199564D01*
X0069873Y0195106D01*
X0068199Y0196780D01*
X0072657Y0201238D01*
G37*
G36*
X0070430Y0203465D02*
X0072104Y0201791D01*
X0067646Y0197333D01*
X0065972Y0199007D01*
X0070430Y0203465D01*
G37*
G36*
X0068203Y0205693D02*
X0069877Y0204019D01*
X0065419Y0199561D01*
X0063745Y0201235D01*
X0068203Y0205693D01*
G37*
G36*
X0038137Y0171172D02*
X0039811Y0169498D01*
X0035353Y0165040D01*
X0033679Y0166714D01*
X0038137Y0171172D01*
G37*
G36*
X0040364Y0168945D02*
X0042038Y0167271D01*
X0037580Y0162813D01*
X0035906Y0164487D01*
X0040364Y0168945D01*
G37*
G36*
X0042591Y0166718D02*
X0044265Y0165044D01*
X0039807Y0160586D01*
X0038133Y0162260D01*
X0042591Y0166718D01*
G37*
G36*
X0044818Y0164491D02*
X0046492Y0162817D01*
X0042034Y0158359D01*
X0040360Y0160033D01*
X0044818Y0164491D01*
G37*
G36*
X0047045Y0162264D02*
X0048719Y0160590D01*
X0044261Y0156132D01*
X0042587Y0157806D01*
X0047045Y0162264D01*
G37*
G36*
X0049273Y0160037D02*
X0050947Y0158363D01*
X0046489Y0153905D01*
X0044815Y0155579D01*
X0049273Y0160037D01*
G37*
G36*
X0051500Y0157810D02*
X0053174Y0156136D01*
X0048716Y0151678D01*
X0047042Y0153352D01*
X0051500Y0157810D01*
G37*
G36*
X0053727Y0155583D02*
X0055401Y0153909D01*
X0050943Y0149451D01*
X0049269Y0151125D01*
X0053727Y0155583D01*
G37*
G36*
X0055954Y0153356D02*
X0057628Y0151682D01*
X0053170Y0147224D01*
X0051496Y0148898D01*
X0055954Y0153356D01*
G37*
G36*
X0058181Y0151128D02*
X0059855Y0149454D01*
X0055397Y0144996D01*
X0053723Y0146670D01*
X0058181Y0151128D01*
G37*
G36*
X0035910Y0173399D02*
X0037584Y0171725D01*
X0033126Y0167267D01*
X0031452Y0168941D01*
X0035910Y0173399D01*
G37*
D32*
X0136658Y0186604D03*
X0136658Y0194085D03*
X0146942Y0194085D03*
X0146942Y0190344D03*
X0146942Y0186604D03*
X0146942Y0144085D03*
X0146942Y0140344D03*
X0146942Y0136604D03*
X0136658Y0136604D03*
X0136658Y0144085D03*
X0136658Y0094085D03*
X0136658Y0086604D03*
X0146942Y0086604D03*
X0146942Y0090344D03*
X0146942Y0094085D03*
X0146942Y0044085D03*
X0146942Y0040344D03*
X0146942Y0036604D03*
X0136658Y0036604D03*
X0136658Y0044085D03*
X0136658Y0236604D03*
X0136658Y0244085D03*
X0146942Y0244085D03*
X0146942Y0240344D03*
X0146942Y0236604D03*
D33*
X0024300Y0217844D03*
X0024300Y0207844D03*
X0024300Y0197844D03*
X0024300Y0187844D03*
X0014300Y0187844D03*
X0014300Y0197844D03*
X0014300Y0207844D03*
X0014300Y0217844D03*
D34*
X0014300Y0290344D03*
X0139300Y0290344D03*
X0099300Y0015344D03*
X0014300Y0015344D03*
M02*
