G75*
%MOIN*%
%OFA0B0*%
%FSLAX25Y25*%
%IPPOS*%
%LPD*%
%AMOC8*
5,1,8,0,0,1.08239X$1,22.5*
%
%ADD10C,0.00000*%
%ADD11C,0.00400*%
%ADD12C,0.00600*%
%ADD13C,0.00800*%
D10*
X0001800Y0002844D02*
X0001800Y0302805D01*
X0245501Y0302805D01*
X0245501Y0002844D01*
X0001800Y0002844D01*
D11*
X0123011Y0053044D02*
X0123011Y0057648D01*
X0124546Y0056114D01*
X0126080Y0057648D01*
X0126080Y0053044D01*
X0127615Y0053044D02*
X0127615Y0057648D01*
X0130684Y0057648D02*
X0130684Y0053044D01*
X0129150Y0054579D01*
X0127615Y0053044D01*
X0132219Y0055346D02*
X0132986Y0054579D01*
X0135288Y0054579D01*
X0135288Y0053044D02*
X0135288Y0057648D01*
X0132986Y0057648D01*
X0132219Y0056881D01*
X0132219Y0055346D01*
X0136823Y0052277D02*
X0139892Y0052277D01*
X0141427Y0054579D02*
X0141427Y0057648D01*
X0141427Y0054579D02*
X0142961Y0053044D01*
X0144496Y0054579D01*
X0144496Y0057648D01*
X0146031Y0057648D02*
X0149100Y0055346D01*
X0146031Y0053044D01*
X0146031Y0047648D02*
X0149100Y0045346D01*
X0146031Y0043044D01*
X0144496Y0044579D02*
X0142961Y0043044D01*
X0141427Y0044579D01*
X0141427Y0047648D01*
X0139892Y0046114D02*
X0138358Y0047648D01*
X0136823Y0046114D01*
X0136823Y0043044D01*
X0136823Y0045346D02*
X0139892Y0045346D01*
X0139892Y0046114D02*
X0139892Y0043044D01*
X0144496Y0044579D02*
X0144496Y0047648D01*
X0142961Y0063044D02*
X0141427Y0064579D01*
X0141427Y0067648D01*
X0139125Y0066114D02*
X0139892Y0065346D01*
X0139892Y0063812D01*
X0139125Y0063044D01*
X0136823Y0063044D01*
X0135288Y0063812D02*
X0135288Y0065346D01*
X0134521Y0066114D01*
X0132219Y0066114D01*
X0132219Y0063044D02*
X0134521Y0063044D01*
X0135288Y0063812D01*
X0136823Y0066114D02*
X0139125Y0066114D01*
X0142961Y0063044D02*
X0144496Y0064579D01*
X0144496Y0067648D01*
X0146031Y0067648D02*
X0149100Y0065346D01*
X0146031Y0063044D01*
X0146031Y0073044D02*
X0149100Y0075346D01*
X0146031Y0077648D01*
X0144496Y0077648D02*
X0144496Y0074579D01*
X0142961Y0073044D01*
X0141427Y0074579D01*
X0141427Y0077648D01*
X0139892Y0075346D02*
X0139125Y0076114D01*
X0137590Y0076114D01*
X0136823Y0075346D01*
X0136823Y0074579D01*
X0139892Y0074579D01*
X0139892Y0073812D02*
X0139892Y0075346D01*
X0139892Y0073812D02*
X0139125Y0073044D01*
X0137590Y0073044D01*
X0135288Y0073812D02*
X0135288Y0075346D01*
X0134521Y0076114D01*
X0132986Y0076114D01*
X0132219Y0075346D01*
X0132219Y0074579D01*
X0135288Y0074579D01*
X0135288Y0073812D02*
X0134521Y0073044D01*
X0132986Y0073044D01*
X0136823Y0093044D02*
X0136823Y0096114D01*
X0138358Y0097648D01*
X0139892Y0096114D01*
X0139892Y0093044D01*
X0141427Y0094579D02*
X0141427Y0097648D01*
X0139892Y0095346D02*
X0136823Y0095346D01*
X0141427Y0094579D02*
X0142961Y0093044D01*
X0144496Y0094579D01*
X0144496Y0097648D01*
X0146031Y0097648D02*
X0149100Y0095346D01*
X0146031Y0093044D01*
X0146031Y0103044D02*
X0149100Y0105346D01*
X0146031Y0107648D01*
X0144496Y0107648D02*
X0144496Y0104579D01*
X0142961Y0103044D01*
X0141427Y0104579D01*
X0141427Y0107648D01*
X0142961Y0113044D02*
X0141427Y0114579D01*
X0141427Y0117648D01*
X0139125Y0116114D02*
X0139892Y0115346D01*
X0139892Y0113812D01*
X0139125Y0113044D01*
X0136823Y0113044D01*
X0135288Y0113812D02*
X0134521Y0113044D01*
X0132219Y0113044D01*
X0132219Y0116114D02*
X0134521Y0116114D01*
X0135288Y0115346D01*
X0135288Y0113812D01*
X0136823Y0116114D02*
X0139125Y0116114D01*
X0142961Y0113044D02*
X0144496Y0114579D01*
X0144496Y0117648D01*
X0146031Y0117648D02*
X0149100Y0115346D01*
X0146031Y0113044D01*
X0139892Y0102277D02*
X0136823Y0102277D01*
X0135288Y0103044D02*
X0135288Y0107648D01*
X0132986Y0107648D01*
X0132219Y0106881D01*
X0132219Y0105346D01*
X0132986Y0104579D01*
X0135288Y0104579D01*
X0130684Y0103044D02*
X0129150Y0104579D01*
X0127615Y0103044D01*
X0127615Y0107648D01*
X0126080Y0107648D02*
X0124546Y0106114D01*
X0123011Y0107648D01*
X0123011Y0103044D01*
X0126080Y0103044D02*
X0126080Y0107648D01*
X0130684Y0107648D02*
X0130684Y0103044D01*
X0132986Y0123044D02*
X0134521Y0123044D01*
X0135288Y0123812D01*
X0135288Y0125346D01*
X0134521Y0126114D01*
X0132986Y0126114D01*
X0132219Y0125346D01*
X0132219Y0124579D01*
X0135288Y0124579D01*
X0136823Y0124579D02*
X0136823Y0125346D01*
X0137590Y0126114D01*
X0139125Y0126114D01*
X0139892Y0125346D01*
X0139892Y0123812D01*
X0139125Y0123044D01*
X0137590Y0123044D01*
X0136823Y0124579D02*
X0139892Y0124579D01*
X0141427Y0124579D02*
X0141427Y0127648D01*
X0141427Y0124579D02*
X0142961Y0123044D01*
X0144496Y0124579D01*
X0144496Y0127648D01*
X0146031Y0127648D02*
X0149100Y0125346D01*
X0146031Y0123044D01*
X0146031Y0143044D02*
X0149100Y0145346D01*
X0146031Y0147648D01*
X0144496Y0147648D02*
X0144496Y0144579D01*
X0142961Y0143044D01*
X0141427Y0144579D01*
X0141427Y0147648D01*
X0139892Y0146114D02*
X0138358Y0147648D01*
X0136823Y0146114D01*
X0136823Y0143044D01*
X0136823Y0145346D02*
X0139892Y0145346D01*
X0139892Y0146114D02*
X0139892Y0143044D01*
X0139892Y0152277D02*
X0136823Y0152277D01*
X0135288Y0153044D02*
X0135288Y0157648D01*
X0132986Y0157648D01*
X0132219Y0156881D01*
X0132219Y0155346D01*
X0132986Y0154579D01*
X0135288Y0154579D01*
X0130684Y0153044D02*
X0129150Y0154579D01*
X0127615Y0153044D01*
X0127615Y0157648D01*
X0126080Y0157648D02*
X0126080Y0153044D01*
X0123011Y0153044D02*
X0123011Y0157648D01*
X0124546Y0156114D01*
X0126080Y0157648D01*
X0130684Y0157648D02*
X0130684Y0153044D01*
X0132219Y0163044D02*
X0134521Y0163044D01*
X0135288Y0163812D01*
X0135288Y0165346D01*
X0134521Y0166114D01*
X0132219Y0166114D01*
X0136823Y0166114D02*
X0139125Y0166114D01*
X0139892Y0165346D01*
X0139892Y0163812D01*
X0139125Y0163044D01*
X0136823Y0163044D01*
X0141427Y0164579D02*
X0141427Y0167648D01*
X0141427Y0164579D02*
X0142961Y0163044D01*
X0144496Y0164579D01*
X0144496Y0167648D01*
X0146031Y0167648D02*
X0149100Y0165346D01*
X0146031Y0163044D01*
X0146031Y0157648D02*
X0149100Y0155346D01*
X0146031Y0153044D01*
X0144496Y0154579D02*
X0142961Y0153044D01*
X0141427Y0154579D01*
X0141427Y0157648D01*
X0144496Y0157648D02*
X0144496Y0154579D01*
X0142961Y0173044D02*
X0141427Y0174579D01*
X0141427Y0177648D01*
X0139892Y0175346D02*
X0139125Y0176114D01*
X0137590Y0176114D01*
X0136823Y0175346D01*
X0136823Y0174579D01*
X0139892Y0174579D01*
X0139892Y0173812D02*
X0139892Y0175346D01*
X0139892Y0173812D02*
X0139125Y0173044D01*
X0137590Y0173044D01*
X0135288Y0173812D02*
X0135288Y0175346D01*
X0134521Y0176114D01*
X0132986Y0176114D01*
X0132219Y0175346D01*
X0132219Y0174579D01*
X0135288Y0174579D01*
X0135288Y0173812D02*
X0134521Y0173044D01*
X0132986Y0173044D01*
X0142961Y0173044D02*
X0144496Y0174579D01*
X0144496Y0177648D01*
X0146031Y0177648D02*
X0149100Y0175346D01*
X0146031Y0173044D01*
X0146031Y0193044D02*
X0149100Y0195346D01*
X0146031Y0197648D01*
X0144496Y0197648D02*
X0144496Y0194579D01*
X0142961Y0193044D01*
X0141427Y0194579D01*
X0141427Y0197648D01*
X0139892Y0196114D02*
X0138358Y0197648D01*
X0136823Y0196114D01*
X0136823Y0193044D01*
X0136823Y0195346D02*
X0139892Y0195346D01*
X0139892Y0196114D02*
X0139892Y0193044D01*
X0139892Y0202277D02*
X0136823Y0202277D01*
X0135288Y0203044D02*
X0135288Y0207648D01*
X0132986Y0207648D01*
X0132219Y0206881D01*
X0132219Y0205346D01*
X0132986Y0204579D01*
X0135288Y0204579D01*
X0130684Y0203044D02*
X0129150Y0204579D01*
X0127615Y0203044D01*
X0127615Y0207648D01*
X0126080Y0207648D02*
X0126080Y0203044D01*
X0123011Y0203044D02*
X0123011Y0207648D01*
X0124546Y0206114D01*
X0126080Y0207648D01*
X0130684Y0207648D02*
X0130684Y0203044D01*
X0132219Y0213044D02*
X0134521Y0213044D01*
X0135288Y0213812D01*
X0135288Y0215346D01*
X0134521Y0216114D01*
X0132219Y0216114D01*
X0136823Y0216114D02*
X0139125Y0216114D01*
X0139892Y0215346D01*
X0139892Y0213812D01*
X0139125Y0213044D01*
X0136823Y0213044D01*
X0141427Y0214579D02*
X0141427Y0217648D01*
X0141427Y0214579D02*
X0142961Y0213044D01*
X0144496Y0214579D01*
X0144496Y0217648D01*
X0146031Y0217648D02*
X0149100Y0215346D01*
X0146031Y0213044D01*
X0146031Y0207648D02*
X0149100Y0205346D01*
X0146031Y0203044D01*
X0144496Y0204579D02*
X0142961Y0203044D01*
X0141427Y0204579D01*
X0141427Y0207648D01*
X0144496Y0207648D02*
X0144496Y0204579D01*
X0142961Y0223044D02*
X0141427Y0224579D01*
X0141427Y0227648D01*
X0139892Y0225346D02*
X0139125Y0226114D01*
X0137590Y0226114D01*
X0136823Y0225346D01*
X0136823Y0224579D01*
X0139892Y0224579D01*
X0139892Y0223812D02*
X0139892Y0225346D01*
X0139892Y0223812D02*
X0139125Y0223044D01*
X0137590Y0223044D01*
X0135288Y0223812D02*
X0135288Y0225346D01*
X0134521Y0226114D01*
X0132986Y0226114D01*
X0132219Y0225346D01*
X0132219Y0224579D01*
X0135288Y0224579D01*
X0135288Y0223812D02*
X0134521Y0223044D01*
X0132986Y0223044D01*
X0142961Y0223044D02*
X0144496Y0224579D01*
X0144496Y0227648D01*
X0146031Y0227648D02*
X0149100Y0225346D01*
X0146031Y0223044D01*
X0146031Y0243044D02*
X0149100Y0245346D01*
X0146031Y0247648D01*
X0144496Y0247648D02*
X0144496Y0244579D01*
X0142961Y0243044D01*
X0141427Y0244579D01*
X0141427Y0247648D01*
X0139892Y0246114D02*
X0138358Y0247648D01*
X0136823Y0246114D01*
X0136823Y0243044D01*
X0136823Y0245346D02*
X0139892Y0245346D01*
X0139892Y0246114D02*
X0139892Y0243044D01*
X0139892Y0252277D02*
X0136823Y0252277D01*
X0135288Y0253044D02*
X0135288Y0257648D01*
X0132986Y0257648D01*
X0132219Y0256881D01*
X0132219Y0255346D01*
X0132986Y0254579D01*
X0135288Y0254579D01*
X0130684Y0253044D02*
X0129150Y0254579D01*
X0127615Y0253044D01*
X0127615Y0257648D01*
X0126080Y0257648D02*
X0124546Y0256114D01*
X0123011Y0257648D01*
X0123011Y0253044D01*
X0126080Y0253044D02*
X0126080Y0257648D01*
X0130684Y0257648D02*
X0130684Y0253044D01*
X0132219Y0263044D02*
X0134521Y0263044D01*
X0135288Y0263812D01*
X0135288Y0265346D01*
X0134521Y0266114D01*
X0132219Y0266114D01*
X0136823Y0266114D02*
X0139125Y0266114D01*
X0139892Y0265346D01*
X0139892Y0263812D01*
X0139125Y0263044D01*
X0136823Y0263044D01*
X0141427Y0264579D02*
X0141427Y0267648D01*
X0141427Y0264579D02*
X0142961Y0263044D01*
X0144496Y0264579D01*
X0144496Y0267648D01*
X0146031Y0267648D02*
X0149100Y0265346D01*
X0146031Y0263044D01*
X0146031Y0257648D02*
X0149100Y0255346D01*
X0146031Y0253044D01*
X0144496Y0254579D02*
X0142961Y0253044D01*
X0141427Y0254579D01*
X0141427Y0257648D01*
X0144496Y0257648D02*
X0144496Y0254579D01*
X0142961Y0273044D02*
X0141427Y0274579D01*
X0141427Y0277648D01*
X0139892Y0275346D02*
X0139125Y0276114D01*
X0137590Y0276114D01*
X0136823Y0275346D01*
X0136823Y0274579D01*
X0139892Y0274579D01*
X0139892Y0273812D02*
X0139892Y0275346D01*
X0139892Y0273812D02*
X0139125Y0273044D01*
X0137590Y0273044D01*
X0135288Y0273812D02*
X0135288Y0275346D01*
X0134521Y0276114D01*
X0132986Y0276114D01*
X0132219Y0275346D01*
X0132219Y0274579D01*
X0135288Y0274579D01*
X0135288Y0273812D02*
X0134521Y0273044D01*
X0132986Y0273044D01*
X0142961Y0273044D02*
X0144496Y0274579D01*
X0144496Y0277648D01*
X0146031Y0277648D02*
X0149100Y0275346D01*
X0146031Y0273044D01*
D12*
X0213997Y0251423D02*
X0213997Y0239266D01*
X0219607Y0239266D01*
X0219607Y0251423D01*
X0213997Y0251423D01*
X0213997Y0211423D02*
X0213997Y0199266D01*
X0219607Y0199266D01*
X0219607Y0211423D01*
X0213997Y0211423D01*
X0213997Y0171423D02*
X0213997Y0159266D01*
X0219607Y0159266D01*
X0219607Y0171423D01*
X0213997Y0171423D01*
X0213997Y0131423D02*
X0213997Y0119266D01*
X0219607Y0119266D01*
X0219607Y0131423D01*
X0213997Y0131423D01*
X0213997Y0091423D02*
X0213997Y0079266D01*
X0219607Y0079266D01*
X0219607Y0091423D01*
X0213997Y0091423D01*
X0185379Y0043148D02*
X0173221Y0043148D01*
X0173221Y0037537D01*
X0185379Y0037537D01*
X0185379Y0043148D01*
X0198993Y0026423D02*
X0204603Y0026423D01*
X0204603Y0014266D01*
X0198993Y0014266D01*
X0198993Y0026423D01*
X0078815Y0065344D02*
X0060288Y0083871D01*
X0058312Y0083871D01*
X0039785Y0065344D01*
X0059300Y0045829D01*
X0078815Y0065344D01*
X0057886Y0080618D02*
X0057888Y0080693D01*
X0057894Y0080767D01*
X0057904Y0080841D01*
X0057917Y0080914D01*
X0057935Y0080987D01*
X0057956Y0081058D01*
X0057981Y0081129D01*
X0058010Y0081198D01*
X0058043Y0081265D01*
X0058079Y0081330D01*
X0058118Y0081394D01*
X0058160Y0081455D01*
X0058206Y0081514D01*
X0058255Y0081571D01*
X0058307Y0081624D01*
X0058361Y0081675D01*
X0058418Y0081724D01*
X0058478Y0081768D01*
X0058540Y0081810D01*
X0058604Y0081849D01*
X0058670Y0081884D01*
X0058737Y0081915D01*
X0058807Y0081943D01*
X0058877Y0081967D01*
X0058949Y0081988D01*
X0059022Y0082004D01*
X0059095Y0082017D01*
X0059170Y0082026D01*
X0059244Y0082031D01*
X0059319Y0082032D01*
X0059393Y0082029D01*
X0059468Y0082022D01*
X0059541Y0082011D01*
X0059615Y0081997D01*
X0059687Y0081978D01*
X0059758Y0081956D01*
X0059828Y0081930D01*
X0059897Y0081900D01*
X0059963Y0081867D01*
X0060028Y0081830D01*
X0060091Y0081790D01*
X0060152Y0081746D01*
X0060210Y0081700D01*
X0060266Y0081650D01*
X0060319Y0081598D01*
X0060370Y0081543D01*
X0060417Y0081485D01*
X0060461Y0081425D01*
X0060502Y0081362D01*
X0060540Y0081298D01*
X0060574Y0081232D01*
X0060605Y0081163D01*
X0060632Y0081094D01*
X0060655Y0081023D01*
X0060674Y0080951D01*
X0060690Y0080878D01*
X0060702Y0080804D01*
X0060710Y0080730D01*
X0060714Y0080655D01*
X0060714Y0080581D01*
X0060710Y0080506D01*
X0060702Y0080432D01*
X0060690Y0080358D01*
X0060674Y0080285D01*
X0060655Y0080213D01*
X0060632Y0080142D01*
X0060605Y0080073D01*
X0060574Y0080004D01*
X0060540Y0079938D01*
X0060502Y0079874D01*
X0060461Y0079811D01*
X0060417Y0079751D01*
X0060370Y0079693D01*
X0060319Y0079638D01*
X0060266Y0079586D01*
X0060210Y0079536D01*
X0060152Y0079490D01*
X0060091Y0079446D01*
X0060028Y0079406D01*
X0059963Y0079369D01*
X0059897Y0079336D01*
X0059828Y0079306D01*
X0059758Y0079280D01*
X0059687Y0079258D01*
X0059615Y0079239D01*
X0059541Y0079225D01*
X0059468Y0079214D01*
X0059393Y0079207D01*
X0059319Y0079204D01*
X0059244Y0079205D01*
X0059170Y0079210D01*
X0059095Y0079219D01*
X0059022Y0079232D01*
X0058949Y0079248D01*
X0058877Y0079269D01*
X0058807Y0079293D01*
X0058737Y0079321D01*
X0058670Y0079352D01*
X0058604Y0079387D01*
X0058540Y0079426D01*
X0058478Y0079468D01*
X0058418Y0079512D01*
X0058361Y0079561D01*
X0058307Y0079612D01*
X0058255Y0079665D01*
X0058206Y0079722D01*
X0058160Y0079781D01*
X0058118Y0079842D01*
X0058079Y0079906D01*
X0058043Y0079971D01*
X0058010Y0080038D01*
X0057981Y0080107D01*
X0057956Y0080178D01*
X0057935Y0080249D01*
X0057917Y0080322D01*
X0057904Y0080395D01*
X0057894Y0080469D01*
X0057888Y0080543D01*
X0057886Y0080618D01*
D13*
X0057140Y0240505D02*
X0041460Y0240505D01*
X0041460Y0260184D01*
X0057140Y0260184D01*
X0057140Y0240505D01*
X0051300Y0260184D02*
X0051298Y0260096D01*
X0051292Y0260007D01*
X0051282Y0259919D01*
X0051269Y0259832D01*
X0051251Y0259745D01*
X0051230Y0259659D01*
X0051205Y0259574D01*
X0051176Y0259491D01*
X0051143Y0259408D01*
X0051107Y0259328D01*
X0051068Y0259249D01*
X0051025Y0259171D01*
X0050978Y0259096D01*
X0050928Y0259023D01*
X0050875Y0258952D01*
X0050819Y0258883D01*
X0050760Y0258817D01*
X0050698Y0258754D01*
X0050634Y0258694D01*
X0050567Y0258636D01*
X0050497Y0258582D01*
X0050425Y0258530D01*
X0050351Y0258482D01*
X0050274Y0258437D01*
X0050196Y0258396D01*
X0050116Y0258358D01*
X0050035Y0258324D01*
X0049952Y0258293D01*
X0049867Y0258266D01*
X0049782Y0258243D01*
X0049696Y0258224D01*
X0049608Y0258208D01*
X0049521Y0258196D01*
X0049433Y0258188D01*
X0049344Y0258184D01*
X0049256Y0258184D01*
X0049167Y0258188D01*
X0049079Y0258196D01*
X0048992Y0258208D01*
X0048904Y0258224D01*
X0048818Y0258243D01*
X0048733Y0258266D01*
X0048648Y0258293D01*
X0048565Y0258324D01*
X0048484Y0258358D01*
X0048404Y0258396D01*
X0048326Y0258437D01*
X0048249Y0258482D01*
X0048175Y0258530D01*
X0048103Y0258582D01*
X0048033Y0258636D01*
X0047966Y0258694D01*
X0047902Y0258754D01*
X0047840Y0258817D01*
X0047781Y0258883D01*
X0047725Y0258952D01*
X0047672Y0259023D01*
X0047622Y0259096D01*
X0047575Y0259171D01*
X0047532Y0259249D01*
X0047493Y0259328D01*
X0047457Y0259408D01*
X0047424Y0259491D01*
X0047395Y0259574D01*
X0047370Y0259659D01*
X0047349Y0259745D01*
X0047331Y0259832D01*
X0047318Y0259919D01*
X0047308Y0260007D01*
X0047302Y0260096D01*
X0047300Y0260184D01*
M02*
